<svg xmlns="http://www.w3.org/2000/svg" xmlns:xlink="http://www.w3.org/1999/xlink" x="0" y="0" width="661.3333740234375" height="301.3333435058594" style="
        width:661.3333740234375px;
        height:301.3333435058594px;
        background: #FFF;
        fill: none;
">
        
        
        <svg xmlns="http://www.w3.org/2000/svg" class="role-diagram-draw-area"><g class="shapes-region" style="stroke: black; fill: none;"><g class="composite-shape" data-amt="diagram/shapes/plot" transform="matrix(1,0,0,1,178.00000000000003,48)"><g><g/><g><g class="test-xti" style="font-family: Asana-Math, Asana;"><line x1="0" y1="212.77372291535636" x2="318" y2="212.77372291535636" fill="none" stroke="rgb(50,50,50)" stroke-opacity="1" stroke-width="1"/><line x1="103.08681013624758" y1="208.77372291535636" x2="103.08681013624758" y2="216.77372291535636" fill="none" stroke="rgb(50,50,50)" stroke-opacity="1" stroke-width="1"/><line x1="164.2618101362476" y1="208.77372291535636" x2="164.2618101362476" y2="216.77372291535636" fill="none" stroke="rgb(50,50,50)" stroke-opacity="1" stroke-width="1"/><line x1="225.43681013624757" y1="208.77372291535636" x2="225.43681013624757" y2="216.77372291535636" fill="none" stroke="rgb(50,50,50)" stroke-opacity="1" stroke-width="1"/><line x1="286.6118101362476" y1="208.77372291535636" x2="286.6118101362476" y2="216.77372291535636" fill="none" stroke="rgb(50,50,50)" stroke-opacity="1" stroke-width="1"/><path d="M313,209.17372291535636 L321,212.77372291535636 L313,216.37372291535635 Z" stroke="none" stroke-width="1" fill="rgb(50,50,50)" fill-opacity="1"/></g><g class="test-yti" style="font-family: Asana-Math, Asana;"><line x1="41.91181013624758" y1="4" x2="41.91181013624758" y2="252" fill="none" stroke="rgb(50,50,50)" stroke-opacity="1" stroke-width="1"/><line x1="37.91181013624758" y1="122.47372291535638" x2="45.91181013624758" y2="122.47372291535638" fill="none" stroke="rgb(50,50,50)" stroke-opacity="1" stroke-width="1"/><line x1="37.91181013624758" y1="32.173722915356365" x2="45.91181013624758" y2="32.173722915356365" fill="none" stroke="rgb(50,50,50)" stroke-opacity="1" stroke-width="1"/><path d="M38.31181013624758,9 L41.91181013624758,1 L45.51181013624758,9 Z" stroke="none" stroke-width="1" fill="rgb(50,50,50)" fill-opacity="1"/></g><g class="test-plot-expression"><defs><clipPath id="cpxtj15la7t"><rect x="1" y="1" width="320" height="250"/></clipPath></defs><g clip-path="url(#cpxtj15la7t)"><path d=" M41.91,204.86 L42.29,204.70 L42.67,204.55 L43.05,204.39 L43.43,204.22 L43.81,204.06 L44.20,203.89 L44.58,203.72 L44.96,203.55 L45.34,203.37 L45.72,203.19 L46.10,203.01 L46.48,202.82 L46.86,202.64 L47.24,202.45 L47.62,202.25 L48.00,202.06 L48.38,201.86 L48.76,201.65 L49.14,201.45 L49.52,201.24 L49.90,201.03 L50.28,200.81 L50.66,200.59 L51.05,200.37 L51.43,200.15 L51.81,199.92 L52.19,199.69 L52.57,199.45 L52.95,199.22 L53.33,198.97 L53.71,198.73 L54.09,198.48 L54.47,198.23 L54.85,197.97 L55.23,197.71 L55.61,197.45 L55.99,197.19 L56.37,196.92 L56.75,196.64 L57.13,196.36 L57.51,196.08 L57.90,195.80 L58.28,195.51 L58.66,195.22 L59.04,194.92 L59.42,194.62 L59.80,194.32 L60.18,194.01 L60.56,193.69 L60.94,193.38 L61.32,193.06 L61.70,192.73 L62.08,192.40 L62.46,192.07 L62.84,191.73 L63.22,191.39 L63.60,191.05 L63.98,190.70 L64.36,190.34 L64.75,189.99 L65.13,189.62 L65.51,189.26 L65.89,188.89 L66.27,188.51 L66.65,188.13 L67.03,187.75 L67.41,187.36 L67.79,186.96 L68.17,186.57 L68.55,186.16 L68.93,185.76 L69.31,185.34 L69.69,184.93 L70.07,184.51 L70.45,184.08 L70.83,183.65 L71.21,183.22 L71.60,182.78 L71.98,182.33 L72.36,181.89 L72.74,181.43 L73.12,180.97 L73.50,180.51 L73.88,180.04 L74.26,179.57 L74.64,179.09 L75.02,178.61 L75.40,178.13 L75.78,177.63 L76.16,177.14 L76.54,176.64 L76.92,176.13 L77.30,175.62 L77.68,175.10 L78.06,174.58 L78.45,174.06 L78.83,173.53 L79.21,172.99 L79.59,172.45 L79.97,171.91 L80.35,171.36 L80.73,170.80 L81.11,170.24 L81.49,169.68 L81.87,169.11 L82.25,168.54 L82.63,167.96 L83.01,167.37 L83.39,166.78 L83.77,166.19 L84.15,165.59 L84.53,164.99 L84.92,164.38 L85.30,163.77 L85.68,163.15 L86.06,162.53 L86.44,161.90 L86.82,161.27 L87.20,160.64 L87.58,160.00 L87.96,159.35 L88.34,158.70 L88.72,158.05 L89.10,157.39 L89.48,156.72 L89.86,156.05 L90.24,155.38 L90.62,154.70 L91.00,154.02 L91.38,153.34 L91.77,152.65 L92.15,151.95 L92.53,151.25 L92.91,150.55 L93.29,149.84 L93.67,149.13 L94.05,148.41 L94.43,147.69 L94.81,146.97 L95.19,146.24 L95.57,145.51 L95.95,144.77 L96.33,144.03 L96.71,143.29 L97.09,142.54 L97.47,141.79 L97.85,141.04 L98.23,140.28 L98.62,139.51 L99.00,138.75 L99.38,137.98 L99.76,137.21 L100.14,136.43 L100.52,135.65 L100.90,134.87 L101.28,134.08 L101.66,133.29 L102.04,132.50 L102.42,131.71 L102.80,130.91 L103.18,130.11 L103.56,129.30 L103.94,128.50 L104.32,127.69 L104.70,126.88 L105.08,126.06 L105.47,125.25 L105.85,124.43 L106.23,123.61 L106.61,122.78 L106.99,121.96 L107.37,121.13 L107.75,120.30 L108.13,119.47 L108.51,118.64 L108.89,117.80 L109.27,116.96 L109.65,116.13 L110.03,115.29 L110.41,114.45 L110.79,113.61 L111.17,112.76 L111.55,111.92 L111.93,111.07 L112.32,110.23 L112.70,109.38 L113.08,108.53 L113.46,107.68 L113.84,106.84 L114.22,105.99 L114.60,105.14 L114.98,104.29 L115.36,103.44 L115.74,102.59 L116.12,101.74 L116.50,100.89 L116.88,100.04 L117.26,99.19 L117.64,98.35 L118.02,97.50 L118.40,96.65 L118.78,95.81 L119.17,94.96 L119.55,94.12 L119.93,93.28 L120.31,92.43 L120.69,91.59 L121.07,90.76 L121.45,89.92 L121.83,89.09 L122.21,88.25 L122.59,87.42 L122.97,86.59 L123.35,85.77 L123.73,84.94 L124.11,84.12 L124.49,83.30 L124.87,82.48 L125.25,81.67 L125.63,80.86 L126.02,80.05 L126.40,79.24 L126.78,78.44 L127.16,77.64 L127.54,76.85 L127.92,76.06 L128.30,75.27 L128.68,74.49 L129.06,73.71 L129.44,72.93 L129.82,72.16 L130.20,71.39 L130.58,70.63 L130.96,69.87 L131.34,69.12 L131.72,68.37 L132.10,67.62 L132.49,66.89 L132.87,66.15 L133.25,65.42 L133.63,64.70 L134.01,63.98 L134.39,63.27 L134.77,62.56 L135.15,61.86 L135.53,61.17 L135.91,60.48 L136.29,59.79 L136.67,59.12 L137.05,58.45 L137.43,57.78 L137.81,57.13 L138.19,56.47 L138.57,55.83 L138.95,55.19 L139.34,54.56 L139.72,53.94 L140.10,53.32 L140.48,52.72 L140.86,52.11 L141.24,51.52 L141.62,50.93 L142.00,50.36 L142.38,49.79 L142.76,49.22 L143.14,48.67 L143.52,48.12 L143.90,47.58 L144.28,47.05 L144.66,46.53 L145.04,46.02 L145.42,45.51 L145.80,45.02 L146.19,44.53 L146.57,44.05 L146.95,43.58 L147.33,43.12 L147.71,42.67 L148.09,42.22 L148.47,41.79 L148.85,41.37 L149.23,40.95 L149.61,40.55 L149.99,40.15 L150.37,39.76 L150.75,39.39 L151.13,39.02 L151.51,38.66 L151.89,38.31 L152.27,37.97 L152.65,37.65 L153.04,37.33 L153.42,37.02 L153.80,36.72 L154.18,36.44 L154.56,36.16 L154.94,35.89 L155.32,35.63 L155.70,35.39 L156.08,35.15 L156.46,34.93 L156.84,34.71 L157.22,34.51 L157.60,34.31 L157.98,34.13 L158.36,33.95 L158.74,33.79 L159.12,33.64 L159.50,33.50 L159.89,33.37 L160.27,33.25 L160.65,33.14 L161.03,33.04 L161.41,32.96 L161.79,32.88 L162.17,32.82 L162.55,32.76 L162.93,32.72 L163.31,32.69 L163.69,32.66 L164.07,32.65 L164.45,32.65 L164.83,32.66 L165.21,32.69 L165.59,32.72 L165.97,32.76 L166.35,32.82 L166.74,32.88 L167.12,32.96 L167.50,33.04 L167.88,33.14 L168.26,33.25 L168.64,33.37 L169.02,33.50 L169.40,33.64 L169.78,33.79 L170.16,33.95 L170.54,34.13 L170.92,34.31 L171.30,34.51 L171.68,34.71 L172.06,34.93 L172.44,35.15 L172.82,35.39 L173.20,35.63 L173.59,35.89 L173.97,36.16 L174.35,36.44 L174.73,36.72 L175.11,37.02 L175.49,37.33 L175.87,37.65 L176.25,37.97 L176.63,38.31 L177.01,38.66 L177.39,39.02 L177.77,39.39 L178.15,39.76 L178.53,40.15 L178.91,40.55 L179.29,40.95 L179.67,41.37 L180.06,41.79 L180.44,42.22 L180.82,42.67 L181.20,43.12 L181.58,43.58 L181.96,44.05 L182.34,44.53 L182.72,45.02 L183.10,45.51 L183.48,46.02 L183.86,46.53 L184.24,47.05 L184.62,47.58 L185.00,48.12 L185.38,48.67 L185.76,49.22 L186.14,49.79 L186.52,50.36 L186.91,50.93 L187.29,51.52 L187.67,52.11 L188.05,52.72 L188.43,53.32 L188.81,53.94 L189.19,54.56 L189.57,55.19 L189.95,55.83 L190.33,56.47 L190.71,57.13 L191.09,57.78 L191.47,58.45 L191.85,59.12 L192.23,59.79 L192.61,60.48 L192.99,61.17 L193.37,61.86 L193.76,62.56 L194.14,63.27 L194.52,63.98 L194.90,64.70 L195.28,65.42 L195.66,66.15 L196.04,66.89 L196.42,67.62 L196.80,68.37 L197.18,69.12 L197.56,69.87 L197.94,70.63 L198.32,71.39 L198.70,72.16 L199.08,72.93 L199.46,73.71 L199.84,74.49 L200.22,75.27 L200.61,76.06 L200.99,76.85 L201.37,77.64 L201.75,78.44 L202.13,79.24 L202.51,80.05 L202.89,80.86 L203.27,81.67 L203.65,82.48 L204.03,83.30 L204.41,84.12 L204.79,84.94 L205.17,85.77 L205.55,86.59 L205.93,87.42 L206.31,88.25 L206.69,89.09 L207.07,89.92 L207.46,90.76 L207.84,91.59 L208.22,92.43 L208.60,93.28 L208.98,94.12 L209.36,94.96 L209.74,95.81 L210.12,96.65 L210.50,97.50 L210.88,98.35 L211.26,99.19 L211.64,100.04 L212.02,100.89 L212.40,101.74 L212.78,102.59 L213.16,103.44 L213.54,104.29 L213.92,105.14 L214.31,105.99 L214.69,106.84 L215.07,107.68 L215.45,108.53 L215.83,109.38 L216.21,110.23 L216.59,111.07 L216.97,111.92 L217.35,112.76 L217.73,113.61 L218.11,114.45 L218.49,115.29 L218.87,116.13 L219.25,116.96 L219.63,117.80 L220.01,118.64 L220.39,119.47 L220.77,120.30 L221.16,121.13 L221.54,121.96 L221.92,122.78 L222.30,123.61 L222.68,124.43 L223.06,125.25 L223.44,126.06 L223.82,126.88 L224.20,127.69 L224.58,128.50 L224.96,129.30 L225.34,130.11 L225.72,130.91 L226.10,131.71 L226.48,132.50 L226.86,133.29 L227.24,134.08 L227.63,134.87 L228.01,135.65 L228.39,136.43 L228.77,137.21 L229.15,137.98 L229.53,138.75 L229.91,139.51 L230.29,140.28 L230.67,141.04 L231.05,141.79 L231.43,142.54 L231.81,143.29 L232.19,144.03 L232.57,144.77 L232.95,145.51 L233.33,146.24 L233.71,146.97 L234.09,147.69 L234.48,148.41 L234.86,149.13 L235.24,149.84 L235.62,150.55 L236.00,151.25 L236.38,151.95 L236.76,152.65 L237.14,153.34 L237.52,154.02 L237.90,154.70 L238.28,155.38 L238.66,156.05 L239.04,156.72 L239.42,157.39 L239.80,158.05 L240.18,158.70 L240.56,159.35 L240.94,160.00 L241.33,160.64 L241.71,161.27 L242.09,161.90 L242.47,162.53 L242.85,163.15 L243.23,163.77 L243.61,164.38 L243.99,164.99 L244.37,165.59 L244.75,166.19 L245.13,166.78 L245.51,167.37 L245.89,167.96 L246.27,168.54 L246.65,169.11 L247.03,169.68 L247.41,170.24 L247.79,170.80 L248.18,171.36 L248.56,171.91 L248.94,172.45 L249.32,172.99 L249.70,173.53 L250.08,174.06 L250.46,174.58 L250.84,175.10 L251.22,175.62 L251.60,176.13 L251.98,176.64 L252.36,177.14 L252.74,177.63 L253.12,178.13 L253.50,178.61 L253.88,179.09 L254.26,179.57 L254.64,180.04 L255.03,180.51 L255.41,180.97 L255.79,181.43 L256.17,181.89 L256.55,182.33 L256.93,182.78 L257.31,183.22 L257.69,183.65 L258.07,184.08 L258.45,184.51 L258.83,184.93 L259.21,185.34 L259.59,185.76 L259.97,186.16 L260.35,186.57 L260.73,186.96 L261.11,187.36 L261.49,187.75 L261.88,188.13 L262.26,188.51 L262.64,188.89 L263.02,189.26 L263.40,189.62 L263.78,189.99 L264.16,190.34 L264.54,190.70 L264.92,191.05 L265.30,191.39 L265.68,191.73 L266.06,192.07 L266.44,192.40 L266.82,192.73 L267.20,193.06 L267.58,193.38 L267.96,193.69 L268.34,194.01 L268.73,194.32 L269.11,194.62 L269.49,194.92 L269.87,195.22 L270.25,195.51 L270.63,195.80 L271.01,196.08 L271.39,196.36 L271.77,196.64 L272.15,196.92 L272.53,197.19 L272.91,197.45 L273.29,197.71 L273.67,197.97 L274.05,198.23 L274.43,198.48 L274.81,198.73 L275.20,198.97 L275.58,199.22 L275.96,199.45 L276.34,199.69 L276.72,199.92 L277.10,200.15 L277.48,200.37 L277.86,200.59 L278.24,200.81 L278.62,201.03 L279.00,201.24 L279.38,201.45 L279.76,201.65 L280.14,201.86 L280.52,202.06 L280.90,202.25 L281.28,202.45 L281.66,202.64 L282.05,202.82 L282.43,203.01 L282.81,203.19 L283.19,203.37 L283.57,203.55 L283.95,203.72 L284.33,203.89 L284.71,204.06 L285.09,204.22 L285.47,204.39 L285.85,204.55 L286.23,204.70 L286.61,204.86" style="stroke-width: 3; stroke: rgb(60, 180, 75); stroke-opacity: 0.8;"/><path d=" M164.26, 212.77 L164.26, 212.41 L164.26, 212.06 L164.26, 211.70 L164.26, 211.34 L164.26, 210.98 L164.26, 210.62 L164.26, 210.26 L164.26, 209.90 L164.26, 209.54 L164.26, 209.18 L164.26, 208.82 L164.26, 208.47 L164.26, 208.11 L164.26, 207.75 L164.26, 207.39 L164.26, 207.03 L164.26, 206.67 L164.26, 206.31 L164.26, 205.95 L164.26, 205.59 L164.26, 205.23 L164.26, 204.87 L164.26, 204.52 L164.26, 204.16 L164.26, 203.80 L164.26, 203.44 L164.26, 203.08 L164.26, 202.72 L164.26, 202.36 L164.26, 202.00 L164.26, 201.64 L164.26, 201.28 L164.26, 200.93 L164.26, 200.57 L164.26, 200.21 L164.26, 199.85 L164.26, 199.49 L164.26, 199.13 L164.26, 198.77 L164.26, 198.41 L164.26, 198.05 L164.26, 197.69 L164.26, 197.33 L164.26, 196.98 L164.26, 196.62 L164.26, 196.26 L164.26, 195.90 L164.26, 195.54 L164.26, 195.18 L164.26, 194.82 L164.26, 194.46 L164.26, 194.10 L164.26, 193.74 L164.26, 193.39 L164.26, 193.03 L164.26, 192.67 L164.26, 192.31 L164.26, 191.95 L164.26, 191.59 L164.26, 191.23 L164.26, 190.87 L164.26, 190.51 L164.26, 190.15 L164.26, 189.79 L164.26, 189.44 L164.26, 189.08 L164.26, 188.72 L164.26, 188.36 L164.26, 188.00 L164.26, 187.64 L164.26, 187.28 L164.26, 186.92 L164.26, 186.56 L164.26, 186.20 L164.26, 185.85 L164.26, 185.49 L164.26, 185.13 L164.26, 184.77 L164.26, 184.41 L164.26, 184.05 L164.26, 183.69 L164.26, 183.33 L164.26, 182.97 L164.26, 182.61 L164.26, 182.25 L164.26, 181.90 L164.26, 181.54 L164.26, 181.18 L164.26, 180.82 L164.26, 180.46 L164.26, 180.10 L164.26, 179.74 L164.26, 179.38 L164.26, 179.02 L164.26, 178.66 L164.26, 178.31 L164.26, 177.95 L164.26, 177.59 L164.26, 177.23 L164.26, 176.87 L164.26, 176.51 L164.26, 176.15 L164.26, 175.79 L164.26, 175.43 L164.26, 175.07 L164.26, 174.71 L164.26, 174.36 L164.26, 174.00 L164.26, 173.64 L164.26, 173.28 L164.26, 172.92 L164.26, 172.56 L164.26, 172.20 L164.26, 171.84 L164.26, 171.48 L164.26, 171.12 L164.26, 170.77 L164.26, 170.41 L164.26, 170.05 L164.26, 169.69 L164.26, 169.33 L164.26, 168.97 L164.26, 168.61 L164.26, 168.25 L164.26, 167.89 L164.26, 167.53 L164.26, 167.17 L164.26, 166.82 L164.26, 166.46 L164.26, 166.10 L164.26, 165.74 L164.26, 165.38 L164.26, 165.02 L164.26, 164.66 L164.26, 164.30 L164.26, 163.94 L164.26, 163.58 L164.26, 163.23 L164.26, 162.87 L164.26, 162.51 L164.26, 162.15 L164.26, 161.79 L164.26, 161.43 L164.26, 161.07 L164.26, 160.71 L164.26, 160.35 L164.26, 159.99 L164.26, 159.63 L164.26, 159.28 L164.26, 158.92 L164.26, 158.56 L164.26, 158.20 L164.26, 157.84 L164.26, 157.48 L164.26, 157.12 L164.26, 156.76 L164.26, 156.40 L164.26, 156.04 L164.26, 155.69 L164.26, 155.33 L164.26, 154.97 L164.26, 154.61 L164.26, 154.25 L164.26, 153.89 L164.26, 153.53 L164.26, 153.17 L164.26, 152.81 L164.26, 152.45 L164.26, 152.09 L164.26, 151.74 L164.26, 151.38 L164.26, 151.02 L164.26, 150.66 L164.26, 150.30 L164.26, 149.94 L164.26, 149.58 L164.26, 149.22 L164.26, 148.86 L164.26, 148.50 L164.26, 148.15 L164.26, 147.79 L164.26, 147.43 L164.26, 147.07 L164.26, 146.71 L164.26, 146.35 L164.26, 145.99 L164.26, 145.63 L164.26, 145.27 L164.26, 144.91 L164.26, 144.56 L164.26, 144.20 L164.26, 143.84 L164.26, 143.48 L164.26, 143.12 L164.26, 142.76 L164.26, 142.40 L164.26, 142.04 L164.26, 141.68 L164.26, 141.32 L164.26, 140.96 L164.26, 140.61 L164.26, 140.25 L164.26, 139.89 L164.26, 139.53 L164.26, 139.17 L164.26, 138.81 L164.26, 138.45 L164.26, 138.09 L164.26, 137.73 L164.26, 137.37 L164.26, 137.02 L164.26, 136.66 L164.26, 136.30 L164.26, 135.94 L164.26, 135.58 L164.26, 135.22 L164.26, 134.86 L164.26, 134.50 L164.26, 134.14 L164.26, 133.78 L164.26, 133.42 L164.26, 133.07 L164.26, 132.71 L164.26, 132.35 L164.26, 131.99 L164.26, 131.63 L164.26, 131.27 L164.26, 130.91 L164.26, 130.55 L164.26, 130.19 L164.26, 129.83 L164.26, 129.48 L164.26, 129.12 L164.26, 128.76 L164.26, 128.40 L164.26, 128.04 L164.26, 127.68 L164.26, 127.32 L164.26, 126.96 L164.26, 126.60 L164.26, 126.24 L164.26, 125.88 L164.26, 125.53 L164.26, 125.17 L164.26, 124.81 L164.26, 124.45 L164.26, 124.09 L164.26, 123.73 L164.26, 123.37 L164.26, 123.01 L164.26, 122.65 L164.26, 122.29 L164.26, 121.94 L164.26, 121.58 L164.26, 121.22 L164.26, 120.86 L164.26, 120.50 L164.26, 120.14 L164.26, 119.78 L164.26, 119.42 L164.26, 119.06 L164.26, 118.70 L164.26, 118.34 L164.26, 117.99 L164.26, 117.63 L164.26, 117.27 L164.26, 116.91 L164.26, 116.55 L164.26, 116.19 L164.26, 115.83 L164.26, 115.47 L164.26, 115.11 L164.26, 114.75 L164.26, 114.40 L164.26, 114.04 L164.26, 113.68 L164.26, 113.32 L164.26, 112.96 L164.26, 112.60 L164.26, 112.24 L164.26, 111.88 L164.26, 111.52 L164.26, 111.16 L164.26, 110.80 L164.26, 110.45 L164.26, 110.09 L164.26, 109.73 L164.26, 109.37 L164.26, 109.01 L164.26, 108.65 L164.26, 108.29 L164.26, 107.93 L164.26, 107.57 L164.26, 107.21 L164.26, 106.86 L164.26, 106.50 L164.26, 106.14 L164.26, 105.78 L164.26, 105.42 L164.26, 105.06 L164.26, 104.70 L164.26, 104.34 L164.26, 103.98 L164.26, 103.62 L164.26, 103.26 L164.26, 102.91 L164.26, 102.55 L164.26, 102.19 L164.26, 101.83 L164.26, 101.47 L164.26, 101.11 L164.26, 100.75 L164.26, 100.39 L164.26, 100.03 L164.26, 99.67 L164.26, 99.32 L164.26, 98.96 L164.26, 98.60 L164.26, 98.24 L164.26, 97.88 L164.26, 97.52 L164.26, 97.16 L164.26, 96.80 L164.26, 96.44 L164.26, 96.08 L164.26, 95.72 L164.26, 95.37 L164.26, 95.01 L164.26, 94.65 L164.26, 94.29 L164.26, 93.93 L164.26, 93.57 L164.26, 93.21 L164.26, 92.85 L164.26, 92.49 L164.26, 92.13 L164.26, 91.78 L164.26, 91.42 L164.26, 91.06 L164.26, 90.70 L164.26, 90.34 L164.26, 89.98 L164.26, 89.62 L164.26, 89.26 L164.26, 88.90 L164.26, 88.54 L164.26, 88.18 L164.26, 87.83 L164.26, 87.47 L164.26, 87.11 L164.26, 86.75 L164.26, 86.39 L164.26, 86.03 L164.26, 85.67 L164.26, 85.31 L164.26, 84.95 L164.26, 84.59 L164.26, 84.24 L164.26, 83.88 L164.26, 83.52 L164.26, 83.16 L164.26, 82.80 L164.26, 82.44 L164.26, 82.08 L164.26, 81.72 L164.26, 81.36 L164.26, 81.00 L164.26, 80.64 L164.26, 80.29 L164.26, 79.93 L164.26, 79.57 L164.26, 79.21 L164.26, 78.85 L164.26, 78.49 L164.26, 78.13 L164.26, 77.77 L164.26, 77.41 L164.26, 77.05 L164.26, 76.70 L164.26, 76.34 L164.26, 75.98 L164.26, 75.62 L164.26, 75.26 L164.26, 74.90 L164.26, 74.54 L164.26, 74.18 L164.26, 73.82 L164.26, 73.46 L164.26, 73.10 L164.26, 72.75 L164.26, 72.39 L164.26, 72.03 L164.26, 71.67 L164.26, 71.31 L164.26, 70.95 L164.26, 70.59 L164.26, 70.23 L164.26, 69.87 L164.26, 69.51 L164.26, 69.16 L164.26, 68.80 L164.26, 68.44 L164.26, 68.08 L164.26, 67.72 L164.26, 67.36 L164.26, 67.00 L164.26, 66.64 L164.26, 66.28 L164.26, 65.92 L164.26, 65.56 L164.26, 65.21 L164.26, 64.85 L164.26, 64.49 L164.26, 64.13 L164.26, 63.77 L164.26, 63.41 L164.26, 63.05 L164.26, 62.69 L164.26, 62.33 L164.26, 61.97 L164.26, 61.62 L164.26, 61.26 L164.26, 60.90 L164.26, 60.54 L164.26, 60.18 L164.26, 59.82 L164.26, 59.46 L164.26, 59.10 L164.26, 58.74 L164.26, 58.38 L164.26, 58.03 L164.26, 57.67 L164.26, 57.31 L164.26, 56.95 L164.26, 56.59 L164.26, 56.23 L164.26, 55.87 L164.26, 55.51 L164.26, 55.15 L164.26, 54.79 L164.26, 54.43 L164.26, 54.08 L164.26, 53.72 L164.26, 53.36 L164.26, 53.00 L164.26, 52.64 L164.26, 52.28 L164.26, 51.92 L164.26, 51.56 L164.26, 51.20 L164.26, 50.84 L164.26, 50.49 L164.26, 50.13 L164.26, 49.77 L164.26, 49.41 L164.26, 49.05 L164.26, 48.69 L164.26, 48.33 L164.26, 47.97 L164.26, 47.61 L164.26, 47.25 L164.26, 46.89 L164.26, 46.54 L164.26, 46.18 L164.26, 45.82 L164.26, 45.46 L164.26, 45.10 L164.26, 44.74 L164.26, 44.38 L164.26, 44.02 L164.26, 43.66 L164.26, 43.30 L164.26, 42.95 L164.26, 42.59 L164.26, 42.23 L164.26, 41.87 L164.26, 41.51 L164.26, 41.15 L164.26, 40.79 L164.26, 40.43 L164.26, 40.07 L164.26, 39.71 L164.26, 39.35 L164.26, 39.00 L164.26, 38.64 L164.26, 38.28 L164.26, 37.92 L164.26, 37.56 L164.26, 37.20 L164.26, 36.84 L164.26, 36.48 L164.26, 36.12 L164.26, 35.76 L164.26, 35.41 L164.26, 35.05 L164.26, 34.69 L164.26, 34.33 L164.26, 33.97 L164.26, 33.61 L164.26, 33.25 L164.26, 32.89 L164.26, 32.53 L164.26, 32.17" style="stroke-width: 3; stroke: rgb(0, 0, 0); stroke-opacity: 1; stroke-dasharray: 3.375, 4.02;"/></g></g><g class="test-xtl" style="font-family: &quot;Open Sans&quot;, verdana, arial, sans-serif;"><text text-anchor="middle" font-size="12" dominant-baseline="hanging" stroke="none" fill="rgb(50,50,50)" fill-opacity="1" x="103.08681013624758" y="219.77372291535636">0.25</text><text text-anchor="middle" font-size="12" dominant-baseline="hanging" stroke="none" fill="rgb(50,50,50)" fill-opacity="1" x="164.2618101362476" y="219.77372291535636">0.5</text><text text-anchor="middle" font-size="12" dominant-baseline="hanging" stroke="none" fill="rgb(50,50,50)" fill-opacity="1" x="225.43681013624757" y="219.77372291535636">0.75</text><text text-anchor="middle" font-size="12" dominant-baseline="hanging" stroke="none" fill="rgb(50,50,50)" fill-opacity="1" x="286.6118101362476" y="219.77372291535636">1</text><text text-anchor="middle" font-size="12" dominant-baseline="hanging" stroke="none" fill="rgb(50,50,50)" fill-opacity="1" x="33.91181013624758" y="217.77372291535636">0</text></g><g class="test-ytl" style="font-family: &quot;Open Sans&quot;, verdana, arial, sans-serif;"><text text-anchor="end" dominant-baseline="middle" font-size="12" stroke="none" fill="rgb(50,50,50)" fill-opacity="1" x="33.91181013624758" y="122.47372291535638">1</text><text text-anchor="end" dominant-baseline="middle" font-size="12" stroke="none" fill="rgb(50,50,50)" fill-opacity="1" x="33.91181013624758" y="32.173722915356365">2</text></g><rect class="real" x="1" y="1" width="320" height="250" style="fill: transparent; stroke: none;"/></g></g></g><g/></g><g/><g/><g/></svg>
        <svg xmlns="http://www.w3.org/2000/svg" xmlns:xlink="http://www.w3.org/1999/xlink" width="660" height="300" style="width:660px;height:300px;font-family:Asana-Math, Asana;background:#FFF;"><g><g><g><g transform="matrix(1,0,0,1,284.66668701171875,29)"><path transform="matrix(0.018,0,0,-0.018,0,0)" d="M91 47C91 29 92 0 137 0L550 0C572 0 595 6 595 44L595 65C595 89 587 110 553 111L233 107L233 310L505 310C518 310 550 311 550 357C550 404 522 405 498 405L233 405L233 590C477 587 507 586 538 586C576 586 580 613 580 630L580 646C580 665 578 691 535 691L137 691C108 691 91 682 91 644ZM701 45C701 6 725 0 748 0L792 0C838 0 838 53 838 53L838 261C838 279 839 297 844 315C853 346 885 396 947 396C1006 396 1006 355 1006 318L1006 44C1006 19 1013 0 1052 0L1099 0C1140 0 1142 28 1142 44L1142 308C1142 380 1142 469 994 469C913 469 867 435 832 400L832 420C832 463 804 463 786 463L746 463C727 463 701 460 701 418ZM1239 228C1239 52 1338 -11 1477 -11C1543 -11 1595 4 1639 27C1650 33 1659 37 1659 52L1659 60C1653 126 1654 125 1646 130L1641 131C1620 128 1584 67 1480 67C1379 67 1376 160 1376 223L1376 242C1376 296 1377 393 1473 397C1488 397 1521 398 1550 388C1593 373 1613 340 1629 340C1648 340 1653 418 1653 418C1653 426 1651 430 1645 434C1588 465 1548 475 1483 475C1353 475 1239 425 1239 228ZM1722 224C1722 36 1838 -11 1967 -11C2090 -11 2210 35 2210 220C2210 465 2048 475 1951 475C1838 475 1722 424 1722 224ZM1859 214L1859 241C1859 310 1857 402 1965 402C2072 402 2072 313 2073 255L2073 228C2072 161 2075 67 1966 67C1862 67 1861 155 1859 214ZM2309 239C2309 206 2309 172 2320 130C2348 23 2428 -11 2508 -11C2563 -11 2599 6 2635 32C2644 1 2663 0 2681 0L2727 0C2769 0 2772 27 2772 46L2772 677C2772 698 2769 722 2722 722L2682 722C2643 722 2638 697 2638 678L2638 433C2602 456 2563 469 2513 469C2408 469 2312 417 2309 239ZM2446 221L2446 242C2446 303 2447 396 2557 396C2604 396 2628 371 2635 366L2635 121C2635 91 2590 62 2547 62C2448 62 2446 150 2446 221ZM2864 233C2864 74 2951 -11 3118 -11C3187 -11 3249 9 3291 33C3303 40 3307 44 3307 55C3307 55 3307 114 3296 125L3291 127L3287 127C3267 121 3220 62 3120 62C3018 62 2995 136 2993 214L3269 214C3287 214 3313 216 3313 257C3313 364 3271 475 3104 475C2960 475 2864 401 2864 233ZM2994 279C3000 341 3024 402 3104 402C3182 402 3198 346 3201 279ZM3381 239C3381 206 3381 172 3392 130C3420 23 3500 -11 3580 -11C3635 -11 3671 6 3707 32C3716 1 3735 0 3753 0L3799 0C3841 0 3844 27 3844 46L3844 677C3844 698 3841 722 3794 722L3754 722C3715 722 3710 697 3710 678L3710 433C3674 456 3635 469 3585 469C3480 469 3384 417 3381 239ZM3518 221L3518 242C3518 303 3519 396 3629 396C3676 396 3700 371 3707 366L3707 121C3707 91 3662 62 3619 62C3520 62 3518 150 3518 221ZM4364 54C4364 33 4361 0 4409 0L4460 0C4482 0 4506 5 4506 44L4506 313L4833 313L4833 44C4833 3 4862 0 4880 0L4931 0C4978 0 4975 34 4975 54L4975 647C4975 662 4976 694 4929 694L4877 694C4837 694 4833 666 4833 650L4833 408L4506 408L4506 649C4506 667 4504 694 4462 694L4411 694C4366 694 4364 666 4364 647ZM5126 139C5126 68 5132 -11 5286 -11C5341 -11 5385 -3 5434 44C5434 37 5432 0 5475 0L5522 0C5548 0 5567 8 5567 43L5567 416C5566 451 5547 458 5522 458L5478 458C5466 458 5454 457 5444 449C5433 437 5431 436 5431 406L5431 181C5431 72 5365 50 5326 50C5268 50 5262 67 5262 123C5262 131 5263 139 5263 147L5263 413C5262 430 5263 458 5216 458L5170 458C5125 458 5126 424 5126 414ZM5687 45C5687 6 5711 0 5734 0L5778 0C5824 0 5824 53 5824 53L5824 261C5824 279 5825 297 5830 315C5839 346 5871 396 5933 396C5992 396 5992 355 5992 318L5992 44C5992 19 5999 0 6038 0L6085 0C6126 0 6128 28 6128 44L6128 308C6128 380 6128 469 5980 469C5899 469 5853 435 5818 400L5818 420C5818 463 5790 463 5772 463L5732 463C5713 463 5687 460 5687 418ZM6225 228C6225 52 6324 -11 6463 -11C6529 -11 6581 4 6625 27C6636 33 6645 37 6645 52L6645 60C6639 126 6640 125 6632 130L6627 131C6606 128 6570 67 6466 67C6365 67 6362 160 6362 223L6362 242C6362 296 6363 393 6459 397C6474 397 6507 398 6536 388C6579 373 6599 340 6615 340C6634 340 6639 418 6639 418C6639 426 6637 430 6631 434C6574 465 6534 475 6469 475C6339 475 6225 425 6225 228ZM6737 44C6737 21 6744 0 6783 0L6827 0C6873 0 6874 26 6874 50L6874 260C6874 272 6873 284 6875 295C6882 342 6919 396 6984 396C7037 396 7042 364 7042 324L7042 44C7042 19 7049 0 7088 0L7135 0C7176 0 7178 28 7178 44L7178 308C7178 380 7178 469 7030 469C6951 469 6905 437 6871 403L6871 677C6871 720 6844 722 6821 722L6781 722C6740 722 6737 695 6737 674Z" stroke="rgb(0,0,0)" stroke-opacity="1" stroke-width="8" fill="rgb(0,0,0)" fill-opacity="1"></path></g></g><g><text x="414.96875" y="13" style="white-space:pre;stroke:none;fill:rgb(0,0,0);fill-opacity:1;font-size:18px;font-family:Arial, Helvetica, sans-serif;font-weight:400;font-style:normal;dominant-baseline:text-before-edge;text-decoration:none solid rgb(0, 0, 0);"> </text></g></g></g></svg>
</svg>
