<svg xmlns="http://www.w3.org/2000/svg" xmlns:xlink="http://www.w3.org/1999/xlink" x="0" y="0" width="661.6000366210938" height="301.6000061035156" style="
        width:661.6000366210938px;
        height:301.6000061035156px;
        background: #FFF;
        fill: none;
">
        
        
        <svg xmlns="http://www.w3.org/2000/svg" class="role-diagram-draw-area"><g class="shapes-region" style="stroke: black; fill: none;"><g class="arrow-line"><path class="connection real" stroke-dasharray="" d="  M230,160 L450,160" style="stroke: rgb(0, 0, 0); stroke-width: 1; fill: none; fill-opacity: 1;"/></g><g class="arrow-line"><path class="connection real" stroke-dasharray="" d="  M340,260 L340,60" style="stroke: rgb(0, 0, 0); stroke-width: 1; fill: none; fill-opacity: 1;"/></g><g class="composite-shape"><path class="real" d=" M380,126.5 C380,124.57 381.57,123 383.5,123 C385.43,123 387,124.57 387,126.5 C387,128.43 385.43,130 383.5,130 C381.57,130 380,128.43 380,126.5 Z" style="stroke-width: 1; stroke: none; stroke-opacity: 1; fill: rgb(255, 0, 0); fill-opacity: 1;"/></g><g class="composite-shape"><path class="real" d=" M412,125.5 C412,123.57 413.57,122 415.5,122 C417.43,122 419,123.57 419,125.5 C419,127.43 417.43,129 415.5,129 C413.57,129 412,127.43 412,125.5 Z" style="stroke-width: 1; stroke: none; stroke-opacity: 1; fill: rgb(255, 0, 0); fill-opacity: 1;"/></g><g class="composite-shape"><path class="real" d=" M393,136.5 C393,134.57 394.57,133 396.5,133 C398.43,133 400,134.57 400,136.5 C400,138.43 398.43,140 396.5,140 C394.57,140 393,138.43 393,136.5 Z" style="stroke-width: 1; stroke: none; stroke-opacity: 1; fill: rgb(255, 0, 0); fill-opacity: 1;"/></g><g class="composite-shape"><path class="real" d=" M363,113.5 C363,111.57 364.57,110 366.5,110 C368.43,110 370,111.57 370,113.5 C370,115.43 368.43,117 366.5,117 C364.57,117 363,115.43 363,113.5 Z" style="stroke-width: 1; stroke: none; stroke-opacity: 1; fill: rgb(255, 0, 0); fill-opacity: 1;"/></g><g class="composite-shape"><path class="real" d=" M353,116.5 C353,114.57 354.57,113 356.5,113 C358.43,113 360,114.57 360,116.5 C360,118.43 358.43,120 356.5,120 C354.57,120 353,118.43 353,116.5 Z" style="stroke-width: 1; stroke: none; stroke-opacity: 1; fill: rgb(255, 0, 0); fill-opacity: 1;"/></g><g class="composite-shape"><path class="real" d=" M373,86.5 C373,84.57 374.57,83 376.5,83 C378.43,83 380,84.57 380,86.5 C380,88.43 378.43,90 376.5,90 C374.57,90 373,88.43 373,86.5 Z" style="stroke-width: 1; stroke: none; stroke-opacity: 1; fill: rgb(255, 0, 0); fill-opacity: 1;"/></g><g class="composite-shape"><path class="real" d=" M373,133.5 C373,131.57 374.57,130 376.5,130 C378.43,130 380,131.57 380,133.5 C380,135.43 378.43,137 376.5,137 C374.57,137 373,135.43 373,133.5 Z" style="stroke-width: 1; stroke: none; stroke-opacity: 1; fill: rgb(255, 0, 0); fill-opacity: 1;"/></g><g class="composite-shape"><path class="real" d=" M373,106.5 C373,104.57 374.57,103 376.5,103 C378.43,103 380,104.57 380,106.5 C380,108.43 378.43,110 376.5,110 C374.57,110 373,108.43 373,106.5 Z" style="stroke-width: 1; stroke: none; stroke-opacity: 1; fill: rgb(255, 0, 0); fill-opacity: 1;"/></g><g class="composite-shape"><path class="real" d=" M413,153.5 C413,151.57 414.57,150 416.5,150 C418.43,150 420,151.57 420,153.5 C420,155.43 418.43,157 416.5,157 C414.57,157 413,155.43 413,153.5 Z" style="stroke-width: 1; stroke: none; stroke-opacity: 1; fill: rgb(255, 0, 0); fill-opacity: 1;"/></g><g class="composite-shape"><path class="real" d=" M370,143.5 C370,141.57 371.57,140 373.5,140 C375.43,140 377,141.57 377,143.5 C377,145.43 375.43,147 373.5,147 C371.57,147 370,145.43 370,143.5 Z" style="stroke-width: 1; stroke: none; stroke-opacity: 1; fill: rgb(255, 0, 0); fill-opacity: 1;"/></g><g class="composite-shape"><path class="real" d=" M343,96.5 C343,94.57 344.57,93 346.5,93 C348.43,93 350,94.57 350,96.5 C350,98.43 348.43,100 346.5,100 C344.57,100 343,98.43 343,96.5 Z" style="stroke-width: 1; stroke: none; stroke-opacity: 1; fill: rgb(255, 0, 0); fill-opacity: 1;"/></g><g class="composite-shape"><path class="real" d=" M313,176.5 C313,174.57 314.57,173 316.5,173 C318.43,173 320,174.57 320,176.5 C320,178.43 318.43,180 316.5,180 C314.57,180 313,178.43 313,176.5 Z" style="stroke-width: 1; stroke: none; stroke-opacity: 1; fill: rgb(74, 144, 226); fill-opacity: 1;"/></g><g class="composite-shape"><path class="real" d=" M323,193.5 C323,191.57 324.57,190 326.5,190 C328.43,190 330,191.57 330,193.5 C330,195.43 328.43,197 326.5,197 C324.57,197 323,195.43 323,193.5 Z" style="stroke-width: 1; stroke: none; stroke-opacity: 1; fill: rgb(74, 144, 226); fill-opacity: 1;"/></g><g class="composite-shape"><path class="real" d=" M303,186.5 C303,184.57 304.57,183 306.5,183 C308.43,183 310,184.57 310,186.5 C310,188.43 308.43,190 306.5,190 C304.57,190 303,188.43 303,186.5 Z" style="stroke-width: 1; stroke: none; stroke-opacity: 1; fill: rgb(74, 144, 226); fill-opacity: 1;"/></g><g class="composite-shape"><path class="real" d=" M290,176.5 C290,174.57 291.57,173 293.5,173 C295.43,173 297,174.57 297,176.5 C297,178.43 295.43,180 293.5,180 C291.57,180 290,178.43 290,176.5 Z" style="stroke-width: 1; stroke: none; stroke-opacity: 1; fill: rgb(74, 144, 226); fill-opacity: 1;"/></g><g class="composite-shape"><path class="real" d=" M313,186.5 C313,184.57 314.57,183 316.5,183 C318.43,183 320,184.57 320,186.5 C320,188.43 318.43,190 316.5,190 C314.57,190 313,188.43 313,186.5 Z" style="stroke-width: 1; stroke: none; stroke-opacity: 1; fill: rgb(74, 144, 226); fill-opacity: 1;"/></g><g class="composite-shape"><path class="real" d=" M280,203.5 C280,201.57 281.57,200 283.5,200 C285.43,200 287,201.57 287,203.5 C287,205.43 285.43,207 283.5,207 C281.57,207 280,205.43 280,203.5 Z" style="stroke-width: 1; stroke: none; stroke-opacity: 1; fill: rgb(74, 144, 226); fill-opacity: 1;"/></g><g class="composite-shape"><path class="real" d=" M330,223.5 C330,221.57 331.57,220 333.5,220 C335.43,220 337,221.57 337,223.5 C337,225.43 335.43,227 333.5,227 C331.57,227 330,225.43 330,223.5 Z" style="stroke-width: 1; stroke: none; stroke-opacity: 1; fill: rgb(74, 144, 226); fill-opacity: 1;"/></g><g class="composite-shape"><path class="real" d=" M323,173.5 C323,171.57 324.57,170 326.5,170 C328.43,170 330,171.57 330,173.5 C330,175.43 328.43,177 326.5,177 C324.57,177 323,175.43 323,173.5 Z" style="stroke-width: 1; stroke: none; stroke-opacity: 1; fill: rgb(74, 144, 226); fill-opacity: 1;"/></g><g class="composite-shape"><path class="real" d=" M290,223.5 C290,221.57 291.57,220 293.5,220 C295.43,220 297,221.57 297,223.5 C297,225.43 295.43,227 293.5,227 C291.57,227 290,225.43 290,223.5 Z" style="stroke-width: 1; stroke: none; stroke-opacity: 1; fill: rgb(74, 144, 226); fill-opacity: 1;"/></g><g class="composite-shape"><path class="real" d=" M333,213.5 C333,211.57 334.57,210 336.5,210 C338.43,210 340,211.57 340,213.5 C340,215.43 338.43,217 336.5,217 C334.57,217 333,215.43 333,213.5 Z" style="stroke-width: 1; stroke: none; stroke-opacity: 1; fill: rgb(74, 144, 226); fill-opacity: 1;"/></g><g class="composite-shape"><path class="real" d=" M323,213.5 C323,211.57 324.57,210 326.5,210 C328.43,210 330,211.57 330,213.5 C330,215.43 328.43,217 326.5,217 C324.57,217 323,215.43 323,213.5 Z" style="stroke-width: 1; stroke: none; stroke-opacity: 1; fill: rgb(74, 144, 226); fill-opacity: 1;"/></g><g class="composite-shape"><path class="real" d=" M283,166.5 C283,164.57 284.57,163 286.5,163 C288.43,163 290,164.57 290,166.5 C290,168.43 288.43,170 286.5,170 C284.57,170 283,168.43 283,166.5 Z" style="stroke-width: 1; stroke: none; stroke-opacity: 1; fill: rgb(74, 144, 226); fill-opacity: 1;"/></g><g class="composite-shape"><path class="real" d=" M293,213.5 C293,211.57 294.57,210 296.5,210 C298.43,210 300,211.57 300,213.5 C300,215.43 298.43,217 296.5,217 C294.57,217 293,215.43 293,213.5 Z" style="stroke-width: 1; stroke: none; stroke-opacity: 1; fill: rgb(74, 144, 226); fill-opacity: 1;"/></g><g class="composite-shape"><path class="real" d=" M300,213.5 C300,211.57 301.57,210 303.5,210 C305.43,210 307,211.57 307,213.5 C307,215.43 305.43,217 303.5,217 C301.57,217 300,215.43 300,213.5 Z" style="stroke-width: 1; stroke: none; stroke-opacity: 1; fill: rgb(74, 144, 226); fill-opacity: 1;"/></g><g class="composite-shape"><path class="real" d=" M297,223.5 C297,221.57 298.57,220 300.5,220 C302.43,220 304,221.57 304,223.5 C304,225.43 302.43,227 300.5,227 C298.57,227 297,225.43 297,223.5 Z" style="stroke-width: 1; stroke: none; stroke-opacity: 1; fill: rgb(74, 144, 226); fill-opacity: 1;"/></g><g class="arrow-line"><path class="connection real" stroke-dasharray="" d="  M290,190 C266.48,203.07 238.16,205.25 211.62,200.31" style="stroke: rgb(0, 0, 0); stroke-width: 1; fill: none; fill-opacity: 1;"/><g stroke="#000" transform="matrix(0.9810228961635951,0.19389192144798653,-0.19389192144798653,0.9810228961635951,210,200)" style="stroke: rgb(0, 0, 0); stroke-width: 1;"><path d=" M10.93,-3.29 Q4.96,-0.45 0,0 Q4.96,0.45 10.93,3.29"/></g></g><g class="arrow-line"><path class="connection real" stroke-dasharray="" d="  M390,150 C385.15,178.46 408.53,192.48 428.19,199.38" style="stroke: rgb(0, 0, 0); stroke-width: 1; fill: none; fill-opacity: 1;"/><g stroke="#000" transform="matrix(-0.9487657715383926,-0.3159802379218653,0.3159802379218653,-0.9487657715383926,429.99999999999994,199.99999999999994)" style="stroke: rgb(0, 0, 0); stroke-width: 1;"><path d=" M10.93,-3.29 Q4.96,-0.45 0,0 Q4.96,0.45 10.93,3.29"/></g></g><g class="arrow-line"><path class="connection real" stroke-dasharray="" d="  M270,90 L344.17,164.17 L410,230" style="stroke: rgb(0, 0, 0); stroke-width: 2; fill: none; fill-opacity: 1;"/></g><g class="arrow-line"><path class="connection real" stroke-dasharray="" d="  M340,160 L387.88,112.12" style="stroke: rgb(0, 0, 0); stroke-width: 2; fill: none; fill-opacity: 1;"/><g stroke="#000" transform="matrix(-0.7071067811865479,0.7071067811865471,-0.7071067811865471,-0.7071067811865479,390.00000000000006,110)" style="stroke: rgb(0, 0, 0); stroke-width: 2;"><path d=" M14.21,-4.28 Q6.45,-0.59 0,0 Q6.45,0.59 14.21,4.28"/></g></g><g/></g><g/><g/><g/></svg>
        <svg xmlns="http://www.w3.org/2000/svg" xmlns:xlink="http://www.w3.org/1999/xlink" width="660" height="300" style="width:660px;height:300px;font-family:Asana-Math, Asana;background:#FFF;"><g><g><g><text x="111.79998779296875" y="172.40000915527344" style="white-space:pre;stroke:none;fill:rgb(74,144,226);fill-opacity:1;font-size:13.5px;font-family:Arial, Helvetica, sans-serif;font-weight:400;font-style:normal;dominant-baseline:text-before-edge;text-decoration:none solid rgb(74, 144, 226);">Negative Labels</text></g></g><g><g><g><g><g><g transform="matrix(1,0,0,1,129.17498779296875,204.20000915527345)"><path transform="matrix(0.015300000000000001,0,0,-0.015300000000000001,0,0)" d="M-7 -180C-8 -187 -8 -193 -8 -198C-8 -241 29 -276 74 -276C180 -276 290 -152 349 33L490 473L479 482C450 471 427 465 405 463L370 331C358 284 323 211 290 162C255 111 206 67 184 67C172 67 163 90 164 115L180 322C182 353 184 391 184 419C184 464 177 482 160 482C147 482 133 475 85 442L3 386L14 368L64 398C69 401 80 410 89 410C103 410 111 391 111 358C111 357 111 351 110 343L93 100L92 60C92 18 110 -11 135 -11C172 -11 256 74 331 187L282 16C231 -161 181 -234 111 -234C76 -234 49 -207 49 -172C49 -167 50 -159 51 -150L41 -146Z" stroke="rgb(0,0,0)" stroke-opacity="1" stroke-width="8" fill="rgb(0,0,0)" fill-opacity="1"></path></g></g><g><g><g><g><g transform="matrix(1,0,0,1,137.26251220703125,207.71001525878907)"><path transform="matrix(0.01071,0,0,-0.01071,0,0)" d="M34 388L41 368L73 389C110 412 113 414 120 414C130 414 138 404 138 391C138 384 134 361 130 347L64 107C56 76 51 49 51 30C51 6 62 -9 81 -9C107 -9 143 12 241 85L231 103L205 86C176 67 153 56 144 56C137 56 131 66 131 76C131 86 133 95 138 116L215 420C219 437 221 448 221 456C221 473 212 482 196 482C174 482 137 461 62 408ZM228 712C199 712 170 679 170 645C170 620 185 604 209 604C240 604 264 633 264 671C264 695 249 712 228 712Z" stroke="rgb(0,0,0)" stroke-opacity="1" stroke-width="8" fill="rgb(0,0,0)" fill-opacity="1"></path></g></g></g></g></g><g><g transform="matrix(1,0,0,1,141.1500244140625,204.20000915527345)"><path transform="matrix(0.015300000000000001,0,0,-0.015300000000000001,0,0)" d="" stroke="rgb(0,0,0)" stroke-opacity="1" stroke-width="8" fill="rgb(0,0,0)" fill-opacity="1"></path></g></g><g><g transform="matrix(1,0,0,1,149.54998779296875,204.20000915527345)"><path transform="matrix(0.015300000000000001,0,0,-0.015300000000000001,0,0)" d="M604 347L604 406L65 406L65 347ZM604 134L604 193L65 193L65 134Z" stroke="rgb(0,0,0)" stroke-opacity="1" stroke-width="8" fill="rgb(0,0,0)" fill-opacity="1"></path></g></g><g><g transform="matrix(1,0,0,1,164.35003662109375,204.20000915527345)"><path transform="matrix(0.015300000000000001,0,0,-0.015300000000000001,0,0)" d="" stroke="rgb(0,0,0)" stroke-opacity="1" stroke-width="8" fill="rgb(0,0,0)" fill-opacity="1"></path></g></g><g><g transform="matrix(1,0,0,1,171.2125244140625,204.20000915527345)"><path transform="matrix(0.015300000000000001,0,0,-0.015300000000000001,0,0)" d="M555 243L555 299L51 299L51 243Z" stroke="rgb(0,0,0)" stroke-opacity="1" stroke-width="8" fill="rgb(0,0,0)" fill-opacity="1"></path></g></g><g><g transform="matrix(1,0,0,1,183.51251220703125,204.20000915527345)"><path transform="matrix(0.015300000000000001,0,0,-0.015300000000000001,0,0)" d="M418 -3L418 27L366 30C311 33 301 44 301 96L301 700L60 598L67 548L217 614L217 96C217 44 206 33 152 30L96 27L96 -3C250 0 250 0 261 0C292 0 402 -3 418 -3Z" stroke="rgb(0,0,0)" stroke-opacity="1" stroke-width="8" fill="rgb(0,0,0)" fill-opacity="1"></path></g></g></g></g></g></g></g><g><g><g><text x="437.79998779296875" y="181.40000915527344" style="white-space:pre;stroke:none;fill:rgb(255,0,0);fill-opacity:1;font-size:13.5px;font-family:Arial, Helvetica, sans-serif;font-weight:400;font-style:normal;dominant-baseline:text-before-edge;text-decoration:none solid rgb(255, 0, 0);">Positive Labels</text></g></g><g><g><g><g><g><g transform="matrix(1,0,0,1,451.6875,213.20000915527345)"><path transform="matrix(0.015300000000000001,0,0,-0.015300000000000001,0,0)" d="M-7 -180C-8 -187 -8 -193 -8 -198C-8 -241 29 -276 74 -276C180 -276 290 -152 349 33L490 473L479 482C450 471 427 465 405 463L370 331C358 284 323 211 290 162C255 111 206 67 184 67C172 67 163 90 164 115L180 322C182 353 184 391 184 419C184 464 177 482 160 482C147 482 133 475 85 442L3 386L14 368L64 398C69 401 80 410 89 410C103 410 111 391 111 358C111 357 111 351 110 343L93 100L92 60C92 18 110 -11 135 -11C172 -11 256 74 331 187L282 16C231 -161 181 -234 111 -234C76 -234 49 -207 49 -172C49 -167 50 -159 51 -150L41 -146Z" stroke="rgb(0,0,0)" stroke-opacity="1" stroke-width="8" fill="rgb(0,0,0)" fill-opacity="1"></path></g></g><g><g><g><g><g transform="matrix(1,0,0,1,459.7750244140625,216.71001525878907)"><path transform="matrix(0.01071,0,0,-0.01071,0,0)" d="M34 388L41 368L73 389C110 412 113 414 120 414C130 414 138 404 138 391C138 384 134 361 130 347L64 107C56 76 51 49 51 30C51 6 62 -9 81 -9C107 -9 143 12 241 85L231 103L205 86C176 67 153 56 144 56C137 56 131 66 131 76C131 86 133 95 138 116L215 420C219 437 221 448 221 456C221 473 212 482 196 482C174 482 137 461 62 408ZM228 712C199 712 170 679 170 645C170 620 185 604 209 604C240 604 264 633 264 671C264 695 249 712 228 712Z" stroke="rgb(0,0,0)" stroke-opacity="1" stroke-width="8" fill="rgb(0,0,0)" fill-opacity="1"></path></g></g></g></g></g><g><g transform="matrix(1,0,0,1,463.66253662109375,213.20000915527345)"><path transform="matrix(0.015300000000000001,0,0,-0.015300000000000001,0,0)" d="" stroke="rgb(0,0,0)" stroke-opacity="1" stroke-width="8" fill="rgb(0,0,0)" fill-opacity="1"></path></g></g><g><g transform="matrix(1,0,0,1,472.0625,213.20000915527345)"><path transform="matrix(0.015300000000000001,0,0,-0.015300000000000001,0,0)" d="M604 347L604 406L65 406L65 347ZM604 134L604 193L65 193L65 134Z" stroke="rgb(0,0,0)" stroke-opacity="1" stroke-width="8" fill="rgb(0,0,0)" fill-opacity="1"></path></g></g><g><g transform="matrix(1,0,0,1,486.862548828125,213.20000915527345)"><path transform="matrix(0.015300000000000001,0,0,-0.015300000000000001,0,0)" d="" stroke="rgb(0,0,0)" stroke-opacity="1" stroke-width="8" fill="rgb(0,0,0)" fill-opacity="1"></path></g></g><g><g transform="matrix(1,0,0,1,493.7249755859375,213.20000915527345)"><path transform="matrix(0.015300000000000001,0,0,-0.015300000000000001,0,0)" d="M604 241L604 300L364 300L364 538L305 538L305 300L65 300L65 241L305 241L305 0L364 0L364 241Z" stroke="rgb(0,0,0)" stroke-opacity="1" stroke-width="8" fill="rgb(0,0,0)" fill-opacity="1"></path></g></g><g><g transform="matrix(1,0,0,1,506.987548828125,213.20000915527345)"><path transform="matrix(0.015300000000000001,0,0,-0.015300000000000001,0,0)" d="M418 -3L418 27L366 30C311 33 301 44 301 96L301 700L60 598L67 548L217 614L217 96C217 44 206 33 152 30L96 27L96 -3C250 0 250 0 261 0C292 0 402 -3 418 -3Z" stroke="rgb(0,0,0)" stroke-opacity="1" stroke-width="8" fill="rgb(0,0,0)" fill-opacity="1"></path></g></g></g></g></g></g></g><g><g><g><g transform="matrix(1,0,0,1,411.79998779296875,244.30001525878907)"><path transform="matrix(0.015300000000000001,0,0,-0.015300000000000001,0,0)" d="M7 661L63 661C81 661 88 650 88 620L88 102C88 39 85 32 51 30L6 27L6 -3C74 -1 101 0 130 0C159 0 186 -1 254 -3L254 27L209 30C175 32 172 39 172 102L172 314C172 359 238 408 299 408C366 408 410 358 410 281L410 -3C471 0 472 0 489 0C503 0 503 0 572 -3L572 27L531 30C497 32 494 38 494 102L494 295C494 412 408 470 323 470C261 470 200 439 172 378L172 718L163 726C119 709 86 701 7 689Z" stroke="rgb(0,0,0)" stroke-opacity="1" stroke-width="24" fill="rgb(0,0,0)" fill-opacity="1"></path></g></g><g><g><g><g><g transform="matrix(1,0,0,1,421.13751220703125,247.80999084472657)"><path transform="matrix(0.01071,0,0,-0.01071,0,0)" d="M413 469L254 104C251 113 166 397 166 405C166 420 179 428 204 429L244 431L244 459C145 456 145 456 125 456C105 456 105 456 6 459L6 431L34 429C62 427 75 407 100 329L202 -7L249 -7L399 335L535 -7L581 -7L718 342C748 409 760 426 782 429L808 431L808 459C726 456 726 456 710 456C694 456 694 456 612 459L612 431L646 429C671 428 685 416 685 398L580 98L465 388C451 422 444 442 436 469Z" stroke="rgb(0,0,0)" stroke-opacity="1" stroke-width="24" fill="rgb(0,0,0)" fill-opacity="1"></path></g></g></g></g></g></g></g><g><g><g><g transform="matrix(1,0,0,1,391.79998779296875,106.30001525878906)"><path transform="matrix(0.015300000000000001,0,0,-0.015300000000000001,0,0)" d="M413 469L254 104C251 113 166 397 166 405C166 420 179 428 204 429L244 431L244 459C145 456 145 456 125 456C105 456 105 456 6 459L6 431L34 429C62 427 75 407 100 329L202 -7L249 -7L399 335L535 -7L581 -7L718 342C748 409 760 426 782 429L808 431L808 459C726 456 726 456 710 456C694 456 694 456 612 459L612 431L646 429C671 428 685 416 685 398L580 98L465 388C451 422 444 442 436 469Z" stroke="rgb(0,0,0)" stroke-opacity="1" stroke-width="24" fill="rgb(0,0,0)" fill-opacity="1"></path></g></g></g></g><g><g><g><g transform="matrix(1,0,0,1,272.79998779296875,38.600006103515625)"><path transform="matrix(0.018,0,0,-0.018,0,0)" d="M42 27C42 16 47 0 80 0L117 0C174 0 172 27 216 151L501 151C546 24 545 0 600 0L653 0C655 0 690 -2 690 27C690 33 688 38 686 44L479 634C469 663 462 694 411 694L321 694C279 694 267 674 258 648L46 46C44 40 42 33 42 27ZM246 237C269 303 345 518 359 569C368 535 379 502 471 237ZM793 45C793 5 815 0 841 0L882 0C925 2 927 22 927 49L927 677C927 714 906 722 881 722L835 722C807 722 793 704 793 675ZM1048 45C1048 5 1070 0 1096 0L1137 0C1180 2 1182 22 1182 49L1182 677C1182 714 1161 722 1136 722L1090 722C1062 722 1048 704 1048 675ZM1273 224C1273 36 1389 -11 1518 -11C1641 -11 1761 35 1761 220C1761 465 1599 475 1502 475C1389 475 1273 424 1273 224ZM1410 214L1410 241C1410 310 1408 402 1516 402C1623 402 1623 313 1624 255L1624 228C1623 161 1626 67 1517 67C1413 67 1412 155 1410 214ZM1787 429C1787 423 1788 417 1790 411L1888 60C1895 34 1900 0 1951 0L1990 0C2025 0 2039 15 2048 47C2074 141 2111 269 2114 321C2117 298 2117 274 2167 94C2185 29 2186 0 2238 0L2317 0C2365 0 2371 31 2378 57L2478 415C2479 420 2481 424 2481 429C2481 438 2477 458 2445 458L2417 458C2402 458 2371 458 2359 414L2275 114L2274 114L2185 429L2176 444C2162 454 2155 458 2132 458L2128 458C2111 458 2083 457 2071 414C2007 186 1998 158 1991 129C1988 138 1938 316 1912 410C1901 448 1885 458 1852 458L1824 458C1814 458 1787 456 1787 429ZM2505 233C2505 74 2592 -11 2759 -11C2828 -11 2890 9 2932 33C2944 40 2948 44 2948 55C2948 55 2948 114 2937 125L2932 127L2928 127C2908 121 2861 62 2761 62C2659 62 2636 136 2634 214L2910 214C2928 214 2954 216 2954 257C2954 364 2912 475 2745 475C2601 475 2505 401 2505 233ZM2635 279C2641 341 2665 402 2745 402C2823 402 2839 346 2842 279ZM3022 239C3022 206 3022 172 3033 130C3061 23 3141 -11 3221 -11C3276 -11 3312 6 3348 32C3357 1 3376 0 3394 0L3440 0C3482 0 3485 27 3485 46L3485 677C3485 698 3482 722 3435 722L3395 722C3356 722 3351 697 3351 678L3351 433C3315 456 3276 469 3226 469C3121 469 3025 417 3022 239ZM3159 221L3159 242C3159 303 3160 396 3270 396C3317 396 3341 371 3348 366L3348 121C3348 91 3303 62 3260 62C3161 62 3159 150 3159 221ZM4005 45C4005 6 4026 0 4051 0L4298 0C4415 0 4646 15 4646 341C4646 648 4463 694 4287 694L4047 694C4003 694 4005 658 4005 646ZM4144 86L4144 579L4145 608L4290 608C4499 600 4507 459 4507 332L4507 321C4506 268 4501 212 4471 166C4420 90 4332 86 4255 86ZM4738 137C4738 69 4788 -11 4884 -11C4966 -11 5016 23 5038 40C5038 23 5047 0 5079 0L5127 0C5167 0 5172 23 5172 45L5172 308C5172 408 5126 475 4965 475C4902 475 4853 463 4808 443C4786 432 4780 433 4780 417C4780 417 4783 352 4790 340L4794 337L4798 336C4820 337 4850 405 4965 405C5028 405 5036 359 5036 312L5036 291C4947 290 4738 273 4738 137ZM4869 137C4869 215 4975 227 5036 232L5036 154C5036 80 4971 62 4938 62C4895 62 4869 101 4869 137ZM5254 422C5254 411 5258 385 5298 385L5319 385L5319 152C5319 121 5319 91 5328 61C5345 6 5383 -11 5423 -11C5497 -11 5605 21 5605 47C5605 47 5597 102 5582 102C5569 102 5539 67 5492 67C5464 67 5450 85 5450 159C5450 168 5451 176 5451 185L5451 385L5544 385C5582 386 5587 411 5587 421C5587 430 5582 458 5542 458L5451 458L5451 544C5451 568 5441 589 5406 589L5370 589C5353 589 5322 588 5322 544L5322 458L5298 458C5258 458 5254 433 5254 422ZM5667 137C5667 69 5717 -11 5813 -11C5895 -11 5945 23 5967 40C5967 23 5976 0 6008 0L6056 0C6096 0 6101 23 6101 45L6101 308C6101 408 6055 475 5894 475C5831 475 5782 463 5737 443C5715 432 5709 433 5709 417C5709 417 5712 352 5719 340L5723 337L5727 336C5749 337 5779 405 5894 405C5957 405 5965 359 5965 312L5965 291C5876 290 5667 273 5667 137ZM5798 137C5798 215 5904 227 5965 232L5965 154C5965 80 5900 62 5867 62C5824 62 5798 101 5798 137ZM6193 50C6193 47 6194 45 6195 42L6199 37C6224 21 6289 -11 6378 -11C6477 -11 6558 19 6558 140C6558 221 6498 261 6470 275C6408 307 6297 295 6297 354C6297 392 6330 402 6371 402C6468 402 6495 348 6516 348C6521 348 6525 352 6528 363C6534 397 6538 415 6538 426C6538 440 6532 443 6514 450C6477 465 6439 474 6392 475L6366 475C6282 473 6198 446 6198 331C6198 250 6265 210 6302 196C6359 175 6458 183 6458 121C6458 79 6425 68 6380 68C6273 68 6237 143 6219 143C6207 143 6206 127 6205 120C6197 76 6193 59 6193 50ZM6614 233C6614 74 6701 -11 6868 -11C6937 -11 6999 9 7041 33C7053 40 7057 44 7057 55C7057 55 7057 114 7046 125L7041 127L7037 127C7017 121 6970 62 6870 62C6768 62 6745 136 6743 214L7019 214C7037 214 7063 216 7063 257C7063 364 7021 475 6854 475C6710 475 6614 401 6614 233ZM6744 279C6750 341 6774 402 6854 402C6932 402 6948 346 6951 279ZM7116 422C7116 411 7120 385 7160 385L7181 385L7181 152C7181 121 7181 91 7190 61C7207 6 7245 -11 7285 -11C7359 -11 7467 21 7467 47C7467 47 7459 102 7444 102C7431 102 7401 67 7354 67C7326 67 7312 85 7312 159C7312 168 7313 176 7313 185L7313 385L7406 385C7444 386 7449 411 7449 421C7449 430 7444 458 7404 458L7313 458L7313 544C7313 568 7303 589 7268 589L7232 589C7215 589 7184 588 7184 544L7184 458L7160 458C7120 458 7116 433 7116 422Z" stroke="rgb(0,0,0)" stroke-opacity="1" stroke-width="8" fill="rgb(0,0,0)" fill-opacity="1"></path></g></g></g></g></svg>
</svg>
