<svg xmlns="http://www.w3.org/2000/svg" xmlns:xlink="http://www.w3.org/1999/xlink" x="0" y="0" width="661.6000366210938" height="301.6000061035156" style="
        width:661.6000366210938px;
        height:301.6000061035156px;
        background: #FFF;
        fill: none;
">
        
        
        <svg xmlns="http://www.w3.org/2000/svg" class="role-diagram-draw-area"><g class="shapes-region" style="stroke: black; fill: none;"><g class="arrow-line"><path class="connection real" stroke-dasharray="" d="  M230,160 L450,160" style="stroke: rgb(0, 0, 0); stroke-width: 1; fill: none; fill-opacity: 1;"/></g><g class="arrow-line"><path class="connection real" stroke-dasharray="" d="  M340,260 L340,60" style="stroke: rgb(0, 0, 0); stroke-width: 1; fill: none; fill-opacity: 1;"/></g><g class="composite-shape"><path class="real" d=" M380,126.5 C380,124.57 381.57,123 383.5,123 C385.43,123 387,124.57 387,126.5 C387,128.43 385.43,130 383.5,130 C381.57,130 380,128.43 380,126.5 Z" style="stroke-width: 1; stroke: none; stroke-opacity: 1; fill: rgb(255, 0, 0); fill-opacity: 1;"/></g><g class="composite-shape"><path class="real" d=" M412,125.5 C412,123.57 413.57,122 415.5,122 C417.43,122 419,123.57 419,125.5 C419,127.43 417.43,129 415.5,129 C413.57,129 412,127.43 412,125.5 Z" style="stroke-width: 1; stroke: none; stroke-opacity: 1; fill: rgb(255, 0, 0); fill-opacity: 1;"/></g><g class="composite-shape"><path class="real" d=" M393,136.5 C393,134.57 394.57,133 396.5,133 C398.43,133 400,134.57 400,136.5 C400,138.43 398.43,140 396.5,140 C394.57,140 393,138.43 393,136.5 Z" style="stroke-width: 1; stroke: none; stroke-opacity: 1; fill: rgb(255, 0, 0); fill-opacity: 1;"/></g><g class="composite-shape"><path class="real" d=" M363,113.5 C363,111.57 364.57,110 366.5,110 C368.43,110 370,111.57 370,113.5 C370,115.43 368.43,117 366.5,117 C364.57,117 363,115.43 363,113.5 Z" style="stroke-width: 1; stroke: none; stroke-opacity: 1; fill: rgb(255, 0, 0); fill-opacity: 1;"/></g><g class="composite-shape"><path class="real" d=" M353,116.5 C353,114.57 354.57,113 356.5,113 C358.43,113 360,114.57 360,116.5 C360,118.43 358.43,120 356.5,120 C354.57,120 353,118.43 353,116.5 Z" style="stroke-width: 1; stroke: none; stroke-opacity: 1; fill: rgb(255, 0, 0); fill-opacity: 1;"/></g><g class="composite-shape"><path class="real" d=" M373,86.5 C373,84.57 374.57,83 376.5,83 C378.43,83 380,84.57 380,86.5 C380,88.43 378.43,90 376.5,90 C374.57,90 373,88.43 373,86.5 Z" style="stroke-width: 1; stroke: none; stroke-opacity: 1; fill: rgb(255, 0, 0); fill-opacity: 1;"/></g><g class="composite-shape"><path class="real" d=" M373,133.5 C373,131.57 374.57,130 376.5,130 C378.43,130 380,131.57 380,133.5 C380,135.43 378.43,137 376.5,137 C374.57,137 373,135.43 373,133.5 Z" style="stroke-width: 1; stroke: none; stroke-opacity: 1; fill: rgb(255, 0, 0); fill-opacity: 1;"/></g><g class="composite-shape"><path class="real" d=" M373,106.5 C373,104.57 374.57,103 376.5,103 C378.43,103 380,104.57 380,106.5 C380,108.43 378.43,110 376.5,110 C374.57,110 373,108.43 373,106.5 Z" style="stroke-width: 1; stroke: none; stroke-opacity: 1; fill: rgb(255, 0, 0); fill-opacity: 1;"/></g><g class="composite-shape"><path class="real" d=" M413,153.5 C413,151.57 414.57,150 416.5,150 C418.43,150 420,151.57 420,153.5 C420,155.43 418.43,157 416.5,157 C414.57,157 413,155.43 413,153.5 Z" style="stroke-width: 1; stroke: none; stroke-opacity: 1; fill: rgb(255, 0, 0); fill-opacity: 1;"/></g><g class="composite-shape"><path class="real" d=" M343,96.5 C343,94.57 344.57,93 346.5,93 C348.43,93 350,94.57 350,96.5 C350,98.43 348.43,100 346.5,100 C344.57,100 343,98.43 343,96.5 Z" style="stroke-width: 1; stroke: none; stroke-opacity: 1; fill: rgb(255, 0, 0); fill-opacity: 1;"/></g><g class="composite-shape"><path class="real" d=" M303,186.5 C303,184.57 304.57,183 306.5,183 C308.43,183 310,184.57 310,186.5 C310,188.43 308.43,190 306.5,190 C304.57,190 303,188.43 303,186.5 Z" style="stroke-width: 1; stroke: none; stroke-opacity: 1; fill: rgb(74, 144, 226); fill-opacity: 1;"/></g><g class="composite-shape"><path class="real" d=" M290,176.5 C290,174.57 291.57,173 293.5,173 C295.43,173 297,174.57 297,176.5 C297,178.43 295.43,180 293.5,180 C291.57,180 290,178.43 290,176.5 Z" style="stroke-width: 1; stroke: none; stroke-opacity: 1; fill: rgb(74, 144, 226); fill-opacity: 1;"/></g><g class="composite-shape"><path class="real" d=" M313,186.5 C313,184.57 314.57,183 316.5,183 C318.43,183 320,184.57 320,186.5 C320,188.43 318.43,190 316.5,190 C314.57,190 313,188.43 313,186.5 Z" style="stroke-width: 1; stroke: none; stroke-opacity: 1; fill: rgb(74, 144, 226); fill-opacity: 1;"/></g><g class="composite-shape"><path class="real" d=" M280,203.5 C280,201.57 281.57,200 283.5,200 C285.43,200 287,201.57 287,203.5 C287,205.43 285.43,207 283.5,207 C281.57,207 280,205.43 280,203.5 Z" style="stroke-width: 1; stroke: none; stroke-opacity: 1; fill: rgb(74, 144, 226); fill-opacity: 1;"/></g><g class="composite-shape"><path class="real" d=" M330,223.5 C330,221.57 331.57,220 333.5,220 C335.43,220 337,221.57 337,223.5 C337,225.43 335.43,227 333.5,227 C331.57,227 330,225.43 330,223.5 Z" style="stroke-width: 1; stroke: none; stroke-opacity: 1; fill: rgb(74, 144, 226); fill-opacity: 1;"/></g><g class="composite-shape"><path class="real" d=" M290,223.5 C290,221.57 291.57,220 293.5,220 C295.43,220 297,221.57 297,223.5 C297,225.43 295.43,227 293.5,227 C291.57,227 290,225.43 290,223.5 Z" style="stroke-width: 1; stroke: none; stroke-opacity: 1; fill: rgb(74, 144, 226); fill-opacity: 1;"/></g><g class="composite-shape"><path class="real" d=" M333,213.5 C333,211.57 334.57,210 336.5,210 C338.43,210 340,211.57 340,213.5 C340,215.43 338.43,217 336.5,217 C334.57,217 333,215.43 333,213.5 Z" style="stroke-width: 1; stroke: none; stroke-opacity: 1; fill: rgb(74, 144, 226); fill-opacity: 1;"/></g><g class="composite-shape"><path class="real" d=" M323,213.5 C323,211.57 324.57,210 326.5,210 C328.43,210 330,211.57 330,213.5 C330,215.43 328.43,217 326.5,217 C324.57,217 323,215.43 323,213.5 Z" style="stroke-width: 1; stroke: none; stroke-opacity: 1; fill: rgb(74, 144, 226); fill-opacity: 1;"/></g><g class="composite-shape"><path class="real" d=" M283,166.5 C283,164.57 284.57,163 286.5,163 C288.43,163 290,164.57 290,166.5 C290,168.43 288.43,170 286.5,170 C284.57,170 283,168.43 283,166.5 Z" style="stroke-width: 1; stroke: none; stroke-opacity: 1; fill: rgb(74, 144, 226); fill-opacity: 1;"/></g><g class="composite-shape"><path class="real" d=" M293,213.5 C293,211.57 294.57,210 296.5,210 C298.43,210 300,211.57 300,213.5 C300,215.43 298.43,217 296.5,217 C294.57,217 293,215.43 293,213.5 Z" style="stroke-width: 1; stroke: none; stroke-opacity: 1; fill: rgb(74, 144, 226); fill-opacity: 1;"/></g><g class="composite-shape"><path class="real" d=" M300,213.5 C300,211.57 301.57,210 303.5,210 C305.43,210 307,211.57 307,213.5 C307,215.43 305.43,217 303.5,217 C301.57,217 300,215.43 300,213.5 Z" style="stroke-width: 1; stroke: none; stroke-opacity: 1; fill: rgb(74, 144, 226); fill-opacity: 1;"/></g><g class="composite-shape"><path class="real" d=" M297,223.5 C297,221.57 298.57,220 300.5,220 C302.43,220 304,221.57 304,223.5 C304,225.43 302.43,227 300.5,227 C298.57,227 297,225.43 297,223.5 Z" style="stroke-width: 1; stroke: none; stroke-opacity: 1; fill: rgb(74, 144, 226); fill-opacity: 1;"/></g><g class="arrow-line"><path class="connection real" stroke-dasharray="" d="  M272.4,93.2 L346.57,167.37 L412.4,233.2" style="stroke: rgb(0, 0, 0); stroke-width: 2; fill: none; fill-opacity: 1;"/></g><g class="arrow-line"><path class="connection real" stroke-dasharray="" d="  M340,160 L387.88,112.12" style="stroke: rgb(0, 0, 0); stroke-width: 2; fill: none; fill-opacity: 1;"/><g stroke="#000" transform="matrix(-0.7071067811865479,0.7071067811865471,-0.7071067811865471,-0.7071067811865479,390.00000000000006,110)" style="stroke: rgb(0, 0, 0); stroke-width: 2;"><path d=" M14.21,-4.28 Q6.45,-0.59 0,0 Q6.45,0.59 14.21,4.28"/></g></g><g class="arrow-line"><path class="connection real" stroke-dasharray="2.25 3.685" d="  M306,66.4 L380.17,140.57 L446,206.4" style="stroke: rgb(0, 0, 0); stroke-width: 2; fill: none; fill-opacity: 1;"/></g><g class="arrow-line"><path class="connection real" stroke-dasharray="2.25 3.685" d="  M242.8,113.6 L316.97,187.77 L382.8,253.6" style="stroke: rgb(0, 0, 0); stroke-width: 2; fill: none; fill-opacity: 1;"/></g><g/></g><g/><g/><g/></svg>
        <svg xmlns="http://www.w3.org/2000/svg" xmlns:xlink="http://www.w3.org/1999/xlink" width="660" height="300" style="width:660px;height:300px;font-family:Asana-Math, Asana;background:#FFF;"><g><g><g><text x="61.79998779296875" y="162.39999389648438" style="white-space:pre;stroke:none;fill:rgb(74,144,226);fill-opacity:1;font-size:13.5px;font-family:Arial, Helvetica, sans-serif;font-weight:400;font-style:normal;dominant-baseline:text-before-edge;text-decoration:none solid rgb(74, 144, 226);">Negative Labels</text></g></g><g><g><g><g><g><g transform="matrix(1,0,0,1,79.17498779296875,194.1999938964844)"><path transform="matrix(0.015300000000000001,0,0,-0.015300000000000001,0,0)" d="M-7 -180C-8 -187 -8 -193 -8 -198C-8 -241 29 -276 74 -276C180 -276 290 -152 349 33L490 473L479 482C450 471 427 465 405 463L370 331C358 284 323 211 290 162C255 111 206 67 184 67C172 67 163 90 164 115L180 322C182 353 184 391 184 419C184 464 177 482 160 482C147 482 133 475 85 442L3 386L14 368L64 398C69 401 80 410 89 410C103 410 111 391 111 358C111 357 111 351 110 343L93 100L92 60C92 18 110 -11 135 -11C172 -11 256 74 331 187L282 16C231 -161 181 -234 111 -234C76 -234 49 -207 49 -172C49 -167 50 -159 51 -150L41 -146Z" stroke="rgb(0,0,0)" stroke-opacity="1" stroke-width="8" fill="rgb(0,0,0)" fill-opacity="1"></path></g></g><g><g><g><g><g transform="matrix(1,0,0,1,87.26251220703125,197.71)"><path transform="matrix(0.01071,0,0,-0.01071,0,0)" d="M34 388L41 368L73 389C110 412 113 414 120 414C130 414 138 404 138 391C138 384 134 361 130 347L64 107C56 76 51 49 51 30C51 6 62 -9 81 -9C107 -9 143 12 241 85L231 103L205 86C176 67 153 56 144 56C137 56 131 66 131 76C131 86 133 95 138 116L215 420C219 437 221 448 221 456C221 473 212 482 196 482C174 482 137 461 62 408ZM228 712C199 712 170 679 170 645C170 620 185 604 209 604C240 604 264 633 264 671C264 695 249 712 228 712Z" stroke="rgb(0,0,0)" stroke-opacity="1" stroke-width="8" fill="rgb(0,0,0)" fill-opacity="1"></path></g></g></g></g></g><g><g transform="matrix(1,0,0,1,91.1500244140625,194.1999938964844)"><path transform="matrix(0.015300000000000001,0,0,-0.015300000000000001,0,0)" d="" stroke="rgb(0,0,0)" stroke-opacity="1" stroke-width="8" fill="rgb(0,0,0)" fill-opacity="1"></path></g></g><g><g transform="matrix(1,0,0,1,99.54998779296875,194.1999938964844)"><path transform="matrix(0.015300000000000001,0,0,-0.015300000000000001,0,0)" d="M604 347L604 406L65 406L65 347ZM604 134L604 193L65 193L65 134Z" stroke="rgb(0,0,0)" stroke-opacity="1" stroke-width="8" fill="rgb(0,0,0)" fill-opacity="1"></path></g></g><g><g transform="matrix(1,0,0,1,114.35003662109375,194.1999938964844)"><path transform="matrix(0.015300000000000001,0,0,-0.015300000000000001,0,0)" d="" stroke="rgb(0,0,0)" stroke-opacity="1" stroke-width="8" fill="rgb(0,0,0)" fill-opacity="1"></path></g></g><g><g transform="matrix(1,0,0,1,121.2125244140625,194.1999938964844)"><path transform="matrix(0.015300000000000001,0,0,-0.015300000000000001,0,0)" d="M555 243L555 299L51 299L51 243Z" stroke="rgb(0,0,0)" stroke-opacity="1" stroke-width="8" fill="rgb(0,0,0)" fill-opacity="1"></path></g></g><g><g transform="matrix(1,0,0,1,133.51251220703125,194.1999938964844)"><path transform="matrix(0.015300000000000001,0,0,-0.015300000000000001,0,0)" d="M418 -3L418 27L366 30C311 33 301 44 301 96L301 700L60 598L67 548L217 614L217 96C217 44 206 33 152 30L96 27L96 -3C250 0 250 0 261 0C292 0 402 -3 418 -3Z" stroke="rgb(0,0,0)" stroke-opacity="1" stroke-width="8" fill="rgb(0,0,0)" fill-opacity="1"></path></g></g></g></g></g></g></g><g><g><g><text x="61.79998779296875" y="112.39999389648438" style="white-space:pre;stroke:none;fill:rgb(255,0,0);fill-opacity:1;font-size:13.5px;font-family:Arial, Helvetica, sans-serif;font-weight:400;font-style:normal;dominant-baseline:text-before-edge;text-decoration:none solid rgb(255, 0, 0);">Positive Labels</text></g></g><g><g><g><g><g><g transform="matrix(1,0,0,1,75.6875,144.1999938964844)"><path transform="matrix(0.015300000000000001,0,0,-0.015300000000000001,0,0)" d="M-7 -180C-8 -187 -8 -193 -8 -198C-8 -241 29 -276 74 -276C180 -276 290 -152 349 33L490 473L479 482C450 471 427 465 405 463L370 331C358 284 323 211 290 162C255 111 206 67 184 67C172 67 163 90 164 115L180 322C182 353 184 391 184 419C184 464 177 482 160 482C147 482 133 475 85 442L3 386L14 368L64 398C69 401 80 410 89 410C103 410 111 391 111 358C111 357 111 351 110 343L93 100L92 60C92 18 110 -11 135 -11C172 -11 256 74 331 187L282 16C231 -161 181 -234 111 -234C76 -234 49 -207 49 -172C49 -167 50 -159 51 -150L41 -146Z" stroke="rgb(0,0,0)" stroke-opacity="1" stroke-width="8" fill="rgb(0,0,0)" fill-opacity="1"></path></g></g><g><g><g><g><g transform="matrix(1,0,0,1,83.7750244140625,147.71)"><path transform="matrix(0.01071,0,0,-0.01071,0,0)" d="M34 388L41 368L73 389C110 412 113 414 120 414C130 414 138 404 138 391C138 384 134 361 130 347L64 107C56 76 51 49 51 30C51 6 62 -9 81 -9C107 -9 143 12 241 85L231 103L205 86C176 67 153 56 144 56C137 56 131 66 131 76C131 86 133 95 138 116L215 420C219 437 221 448 221 456C221 473 212 482 196 482C174 482 137 461 62 408ZM228 712C199 712 170 679 170 645C170 620 185 604 209 604C240 604 264 633 264 671C264 695 249 712 228 712Z" stroke="rgb(0,0,0)" stroke-opacity="1" stroke-width="8" fill="rgb(0,0,0)" fill-opacity="1"></path></g></g></g></g></g><g><g transform="matrix(1,0,0,1,87.66253662109375,144.1999938964844)"><path transform="matrix(0.015300000000000001,0,0,-0.015300000000000001,0,0)" d="" stroke="rgb(0,0,0)" stroke-opacity="1" stroke-width="8" fill="rgb(0,0,0)" fill-opacity="1"></path></g></g><g><g transform="matrix(1,0,0,1,96.0625,144.1999938964844)"><path transform="matrix(0.015300000000000001,0,0,-0.015300000000000001,0,0)" d="M604 347L604 406L65 406L65 347ZM604 134L604 193L65 193L65 134Z" stroke="rgb(0,0,0)" stroke-opacity="1" stroke-width="8" fill="rgb(0,0,0)" fill-opacity="1"></path></g></g><g><g transform="matrix(1,0,0,1,110.86248779296875,144.1999938964844)"><path transform="matrix(0.015300000000000001,0,0,-0.015300000000000001,0,0)" d="" stroke="rgb(0,0,0)" stroke-opacity="1" stroke-width="8" fill="rgb(0,0,0)" fill-opacity="1"></path></g></g><g><g transform="matrix(1,0,0,1,117.72503662109375,144.1999938964844)"><path transform="matrix(0.015300000000000001,0,0,-0.015300000000000001,0,0)" d="M604 241L604 300L364 300L364 538L305 538L305 300L65 300L65 241L305 241L305 0L364 0L364 241Z" stroke="rgb(0,0,0)" stroke-opacity="1" stroke-width="8" fill="rgb(0,0,0)" fill-opacity="1"></path></g></g><g><g transform="matrix(1,0,0,1,130.98748779296875,144.1999938964844)"><path transform="matrix(0.015300000000000001,0,0,-0.015300000000000001,0,0)" d="M418 -3L418 27L366 30C311 33 301 44 301 96L301 700L60 598L67 548L217 614L217 96C217 44 206 33 152 30L96 27L96 -3C250 0 250 0 261 0C292 0 402 -3 418 -3Z" stroke="rgb(0,0,0)" stroke-opacity="1" stroke-width="8" fill="rgb(0,0,0)" fill-opacity="1"></path></g></g></g></g></g></g></g><g><g><g><g transform="matrix(1,0,0,1,391.79998779296875,106.3)"><path transform="matrix(0.015300000000000001,0,0,-0.015300000000000001,0,0)" d="M413 469L254 104C251 113 166 397 166 405C166 420 179 428 204 429L244 431L244 459C145 456 145 456 125 456C105 456 105 456 6 459L6 431L34 429C62 427 75 407 100 329L202 -7L249 -7L399 335L535 -7L581 -7L718 342C748 409 760 426 782 429L808 431L808 459C726 456 726 456 710 456C694 456 694 456 612 459L612 431L646 429C671 428 685 416 685 398L580 98L465 388C451 422 444 442 436 469Z" stroke="rgb(0,0,0)" stroke-opacity="1" stroke-width="24" fill="rgb(0,0,0)" fill-opacity="1"></path></g></g></g></g><g><g><g><g transform="matrix(1,0,0,1,195.79998779296875,39.399993896484375)"><path transform="matrix(0.018,0,0,-0.018,0,0)" d="M91 47C91 5 114 0 137 0L487 0C531 0 534 26 534 49L534 60C534 85 525 106 490 106C482 106 319 102 233 101L233 651C233 690 207 694 189 694L137 694C100 694 91 676 91 647ZM636 626C636 586 659 580 682 580L734 580C743 581 778 579 778 624L778 676C778 716 755 722 732 722L681 722C662 721 636 722 636 676ZM640 50C640 33 639 0 684 0L730 0C775 0 774 33 774 45L774 408C774 434 772 458 725 458L684 458C639 458 640 425 640 413ZM894 45C894 6 918 0 941 0L985 0C1031 0 1031 53 1031 53L1031 261C1031 279 1032 297 1037 315C1046 346 1078 396 1140 396C1199 396 1199 355 1199 318L1199 44C1199 19 1206 0 1245 0L1292 0C1333 0 1335 28 1335 44L1335 308C1335 380 1335 469 1187 469C1106 469 1060 435 1025 400L1025 420C1025 463 997 463 979 463L939 463C920 463 894 460 894 418ZM1426 233C1426 74 1513 -11 1680 -11C1749 -11 1811 9 1853 33C1865 40 1869 44 1869 55C1869 55 1869 114 1858 125L1853 127L1849 127C1829 121 1782 62 1682 62C1580 62 1557 136 1555 214L1831 214C1849 214 1875 216 1875 257C1875 364 1833 475 1666 475C1522 475 1426 401 1426 233ZM1556 279C1562 341 1586 402 1666 402C1744 402 1760 346 1763 279ZM1937 137C1937 69 1987 -11 2083 -11C2165 -11 2215 23 2237 40C2237 23 2246 0 2278 0L2326 0C2366 0 2371 23 2371 45L2371 308C2371 408 2325 475 2164 475C2101 475 2052 463 2007 443C1985 432 1979 433 1979 417C1979 417 1982 352 1989 340L1993 337L1997 336C2019 337 2049 405 2164 405C2227 405 2235 359 2235 312L2235 291C2146 290 1937 273 1937 137ZM2068 137C2068 215 2174 227 2235 232L2235 154C2235 80 2170 62 2137 62C2094 62 2068 101 2068 137ZM2461 43C2461 24 2465 0 2506 0L2549 0C2566 0 2567 1 2577 6C2593 19 2595 22 2595 50L2595 225C2595 238 2595 250 2598 263C2608 308 2646 343 2689 358C2722 369 2740 364 2752 373C2756 379 2757 380 2757 391L2757 447C2757 461 2755 469 2737 469L2736 469C2718 469 2643 462 2590 388C2589 438 2589 439 2580 450C2569 461 2565 463 2540 463L2507 463C2486 463 2461 461 2461 418ZM3189 63C3189 59 3190 58 3191 54C3198 39 3313 -22 3445 -22C3640 -22 3689 90 3689 199C3689 317 3603 389 3526 414C3450 439 3326 437 3326 528C3326 562 3343 613 3435 613C3579 613 3596 537 3623 537C3627 537 3630 540 3633 548C3647 617 3651 642 3651 653C3651 657 3651 658 3650 660C3646 671 3559 717 3446 717C3228 717 3200 588 3200 509C3200 387 3301 322 3371 305C3463 282 3479 283 3503 271C3520 263 3563 237 3563 184C3563 106 3505 86 3449 86C3291 86 3242 177 3219 177C3212 177 3207 169 3203 147C3192 87 3189 71 3189 63ZM3781 233C3781 74 3868 -11 4035 -11C4104 -11 4166 9 4208 33C4220 40 4224 44 4224 55C4224 55 4224 114 4213 125L4208 127L4204 127C4184 121 4137 62 4037 62C3935 62 3912 136 3910 214L4186 214C4204 214 4230 216 4230 257C4230 364 4188 475 4021 475C3877 475 3781 401 3781 233ZM3911 279C3917 341 3941 402 4021 402C4099 402 4115 346 4118 279ZM4322 -149C4322 -160 4320 -195 4366 -195L4412 -195C4442 -195 4459 -186 4459 -147L4459 26C4491 3 4523 -11 4571 -11C4673 -11 4784 35 4785 224C4785 265 4783 299 4774 335C4754 412 4702 469 4602 469C4558 469 4505 458 4455 427C4447 457 4426 458 4409 458L4367 458C4327 458 4322 435 4322 412ZM4459 100L4459 358C4476 370 4500 391 4546 391C4627 391 4648 318 4648 242L4648 230C4648 192 4647 145 4622 106C4602 75 4568 62 4535 62C4489 62 4468 91 4459 100ZM4853 137C4853 69 4903 -11 4999 -11C5081 -11 5131 23 5153 40C5153 23 5162 0 5194 0L5242 0C5282 0 5287 23 5287 45L5287 308C5287 408 5241 475 5080 475C5017 475 4968 463 4923 443C4901 432 4895 433 4895 417C4895 417 4898 352 4905 340L4909 337L4913 336C4935 337 4965 405 5080 405C5143 405 5151 359 5151 312L5151 291C5062 290 4853 273 4853 137ZM4984 137C4984 215 5090 227 5151 232L5151 154C5151 80 5086 62 5053 62C5010 62 4984 101 4984 137ZM5377 43C5377 24 5381 0 5422 0L5465 0C5482 0 5483 1 5493 6C5509 19 5511 22 5511 50L5511 225C5511 238 5511 250 5514 263C5524 308 5562 343 5605 358C5638 369 5656 364 5668 373C5672 379 5673 380 5673 391L5673 447C5673 461 5671 469 5653 469L5652 469C5634 469 5559 462 5506 388C5505 438 5505 439 5496 450C5485 461 5481 463 5456 463L5423 463C5402 463 5377 461 5377 418ZM5719 137C5719 69 5769 -11 5865 -11C5947 -11 5997 23 6019 40C6019 23 6028 0 6060 0L6108 0C6148 0 6153 23 6153 45L6153 308C6153 408 6107 475 5946 475C5883 475 5834 463 5789 443C5767 432 5761 433 5761 417C5761 417 5764 352 5771 340L5775 337L5779 336C5801 337 5831 405 5946 405C6009 405 6017 359 6017 312L6017 291C5928 290 5719 273 5719 137ZM5850 137C5850 215 5956 227 6017 232L6017 154C6017 80 5952 62 5919 62C5876 62 5850 101 5850 137ZM6274 46C6274 21 6281 0 6320 0L6366 0C6391 0 6400 6 6410 27C6439 5 6475 -11 6523 -11C6625 -11 6736 35 6737 224C6737 246 6737 292 6726 334C6701 427 6635 469 6547 469C6490 469 6446 453 6408 429L6408 678C6408 702 6399 722 6364 722L6320 722C6281 722 6274 702 6274 676ZM6411 101L6411 362C6436 383 6462 397 6500 397C6598 397 6600 311 6600 234C6600 165 6605 62 6489 62C6442 62 6422 89 6411 101ZM6831 626C6831 586 6854 580 6877 580L6929 580C6938 581 6973 579 6973 624L6973 676C6973 716 6950 722 6927 722L6876 722C6857 721 6831 722 6831 676ZM6835 50C6835 33 6834 0 6879 0L6925 0C6970 0 6969 33 6969 45L6969 408C6969 434 6967 458 6920 458L6879 458C6834 458 6835 425 6835 413ZM7090 45C7090 5 7112 0 7138 0L7179 0C7222 2 7224 22 7224 49L7224 677C7224 714 7203 722 7178 722L7132 722C7104 722 7090 704 7090 675ZM7341 626C7341 586 7364 580 7387 580L7439 580C7448 581 7483 579 7483 624L7483 676C7483 716 7460 722 7437 722L7386 722C7367 721 7341 722 7341 676ZM7345 50C7345 33 7344 0 7389 0L7435 0C7480 0 7479 33 7479 45L7479 408C7479 434 7477 458 7430 458L7389 458C7344 458 7345 425 7345 413ZM7561 422C7561 411 7565 385 7605 385L7626 385L7626 152C7626 121 7626 91 7635 61C7652 6 7690 -11 7730 -11C7804 -11 7912 21 7912 47C7912 47 7904 102 7889 102C7876 102 7846 67 7799 67C7771 67 7757 85 7757 159C7757 168 7758 176 7758 185L7758 385L7851 385C7889 386 7894 411 7894 421C7894 430 7889 458 7849 458L7758 458L7758 544C7758 568 7748 589 7713 589L7677 589C7660 589 7629 588 7629 544L7629 458L7605 458C7565 458 7561 433 7561 422ZM7943 433C7943 423 7948 414 7952 405L8129 14C8132 8 8134 2 8133 -5C8117 -56 8102 -120 8039 -120C7998 -120 7979 -101 7964 -97L7960 -97L7955 -99C7949 -105 7949 -107 7950 -124C7955 -188 7955 -188 7960 -193C7969 -202 8018 -206 8036 -206C8138 -206 8188 -126 8206 -90C8214 -74 8220 -56 8226 -39L8381 412C8383 418 8385 425 8385 431C8385 440 8380 458 8350 458L8322 458C8275 458 8269 433 8257 400C8222 296 8186 190 8182 137C8167 234 8071 427 8065 434C8048 457 8022 458 8011 458L7977 458C7968 458 7943 457 7943 433ZM8804 665C8804 659 8805 653 8807 647L8964 64C8972 37 8974 0 9026 0L9098 0C9148 0 9152 33 9158 54L9295 569C9309 511 9325 454 9340 396L9432 54C9438 31 9445 0 9493 0L9570 0C9619 0 9624 32 9632 62L9789 646C9791 655 9792 660 9792 664C9792 688 9774 694 9754 694L9729 694C9694 694 9680 680 9671 649L9532 125C9520 178 9506 230 9492 282L9397 637C9389 667 9384 694 9333 694L9264 694C9217 694 9210 666 9205 646C9194 603 9078 178 9070 125C9060 170 9049 215 9037 260L8932 655C8922 693 8893 694 8875 694L8842 694C8809 694 8804 677 8804 665ZM9875 626C9875 586 9898 580 9921 580L9973 580C9982 581 10017 579 10017 624L10017 676C10017 716 9994 722 9971 722L9920 722C9901 721 9875 722 9875 676ZM9879 50C9879 33 9878 0 9923 0L9969 0C10014 0 10013 33 10013 45L10013 408C10013 434 10011 458 9964 458L9923 458C9878 458 9879 425 9879 413ZM10095 422C10095 411 10099 385 10139 385L10160 385L10160 152C10160 121 10160 91 10169 61C10186 6 10224 -11 10264 -11C10338 -11 10446 21 10446 47C10446 47 10438 102 10423 102C10410 102 10380 67 10333 67C10305 67 10291 85 10291 159C10291 168 10292 176 10292 185L10292 385L10385 385C10423 386 10428 411 10428 421C10428 430 10423 458 10383 458L10292 458L10292 544C10292 568 10282 589 10247 589L10211 589C10194 589 10163 588 10163 544L10163 458L10139 458C10099 458 10095 433 10095 422ZM10537 44C10537 21 10544 0 10583 0L10627 0C10673 0 10674 26 10674 50L10674 260C10674 272 10673 284 10675 295C10682 342 10719 396 10784 396C10837 396 10842 364 10842 324L10842 44C10842 19 10849 0 10888 0L10935 0C10976 0 10978 28 10978 44L10978 308C10978 380 10978 469 10830 469C10751 469 10705 437 10671 403L10671 677C10671 720 10644 722 10621 722L10581 722C10540 722 10537 695 10537 674Z" stroke="rgb(0,0,0)" stroke-opacity="1" stroke-width="8" fill="rgb(0,0,0)" fill-opacity="1"></path></g></g><g><g><g><g><g transform="matrix(1,0,0,1,401.11248779296875,39.4)"><path transform="matrix(0.020399999999999998,0,0,-0.020399999999999998,0,0)" d="M154 473C89 473 51 426 18 377C18 371 27 368 30 365L30 366C54 394 74 412 111 412C206 412 215 290 214 220C212 136 203 53 186 -29C140 -86 92 -181 65 -249C69 -257 74 -265 77 -273C98 -268 119 -260 139 -251C165 -183 189 -106 203 -36C387 199 540 317 547 438C550 493 485 453 459 446L459 435C502 284 287 130 220 19L220 23C302 358 258 473 154 473Z" stroke="rgb(0,0,0)" stroke-opacity="1" stroke-width="24" fill="rgb(0,0,0)" fill-opacity="1"></path></g></g></g></g></g><g><text x="412.97503662109375" y="23.800018310546875" style="white-space:pre;stroke:none;fill:rgb(0,0,0);fill-opacity:1;font-size:18px;font-family:Arial, Helvetica, sans-serif;font-weight:400;font-style:normal;dominant-baseline:text-before-edge;text-decoration:none solid rgb(0, 0, 0);"> M</text></g><g><g transform="matrix(1,0,0,1,432.97503662109375,39.399993896484375)"><path transform="matrix(0.018,0,0,-0.018,0,0)" d="M30 137C30 69 80 -11 176 -11C258 -11 308 23 330 40C330 23 339 0 371 0L419 0C459 0 464 23 464 45L464 308C464 408 418 475 257 475C194 475 145 463 100 443C78 432 72 433 72 417C72 417 75 352 82 340L86 337L90 336C112 337 142 405 257 405C320 405 328 359 328 312L328 291C239 290 30 273 30 137ZM161 137C161 215 267 227 328 232L328 154C328 80 263 62 230 62C187 62 161 101 161 137ZM554 43C554 24 558 0 599 0L642 0C659 0 660 1 670 6C686 19 688 22 688 50L688 225C688 238 688 250 691 263C701 308 739 343 782 358C815 369 833 364 845 373C849 379 850 380 850 391L850 447C850 461 848 469 830 469L829 469C811 469 736 462 683 388C682 438 682 439 673 450C662 461 658 463 633 463L600 463C579 463 554 461 554 418ZM890 -65C890 -83 894 -101 902 -117C945 -206 1079 -206 1140 -206C1193 -206 1247 -204 1297 -185C1366 -159 1389 -112 1389 -63C1389 88 1256 92 1135 92L1049 92C998 92 990 122 990 140C990 145 991 152 993 159C1036 142 1068 139 1108 139C1255 139 1310 205 1310 304C1310 360 1290 389 1286 397L1312 398C1353 398 1374 393 1381 393C1391 393 1399 397 1398 412C1390 461 1391 469 1369 469C1305 469 1250 444 1240 444C1225 444 1203 469 1112 469L1109 469C933 469 907 369 907 303C907 250 926 216 947 192L947 190C931 166 920 139 920 108C920 75 932 50 946 29C897 2 890 -41 890 -65ZM993 -63C993 -14 1034 -17 1050 -17L1148 -17C1238 -17 1286 -27 1286 -67C1286 -94 1264 -134 1145 -134L1141 -134C1063 -134 993 -120 993 -63ZM1036 296L1036 312C1036 372 1050 397 1111 397C1173 397 1182 363 1182 312L1182 296C1182 237 1169 211 1107 211C1042 211 1036 249 1036 296ZM1472 626C1472 586 1495 580 1518 580L1570 580C1579 581 1614 579 1614 624L1614 676C1614 716 1591 722 1568 722L1517 722C1498 721 1472 722 1472 676ZM1476 50C1476 33 1475 0 1520 0L1566 0C1611 0 1610 33 1610 45L1610 408C1610 434 1608 458 1561 458L1520 458C1475 458 1476 425 1476 413ZM1730 45C1730 6 1754 0 1777 0L1821 0C1867 0 1867 53 1867 53L1867 261C1867 279 1868 297 1873 315C1882 346 1914 396 1976 396C2035 396 2035 355 2035 318L2035 44C2035 19 2042 0 2081 0L2128 0C2169 0 2171 28 2171 44L2171 308C2171 380 2171 469 2023 469C1942 469 1896 435 1861 400L1861 420C1861 463 1833 463 1815 463L1775 463C1756 463 1730 460 1730 418Z" stroke="rgb(0,0,0)" stroke-opacity="1" stroke-width="8" fill="rgb(0,0,0)" fill-opacity="1"></path></g></g><g><text x="473.16253662109375" y="23.800018310546875" style="white-space:pre;stroke:none;fill:rgb(0,0,0);fill-opacity:1;font-size:18px;font-family:Arial, Helvetica, sans-serif;font-weight:400;font-style:normal;dominant-baseline:text-before-edge;text-decoration:none solid rgb(0, 0, 0);"> </text></g></g></g><g><g><g><svg x="352.78753662109375" overflow="visible" y="259.1875" height="22" width="5.950000286102295"><path d=" M 5.84 1.19 c 0.00 -0.02 -0.04 -0.04 -0.08 -0.04 c -0.11 0.00 -0.31 0.06 -0.36 0.08 c -2.12 0.75 -2.51 2.33 -2.51 5.19 v 0.42 h 1.13 v -0.90 c 0.00 -1.54 0.08 -3.61 1.49 -4.54 c 0.10 -0.07 0.33 -0.15 0.33 -0.21 z  M 2.89 6.42 v 1.88 h 1.13 v -1.88 z  M 4.02 8.30 h -1.13 v 0.41 c 0.00 2.08 -1.92 2.56 -1.93 2.56 v 0.02 c 0.01 0.00 1.93 0.52 1.93 2.59 h 1.13 c 0.00 -0.74 -0.06 -2.01 -2.07 -2.59 c 2.01 -0.56 2.07 -1.84 2.07 -2.59 v -0.41 z  M 2.89 13.70 v 1.88 h 1.13 v -1.88 z" style="fill:rgb(0,0,0);fill-opacity:1;stroke-width:1px;stroke:none;stroke-opacity:1;"></path><path d=" M 5.84 20.81 c 0.00 0.02 -0.04 0.04 -0.08 0.04 c -0.11 0.00 -0.31 -0.06 -0.36 -0.08 c -2.12 -0.75 -2.51 -2.33 -2.51 -5.19 v -0.42 h 1.13 v 0.90 c 0.00 1.54 0.08 3.61 1.49 4.54 c 0.10 0.07 0.33 0.15 0.33 0.21 z" style="fill:rgb(0,0,0);fill-opacity:1;stroke-width:1px;stroke:none;stroke-opacity:1;"></path></svg></g><g><g transform="matrix(1,0,0,1,359.32501220703125,272.9625)"><path transform="matrix(0.0119,0,0,-0.0119,0,0)" d="M9 1C24 -7 40 -11 52 -11C85 -11 124 18 155 65L231 182L242 113C255 28 278 -11 314 -11C336 -11 368 6 400 35L449 79L440 98C404 68 379 53 363 53C348 53 335 63 325 83C316 102 305 139 300 168L282 269L317 318C364 383 391 406 422 406C438 406 450 398 455 383L469 387L484 472C472 479 463 482 454 482C414 482 374 446 312 354L275 299L269 347C257 446 230 482 171 482C145 482 123 474 114 461L56 378L73 368C103 402 123 416 142 416C175 416 197 375 214 277L225 215L185 153C142 86 108 54 80 54C65 54 54 58 52 63L41 91L21 88C21 53 13 27 9 1Z" stroke="rgb(0,0,0)" stroke-opacity="1" stroke-width="8" fill="rgb(0,0,0)" fill-opacity="1"></path></g></g><g><g transform="matrix(1,0,0,1,367.63751220703125,272.9625)"><path transform="matrix(0.0119,0,0,-0.0119,0,0)" d="M123 111C93 111 66 83 66 53C66 23 93 -5 122 -5C154 -5 182 22 182 53C182 83 154 111 123 111ZM123 456C93 456 66 428 66 398C66 368 93 340 122 340C154 340 182 367 182 397C182 428 154 456 123 456Z" stroke="rgb(0,0,0)" stroke-opacity="1" stroke-width="8" fill="rgb(0,0,0)" fill-opacity="1"></path></g></g><g><g transform="matrix(1,0,0,1,372.97503662109375,272.9625)"><path transform="matrix(0.0119,0,0,-0.0119,0,0)" d="M167 420C188 420 201 421 226 424C171 350 72 266 72 126C72 44 107 -11 160 -11C224 -11 276 44 350 187C341 143 338 118 338 95C338 32 367 -11 412 -11C546 -11 699 238 699 384C699 441 673 482 637 482C624 482 612 478 604 470L554 423L565 404C574 410 583 413 592 413C619 413 635 390 635 350C635 205 538 39 453 39C424 39 403 79 403 134C403 181 412 247 424 290L476 474L469 482L395 460L366 311C354 249 340 209 311 155C271 80 233 39 203 39C168 39 145 78 145 136C145 255 186 352 285 464L275 482C255 473 242 470 214 470C186 470 144 472 115 475L103 476C97 477 92 477 91 477C79 477 70 475 59 470C45 443 34 407 21 352L43 352L60 394C67 411 87 422 111 422C145 422 128 420 167 420Z" stroke="rgb(0,0,0)" stroke-opacity="1" stroke-width="8" fill="rgb(0,0,0)" fill-opacity="1"></path></g></g><g><g><g><g><g transform="matrix(1,0,0,1,382.22503662109375,269.08)"><path transform="matrix(0.00833,0,0,-0.00833,0,0)" d="M390 646L463 646C541 646 577 641 580 629C583 621 585 602 584 592L580 528L608 528L635 692L544 691C456 690 388 689 353 689C316 689 252 690 166 691L71 692L53 528L82 528L97 588C102 610 109 626 115 633C121 640 159 646 196 646L308 646L222 125C206 34 204 31 164 28L113 25L109 -3L166 -2C206 -1 235 0 251 0C270 0 301 -1 340 -2L384 -3L387 25L328 28C302 29 292 37 292 58C292 67 293 74 296 93Z" stroke="rgb(0,0,0)" stroke-opacity="1" stroke-width="8" fill="rgb(0,0,0)" fill-opacity="1"></path></g></g></g></g></g><g><g transform="matrix(1,0,0,1,388.0250244140625,272.9625)"><path transform="matrix(0.0119,0,0,-0.0119,0,0)" d="M9 1C24 -7 40 -11 52 -11C85 -11 124 18 155 65L231 182L242 113C255 28 278 -11 314 -11C336 -11 368 6 400 35L449 79L440 98C404 68 379 53 363 53C348 53 335 63 325 83C316 102 305 139 300 168L282 269L317 318C364 383 391 406 422 406C438 406 450 398 455 383L469 387L484 472C472 479 463 482 454 482C414 482 374 446 312 354L275 299L269 347C257 446 230 482 171 482C145 482 123 474 114 461L56 378L73 368C103 402 123 416 142 416C175 416 197 375 214 277L225 215L185 153C142 86 108 54 80 54C65 54 54 58 52 63L41 91L21 88C21 53 13 27 9 1Z" stroke="rgb(0,0,0)" stroke-opacity="1" stroke-width="8" fill="rgb(0,0,0)" fill-opacity="1"></path></g></g><g><g transform="matrix(1,0,0,1,397.5250244140625,272.9625)"><path transform="matrix(0.0119,0,0,-0.0119,0,0)" d="M604 347L604 406L65 406L65 347ZM604 134L604 193L65 193L65 134Z" stroke="rgb(0,0,0)" stroke-opacity="1" stroke-width="8" fill="rgb(0,0,0)" fill-opacity="1"></path></g></g><g><g transform="matrix(1,0,0,1,411.41253662109375,272.9625)"><path transform="matrix(0.0119,0,0,-0.0119,0,0)" d="M555 243L555 299L51 299L51 243Z" stroke="rgb(0,0,0)" stroke-opacity="1" stroke-width="8" fill="rgb(0,0,0)" fill-opacity="1"></path></g></g><g><g transform="matrix(1,0,0,1,420.98748779296875,272.9625)"><path transform="matrix(0.0119,0,0,-0.0119,0,0)" d="M154 473C89 473 51 426 18 377C18 371 27 368 30 365L30 366C54 394 74 412 111 412C206 412 215 290 214 220C212 136 203 53 186 -29C140 -86 92 -181 65 -249C69 -257 74 -265 77 -273C98 -268 119 -260 139 -251C165 -183 189 -106 203 -36C387 199 540 317 547 438C550 493 485 453 459 446L459 435C502 284 287 130 220 19L220 23C302 358 258 473 154 473Z" stroke="rgb(0,0,0)" stroke-opacity="1" stroke-width="8" fill="rgb(0,0,0)" fill-opacity="1"></path></g></g><g><svg x="428.48748779296875" overflow="visible" y="259.1875" height="22" width="5.950000286102295"><path d=" M 0.11 1.19 c 0.00 -0.02 0.04 -0.04 0.08 -0.04 c 0.11 0.00 0.31 0.06 0.36 0.08 c 2.12 0.75 2.51 2.33 2.51 5.19 v 0.42 h -1.13 v -0.90 c 0.00 -1.54 -0.08 -3.61 -1.49 -4.54 c -0.10 -0.07 -0.33 -0.15 -0.33 -0.21 z   M 3.06 6.42 v 1.88 h -1.13 v -1.88 z  M 1.93 8.30 h 1.13 v 0.41 c 0.00 2.08 1.92 2.56 1.93 2.56 v 0.02 c -0.01 0.00 -1.93 0.52 -1.93 2.59 h -1.13 c 0.00 -0.74 0.06 -2.01 2.07 -2.59 c -2.01 -0.56 -2.07 -1.84 -2.07 -2.59 v -0.41 z  M 3.06 13.70 v 1.88 h -1.13 v -1.88 z" style="fill:rgb(0,0,0);fill-opacity:1;stroke-width:1px;stroke:none;stroke-opacity:1;"></path><path d=" M 0.11 20.81 c 0.00 0.02 0.04 0.04 0.08 0.04 c 0.11 0.00 0.31 -0.06 0.36 -0.08 c 2.12 -0.75 2.51 -2.33 2.51 -5.19 v -0.42 h -1.13 v 0.90 c 0.00 1.54 -0.08 3.61 -1.49 4.54 c -0.10 0.07 -0.33 0.15 -0.33 0.21 z" style="fill:rgb(0,0,0);fill-opacity:1;stroke-width:1px;stroke:none;stroke-opacity:1;"></path></svg></g></g></g><g><g><g><svg x="428.38751220703125" overflow="visible" y="210.98748779296875" height="22" width="5.950000286102295"><path d=" M 5.84 1.19 c 0.00 -0.02 -0.04 -0.04 -0.08 -0.04 c -0.11 0.00 -0.31 0.06 -0.36 0.08 c -2.12 0.75 -2.51 2.33 -2.51 5.19 v 0.42 h 1.13 v -0.90 c 0.00 -1.54 0.08 -3.61 1.49 -4.54 c 0.10 -0.07 0.33 -0.15 0.33 -0.21 z  M 2.89 6.42 v 1.88 h 1.13 v -1.88 z  M 4.02 8.30 h -1.13 v 0.41 c 0.00 2.08 -1.92 2.56 -1.93 2.56 v 0.02 c 0.01 0.00 1.93 0.52 1.93 2.59 h 1.13 c 0.00 -0.74 -0.06 -2.01 -2.07 -2.59 c 2.01 -0.56 2.07 -1.84 2.07 -2.59 v -0.41 z  M 2.89 13.70 v 1.88 h 1.13 v -1.88 z" style="fill:rgb(0,0,0);fill-opacity:1;stroke-width:1px;stroke:none;stroke-opacity:1;"></path><path d=" M 5.84 20.81 c 0.00 0.02 -0.04 0.04 -0.08 0.04 c -0.11 0.00 -0.31 -0.06 -0.36 -0.08 c -2.12 -0.75 -2.51 -2.33 -2.51 -5.19 v -0.42 h 1.13 v 0.90 c 0.00 1.54 0.08 3.61 1.49 4.54 c 0.10 0.07 0.33 0.15 0.33 0.21 z" style="fill:rgb(0,0,0);fill-opacity:1;stroke-width:1px;stroke:none;stroke-opacity:1;"></path></svg></g><g><g transform="matrix(1,0,0,1,434.92498779296875,224.76248779296876)"><path transform="matrix(0.0119,0,0,-0.0119,0,0)" d="M9 1C24 -7 40 -11 52 -11C85 -11 124 18 155 65L231 182L242 113C255 28 278 -11 314 -11C336 -11 368 6 400 35L449 79L440 98C404 68 379 53 363 53C348 53 335 63 325 83C316 102 305 139 300 168L282 269L317 318C364 383 391 406 422 406C438 406 450 398 455 383L469 387L484 472C472 479 463 482 454 482C414 482 374 446 312 354L275 299L269 347C257 446 230 482 171 482C145 482 123 474 114 461L56 378L73 368C103 402 123 416 142 416C175 416 197 375 214 277L225 215L185 153C142 86 108 54 80 54C65 54 54 58 52 63L41 91L21 88C21 53 13 27 9 1Z" stroke="rgb(0,0,0)" stroke-opacity="1" stroke-width="8" fill="rgb(0,0,0)" fill-opacity="1"></path></g></g><g><g transform="matrix(1,0,0,1,443.23748779296875,224.76248779296876)"><path transform="matrix(0.0119,0,0,-0.0119,0,0)" d="M123 111C93 111 66 83 66 53C66 23 93 -5 122 -5C154 -5 182 22 182 53C182 83 154 111 123 111ZM123 456C93 456 66 428 66 398C66 368 93 340 122 340C154 340 182 367 182 397C182 428 154 456 123 456Z" stroke="rgb(0,0,0)" stroke-opacity="1" stroke-width="8" fill="rgb(0,0,0)" fill-opacity="1"></path></g></g><g><g transform="matrix(1,0,0,1,448.57501220703125,224.76248779296876)"><path transform="matrix(0.0119,0,0,-0.0119,0,0)" d="M167 420C188 420 201 421 226 424C171 350 72 266 72 126C72 44 107 -11 160 -11C224 -11 276 44 350 187C341 143 338 118 338 95C338 32 367 -11 412 -11C546 -11 699 238 699 384C699 441 673 482 637 482C624 482 612 478 604 470L554 423L565 404C574 410 583 413 592 413C619 413 635 390 635 350C635 205 538 39 453 39C424 39 403 79 403 134C403 181 412 247 424 290L476 474L469 482L395 460L366 311C354 249 340 209 311 155C271 80 233 39 203 39C168 39 145 78 145 136C145 255 186 352 285 464L275 482C255 473 242 470 214 470C186 470 144 472 115 475L103 476C97 477 92 477 91 477C79 477 70 475 59 470C45 443 34 407 21 352L43 352L60 394C67 411 87 422 111 422C145 422 128 420 167 420Z" stroke="rgb(0,0,0)" stroke-opacity="1" stroke-width="8" fill="rgb(0,0,0)" fill-opacity="1"></path></g></g><g><g><g><g><g transform="matrix(1,0,0,1,457.82501220703125,220.87998779296876)"><path transform="matrix(0.00833,0,0,-0.00833,0,0)" d="M390 646L463 646C541 646 577 641 580 629C583 621 585 602 584 592L580 528L608 528L635 692L544 691C456 690 388 689 353 689C316 689 252 690 166 691L71 692L53 528L82 528L97 588C102 610 109 626 115 633C121 640 159 646 196 646L308 646L222 125C206 34 204 31 164 28L113 25L109 -3L166 -2C206 -1 235 0 251 0C270 0 301 -1 340 -2L384 -3L387 25L328 28C302 29 292 37 292 58C292 67 293 74 296 93Z" stroke="rgb(0,0,0)" stroke-opacity="1" stroke-width="8" fill="rgb(0,0,0)" fill-opacity="1"></path></g></g></g></g></g><g><g transform="matrix(1,0,0,1,463.625,224.76248779296876)"><path transform="matrix(0.0119,0,0,-0.0119,0,0)" d="M9 1C24 -7 40 -11 52 -11C85 -11 124 18 155 65L231 182L242 113C255 28 278 -11 314 -11C336 -11 368 6 400 35L449 79L440 98C404 68 379 53 363 53C348 53 335 63 325 83C316 102 305 139 300 168L282 269L317 318C364 383 391 406 422 406C438 406 450 398 455 383L469 387L484 472C472 479 463 482 454 482C414 482 374 446 312 354L275 299L269 347C257 446 230 482 171 482C145 482 123 474 114 461L56 378L73 368C103 402 123 416 142 416C175 416 197 375 214 277L225 215L185 153C142 86 108 54 80 54C65 54 54 58 52 63L41 91L21 88C21 53 13 27 9 1Z" stroke="rgb(0,0,0)" stroke-opacity="1" stroke-width="8" fill="rgb(0,0,0)" fill-opacity="1"></path></g></g><g><g transform="matrix(1,0,0,1,473.125,224.76248779296876)"><path transform="matrix(0.0119,0,0,-0.0119,0,0)" d="M604 347L604 406L65 406L65 347ZM604 134L604 193L65 193L65 134Z" stroke="rgb(0,0,0)" stroke-opacity="1" stroke-width="8" fill="rgb(0,0,0)" fill-opacity="1"></path></g></g><g><g transform="matrix(1,0,0,1,484.6375732421875,224.76248779296876)"><path transform="matrix(0.0119,0,0,-0.0119,0,0)" d="M154 473C89 473 51 426 18 377C18 371 27 368 30 365L30 366C54 394 74 412 111 412C206 412 215 290 214 220C212 136 203 53 186 -29C140 -86 92 -181 65 -249C69 -257 74 -265 77 -273C98 -268 119 -260 139 -251C165 -183 189 -106 203 -36C387 199 540 317 547 438C550 493 485 453 459 446L459 435C502 284 287 130 220 19L220 23C302 358 258 473 154 473Z" stroke="rgb(0,0,0)" stroke-opacity="1" stroke-width="8" fill="rgb(0,0,0)" fill-opacity="1"></path></g></g><g><svg x="492.1375732421875" overflow="visible" y="210.98748779296875" height="22" width="5.950000286102295"><path d=" M 0.11 1.19 c 0.00 -0.02 0.04 -0.04 0.08 -0.04 c 0.11 0.00 0.31 0.06 0.36 0.08 c 2.12 0.75 2.51 2.33 2.51 5.19 v 0.42 h -1.13 v -0.90 c 0.00 -1.54 -0.08 -3.61 -1.49 -4.54 c -0.10 -0.07 -0.33 -0.15 -0.33 -0.21 z   M 3.06 6.42 v 1.88 h -1.13 v -1.88 z  M 1.93 8.30 h 1.13 v 0.41 c 0.00 2.08 1.92 2.56 1.93 2.56 v 0.02 c -0.01 0.00 -1.93 0.52 -1.93 2.59 h -1.13 c 0.00 -0.74 0.06 -2.01 2.07 -2.59 c -2.01 -0.56 -2.07 -1.84 -2.07 -2.59 v -0.41 z  M 3.06 13.70 v 1.88 h -1.13 v -1.88 z" style="fill:rgb(0,0,0);fill-opacity:1;stroke-width:1px;stroke:none;stroke-opacity:1;"></path><path d=" M 0.11 20.81 c 0.00 0.02 0.04 0.04 0.08 0.04 c 0.11 0.00 0.31 -0.06 0.36 -0.08 c 2.12 -0.75 2.51 -2.33 2.51 -5.19 v -0.42 h -1.13 v 0.90 c 0.00 1.54 -0.08 3.61 -1.49 4.54 c -0.10 0.07 -0.33 0.15 -0.33 0.21 z" style="fill:rgb(0,0,0);fill-opacity:1;stroke-width:1px;stroke:none;stroke-opacity:1;"></path></svg></g></g></g><g><g><g><svg x="233.1875" overflow="visible" y="74.58749389648438" height="22" width="5.950000286102295"><path d=" M 5.84 1.19 c 0.00 -0.02 -0.04 -0.04 -0.08 -0.04 c -0.11 0.00 -0.31 0.06 -0.36 0.08 c -2.12 0.75 -2.51 2.33 -2.51 5.19 v 0.42 h 1.13 v -0.90 c 0.00 -1.54 0.08 -3.61 1.49 -4.54 c 0.10 -0.07 0.33 -0.15 0.33 -0.21 z  M 2.89 6.42 v 1.88 h 1.13 v -1.88 z  M 4.02 8.30 h -1.13 v 0.41 c 0.00 2.08 -1.92 2.56 -1.93 2.56 v 0.02 c 0.01 0.00 1.93 0.52 1.93 2.59 h 1.13 c 0.00 -0.74 -0.06 -2.01 -2.07 -2.59 c 2.01 -0.56 2.07 -1.84 2.07 -2.59 v -0.41 z  M 2.89 13.70 v 1.88 h 1.13 v -1.88 z" style="fill:rgb(0,0,0);fill-opacity:1;stroke-width:1px;stroke:none;stroke-opacity:1;"></path><path d=" M 5.84 20.81 c 0.00 0.02 -0.04 0.04 -0.08 0.04 c -0.11 0.00 -0.31 -0.06 -0.36 -0.08 c -2.12 -0.75 -2.51 -2.33 -2.51 -5.19 v -0.42 h 1.13 v 0.90 c 0.00 1.54 0.08 3.61 1.49 4.54 c 0.10 0.07 0.33 0.15 0.33 0.21 z" style="fill:rgb(0,0,0);fill-opacity:1;stroke-width:1px;stroke:none;stroke-opacity:1;"></path></svg></g><g><g transform="matrix(1,0,0,1,239.72503662109375,88.36249389648438)"><path transform="matrix(0.0119,0,0,-0.0119,0,0)" d="M9 1C24 -7 40 -11 52 -11C85 -11 124 18 155 65L231 182L242 113C255 28 278 -11 314 -11C336 -11 368 6 400 35L449 79L440 98C404 68 379 53 363 53C348 53 335 63 325 83C316 102 305 139 300 168L282 269L317 318C364 383 391 406 422 406C438 406 450 398 455 383L469 387L484 472C472 479 463 482 454 482C414 482 374 446 312 354L275 299L269 347C257 446 230 482 171 482C145 482 123 474 114 461L56 378L73 368C103 402 123 416 142 416C175 416 197 375 214 277L225 215L185 153C142 86 108 54 80 54C65 54 54 58 52 63L41 91L21 88C21 53 13 27 9 1Z" stroke="rgb(0,0,0)" stroke-opacity="1" stroke-width="8" fill="rgb(0,0,0)" fill-opacity="1"></path></g></g><g><g transform="matrix(1,0,0,1,248.03753662109375,88.36249389648438)"><path transform="matrix(0.0119,0,0,-0.0119,0,0)" d="M123 111C93 111 66 83 66 53C66 23 93 -5 122 -5C154 -5 182 22 182 53C182 83 154 111 123 111ZM123 456C93 456 66 428 66 398C66 368 93 340 122 340C154 340 182 367 182 397C182 428 154 456 123 456Z" stroke="rgb(0,0,0)" stroke-opacity="1" stroke-width="8" fill="rgb(0,0,0)" fill-opacity="1"></path></g></g><g><g transform="matrix(1,0,0,1,253.375,88.36249389648438)"><path transform="matrix(0.0119,0,0,-0.0119,0,0)" d="M167 420C188 420 201 421 226 424C171 350 72 266 72 126C72 44 107 -11 160 -11C224 -11 276 44 350 187C341 143 338 118 338 95C338 32 367 -11 412 -11C546 -11 699 238 699 384C699 441 673 482 637 482C624 482 612 478 604 470L554 423L565 404C574 410 583 413 592 413C619 413 635 390 635 350C635 205 538 39 453 39C424 39 403 79 403 134C403 181 412 247 424 290L476 474L469 482L395 460L366 311C354 249 340 209 311 155C271 80 233 39 203 39C168 39 145 78 145 136C145 255 186 352 285 464L275 482C255 473 242 470 214 470C186 470 144 472 115 475L103 476C97 477 92 477 91 477C79 477 70 475 59 470C45 443 34 407 21 352L43 352L60 394C67 411 87 422 111 422C145 422 128 420 167 420Z" stroke="rgb(0,0,0)" stroke-opacity="1" stroke-width="8" fill="rgb(0,0,0)" fill-opacity="1"></path></g></g><g><g><g><g><g transform="matrix(1,0,0,1,262.625,84.47999389648437)"><path transform="matrix(0.00833,0,0,-0.00833,0,0)" d="M390 646L463 646C541 646 577 641 580 629C583 621 585 602 584 592L580 528L608 528L635 692L544 691C456 690 388 689 353 689C316 689 252 690 166 691L71 692L53 528L82 528L97 588C102 610 109 626 115 633C121 640 159 646 196 646L308 646L222 125C206 34 204 31 164 28L113 25L109 -3L166 -2C206 -1 235 0 251 0C270 0 301 -1 340 -2L384 -3L387 25L328 28C302 29 292 37 292 58C292 67 293 74 296 93Z" stroke="rgb(0,0,0)" stroke-opacity="1" stroke-width="8" fill="rgb(0,0,0)" fill-opacity="1"></path></g></g></g></g></g><g><g transform="matrix(1,0,0,1,268.42498779296875,88.36249389648438)"><path transform="matrix(0.0119,0,0,-0.0119,0,0)" d="M9 1C24 -7 40 -11 52 -11C85 -11 124 18 155 65L231 182L242 113C255 28 278 -11 314 -11C336 -11 368 6 400 35L449 79L440 98C404 68 379 53 363 53C348 53 335 63 325 83C316 102 305 139 300 168L282 269L317 318C364 383 391 406 422 406C438 406 450 398 455 383L469 387L484 472C472 479 463 482 454 482C414 482 374 446 312 354L275 299L269 347C257 446 230 482 171 482C145 482 123 474 114 461L56 378L73 368C103 402 123 416 142 416C175 416 197 375 214 277L225 215L185 153C142 86 108 54 80 54C65 54 54 58 52 63L41 91L21 88C21 53 13 27 9 1Z" stroke="rgb(0,0,0)" stroke-opacity="1" stroke-width="8" fill="rgb(0,0,0)" fill-opacity="1"></path></g></g><g><g transform="matrix(1,0,0,1,277.92498779296875,88.36249389648438)"><path transform="matrix(0.0119,0,0,-0.0119,0,0)" d="M604 347L604 406L65 406L65 347ZM604 134L604 193L65 193L65 134Z" stroke="rgb(0,0,0)" stroke-opacity="1" stroke-width="8" fill="rgb(0,0,0)" fill-opacity="1"></path></g></g><g><g transform="matrix(1,0,0,1,289.4375,88.36249389648438)"><path transform="matrix(0.0119,0,0,-0.0119,0,0)" d="M263 689C108 689 29 566 29 324C29 207 50 106 85 57C120 8 176 -20 238 -20C389 -20 465 110 465 366C465 585 400 689 263 689ZM245 654C342 654 381 556 381 316C381 103 343 15 251 15C154 15 113 116 113 360C113 571 150 654 245 654Z" stroke="rgb(0,0,0)" stroke-opacity="1" stroke-width="8" fill="rgb(0,0,0)" fill-opacity="1"></path></g></g><g><svg x="295.9625244140625" overflow="visible" y="74.58749389648438" height="22" width="5.950000286102295"><path d=" M 0.11 1.19 c 0.00 -0.02 0.04 -0.04 0.08 -0.04 c 0.11 0.00 0.31 0.06 0.36 0.08 c 2.12 0.75 2.51 2.33 2.51 5.19 v 0.42 h -1.13 v -0.90 c 0.00 -1.54 -0.08 -3.61 -1.49 -4.54 c -0.10 -0.07 -0.33 -0.15 -0.33 -0.21 z   M 3.06 6.42 v 1.88 h -1.13 v -1.88 z  M 1.93 8.30 h 1.13 v 0.41 c 0.00 2.08 1.92 2.56 1.93 2.56 v 0.02 c -0.01 0.00 -1.93 0.52 -1.93 2.59 h -1.13 c 0.00 -0.74 0.06 -2.01 2.07 -2.59 c -2.01 -0.56 -2.07 -1.84 -2.07 -2.59 v -0.41 z  M 3.06 13.70 v 1.88 h -1.13 v -1.88 z" style="fill:rgb(0,0,0);fill-opacity:1;stroke-width:1px;stroke:none;stroke-opacity:1;"></path><path d=" M 0.11 20.81 c 0.00 0.02 0.04 0.04 0.08 0.04 c 0.11 0.00 0.31 -0.06 0.36 -0.08 c 2.12 -0.75 2.51 -2.33 2.51 -5.19 v -0.42 h -1.13 v 0.90 c 0.00 1.54 -0.08 3.61 -1.49 4.54 c -0.10 0.07 -0.33 0.15 -0.33 0.21 z" style="fill:rgb(0,0,0);fill-opacity:1;stroke-width:1px;stroke:none;stroke-opacity:1;"></path></svg></g></g></g></svg>
</svg>
