<svg xmlns="http://www.w3.org/2000/svg" xmlns:xlink="http://www.w3.org/1999/xlink" x="0" y="0" width="661.6000366210938" height="301.6000061035156" style="
        width:661.6000366210938px;
        height:301.6000061035156px;
        background: #FFF;
        fill: none;
">
        
        
        <svg xmlns="http://www.w3.org/2000/svg" class="role-diagram-draw-area"><g class="shapes-region" style="stroke: black; fill: none;"><g class="arrow-line"><path class="connection real" stroke-dasharray="" d="  M250,161 L470,161" style="stroke: rgb(0, 0, 0); stroke-width: 1; fill: none; fill-opacity: 1;"/></g><g class="arrow-line"><path class="connection real" stroke-dasharray="" d="  M360,261 L360,61" style="stroke: rgb(0, 0, 0); stroke-width: 1; fill: none; fill-opacity: 1;"/></g><g class="composite-shape"><path class="real" d=" M400,127.5 C400,125.57 401.57,124 403.5,124 C405.43,124 407,125.57 407,127.5 C407,129.43 405.43,131 403.5,131 C401.57,131 400,129.43 400,127.5 Z" style="stroke-width: 1; stroke: none; stroke-opacity: 1; fill: rgb(255, 0, 0); fill-opacity: 1;"/></g><g class="composite-shape"><path class="real" d=" M432,126.5 C432,124.57 433.57,123 435.5,123 C437.43,123 439,124.57 439,126.5 C439,128.43 437.43,130 435.5,130 C433.57,130 432,128.43 432,126.5 Z" style="stroke-width: 1; stroke: none; stroke-opacity: 1; fill: rgb(255, 0, 0); fill-opacity: 1;"/></g><g class="composite-shape"><path class="real" d=" M413,137.5 C413,135.57 414.57,134 416.5,134 C418.43,134 420,135.57 420,137.5 C420,139.43 418.43,141 416.5,141 C414.57,141 413,139.43 413,137.5 Z" style="stroke-width: 1; stroke: none; stroke-opacity: 1; fill: rgb(255, 0, 0); fill-opacity: 1;"/></g><g class="composite-shape"><path class="real" d=" M383,114.5 C383,112.57 384.57,111 386.5,111 C388.43,111 390,112.57 390,114.5 C390,116.43 388.43,118 386.5,118 C384.57,118 383,116.43 383,114.5 Z" style="stroke-width: 1; stroke: none; stroke-opacity: 1; fill: rgb(255, 0, 0); fill-opacity: 1;"/></g><g class="composite-shape"><path class="real" d=" M373,117.5 C373,115.57 374.57,114 376.5,114 C378.43,114 380,115.57 380,117.5 C380,119.43 378.43,121 376.5,121 C374.57,121 373,119.43 373,117.5 Z" style="stroke-width: 1; stroke: none; stroke-opacity: 1; fill: rgb(255, 0, 0); fill-opacity: 1;"/></g><g class="composite-shape"><path class="real" d=" M393,87.5 C393,85.57 394.57,84 396.5,84 C398.43,84 400,85.57 400,87.5 C400,89.43 398.43,91 396.5,91 C394.57,91 393,89.43 393,87.5 Z" style="stroke-width: 1; stroke: none; stroke-opacity: 1; fill: rgb(255, 0, 0); fill-opacity: 1;"/></g><g class="composite-shape"><path class="real" d=" M393,134.5 C393,132.57 394.57,131 396.5,131 C398.43,131 400,132.57 400,134.5 C400,136.43 398.43,138 396.5,138 C394.57,138 393,136.43 393,134.5 Z" style="stroke-width: 1; stroke: none; stroke-opacity: 1; fill: rgb(255, 0, 0); fill-opacity: 1;"/></g><g class="composite-shape"><path class="real" d=" M393,107.5 C393,105.57 394.57,104 396.5,104 C398.43,104 400,105.57 400,107.5 C400,109.43 398.43,111 396.5,111 C394.57,111 393,109.43 393,107.5 Z" style="stroke-width: 1; stroke: none; stroke-opacity: 1; fill: rgb(255, 0, 0); fill-opacity: 1;"/></g><g class="composite-shape"><path class="real" d=" M433,154.5 C433,152.57 434.57,151 436.5,151 C438.43,151 440,152.57 440,154.5 C440,156.43 438.43,158 436.5,158 C434.57,158 433,156.43 433,154.5 Z" style="stroke-width: 1; stroke: none; stroke-opacity: 1; fill: rgb(255, 0, 0); fill-opacity: 1;"/></g><g class="composite-shape"><path class="real" d=" M390,144.5 C390,142.57 391.57,141 393.5,141 C395.43,141 397,142.57 397,144.5 C397,146.43 395.43,148 393.5,148 C391.57,148 390,146.43 390,144.5 Z" style="stroke-width: 1; stroke: none; stroke-opacity: 1; fill: rgb(255, 0, 0); fill-opacity: 1;"/></g><g class="composite-shape"><path class="real" d=" M363,97.5 C363,95.57 364.57,94 366.5,94 C368.43,94 370,95.57 370,97.5 C370,99.43 368.43,101 366.5,101 C364.57,101 363,99.43 363,97.5 Z" style="stroke-width: 1; stroke: none; stroke-opacity: 1; fill: rgb(255, 0, 0); fill-opacity: 1;"/></g><g class="composite-shape"><path class="real" d=" M333,177.5 C333,175.57 334.57,174 336.5,174 C338.43,174 340,175.57 340,177.5 C340,179.43 338.43,181 336.5,181 C334.57,181 333,179.43 333,177.5 Z" style="stroke-width: 1; stroke: none; stroke-opacity: 1; fill: rgb(74, 144, 226); fill-opacity: 1;"/></g><g class="composite-shape"><path class="real" d=" M343,194.5 C343,192.57 344.57,191 346.5,191 C348.43,191 350,192.57 350,194.5 C350,196.43 348.43,198 346.5,198 C344.57,198 343,196.43 343,194.5 Z" style="stroke-width: 1; stroke: none; stroke-opacity: 1; fill: rgb(74, 144, 226); fill-opacity: 1;"/></g><g class="composite-shape"><path class="real" d=" M323,187.5 C323,185.57 324.57,184 326.5,184 C328.43,184 330,185.57 330,187.5 C330,189.43 328.43,191 326.5,191 C324.57,191 323,189.43 323,187.5 Z" style="stroke-width: 1; stroke: none; stroke-opacity: 1; fill: rgb(74, 144, 226); fill-opacity: 1;"/></g><g class="composite-shape"><path class="real" d=" M310,177.5 C310,175.57 311.57,174 313.5,174 C315.43,174 317,175.57 317,177.5 C317,179.43 315.43,181 313.5,181 C311.57,181 310,179.43 310,177.5 Z" style="stroke-width: 1; stroke: none; stroke-opacity: 1; fill: rgb(74, 144, 226); fill-opacity: 1;"/></g><g class="composite-shape"><path class="real" d=" M333,187.5 C333,185.57 334.57,184 336.5,184 C338.43,184 340,185.57 340,187.5 C340,189.43 338.43,191 336.5,191 C334.57,191 333,189.43 333,187.5 Z" style="stroke-width: 1; stroke: none; stroke-opacity: 1; fill: rgb(74, 144, 226); fill-opacity: 1;"/></g><g class="composite-shape"><path class="real" d=" M300,204.5 C300,202.57 301.57,201 303.5,201 C305.43,201 307,202.57 307,204.5 C307,206.43 305.43,208 303.5,208 C301.57,208 300,206.43 300,204.5 Z" style="stroke-width: 1; stroke: none; stroke-opacity: 1; fill: rgb(74, 144, 226); fill-opacity: 1;"/></g><g class="composite-shape"><path class="real" d=" M350,224.5 C350,222.57 351.57,221 353.5,221 C355.43,221 357,222.57 357,224.5 C357,226.43 355.43,228 353.5,228 C351.57,228 350,226.43 350,224.5 Z" style="stroke-width: 1; stroke: none; stroke-opacity: 1; fill: rgb(74, 144, 226); fill-opacity: 1;"/></g><g class="composite-shape"><path class="real" d=" M343,174.5 C343,172.57 344.57,171 346.5,171 C348.43,171 350,172.57 350,174.5 C350,176.43 348.43,178 346.5,178 C344.57,178 343,176.43 343,174.5 Z" style="stroke-width: 1; stroke: none; stroke-opacity: 1; fill: rgb(74, 144, 226); fill-opacity: 1;"/></g><g class="composite-shape"><path class="real" d=" M310,224.5 C310,222.57 311.57,221 313.5,221 C315.43,221 317,222.57 317,224.5 C317,226.43 315.43,228 313.5,228 C311.57,228 310,226.43 310,224.5 Z" style="stroke-width: 1; stroke: none; stroke-opacity: 1; fill: rgb(74, 144, 226); fill-opacity: 1;"/></g><g class="composite-shape"><path class="real" d=" M353,214.5 C353,212.57 354.57,211 356.5,211 C358.43,211 360,212.57 360,214.5 C360,216.43 358.43,218 356.5,218 C354.57,218 353,216.43 353,214.5 Z" style="stroke-width: 1; stroke: none; stroke-opacity: 1; fill: rgb(74, 144, 226); fill-opacity: 1;"/></g><g class="composite-shape"><path class="real" d=" M343,214.5 C343,212.57 344.57,211 346.5,211 C348.43,211 350,212.57 350,214.5 C350,216.43 348.43,218 346.5,218 C344.57,218 343,216.43 343,214.5 Z" style="stroke-width: 1; stroke: none; stroke-opacity: 1; fill: rgb(74, 144, 226); fill-opacity: 1;"/></g><g class="composite-shape"><path class="real" d=" M423,96.5 C423,94.57 424.57,93 426.5,93 C428.43,93 430,94.57 430,96.5 C430,98.43 428.43,100 426.5,100 C424.57,100 423,98.43 423,96.5 Z" style="stroke-width: 1; stroke: none; stroke-opacity: 1; fill: rgb(74, 144, 226); fill-opacity: 1;"/></g><g class="composite-shape"><path class="real" d=" M313,214.5 C313,212.57 314.57,211 316.5,211 C318.43,211 320,212.57 320,214.5 C320,216.43 318.43,218 316.5,218 C314.57,218 313,216.43 313,214.5 Z" style="stroke-width: 1; stroke: none; stroke-opacity: 1; fill: rgb(74, 144, 226); fill-opacity: 1;"/></g><g class="composite-shape"><path class="real" d=" M320,214.5 C320,212.57 321.57,211 323.5,211 C325.43,211 327,212.57 327,214.5 C327,216.43 325.43,218 323.5,218 C321.57,218 320,216.43 320,214.5 Z" style="stroke-width: 1; stroke: none; stroke-opacity: 1; fill: rgb(74, 144, 226); fill-opacity: 1;"/></g><g class="composite-shape"><path class="real" d=" M317,224.5 C317,222.57 318.57,221 320.5,221 C322.43,221 324,222.57 324,224.5 C324,226.43 322.43,228 320.5,228 C318.57,228 317,226.43 317,224.5 Z" style="stroke-width: 1; stroke: none; stroke-opacity: 1; fill: rgb(74, 144, 226); fill-opacity: 1;"/></g><g class="arrow-line"><path class="connection real" stroke-dasharray="" d="  M310,191 C286.48,204.07 258.16,206.25 231.62,201.31" style="stroke: rgb(0, 0, 0); stroke-width: 1; fill: none; fill-opacity: 1;"/><g stroke="#000" transform="matrix(0.9810228961635951,0.19389192144798653,-0.19389192144798653,0.9810228961635951,230,201)" style="stroke: rgb(0, 0, 0); stroke-width: 1;"><path d=" M10.93,-3.29 Q4.96,-0.45 0,0 Q4.96,0.45 10.93,3.29"/></g></g><g class="arrow-line"><path class="connection real" stroke-dasharray="" d="  M410,151 C405.15,179.46 428.53,193.48 448.19,200.38" style="stroke: rgb(0, 0, 0); stroke-width: 1; fill: none; fill-opacity: 1;"/><g stroke="#000" transform="matrix(-0.9487657715383926,-0.3159802379218653,0.3159802379218653,-0.9487657715383926,450,201)" style="stroke: rgb(0, 0, 0); stroke-width: 1;"><path d=" M10.93,-3.29 Q4.96,-0.45 0,0 Q4.96,0.45 10.93,3.29"/></g></g><g class="arrow-line"><path class="connection real" stroke-dasharray="" d="  M290,91 L364.17,165.17 L430,231" style="stroke: rgb(0, 0, 0); stroke-width: 2; fill: none; fill-opacity: 1;"/></g><g class="arrow-line"><path class="connection real" stroke-dasharray="" d="  M360,161 L407.88,113.12" style="stroke: rgb(0, 0, 0); stroke-width: 2; fill: none; fill-opacity: 1;"/><g stroke="#000" transform="matrix(-0.7071067811865479,0.7071067811865471,-0.7071067811865471,-0.7071067811865479,410,111)" style="stroke: rgb(0, 0, 0); stroke-width: 2;"><path d=" M14.21,-4.28 Q6.45,-0.59 0,0 Q6.45,0.59 14.21,4.28"/></g></g><g class="composite-shape"><path class="real" d=" M443,116.5 C443,114.57 444.57,113 446.5,113 C448.43,113 450,114.57 450,116.5 C450,118.43 448.43,120 446.5,120 C444.57,120 443,118.43 443,116.5 Z" style="stroke-width: 1; stroke: none; stroke-opacity: 1; fill: rgb(74, 144, 226); fill-opacity: 1;"/></g><g class="composite-shape"><path class="real" d=" M313,196.5 C313,194.57 314.57,193 316.5,193 C318.43,193 320,194.57 320,196.5 C320,198.43 318.43,200 316.5,200 C314.57,200 313,198.43 313,196.5 Z" style="stroke-width: 1; stroke: none; stroke-opacity: 1; fill: rgb(255, 0, 0); fill-opacity: 1;"/></g><g class="composite-shape"><path class="real" d=" M333,216.5 C333,214.57 334.57,213 336.5,213 C338.43,213 340,214.57 340,216.5 C340,218.43 338.43,220 336.5,220 C334.57,220 333,218.43 333,216.5 Z" style="stroke-width: 1; stroke: none; stroke-opacity: 1; fill: rgb(255, 0, 0); fill-opacity: 1;"/></g><g class="composite-shape"><path class="real" d=" M333,216.5 C333,214.57 334.57,213 336.5,213 C338.43,213 340,214.57 340,216.5 C340,218.43 338.43,220 336.5,220 C334.57,220 333,218.43 333,216.5 Z" style="stroke-width: 1; stroke: none; stroke-opacity: 1; fill: rgb(255, 0, 0); fill-opacity: 1;"/></g><g class="composite-shape"><path class="real" d=" M280,233.5 C280,231.57 281.57,230 283.5,230 C285.43,230 287,231.57 287,233.5 C287,235.43 285.43,237 283.5,237 C281.57,237 280,235.43 280,233.5 Z" style="stroke-width: 1; stroke: none; stroke-opacity: 1; fill: rgb(255, 0, 0); fill-opacity: 1;"/></g><g class="composite-shape"><path class="real" d=" M303,226.5 C303,224.57 304.57,223 306.5,223 C308.43,223 310,224.57 310,226.5 C310,228.43 308.43,230 306.5,230 C304.57,230 303,228.43 303,226.5 Z" style="stroke-width: 1; stroke: none; stroke-opacity: 1; fill: rgb(255, 0, 0); fill-opacity: 1;"/></g><g class="composite-shape"><path class="real" d=" M283,186.5 C283,184.57 284.57,183 286.5,183 C288.43,183 290,184.57 290,186.5 C290,188.43 288.43,190 286.5,190 C284.57,190 283,188.43 283,186.5 Z" style="stroke-width: 1; stroke: none; stroke-opacity: 1; fill: rgb(255, 0, 0); fill-opacity: 1;"/></g><g/></g><g/><g/><g/></svg>
        <svg xmlns="http://www.w3.org/2000/svg" xmlns:xlink="http://www.w3.org/1999/xlink" width="660" height="300" style="width:660px;height:300px;font-family:Asana-Math, Asana;background:#FFF;"><g><g><g><text x="131.79998779296875" y="173.39999389648438" style="white-space:pre;stroke:none;fill:rgb(74,144,226);fill-opacity:1;font-size:13.5px;font-family:Arial, Helvetica, sans-serif;font-weight:400;font-style:normal;dominant-baseline:text-before-edge;text-decoration:none solid rgb(74, 144, 226);">Negative Labels</text></g></g><g><g><g><g><g><g transform="matrix(1,0,0,1,149.17498779296875,205.1999938964844)"><path transform="matrix(0.015300000000000001,0,0,-0.015300000000000001,0,0)" d="M-7 -180C-8 -187 -8 -193 -8 -198C-8 -241 29 -276 74 -276C180 -276 290 -152 349 33L490 473L479 482C450 471 427 465 405 463L370 331C358 284 323 211 290 162C255 111 206 67 184 67C172 67 163 90 164 115L180 322C182 353 184 391 184 419C184 464 177 482 160 482C147 482 133 475 85 442L3 386L14 368L64 398C69 401 80 410 89 410C103 410 111 391 111 358C111 357 111 351 110 343L93 100L92 60C92 18 110 -11 135 -11C172 -11 256 74 331 187L282 16C231 -161 181 -234 111 -234C76 -234 49 -207 49 -172C49 -167 50 -159 51 -150L41 -146Z" stroke="rgb(0,0,0)" stroke-opacity="1" stroke-width="8" fill="rgb(0,0,0)" fill-opacity="1"></path></g></g><g><g><g><g><g transform="matrix(1,0,0,1,157.26251220703125,208.70996948242188)"><path transform="matrix(0.01071,0,0,-0.01071,0,0)" d="M34 388L41 368L73 389C110 412 113 414 120 414C130 414 138 404 138 391C138 384 134 361 130 347L64 107C56 76 51 49 51 30C51 6 62 -9 81 -9C107 -9 143 12 241 85L231 103L205 86C176 67 153 56 144 56C137 56 131 66 131 76C131 86 133 95 138 116L215 420C219 437 221 448 221 456C221 473 212 482 196 482C174 482 137 461 62 408ZM228 712C199 712 170 679 170 645C170 620 185 604 209 604C240 604 264 633 264 671C264 695 249 712 228 712Z" stroke="rgb(0,0,0)" stroke-opacity="1" stroke-width="8" fill="rgb(0,0,0)" fill-opacity="1"></path></g></g></g></g></g><g><g transform="matrix(1,0,0,1,161.1500244140625,205.1999938964844)"><path transform="matrix(0.015300000000000001,0,0,-0.015300000000000001,0,0)" d="" stroke="rgb(0,0,0)" stroke-opacity="1" stroke-width="8" fill="rgb(0,0,0)" fill-opacity="1"></path></g></g><g><g transform="matrix(1,0,0,1,169.54998779296875,205.1999938964844)"><path transform="matrix(0.015300000000000001,0,0,-0.015300000000000001,0,0)" d="M604 347L604 406L65 406L65 347ZM604 134L604 193L65 193L65 134Z" stroke="rgb(0,0,0)" stroke-opacity="1" stroke-width="8" fill="rgb(0,0,0)" fill-opacity="1"></path></g></g><g><g transform="matrix(1,0,0,1,184.35003662109375,205.1999938964844)"><path transform="matrix(0.015300000000000001,0,0,-0.015300000000000001,0,0)" d="" stroke="rgb(0,0,0)" stroke-opacity="1" stroke-width="8" fill="rgb(0,0,0)" fill-opacity="1"></path></g></g><g><g transform="matrix(1,0,0,1,191.2125244140625,205.1999938964844)"><path transform="matrix(0.015300000000000001,0,0,-0.015300000000000001,0,0)" d="M555 243L555 299L51 299L51 243Z" stroke="rgb(0,0,0)" stroke-opacity="1" stroke-width="8" fill="rgb(0,0,0)" fill-opacity="1"></path></g></g><g><g transform="matrix(1,0,0,1,203.51251220703125,205.1999938964844)"><path transform="matrix(0.015300000000000001,0,0,-0.015300000000000001,0,0)" d="M418 -3L418 27L366 30C311 33 301 44 301 96L301 700L60 598L67 548L217 614L217 96C217 44 206 33 152 30L96 27L96 -3C250 0 250 0 261 0C292 0 402 -3 418 -3Z" stroke="rgb(0,0,0)" stroke-opacity="1" stroke-width="8" fill="rgb(0,0,0)" fill-opacity="1"></path></g></g></g></g></g></g></g><g><g><g><text x="457.79998779296875" y="182.39999389648438" style="white-space:pre;stroke:none;fill:rgb(255,0,0);fill-opacity:1;font-size:13.5px;font-family:Arial, Helvetica, sans-serif;font-weight:400;font-style:normal;dominant-baseline:text-before-edge;text-decoration:none solid rgb(255, 0, 0);">Positive Labels</text></g></g><g><g><g><g><g><g transform="matrix(1,0,0,1,471.6875,214.1999938964844)"><path transform="matrix(0.015300000000000001,0,0,-0.015300000000000001,0,0)" d="M-7 -180C-8 -187 -8 -193 -8 -198C-8 -241 29 -276 74 -276C180 -276 290 -152 349 33L490 473L479 482C450 471 427 465 405 463L370 331C358 284 323 211 290 162C255 111 206 67 184 67C172 67 163 90 164 115L180 322C182 353 184 391 184 419C184 464 177 482 160 482C147 482 133 475 85 442L3 386L14 368L64 398C69 401 80 410 89 410C103 410 111 391 111 358C111 357 111 351 110 343L93 100L92 60C92 18 110 -11 135 -11C172 -11 256 74 331 187L282 16C231 -161 181 -234 111 -234C76 -234 49 -207 49 -172C49 -167 50 -159 51 -150L41 -146Z" stroke="rgb(0,0,0)" stroke-opacity="1" stroke-width="8" fill="rgb(0,0,0)" fill-opacity="1"></path></g></g><g><g><g><g><g transform="matrix(1,0,0,1,479.7750244140625,217.70996948242188)"><path transform="matrix(0.01071,0,0,-0.01071,0,0)" d="M34 388L41 368L73 389C110 412 113 414 120 414C130 414 138 404 138 391C138 384 134 361 130 347L64 107C56 76 51 49 51 30C51 6 62 -9 81 -9C107 -9 143 12 241 85L231 103L205 86C176 67 153 56 144 56C137 56 131 66 131 76C131 86 133 95 138 116L215 420C219 437 221 448 221 456C221 473 212 482 196 482C174 482 137 461 62 408ZM228 712C199 712 170 679 170 645C170 620 185 604 209 604C240 604 264 633 264 671C264 695 249 712 228 712Z" stroke="rgb(0,0,0)" stroke-opacity="1" stroke-width="8" fill="rgb(0,0,0)" fill-opacity="1"></path></g></g></g></g></g><g><g transform="matrix(1,0,0,1,483.6624755859375,214.1999938964844)"><path transform="matrix(0.015300000000000001,0,0,-0.015300000000000001,0,0)" d="" stroke="rgb(0,0,0)" stroke-opacity="1" stroke-width="8" fill="rgb(0,0,0)" fill-opacity="1"></path></g></g><g><g transform="matrix(1,0,0,1,492.0625,214.1999938964844)"><path transform="matrix(0.015300000000000001,0,0,-0.015300000000000001,0,0)" d="M604 347L604 406L65 406L65 347ZM604 134L604 193L65 193L65 134Z" stroke="rgb(0,0,0)" stroke-opacity="1" stroke-width="8" fill="rgb(0,0,0)" fill-opacity="1"></path></g></g><g><g transform="matrix(1,0,0,1,506.862548828125,214.1999938964844)"><path transform="matrix(0.015300000000000001,0,0,-0.015300000000000001,0,0)" d="" stroke="rgb(0,0,0)" stroke-opacity="1" stroke-width="8" fill="rgb(0,0,0)" fill-opacity="1"></path></g></g><g><g transform="matrix(1,0,0,1,513.7249755859375,214.1999938964844)"><path transform="matrix(0.015300000000000001,0,0,-0.015300000000000001,0,0)" d="M604 241L604 300L364 300L364 538L305 538L305 300L65 300L65 241L305 241L305 0L364 0L364 241Z" stroke="rgb(0,0,0)" stroke-opacity="1" stroke-width="8" fill="rgb(0,0,0)" fill-opacity="1"></path></g></g><g><g transform="matrix(1,0,0,1,526.987548828125,214.1999938964844)"><path transform="matrix(0.015300000000000001,0,0,-0.015300000000000001,0,0)" d="M418 -3L418 27L366 30C311 33 301 44 301 96L301 700L60 598L67 548L217 614L217 96C217 44 206 33 152 30L96 27L96 -3C250 0 250 0 261 0C292 0 402 -3 418 -3Z" stroke="rgb(0,0,0)" stroke-opacity="1" stroke-width="8" fill="rgb(0,0,0)" fill-opacity="1"></path></g></g></g></g></g></g></g><g><g><g><g transform="matrix(1,0,0,1,431.79998779296875,245.2999694824219)"><path transform="matrix(0.015300000000000001,0,0,-0.015300000000000001,0,0)" d="M7 661L63 661C81 661 88 650 88 620L88 102C88 39 85 32 51 30L6 27L6 -3C74 -1 101 0 130 0C159 0 186 -1 254 -3L254 27L209 30C175 32 172 39 172 102L172 314C172 359 238 408 299 408C366 408 410 358 410 281L410 -3C471 0 472 0 489 0C503 0 503 0 572 -3L572 27L531 30C497 32 494 38 494 102L494 295C494 412 408 470 323 470C261 470 200 439 172 378L172 718L163 726C119 709 86 701 7 689Z" stroke="rgb(0,0,0)" stroke-opacity="1" stroke-width="24" fill="rgb(0,0,0)" fill-opacity="1"></path></g></g><g><g><g><g><g transform="matrix(1,0,0,1,441.13751220703125,248.81000610351563)"><path transform="matrix(0.01071,0,0,-0.01071,0,0)" d="M413 469L254 104C251 113 166 397 166 405C166 420 179 428 204 429L244 431L244 459C145 456 145 456 125 456C105 456 105 456 6 459L6 431L34 429C62 427 75 407 100 329L202 -7L249 -7L399 335L535 -7L581 -7L718 342C748 409 760 426 782 429L808 431L808 459C726 456 726 456 710 456C694 456 694 456 612 459L612 431L646 429C671 428 685 416 685 398L580 98L465 388C451 422 444 442 436 469Z" stroke="rgb(0,0,0)" stroke-opacity="1" stroke-width="24" fill="rgb(0,0,0)" fill-opacity="1"></path></g></g></g></g></g></g></g><g><g><g><g transform="matrix(1,0,0,1,411.79998779296875,107.3)"><path transform="matrix(0.015300000000000001,0,0,-0.015300000000000001,0,0)" d="M413 469L254 104C251 113 166 397 166 405C166 420 179 428 204 429L244 431L244 459C145 456 145 456 125 456C105 456 105 456 6 459L6 431L34 429C62 427 75 407 100 329L202 -7L249 -7L399 335L535 -7L581 -7L718 342C748 409 760 426 782 429L808 431L808 459C726 456 726 456 710 456C694 456 694 456 612 459L612 431L646 429C671 428 685 416 685 398L580 98L465 388C451 422 444 442 436 469Z" stroke="rgb(0,0,0)" stroke-opacity="1" stroke-width="24" fill="rgb(0,0,0)" fill-opacity="1"></path></g></g></g></g><g><g><g><g transform="matrix(1,0,0,1,273.79998779296875,38.5999755859375)"><path transform="matrix(0.018,0,0,-0.018,0,0)" d="M91 46C91 27 93 0 135 0L168 0C212 0 214 28 214 46L214 576L488 51C504 21 519 0 565 0L656 0C675 0 702 3 702 45L702 649C702 668 699 694 658 694L625 694C580 694 579 666 579 648L579 118L305 643C289 674 275 694 229 694L137 694C114 694 91 689 91 649ZM824 224C824 36 940 -11 1069 -11C1192 -11 1312 35 1312 220C1312 465 1150 475 1053 475C940 475 824 424 824 224ZM961 214L961 241C961 310 959 402 1067 402C1174 402 1174 313 1175 255L1175 228C1174 161 1177 67 1068 67C964 67 963 155 961 214ZM1365 422C1365 411 1369 385 1409 385L1430 385L1430 152C1430 121 1430 91 1439 61C1456 6 1494 -11 1534 -11C1608 -11 1716 21 1716 47C1716 47 1708 102 1693 102C1680 102 1650 67 1603 67C1575 67 1561 85 1561 159C1561 168 1562 176 1562 185L1562 385L1655 385C1693 386 1698 411 1698 421C1698 430 1693 458 1653 458L1562 458L1562 544C1562 568 1552 589 1517 589L1481 589C1464 589 1433 588 1433 544L1433 458L1409 458C1369 458 1365 433 1365 422ZM2157 27C2157 16 2162 0 2195 0L2232 0C2289 0 2287 27 2331 151L2616 151C2661 24 2660 0 2715 0L2768 0C2770 0 2805 -2 2805 27C2805 33 2803 38 2801 44L2594 634C2584 663 2577 694 2526 694L2436 694C2394 694 2382 674 2373 648L2161 46C2159 40 2157 33 2157 27ZM2361 237C2384 303 2460 518 2474 569C2483 535 2494 502 2586 237ZM2908 45C2908 5 2930 0 2956 0L2997 0C3040 2 3042 22 3042 49L3042 677C3042 714 3021 722 2996 722L2950 722C2922 722 2908 704 2908 675ZM3163 45C3163 5 3185 0 3211 0L3252 0C3295 2 3297 22 3297 49L3297 677C3297 714 3276 722 3251 722L3205 722C3177 722 3163 704 3163 675ZM3388 224C3388 36 3504 -11 3633 -11C3756 -11 3876 35 3876 220C3876 465 3714 475 3617 475C3504 475 3388 424 3388 224ZM3525 214L3525 241C3525 310 3523 402 3631 402C3738 402 3738 313 3739 255L3739 228C3738 161 3741 67 3632 67C3528 67 3527 155 3525 214ZM3902 429C3902 423 3903 417 3905 411L4003 60C4010 34 4015 0 4066 0L4105 0C4140 0 4154 15 4163 47C4189 141 4226 269 4229 321C4232 298 4232 274 4282 94C4300 29 4301 0 4353 0L4432 0C4480 0 4486 31 4493 57L4593 415C4594 420 4596 424 4596 429C4596 438 4592 458 4560 458L4532 458C4517 458 4486 458 4474 414L4390 114L4389 114L4300 429L4291 444C4277 454 4270 458 4247 458L4243 458C4226 458 4198 457 4186 414C4122 186 4113 158 4106 129C4103 138 4053 316 4027 410C4016 448 4000 458 3967 458L3939 458C3929 458 3902 456 3902 429ZM4620 233C4620 74 4707 -11 4874 -11C4943 -11 5005 9 5047 33C5059 40 5063 44 5063 55C5063 55 5063 114 5052 125L5047 127L5043 127C5023 121 4976 62 4876 62C4774 62 4751 136 4749 214L5025 214C5043 214 5069 216 5069 257C5069 364 5027 475 4860 475C4716 475 4620 401 4620 233ZM4750 279C4756 341 4780 402 4860 402C4938 402 4954 346 4957 279ZM5137 239C5137 206 5137 172 5148 130C5176 23 5256 -11 5336 -11C5391 -11 5427 6 5463 32C5472 1 5491 0 5509 0L5555 0C5597 0 5600 27 5600 46L5600 677C5600 698 5597 722 5550 722L5510 722C5471 722 5466 697 5466 678L5466 433C5430 456 5391 469 5341 469C5236 469 5140 417 5137 239ZM5274 221L5274 242C5274 303 5275 396 5385 396C5432 396 5456 371 5463 366L5463 121C5463 91 5418 62 5375 62C5276 62 5274 150 5274 221ZM6120 45C6120 6 6141 0 6166 0L6413 0C6530 0 6761 15 6761 341C6761 648 6578 694 6402 694L6162 694C6118 694 6120 658 6120 646ZM6259 86L6259 579L6260 608L6405 608C6614 600 6622 459 6622 332L6622 321C6621 268 6616 212 6586 166C6535 90 6447 86 6370 86ZM6853 137C6853 69 6903 -11 6999 -11C7081 -11 7131 23 7153 40C7153 23 7162 0 7194 0L7242 0C7282 0 7287 23 7287 45L7287 308C7287 408 7241 475 7080 475C7017 475 6968 463 6923 443C6901 432 6895 433 6895 417C6895 417 6898 352 6905 340L6909 337L6913 336C6935 337 6965 405 7080 405C7143 405 7151 359 7151 312L7151 291C7062 290 6853 273 6853 137ZM6984 137C6984 215 7090 227 7151 232L7151 154C7151 80 7086 62 7053 62C7010 62 6984 101 6984 137ZM7369 422C7369 411 7373 385 7413 385L7434 385L7434 152C7434 121 7434 91 7443 61C7460 6 7498 -11 7538 -11C7612 -11 7720 21 7720 47C7720 47 7712 102 7697 102C7684 102 7654 67 7607 67C7579 67 7565 85 7565 159C7565 168 7566 176 7566 185L7566 385L7659 385C7697 386 7702 411 7702 421C7702 430 7697 458 7657 458L7566 458L7566 544C7566 568 7556 589 7521 589L7485 589C7468 589 7437 588 7437 544L7437 458L7413 458C7373 458 7369 433 7369 422ZM7782 137C7782 69 7832 -11 7928 -11C8010 -11 8060 23 8082 40C8082 23 8091 0 8123 0L8171 0C8211 0 8216 23 8216 45L8216 308C8216 408 8170 475 8009 475C7946 475 7897 463 7852 443C7830 432 7824 433 7824 417C7824 417 7827 352 7834 340L7838 337L7842 336C7864 337 7894 405 8009 405C8072 405 8080 359 8080 312L8080 291C7991 290 7782 273 7782 137ZM7913 137C7913 215 8019 227 8080 232L8080 154C8080 80 8015 62 7982 62C7939 62 7913 101 7913 137ZM8308 50C8308 47 8309 45 8310 42L8314 37C8339 21 8404 -11 8493 -11C8592 -11 8673 19 8673 140C8673 221 8613 261 8585 275C8523 307 8412 295 8412 354C8412 392 8445 402 8486 402C8583 402 8610 348 8631 348C8636 348 8640 352 8643 363C8649 397 8653 415 8653 426C8653 440 8647 443 8629 450C8592 465 8554 474 8507 475L8481 475C8397 473 8313 446 8313 331C8313 250 8380 210 8417 196C8474 175 8573 183 8573 121C8573 79 8540 68 8495 68C8388 68 8352 143 8334 143C8322 143 8321 127 8320 120C8312 76 8308 59 8308 50ZM8729 233C8729 74 8816 -11 8983 -11C9052 -11 9114 9 9156 33C9168 40 9172 44 9172 55C9172 55 9172 114 9161 125L9156 127L9152 127C9132 121 9085 62 8985 62C8883 62 8860 136 8858 214L9134 214C9152 214 9178 216 9178 257C9178 364 9136 475 8969 475C8825 475 8729 401 8729 233ZM8859 279C8865 341 8889 402 8969 402C9047 402 9063 346 9066 279ZM9231 422C9231 411 9235 385 9275 385L9296 385L9296 152C9296 121 9296 91 9305 61C9322 6 9360 -11 9400 -11C9474 -11 9582 21 9582 47C9582 47 9574 102 9559 102C9546 102 9516 67 9469 67C9441 67 9427 85 9427 159C9427 168 9428 176 9428 185L9428 385L9521 385C9559 386 9564 411 9564 421C9564 430 9559 458 9519 458L9428 458L9428 544C9428 568 9418 589 9383 589L9347 589C9330 589 9299 588 9299 544L9299 458L9275 458C9235 458 9231 433 9231 422Z" stroke="rgb(0,0,0)" stroke-opacity="1" stroke-width="8" fill="rgb(0,0,0)" fill-opacity="1"></path></g></g></g></g></svg>
</svg>