<svg xmlns="http://www.w3.org/2000/svg" xmlns:xlink="http://www.w3.org/1999/xlink" x="0" y="0" width="661.6000366210938" height="311.6000061035156" style="
        width:661.6000366210938px;
        height:311.6000061035156px;
        background: #FFF;
        fill: none;
">
        
        
        <svg xmlns="http://www.w3.org/2000/svg" class="role-diagram-draw-area"><g class="shapes-region" style="stroke: black; fill: none;"><g class="composite-shape" data-amt="diagram/shapes/plot" transform="matrix(1,0,0,1,21,38)"><g><g/><g><g class="test-xti" style="font-family: Asana-Math, Asana;"><line x1="0" y1="213.12571925333452" x2="616" y2="213.12571925333452" fill="none" stroke="rgb(50,50,50)" stroke-opacity="1" stroke-width="1"/><line x1="15.337092334405643" y1="209.12571925333452" x2="15.337092334405643" y2="217.12571925333452" fill="none" stroke="rgb(50,50,50)" stroke-opacity="1" stroke-width="1"/><line x1="64.73709233440565" y1="209.12571925333452" x2="64.73709233440565" y2="217.12571925333452" fill="none" stroke="rgb(50,50,50)" stroke-opacity="1" stroke-width="1"/><line x1="114.13709233440565" y1="209.12571925333452" x2="114.13709233440565" y2="217.12571925333452" fill="none" stroke="rgb(50,50,50)" stroke-opacity="1" stroke-width="1"/><line x1="163.53709233440563" y1="209.12571925333452" x2="163.53709233440563" y2="217.12571925333452" fill="none" stroke="rgb(50,50,50)" stroke-opacity="1" stroke-width="1"/><line x1="212.93709233440566" y1="209.12571925333452" x2="212.93709233440566" y2="217.12571925333452" fill="none" stroke="rgb(50,50,50)" stroke-opacity="1" stroke-width="1"/><line x1="262.33709233440567" y1="209.12571925333452" x2="262.33709233440567" y2="217.12571925333452" fill="none" stroke="rgb(50,50,50)" stroke-opacity="1" stroke-width="1"/><line x1="361.1370923344056" y1="209.12571925333452" x2="361.1370923344056" y2="217.12571925333452" fill="none" stroke="rgb(50,50,50)" stroke-opacity="1" stroke-width="1"/><line x1="410.5370923344057" y1="209.12571925333452" x2="410.5370923344057" y2="217.12571925333452" fill="none" stroke="rgb(50,50,50)" stroke-opacity="1" stroke-width="1"/><line x1="459.9370923344057" y1="209.12571925333452" x2="459.9370923344057" y2="217.12571925333452" fill="none" stroke="rgb(50,50,50)" stroke-opacity="1" stroke-width="1"/><line x1="509.3370923344057" y1="209.12571925333452" x2="509.3370923344057" y2="217.12571925333452" fill="none" stroke="rgb(50,50,50)" stroke-opacity="1" stroke-width="1"/><line x1="558.7370923344057" y1="209.12571925333452" x2="558.7370923344057" y2="217.12571925333452" fill="none" stroke="rgb(50,50,50)" stroke-opacity="1" stroke-width="1"/><line x1="608.1370923344058" y1="209.12571925333452" x2="608.1370923344058" y2="217.12571925333452" fill="none" stroke="rgb(50,50,50)" stroke-opacity="1" stroke-width="1"/><path d="M611,209.52571925333453 L619,213.12571925333452 L611,216.72571925333452 Z" stroke="none" stroke-width="1" fill="rgb(50,50,50)" fill-opacity="1"/></g><g class="test-yti" style="font-family: Asana-Math, Asana;"><line x1="311.73709233440565" y1="4" x2="311.73709233440565" y2="270" fill="none" stroke="rgb(50,50,50)" stroke-opacity="1" stroke-width="1"/><line x1="307.73709233440565" y1="118.62571925333452" x2="315.73709233440565" y2="118.62571925333452" fill="none" stroke="rgb(50,50,50)" stroke-opacity="1" stroke-width="1"/><line x1="307.73709233440565" y1="24.125719253334523" x2="315.73709233440565" y2="24.125719253334523" fill="none" stroke="rgb(50,50,50)" stroke-opacity="1" stroke-width="1"/><path d="M308.1370923344056,9 L311.73709233440565,1 L315.33709233440567,9 Z" stroke="none" stroke-width="1" fill="rgb(50,50,50)" fill-opacity="1"/></g><g class="test-plot-expression"><defs><clipPath id="cp375rxvhov"><rect x="1" y="1" width="618" height="268"/></clipPath></defs><g clip-path="url(#cp375rxvhov)"><path d=" M0.00,212.78 L0.56,212.78 L1.13,212.77 L1.69,212.77 L2.26,212.77 L2.82,212.76 L3.38,212.76 L3.95,212.75 L4.51,212.75 L5.08,212.75 L5.64,212.74 L6.21,212.74 L6.77,212.73 L7.33,212.73 L7.90,212.72 L8.46,212.72 L9.03,212.71 L9.59,212.71 L10.15,212.70 L10.72,212.70 L11.28,212.70 L11.85,212.69 L12.41,212.69 L12.98,212.68 L13.54,212.68 L14.10,212.67 L14.67,212.66 L15.23,212.66 L15.80,212.65 L16.36,212.65 L16.92,212.64 L17.49,212.64 L18.05,212.63 L18.62,212.63 L19.18,212.62 L19.75,212.61 L20.31,212.61 L20.87,212.60 L21.44,212.60 L22.00,212.59 L22.57,212.58 L23.13,212.58 L23.69,212.57 L24.26,212.57 L24.82,212.56 L25.39,212.55 L25.95,212.55 L26.52,212.54 L27.08,212.53 L27.64,212.53 L28.21,212.52 L28.77,212.51 L29.34,212.51 L29.90,212.50 L30.46,212.49 L31.03,212.48 L31.59,212.48 L32.16,212.47 L32.72,212.46 L33.28,212.45 L33.85,212.45 L34.41,212.44 L34.98,212.43 L35.54,212.42 L36.11,212.42 L36.67,212.41 L37.23,212.40 L37.80,212.39 L38.36,212.38 L38.93,212.37 L39.49,212.36 L40.05,212.36 L40.62,212.35 L41.18,212.34 L41.75,212.33 L42.31,212.32 L42.88,212.31 L43.44,212.30 L44.00,212.29 L44.57,212.28 L45.13,212.27 L45.70,212.26 L46.26,212.25 L46.82,212.24 L47.39,212.23 L47.95,212.22 L48.52,212.21 L49.08,212.20 L49.65,212.19 L50.21,212.18 L50.77,212.17 L51.34,212.16 L51.90,212.15 L52.47,212.14 L53.03,212.13 L53.59,212.11 L54.16,212.10 L54.72,212.09 L55.29,212.08 L55.85,212.07 L56.41,212.06 L56.98,212.04 L57.54,212.03 L58.11,212.02 L58.67,212.01 L59.24,211.99 L59.80,211.98 L60.36,211.97 L60.93,211.95 L61.49,211.94 L62.06,211.93 L62.62,211.91 L63.18,211.90 L63.75,211.89 L64.31,211.87 L64.88,211.86 L65.44,211.84 L66.01,211.83 L66.57,211.81 L67.13,211.80 L67.70,211.78 L68.26,211.77 L68.83,211.75 L69.39,211.74 L69.95,211.72 L70.52,211.70 L71.08,211.69 L71.65,211.67 L72.21,211.66 L72.78,211.64 L73.34,211.62 L73.90,211.60 L74.47,211.59 L75.03,211.57 L75.60,211.55 L76.16,211.53 L76.72,211.52 L77.29,211.50 L77.85,211.48 L78.42,211.46 L78.98,211.44 L79.55,211.42 L80.11,211.40 L80.67,211.38 L81.24,211.36 L81.80,211.34 L82.37,211.32 L82.93,211.30 L83.49,211.28 L84.06,211.26 L84.62,211.24 L85.19,211.22 L85.75,211.20 L86.31,211.18 L86.88,211.15 L87.44,211.13 L88.01,211.11 L88.57,211.08 L89.14,211.06 L89.70,211.04 L90.26,211.01 L90.83,210.99 L91.39,210.97 L91.96,210.94 L92.52,210.92 L93.08,210.89 L93.65,210.87 L94.21,210.84 L94.78,210.82 L95.34,210.79 L95.91,210.76 L96.47,210.74 L97.03,210.71 L97.60,210.68 L98.16,210.65 L98.73,210.63 L99.29,210.60 L99.85,210.57 L100.42,210.54 L100.98,210.51 L101.55,210.48 L102.11,210.45 L102.68,210.42 L103.24,210.39 L103.80,210.36 L104.37,210.33 L104.93,210.30 L105.50,210.26 L106.06,210.23 L106.62,210.20 L107.19,210.17 L107.75,210.13 L108.32,210.10 L108.88,210.06 L109.44,210.03 L110.01,209.99 L110.57,209.96 L111.14,209.92 L111.70,209.89 L112.27,209.85 L112.83,209.81 L113.39,209.78 L113.96,209.74 L114.52,209.70 L115.09,209.66 L115.65,209.62 L116.21,209.58 L116.78,209.54 L117.34,209.50 L117.91,209.46 L118.47,209.42 L119.04,209.38 L119.60,209.34 L120.16,209.29 L120.73,209.25 L121.29,209.21 L121.86,209.16 L122.42,209.12 L122.98,209.07 L123.55,209.03 L124.11,208.98 L124.68,208.94 L125.24,208.89 L125.81,208.84 L126.37,208.79 L126.93,208.74 L127.50,208.70 L128.06,208.65 L128.63,208.60 L129.19,208.54 L129.75,208.49 L130.32,208.44 L130.88,208.39 L131.45,208.34 L132.01,208.28 L132.58,208.23 L133.14,208.17 L133.70,208.12 L134.27,208.06 L134.83,208.01 L135.40,207.95 L135.96,207.89 L136.52,207.83 L137.09,207.77 L137.65,207.71 L138.22,207.65 L138.78,207.59 L139.34,207.53 L139.91,207.47 L140.47,207.40 L141.04,207.34 L141.60,207.28 L142.17,207.21 L142.73,207.15 L143.29,207.08 L143.86,207.01 L144.42,206.94 L144.99,206.88 L145.55,206.81 L146.11,206.74 L146.68,206.67 L147.24,206.59 L147.81,206.52 L148.37,206.45 L148.94,206.37 L149.50,206.30 L150.06,206.22 L150.63,206.15 L151.19,206.07 L151.76,205.99 L152.32,205.91 L152.88,205.83 L153.45,205.75 L154.01,205.67 L154.58,205.59 L155.14,205.51 L155.71,205.42 L156.27,205.34 L156.83,205.25 L157.40,205.17 L157.96,205.08 L158.53,204.99 L159.09,204.90 L159.65,204.81 L160.22,204.72 L160.78,204.63 L161.35,204.53 L161.91,204.44 L162.47,204.34 L163.04,204.25 L163.60,204.15 L164.17,204.05 L164.73,203.95 L165.30,203.85 L165.86,203.75 L166.42,203.65 L166.99,203.55 L167.55,203.44 L168.12,203.34 L168.68,203.23 L169.24,203.12 L169.81,203.01 L170.37,202.90 L170.94,202.79 L171.50,202.68 L172.07,202.57 L172.63,202.45 L173.19,202.34 L173.76,202.22 L174.32,202.10 L174.89,201.98 L175.45,201.86 L176.01,201.74 L176.58,201.62 L177.14,201.49 L177.71,201.37 L178.27,201.24 L178.84,201.12 L179.40,200.99 L179.96,200.86 L180.53,200.72 L181.09,200.59 L181.66,200.46 L182.22,200.32 L182.78,200.18 L183.35,200.05 L183.91,199.91 L184.48,199.77 L185.04,199.62 L185.61,199.48 L186.17,199.33 L186.73,199.19 L187.30,199.04 L187.86,198.89 L188.43,198.74 L188.99,198.59 L189.55,198.43 L190.12,198.28 L190.68,198.12 L191.25,197.96 L191.81,197.80 L192.37,197.64 L192.94,197.48 L193.50,197.31 L194.07,197.14 L194.63,196.98 L195.20,196.81 L195.76,196.64 L196.32,196.46 L196.89,196.29 L197.45,196.11 L198.02,195.94 L198.58,195.76 L199.14,195.58 L199.71,195.39 L200.27,195.21 L200.84,195.02 L201.40,194.83 L201.97,194.64 L202.53,194.45 L203.09,194.26 L203.66,194.07 L204.22,193.87 L204.79,193.67 L205.35,193.47 L205.91,193.27 L206.48,193.06 L207.04,192.86 L207.61,192.65 L208.17,192.44 L208.74,192.23 L209.30,192.02 L209.86,191.80 L210.43,191.59 L210.99,191.37 L211.56,191.15 L212.12,190.92 L212.68,190.70 L213.25,190.47 L213.81,190.24 L214.38,190.01 L214.94,189.78 L215.51,189.54 L216.07,189.31 L216.63,189.07 L217.20,188.83 L217.76,188.59 L218.33,188.34 L218.89,188.09 L219.45,187.84 L220.02,187.59 L220.58,187.34 L221.15,187.08 L221.71,186.83 L222.27,186.57 L222.84,186.31 L223.40,186.04 L223.97,185.78 L224.53,185.51 L225.10,185.24 L225.66,184.96 L226.22,184.69 L226.79,184.41 L227.35,184.13 L227.92,183.85 L228.48,183.57 L229.04,183.28 L229.61,182.99 L230.17,182.70 L230.74,182.41 L231.30,182.12 L231.87,181.82 L232.43,181.52 L232.99,181.22 L233.56,180.91 L234.12,180.61 L234.69,180.30 L235.25,179.99 L235.81,179.68 L236.38,179.36 L236.94,179.04 L237.51,178.72 L238.07,178.40 L238.64,178.07 L239.20,177.75 L239.76,177.42 L240.33,177.09 L240.89,176.75 L241.46,176.41 L242.02,176.08 L242.58,175.73 L243.15,175.39 L243.71,175.04 L244.28,174.70 L244.84,174.35 L245.40,173.99 L245.97,173.64 L246.53,173.28 L247.10,172.92 L247.66,172.56 L248.23,172.19 L248.79,171.82 L249.35,171.45 L249.92,171.08 L250.48,170.71 L251.05,170.33 L251.61,169.95 L252.17,169.57 L252.74,169.18 L253.30,168.80 L253.87,168.41 L254.43,168.02 L255.00,167.63 L255.56,167.23 L256.12,166.83 L256.69,166.43 L257.25,166.03 L257.82,165.62 L258.38,165.22 L258.94,164.81 L259.51,164.40 L260.07,163.98 L260.64,163.56 L261.20,163.15 L261.77,162.72 L262.33,162.30 L262.89,161.88 L263.46,161.45 L264.02,161.02 L264.59,160.59 L265.15,160.15 L265.71,159.72 L266.28,159.28 L266.84,158.84 L267.41,158.39 L267.97,157.95 L268.54,157.50 L269.10,157.05 L269.66,156.60 L270.23,156.15 L270.79,155.69 L271.36,155.23 L271.92,154.77 L272.48,154.31 L273.05,153.85 L273.61,153.38 L274.18,152.92 L274.74,152.45 L275.30,151.97 L275.87,151.50 L276.43,151.03 L277.00,150.55 L277.56,150.07 L278.13,149.59 L278.69,149.11 L279.25,148.62 L279.82,148.14 L280.38,147.65 L280.95,147.16 L281.51,146.67 L282.07,146.17 L282.64,145.68 L283.20,145.18 L283.77,144.69 L284.33,144.19 L284.90,143.69 L285.46,143.18 L286.02,142.68 L286.59,142.17 L287.15,141.67 L287.72,141.16 L288.28,140.65 L288.84,140.14 L289.41,139.63 L289.97,139.11 L290.54,138.60 L291.10,138.08 L291.67,137.56 L292.23,137.05 L292.79,136.53 L293.36,136.01 L293.92,135.48 L294.49,134.96 L295.05,134.44 L295.61,133.91 L296.18,133.39 L296.74,132.86 L297.31,132.33 L297.87,131.80 L298.43,131.27 L299.00,130.74 L299.56,130.21 L300.13,129.68 L300.69,129.15 L301.26,128.61 L301.82,128.08 L302.38,127.55 L302.95,127.01 L303.51,126.47 L304.08,125.94 L304.64,125.40 L305.20,124.86 L305.77,124.33 L306.33,123.79 L306.90,123.25 L307.46,122.71 L308.03,122.17 L308.59,121.64 L309.15,121.10 L309.72,120.56 L310.28,120.02 L310.85,119.48 L311.41,118.94 L311.97,118.40 L312.54,117.86 L313.10,117.32 L313.67,116.78 L314.23,116.24 L314.80,115.70 L315.36,115.16 L315.92,114.62 L316.49,114.09 L317.05,113.55 L317.62,113.01 L318.18,112.47 L318.74,111.93 L319.31,111.40 L319.87,110.86 L320.44,110.33 L321.00,109.79 L321.57,109.26 L322.13,108.72 L322.69,108.19 L323.26,107.66 L323.82,107.12 L324.39,106.59 L324.95,106.06 L325.51,105.53 L326.08,105.00 L326.64,104.48 L327.21,103.95 L327.77,103.42 L328.33,102.90 L328.90,102.37 L329.46,101.85 L330.03,101.33 L330.59,100.81 L331.16,100.29 L331.72,99.77 L332.28,99.25 L332.85,98.74 L333.41,98.22 L333.98,97.71 L334.54,97.19 L335.10,96.68 L335.67,96.17 L336.23,95.66 L336.80,95.16 L337.36,94.65 L337.93,94.15 L338.49,93.65 L339.05,93.14 L339.62,92.64 L340.18,92.15 L340.75,91.65 L341.31,91.16 L341.87,90.66 L342.44,90.17 L343.00,89.68 L343.57,89.19 L344.13,88.71 L344.70,88.22 L345.26,87.74 L345.82,87.26 L346.39,86.78 L346.95,86.30 L347.52,85.83 L348.08,85.35 L348.64,84.88 L349.21,84.41 L349.77,83.94 L350.34,83.48 L350.90,83.01 L351.46,82.55 L352.03,82.09 L352.59,81.63 L353.16,81.18 L353.72,80.72 L354.29,80.27 L354.85,79.82 L355.41,79.37 L355.98,78.93 L356.54,78.49 L357.11,78.04 L357.67,77.61 L358.23,77.17 L358.80,76.73 L359.36,76.30 L359.93,75.87 L360.49,75.44 L361.06,75.02 L361.62,74.59 L362.18,74.17 L362.75,73.75 L363.31,73.34 L363.88,72.92 L364.44,72.51 L365.00,72.10 L365.57,71.69 L366.13,71.29 L366.70,70.88 L367.26,70.48 L367.83,70.08 L368.39,69.69 L368.95,69.29 L369.52,68.90 L370.08,68.51 L370.65,68.13 L371.21,67.74 L371.77,67.36 L372.34,66.98 L372.90,66.60 L373.47,66.23 L374.03,65.86 L374.60,65.49 L375.16,65.12 L375.72,64.75 L376.29,64.39 L376.85,64.03 L377.42,63.67 L377.98,63.32 L378.54,62.96 L379.11,62.61 L379.67,62.26 L380.24,61.92 L380.80,61.57 L381.36,61.23 L381.93,60.89 L382.49,60.55 L383.06,60.22 L383.62,59.89 L384.19,59.56 L384.75,59.23 L385.31,58.90 L385.88,58.58 L386.44,58.26 L387.01,57.94 L387.57,57.63 L388.13,57.31 L388.70,57.00 L389.26,56.69 L389.83,56.39 L390.39,56.08 L390.96,55.78 L391.52,55.48 L392.08,55.18 L392.65,54.89 L393.21,54.59 L393.78,54.30 L394.34,54.01 L394.90,53.73 L395.47,53.44 L396.03,53.16 L396.60,52.88 L397.16,52.61 L397.73,52.33 L398.29,52.06 L398.85,51.79 L399.42,51.52 L399.98,51.25 L400.55,50.99 L401.11,50.73 L401.67,50.47 L402.24,50.21 L402.80,49.95 L403.37,49.70 L403.93,49.45 L404.49,49.20 L405.06,48.95 L405.62,48.70 L406.19,48.46 L406.75,48.22 L407.32,47.98 L407.88,47.74 L408.44,47.51 L409.01,47.28 L409.57,47.05 L410.14,46.82 L410.70,46.59 L411.26,46.36 L411.83,46.14 L412.39,45.92 L412.96,45.70 L413.52,45.48 L414.09,45.27 L414.65,45.05 L415.21,44.84 L415.78,44.63 L416.34,44.43 L416.91,44.22 L417.47,44.02 L418.03,43.81 L418.60,43.61 L419.16,43.41 L419.73,43.22 L420.29,43.02 L420.86,42.83 L421.42,42.64 L421.98,42.45 L422.55,42.26 L423.11,42.07 L423.68,41.89 L424.24,41.71 L424.80,41.52 L425.37,41.34 L425.93,41.17 L426.50,40.99 L427.06,40.82 L427.63,40.64 L428.19,40.47 L428.75,40.30 L429.32,40.13 L429.88,39.97 L430.45,39.80 L431.01,39.64 L431.57,39.48 L432.14,39.32 L432.70,39.16 L433.27,39.00 L433.83,38.84 L434.39,38.69 L434.96,38.54 L435.52,38.39 L436.09,38.24 L436.65,38.09 L437.22,37.94 L437.78,37.80 L438.34,37.65 L438.91,37.51 L439.47,37.37 L440.04,37.23 L440.60,37.09 L441.16,36.95 L441.73,36.82 L442.29,36.68 L442.86,36.55 L443.42,36.42 L443.99,36.29 L444.55,36.16 L445.11,36.03 L445.68,35.90 L446.24,35.78 L446.81,35.65 L447.37,35.53 L447.93,35.41 L448.50,35.29 L449.06,35.17 L449.63,35.05 L450.19,34.93 L450.76,34.82 L451.32,34.70 L451.88,34.59 L452.45,34.48 L453.01,34.37 L453.58,34.26 L454.14,34.15 L454.70,34.04 L455.27,33.93 L455.83,33.83 L456.40,33.72 L456.96,33.62 L457.53,33.52 L458.09,33.41 L458.65,33.31 L459.22,33.21 L459.78,33.12 L460.35,33.02 L460.91,32.92 L461.47,32.83 L462.04,32.73 L462.60,32.64 L463.17,32.55 L463.73,32.46 L464.29,32.37 L464.86,32.28 L465.42,32.19 L465.99,32.10 L466.55,32.01 L467.12,31.93 L467.68,31.84 L468.24,31.76 L468.81,31.67 L469.37,31.59 L469.94,31.51 L470.50,31.43 L471.06,31.35 L471.63,31.27 L472.19,31.19 L472.76,31.12 L473.32,31.04 L473.89,30.96 L474.45,30.89 L475.01,30.82 L475.58,30.74 L476.14,30.67 L476.71,30.60 L477.27,30.53 L477.83,30.46 L478.40,30.39 L478.96,30.32 L479.53,30.25 L480.09,30.18 L480.66,30.12 L481.22,30.05 L481.78,29.98 L482.35,29.92 L482.91,29.86 L483.48,29.79 L484.04,29.73 L484.60,29.67 L485.17,29.61 L485.73,29.55 L486.30,29.49 L486.86,29.43 L487.42,29.37 L487.99,29.31 L488.55,29.25 L489.12,29.20 L489.68,29.14 L490.25,29.09 L490.81,29.03 L491.37,28.98 L491.94,28.92 L492.50,28.87 L493.07,28.82 L493.63,28.77 L494.19,28.71 L494.76,28.66 L495.32,28.61 L495.89,28.56 L496.45,28.51 L497.02,28.47 L497.58,28.42 L498.14,28.37 L498.71,28.32 L499.27,28.28 L499.84,28.23 L500.40,28.18 L500.96,28.14 L501.53,28.10 L502.09,28.05 L502.66,28.01 L503.22,27.96 L503.79,27.92 L504.35,27.88 L504.91,27.84 L505.48,27.80 L506.04,27.76 L506.61,27.71 L507.17,27.67 L507.73,27.64 L508.30,27.60 L508.86,27.56 L509.43,27.52 L509.99,27.48 L510.56,27.44 L511.12,27.41 L511.68,27.37 L512.25,27.33 L512.81,27.30 L513.38,27.26 L513.94,27.23 L514.50,27.19 L515.07,27.16 L515.63,27.12 L516.20,27.09 L516.76,27.06 L517.32,27.03 L517.89,26.99 L518.45,26.96 L519.02,26.93 L519.58,26.90 L520.15,26.87 L520.71,26.84 L521.27,26.81 L521.84,26.78 L522.40,26.75 L522.97,26.72 L523.53,26.69 L524.09,26.66 L524.66,26.63 L525.22,26.60 L525.79,26.57 L526.35,26.55 L526.92,26.52 L527.48,26.49 L528.04,26.47 L528.61,26.44 L529.17,26.41 L529.74,26.39 L530.30,26.36 L530.86,26.34 L531.43,26.31 L531.99,26.29 L532.56,26.26 L533.12,26.24 L533.69,26.22 L534.25,26.19 L534.81,26.17 L535.38,26.15 L535.94,26.12 L536.51,26.10 L537.07,26.08 L537.63,26.06 L538.20,26.04 L538.76,26.01 L539.33,25.99 L539.89,25.97 L540.45,25.95 L541.02,25.93 L541.58,25.91 L542.15,25.89 L542.71,25.87 L543.28,25.85 L543.84,25.83 L544.40,25.81 L544.97,25.79 L545.53,25.77 L546.10,25.76 L546.66,25.74 L547.22,25.72 L547.79,25.70 L548.35,25.68 L548.92,25.67 L549.48,25.65 L550.05,25.63 L550.61,25.62 L551.17,25.60 L551.74,25.58 L552.30,25.57 L552.87,25.55 L553.43,25.53 L553.99,25.52 L554.56,25.50 L555.12,25.49 L555.69,25.47 L556.25,25.46 L556.82,25.44 L557.38,25.43 L557.94,25.41 L558.51,25.40 L559.07,25.38 L559.64,25.37 L560.20,25.35 L560.76,25.34 L561.33,25.33 L561.89,25.31 L562.46,25.30 L563.02,25.29 L563.59,25.27 L564.15,25.26 L564.71,25.25 L565.28,25.23 L565.84,25.22 L566.41,25.21 L566.97,25.20 L567.53,25.19 L568.10,25.17 L568.66,25.16 L569.23,25.15 L569.79,25.14 L570.35,25.13 L570.92,25.12 L571.48,25.10 L572.05,25.09 L572.61,25.08 L573.18,25.07 L573.74,25.06 L574.30,25.05 L574.87,25.04 L575.43,25.03 L576.00,25.02 L576.56,25.01 L577.12,25.00 L577.69,24.99 L578.25,24.98 L578.82,24.97 L579.38,24.96 L579.95,24.95 L580.51,24.94 L581.07,24.93 L581.64,24.92 L582.20,24.91 L582.77,24.91 L583.33,24.90 L583.89,24.89 L584.46,24.88 L585.02,24.87 L585.59,24.86 L586.15,24.85 L586.72,24.85 L587.28,24.84 L587.84,24.83 L588.41,24.82 L588.97,24.81 L589.54,24.81 L590.10,24.80 L590.66,24.79 L591.23,24.78 L591.79,24.78 L592.36,24.77 L592.92,24.76 L593.48,24.75 L594.05,24.75 L594.61,24.74 L595.18,24.73 L595.74,24.73 L596.31,24.72 L596.87,24.71 L597.43,24.71 L598.00,24.70 L598.56,24.69 L599.13,24.69 L599.69,24.68 L600.25,24.67 L600.82,24.67 L601.38,24.66 L601.95,24.66 L602.51,24.65 L603.08,24.64 L603.64,24.64 L604.20,24.63 L604.77,24.63 L605.33,24.62 L605.90,24.61 L606.46,24.61 L607.02,24.60 L607.59,24.60 L608.15,24.59 L608.72,24.59 L609.28,24.58 L609.85,24.58 L610.41,24.57 L610.97,24.57 L611.54,24.56 L612.10,24.56 L612.67,24.55 L613.23,24.55 L613.79,24.54 L614.36,24.54 L614.92,24.53 L615.49,24.53 L616.05,24.52 L616.62,24.52 L617.18,24.52 L617.74,24.51 L618.31,24.51 L618.87,24.50 L619.44,24.50 L620.00,24.49" style="stroke-width: 3; stroke: rgb(74, 144, 226); stroke-opacity: 1;"/></g></g><g class="test-xtl" style="font-family: &quot;Open Sans&quot;, verdana, arial, sans-serif;"><text text-anchor="middle" font-size="11" dominant-baseline="hanging" stroke="none" fill="rgb(50,50,50)" fill-opacity="1" x="12.202092334405643" y="220.12571925333452">-6</text><text text-anchor="middle" font-size="11" dominant-baseline="hanging" stroke="none" fill="rgb(50,50,50)" fill-opacity="1" x="61.60209233440565" y="220.12571925333452">-5</text><text text-anchor="middle" font-size="11" dominant-baseline="hanging" stroke="none" fill="rgb(50,50,50)" fill-opacity="1" x="111.00209233440565" y="220.12571925333452">-4</text><text text-anchor="middle" font-size="11" dominant-baseline="hanging" stroke="none" fill="rgb(50,50,50)" fill-opacity="1" x="160.40209233440564" y="220.12571925333452">-3</text><text text-anchor="middle" font-size="11" dominant-baseline="hanging" stroke="none" fill="rgb(50,50,50)" fill-opacity="1" x="209.80209233440567" y="220.12571925333452">-2</text><text text-anchor="middle" font-size="11" dominant-baseline="hanging" stroke="none" fill="rgb(50,50,50)" fill-opacity="1" x="259.2020923344057" y="220.12571925333452">-1</text><text text-anchor="middle" font-size="11" dominant-baseline="hanging" stroke="none" fill="rgb(50,50,50)" fill-opacity="1" x="361.1370923344056" y="220.12571925333452">1</text><text text-anchor="middle" font-size="11" dominant-baseline="hanging" stroke="none" fill="rgb(50,50,50)" fill-opacity="1" x="410.5370923344057" y="220.12571925333452">2</text><text text-anchor="middle" font-size="11" dominant-baseline="hanging" stroke="none" fill="rgb(50,50,50)" fill-opacity="1" x="459.9370923344057" y="220.12571925333452">3</text><text text-anchor="middle" font-size="11" dominant-baseline="hanging" stroke="none" fill="rgb(50,50,50)" fill-opacity="1" x="509.3370923344057" y="220.12571925333452">4</text><text text-anchor="middle" font-size="11" dominant-baseline="hanging" stroke="none" fill="rgb(50,50,50)" fill-opacity="1" x="558.7370923344057" y="220.12571925333452">5</text><text text-anchor="middle" font-size="11" dominant-baseline="hanging" stroke="none" fill="rgb(50,50,50)" fill-opacity="1" x="608.1370923344058" y="220.12571925333452">6</text><text text-anchor="middle" font-size="11" dominant-baseline="hanging" stroke="none" fill="rgb(50,50,50)" fill-opacity="1" x="303.7370923344057" y="218.12571925333452">0</text></g><g class="test-ytl" style="font-family: &quot;Open Sans&quot;, verdana, arial, sans-serif;"><text text-anchor="end" dominant-baseline="middle" font-size="11" stroke="none" fill="rgb(50,50,50)" fill-opacity="1" x="303.73709233440565" y="118.62571925333452">0.5</text><text text-anchor="end" dominant-baseline="middle" font-size="11" stroke="none" fill="rgb(50,50,50)" fill-opacity="1" x="303.73709233440565" y="24.125719253334523">1</text></g><rect class="real" x="1" y="1" width="618" height="268" style="fill: transparent; stroke: none;"/></g></g></g><g/></g><g/><g/><g/></svg>
        <svg xmlns="http://www.w3.org/2000/svg" xmlns:xlink="http://www.w3.org/1999/xlink" width="660" height="310" style="width:660px;height:310px;font-family:Asana-Math, Asana;background:#FFF;"><g><g><g><g transform="matrix(1,0,0,1,255.79998779296875,24.600006103515625)"><path transform="matrix(0.018,0,0,-0.018,0,0)" d="M49 63C49 59 50 58 51 54C58 39 173 -22 305 -22C500 -22 549 90 549 199C549 317 463 389 386 414C310 439 186 437 186 528C186 562 203 613 295 613C439 613 456 537 483 537C487 537 490 540 493 548C507 617 511 642 511 653C511 657 511 658 510 660C506 671 419 717 306 717C88 717 60 588 60 509C60 387 161 322 231 305C323 282 339 283 363 271C380 263 423 237 423 184C423 106 365 86 309 86C151 86 102 177 79 177C72 177 67 169 63 147C52 87 49 71 49 63ZM667 626C667 586 690 580 713 580L765 580C774 581 809 579 809 624L809 676C809 716 786 722 763 722L712 722C693 721 667 722 667 676ZM671 50C671 33 670 0 715 0L761 0C806 0 805 33 805 45L805 408C805 434 803 458 756 458L715 458C670 458 671 425 671 413ZM890 -65C890 -83 894 -101 902 -117C945 -206 1079 -206 1140 -206C1193 -206 1247 -204 1297 -185C1366 -159 1389 -112 1389 -63C1389 88 1256 92 1135 92L1049 92C998 92 990 122 990 140C990 145 991 152 993 159C1036 142 1068 139 1108 139C1255 139 1310 205 1310 304C1310 360 1290 389 1286 397L1312 398C1353 398 1374 393 1381 393C1391 393 1399 397 1398 412C1390 461 1391 469 1369 469C1305 469 1250 444 1240 444C1225 444 1203 469 1112 469L1109 469C933 469 907 369 907 303C907 250 926 216 947 192L947 190C931 166 920 139 920 108C920 75 932 50 946 29C897 2 890 -41 890 -65ZM993 -63C993 -14 1034 -17 1050 -17L1148 -17C1238 -17 1286 -27 1286 -67C1286 -94 1264 -134 1145 -134L1141 -134C1063 -134 993 -120 993 -63ZM1036 296L1036 312C1036 372 1050 397 1111 397C1173 397 1182 363 1182 312L1182 296C1182 237 1169 211 1107 211C1042 211 1036 249 1036 296ZM1475 45C1475 6 1498 0 1522 0L1567 0C1605 0 1612 21 1612 45L1612 269C1612 355 1669 396 1722 396C1769 396 1780 372 1780 323L1780 45C1780 20 1787 0 1827 0L1873 0C1918 0 1917 54 1917 54L1917 261C1917 278 1917 296 1922 313C1933 350 1968 396 2027 396C2085 396 2086 357 2086 319L2086 47C2087 31 2084 0 2132 0L2176 0C2215 0 2222 20 2222 45L2222 307C2222 382 2222 469 2074 469C1974 469 1924 414 1908 395C1888 446 1849 469 1769 469C1672 469 1624 417 1606 400L1606 420C1606 463 1578 463 1560 463L1520 463C1502 463 1475 461 1475 419ZM2312 224C2312 36 2428 -11 2557 -11C2680 -11 2800 35 2800 220C2800 465 2638 475 2541 475C2428 475 2312 424 2312 224ZM2449 214L2449 241C2449 310 2447 402 2555 402C2662 402 2662 313 2663 255L2663 228C2662 161 2665 67 2556 67C2452 67 2451 155 2449 214ZM2888 626C2888 586 2911 580 2934 580L2986 580C2995 581 3030 579 3030 624L3030 676C3030 716 3007 722 2984 722L2933 722C2914 721 2888 722 2888 676ZM2892 50C2892 33 2891 0 2936 0L2982 0C3027 0 3026 33 3026 45L3026 408C3026 434 3024 458 2977 458L2936 458C2891 458 2892 425 2892 413ZM3123 239C3123 206 3123 172 3134 130C3162 23 3242 -11 3322 -11C3377 -11 3413 6 3449 32C3458 1 3477 0 3495 0L3541 0C3583 0 3586 27 3586 46L3586 677C3586 698 3583 722 3536 722L3496 722C3457 722 3452 697 3452 678L3452 433C3416 456 3377 469 3327 469C3222 469 3126 417 3123 239ZM3260 221L3260 242C3260 303 3261 396 3371 396C3418 396 3442 371 3449 366L3449 121C3449 91 3404 62 3361 62C3262 62 3260 150 3260 221ZM4106 46C4106 23 4111 0 4152 0L4204 0C4238 0 4248 19 4248 44L4248 298L4487 298C4508 298 4533 300 4533 347C4533 369 4528 393 4489 393L4248 393L4248 590C4343 589 4525 586 4534 586C4578 586 4579 617 4579 631L4579 646C4579 671 4573 691 4534 691L4151 691C4109 691 4106 663 4106 649ZM4654 139C4654 68 4660 -11 4814 -11C4869 -11 4913 -3 4962 44C4962 37 4960 0 5003 0L5050 0C5076 0 5095 8 5095 43L5095 416C5094 451 5075 458 5050 458L5006 458C4994 458 4982 457 4972 449C4961 437 4959 436 4959 406L4959 181C4959 72 4893 50 4854 50C4796 50 4790 67 4790 123C4790 131 4791 139 4791 147L4791 413C4790 430 4791 458 4744 458L4698 458C4653 458 4654 424 4654 414ZM5215 45C5215 6 5239 0 5262 0L5306 0C5352 0 5352 53 5352 53L5352 261C5352 279 5353 297 5358 315C5367 346 5399 396 5461 396C5520 396 5520 355 5520 318L5520 44C5520 19 5527 0 5566 0L5613 0C5654 0 5656 28 5656 44L5656 308C5656 380 5656 469 5508 469C5427 469 5381 435 5346 400L5346 420C5346 463 5318 463 5300 463L5260 463C5241 463 5215 460 5215 418ZM5753 228C5753 52 5852 -11 5991 -11C6057 -11 6109 4 6153 27C6164 33 6173 37 6173 52L6173 60C6167 126 6168 125 6160 130L6155 131C6134 128 6098 67 5994 67C5893 67 5890 160 5890 223L5890 242C5890 296 5891 393 5987 397C6002 397 6035 398 6064 388C6107 373 6127 340 6143 340C6162 340 6167 418 6167 418C6167 426 6165 430 6159 434C6102 465 6062 475 5997 475C5867 475 5753 425 5753 228ZM6227 422C6227 411 6231 385 6271 385L6292 385L6292 152C6292 121 6292 91 6301 61C6318 6 6356 -11 6396 -11C6470 -11 6578 21 6578 47C6578 47 6570 102 6555 102C6542 102 6512 67 6465 67C6437 67 6423 85 6423 159C6423 168 6424 176 6424 185L6424 385L6517 385C6555 386 6560 411 6560 421C6560 430 6555 458 6515 458L6424 458L6424 544C6424 568 6414 589 6379 589L6343 589C6326 589 6295 588 6295 544L6295 458L6271 458C6231 458 6227 433 6227 422ZM6666 626C6666 586 6689 580 6712 580L6764 580C6773 581 6808 579 6808 624L6808 676C6808 716 6785 722 6762 722L6711 722C6692 721 6666 722 6666 676ZM6670 50C6670 33 6669 0 6714 0L6760 0C6805 0 6804 33 6804 45L6804 408C6804 434 6802 458 6755 458L6714 458C6669 458 6670 425 6670 413ZM6895 224C6895 36 7011 -11 7140 -11C7263 -11 7383 35 7383 220C7383 465 7221 475 7124 475C7011 475 6895 424 6895 224ZM7032 214L7032 241C7032 310 7030 402 7138 402C7245 402 7245 313 7246 255L7246 228C7245 161 7248 67 7139 67C7035 67 7034 155 7032 214ZM7474 45C7474 6 7498 0 7521 0L7565 0C7611 0 7611 53 7611 53L7611 261C7611 279 7612 297 7617 315C7626 346 7658 396 7720 396C7779 396 7779 355 7779 318L7779 44C7779 19 7786 0 7825 0L7872 0C7913 0 7915 28 7915 44L7915 308C7915 380 7915 469 7767 469C7686 469 7640 435 7605 400L7605 420C7605 463 7577 463 7559 463L7519 463C7500 463 7474 460 7474 418Z" stroke="rgb(0,0,0)" stroke-opacity="1" stroke-width="8" fill="rgb(0,0,0)" fill-opacity="1"></path></g></g></g></g><g><g><g><g><g><g><g transform="matrix(1,0,0,1,74.67498779296875,96.4)"><path transform="matrix(0.020399999999999998,0,0,-0.020399999999999998,0,0)" d="M418 -3L418 27L366 30C311 33 301 44 301 96L301 700L60 598L67 548L217 614L217 96C217 44 206 33 152 30L96 27L96 -3C250 0 250 0 261 0C292 0 402 -3 418 -3Z" stroke="rgb(0,0,0)" stroke-opacity="1" stroke-width="24" fill="rgb(0,0,0)" fill-opacity="1"></path></g></g></g></g><g><g><g><g transform="matrix(1,0,0,1,49.8375244140625,129.26248779296876)"><path transform="matrix(0.020399999999999998,0,0,-0.020399999999999998,0,0)" d="M418 -3L418 27L366 30C311 33 301 44 301 96L301 700L60 598L67 548L217 614L217 96C217 44 206 33 152 30L96 27L96 -3C250 0 250 0 261 0C292 0 402 -3 418 -3Z" stroke="rgb(0,0,0)" stroke-opacity="1" stroke-width="24" fill="rgb(0,0,0)" fill-opacity="1"></path></g></g><g><g transform="matrix(1,0,0,1,64.10003662109375,129.26248779296876)"><path transform="matrix(0.020399999999999998,0,0,-0.020399999999999998,0,0)" d="M604 241L604 300L364 300L364 538L305 538L305 300L65 300L65 241L305 241L305 0L364 0L364 241Z" stroke="rgb(0,0,0)" stroke-opacity="1" stroke-width="24" fill="rgb(0,0,0)" fill-opacity="1"></path></g></g><g><g transform="matrix(1,0,0,1,81.8125,129.26248779296876)"><path transform="matrix(0.020399999999999998,0,0,-0.020399999999999998,0,0)" d="M250 -20C315 -20 405 18 417 36L437 70L424 80C360 42 337 33 294 33C229 33 175 62 147 111C128 144 121 172 119 230C140 227 170 226 204 226C290 226 399 234 446 244C447 258 448 267 448 279C448 394 374 469 262 469C225 469 180 464 140 440C58 392 26 323 26 219C26 25 161 -20 250 -20ZM359 267C335 264 284 261 233 261C190 261 147 264 121 270C121 317 125 339 138 365C159 409 202 436 250 436C283 436 309 423 327 396C349 363 356 334 359 267Z" stroke="rgb(0,0,0)" stroke-opacity="1" stroke-width="24" fill="rgb(0,0,0)" fill-opacity="1"></path></g></g><g><g><g><g><g transform="matrix(1,0,0,1,92.73748779296875,121.23001220703125)"><path transform="matrix(0.01428,0,0,-0.01428,0,0)" d="M555 243L555 299L51 299L51 243ZM1060 432L1060 462C990 460 960 459 922 459L674 462C672 411 671 399 665 330L695 330L707 398C711 419 729 424 803 424L946 424C925 391 908 368 881 334L711 122L621 17L627 -3C731 0 737 0 780 0L1056 -3C1056 20 1058 44 1065 92L1071 139L1041 139L1023 60C1019 42 977 35 881 35L746 35Z" stroke="rgb(0,0,0)" stroke-opacity="1" stroke-width="24" fill="rgb(0,0,0)" fill-opacity="1"></path></g></g></g></g></g></g></g><line style="fill:none;stroke-width:0.8px;stroke:rgb(0, 0, 0);" x1="49.8375244140625" y1="106.17500001192093" x2="109.7125244140625" y2="106.17500001192093"></line></g></g></g><g><g><g><g transform="matrix(1,0,0,1,620.800048828125,241.40003051757813)"><path transform="matrix(0.020399999999999998,0,0,-0.020399999999999998,0,0)" d="M455 432L455 462C385 460 355 459 317 459L69 462C67 411 66 399 60 330L90 330L102 398C106 419 124 424 198 424L341 424C320 391 303 368 276 334L106 122L16 17L22 -3C126 0 132 0 175 0L451 -3C451 20 453 44 460 92L466 139L436 139L418 60C414 42 372 35 276 35L141 35Z" stroke="rgb(0,0,0)" stroke-opacity="1" stroke-width="24" fill="rgb(0,0,0)" fill-opacity="1"></path></g></g></g></g><g><g><g><g transform="matrix(1,0,0,1,315.4000244140625,106.4)"><path transform="matrix(0.020399999999999998,0,0,-0.020399999999999998,0,0)" d="M10 400L47 400C87 400 91 393 91 327L91 -176C91 -239 88 -246 54 -248L8 -251L8 -281C108 -278 108 -278 133 -278C158 -278 158 -278 258 -281L258 -251L212 -248C178 -246 175 -239 175 -176L175 13C223 -10 267 -21 308 -21C459 -21 556 121 556 242C556 252 555 261 554 271C552 401 455 477 354 477C287 477 219 443 175 369L175 465L166 469C115 448 63 434 10 428ZM313 404C407 404 467 338 467 234C467 122 400 39 310 39C255 39 214 57 175 98L175 306C175 337 222 404 313 404Z" stroke="rgb(0,0,0)" stroke-opacity="1" stroke-width="24" fill="rgb(0,0,0)" fill-opacity="1"></path></g></g></g></g></svg>
</svg>
