<svg xmlns="http://www.w3.org/2000/svg" xmlns:xlink="http://www.w3.org/1999/xlink" x="0" y="0" width="661.6000366210938" height="301.6000061035156" style="
        width:661.6000366210938px;
        height:301.6000061035156px;
        background: #FFF;
        fill: none;
">
        
        
        <svg xmlns="http://www.w3.org/2000/svg" class="role-diagram-draw-area"><g class="shapes-region" style="stroke: black; fill: none;"><g class="arrow-line"><path class="connection real" stroke-dasharray="" d="  M250,160 L470,160" style="stroke: rgb(0, 0, 0); stroke-width: 1; fill: none; fill-opacity: 1;"/></g><g class="arrow-line"><path class="connection real" stroke-dasharray="" d="  M360,260 L360,60" style="stroke: rgb(0, 0, 0); stroke-width: 1; fill: none; fill-opacity: 1;"/></g><g class="composite-shape"><path class="real" d=" M400,126.5 C400,124.57 401.57,123 403.5,123 C405.43,123 407,124.57 407,126.5 C407,128.43 405.43,130 403.5,130 C401.57,130 400,128.43 400,126.5 Z" style="stroke-width: 1; stroke: none; stroke-opacity: 1; fill: rgb(255, 0, 0); fill-opacity: 1;"/></g><g class="composite-shape"><path class="real" d=" M443,86.5 C443,84.57 444.57,83 446.5,83 C448.43,83 450,84.57 450,86.5 C450,88.43 448.43,90 446.5,90 C444.57,90 443,88.43 443,86.5 Z" style="stroke-width: 1; stroke: none; stroke-opacity: 1; fill: rgb(255, 0, 0); fill-opacity: 1;"/></g><g class="composite-shape"><path class="real" d=" M413,136.5 C413,134.57 414.57,133 416.5,133 C418.43,133 420,134.57 420,136.5 C420,138.43 418.43,140 416.5,140 C414.57,140 413,138.43 413,136.5 Z" style="stroke-width: 1; stroke: none; stroke-opacity: 1; fill: rgb(255, 0, 0); fill-opacity: 1;"/></g><g class="composite-shape"><path class="real" d=" M413,113.5 C413,111.57 414.57,110 416.5,110 C418.43,110 420,111.57 420,113.5 C420,115.43 418.43,117 416.5,117 C414.57,117 413,115.43 413,113.5 Z" style="stroke-width: 1; stroke: none; stroke-opacity: 1; fill: rgb(74, 144, 226); fill-opacity: 1;"/></g><g class="composite-shape"><path class="real" d=" M373,116.5 C373,114.57 374.57,113 376.5,113 C378.43,113 380,114.57 380,116.5 C380,118.43 378.43,120 376.5,120 C374.57,120 373,118.43 373,116.5 Z" style="stroke-width: 1; stroke: none; stroke-opacity: 1; fill: rgb(74, 144, 226); fill-opacity: 1;"/></g><g class="composite-shape"><path class="real" d=" M393,86.5 C393,84.57 394.57,83 396.5,83 C398.43,83 400,84.57 400,86.5 C400,88.43 398.43,90 396.5,90 C394.57,90 393,88.43 393,86.5 Z" style="stroke-width: 1; stroke: none; stroke-opacity: 1; fill: rgb(255, 0, 0); fill-opacity: 1;"/></g><g class="composite-shape"><path class="real" d=" M393,143.5 C393,141.57 394.57,140 396.5,140 C398.43,140 400,141.57 400,143.5 C400,145.43 398.43,147 396.5,147 C394.57,147 393,145.43 393,143.5 Z" style="stroke-width: 1; stroke: none; stroke-opacity: 1; fill: rgb(74, 144, 226); fill-opacity: 1;"/></g><g class="composite-shape"><path class="real" d=" M480,116.5 C480,114.57 481.57,113 483.5,113 C485.43,113 487,114.57 487,116.5 C487,118.43 485.43,120 483.5,120 C481.57,120 480,118.43 480,116.5 Z" style="stroke-width: 1; stroke: none; stroke-opacity: 1; fill: rgb(255, 0, 0); fill-opacity: 1;"/></g><g class="composite-shape"><path class="real" d=" M443,106.5 C443,104.57 444.57,103 446.5,103 C448.43,103 450,104.57 450,106.5 C450,108.43 448.43,110 446.5,110 C444.57,110 443,108.43 443,106.5 Z" style="stroke-width: 1; stroke: none; stroke-opacity: 1; fill: rgb(255, 0, 0); fill-opacity: 1;"/></g><g class="composite-shape"><path class="real" d=" M470,106.5 C470,104.57 471.57,103 473.5,103 C475.43,103 477,104.57 477,106.5 C477,108.43 475.43,110 473.5,110 C471.57,110 470,108.43 470,106.5 Z" style="stroke-width: 1; stroke: none; stroke-opacity: 1; fill: rgb(255, 0, 0); fill-opacity: 1;"/></g><g class="composite-shape"><path class="real" d=" M363,96.5 C363,94.57 364.57,93 366.5,93 C368.43,93 370,94.57 370,96.5 C370,98.43 368.43,100 366.5,100 C364.57,100 363,98.43 363,96.5 Z" style="stroke-width: 1; stroke: none; stroke-opacity: 1; fill: rgb(255, 0, 0); fill-opacity: 1;"/></g><g class="composite-shape"><path class="real" d=" M370,136.5 C370,134.57 371.57,133 373.5,133 C375.43,133 377,134.57 377,136.5 C377,138.43 375.43,140 373.5,140 C371.57,140 370,138.43 370,136.5 Z" style="stroke-width: 1; stroke: none; stroke-opacity: 1; fill: rgb(74, 144, 226); fill-opacity: 1;"/></g><g class="composite-shape"><path class="real" d=" M343,193.5 C343,191.57 344.57,190 346.5,190 C348.43,190 350,191.57 350,193.5 C350,195.43 348.43,197 346.5,197 C344.57,197 343,195.43 343,193.5 Z" style="stroke-width: 1; stroke: none; stroke-opacity: 1; fill: rgb(255, 0, 28); fill-opacity: 1;"/></g><g class="composite-shape"><path class="real" d=" M280,246.5 C280,244.57 281.57,243 283.5,243 C285.43,243 287,244.57 287,246.5 C287,248.43 285.43,250 283.5,250 C281.57,250 280,248.43 280,246.5 Z" style="stroke-width: 1; stroke: none; stroke-opacity: 1; fill: rgb(74, 144, 226); fill-opacity: 1;"/></g><g class="composite-shape"><path class="real" d=" M310,176.5 C310,174.57 311.57,173 313.5,173 C315.43,173 317,174.57 317,176.5 C317,178.43 315.43,180 313.5,180 C311.57,180 310,178.43 310,176.5 Z" style="stroke-width: 1; stroke: none; stroke-opacity: 1; fill: rgb(255, 0, 28); fill-opacity: 1;"/></g><g class="composite-shape"><path class="real" d=" M333,176.5 C333,174.57 334.57,173 336.5,173 C338.43,173 340,174.57 340,176.5 C340,178.43 338.43,180 336.5,180 C334.57,180 333,178.43 333,176.5 Z" style="stroke-width: 1; stroke: none; stroke-opacity: 1; fill: rgb(255, 0, 28); fill-opacity: 1;"/></g><g class="composite-shape"><path class="real" d=" M293,256.5 C293,254.57 294.57,253 296.5,253 C298.43,253 300,254.57 300,256.5 C300,258.43 298.43,260 296.5,260 C294.57,260 293,258.43 293,256.5 Z" style="stroke-width: 1; stroke: none; stroke-opacity: 1; fill: rgb(74, 144, 226); fill-opacity: 1;"/></g><g class="composite-shape"><path class="real" d=" M350,223.5 C350,221.57 351.57,220 353.5,220 C355.43,220 357,221.57 357,223.5 C357,225.43 355.43,227 353.5,227 C351.57,227 350,225.43 350,223.5 Z" style="stroke-width: 1; stroke: none; stroke-opacity: 1; fill: rgb(74, 144, 226); fill-opacity: 1;"/></g><g class="composite-shape"><path class="real" d=" M463,106.5 C463,104.57 464.57,103 466.5,103 C468.43,103 470,104.57 470,106.5 C470,108.43 468.43,110 466.5,110 C464.57,110 463,108.43 463,106.5 Z" style="stroke-width: 1; stroke: none; stroke-opacity: 1; fill: rgb(74, 144, 226); fill-opacity: 1;"/></g><g class="composite-shape"><path class="real" d=" M350,176.5 C350,174.57 351.57,173 353.5,173 C355.43,173 357,174.57 357,176.5 C357,178.43 355.43,180 353.5,180 C351.57,180 350,178.43 350,176.5 Z" style="stroke-width: 1; stroke: none; stroke-opacity: 1; fill: rgb(74, 144, 226); fill-opacity: 1;"/></g><g class="composite-shape"><path class="real" d=" M353,213.5 C353,211.57 354.57,210 356.5,210 C358.43,210 360,211.57 360,213.5 C360,215.43 358.43,217 356.5,217 C354.57,217 353,215.43 353,213.5 Z" style="stroke-width: 1; stroke: none; stroke-opacity: 1; fill: rgb(74, 144, 226); fill-opacity: 1;"/></g><g class="composite-shape"><path class="real" d=" M260,206.5 C260,204.57 261.57,203 263.5,203 C265.43,203 267,204.57 267,206.5 C267,208.43 265.43,210 263.5,210 C261.57,210 260,208.43 260,206.5 Z" style="stroke-width: 1; stroke: none; stroke-opacity: 1; fill: rgb(74, 144, 226); fill-opacity: 1;"/></g><g class="composite-shape"><path class="real" d=" M280,236.5 C280,234.57 281.57,233 283.5,233 C285.43,233 287,234.57 287,236.5 C287,238.43 285.43,240 283.5,240 C281.57,240 280,238.43 280,236.5 Z" style="stroke-width: 1; stroke: none; stroke-opacity: 1; fill: rgb(74, 144, 226); fill-opacity: 1;"/></g><g class="composite-shape"><path class="real" d=" M313,213.5 C313,211.57 314.57,210 316.5,210 C318.43,210 320,211.57 320,213.5 C320,215.43 318.43,217 316.5,217 C314.57,217 313,215.43 313,213.5 Z" style="stroke-width: 1; stroke: none; stroke-opacity: 1; fill: rgb(74, 144, 226); fill-opacity: 1;"/></g><g class="composite-shape"><path class="real" d=" M263,246.5 C263,244.57 264.57,243 266.5,243 C268.43,243 270,244.57 270,246.5 C270,248.43 268.43,250 266.5,250 C264.57,250 263,248.43 263,246.5 Z" style="stroke-width: 1; stroke: none; stroke-opacity: 1; fill: rgb(74, 144, 226); fill-opacity: 1;"/></g><g class="composite-shape"><path class="real" d=" M293,213.5 C293,211.57 294.57,210 296.5,210 C298.43,210 300,211.57 300,213.5 C300,215.43 298.43,217 296.5,217 C294.57,217 293,215.43 293,213.5 Z" style="stroke-width: 1; stroke: none; stroke-opacity: 1; fill: rgb(74, 144, 226); fill-opacity: 1;"/></g><g class="arrow-line"><path class="connection real" stroke-dasharray="" d="  M290,90 L364.17,164.17 L430,230" style="stroke: rgb(0, 0, 0); stroke-width: 2; fill: none; fill-opacity: 1;"/></g><g class="arrow-line"><path class="connection real" stroke-dasharray="" d="  M360,160 L407.88,112.12" style="stroke: rgb(0, 0, 0); stroke-width: 2; fill: none; fill-opacity: 1;"/><g stroke="#000" transform="matrix(-0.7071067811865479,0.7071067811865471,-0.7071067811865471,-0.7071067811865479,410,110)" style="stroke: rgb(0, 0, 0); stroke-width: 2;"><path d=" M14.21,-4.28 Q6.45,-0.59 0,0 Q6.45,0.59 14.21,4.28"/></g></g><g class="composite-shape"><path class="real" d=" M430,126.5 C430,124.57 431.57,123 433.5,123 C435.43,123 437,124.57 437,126.5 C437,128.43 435.43,130 433.5,130 C431.57,130 430,128.43 430,126.5 Z" style="stroke-width: 1; stroke: none; stroke-opacity: 1; fill: rgb(255, 0, 0); fill-opacity: 1;"/></g><g class="composite-shape"><path class="real" d=" M463,143.5 C463,141.57 464.57,140 466.5,140 C468.43,140 470,141.57 470,143.5 C470,145.43 468.43,147 466.5,147 C464.57,147 463,145.43 463,143.5 Z" style="stroke-width: 1; stroke: none; stroke-opacity: 1; fill: rgb(255, 0, 0); fill-opacity: 1;"/></g><g class="composite-shape"><path class="real" d=" M446,133.5 C446,131.57 447.57,130 449.5,130 C451.43,130 453,131.57 453,133.5 C453,135.43 451.43,137 449.5,137 C447.57,137 446,135.43 446,133.5 Z" style="stroke-width: 1; stroke: none; stroke-opacity: 1; fill: rgb(255, 0, 0); fill-opacity: 1;"/></g><g class="composite-shape"><path class="real" d=" M453,113.5 C453,111.57 454.57,110 456.5,110 C458.43,110 460,111.57 460,113.5 C460,115.43 458.43,117 456.5,117 C454.57,117 453,115.43 453,113.5 Z" style="stroke-width: 1; stroke: none; stroke-opacity: 1; fill: rgb(255, 0, 0); fill-opacity: 1;"/></g><g class="composite-shape"><path class="real" d=" M303,223.5 C303,221.57 304.57,220 306.5,220 C308.43,220 310,221.57 310,223.5 C310,225.43 308.43,227 306.5,227 C304.57,227 303,225.43 303,223.5 Z" style="stroke-width: 1; stroke: none; stroke-opacity: 1; fill: rgb(255, 0, 28); fill-opacity: 1;"/></g><g class="composite-shape"><path class="real" d=" M313,186.5 C313,184.57 314.57,183 316.5,183 C318.43,183 320,184.57 320,186.5 C320,188.43 318.43,190 316.5,190 C314.57,190 313,188.43 313,186.5 Z" style="stroke-width: 1; stroke: none; stroke-opacity: 1; fill: rgb(74, 144, 226); fill-opacity: 1;"/></g><g class="composite-shape"><path class="real" d=" M326,196.5 C326,194.57 327.57,193 329.5,193 C331.43,193 333,194.57 333,196.5 C333,198.43 331.43,200 329.5,200 C327.57,200 326,198.43 326,196.5 Z" style="stroke-width: 1; stroke: none; stroke-opacity: 1; fill: rgb(74, 144, 226); fill-opacity: 1;"/></g><g class="composite-shape"><path class="real" d=" M333,196.5 C333,194.57 334.57,193 336.5,193 C338.43,193 340,194.57 340,196.5 C340,198.43 338.43,200 336.5,200 C334.57,200 333,198.43 333,196.5 Z" style="stroke-width: 1; stroke: none; stroke-opacity: 1; fill: rgb(74, 144, 226); fill-opacity: 1;"/></g><g class="composite-shape"><path class="real" d=" M263,226.5 C263,224.57 264.57,223 266.5,223 C268.43,223 270,224.57 270,226.5 C270,228.43 268.43,230 266.5,230 C264.57,230 263,228.43 263,226.5 Z" style="stroke-width: 1; stroke: none; stroke-opacity: 1; fill: rgb(74, 144, 226); fill-opacity: 1;"/></g><g class="composite-shape"><path class="real" d=" M270,203.5 C270,201.57 271.57,200 273.5,200 C275.43,200 277,201.57 277,203.5 C277,205.43 275.43,207 273.5,207 C271.57,207 270,205.43 270,203.5 Z" style="stroke-width: 1; stroke: none; stroke-opacity: 1; fill: rgb(74, 144, 226); fill-opacity: 1;"/></g><g class="composite-shape"><path class="real" d=" M273,186.5 C273,184.57 274.57,183 276.5,183 C278.43,183 280,184.57 280,186.5 C280,188.43 278.43,190 276.5,190 C274.57,190 273,188.43 273,186.5 Z" style="stroke-width: 1; stroke: none; stroke-opacity: 1; fill: rgb(255, 0, 34); fill-opacity: 1;"/></g><g class="composite-shape"><path class="real" d=" M253,263.5 C253,261.57 254.57,260 256.5,260 C258.43,260 260,261.57 260,263.5 C260,265.43 258.43,267 256.5,267 C254.57,267 253,265.43 253,263.5 Z" style="stroke-width: 1; stroke: none; stroke-opacity: 1; fill: rgb(74, 144, 226); fill-opacity: 1;"/></g><g class="composite-shape"><path class="real" d=" M287,223.5 C287,221.57 288.57,220 290.5,220 C292.43,220 294,221.57 294,223.5 C294,225.43 292.43,227 290.5,227 C288.57,227 287,225.43 287,223.5 Z" style="stroke-width: 1; stroke: none; stroke-opacity: 1; fill: rgb(74, 144, 226); fill-opacity: 1;"/></g><g class="composite-shape"><path class="real" d=" M273,223.5 C273,221.57 274.57,220 276.5,220 C278.43,220 280,221.57 280,223.5 C280,225.43 278.43,227 276.5,227 C274.57,227 273,225.43 273,223.5 Z" style="stroke-width: 1; stroke: none; stroke-opacity: 1; fill: rgb(255, 0, 28); fill-opacity: 1;"/></g><g class="composite-shape"><path class="real" d=" M296,196.5 C296,194.57 297.57,193 299.5,193 C301.43,193 303,194.57 303,196.5 C303,198.43 301.43,200 299.5,200 C297.57,200 296,198.43 296,196.5 Z" style="stroke-width: 1; stroke: none; stroke-opacity: 1; fill: rgb(255, 0, 34); fill-opacity: 1;"/></g><g class="composite-shape"><path class="real" d=" M283,203.5 C283,201.57 284.57,200 286.5,200 C288.43,200 290,201.57 290,203.5 C290,205.43 288.43,207 286.5,207 C284.57,207 283,205.43 283,203.5 Z" style="stroke-width: 1; stroke: none; stroke-opacity: 1; fill: rgb(74, 144, 226); fill-opacity: 1;"/></g><g class="composite-shape"><path class="real" d=" M427,83.5 C427,81.57 428.57,80 430.5,80 C432.43,80 434,81.57 434,83.5 C434,85.43 432.43,87 430.5,87 C428.57,87 427,85.43 427,83.5 Z" style="stroke-width: 1; stroke: none; stroke-opacity: 1; fill: rgb(255, 0, 0); fill-opacity: 1;"/></g><g class="composite-shape"><path class="real" d=" M447,83.5 C447,81.57 448.57,80 450.5,80 C452.43,80 454,81.57 454,83.5 C454,85.43 452.43,87 450.5,87 C448.57,87 447,85.43 447,83.5 Z" style="stroke-width: 1; stroke: none; stroke-opacity: 1; fill: rgb(74, 144, 226); fill-opacity: 1;"/></g><g class="composite-shape"><path class="real" d=" M410,90.5 C410,88.57 411.57,87 413.5,87 C415.43,87 417,88.57 417,90.5 C417,92.43 415.43,94 413.5,94 C411.57,94 410,92.43 410,90.5 Z" style="stroke-width: 1; stroke: none; stroke-opacity: 1; fill: rgb(255, 0, 0); fill-opacity: 1;"/></g><g class="composite-shape"><path class="real" d=" M447,120.5 C447,118.57 448.57,117 450.5,117 C452.43,117 454,118.57 454,120.5 C454,122.43 452.43,124 450.5,124 C448.57,124 447,122.43 447,120.5 Z" style="stroke-width: 1; stroke: none; stroke-opacity: 1; fill: rgb(255, 0, 0); fill-opacity: 1;"/></g><g class="composite-shape"><path class="real" d=" M430,110.5 C430,108.57 431.57,107 433.5,107 C435.43,107 437,108.57 437,110.5 C437,112.43 435.43,114 433.5,114 C431.57,114 430,112.43 430,110.5 Z" style="stroke-width: 1; stroke: none; stroke-opacity: 1; fill: rgb(255, 0, 0); fill-opacity: 1;"/></g><g class="composite-shape"><path class="real" d=" M437,90.5 C437,88.57 438.57,87 440.5,87 C442.43,87 444,88.57 444,90.5 C444,92.43 442.43,94 440.5,94 C438.57,94 437,92.43 437,90.5 Z" style="stroke-width: 1; stroke: none; stroke-opacity: 1; fill: rgb(255, 0, 0); fill-opacity: 1;"/></g><g class="arrow-line"><path class="connection real" stroke-dasharray="" d="  M261.79,172.48 L365.85,159.26 L458.21,147.52" style="stroke: rgb(255, 142, 0); stroke-opacity: 1; stroke-width: 2; fill: none; fill-opacity: 1;"/></g><g class="arrow-line"><path class="connection real" stroke-dasharray="" d="  M360,160 L345.77,93.8" style="stroke: rgb(255, 142, 0); stroke-opacity: 1; stroke-width: 2; fill: none; fill-opacity: 1;"/><g stroke="rgb(255,142,0)" stroke-opacity="1" transform="matrix(0.21013050025193672,0.9776733467083323,-0.9776733467083323,0.21013050025193672,345.14152983377335,90.86805467571918)" style="stroke: rgb(255, 142, 0); stroke-width: 2;"><path d=" M14.21,-4.28 Q6.45,-0.59 0,0 Q6.45,0.59 14.21,4.28"/></g></g><g/></g><g/><g/><g/></svg>
        <svg xmlns="http://www.w3.org/2000/svg" xmlns:xlink="http://www.w3.org/1999/xlink" width="660" height="300" style="width:660px;height:300px;font-family:Asana-Math, Asana;background:#FFF;"><g><g><g><text x="51.79998779296875" y="142.39999389648438" style="white-space:pre;stroke:none;fill:rgb(74,144,226);fill-opacity:1;font-size:13.5px;font-family:Arial, Helvetica, sans-serif;font-weight:400;font-style:normal;dominant-baseline:text-before-edge;text-decoration:none solid rgb(74, 144, 226);">Negative Labels</text></g></g><g><g><g><g><g><g transform="matrix(1,0,0,1,69.17498779296875,174.1999938964844)"><path transform="matrix(0.015300000000000001,0,0,-0.015300000000000001,0,0)" d="M-7 -180C-8 -187 -8 -193 -8 -198C-8 -241 29 -276 74 -276C180 -276 290 -152 349 33L490 473L479 482C450 471 427 465 405 463L370 331C358 284 323 211 290 162C255 111 206 67 184 67C172 67 163 90 164 115L180 322C182 353 184 391 184 419C184 464 177 482 160 482C147 482 133 475 85 442L3 386L14 368L64 398C69 401 80 410 89 410C103 410 111 391 111 358C111 357 111 351 110 343L93 100L92 60C92 18 110 -11 135 -11C172 -11 256 74 331 187L282 16C231 -161 181 -234 111 -234C76 -234 49 -207 49 -172C49 -167 50 -159 51 -150L41 -146Z" stroke="rgb(0,0,0)" stroke-opacity="1" stroke-width="8" fill="rgb(0,0,0)" fill-opacity="1"></path></g></g><g><g><g><g><g transform="matrix(1,0,0,1,77.26251220703125,177.70996948242188)"><path transform="matrix(0.01071,0,0,-0.01071,0,0)" d="M34 388L41 368L73 389C110 412 113 414 120 414C130 414 138 404 138 391C138 384 134 361 130 347L64 107C56 76 51 49 51 30C51 6 62 -9 81 -9C107 -9 143 12 241 85L231 103L205 86C176 67 153 56 144 56C137 56 131 66 131 76C131 86 133 95 138 116L215 420C219 437 221 448 221 456C221 473 212 482 196 482C174 482 137 461 62 408ZM228 712C199 712 170 679 170 645C170 620 185 604 209 604C240 604 264 633 264 671C264 695 249 712 228 712Z" stroke="rgb(0,0,0)" stroke-opacity="1" stroke-width="8" fill="rgb(0,0,0)" fill-opacity="1"></path></g></g></g></g></g><g><g transform="matrix(1,0,0,1,81.1500244140625,174.1999938964844)"><path transform="matrix(0.015300000000000001,0,0,-0.015300000000000001,0,0)" d="" stroke="rgb(0,0,0)" stroke-opacity="1" stroke-width="8" fill="rgb(0,0,0)" fill-opacity="1"></path></g></g><g><g transform="matrix(1,0,0,1,89.54998779296875,174.1999938964844)"><path transform="matrix(0.015300000000000001,0,0,-0.015300000000000001,0,0)" d="M604 347L604 406L65 406L65 347ZM604 134L604 193L65 193L65 134Z" stroke="rgb(0,0,0)" stroke-opacity="1" stroke-width="8" fill="rgb(0,0,0)" fill-opacity="1"></path></g></g><g><g transform="matrix(1,0,0,1,104.35003662109375,174.1999938964844)"><path transform="matrix(0.015300000000000001,0,0,-0.015300000000000001,0,0)" d="" stroke="rgb(0,0,0)" stroke-opacity="1" stroke-width="8" fill="rgb(0,0,0)" fill-opacity="1"></path></g></g><g><g transform="matrix(1,0,0,1,111.2125244140625,174.1999938964844)"><path transform="matrix(0.015300000000000001,0,0,-0.015300000000000001,0,0)" d="M555 243L555 299L51 299L51 243Z" stroke="rgb(0,0,0)" stroke-opacity="1" stroke-width="8" fill="rgb(0,0,0)" fill-opacity="1"></path></g></g><g><g transform="matrix(1,0,0,1,123.51251220703125,174.1999938964844)"><path transform="matrix(0.015300000000000001,0,0,-0.015300000000000001,0,0)" d="M418 -3L418 27L366 30C311 33 301 44 301 96L301 700L60 598L67 548L217 614L217 96C217 44 206 33 152 30L96 27L96 -3C250 0 250 0 261 0C292 0 402 -3 418 -3Z" stroke="rgb(0,0,0)" stroke-opacity="1" stroke-width="8" fill="rgb(0,0,0)" fill-opacity="1"></path></g></g></g></g></g></g></g><g><g><g><text x="51.79998779296875" y="92.39999389648438" style="white-space:pre;stroke:none;fill:rgb(255,0,0);fill-opacity:1;font-size:13.5px;font-family:Arial, Helvetica, sans-serif;font-weight:400;font-style:normal;dominant-baseline:text-before-edge;text-decoration:none solid rgb(255, 0, 0);">Positive Labels</text></g></g><g><g><g><g><g><g transform="matrix(1,0,0,1,65.6875,124.19999389648437)"><path transform="matrix(0.015300000000000001,0,0,-0.015300000000000001,0,0)" d="M-7 -180C-8 -187 -8 -193 -8 -198C-8 -241 29 -276 74 -276C180 -276 290 -152 349 33L490 473L479 482C450 471 427 465 405 463L370 331C358 284 323 211 290 162C255 111 206 67 184 67C172 67 163 90 164 115L180 322C182 353 184 391 184 419C184 464 177 482 160 482C147 482 133 475 85 442L3 386L14 368L64 398C69 401 80 410 89 410C103 410 111 391 111 358C111 357 111 351 110 343L93 100L92 60C92 18 110 -11 135 -11C172 -11 256 74 331 187L282 16C231 -161 181 -234 111 -234C76 -234 49 -207 49 -172C49 -167 50 -159 51 -150L41 -146Z" stroke="rgb(0,0,0)" stroke-opacity="1" stroke-width="8" fill="rgb(0,0,0)" fill-opacity="1"></path></g></g><g><g><g><g><g transform="matrix(1,0,0,1,73.7750244140625,127.71000000000001)"><path transform="matrix(0.01071,0,0,-0.01071,0,0)" d="M34 388L41 368L73 389C110 412 113 414 120 414C130 414 138 404 138 391C138 384 134 361 130 347L64 107C56 76 51 49 51 30C51 6 62 -9 81 -9C107 -9 143 12 241 85L231 103L205 86C176 67 153 56 144 56C137 56 131 66 131 76C131 86 133 95 138 116L215 420C219 437 221 448 221 456C221 473 212 482 196 482C174 482 137 461 62 408ZM228 712C199 712 170 679 170 645C170 620 185 604 209 604C240 604 264 633 264 671C264 695 249 712 228 712Z" stroke="rgb(0,0,0)" stroke-opacity="1" stroke-width="8" fill="rgb(0,0,0)" fill-opacity="1"></path></g></g></g></g></g><g><g transform="matrix(1,0,0,1,77.66253662109375,124.19999389648437)"><path transform="matrix(0.015300000000000001,0,0,-0.015300000000000001,0,0)" d="" stroke="rgb(0,0,0)" stroke-opacity="1" stroke-width="8" fill="rgb(0,0,0)" fill-opacity="1"></path></g></g><g><g transform="matrix(1,0,0,1,86.0625,124.19999389648437)"><path transform="matrix(0.015300000000000001,0,0,-0.015300000000000001,0,0)" d="M604 347L604 406L65 406L65 347ZM604 134L604 193L65 193L65 134Z" stroke="rgb(0,0,0)" stroke-opacity="1" stroke-width="8" fill="rgb(0,0,0)" fill-opacity="1"></path></g></g><g><g transform="matrix(1,0,0,1,100.86248779296875,124.19999389648437)"><path transform="matrix(0.015300000000000001,0,0,-0.015300000000000001,0,0)" d="" stroke="rgb(0,0,0)" stroke-opacity="1" stroke-width="8" fill="rgb(0,0,0)" fill-opacity="1"></path></g></g><g><g transform="matrix(1,0,0,1,107.72503662109375,124.19999389648437)"><path transform="matrix(0.015300000000000001,0,0,-0.015300000000000001,0,0)" d="M604 241L604 300L364 300L364 538L305 538L305 300L65 300L65 241L305 241L305 0L364 0L364 241Z" stroke="rgb(0,0,0)" stroke-opacity="1" stroke-width="8" fill="rgb(0,0,0)" fill-opacity="1"></path></g></g><g><g transform="matrix(1,0,0,1,120.98748779296875,124.19999389648437)"><path transform="matrix(0.015300000000000001,0,0,-0.015300000000000001,0,0)" d="M418 -3L418 27L366 30C311 33 301 44 301 96L301 700L60 598L67 548L217 614L217 96C217 44 206 33 152 30L96 27L96 -3C250 0 250 0 261 0C292 0 402 -3 418 -3Z" stroke="rgb(0,0,0)" stroke-opacity="1" stroke-width="8" fill="rgb(0,0,0)" fill-opacity="1"></path></g></g></g></g></g></g></g><g><g><g><g transform="matrix(1,0,0,1,411.79998779296875,106.3)"><path transform="matrix(0.015300000000000001,0,0,-0.015300000000000001,0,0)" d="M413 469L254 104C251 113 166 397 166 405C166 420 179 428 204 429L244 431L244 459C145 456 145 456 125 456C105 456 105 456 6 459L6 431L34 429C62 427 75 407 100 329L202 -7L249 -7L399 335L535 -7L581 -7L718 342C748 409 760 426 782 429L808 431L808 459C726 456 726 456 710 456C694 456 694 456 612 459L612 431L646 429C671 428 685 416 685 398L580 98L465 388C451 422 444 442 436 469Z" stroke="rgb(0,0,0)" stroke-opacity="1" stroke-width="24" fill="rgb(0,0,0)" fill-opacity="1"></path></g></g><g><g><g><g><g transform="matrix(1,0,0,1,424.98748779296875,109.80997558593751)"><path transform="matrix(0.01071,0,0,-0.01071,0,0)" d="M418 -3L418 27L366 30C311 33 301 44 301 96L301 700L60 598L67 548L217 614L217 96C217 44 206 33 152 30L96 27L96 -3C250 0 250 0 261 0C292 0 402 -3 418 -3Z" stroke="rgb(0,0,0)" stroke-opacity="1" stroke-width="8" fill="rgb(0,0,0)" fill-opacity="1"></path></g></g></g></g></g></g></g><g><g><g><g transform="matrix(1,0,0,1,221.79998779296875,38.5999755859375)"><path transform="matrix(0.018,0,0,-0.018,0,0)" d="M91 46C91 3 116 0 137 0L188 0C230 0 233 26 233 46L233 268L360 268C452 268 641 269 641 479C641 535 626 592 585 632C521 695 425 694 345 694L137 694C92 694 91 664 91 643ZM230 347L230 571L231 608L351 608C436 608 505 597 507 483C507 427 505 347 364 347ZM763 43C763 24 767 0 808 0L851 0C868 0 869 1 879 6C895 19 897 22 897 50L897 225C897 238 897 250 900 263C910 308 948 343 991 358C1024 369 1042 364 1054 373C1058 379 1059 380 1059 391L1059 447C1059 461 1057 469 1039 469L1038 469C1020 469 945 462 892 388C891 438 891 439 882 450C871 461 867 463 842 463L809 463C788 463 763 461 763 418ZM1105 224C1105 36 1221 -11 1350 -11C1473 -11 1593 35 1593 220C1593 465 1431 475 1334 475C1221 475 1105 424 1105 224ZM1242 214L1242 241C1242 310 1240 402 1348 402C1455 402 1455 313 1456 255L1456 228C1455 161 1458 67 1349 67C1245 67 1244 155 1242 214ZM1685 46C1685 21 1692 0 1731 0L1777 0C1802 0 1811 6 1821 27C1850 5 1886 -11 1934 -11C2036 -11 2147 35 2148 224C2148 246 2148 292 2137 334C2112 427 2046 469 1958 469C1901 469 1857 453 1819 429L1819 678C1819 702 1810 722 1775 722L1731 722C1692 722 1685 702 1685 676ZM1822 101L1822 362C1847 383 1873 397 1911 397C2009 397 2011 311 2011 234C2011 165 2016 62 1900 62C1853 62 1833 89 1822 101ZM2216 137C2216 69 2266 -11 2362 -11C2444 -11 2494 23 2516 40C2516 23 2525 0 2557 0L2605 0C2645 0 2650 23 2650 45L2650 308C2650 408 2604 475 2443 475C2380 475 2331 463 2286 443C2264 432 2258 433 2258 417C2258 417 2261 352 2268 340L2272 337L2276 336C2298 337 2328 405 2443 405C2506 405 2514 359 2514 312L2514 291C2425 290 2216 273 2216 137ZM2347 137C2347 215 2453 227 2514 232L2514 154C2514 80 2449 62 2416 62C2373 62 2347 101 2347 137ZM2771 46C2771 21 2778 0 2817 0L2863 0C2888 0 2897 6 2907 27C2936 5 2972 -11 3020 -11C3122 -11 3233 35 3234 224C3234 246 3234 292 3223 334C3198 427 3132 469 3044 469C2987 469 2943 453 2905 429L2905 678C2905 702 2896 722 2861 722L2817 722C2778 722 2771 702 2771 676ZM2908 101L2908 362C2933 383 2959 397 2997 397C3095 397 3097 311 3097 234C3097 165 3102 62 2986 62C2939 62 2919 89 2908 101ZM3328 626C3328 586 3351 580 3374 580L3426 580C3435 581 3470 579 3470 624L3470 676C3470 716 3447 722 3424 722L3373 722C3354 721 3328 722 3328 676ZM3332 50C3332 33 3331 0 3376 0L3422 0C3467 0 3466 33 3466 45L3466 408C3466 434 3464 458 3417 458L3376 458C3331 458 3332 425 3332 413ZM3587 45C3587 5 3609 0 3635 0L3676 0C3719 2 3721 22 3721 49L3721 677C3721 714 3700 722 3675 722L3629 722C3601 722 3587 704 3587 675ZM3838 626C3838 586 3861 580 3884 580L3936 580C3945 581 3980 579 3980 624L3980 676C3980 716 3957 722 3934 722L3883 722C3864 721 3838 722 3838 676ZM3842 50C3842 33 3841 0 3886 0L3932 0C3977 0 3976 33 3976 45L3976 408C3976 434 3974 458 3927 458L3886 458C3841 458 3842 425 3842 413ZM4068 50C4068 47 4069 45 4070 42L4074 37C4099 21 4164 -11 4253 -11C4352 -11 4433 19 4433 140C4433 221 4373 261 4345 275C4283 307 4172 295 4172 354C4172 392 4205 402 4246 402C4343 402 4370 348 4391 348C4396 348 4400 352 4403 363C4409 397 4413 415 4413 426C4413 440 4407 443 4389 450C4352 465 4314 474 4267 475L4241 475C4157 473 4073 446 4073 331C4073 250 4140 210 4177 196C4234 175 4333 183 4333 121C4333 79 4300 68 4255 68C4148 68 4112 143 4094 143C4082 143 4081 127 4080 120C4072 76 4068 59 4068 50ZM4480 422C4480 411 4484 385 4524 385L4545 385L4545 152C4545 121 4545 91 4554 61C4571 6 4609 -11 4649 -11C4723 -11 4831 21 4831 47C4831 47 4823 102 4808 102C4795 102 4765 67 4718 67C4690 67 4676 85 4676 159C4676 168 4677 176 4677 185L4677 385L4770 385C4808 386 4813 411 4813 421C4813 430 4808 458 4768 458L4677 458L4677 544C4677 568 4667 589 4632 589L4596 589C4579 589 4548 588 4548 544L4548 458L4524 458C4484 458 4480 433 4480 422ZM4919 626C4919 586 4942 580 4965 580L5017 580C5026 581 5061 579 5061 624L5061 676C5061 716 5038 722 5015 722L4964 722C4945 721 4919 722 4919 676ZM4923 50C4923 33 4922 0 4967 0L5013 0C5058 0 5057 33 5057 45L5057 408C5057 434 5055 458 5008 458L4967 458C4922 458 4923 425 4923 413ZM5154 228C5154 52 5253 -11 5392 -11C5458 -11 5510 4 5554 27C5565 33 5574 37 5574 52L5574 60C5568 126 5569 125 5561 130L5556 131C5535 128 5499 67 5395 67C5294 67 5291 160 5291 223L5291 242C5291 296 5292 393 5388 397C5403 397 5436 398 5465 388C5508 373 5528 340 5544 340C5563 340 5568 418 5568 418C5568 426 5566 430 5560 434C5503 465 5463 475 5398 475C5268 475 5154 425 5154 228ZM6065 46C6065 3 6090 0 6111 0L6162 0C6204 0 6207 26 6207 46L6207 268L6334 268C6426 268 6615 269 6615 479C6615 535 6600 592 6559 632C6495 695 6399 694 6319 694L6111 694C6066 694 6065 664 6065 643ZM6204 347L6204 571L6205 608L6325 608C6410 608 6479 597 6481 483C6481 427 6479 347 6338 347ZM6676 233C6676 74 6763 -11 6930 -11C6999 -11 7061 9 7103 33C7115 40 7119 44 7119 55C7119 55 7119 114 7108 125L7103 127L7099 127C7079 121 7032 62 6932 62C6830 62 6807 136 6805 214L7081 214C7099 214 7125 216 7125 257C7125 364 7083 475 6916 475C6772 475 6676 401 6676 233ZM6806 279C6812 341 6836 402 6916 402C6994 402 7010 346 7013 279ZM7217 43C7217 24 7221 0 7262 0L7305 0C7322 0 7323 1 7333 6C7349 19 7351 22 7351 50L7351 225C7351 238 7351 250 7354 263C7364 308 7402 343 7445 358C7478 369 7496 364 7508 373C7512 379 7513 380 7513 391L7513 447C7513 461 7511 469 7493 469L7492 469C7474 469 7399 462 7346 388C7345 438 7345 439 7336 450C7325 461 7321 463 7296 463L7263 463C7242 463 7217 461 7217 418ZM7565 228C7565 52 7664 -11 7803 -11C7869 -11 7921 4 7965 27C7976 33 7985 37 7985 52L7985 60C7979 126 7980 125 7972 130L7967 131C7946 128 7910 67 7806 67C7705 67 7702 160 7702 223L7702 242C7702 296 7703 393 7799 397C7814 397 7847 398 7876 388C7919 373 7939 340 7955 340C7974 340 7979 418 7979 418C7979 426 7977 430 7971 434C7914 465 7874 475 7809 475C7679 475 7565 425 7565 228ZM8078 -149C8078 -160 8076 -195 8122 -195L8168 -195C8198 -195 8215 -186 8215 -147L8215 26C8247 3 8279 -11 8327 -11C8429 -11 8540 35 8541 224C8541 265 8539 299 8530 335C8510 412 8458 469 8358 469C8314 469 8261 458 8211 427C8203 457 8182 458 8165 458L8123 458C8083 458 8078 435 8078 412ZM8215 100L8215 358C8232 370 8256 391 8302 391C8383 391 8404 318 8404 242L8404 230C8404 192 8403 145 8378 106C8358 75 8324 62 8291 62C8245 62 8224 91 8215 100ZM8640 233C8640 74 8727 -11 8894 -11C8963 -11 9025 9 9067 33C9079 40 9083 44 9083 55C9083 55 9083 114 9072 125L9067 127L9063 127C9043 121 8996 62 8896 62C8794 62 8771 136 8769 214L9045 214C9063 214 9089 216 9089 257C9089 364 9047 475 8880 475C8736 475 8640 401 8640 233ZM8770 279C8776 341 8800 402 8880 402C8958 402 8974 346 8977 279ZM9142 422C9142 411 9146 385 9186 385L9207 385L9207 152C9207 121 9207 91 9216 61C9233 6 9271 -11 9311 -11C9385 -11 9493 21 9493 47C9493 47 9485 102 9470 102C9457 102 9427 67 9380 67C9352 67 9338 85 9338 159C9338 168 9339 176 9339 185L9339 385L9432 385C9470 386 9475 411 9475 421C9475 430 9470 458 9430 458L9339 458L9339 544C9339 568 9329 589 9294 589L9258 589C9241 589 9210 588 9210 544L9210 458L9186 458C9146 458 9142 433 9142 422ZM9585 43C9585 24 9589 0 9630 0L9673 0C9690 0 9691 1 9701 6C9717 19 9719 22 9719 50L9719 225C9719 238 9719 250 9722 263C9732 308 9770 343 9813 358C9846 369 9864 364 9876 373C9880 379 9881 380 9881 391L9881 447C9881 461 9879 469 9861 469L9860 469C9842 469 9767 462 9714 388C9713 438 9713 439 9704 450C9693 461 9689 463 9664 463L9631 463C9610 463 9585 461 9585 418ZM9927 224C9927 36 10043 -11 10172 -11C10295 -11 10415 35 10415 220C10415 465 10253 475 10156 475C10043 475 9927 424 9927 224ZM10064 214L10064 241C10064 310 10062 402 10170 402C10277 402 10277 313 10278 255L10278 228C10277 161 10280 67 10171 67C10067 67 10066 155 10064 214ZM10506 45C10506 6 10530 0 10553 0L10597 0C10643 0 10643 53 10643 53L10643 261C10643 279 10644 297 10649 315C10658 346 10690 396 10752 396C10811 396 10811 355 10811 318L10811 44C10811 19 10818 0 10857 0L10904 0C10945 0 10947 28 10947 44L10947 308C10947 380 10947 469 10799 469C10718 469 10672 435 10637 400L10637 420C10637 463 10609 463 10591 463L10551 463C10532 463 10506 460 10506 418ZM11417 27C11417 16 11422 0 11455 0L11492 0C11549 0 11547 27 11591 151L11876 151C11921 24 11920 0 11975 0L12028 0C12030 0 12065 -2 12065 27C12065 33 12063 38 12061 44L11854 634C11844 663 11837 694 11786 694L11696 694C11654 694 11642 674 11633 648L11421 46C11419 40 11417 33 11417 27ZM11621 237C11644 303 11720 518 11734 569C11743 535 11754 502 11846 237ZM12168 45C12168 5 12190 0 12216 0L12257 0C12300 2 12302 22 12302 49L12302 677C12302 714 12281 722 12256 722L12210 722C12182 722 12168 704 12168 675ZM12387 -65C12387 -83 12391 -101 12399 -117C12442 -206 12576 -206 12637 -206C12690 -206 12744 -204 12794 -185C12863 -159 12886 -112 12886 -63C12886 88 12753 92 12632 92L12546 92C12495 92 12487 122 12487 140C12487 145 12488 152 12490 159C12533 142 12565 139 12605 139C12752 139 12807 205 12807 304C12807 360 12787 389 12783 397L12809 398C12850 398 12871 393 12878 393C12888 393 12896 397 12895 412C12887 461 12888 469 12866 469C12802 469 12747 444 12737 444C12722 444 12700 469 12609 469L12606 469C12430 469 12404 369 12404 303C12404 250 12423 216 12444 192L12444 190C12428 166 12417 139 12417 108C12417 75 12429 50 12443 29C12394 2 12387 -41 12387 -65ZM12490 -63C12490 -14 12531 -17 12547 -17L12645 -17C12735 -17 12783 -27 12783 -67C12783 -94 12761 -134 12642 -134L12638 -134C12560 -134 12490 -120 12490 -63ZM12533 296L12533 312C12533 372 12547 397 12608 397C12670 397 12679 363 12679 312L12679 296C12679 237 12666 211 12604 211C12539 211 12533 249 12533 296ZM12943 224C12943 36 13059 -11 13188 -11C13311 -11 13431 35 13431 220C13431 465 13269 475 13172 475C13059 475 12943 424 12943 224ZM13080 214L13080 241C13080 310 13078 402 13186 402C13293 402 13293 313 13294 255L13294 228C13293 161 13296 67 13187 67C13083 67 13082 155 13080 214ZM13492 43C13492 24 13496 0 13537 0L13580 0C13597 0 13598 1 13608 6C13624 19 13626 22 13626 50L13626 225C13626 238 13626 250 13629 263C13639 308 13677 343 13720 358C13753 369 13771 364 13783 373C13787 379 13788 380 13788 391L13788 447C13788 461 13786 469 13768 469L13767 469C13749 469 13674 462 13621 388C13620 438 13620 439 13611 450C13600 461 13596 463 13571 463L13538 463C13517 463 13492 461 13492 418ZM13860 626C13860 586 13883 580 13906 580L13958 580C13967 581 14002 579 14002 624L14002 676C14002 716 13979 722 13956 722L13905 722C13886 721 13860 722 13860 676ZM13864 50C13864 33 13863 0 13908 0L13954 0C13999 0 13998 33 13998 45L13998 408C13998 434 13996 458 13949 458L13908 458C13863 458 13864 425 13864 413ZM14080 422C14080 411 14084 385 14124 385L14145 385L14145 152C14145 121 14145 91 14154 61C14171 6 14209 -11 14249 -11C14323 -11 14431 21 14431 47C14431 47 14423 102 14408 102C14395 102 14365 67 14318 67C14290 67 14276 85 14276 159C14276 168 14277 176 14277 185L14277 385L14370 385C14408 386 14413 411 14413 421C14413 430 14408 458 14368 458L14277 458L14277 544C14277 568 14267 589 14232 589L14196 589C14179 589 14148 588 14148 544L14148 458L14124 458C14084 458 14080 433 14080 422ZM14522 44C14522 21 14529 0 14568 0L14612 0C14658 0 14659 26 14659 50L14659 260C14659 272 14658 284 14660 295C14667 342 14704 396 14769 396C14822 396 14827 364 14827 324L14827 44C14827 19 14834 0 14873 0L14920 0C14961 0 14963 28 14963 44L14963 308C14963 380 14963 469 14815 469C14736 469 14690 437 14656 403L14656 677C14656 720 14629 722 14606 722L14566 722C14525 722 14522 695 14522 674ZM15083 45C15083 6 15106 0 15130 0L15175 0C15213 0 15220 21 15220 45L15220 269C15220 355 15277 396 15330 396C15377 396 15388 372 15388 323L15388 45C15388 20 15395 0 15435 0L15481 0C15526 0 15525 54 15525 54L15525 261C15525 278 15525 296 15530 313C15541 350 15576 396 15635 396C15693 396 15694 357 15694 319L15694 47C15695 31 15692 0 15740 0L15784 0C15823 0 15830 20 15830 45L15830 307C15830 382 15830 469 15682 469C15582 469 15532 414 15516 395C15496 446 15457 469 15377 469C15280 469 15232 417 15214 400L15214 420C15214 463 15186 463 15168 463L15128 463C15110 463 15083 461 15083 419Z" stroke="rgb(0,0,0)" stroke-opacity="1" stroke-width="8" fill="rgb(0,0,0)" fill-opacity="1"></path></g></g></g></g><g><g><g><g transform="matrix(1,0,0,1,331.79998779296875,84.3)"><path transform="matrix(0.015300000000000001,0,0,-0.015300000000000001,0,0)" d="M413 469L254 104C251 113 166 397 166 405C166 420 179 428 204 429L244 431L244 459C145 456 145 456 125 456C105 456 105 456 6 459L6 431L34 429C62 427 75 407 100 329L202 -7L249 -7L399 335L535 -7L581 -7L718 342C748 409 760 426 782 429L808 431L808 459C726 456 726 456 710 456C694 456 694 456 612 459L612 431L646 429C671 428 685 416 685 398L580 98L465 388C451 422 444 442 436 469Z" stroke="rgb(255,142,0)" stroke-opacity="1" stroke-width="24" fill="rgb(255,142,0)" fill-opacity="1"></path></g></g><g><g><g><g><g transform="matrix(1,0,0,1,344.98748779296875,87.80997558593751)"><path transform="matrix(0.01071,0,0,-0.01071,0,0)" d="M16 23L16 -3C203 -3 203 0 239 0C275 0 275 -3 468 -3L468 82C353 77 307 81 122 77L304 270C401 373 431 428 431 503C431 618 353 689 226 689C154 689 105 669 56 619L39 483L68 483L81 529C97 587 133 612 200 612C286 612 341 558 341 473C341 398 299 324 186 204Z" stroke="rgb(255,142,0)" stroke-opacity="1" stroke-width="8" fill="rgb(255,142,0)" fill-opacity="1"></path></g></g></g></g></g></g></g></svg>
</svg>
