<svg xmlns="http://www.w3.org/2000/svg" xmlns:xlink="http://www.w3.org/1999/xlink" x="0" y="0" width="661.6000366210938" height="301.6000061035156" style="
        width:661.6000366210938px;
        height:301.6000061035156px;
        background: #FFF;
        fill: none;
">
        
        
        <svg xmlns="http://www.w3.org/2000/svg" class="role-diagram-draw-area"><g class="shapes-region" style="stroke: black; fill: none;"><g class="arrow-line"><path class="connection real" stroke-dasharray="" d="  M220,160 L440,160" style="stroke: rgb(0, 0, 0); stroke-width: 1; fill: none; fill-opacity: 1;"/></g><g class="arrow-line"><path class="connection real" stroke-dasharray="" d="  M330,260 L330,60" style="stroke: rgb(0, 0, 0); stroke-width: 1; fill: none; fill-opacity: 1;"/></g><g class="composite-shape"><path class="real" d=" M287,149.83 C287,147.9 288.57,146.33 290.5,146.33 C292.43,146.33 294,147.9 294,149.83 C294,151.77 292.43,153.33 290.5,153.33 C288.57,153.33 287,151.77 287,149.83 Z" style="stroke-width: 1; stroke: none; stroke-opacity: 1; fill: rgb(74, 144, 226); fill-opacity: 1;"/></g><g class="composite-shape"><path class="real" d=" M326.33,199.83 C326.33,197.9 327.9,196.33 329.83,196.33 C331.77,196.33 333.33,197.9 333.33,199.83 C333.33,201.77 331.77,203.33 329.83,203.33 C327.9,203.33 326.33,201.77 326.33,199.83 Z" style="stroke-width: 1; stroke: none; stroke-opacity: 1; fill: rgb(255, 0, 0); fill-opacity: 1;"/></g><g class="composite-shape"><path class="real" d=" M326.67,120.17 C326.67,118.23 328.23,116.67 330.17,116.67 C332.1,116.67 333.67,118.23 333.67,120.17 C333.67,122.1 332.1,123.67 330.17,123.67 C328.23,123.67 326.67,122.1 326.67,120.17 Z" style="stroke-width: 1; stroke: none; stroke-opacity: 1; fill: rgb(255, 0, 0); fill-opacity: 1;"/></g><g class="arrow-line"><path class="connection real" stroke-dasharray="" d="  M330,160 L387,160" style="stroke: rgb(0, 0, 0); stroke-width: 2; fill: none; fill-opacity: 1;"/><g stroke="#000" transform="matrix(-1,1.2246467991473532e-16,-1.2246467991473532e-16,-1,390,160)" style="stroke: rgb(0, 0, 0); stroke-width: 2;"><path d=" M14.21,-4.28 Q6.45,-0.59 0,0 Q6.45,0.59 14.21,4.28"/></g></g><g class="arrow-line"><path class="connection real" stroke-dasharray="" d="  M330,90 L330,160 L330,230" style="stroke: rgb(0, 0, 0); stroke-width: 2; fill: none; fill-opacity: 1;"/></g><g/></g><g/><g/><g/></svg>
        <svg xmlns="http://www.w3.org/2000/svg" xmlns:xlink="http://www.w3.org/1999/xlink" width="660" height="300" style="width:660px;height:300px;font-family:Asana-Math, Asana;background:#FFF;"><g><g><g><g transform="matrix(1,0,0,1,261.79998779296875,38.60002136230469)"><path transform="matrix(0.018,0,0,-0.018,0,0)" d="M91 240C91 30 231 -22 383 -22C597 -21 671 84 671 243L671 648C671 673 662 694 629 694L585 694C567 694 537 694 537 649L537 243C537 158 531 66 387 64L362 65C245 74 233 150 233 242L233 647C233 692 206 694 187 694L137 694C91 694 91 665 91 644ZM824 -149C824 -160 822 -195 868 -195L914 -195C944 -195 961 -186 961 -147L961 26C993 3 1025 -11 1073 -11C1175 -11 1286 35 1287 224C1287 265 1285 299 1276 335C1256 412 1204 469 1104 469C1060 469 1007 458 957 427C949 457 928 458 911 458L869 458C829 458 824 435 824 412ZM961 100L961 358C978 370 1002 391 1048 391C1129 391 1150 318 1150 242L1150 230C1150 192 1149 145 1124 106C1104 75 1070 62 1037 62C991 62 970 91 961 100ZM1392 239C1392 206 1392 172 1403 130C1431 23 1511 -11 1591 -11C1646 -11 1682 6 1718 32C1727 1 1746 0 1764 0L1810 0C1852 0 1855 27 1855 46L1855 677C1855 698 1852 722 1805 722L1765 722C1726 722 1721 697 1721 678L1721 433C1685 456 1646 469 1596 469C1491 469 1395 417 1392 239ZM1529 221L1529 242C1529 303 1530 396 1640 396C1687 396 1711 371 1718 366L1718 121C1718 91 1673 62 1630 62C1531 62 1529 150 1529 221ZM1947 137C1947 69 1997 -11 2093 -11C2175 -11 2225 23 2247 40C2247 23 2256 0 2288 0L2336 0C2376 0 2381 23 2381 45L2381 308C2381 408 2335 475 2174 475C2111 475 2062 463 2017 443C1995 432 1989 433 1989 417C1989 417 1992 352 1999 340L2003 337L2007 336C2029 337 2059 405 2174 405C2237 405 2245 359 2245 312L2245 291C2156 290 1947 273 1947 137ZM2078 137C2078 215 2184 227 2245 232L2245 154C2245 80 2180 62 2147 62C2104 62 2078 101 2078 137ZM2463 422C2463 411 2467 385 2507 385L2528 385L2528 152C2528 121 2528 91 2537 61C2554 6 2592 -11 2632 -11C2706 -11 2814 21 2814 47C2814 47 2806 102 2791 102C2778 102 2748 67 2701 67C2673 67 2659 85 2659 159C2659 168 2660 176 2660 185L2660 385L2753 385C2791 386 2796 411 2796 421C2796 430 2791 458 2751 458L2660 458L2660 544C2660 568 2650 589 2615 589L2579 589C2562 589 2531 588 2531 544L2531 458L2507 458C2467 458 2463 433 2463 422ZM2902 626C2902 586 2925 580 2948 580L3000 580C3009 581 3044 579 3044 624L3044 676C3044 716 3021 722 2998 722L2947 722C2928 721 2902 722 2902 676ZM2906 50C2906 33 2905 0 2950 0L2996 0C3041 0 3040 33 3040 45L3040 408C3040 434 3038 458 2991 458L2950 458C2905 458 2906 425 2906 413ZM3160 45C3160 6 3184 0 3207 0L3251 0C3297 0 3297 53 3297 53L3297 261C3297 279 3298 297 3303 315C3312 346 3344 396 3406 396C3465 396 3465 355 3465 318L3465 44C3465 19 3472 0 3511 0L3558 0C3599 0 3601 28 3601 44L3601 308C3601 380 3601 469 3453 469C3372 469 3326 435 3291 400L3291 420C3291 463 3263 463 3245 463L3205 463C3186 463 3160 460 3160 418ZM3686 -65C3686 -83 3690 -101 3698 -117C3741 -206 3875 -206 3936 -206C3989 -206 4043 -204 4093 -185C4162 -159 4185 -112 4185 -63C4185 88 4052 92 3931 92L3845 92C3794 92 3786 122 3786 140C3786 145 3787 152 3789 159C3832 142 3864 139 3904 139C4051 139 4106 205 4106 304C4106 360 4086 389 4082 397L4108 398C4149 398 4170 393 4177 393C4187 393 4195 397 4194 412C4186 461 4187 469 4165 469C4101 469 4046 444 4036 444C4021 444 3999 469 3908 469L3905 469C3729 469 3703 369 3703 303C3703 250 3722 216 3743 192L3743 190C3727 166 3716 139 3716 108C3716 75 3728 50 3742 29C3693 2 3686 -41 3686 -65ZM3789 -63C3789 -14 3830 -17 3846 -17L3944 -17C4034 -17 4082 -27 4082 -67C4082 -94 4060 -134 3941 -134L3937 -134C3859 -134 3789 -120 3789 -63ZM3832 296L3832 312C3832 372 3846 397 3907 397C3969 397 3978 363 3978 312L3978 296C3978 237 3965 211 3903 211C3838 211 3832 249 3832 296ZM4604 429C4604 423 4605 417 4607 411L4705 60C4712 34 4717 0 4768 0L4807 0C4842 0 4856 15 4865 47C4891 141 4928 269 4931 321C4934 298 4934 274 4984 94C5002 29 5003 0 5055 0L5134 0C5182 0 5188 31 5195 57L5295 415C5296 420 5298 424 5298 429C5298 438 5294 458 5262 458L5234 458C5219 458 5188 458 5176 414L5092 114L5091 114L5002 429L4993 444C4979 454 4972 458 4949 458L4945 458C4928 458 4900 457 4888 414C4824 186 4815 158 4808 129C4805 138 4755 316 4729 410C4718 448 4702 458 4669 458L4641 458C4631 458 4604 456 4604 429ZM5775 249C5775 53 5841 -112 5949 -214C5984 -247 5986 -250 6006 -250L6036 -250C6051 -250 6054 -243 6054 -238C6054 -207 5912 -130 5912 249C5912 628 6054 711 6054 737C6054 750 6040 750 6033 750L6003 750C5989 750 5982 743 5974 736C5947 711 5775 575 5775 249ZM6164 568C6164 558 6173 550 6198 518C6207 507 6219 487 6230 487C6252 487 6250 616 6360 616C6436 616 6472 551 6472 485C6472 383 6388 305 6317 230C6164 67 6172 80 6172 60L6172 44C6173 29 6172 0 6218 0L6566 0C6588 0 6611 6 6611 45L6611 63C6611 86 6605 108 6566 108L6543 108L6335 106L6301 106L6383 184C6525 315 6611 370 6611 486C6611 612 6519 717 6375 717C6205 717 6164 575 6164 568ZM6730 -237C6730 -242 6733 -250 6751 -250L6777 -250C6797 -249 6793 -252 6834 -214C6938 -115 7008 44 7008 250C7008 529 6882 670 6833 715C6796 749 6795 750 6779 750L6748 750C6734 750 6731 743 6730 740C6729 730 6731 729 6743 714C6789 654 6872 540 6872 252C6872 -129 6730 -210 6730 -237Z" stroke="rgb(0,0,0)" stroke-opacity="1" stroke-width="8" fill="rgb(0,0,0)" fill-opacity="1"></path></g></g></g></g><g><g><g><text x="61.79998779296875" y="71.40000915527344" style="white-space:pre;stroke:none;fill:rgb(255,0,0);fill-opacity:1;font-size:13.5px;font-family:Arial, Helvetica, sans-serif;font-weight:400;font-style:normal;dominant-baseline:text-before-edge;text-decoration:none solid rgb(255, 0, 0);">Positive Labels</text></g></g><g><g><g><g><g><g transform="matrix(1,0,0,1,75.6875,103.20000915527343)"><path transform="matrix(0.015300000000000001,0,0,-0.015300000000000001,0,0)" d="M-7 -180C-8 -187 -8 -193 -8 -198C-8 -241 29 -276 74 -276C180 -276 290 -152 349 33L490 473L479 482C450 471 427 465 405 463L370 331C358 284 323 211 290 162C255 111 206 67 184 67C172 67 163 90 164 115L180 322C182 353 184 391 184 419C184 464 177 482 160 482C147 482 133 475 85 442L3 386L14 368L64 398C69 401 80 410 89 410C103 410 111 391 111 358C111 357 111 351 110 343L93 100L92 60C92 18 110 -11 135 -11C172 -11 256 74 331 187L282 16C231 -161 181 -234 111 -234C76 -234 49 -207 49 -172C49 -167 50 -159 51 -150L41 -146Z" stroke="rgb(0,0,0)" stroke-opacity="1" stroke-width="8" fill="rgb(0,0,0)" fill-opacity="1"></path></g></g><g><g><g><g><g transform="matrix(1,0,0,1,83.7750244140625,106.71001525878907)"><path transform="matrix(0.01071,0,0,-0.01071,0,0)" d="M34 388L41 368L73 389C110 412 113 414 120 414C130 414 138 404 138 391C138 384 134 361 130 347L64 107C56 76 51 49 51 30C51 6 62 -9 81 -9C107 -9 143 12 241 85L231 103L205 86C176 67 153 56 144 56C137 56 131 66 131 76C131 86 133 95 138 116L215 420C219 437 221 448 221 456C221 473 212 482 196 482C174 482 137 461 62 408ZM228 712C199 712 170 679 170 645C170 620 185 604 209 604C240 604 264 633 264 671C264 695 249 712 228 712Z" stroke="rgb(0,0,0)" stroke-opacity="1" stroke-width="8" fill="rgb(0,0,0)" fill-opacity="1"></path></g></g></g></g></g><g><g transform="matrix(1,0,0,1,87.66253662109375,103.20000915527343)"><path transform="matrix(0.015300000000000001,0,0,-0.015300000000000001,0,0)" d="" stroke="rgb(0,0,0)" stroke-opacity="1" stroke-width="8" fill="rgb(0,0,0)" fill-opacity="1"></path></g></g><g><g transform="matrix(1,0,0,1,96.0625,103.20000915527343)"><path transform="matrix(0.015300000000000001,0,0,-0.015300000000000001,0,0)" d="M604 347L604 406L65 406L65 347ZM604 134L604 193L65 193L65 134Z" stroke="rgb(0,0,0)" stroke-opacity="1" stroke-width="8" fill="rgb(0,0,0)" fill-opacity="1"></path></g></g><g><g transform="matrix(1,0,0,1,110.86248779296875,103.20000915527343)"><path transform="matrix(0.015300000000000001,0,0,-0.015300000000000001,0,0)" d="" stroke="rgb(0,0,0)" stroke-opacity="1" stroke-width="8" fill="rgb(0,0,0)" fill-opacity="1"></path></g></g><g><g transform="matrix(1,0,0,1,117.72503662109375,103.20000915527343)"><path transform="matrix(0.015300000000000001,0,0,-0.015300000000000001,0,0)" d="M604 241L604 300L364 300L364 538L305 538L305 300L65 300L65 241L305 241L305 0L364 0L364 241Z" stroke="rgb(0,0,0)" stroke-opacity="1" stroke-width="8" fill="rgb(0,0,0)" fill-opacity="1"></path></g></g><g><g transform="matrix(1,0,0,1,130.98748779296875,103.20000915527343)"><path transform="matrix(0.015300000000000001,0,0,-0.015300000000000001,0,0)" d="M418 -3L418 27L366 30C311 33 301 44 301 96L301 700L60 598L67 548L217 614L217 96C217 44 206 33 152 30L96 27L96 -3C250 0 250 0 261 0C292 0 402 -3 418 -3Z" stroke="rgb(0,0,0)" stroke-opacity="1" stroke-width="8" fill="rgb(0,0,0)" fill-opacity="1"></path></g></g></g></g></g></g></g><g><g><g><text x="61.79998779296875" y="122.40000915527344" style="white-space:pre;stroke:none;fill:rgb(74,144,226);fill-opacity:1;font-size:13.5px;font-family:Arial, Helvetica, sans-serif;font-weight:400;font-style:normal;dominant-baseline:text-before-edge;text-decoration:none solid rgb(74, 144, 226);">Negative Labels</text></g></g><g><g><g><g><g><g transform="matrix(1,0,0,1,79.17498779296875,154.20000915527345)"><path transform="matrix(0.015300000000000001,0,0,-0.015300000000000001,0,0)" d="M-7 -180C-8 -187 -8 -193 -8 -198C-8 -241 29 -276 74 -276C180 -276 290 -152 349 33L490 473L479 482C450 471 427 465 405 463L370 331C358 284 323 211 290 162C255 111 206 67 184 67C172 67 163 90 164 115L180 322C182 353 184 391 184 419C184 464 177 482 160 482C147 482 133 475 85 442L3 386L14 368L64 398C69 401 80 410 89 410C103 410 111 391 111 358C111 357 111 351 110 343L93 100L92 60C92 18 110 -11 135 -11C172 -11 256 74 331 187L282 16C231 -161 181 -234 111 -234C76 -234 49 -207 49 -172C49 -167 50 -159 51 -150L41 -146Z" stroke="rgb(0,0,0)" stroke-opacity="1" stroke-width="8" fill="rgb(0,0,0)" fill-opacity="1"></path></g></g><g><g><g><g><g transform="matrix(1,0,0,1,87.26251220703125,157.71001525878907)"><path transform="matrix(0.01071,0,0,-0.01071,0,0)" d="M34 388L41 368L73 389C110 412 113 414 120 414C130 414 138 404 138 391C138 384 134 361 130 347L64 107C56 76 51 49 51 30C51 6 62 -9 81 -9C107 -9 143 12 241 85L231 103L205 86C176 67 153 56 144 56C137 56 131 66 131 76C131 86 133 95 138 116L215 420C219 437 221 448 221 456C221 473 212 482 196 482C174 482 137 461 62 408ZM228 712C199 712 170 679 170 645C170 620 185 604 209 604C240 604 264 633 264 671C264 695 249 712 228 712Z" stroke="rgb(0,0,0)" stroke-opacity="1" stroke-width="8" fill="rgb(0,0,0)" fill-opacity="1"></path></g></g></g></g></g><g><g transform="matrix(1,0,0,1,91.1500244140625,154.20000915527345)"><path transform="matrix(0.015300000000000001,0,0,-0.015300000000000001,0,0)" d="" stroke="rgb(0,0,0)" stroke-opacity="1" stroke-width="8" fill="rgb(0,0,0)" fill-opacity="1"></path></g></g><g><g transform="matrix(1,0,0,1,99.54998779296875,154.20000915527345)"><path transform="matrix(0.015300000000000001,0,0,-0.015300000000000001,0,0)" d="M604 347L604 406L65 406L65 347ZM604 134L604 193L65 193L65 134Z" stroke="rgb(0,0,0)" stroke-opacity="1" stroke-width="8" fill="rgb(0,0,0)" fill-opacity="1"></path></g></g><g><g transform="matrix(1,0,0,1,114.35003662109375,154.20000915527345)"><path transform="matrix(0.015300000000000001,0,0,-0.015300000000000001,0,0)" d="" stroke="rgb(0,0,0)" stroke-opacity="1" stroke-width="8" fill="rgb(0,0,0)" fill-opacity="1"></path></g></g><g><g transform="matrix(1,0,0,1,121.2125244140625,154.20000915527345)"><path transform="matrix(0.015300000000000001,0,0,-0.015300000000000001,0,0)" d="M555 243L555 299L51 299L51 243Z" stroke="rgb(0,0,0)" stroke-opacity="1" stroke-width="8" fill="rgb(0,0,0)" fill-opacity="1"></path></g></g><g><g transform="matrix(1,0,0,1,133.51251220703125,154.20000915527345)"><path transform="matrix(0.015300000000000001,0,0,-0.015300000000000001,0,0)" d="M418 -3L418 27L366 30C311 33 301 44 301 96L301 700L60 598L67 548L217 614L217 96C217 44 206 33 152 30L96 27L96 -3C250 0 250 0 261 0C292 0 402 -3 418 -3Z" stroke="rgb(0,0,0)" stroke-opacity="1" stroke-width="8" fill="rgb(0,0,0)" fill-opacity="1"></path></g></g></g></g></g></g></g><g><g><g><g><g><g><g transform="matrix(1,0,0,1,266.53753662109375,143.4250030517578)"><path transform="matrix(0.0085,0,0,-0.0085,0,0)" d="M555 243L555 299L51 299L51 243Z" stroke="rgb(0,0,0)" stroke-opacity="1" stroke-width="8" fill="rgb(0,0,0)" fill-opacity="1"></path></g></g><g><g transform="matrix(1,0,0,1,271.67498779296875,143.4250030517578)"><path transform="matrix(0.0085,0,0,-0.0085,0,0)" d="M418 -3L418 27L366 30C311 33 301 44 301 96L301 700L60 598L67 548L217 614L217 96C217 44 206 33 152 30L96 27L96 -3C250 0 250 0 261 0C292 0 402 -3 418 -3Z" stroke="rgb(0,0,0)" stroke-opacity="1" stroke-width="8" fill="rgb(0,0,0)" fill-opacity="1"></path></g></g></g></g><g><g><g><g transform="matrix(1,0,0,1,264.07501220703125,154.4250030517578)"><path transform="matrix(0.0085,0,0,-0.0085,0,0)" d="M418 -3L418 27L366 30C311 33 301 44 301 96L301 700L60 598L67 548L217 614L217 96C217 44 206 33 152 30L96 27L96 -3C250 0 250 0 261 0C292 0 402 -3 418 -3Z" stroke="rgb(0,0,0)" stroke-opacity="1" stroke-width="8" fill="rgb(0,0,0)" fill-opacity="1"></path></g></g><g><g transform="matrix(1,0,0,1,270.01251220703125,154.4250030517578)"><path transform="matrix(0.0085,0,0,-0.0085,0,0)" d="M297 714L242 714L-37 -169L18 -169Z" stroke="rgb(0,0,0)" stroke-opacity="1" stroke-width="8" fill="rgb(0,0,0)" fill-opacity="1"></path></g></g><g><g transform="matrix(1,0,0,1,274.1500244140625,154.4250030517578)"><path transform="matrix(0.0085,0,0,-0.0085,0,0)" d="M16 23L16 -3C203 -3 203 0 239 0C275 0 275 -3 468 -3L468 82C353 77 307 81 122 77L304 270C401 373 431 428 431 503C431 618 353 689 226 689C154 689 105 669 56 619L39 483L68 483L81 529C97 587 133 612 200 612C286 612 341 558 341 473C341 398 299 324 186 204Z" stroke="rgb(0,0,0)" stroke-opacity="1" stroke-width="8" fill="rgb(0,0,0)" fill-opacity="1"></path></g></g></g></g><svg x="258.60003662109375" overflow="visible" y="134.9250030517578" height="22.80000114440918" width="3.825000047683716"><path d=" M 2.99 0.85 l -0.05 -0.05 q -0.54 0.02 -1.08 0.02 q -0.51 0.00 -1.07 -0.02 l -0.08 0.11 q 0.08 0.29 0.08 1.57 v 0.43 h 0.71 v -0.43 q 0.00 -0.65 0.03 -1.07 q 0.03 -0.30 0.60 -0.30 h 0.82 l 0.03 -0.04 v -0.22 z  M 0.79 2.81 v 17.17 h 0.71 v -17.17 z " style="fill:rgb(0,0,0);fill-opacity:1;stroke-width:1px;stroke:none;stroke-opacity:1;"></path><path d=" M 2.99 21.95 l -0.05 0.05 q -0.54 -0.02 -1.08 -0.02 q -0.51 0.00 -1.07 0.02 l -0.08 -0.11 q 0.08 -0.29 0.08 -1.57 v -0.43 h 0.71 v 0.43 q 0.00 0.65 0.03 1.07 q 0.03 0.30 0.60 0.30 h 0.82 l 0.03 0.04 v 0.22 z" style="fill:rgb(0,0,0);fill-opacity:1;stroke-width:1px;stroke:none;stroke-opacity:1;"></path></svg><svg x="280.03753662109375" overflow="visible" y="134.9250030517578" height="22.80000114440918" width="3.825000047683716"><path d=" M 0.79 0.85 l 0.05 -0.05 q 0.54 0.02 1.08 0.02 q 0.51 0.00 1.07 -0.02 l 0.08 0.11 q -0.08 0.29 -0.08 1.57 v 0.43 h -0.71 v -0.43 q 0.00 -0.65 -0.03 -1.07 q -0.03 -0.30 -0.60 -0.30 h -0.82 l -0.03 -0.04 v -0.22 z  M 2.99 2.81 v 17.17 h -0.71 v -17.17 z" style="fill:rgb(0,0,0);fill-opacity:1;stroke-width:1px;stroke:none;stroke-opacity:1;"></path><path d=" M 0.79 21.95 l 0.05 0.05 q 0.54 -0.02 1.08 -0.02 q 0.51 0.00 1.07 0.02 l 0.08 -0.11 q -0.08 -0.29 -0.08 -1.57 v -0.43 h -0.71 v 0.43 q 0.00 0.65 -0.03 1.07 q -0.03 0.30 -0.60 0.30 h -0.82 l -0.03 0.04 v 0.22 z" style="fill:rgb(0,0,0);fill-opacity:1;stroke-width:1px;stroke:none;stroke-opacity:1;"></path></svg><line stroke-dasharray="1" style="fill:none;stroke-width:[object Object];stroke:rgba(0, 0, 0, 0);" x1="261.125" y1="135.3249969482422" x2="281.3374996185303" y2="135.3249969482422"></line><line stroke-dasharray="1" style="fill:none;stroke-width:[object Object];stroke:rgba(0, 0, 0, 0);" x1="261.125" y1="135.3249969482422" x2="261.125" y2="146.3249969482422"></line><line stroke-dasharray="1" style="fill:none;stroke-width:[object Object];stroke:rgba(0, 0, 0, 0);" x1="281.3374996185303" y1="135.3249969482422" x2="281.3374996185303" y2="146.3249969482422"></line><line stroke-dasharray="1" style="fill:none;stroke-width:[object Object];stroke:rgba(0, 0, 0, 0);" x1="261.125" y1="146.3249969482422" x2="281.3374996185303" y2="146.3249969482422"></line><line stroke-dasharray="1" style="fill:none;stroke-width:[object Object];stroke:rgba(0, 0, 0, 0);" x1="261.125" y1="146.3249969482422" x2="281.3374996185303" y2="146.3249969482422"></line><line stroke-dasharray="1" style="fill:none;stroke-width:[object Object];stroke:rgba(0, 0, 0, 0);" x1="261.125" y1="146.3249969482422" x2="261.125" y2="157.3249969482422"></line><line stroke-dasharray="1" style="fill:none;stroke-width:[object Object];stroke:rgba(0, 0, 0, 0);" x1="281.3374996185303" y1="146.3249969482422" x2="281.3374996185303" y2="157.3249969482422"></line><line stroke-dasharray="1" style="fill:none;stroke-width:[object Object];stroke:rgba(0, 0, 0, 0);" x1="261.125" y1="157.3249969482422" x2="281.3374996185303" y2="157.3249969482422"></line></g></g></g><g><g><g><g><g><g><g transform="matrix(1,0,0,1,314.2750244140625,118.62501525878906)"><path transform="matrix(0.0085,0,0,-0.0085,0,0)" d="M263 689C108 689 29 566 29 324C29 207 50 106 85 57C120 8 176 -20 238 -20C389 -20 465 110 465 366C465 585 400 689 263 689ZM245 654C342 654 381 556 381 316C381 103 343 15 251 15C154 15 113 116 113 360C113 571 150 654 245 654Z" stroke="rgb(0,0,0)" stroke-opacity="1" stroke-width="8" fill="rgb(0,0,0)" fill-opacity="1"></path></g></g></g></g><g><g><g><g transform="matrix(1,0,0,1,314.2750244140625,129.62501525878906)"><path transform="matrix(0.0085,0,0,-0.0085,0,0)" d="M418 -3L418 27L366 30C311 33 301 44 301 96L301 700L60 598L67 548L217 614L217 96C217 44 206 33 152 30L96 27L96 -3C250 0 250 0 261 0C292 0 402 -3 418 -3Z" stroke="rgb(0,0,0)" stroke-opacity="1" stroke-width="8" fill="rgb(0,0,0)" fill-opacity="1"></path></g></g></g></g><svg x="308.79998779296875" overflow="visible" y="110.12501525878906" height="22.80000114440918" width="3.825000047683716"><path d=" M 2.99 0.85 l -0.05 -0.05 q -0.54 0.02 -1.08 0.02 q -0.51 0.00 -1.07 -0.02 l -0.08 0.11 q 0.08 0.29 0.08 1.57 v 0.43 h 0.71 v -0.43 q 0.00 -0.65 0.03 -1.07 q 0.03 -0.30 0.60 -0.30 h 0.82 l 0.03 -0.04 v -0.22 z  M 0.79 2.81 v 17.17 h 0.71 v -17.17 z " style="fill:rgb(0,0,0);fill-opacity:1;stroke-width:1px;stroke:none;stroke-opacity:1;"></path><path d=" M 2.99 21.95 l -0.05 0.05 q -0.54 -0.02 -1.08 -0.02 q -0.51 0.00 -1.07 0.02 l -0.08 -0.11 q 0.08 -0.29 0.08 -1.57 v -0.43 h 0.71 v 0.43 q 0.00 0.65 0.03 1.07 q 0.03 0.30 0.60 0.30 h 0.82 l 0.03 0.04 v 0.22 z" style="fill:rgb(0,0,0);fill-opacity:1;stroke-width:1px;stroke:none;stroke-opacity:1;"></path></svg><svg x="320.17498779296875" overflow="visible" y="110.12501525878906" height="22.80000114440918" width="3.825000047683716"><path d=" M 0.79 0.85 l 0.05 -0.05 q 0.54 0.02 1.08 0.02 q 0.51 0.00 1.07 -0.02 l 0.08 0.11 q -0.08 0.29 -0.08 1.57 v 0.43 h -0.71 v -0.43 q 0.00 -0.65 -0.03 -1.07 q -0.03 -0.30 -0.60 -0.30 h -0.82 l -0.03 -0.04 v -0.22 z  M 2.99 2.81 v 17.17 h -0.71 v -17.17 z" style="fill:rgb(0,0,0);fill-opacity:1;stroke-width:1px;stroke:none;stroke-opacity:1;"></path><path d=" M 0.79 21.95 l 0.05 0.05 q 0.54 -0.02 1.08 -0.02 q 0.51 0.00 1.07 0.02 l 0.08 -0.11 q -0.08 -0.29 -0.08 -1.57 v -0.43 h -0.71 v 0.43 q 0.00 0.65 -0.03 1.07 q -0.03 0.30 -0.60 0.30 h -0.82 l -0.03 0.04 v 0.22 z" style="fill:rgb(0,0,0);fill-opacity:1;stroke-width:1px;stroke:none;stroke-opacity:1;"></path></svg><line stroke-dasharray="1" style="fill:none;stroke-width:[object Object];stroke:rgba(0, 0, 0, 0);" x1="311.32501220703125" y1="110.52500915527344" x2="321.47501277923584" y2="110.52500915527344"></line><line stroke-dasharray="1" style="fill:none;stroke-width:[object Object];stroke:rgba(0, 0, 0, 0);" x1="311.32501220703125" y1="110.52500915527344" x2="311.32501220703125" y2="121.52500915527344"></line><line stroke-dasharray="1" style="fill:none;stroke-width:[object Object];stroke:rgba(0, 0, 0, 0);" x1="321.47501277923584" y1="110.52500915527344" x2="321.47501277923584" y2="121.52500915527344"></line><line stroke-dasharray="1" style="fill:none;stroke-width:[object Object];stroke:rgba(0, 0, 0, 0);" x1="311.32501220703125" y1="121.52500915527344" x2="321.47501277923584" y2="121.52500915527344"></line><line stroke-dasharray="1" style="fill:none;stroke-width:[object Object];stroke:rgba(0, 0, 0, 0);" x1="311.32501220703125" y1="121.52500915527344" x2="321.47501277923584" y2="121.52500915527344"></line><line stroke-dasharray="1" style="fill:none;stroke-width:[object Object];stroke:rgba(0, 0, 0, 0);" x1="311.32501220703125" y1="121.52500915527344" x2="311.32501220703125" y2="132.52500915527344"></line><line stroke-dasharray="1" style="fill:none;stroke-width:[object Object];stroke:rgba(0, 0, 0, 0);" x1="321.47501277923584" y1="121.52500915527344" x2="321.47501277923584" y2="132.52500915527344"></line><line stroke-dasharray="1" style="fill:none;stroke-width:[object Object];stroke:rgba(0, 0, 0, 0);" x1="311.32501220703125" y1="132.52500915527344" x2="321.47501277923584" y2="132.52500915527344"></line></g></g></g><g><g><g><g><g><g><g transform="matrix(1,0,0,1,311.5,197.3000030517578)"><path transform="matrix(0.0085,0,0,-0.0085,0,0)" d="M263 689C108 689 29 566 29 324C29 207 50 106 85 57C120 8 176 -20 238 -20C389 -20 465 110 465 366C465 585 400 689 263 689ZM245 654C342 654 381 556 381 316C381 103 343 15 251 15C154 15 113 116 113 360C113 571 150 654 245 654Z" stroke="rgb(0,0,0)" stroke-opacity="1" stroke-width="8" fill="rgb(0,0,0)" fill-opacity="1"></path></g></g></g></g><g><g><g><g transform="matrix(1,0,0,1,308.9375,208.3000030517578)"><path transform="matrix(0.0085,0,0,-0.0085,0,0)" d="M555 243L555 299L51 299L51 243Z" stroke="rgb(0,0,0)" stroke-opacity="1" stroke-width="8" fill="rgb(0,0,0)" fill-opacity="1"></path></g></g><g><g transform="matrix(1,0,0,1,314.07501220703125,208.3000030517578)"><path transform="matrix(0.0085,0,0,-0.0085,0,0)" d="M418 -3L418 27L366 30C311 33 301 44 301 96L301 700L60 598L67 548L217 614L217 96C217 44 206 33 152 30L96 27L96 -3C250 0 250 0 261 0C292 0 402 -3 418 -3Z" stroke="rgb(0,0,0)" stroke-opacity="1" stroke-width="8" fill="rgb(0,0,0)" fill-opacity="1"></path></g></g></g></g><svg x="303.4625244140625" overflow="visible" y="188.8000030517578" height="22.80000114440918" width="3.825000047683716"><path d=" M 2.99 0.85 l -0.05 -0.05 q -0.54 0.02 -1.08 0.02 q -0.51 0.00 -1.07 -0.02 l -0.08 0.11 q 0.08 0.29 0.08 1.57 v 0.43 h 0.71 v -0.43 q 0.00 -0.65 0.03 -1.07 q 0.03 -0.30 0.60 -0.30 h 0.82 l 0.03 -0.04 v -0.22 z  M 0.79 2.81 v 17.17 h 0.71 v -17.17 z " style="fill:rgb(0,0,0);fill-opacity:1;stroke-width:1px;stroke:none;stroke-opacity:1;"></path><path d=" M 2.99 21.95 l -0.05 0.05 q -0.54 -0.02 -1.08 -0.02 q -0.51 0.00 -1.07 0.02 l -0.08 -0.11 q 0.08 -0.29 0.08 -1.57 v -0.43 h 0.71 v 0.43 q 0.00 0.65 0.03 1.07 q 0.03 0.30 0.60 0.30 h 0.82 l 0.03 0.04 v 0.22 z" style="fill:rgb(0,0,0);fill-opacity:1;stroke-width:1px;stroke:none;stroke-opacity:1;"></path></svg><svg x="319.9625244140625" overflow="visible" y="188.8000030517578" height="22.80000114440918" width="3.825000047683716"><path d=" M 0.79 0.85 l 0.05 -0.05 q 0.54 0.02 1.08 0.02 q 0.51 0.00 1.07 -0.02 l 0.08 0.11 q -0.08 0.29 -0.08 1.57 v 0.43 h -0.71 v -0.43 q 0.00 -0.65 -0.03 -1.07 q -0.03 -0.30 -0.60 -0.30 h -0.82 l -0.03 -0.04 v -0.22 z  M 2.99 2.81 v 17.17 h -0.71 v -17.17 z" style="fill:rgb(0,0,0);fill-opacity:1;stroke-width:1px;stroke:none;stroke-opacity:1;"></path><path d=" M 0.79 21.95 l 0.05 0.05 q 0.54 -0.02 1.08 -0.02 q 0.51 0.00 1.07 0.02 l 0.08 -0.11 q -0.08 -0.29 -0.08 -1.57 v -0.43 h -0.71 v 0.43 q 0.00 0.65 -0.03 1.07 q -0.03 0.30 -0.60 0.30 h -0.82 l -0.03 0.04 v 0.22 z" style="fill:rgb(0,0,0);fill-opacity:1;stroke-width:1px;stroke:none;stroke-opacity:1;"></path></svg><line stroke-dasharray="1" style="fill:none;stroke-width:[object Object];stroke:rgba(0, 0, 0, 0);" x1="305.98748779296875" y1="189.1999969482422" x2="321.26248836517334" y2="189.1999969482422"></line><line stroke-dasharray="1" style="fill:none;stroke-width:[object Object];stroke:rgba(0, 0, 0, 0);" x1="305.98748779296875" y1="189.1999969482422" x2="305.98748779296875" y2="200.1999969482422"></line><line stroke-dasharray="1" style="fill:none;stroke-width:[object Object];stroke:rgba(0, 0, 0, 0);" x1="321.26248836517334" y1="189.1999969482422" x2="321.26248836517334" y2="200.1999969482422"></line><line stroke-dasharray="1" style="fill:none;stroke-width:[object Object];stroke:rgba(0, 0, 0, 0);" x1="305.98748779296875" y1="200.1999969482422" x2="321.26248836517334" y2="200.1999969482422"></line><line stroke-dasharray="1" style="fill:none;stroke-width:[object Object];stroke:rgba(0, 0, 0, 0);" x1="305.98748779296875" y1="200.1999969482422" x2="321.26248836517334" y2="200.1999969482422"></line><line stroke-dasharray="1" style="fill:none;stroke-width:[object Object];stroke:rgba(0, 0, 0, 0);" x1="305.98748779296875" y1="200.1999969482422" x2="305.98748779296875" y2="211.1999969482422"></line><line stroke-dasharray="1" style="fill:none;stroke-width:[object Object];stroke:rgba(0, 0, 0, 0);" x1="321.26248836517334" y1="200.1999969482422" x2="321.26248836517334" y2="211.1999969482422"></line><line stroke-dasharray="1" style="fill:none;stroke-width:[object Object];stroke:rgba(0, 0, 0, 0);" x1="305.98748779296875" y1="211.1999969482422" x2="321.26248836517334" y2="211.1999969482422"></line></g></g></g><g><g><g><g transform="matrix(1,0,0,1,364.79998779296875,149.30001525878907)"><path transform="matrix(0.015300000000000001,0,0,-0.015300000000000001,0,0)" d="M413 469L254 104C251 113 166 397 166 405C166 420 179 428 204 429L244 431L244 459C145 456 145 456 125 456C105 456 105 456 6 459L6 431L34 429C62 427 75 407 100 329L202 -7L249 -7L399 335L535 -7L581 -7L718 342C748 409 760 426 782 429L808 431L808 459C726 456 726 456 710 456C694 456 694 456 612 459L612 431L646 429C671 428 685 416 685 398L580 98L465 388C451 422 444 442 436 469Z" stroke="rgb(0,0,0)" stroke-opacity="1" stroke-width="24" fill="rgb(0,0,0)" fill-opacity="1"></path></g></g></g></g></svg>
</svg>
