<svg xmlns="http://www.w3.org/2000/svg" xmlns:xlink="http://www.w3.org/1999/xlink" x="0" y="0" width="661.6000366210938" height="301.6000061035156" style="
        width:661.6000366210938px;
        height:301.6000061035156px;
        background: #FFF;
        fill: none;
">
        
        
        <svg xmlns="http://www.w3.org/2000/svg" class="role-diagram-draw-area"><g class="shapes-region" style="stroke: black; fill: none;"><g class="arrow-line"><path class="connection real" stroke-dasharray="" d="  M220,160 L440,160" style="stroke: rgb(0, 0, 0); stroke-width: 1; fill: none; fill-opacity: 1;"/></g><g class="arrow-line"><path class="connection real" stroke-dasharray="" d="  M330,260 L330,60" style="stroke: rgb(0, 0, 0); stroke-width: 1; fill: none; fill-opacity: 1;"/></g><g class="composite-shape"><path class="real" d=" M363,136.5 C363,134.57 364.57,133 366.5,133 C368.43,133 370,134.57 370,136.5 C370,138.43 368.43,140 366.5,140 C364.57,140 363,138.43 363,136.5 Z" style="stroke-width: 1; stroke: none; stroke-opacity: 1; fill: rgb(255, 0, 0); fill-opacity: 0.7;"/></g><g class="composite-shape"><path class="real" d=" M402,125.5 C402,123.57 403.57,122 405.5,122 C407.43,122 409,123.57 409,125.5 C409,127.43 407.43,129 405.5,129 C403.57,129 402,127.43 402,125.5 Z" style="stroke-width: 1; stroke: none; stroke-opacity: 1; fill: rgb(255, 0, 0); fill-opacity: 0.7;"/></g><g class="composite-shape"><path class="real" d=" M383,136.5 C383,134.57 384.57,133 386.5,133 C388.43,133 390,134.57 390,136.5 C390,138.43 388.43,140 386.5,140 C384.57,140 383,138.43 383,136.5 Z" style="stroke-width: 1; stroke: none; stroke-opacity: 1; fill: rgb(255, 0, 0); fill-opacity: 0.7;"/></g><g class="composite-shape"><path class="real" d=" M373,123.5 C373,121.57 374.57,120 376.5,120 C378.43,120 380,121.57 380,123.5 C380,125.43 378.43,127 376.5,127 C374.57,127 373,125.43 373,123.5 Z" style="stroke-width: 1; stroke: none; stroke-opacity: 1; fill: rgb(255, 0, 0); fill-opacity: 0.7;"/></g><g class="composite-shape"><path class="real" d=" M343,116.5 C343,114.57 344.57,113 346.5,113 C348.43,113 350,114.57 350,116.5 C350,118.43 348.43,120 346.5,120 C344.57,120 343,118.43 343,116.5 Z" style="stroke-width: 1; stroke: none; stroke-opacity: 1; fill: rgb(255, 0, 0); fill-opacity: 0.7;"/></g><g class="composite-shape"><path class="real" d=" M370,93.5 C370,91.57 371.57,90 373.5,90 C375.43,90 377,91.57 377,93.5 C377,95.43 375.43,97 373.5,97 C371.57,97 370,95.43 370,93.5 Z" style="stroke-width: 1; stroke: none; stroke-opacity: 1; fill: rgb(255, 0, 0); fill-opacity: 0.7;"/></g><g class="composite-shape"><path class="real" d=" M390,93.5 C390,91.57 391.57,90 393.5,90 C395.43,90 397,91.57 397,93.5 C397,95.43 395.43,97 393.5,97 C391.57,97 390,95.43 390,93.5 Z" style="stroke-width: 1; stroke: none; stroke-opacity: 1; fill: rgb(255, 0, 0); fill-opacity: 0.7;"/></g><g class="composite-shape"><path class="real" d=" M363,106.5 C363,104.57 364.57,103 366.5,103 C368.43,103 370,104.57 370,106.5 C370,108.43 368.43,110 366.5,110 C364.57,110 363,108.43 363,106.5 Z" style="stroke-width: 1; stroke: none; stroke-opacity: 1; fill: rgb(255, 0, 0); fill-opacity: 0.7;"/></g><g class="composite-shape"><path class="real" d=" M403,173.5 C403,171.57 404.57,170 406.5,170 C408.43,170 410,171.57 410,173.5 C410,175.43 408.43,177 406.5,177 C404.57,177 403,175.43 403,173.5 Z" style="stroke-width: 1; stroke: none; stroke-opacity: 1; fill: rgb(255, 0, 0); fill-opacity: 0.7;"/></g><g class="composite-shape"><path class="real" d=" M333,96.5 C333,94.57 334.57,93 336.5,93 C338.43,93 340,94.57 340,96.5 C340,98.43 338.43,100 336.5,100 C334.57,100 333,98.43 333,96.5 Z" style="stroke-width: 1; stroke: none; stroke-opacity: 1; fill: rgb(255, 0, 0); fill-opacity: 0.7;"/></g><g class="composite-shape"><path class="real" d=" M303,176.5 C303,174.57 304.57,173 306.5,173 C308.43,173 310,174.57 310,176.5 C310,178.43 308.43,180 306.5,180 C304.57,180 303,178.43 303,176.5 Z" style="stroke-width: 1; stroke: none; stroke-opacity: 1; fill: rgb(74, 144, 226); fill-opacity: 0.7;"/></g><g class="composite-shape"><path class="real" d=" M313,233.5 C313,231.57 314.57,230 316.5,230 C318.43,230 320,231.57 320,233.5 C320,235.43 318.43,237 316.5,237 C314.57,237 313,235.43 313,233.5 Z" style="stroke-width: 1; stroke: none; stroke-opacity: 1; fill: rgb(74, 144, 226); fill-opacity: 0.7;"/></g><g class="composite-shape"><path class="real" d=" M253,233.5 C253,231.57 254.57,230 256.5,230 C258.43,230 260,231.57 260,233.5 C260,235.43 258.43,237 256.5,237 C254.57,237 253,235.43 253,233.5 Z" style="stroke-width: 1; stroke: none; stroke-opacity: 1; fill: rgb(74, 144, 226); fill-opacity: 0.7;"/></g><g class="composite-shape"><path class="real" d=" M280,176.5 C280,174.57 281.57,173 283.5,173 C285.43,173 287,174.57 287,176.5 C287,178.43 285.43,180 283.5,180 C281.57,180 280,178.43 280,176.5 Z" style="stroke-width: 1; stroke: none; stroke-opacity: 1; fill: rgb(74, 144, 226); fill-opacity: 0.7;"/></g><g class="composite-shape"><path class="real" d=" M253,186.5 C253,184.57 254.57,183 256.5,183 C258.43,183 260,184.57 260,186.5 C260,188.43 258.43,190 256.5,190 C254.57,190 253,188.43 253,186.5 Z" style="stroke-width: 1; stroke: none; stroke-opacity: 1; fill: rgb(74, 144, 226); fill-opacity: 0.7;"/></g><g class="composite-shape"><path class="real" d=" M270,203.5 C270,201.57 271.57,200 273.5,200 C275.43,200 277,201.57 277,203.5 C277,205.43 275.43,207 273.5,207 C271.57,207 270,205.43 270,203.5 Z" style="stroke-width: 1; stroke: none; stroke-opacity: 1; fill: rgb(74, 144, 226); fill-opacity: 0.7;"/></g><g class="composite-shape"><path class="real" d=" M293,246.5 C293,244.57 294.57,243 296.5,243 C298.43,243 300,244.57 300,246.5 C300,248.43 298.43,250 296.5,250 C294.57,250 293,248.43 293,246.5 Z" style="stroke-width: 1; stroke: none; stroke-opacity: 1; fill: rgb(74, 144, 226); fill-opacity: 0.7;"/></g><g class="composite-shape"><path class="real" d=" M313,173.5 C313,171.57 314.57,170 316.5,170 C318.43,170 320,171.57 320,173.5 C320,175.43 318.43,177 316.5,177 C314.57,177 313,175.43 313,173.5 Z" style="stroke-width: 1; stroke: none; stroke-opacity: 1; fill: rgb(74, 144, 226); fill-opacity: 0.7;"/></g><g class="composite-shape"><path class="real" d=" M280,196.5 C280,194.57 281.57,193 283.5,193 C285.43,193 287,194.57 287,196.5 C287,198.43 285.43,200 283.5,200 C281.57,200 280,198.43 280,196.5 Z" style="stroke-width: 1; stroke: none; stroke-opacity: 1; fill: rgb(74, 144, 226); fill-opacity: 0.7;"/></g><g class="composite-shape"><path class="real" d=" M323,213.5 C323,211.57 324.57,210 326.5,210 C328.43,210 330,211.57 330,213.5 C330,215.43 328.43,217 326.5,217 C324.57,217 323,215.43 323,213.5 Z" style="stroke-width: 1; stroke: none; stroke-opacity: 1; fill: rgb(74, 144, 226); fill-opacity: 0.7;"/></g><g class="composite-shape"><path class="real" d=" M313,213.5 C313,211.57 314.57,210 316.5,210 C318.43,210 320,211.57 320,213.5 C320,215.43 318.43,217 316.5,217 C314.57,217 313,215.43 313,213.5 Z" style="stroke-width: 1; stroke: none; stroke-opacity: 1; fill: rgb(74, 144, 226); fill-opacity: 0.7;"/></g><g class="composite-shape"><path class="real" d=" M273,216.5 C273,214.57 274.57,213 276.5,213 C278.43,213 280,214.57 280,216.5 C280,218.43 278.43,220 276.5,220 C274.57,220 273,218.43 273,216.5 Z" style="stroke-width: 1; stroke: none; stroke-opacity: 1; fill: rgb(74, 144, 226); fill-opacity: 0.7;"/></g><g class="composite-shape"><path class="real" d=" M290,213.5 C290,211.57 291.57,210 293.5,210 C295.43,210 297,211.57 297,213.5 C297,215.43 295.43,217 293.5,217 C291.57,217 290,215.43 290,213.5 Z" style="stroke-width: 1; stroke: none; stroke-opacity: 1; fill: rgb(74, 144, 226); fill-opacity: 0.7;"/></g><g class="composite-shape"><path class="real" d=" M287,223.5 C287,221.57 288.57,220 290.5,220 C292.43,220 294,221.57 294,223.5 C294,225.43 292.43,227 290.5,227 C288.57,227 287,225.43 287,223.5 Z" style="stroke-width: 1; stroke: none; stroke-opacity: 1; fill: rgb(74, 144, 226); fill-opacity: 0.7;"/></g><g class="arrow-line"><path class="connection real" stroke-dasharray="" d="  M260,90 L334.17,164.17 L400,230" style="stroke: rgb(0, 0, 0); stroke-opacity: 0.6; stroke-width: 2; fill: rgb(74, 144, 226); fill-opacity: 0.7;"/></g><g class="arrow-line"><path class="connection real" stroke-dasharray="" d="  M330,160 L377.88,112.12" style="stroke: rgb(0, 0, 0); stroke-opacity: 0.6; stroke-width: 2; fill: rgb(74, 144, 226); fill-opacity: 0.7;"/><g stroke="rgb(0,0,0)" stroke-opacity="0.6" transform="matrix(-0.7071067811865479,0.7071067811865471,-0.7071067811865471,-0.7071067811865479,380,110)" style="stroke: rgb(0, 0, 0); stroke-width: 2;"><path d=" M14.21,-4.28 Q6.45,-0.59 0,0 Q6.45,0.59 14.21,4.28"/></g></g><g class="composite-shape"><path class="real" d=" M370,174.5 C370,172.57 371.57,171 373.5,171 C375.43,171 377,172.57 377,174.5 C377,176.43 375.43,178 373.5,178 C371.57,178 370,176.43 370,174.5 Z" style="stroke-width: 1; stroke: none; stroke-opacity: 1; fill: rgb(255, 0, 0); fill-opacity: 0.7;"/></g><g class="composite-shape"><path class="real" d=" M390,191.5 C390,189.57 391.57,188 393.5,188 C395.43,188 397,189.57 397,191.5 C397,193.43 395.43,195 393.5,195 C391.57,195 390,193.43 390,191.5 Z" style="stroke-width: 1; stroke: none; stroke-opacity: 1; fill: rgb(255, 0, 0); fill-opacity: 0.7;"/></g><g class="composite-shape"><path class="real" d=" M363,153.5 C363,151.57 364.57,150 366.5,150 C368.43,150 370,151.57 370,153.5 C370,155.43 368.43,157 366.5,157 C364.57,157 363,155.43 363,153.5 Z" style="stroke-width: 1; stroke: none; stroke-opacity: 1; fill: rgb(255, 0, 0); fill-opacity: 0.7;"/></g><g class="composite-shape"><path class="real" d=" M390,173.5 C390,171.57 391.57,170 393.5,170 C395.43,170 397,171.57 397,173.5 C397,175.43 395.43,177 393.5,177 C391.57,177 390,175.43 390,173.5 Z" style="stroke-width: 1; stroke: none; stroke-opacity: 1; fill: rgb(255, 0, 0); fill-opacity: 0.7;"/></g><g class="composite-shape"><path class="real" d=" M380,146.5 C380,144.57 381.57,143 383.5,143 C385.43,143 387,144.57 387,146.5 C387,148.43 385.43,150 383.5,150 C381.57,150 380,148.43 380,146.5 Z" style="stroke-width: 1; stroke: none; stroke-opacity: 1; fill: rgb(255, 0, 0); fill-opacity: 0.7;"/></g><g class="composite-shape"><path class="real" d=" M400,201.5 C400,199.57 401.57,198 403.5,198 C405.43,198 407,199.57 407,201.5 C407,203.43 405.43,205 403.5,205 C401.57,205 400,203.43 400,201.5 Z" style="stroke-width: 1; stroke: none; stroke-opacity: 1; fill: rgb(255, 0, 0); fill-opacity: 0.7;"/></g><g class="composite-shape"><path class="real" d=" M387,184.5 C387,182.57 388.57,181 390.5,181 C392.43,181 394,182.57 394,184.5 C394,186.43 392.43,188 390.5,188 C388.57,188 387,186.43 387,184.5 Z" style="stroke-width: 1; stroke: none; stroke-opacity: 1; fill: rgb(255, 0, 0); fill-opacity: 0.7;"/></g><g class="composite-shape"><path class="real" d=" M290,146.5 C290,144.57 291.57,143 293.5,143 C295.43,143 297,144.57 297,146.5 C297,148.43 295.43,150 293.5,150 C291.57,150 290,148.43 290,146.5 Z" style="stroke-width: 1; stroke: none; stroke-opacity: 1; fill: rgb(74, 144, 226); fill-opacity: 0.7;"/></g><g class="composite-shape"><path class="real" d=" M270.4,127.7 C270.4,125.77 271.97,124.2 273.9,124.2 C275.83,124.2 277.4,125.77 277.4,127.7 C277.4,129.63 275.83,131.2 273.9,131.2 C271.97,131.2 270.4,129.63 270.4,127.7 Z" style="stroke-width: 1; stroke: none; stroke-opacity: 1; fill: rgb(74, 144, 226); fill-opacity: 0.7;"/></g><g class="arrow-line"><path class="connection real" stroke-dasharray="2.25 3.685" d="  M330,160 L276.5,129.2" style="stroke: rgb(0, 0, 0); stroke-width: 2; fill: none; fill-opacity: 1;"/><g stroke="#000" transform="matrix(0.8666356225450133,0.4989415774777818,-0.4989415774777818,0.8666356225450133,273.9,127.69999999999999)" style="stroke: rgb(0, 0, 0); stroke-width: 2;"><path d=" M11.37,-3.42 Q5.16,-0.47 0,0 Q5.16,0.47 11.37,3.42"/></g></g><g class="arrow-line"><path class="connection real" stroke-dasharray="2.25 3.685" d="  M380,110 L326.5,79.2" style="stroke: rgb(0, 0, 0); stroke-width: 2; fill: none; fill-opacity: 1;"/><g stroke="#000" transform="matrix(0.8666356225450133,0.4989415774777818,-0.4989415774777818,0.8666356225450133,323.9,77.69999999999999)" style="stroke: rgb(0, 0, 0); stroke-width: 2;"><path d=" M11.37,-3.42 Q5.16,-0.47 0,0 Q5.16,0.47 11.37,3.42"/></g></g><g class="arrow-line"><path class="connection real" stroke-dasharray="" d="  M330,160 L324.12,80.69" style="stroke: rgb(255, 108, 0); stroke-opacity: 1; stroke-width: 2; fill: none; fill-opacity: 1;"/><g stroke="rgb(255,108,0)" stroke-opacity="1" transform="matrix(0.07393443607558599,0.9972631042820069,-0.9972631042820069,0.07393443607558599,323.9,77.69999999999999)" style="stroke: rgb(255, 108, 0); stroke-width: 2;"><path d=" M8.53,-2.57 Q3.87,-0.35 0,0 Q3.87,0.35 8.53,2.57"/></g></g><g class="arrow-line"><path class="connection real" stroke-dasharray="" d="  M428.93,148.56 L324.78,160.95 L232.33,171.94" style="stroke: rgb(254, 115, 0); stroke-opacity: 1; stroke-width: 2; fill: rgb(74, 144, 226); fill-opacity: 0.7;"/></g><g class="composite-shape"><path class="real" d=" M367.03,185.54 C367.03,172.23 377.82,161.44 391.13,161.44 C404.44,161.44 415.22,172.23 415.22,185.54 C415.22,198.85 404.44,209.63 391.13,209.63 C377.82,209.63 367.03,198.85 367.03,185.54 Z" style="stroke-width: 1; stroke: rgb(0, 0, 0); fill: none; fill-opacity: 1; stroke-dasharray: 1.125, 3.35;"/></g><g class="arrow-line"><path class="connection real" stroke-dasharray="" d="  M410.65,190 C405.8,218.46 429.17,232.48 448.83,239.38" style="stroke: rgb(0, 0, 0); stroke-width: 1; fill: none; fill-opacity: 1;"/><g stroke="#000" transform="matrix(-0.9487657715383926,-0.3159802379218653,0.3159802379218653,-0.9487657715383926,450.6468937565102,240)" style="stroke: rgb(0, 0, 0); stroke-width: 1;"><path d=" M10.93,-3.29 Q4.96,-0.45 0,0 Q4.96,0.45 10.93,3.29"/></g></g><g/></g><g/><g/><g/></svg>
        <svg xmlns="http://www.w3.org/2000/svg" xmlns:xlink="http://www.w3.org/1999/xlink" width="660" height="300" style="width:660px;height:300px;font-family:Asana-Math, Asana;background:#FFF;"><g><g><g><g transform="matrix(1,0,0,1,282.79998779296875,38.59999084472656)"><path transform="matrix(0.018,0,0,-0.018,0,0)" d="M91 240C91 30 231 -22 383 -22C597 -21 671 84 671 243L671 648C671 673 662 694 629 694L585 694C567 694 537 694 537 649L537 243C537 158 531 66 387 64L362 65C245 74 233 150 233 242L233 647C233 692 206 694 187 694L137 694C91 694 91 665 91 644ZM824 -149C824 -160 822 -195 868 -195L914 -195C944 -195 961 -186 961 -147L961 26C993 3 1025 -11 1073 -11C1175 -11 1286 35 1287 224C1287 265 1285 299 1276 335C1256 412 1204 469 1104 469C1060 469 1007 458 957 427C949 457 928 458 911 458L869 458C829 458 824 435 824 412ZM961 100L961 358C978 370 1002 391 1048 391C1129 391 1150 318 1150 242L1150 230C1150 192 1149 145 1124 106C1104 75 1070 62 1037 62C991 62 970 91 961 100ZM1392 239C1392 206 1392 172 1403 130C1431 23 1511 -11 1591 -11C1646 -11 1682 6 1718 32C1727 1 1746 0 1764 0L1810 0C1852 0 1855 27 1855 46L1855 677C1855 698 1852 722 1805 722L1765 722C1726 722 1721 697 1721 678L1721 433C1685 456 1646 469 1596 469C1491 469 1395 417 1392 239ZM1529 221L1529 242C1529 303 1530 396 1640 396C1687 396 1711 371 1718 366L1718 121C1718 91 1673 62 1630 62C1531 62 1529 150 1529 221ZM1947 137C1947 69 1997 -11 2093 -11C2175 -11 2225 23 2247 40C2247 23 2256 0 2288 0L2336 0C2376 0 2381 23 2381 45L2381 308C2381 408 2335 475 2174 475C2111 475 2062 463 2017 443C1995 432 1989 433 1989 417C1989 417 1992 352 1999 340L2003 337L2007 336C2029 337 2059 405 2174 405C2237 405 2245 359 2245 312L2245 291C2156 290 1947 273 1947 137ZM2078 137C2078 215 2184 227 2245 232L2245 154C2245 80 2180 62 2147 62C2104 62 2078 101 2078 137ZM2463 422C2463 411 2467 385 2507 385L2528 385L2528 152C2528 121 2528 91 2537 61C2554 6 2592 -11 2632 -11C2706 -11 2814 21 2814 47C2814 47 2806 102 2791 102C2778 102 2748 67 2701 67C2673 67 2659 85 2659 159C2659 168 2660 176 2660 185L2660 385L2753 385C2791 386 2796 411 2796 421C2796 430 2791 458 2751 458L2660 458L2660 544C2660 568 2650 589 2615 589L2579 589C2562 589 2531 588 2531 544L2531 458L2507 458C2467 458 2463 433 2463 422ZM2902 626C2902 586 2925 580 2948 580L3000 580C3009 581 3044 579 3044 624L3044 676C3044 716 3021 722 2998 722L2947 722C2928 721 2902 722 2902 676ZM2906 50C2906 33 2905 0 2950 0L2996 0C3041 0 3040 33 3040 45L3040 408C3040 434 3038 458 2991 458L2950 458C2905 458 2906 425 2906 413ZM3160 45C3160 6 3184 0 3207 0L3251 0C3297 0 3297 53 3297 53L3297 261C3297 279 3298 297 3303 315C3312 346 3344 396 3406 396C3465 396 3465 355 3465 318L3465 44C3465 19 3472 0 3511 0L3558 0C3599 0 3601 28 3601 44L3601 308C3601 380 3601 469 3453 469C3372 469 3326 435 3291 400L3291 420C3291 463 3263 463 3245 463L3205 463C3186 463 3160 460 3160 418ZM3686 -65C3686 -83 3690 -101 3698 -117C3741 -206 3875 -206 3936 -206C3989 -206 4043 -204 4093 -185C4162 -159 4185 -112 4185 -63C4185 88 4052 92 3931 92L3845 92C3794 92 3786 122 3786 140C3786 145 3787 152 3789 159C3832 142 3864 139 3904 139C4051 139 4106 205 4106 304C4106 360 4086 389 4082 397L4108 398C4149 398 4170 393 4177 393C4187 393 4195 397 4194 412C4186 461 4187 469 4165 469C4101 469 4046 444 4036 444C4021 444 3999 469 3908 469L3905 469C3729 469 3703 369 3703 303C3703 250 3722 216 3743 192L3743 190C3727 166 3716 139 3716 108C3716 75 3728 50 3742 29C3693 2 3686 -41 3686 -65ZM3789 -63C3789 -14 3830 -17 3846 -17L3944 -17C4034 -17 4082 -27 4082 -67C4082 -94 4060 -134 3941 -134L3937 -134C3859 -134 3789 -120 3789 -63ZM3832 296L3832 312C3832 372 3846 397 3907 397C3969 397 3978 363 3978 312L3978 296C3978 237 3965 211 3903 211C3838 211 3832 249 3832 296ZM4604 429C4604 423 4605 417 4607 411L4705 60C4712 34 4717 0 4768 0L4807 0C4842 0 4856 15 4865 47C4891 141 4928 269 4931 321C4934 298 4934 274 4984 94C5002 29 5003 0 5055 0L5134 0C5182 0 5188 31 5195 57L5295 415C5296 420 5298 424 5298 429C5298 438 5294 458 5262 458L5234 458C5219 458 5188 458 5176 414L5092 114L5091 114L5002 429L4993 444C4979 454 4972 458 4949 458L4945 458C4928 458 4900 457 4888 414C4824 186 4815 158 4808 129C4805 138 4755 316 4729 410C4718 448 4702 458 4669 458L4641 458C4631 458 4604 456 4604 429Z" stroke="rgb(0,0,0)" stroke-opacity="1" stroke-width="8" fill="rgb(0,0,0)" fill-opacity="1"></path></g></g></g></g><g><g><g><g transform="matrix(1,0,0,1,261.79998779296875,130.89998474121094)"><path transform="matrix(0.0119,0,0,-0.0119,0,0)" d="M288 254L430 420C436 427 447 431 464 431L478 431L478 459L396 459L272 284L196 400C181 422 170 435 136 469L20 449L25 423L46 421C64 420 86 406 96 392L216 218L67 42C60 33 47 27 37 27L20 27L20 0L106 0L240 192L373 -3C425 0 425 0 434 0C444 0 444 0 496 -3L496 27L471 30C459 31 447 39 436 54Z" stroke="rgb(0,0,0)" stroke-opacity="1" stroke-width="24" fill="rgb(0,0,0)" fill-opacity="1"></path></g></g></g></g><g><g><g><g><g><g><g transform="matrix(1,0,0,1,381.79998779296875,110.89998474121094)"><path transform="matrix(0.0119,0,0,-0.0119,0,0)" d="M167 420C188 420 201 421 226 424C171 350 72 266 72 126C72 44 107 -11 160 -11C224 -11 276 44 350 187C341 143 338 118 338 95C338 32 367 -11 412 -11C546 -11 699 238 699 384C699 441 673 482 637 482C624 482 612 478 604 470L554 423L565 404C574 410 583 413 592 413C619 413 635 390 635 350C635 205 538 39 453 39C424 39 403 79 403 134C403 181 412 247 424 290L476 474L469 482L395 460L366 311C354 249 340 209 311 155C271 80 233 39 203 39C168 39 145 78 145 136C145 255 186 352 285 464L275 482C255 473 242 470 214 470C186 470 144 472 115 475L103 476C97 477 92 477 91 477C79 477 70 475 59 470C45 443 34 407 21 352L43 352L60 394C67 411 87 422 111 422C145 422 128 420 167 420Z" stroke="rgb(0,0,0)" stroke-opacity="1" stroke-width="8" fill="rgb(0,0,0)" fill-opacity="1"></path></g></g><g><g><g><g><g><g><g><text x="390.72503662109375" y="107.07499694824219" style="white-space:pre;stroke:none;fill:rgb(0,0,0);fill-opacity:1;font-size:7.35px;font-family:Arial, Helvetica, sans-serif;font-weight:700;font-style:normal;dominant-baseline:text-before-edge;text-decoration:none solid rgb(0, 0, 0);">old</text></g></g></g></g></g></g></g></g></g></g></g></g><g><g><g><g><g><g><g transform="matrix(1,0,0,1,303,72.0999969482422)"><path transform="matrix(0.0119,0,0,-0.0119,0,0)" d="M167 420C188 420 201 421 226 424C171 350 72 266 72 126C72 44 107 -11 160 -11C224 -11 276 44 350 187C341 143 338 118 338 95C338 32 367 -11 412 -11C546 -11 699 238 699 384C699 441 673 482 637 482C624 482 612 478 604 470L554 423L565 404C574 410 583 413 592 413C619 413 635 390 635 350C635 205 538 39 453 39C424 39 403 79 403 134C403 181 412 247 424 290L476 474L469 482L395 460L366 311C354 249 340 209 311 155C271 80 233 39 203 39C168 39 145 78 145 136C145 255 186 352 285 464L275 482C255 473 242 470 214 470C186 470 144 472 115 475L103 476C97 477 92 477 91 477C79 477 70 475 59 470C45 443 34 407 21 352L43 352L60 394C67 411 87 422 111 422C145 422 128 420 167 420Z" stroke="rgb(252,109,8)" stroke-opacity="1" stroke-width="8" fill="rgb(252,109,8)" fill-opacity="1"></path></g></g><g><g><g><g><g><g><g><text x="311.92498779296875" y="68.27499389648438" style="white-space:pre;stroke:none;fill:rgb(252,109,8);fill-opacity:1;font-size:7.35px;font-family:Arial, Helvetica, sans-serif;font-weight:700;font-style:normal;dominant-baseline:text-before-edge;text-decoration:none solid rgb(252, 109, 8);">new</text></g></g></g></g></g></g></g></g></g></g></g></g><g><g><g><g transform="matrix(1,0,0,1,451.79998779296875,66.79998779296875)"><path transform="matrix(0.017,0,0,-0.017,0,0)" d="M167 420C188 420 201 421 226 424C171 350 72 266 72 126C72 44 107 -11 160 -11C224 -11 276 44 350 187C341 143 338 118 338 95C338 32 367 -11 412 -11C546 -11 699 238 699 384C699 441 673 482 637 482C624 482 612 478 604 470L554 423L565 404C574 410 583 413 592 413C619 413 635 390 635 350C635 205 538 39 453 39C424 39 403 79 403 134C403 181 412 247 424 290L476 474L469 482L395 460L366 311C354 249 340 209 311 155C271 80 233 39 203 39C168 39 145 78 145 136C145 255 186 352 285 464L275 482C255 473 242 470 214 470C186 470 144 472 115 475L103 476C97 477 92 477 91 477C79 477 70 475 59 470C45 443 34 407 21 352L43 352L60 394C67 411 87 422 111 422C145 422 128 420 167 420Z" stroke="rgb(0,0,0)" stroke-opacity="1" stroke-width="8" fill="rgb(0,0,0)" fill-opacity="1"></path></g></g><g><g><g><g><g><g><g><text x="464.5625" y="59.51249694824219" style="white-space:pre;stroke:none;fill:rgb(0,0,0);fill-opacity:1;font-size:10.5px;font-family:Arial, Helvetica, sans-serif;font-weight:400;font-style:normal;dominant-baseline:text-before-edge;text-decoration:none solid rgb(0, 0, 0);">new</text></g></g></g></g></g></g></g><g><g transform="matrix(1,0,0,1,484.8250732421875,66.79998779296875)"><path transform="matrix(0.017,0,0,-0.017,0,0)" d="" stroke="rgb(0,0,0)" stroke-opacity="1" stroke-width="8" fill="rgb(0,0,0)" fill-opacity="1"></path></g></g><g><g transform="matrix(1,0,0,1,494.1624755859375,66.79998779296875)"><path transform="matrix(0.017,0,0,-0.017,0,0)" d="M604 347L604 406L65 406L65 347ZM604 134L604 193L65 193L65 134Z" stroke="rgb(0,0,0)" stroke-opacity="1" stroke-width="8" fill="rgb(0,0,0)" fill-opacity="1"></path></g></g><g><g transform="matrix(1,0,0,1,510.625,66.79998779296875)"><path transform="matrix(0.017,0,0,-0.017,0,0)" d="M416 420C437 420 450 421 475 424C420 350 321 266 321 126C321 44 356 -11 409 -11C473 -11 525 44 599 187C590 143 587 118 587 95C587 32 616 -11 661 -11C795 -11 948 238 948 384C948 441 922 482 886 482C873 482 861 478 853 470L803 423L814 404C823 410 832 413 841 413C868 413 884 390 884 350C884 205 787 39 702 39C673 39 652 79 652 134C652 181 661 247 673 290L725 474L718 482L644 460L615 311C603 249 589 209 560 155C520 80 482 39 452 39C417 39 394 78 394 136C394 255 435 352 534 464L524 482C504 473 491 470 463 470C435 470 393 472 364 475L352 476C346 477 341 477 340 477C328 477 319 475 308 470C294 443 283 407 270 352L292 352L309 394C316 411 336 422 360 422C394 422 377 420 416 420Z" stroke="rgb(0,0,0)" stroke-opacity="1" stroke-width="8" fill="rgb(0,0,0)" fill-opacity="1"></path></g></g><g><g><g><g><g><g><g><text x="527.625" y="59.51249694824219" style="white-space:pre;stroke:none;fill:rgb(0,0,0);fill-opacity:1;font-size:10.5px;font-family:Arial, Helvetica, sans-serif;font-weight:400;font-style:normal;dominant-baseline:text-before-edge;text-decoration:none solid rgb(0, 0, 0);">old</text></g></g></g></g></g></g></g><g><g transform="matrix(1,0,0,1,546.0374755859375,66.79998779296875)"><path transform="matrix(0.017,0,0,-0.017,0,0)" d="M604 241L604 300L364 300L364 538L305 538L305 300L65 300L65 241L305 241L305 0L364 0L364 241Z" stroke="rgb(0,0,0)" stroke-opacity="1" stroke-width="8" fill="rgb(0,0,0)" fill-opacity="1"></path></g></g><g><g transform="matrix(1,0,0,1,560.800048828125,66.79998779296875)"><path transform="matrix(0.017,0,0,-0.017,0,0)" d="M258 1C273 -7 289 -11 301 -11C334 -11 373 18 404 65L480 182L491 113C504 28 527 -11 563 -11C585 -11 617 6 649 35L698 79L689 98C653 68 628 53 612 53C597 53 584 63 574 83C565 102 554 139 549 168L531 269L566 318C613 383 640 406 671 406C687 406 699 398 704 383L718 387L733 472C721 479 712 482 703 482C663 482 623 446 561 354L524 299L518 347C506 446 479 482 420 482C394 482 372 474 363 461L305 378L322 368C352 402 372 416 391 416C424 416 446 375 463 277L474 215L434 153C391 86 357 54 329 54C314 54 303 58 301 63L290 91L270 88C270 53 262 27 258 1Z" stroke="rgb(0,0,0)" stroke-opacity="1" stroke-width="8" fill="rgb(0,0,0)" fill-opacity="1"></path></g></g><g><g><g><g><g transform="matrix(1,0,0,1,580.300048828125,66.79998779296875)"><path transform="matrix(0.017,0,0,-0.017,0,0)" d="M146 266C146 526 243 632 301 700L282 726C225 675 60 542 60 266C60 159 85 58 133 -32C168 -99 200 -138 282 -215L301 -194C255 -137 146 -15 146 266Z" stroke="rgb(0,0,0)" stroke-opacity="1" stroke-width="8" fill="rgb(0,0,0)" fill-opacity="1"></path></g></g><g><g transform="matrix(1,0,0,1,585.9500732421875,66.79998779296875)"><path transform="matrix(0.017,0,0,-0.017,0,0)" d="M555 243L555 299L51 299L51 243Z" stroke="rgb(0,0,0)" stroke-opacity="1" stroke-width="8" fill="rgb(0,0,0)" fill-opacity="1"></path></g></g><g><g transform="matrix(1,0,0,1,596.237548828125,66.79998779296875)"><path transform="matrix(0.017,0,0,-0.017,0,0)" d="M299 689L279 689C220 627 137 624 89 622L89 563C122 564 170 566 220 587L220 59L95 59L95 0L424 0L424 59L299 59Z" stroke="rgb(0,0,0)" stroke-opacity="1" stroke-width="8" fill="rgb(0,0,0)" fill-opacity="1"></path></g></g><g><g transform="matrix(1,0,0,1,604.7249755859375,66.79998779296875)"><path transform="matrix(0.017,0,0,-0.017,0,0)" d="M51 726L32 700C87 636 187 526 187 266C187 -10 83 -131 32 -194L51 -215C104 -165 273 -23 273 265C273 542 108 675 51 726Z" stroke="rgb(0,0,0)" stroke-opacity="1" stroke-width="8" fill="rgb(0,0,0)" fill-opacity="1"></path></g></g></g></g><g><g><g><g transform="matrix(1,0,0,1,592.362548828125,83.36249389648438)"><path transform="matrix(0.0119,0,0,-0.0119,0,0)" d="M-7 -180C-8 -187 -8 -193 -8 -198C-8 -241 29 -276 74 -276C180 -276 290 -152 349 33L490 473L479 482C450 471 427 465 405 463L370 331C358 284 323 211 290 162C255 111 206 67 184 67C172 67 163 90 164 115L180 322C182 353 184 391 184 419C184 464 177 482 160 482C147 482 133 475 85 442L3 386L14 368L64 398C69 401 80 410 89 410C103 410 111 391 111 358C111 357 111 351 110 343L93 100L92 60C92 18 110 -11 135 -11C172 -11 256 74 331 187L282 16C231 -161 181 -234 111 -234C76 -234 49 -207 49 -172C49 -167 50 -159 51 -150L41 -146Z" stroke="rgb(0,0,0)" stroke-opacity="1" stroke-width="8" fill="rgb(0,0,0)" fill-opacity="1"></path></g></g></g></g><svg xmlns="http://www.w3.org/2000/svg" x="577.8375244140625" y="67.19999694824219" height="8.0625" width="8.675000190734863"><defs><clipPath id="ccp0.4579950815360647"><rect x="-0.5" y="-0.5" width="9.175000190734863" height="8.5625"></rect></clipPath></defs><g clip-path="url(#ccp0.4579950815360647)"><svg xmlns="http://www.w3.org/2000/svg" x="0" y="0" height="8.0625" width="8.675000190734863"><defs><clipPath id="ccp0.06715067382538065"><rect x="-0.5" y="-0.5" width="9.175000190734863" height="8.5625"></rect></clipPath></defs><g clip-path="url(#ccp0.06715067382538065)"><g><g transform="matrix(1,0,0,1,0,12.407)"><path transform="matrix(0.012407,0,0,-0.012407,0,0)" d="M27 918C35 918 47 900 54 890C171 732 432 725 626 725L739 725L739 630L686 630C326 630 127 703 32 881C30 885 22 902 22 911C22 915 24 918 27 918Z" stroke="rgb(0,0,0)" stroke-opacity="1" stroke-width="8" fill="rgb(0,0,0)" fill-opacity="1"></path></g></g></g></svg></g></svg><svg xmlns="http://www.w3.org/2000/svg" x="586.5125732421875" y="67.19999694824219" height="8.0625" width="5.112500190734863"><defs><clipPath id="ccp0.6835256438500681"><rect x="-0.5" y="-0.5" width="5.612500190734863" height="8.5625"></rect></clipPath></defs><g clip-path="url(#ccp0.6835256438500681)"><svg xmlns="http://www.w3.org/2000/svg" x="0" y="0" height="14.887499809265137" width="24.825000762939453"><defs><clipPath id="ccp0.9793223220911005"><rect x="-0.5" y="-0.5" width="25.325000762939453" height="15.387499809265137"></rect></clipPath></defs><g clip-path="url(#ccp0.9793223220911005)"><g><g transform="matrix(1,0,0,1,0,12.407)"><path transform="matrix(0.012407,0,0,-0.012407,0,0)" d="M-877 725L1877 725L1877 630L-877 630Z" stroke="rgb(0,0,0)" stroke-opacity="1" stroke-width="8" fill="rgb(0,0,0)" fill-opacity="1"></path></g></g></g></svg><svg xmlns="http://www.w3.org/2000/svg" x="0" y="0" height="14.887499809265137" width="24.825000762939453"><defs><clipPath id="ccp0.7261429873758867"><rect x="-0.5" y="-0.5" width="25.325000762939453" height="15.387499809265137"></rect></clipPath></defs><g clip-path="url(#ccp0.7261429873758867)"><g><g transform="matrix(1,0,0,1,12.4124755859375,12.407)"><path transform="matrix(0.012407,0,0,-0.012407,0,0)" d="M-877 725L1877 725L1877 630L-877 630Z" stroke="rgb(0,0,0)" stroke-opacity="1" stroke-width="8" fill="rgb(0,0,0)" fill-opacity="1"></path></g></g></g></svg></g></svg><svg xmlns="http://www.w3.org/2000/svg" x="591.625" y="67.19999694824219" height="8.0625" width="7.4375"><defs><clipPath id="ccp0.7091228967455998"><rect x="-0.5" y="-0.5" width="7.9375" height="8.5625"></rect></clipPath></defs><g clip-path="url(#ccp0.7091228967455998)"><svg xmlns="http://www.w3.org/2000/svg" x="0" y="0" height="8.0625" width="7.4375"><defs><clipPath id="ccp0.10682203754938913"><rect x="-0.5" y="-0.5" width="7.9375" height="8.5625"></rect></clipPath></defs><g clip-path="url(#ccp0.10682203754938913)"><g><g transform="matrix(1,0,0,1,0,12.407)"><path transform="matrix(0.012407,0,0,-0.012407,0,0)" d="M-54 725L-2 725C92 725 253 690 324 521C397 690 557 725 650 725L703 725L703 630L650 630C389 630 323 439 323 438L321 438C321 439 260 630 -2 630L-54 630Z" stroke="rgb(0,0,0)" stroke-opacity="1" stroke-width="8" fill="rgb(0,0,0)" fill-opacity="1"></path></g></g></g></svg></g></svg><svg xmlns="http://www.w3.org/2000/svg" x="599.0625" y="67.19999694824219" height="8.0625" width="5.112500190734863"><defs><clipPath id="ccp0.8262453372125322"><rect x="-0.5" y="-0.5" width="5.612500190734863" height="8.5625"></rect></clipPath></defs><g clip-path="url(#ccp0.8262453372125322)"><svg xmlns="http://www.w3.org/2000/svg" x="0" y="0" height="14.887499809265137" width="24.825000762939453"><defs><clipPath id="ccp0.2080310339048974"><rect x="-0.5" y="-0.5" width="25.325000762939453" height="15.387499809265137"></rect></clipPath></defs><g clip-path="url(#ccp0.2080310339048974)"><g><g transform="matrix(1,0,0,1,0,12.407)"><path transform="matrix(0.012407,0,0,-0.012407,0,0)" d="M-877 725L1877 725L1877 630L-877 630Z" stroke="rgb(0,0,0)" stroke-opacity="1" stroke-width="8" fill="rgb(0,0,0)" fill-opacity="1"></path></g></g></g></svg><svg xmlns="http://www.w3.org/2000/svg" x="0" y="0" height="14.887499809265137" width="24.825000762939453"><defs><clipPath id="ccp0.5599649332603089"><rect x="-0.5" y="-0.5" width="25.325000762939453" height="15.387499809265137"></rect></clipPath></defs><g clip-path="url(#ccp0.5599649332603089)"><g><g transform="matrix(1,0,0,1,12.4124755859375,12.407)"><path transform="matrix(0.012407,0,0,-0.012407,0,0)" d="M-877 725L1877 725L1877 630L-877 630Z" stroke="rgb(0,0,0)" stroke-opacity="1" stroke-width="8" fill="rgb(0,0,0)" fill-opacity="1"></path></g></g></g></svg></g></svg><svg xmlns="http://www.w3.org/2000/svg" x="604.175048828125" y="67.19999694824219" height="8.0625" width="8.675000190734863"><defs><clipPath id="ccp0.03220817217107408"><rect x="-0.5" y="-0.5" width="9.175000190734863" height="8.5625"></rect></clipPath></defs><g clip-path="url(#ccp0.03220817217107408)"><svg xmlns="http://www.w3.org/2000/svg" x="0" y="0" height="8.0625" width="8.675000190734863"><defs><clipPath id="ccp0.4567421652132668"><rect x="-0.5" y="-0.5" width="9.175000190734863" height="8.5625"></rect></clipPath></defs><g clip-path="url(#ccp0.4567421652132668)"><g><g transform="matrix(1,0,0,1,0,12.407)"><path transform="matrix(0.012407,0,0,-0.012407,0,0)" d="M682 918C685 918 687 915 687 911C687 902 679 885 676 881C582 703 383 630 23 630L-30 630L-30 725L83 725C276 725 537 732 654 890C661 900 673 918 682 918Z" stroke="rgb(0,0,0)" stroke-opacity="1" stroke-width="8" fill="rgb(0,0,0)" fill-opacity="1"></path></g></g></g></svg></g></svg></g></g></g><g><g><g><text x="61.79998779296875" y="71.39999389648438" style="white-space:pre;stroke:none;fill:rgb(255,0,0);fill-opacity:1;font-size:13.5px;font-family:Arial, Helvetica, sans-serif;font-weight:400;font-style:normal;dominant-baseline:text-before-edge;text-decoration:none solid rgb(255, 0, 0);">Positive Labels</text></g></g><g><g><g><g><g><g transform="matrix(1,0,0,1,75.6875,103.20000915527343)"><path transform="matrix(0.015300000000000001,0,0,-0.015300000000000001,0,0)" d="M-7 -180C-8 -187 -8 -193 -8 -198C-8 -241 29 -276 74 -276C180 -276 290 -152 349 33L490 473L479 482C450 471 427 465 405 463L370 331C358 284 323 211 290 162C255 111 206 67 184 67C172 67 163 90 164 115L180 322C182 353 184 391 184 419C184 464 177 482 160 482C147 482 133 475 85 442L3 386L14 368L64 398C69 401 80 410 89 410C103 410 111 391 111 358C111 357 111 351 110 343L93 100L92 60C92 18 110 -11 135 -11C172 -11 256 74 331 187L282 16C231 -161 181 -234 111 -234C76 -234 49 -207 49 -172C49 -167 50 -159 51 -150L41 -146Z" stroke="rgb(0,0,0)" stroke-opacity="1" stroke-width="8" fill="rgb(0,0,0)" fill-opacity="1"></path></g></g><g><g><g><g><g transform="matrix(1,0,0,1,83.7750244140625,106.70998474121095)"><path transform="matrix(0.01071,0,0,-0.01071,0,0)" d="M34 388L41 368L73 389C110 412 113 414 120 414C130 414 138 404 138 391C138 384 134 361 130 347L64 107C56 76 51 49 51 30C51 6 62 -9 81 -9C107 -9 143 12 241 85L231 103L205 86C176 67 153 56 144 56C137 56 131 66 131 76C131 86 133 95 138 116L215 420C219 437 221 448 221 456C221 473 212 482 196 482C174 482 137 461 62 408ZM228 712C199 712 170 679 170 645C170 620 185 604 209 604C240 604 264 633 264 671C264 695 249 712 228 712Z" stroke="rgb(0,0,0)" stroke-opacity="1" stroke-width="8" fill="rgb(0,0,0)" fill-opacity="1"></path></g></g></g></g></g><g><g transform="matrix(1,0,0,1,87.66253662109375,103.20000915527343)"><path transform="matrix(0.015300000000000001,0,0,-0.015300000000000001,0,0)" d="" stroke="rgb(0,0,0)" stroke-opacity="1" stroke-width="8" fill="rgb(0,0,0)" fill-opacity="1"></path></g></g><g><g transform="matrix(1,0,0,1,96.0625,103.20000915527343)"><path transform="matrix(0.015300000000000001,0,0,-0.015300000000000001,0,0)" d="M604 347L604 406L65 406L65 347ZM604 134L604 193L65 193L65 134Z" stroke="rgb(0,0,0)" stroke-opacity="1" stroke-width="8" fill="rgb(0,0,0)" fill-opacity="1"></path></g></g><g><g transform="matrix(1,0,0,1,110.86248779296875,103.20000915527343)"><path transform="matrix(0.015300000000000001,0,0,-0.015300000000000001,0,0)" d="" stroke="rgb(0,0,0)" stroke-opacity="1" stroke-width="8" fill="rgb(0,0,0)" fill-opacity="1"></path></g></g><g><g transform="matrix(1,0,0,1,117.72503662109375,103.20000915527343)"><path transform="matrix(0.015300000000000001,0,0,-0.015300000000000001,0,0)" d="M604 241L604 300L364 300L364 538L305 538L305 300L65 300L65 241L305 241L305 0L364 0L364 241Z" stroke="rgb(0,0,0)" stroke-opacity="1" stroke-width="8" fill="rgb(0,0,0)" fill-opacity="1"></path></g></g><g><g transform="matrix(1,0,0,1,130.98748779296875,103.20000915527343)"><path transform="matrix(0.015300000000000001,0,0,-0.015300000000000001,0,0)" d="M418 -3L418 27L366 30C311 33 301 44 301 96L301 700L60 598L67 548L217 614L217 96C217 44 206 33 152 30L96 27L96 -3C250 0 250 0 261 0C292 0 402 -3 418 -3Z" stroke="rgb(0,0,0)" stroke-opacity="1" stroke-width="8" fill="rgb(0,0,0)" fill-opacity="1"></path></g></g></g></g></g></g></g><g><g><g><text x="61.79998779296875" y="122.40000915527344" style="white-space:pre;stroke:none;fill:rgb(74,144,226);fill-opacity:1;font-size:13.5px;font-family:Arial, Helvetica, sans-serif;font-weight:400;font-style:normal;dominant-baseline:text-before-edge;text-decoration:none solid rgb(74, 144, 226);">Negative Labels</text></g></g><g><g><g><g><g><g transform="matrix(1,0,0,1,79.17498779296875,154.20000915527345)"><path transform="matrix(0.015300000000000001,0,0,-0.015300000000000001,0,0)" d="M-7 -180C-8 -187 -8 -193 -8 -198C-8 -241 29 -276 74 -276C180 -276 290 -152 349 33L490 473L479 482C450 471 427 465 405 463L370 331C358 284 323 211 290 162C255 111 206 67 184 67C172 67 163 90 164 115L180 322C182 353 184 391 184 419C184 464 177 482 160 482C147 482 133 475 85 442L3 386L14 368L64 398C69 401 80 410 89 410C103 410 111 391 111 358C111 357 111 351 110 343L93 100L92 60C92 18 110 -11 135 -11C172 -11 256 74 331 187L282 16C231 -161 181 -234 111 -234C76 -234 49 -207 49 -172C49 -167 50 -159 51 -150L41 -146Z" stroke="rgb(0,0,0)" stroke-opacity="1" stroke-width="8" fill="rgb(0,0,0)" fill-opacity="1"></path></g></g><g><g><g><g><g transform="matrix(1,0,0,1,87.26251220703125,157.70998474121095)"><path transform="matrix(0.01071,0,0,-0.01071,0,0)" d="M34 388L41 368L73 389C110 412 113 414 120 414C130 414 138 404 138 391C138 384 134 361 130 347L64 107C56 76 51 49 51 30C51 6 62 -9 81 -9C107 -9 143 12 241 85L231 103L205 86C176 67 153 56 144 56C137 56 131 66 131 76C131 86 133 95 138 116L215 420C219 437 221 448 221 456C221 473 212 482 196 482C174 482 137 461 62 408ZM228 712C199 712 170 679 170 645C170 620 185 604 209 604C240 604 264 633 264 671C264 695 249 712 228 712Z" stroke="rgb(0,0,0)" stroke-opacity="1" stroke-width="8" fill="rgb(0,0,0)" fill-opacity="1"></path></g></g></g></g></g><g><g transform="matrix(1,0,0,1,91.1500244140625,154.20000915527345)"><path transform="matrix(0.015300000000000001,0,0,-0.015300000000000001,0,0)" d="" stroke="rgb(0,0,0)" stroke-opacity="1" stroke-width="8" fill="rgb(0,0,0)" fill-opacity="1"></path></g></g><g><g transform="matrix(1,0,0,1,99.54998779296875,154.20000915527345)"><path transform="matrix(0.015300000000000001,0,0,-0.015300000000000001,0,0)" d="M604 347L604 406L65 406L65 347ZM604 134L604 193L65 193L65 134Z" stroke="rgb(0,0,0)" stroke-opacity="1" stroke-width="8" fill="rgb(0,0,0)" fill-opacity="1"></path></g></g><g><g transform="matrix(1,0,0,1,114.35003662109375,154.20000915527345)"><path transform="matrix(0.015300000000000001,0,0,-0.015300000000000001,0,0)" d="" stroke="rgb(0,0,0)" stroke-opacity="1" stroke-width="8" fill="rgb(0,0,0)" fill-opacity="1"></path></g></g><g><g transform="matrix(1,0,0,1,121.2125244140625,154.20000915527345)"><path transform="matrix(0.015300000000000001,0,0,-0.015300000000000001,0,0)" d="M555 243L555 299L51 299L51 243Z" stroke="rgb(0,0,0)" stroke-opacity="1" stroke-width="8" fill="rgb(0,0,0)" fill-opacity="1"></path></g></g><g><g transform="matrix(1,0,0,1,133.51251220703125,154.20000915527345)"><path transform="matrix(0.015300000000000001,0,0,-0.015300000000000001,0,0)" d="M418 -3L418 27L366 30C311 33 301 44 301 96L301 700L60 598L67 548L217 614L217 96C217 44 206 33 152 30L96 27L96 -3C250 0 250 0 261 0C292 0 402 -3 418 -3Z" stroke="rgb(0,0,0)" stroke-opacity="1" stroke-width="8" fill="rgb(0,0,0)" fill-opacity="1"></path></g></g></g></g></g></g></g><g><g><g><g transform="matrix(1,0,0,1,461.79998779296875,244.09999084472656)"><path transform="matrix(0.0135,0,0,-0.0135,0,0)" d="M100 0L178 0L178 624C187 580 211 517 250 411L400 22L472 22L626 423L686 587L696 624L697 592L697 0L775 0L775 694L660 694L506 292C457 164 441 114 438 92L437 92C433 115 409 182 368 293L214 694L100 694ZM956 0L1031 0L1031 445L956 445ZM949 590L1039 590L1039 679L949 679ZM1141 34C1216 -7 1277 -11 1311 -11C1445 -11 1474 72 1474 127C1474 192 1428 234 1387 252C1325 280 1218 267 1218 340C1218 365 1233 401 1302 401C1374 401 1406 383 1446 364L1457 430C1402 453 1367 461 1311 461C1175 461 1147 382 1147 329C1147 259 1207 220 1251 206C1282 196 1325 191 1347 184C1367 178 1403 158 1403 120C1403 93 1385 52 1310 52C1229 52 1181 86 1153 102ZM1532 223C1532 95 1626 -11 1749 -11C1818 -11 1867 11 1912 40L1907 107C1875 85 1828 53 1750 53C1666 53 1610 126 1610 223C1610 310 1654 397 1751 397C1830 397 1856 376 1895 351L1907 417C1846 452 1814 461 1752 461C1612 461 1532 339 1532 223ZM2022 0L2097 0L2097 722L2022 722ZM2224 113C2224 67 2254 -11 2338 -11C2448 -11 2503 34 2504 35L2504 0L2580 0L2580 305C2575 389 2509 461 2414 461C2351 461 2305 445 2257 417L2263 350C2296 373 2338 401 2413 401C2426 401 2452 400 2476 371C2501 341 2501 307 2502 279L2502 245C2399 244 2224 219 2224 113ZM2297 114C2297 177 2430 192 2502 193L2502 130C2502 65 2433 51 2390 51C2336 51 2297 78 2297 114ZM2687 34C2762 -7 2823 -11 2857 -11C2991 -11 3020 72 3020 127C3020 192 2974 234 2933 252C2871 280 2764 267 2764 340C2764 365 2779 401 2848 401C2920 401 2952 383 2992 364L3003 430C2948 453 2913 461 2857 461C2721 461 2693 382 2693 329C2693 259 2753 220 2797 206C2828 196 2871 191 2893 184C2913 178 2949 158 2949 120C2949 93 2931 52 2856 52C2775 52 2727 86 2699 102ZM3070 34C3145 -7 3206 -11 3240 -11C3374 -11 3403 72 3403 127C3403 192 3357 234 3316 252C3254 280 3147 267 3147 340C3147 365 3162 401 3231 401C3303 401 3335 383 3375 364L3386 430C3331 453 3296 461 3240 461C3104 461 3076 382 3076 329C3076 259 3136 220 3180 206C3211 196 3254 191 3276 184C3296 178 3332 158 3332 120C3332 93 3314 52 3239 52C3158 52 3110 86 3082 102ZM3507 0L3582 0L3582 445L3507 445ZM3500 590L3590 590L3590 679L3500 679ZM3692 386L3766 386L3766 0L3841 0L3841 386L3959 386L3959 445L3838 445L3838 581C3838 656 3875 672 3900 672C3925 672 3942 663 3959 654L3959 722C3936 729 3924 733 3900 733C3846 733 3766 686 3766 544L3766 445L3692 445ZM4043 0L4118 0L4118 445L4043 445ZM4039 639L4123 639L4123 723L4039 723ZM4235 226C4235 102 4322 -11 4453 -11C4516 -11 4568 11 4611 40L4605 106C4561 74 4516 51 4453 51C4377 51 4309 117 4305 220L4615 220L4615 249C4606 420 4508 461 4437 461C4331 461 4235 360 4235 226ZM4310 275C4321 324 4361 399 4437 399C4466 399 4541 386 4558 275ZM4680 221C4680 102 4750 -11 4852 -11C4918 -11 4966 19 5000 52L5000 0L5079 0L5079 722L5003 722L5003 401C4968 429 4921 456 4858 456C4759 456 4680 353 4680 221ZM4758 222C4758 353 4845 394 4903 394L4905 394C4916 394 4948 393 4979 364C4997 347 5000 341 5000 325L5000 134C5000 103 4953 51 4893 51C4839 51 4758 90 4758 222ZM5590 0L5838 0C5854 0 5870 0 5886 2C6027 18 6161 149 6161 342C6161 462 6107 582 6008 647C5944 689 5890 694 5836 694L5590 694ZM5677 56L5677 638L5820 638C5988 638 6074 502 6074 341C6074 272 6057 203 6015 148C5946 57 5852 56 5820 56ZM6261 113C6261 67 6291 -11 6375 -11C6485 -11 6540 34 6541 35L6541 0L6617 0L6617 305C6612 389 6546 461 6451 461C6388 461 6342 445 6294 417L6300 350C6333 373 6375 401 6450 401C6463 401 6489 400 6513 371C6538 341 6538 307 6539 279L6539 245C6436 244 6261 219 6261 113ZM6334 114C6334 177 6467 192 6539 193L6539 130C6539 65 6470 51 6427 51C6373 51 6334 78 6334 114ZM6715 386L6799 386L6799 117C6799 7 6848 -11 6881 -11C6926 -11 6977 -1 7029 27L7013 86C6999 76 6968 53 6925 53C6873 53 6871 112 6871 140L6871 386L7012 386L7012 445L6871 445L6871 571L6801 571L6801 445L6715 445ZM7102 113C7102 67 7132 -11 7216 -11C7326 -11 7381 34 7382 35L7382 0L7458 0L7458 305C7453 389 7387 461 7292 461C7229 461 7183 445 7135 417L7141 350C7174 373 7216 401 7291 401C7304 401 7330 400 7354 371C7379 341 7379 307 7380 279L7380 245C7277 244 7102 219 7102 113ZM7175 114C7175 177 7308 192 7380 193L7380 130C7380 65 7311 51 7268 51C7214 51 7175 78 7175 114ZM7619 -195L7697 -195L7697 46C7730 15 7773 -11 7832 -11C7929 -11 8018 83 8018 224C8018 343 7955 455 7860 455C7826 455 7758 448 7694 396L7694 445L7619 445ZM7697 126L7697 334C7703 341 7737 391 7803 391C7885 391 7939 310 7939 222C7939 116 7864 50 7794 50C7735 50 7697 102 7697 126ZM8113 221C8113 85 8218 -11 8332 -11C8446 -11 8552 84 8552 220C8552 345 8460 461 8332 461C8214 461 8113 357 8113 221ZM8191 231C8191 352 8268 399 8332 399C8396 399 8473 353 8473 231C8473 106 8399 53 8332 53C8266 53 8191 105 8191 231ZM8664 0L8739 0L8739 445L8664 445ZM8657 590L8747 590L8747 679L8657 679ZM8902 0L8980 0L8980 240C8980 314 9005 394 9082 394C9180 394 9180 319 9180 281L9180 0L9258 0L9258 288C9258 358 9249 455 9121 455C9033 455 8989 398 8975 380L8975 450L8902 450ZM9357 386L9441 386L9441 117C9441 7 9490 -11 9523 -11C9568 -11 9619 -1 9671 27L9655 86C9641 76 9610 53 9567 53C9515 53 9513 112 9513 140L9513 386L9654 386L9654 445L9513 445L9513 571L9443 571L9443 445L9357 445ZM9727 34C9802 -7 9863 -11 9897 -11C10031 -11 10060 72 10060 127C10060 192 10014 234 9973 252C9911 280 9804 267 9804 340C9804 365 9819 401 9888 401C9960 401 9992 383 10032 364L10043 430C9988 453 9953 461 9897 461C9761 461 9733 382 9733 329C9733 259 9793 220 9837 206C9868 196 9911 191 9933 184C9953 178 9989 158 9989 120C9989 93 9971 52 9896 52C9815 52 9767 86 9739 102Z" stroke="rgb(0,0,0)" stroke-opacity="1" stroke-width="8" fill="rgb(0,0,0)" fill-opacity="1"></path></g></g></g></g></svg>
</svg>
