<svg xmlns="http://www.w3.org/2000/svg" xmlns:xlink="http://www.w3.org/1999/xlink" x="0" y="0" width="661.3333740234375" height="301.3333435058594" style="
        width:661.3333740234375px;
        height:301.3333435058594px;
        background: #FFF;
        fill: none;
">
        
        
        <svg xmlns="http://www.w3.org/2000/svg" class="role-diagram-draw-area"><g class="shapes-region" style="stroke: black; fill: none;"><g class="arrow-line"><path class="connection real" stroke-dasharray="" d="  M210,166.36 L460,166.36" style="stroke: rgb(0, 0, 0); stroke-width: 1; fill: none; fill-opacity: 1;"/></g><g class="arrow-line"><path class="connection real" stroke-dasharray="" d="  M335,280 L335,52.73" style="stroke: rgb(0, 0, 0); stroke-width: 1; fill: none; fill-opacity: 1;"/></g><g class="arrow-line"><path class="connection real" stroke-dasharray="" d="  M335,166.36 L389.7,111.67" style="stroke: rgb(0, 0, 0); stroke-opacity: 1; stroke-width: 2; fill: none; fill-opacity: 1;"/><g stroke="rgb(0,0,0)" stroke-opacity="1" transform="matrix(-0.7071067811865479,0.7071067811865471,-0.7071067811865471,-0.7071067811865479,391.8181818181818,109.54545454545456)" style="stroke: rgb(0, 0, 0); stroke-width: 2;"><path d=" M14.21,-4.28 Q6.45,-0.59 0,0 Q6.45,0.59 14.21,4.28"/></g></g><g class="arrow-line"><path class="connection real" stroke-dasharray="2.25 3.685" d="  M300.91,53.6 L385.19,137.88 L460,212.69" style="stroke: rgb(0, 0, 0); stroke-opacity: 1; stroke-width: 2; fill: none; fill-opacity: 1;"/></g><g class="arrow-line"><path class="connection real" stroke-dasharray="2.25 3.685" d="  M221.87,118.79 L306.15,203.08 L380.96,277.89" style="stroke: rgb(0, 0, 0); stroke-opacity: 1; stroke-width: 2; fill: none; fill-opacity: 1;"/></g><g class="composite-shape"><path class="real" d=" M401.73,154.14 C401.73,151.85 403.58,150 405.86,150 C408.15,150 410,151.85 410,154.14 C410,156.42 408.15,158.27 405.86,158.27 C403.58,158.27 401.73,156.42 401.73,154.14 Z" style="stroke-width: 1; stroke: none; stroke-opacity: 1; fill: rgb(255, 142, 0); fill-opacity: 1;"/></g><g class="composite-shape"><path class="real" d=" M361.73,115.86 C361.73,113.58 363.58,111.73 365.86,111.73 C368.15,111.73 370,113.58 370,115.86 C370,118.15 368.15,120 365.86,120 C363.58,120 361.73,118.15 361.73,115.86 Z" style="stroke-width: 1; stroke: none; stroke-opacity: 1; fill: rgb(255, 142, 0); fill-opacity: 1;"/></g><g class="composite-shape"><path class="real" d=" M334.8,90.14 C334.8,87.85 336.65,86 338.94,86 C341.22,86 343.07,87.85 343.07,90.14 C343.07,92.42 341.22,94.27 338.94,94.27 C336.65,94.27 334.8,92.42 334.8,90.14 Z" style="stroke-width: 1; stroke: none; stroke-opacity: 1; fill: rgb(255, 142, 0); fill-opacity: 1;"/></g><g class="composite-shape"><path class="real" d=" M296.93,195.74 C296.93,193.45 298.78,191.6 301.06,191.6 C303.35,191.6 305.2,193.45 305.2,195.74 C305.2,198.02 303.35,199.87 301.06,199.87 C298.78,199.87 296.93,198.02 296.93,195.74 Z" style="stroke-width: 1; stroke: none; stroke-opacity: 1; fill: rgb(255, 142, 0); fill-opacity: 1;"/></g><g class="composite-shape"><path class="real" d=" M238.13,142.94 C238.13,140.65 239.98,138.8 242.26,138.8 C244.55,138.8 246.4,140.65 246.4,142.94 C246.4,145.22 244.55,147.07 242.26,147.07 C239.98,147.07 238.13,145.22 238.13,142.94 Z" style="stroke-width: 1; stroke: none; stroke-opacity: 1; fill: rgb(255, 142, 0); fill-opacity: 1;"/></g><g class="composite-shape"><path class="real" d=" M339.33,241.34 C339.33,239.05 341.18,237.2 343.46,237.2 C345.75,237.2 347.6,239.05 347.6,241.34 C347.6,243.62 345.75,245.47 343.46,245.47 C341.18,245.47 339.33,243.62 339.33,241.34 Z" style="stroke-width: 1; stroke: none; stroke-opacity: 1; fill: rgb(255, 142, 0); fill-opacity: 1;"/></g><g class="composite-shape"><path class="real" d=" M390,195.86 C390,193.58 391.85,191.73 394.14,191.73 C396.42,191.73 398.27,193.58 398.27,195.86 C398.27,198.15 396.42,200 394.14,200 C391.85,200 390,198.15 390,195.86 Z" style="stroke-width: 1; stroke: none; stroke-opacity: 1; fill: rgb(74, 144, 226); fill-opacity: 1;"/></g><g class="composite-shape"><path class="real" d=" M281.73,144.14 C281.73,141.85 283.58,140 285.86,140 C288.15,140 290,141.85 290,144.14 C290,146.42 288.15,148.27 285.86,148.27 C283.58,148.27 281.73,146.42 281.73,144.14 Z" style="stroke-width: 1; stroke: none; stroke-opacity: 1; fill: rgb(74, 144, 226); fill-opacity: 1;"/></g><g class="composite-shape"><path class="real" d=" M221.73,225.86 C221.73,223.58 223.58,221.73 225.86,221.73 C228.15,221.73 230,223.58 230,225.86 C230,228.15 228.15,230 225.86,230 C223.58,230 221.73,228.15 221.73,225.86 Z" style="stroke-width: 1; stroke: none; stroke-opacity: 1; fill: rgb(0, 0, 0); fill-opacity: 1;"/></g><g class="composite-shape"><path class="real" d=" M194.8,200.14 C194.8,197.85 196.65,196 198.94,196 C201.22,196 203.07,197.85 203.07,200.14 C203.07,202.42 201.22,204.27 198.94,204.27 C196.65,204.27 194.8,202.42 194.8,200.14 Z" style="stroke-width: 1; stroke: none; stroke-opacity: 1; fill: rgb(0, 0, 0); fill-opacity: 1;"/></g><g class="composite-shape"><path class="real" d=" M276.93,225.86 C276.93,223.58 278.78,221.73 281.06,221.73 C283.35,221.73 285.2,223.58 285.2,225.86 C285.2,228.15 283.35,230 281.06,230 C278.78,230 276.93,228.15 276.93,225.86 Z" style="stroke-width: 1; stroke: none; stroke-opacity: 1; fill: rgb(0, 0, 0); fill-opacity: 1;"/></g><g class="composite-shape"><path class="real" d=" M250,200.14 C250,197.85 251.85,196 254.14,196 C256.42,196 258.27,197.85 258.27,200.14 C258.27,202.42 256.42,204.27 254.14,204.27 C251.85,204.27 250,202.42 250,200.14 Z" style="stroke-width: 1; stroke: none; stroke-opacity: 1; fill: rgb(0, 0, 0); fill-opacity: 1;"/></g><g class="composite-shape"><path class="real" d=" M241.73,185.86 C241.73,183.58 243.58,181.73 245.86,181.73 C248.15,181.73 250,183.58 250,185.86 C250,188.15 248.15,190 245.86,190 C243.58,190 241.73,188.15 241.73,185.86 Z" style="stroke-width: 1; stroke: none; stroke-opacity: 1; fill: rgb(0, 0, 0); fill-opacity: 1;"/></g><g class="composite-shape"><path class="real" d=" M301.73,254.14 C301.73,251.85 303.58,250 305.86,250 C308.15,250 310,251.85 310,254.14 C310,256.42 308.15,258.27 305.86,258.27 C303.58,258.27 301.73,256.42 301.73,254.14 Z" style="stroke-width: 1; stroke: none; stroke-opacity: 1; fill: rgb(0, 0, 0); fill-opacity: 1;"/></g><g class="composite-shape"><path class="real" d=" M276.93,239.86 C276.93,237.58 278.78,235.73 281.06,235.73 C283.35,235.73 285.2,237.58 285.2,239.86 C285.2,242.15 283.35,244 281.06,244 C278.78,244 276.93,242.15 276.93,239.86 Z" style="stroke-width: 1; stroke: none; stroke-opacity: 1; fill: rgb(0, 0, 0); fill-opacity: 1;"/></g><g class="composite-shape"><path class="real" d=" M250,214.14 C250,211.85 251.85,210 254.14,210 C256.42,210 258.27,211.85 258.27,214.14 C258.27,216.42 256.42,218.27 254.14,218.27 C251.85,218.27 250,216.42 250,214.14 Z" style="stroke-width: 1; stroke: none; stroke-opacity: 1; fill: rgb(0, 0, 0); fill-opacity: 1;"/></g><g class="composite-shape"><path class="real" d=" M473.45,205.86 C473.45,203.58 475.31,201.73 477.59,201.73 C479.88,201.73 481.73,203.58 481.73,205.86 C481.73,208.15 479.88,210 477.59,210 C475.31,210 473.45,208.15 473.45,205.86 Z" style="stroke-width: 1; stroke: none; stroke-opacity: 1; fill: rgb(0, 0, 0); fill-opacity: 1;"/></g><g class="composite-shape"><path class="real" d=" M446.53,180.14 C446.53,177.85 448.38,176 450.66,176 C452.95,176 454.8,177.85 454.8,180.14 C454.8,182.42 452.95,184.27 450.66,184.27 C448.38,184.27 446.53,182.42 446.53,180.14 Z" style="stroke-width: 1; stroke: none; stroke-opacity: 1; fill: rgb(0, 0, 0); fill-opacity: 1;"/></g><g class="composite-shape"><path class="real" d=" M431.73,145.86 C431.73,143.58 433.58,141.73 435.86,141.73 C438.15,141.73 440,143.58 440,145.86 C440,148.15 438.15,150 435.86,150 C433.58,150 431.73,148.15 431.73,145.86 Z" style="stroke-width: 1; stroke: none; stroke-opacity: 1; fill: rgb(0, 0, 0); fill-opacity: 1;"/></g><g class="composite-shape"><path class="real" d=" M455.86,162.23 C455.86,159.94 457.72,158.09 460,158.09 C462.28,158.09 464.14,159.94 464.14,162.23 C464.14,164.51 462.28,166.36 460,166.36 C457.72,166.36 455.86,164.51 455.86,162.23 Z" style="stroke-width: 1; stroke: none; stroke-opacity: 1; fill: rgb(0, 0, 0); fill-opacity: 1;"/></g><g class="composite-shape"><path class="real" d=" M361.73,75.86 C361.73,73.58 363.58,71.73 365.86,71.73 C368.15,71.73 370,73.58 370,75.86 C370,78.15 368.15,80 365.86,80 C363.58,80 361.73,78.15 361.73,75.86 Z" style="stroke-width: 1; stroke: none; stroke-opacity: 1; fill: rgb(0, 0, 0); fill-opacity: 1;"/></g><g class="composite-shape"><path class="real" d=" M350,84.14 C350,81.85 351.85,80 354.14,80 C356.42,80 358.27,81.85 358.27,84.14 C358.27,86.42 356.42,88.27 354.14,88.27 C351.85,88.27 350,86.42 350,84.14 Z" style="stroke-width: 1; stroke: none; stroke-opacity: 1; fill: rgb(0, 0, 0); fill-opacity: 1;"/></g><g class="composite-shape"><path class="real" d=" M374.14,100.5 C374.14,98.22 375.99,96.36 378.27,96.36 C380.56,96.36 382.41,98.22 382.41,100.5 C382.41,102.78 380.56,104.64 378.27,104.64 C375.99,104.64 374.14,102.78 374.14,100.5 Z" style="stroke-width: 1; stroke: none; stroke-opacity: 1; fill: rgb(0, 0, 0); fill-opacity: 1;"/></g><g class="composite-shape"><path class="real" d=" M31.73,45.86 C31.73,43.58 33.58,41.73 35.86,41.73 C38.15,41.73 40,43.58 40,45.86 C40,48.15 38.15,50 35.86,50 C33.58,50 31.73,48.15 31.73,45.86 Z" style="stroke-width: 1; stroke: none; stroke-opacity: 1; fill: rgb(0, 0, 0); fill-opacity: 1;"/></g><g class="composite-shape"><path class="real" d=" M31.73,75.86 C31.73,73.58 33.58,71.73 35.86,71.73 C38.15,71.73 40,73.58 40,75.86 C40,78.15 38.15,80 35.86,80 C33.58,80 31.73,78.15 31.73,75.86 Z" style="stroke-width: 1; stroke: none; stroke-opacity: 1; fill: rgb(74, 144, 226); fill-opacity: 1;"/></g><g class="composite-shape"><path class="real" d=" M31.73,105.86 C31.73,103.58 33.58,101.73 35.86,101.73 C38.15,101.73 40,103.58 40,105.86 C40,108.15 38.15,110 35.86,110 C33.58,110 31.73,108.15 31.73,105.86 Z" style="stroke-width: 1; stroke: none; stroke-opacity: 1; fill: rgb(255, 142, 0); fill-opacity: 1;"/></g><g/></g><g/><g/><g/></svg>
        <svg xmlns="http://www.w3.org/2000/svg" xmlns:xlink="http://www.w3.org/1999/xlink" width="660" height="300" style="width:660px;height:300px;font-family:Asana-Math, Asana;background:#FFF;"><g><g><g><g transform="matrix(1,0,0,1,301.66668701171875,25.333343505859375)"><path transform="matrix(0.015,0,0,-0.015,0,0)" d="M42 27C42 16 47 0 80 0L117 0C174 0 172 27 216 151L501 151C546 24 545 0 600 0L653 0C655 0 690 -2 690 27C690 33 688 38 686 44L479 634C469 663 462 694 411 694L321 694C279 694 267 674 258 648L46 46C44 40 42 33 42 27ZM246 237C269 303 345 518 359 569C368 535 379 502 471 237ZM793 45C793 5 815 0 841 0L882 0C925 2 927 22 927 49L927 677C927 714 906 722 881 722L835 722C807 722 793 704 793 675ZM1048 45C1048 5 1070 0 1096 0L1137 0C1180 2 1182 22 1182 49L1182 677C1182 714 1161 722 1136 722L1090 722C1062 722 1048 704 1048 675ZM1670 347C1670 124 1773 -23 2037 -23C2121 -23 2165 -13 2231 24C2243 31 2255 35 2255 51C2255 56 2254 60 2251 96C2248 123 2248 142 2236 142C2206 142 2186 78 2042 78C1858 78 1812 201 1812 348C1812 490 1857 616 2038 616C2153 616 2194 551 2213 551C2220 551 2224 559 2228 580C2239 640 2243 658 2243 666C2243 670 2242 672 2240 676C2233 683 2234 682 2217 688C2157 706 2118 717 2039 717C1849 717 1670 643 1670 347ZM2343 137C2343 69 2393 -11 2489 -11C2571 -11 2621 23 2643 40C2643 23 2652 0 2684 0L2732 0C2772 0 2777 23 2777 45L2777 308C2777 408 2731 475 2570 475C2507 475 2458 463 2413 443C2391 432 2385 433 2385 417C2385 417 2388 352 2395 340L2399 337L2403 336C2425 337 2455 405 2570 405C2633 405 2641 359 2641 312L2641 291C2552 290 2343 273 2343 137ZM2474 137C2474 215 2580 227 2641 232L2641 154C2641 80 2576 62 2543 62C2500 62 2474 101 2474 137ZM2869 50C2869 47 2870 45 2871 42L2875 37C2900 21 2965 -11 3054 -11C3153 -11 3234 19 3234 140C3234 221 3174 261 3146 275C3084 307 2973 295 2973 354C2973 392 3006 402 3047 402C3144 402 3171 348 3192 348C3197 348 3201 352 3204 363C3210 397 3214 415 3214 426C3214 440 3208 443 3190 450C3153 465 3115 474 3068 475L3042 475C2958 473 2874 446 2874 331C2874 250 2941 210 2978 196C3035 175 3134 183 3134 121C3134 79 3101 68 3056 68C2949 68 2913 143 2895 143C2883 143 2882 127 2881 120C2873 76 2869 59 2869 50ZM3290 233C3290 74 3377 -11 3544 -11C3613 -11 3675 9 3717 33C3729 40 3733 44 3733 55C3733 55 3733 114 3722 125L3717 127L3713 127C3693 121 3646 62 3546 62C3444 62 3421 136 3419 214L3695 214C3713 214 3739 216 3739 257C3739 364 3697 475 3530 475C3386 475 3290 401 3290 233ZM3420 279C3426 341 3450 402 3530 402C3608 402 3624 346 3627 279ZM3802 50C3802 47 3803 45 3804 42L3808 37C3833 21 3898 -11 3987 -11C4086 -11 4167 19 4167 140C4167 221 4107 261 4079 275C4017 307 3906 295 3906 354C3906 392 3939 402 3980 402C4077 402 4104 348 4125 348C4130 348 4134 352 4137 363C4143 397 4147 415 4147 426C4147 440 4141 443 4123 450C4086 465 4048 474 4001 475L3975 475C3891 473 3807 446 3807 331C3807 250 3874 210 3911 196C3968 175 4067 183 4067 121C4067 79 4034 68 3989 68C3882 68 3846 143 3828 143C3816 143 3815 127 3814 120C3806 76 3802 59 3802 50Z" stroke="rgb(0,0,0)" stroke-opacity="1" stroke-width="8" fill="rgb(0,0,0)" fill-opacity="1"></path></g></g><g><text x="364.5625" y="12.333343505859375" style="white-space:pre;stroke:none;fill:rgb(0,0,0);fill-opacity:1;font-size:15px;font-family:Arial, Helvetica, sans-serif;font-weight:700;font-style:normal;dominant-baseline:text-before-edge;text-decoration:none solid rgb(0, 0, 0);"> </text></g></g></g><g><g><g><g transform="matrix(1,0,0,1,395.66668701171875,114.3)"><path transform="matrix(0.015300000000000001,0,0,-0.015300000000000001,0,0)" d="M413 469L254 104C251 113 166 397 166 405C166 420 179 428 204 429L244 431L244 459C145 456 145 456 125 456C105 456 105 456 6 459L6 431L34 429C62 427 75 407 100 329L202 -7L249 -7L399 335L535 -7L581 -7L718 342C748 409 760 426 782 429L808 431L808 459C726 456 726 456 710 456C694 456 694 456 612 459L612 431L646 429C671 428 685 416 685 398L580 98L465 388C451 422 444 442 436 469Z" stroke="rgb(0,0,0)" stroke-opacity="1" stroke-width="24" fill="rgb(0,0,0)" fill-opacity="1"></path></g></g></g></g><g><g><g><svg x="388.26043701171875" overflow="visible" y="266.85418701171875" height="21.98958396911621" width="5.9479169845581055"><path d=" M 5.84 1.19 c 0.00 -0.02 -0.04 -0.04 -0.08 -0.04 c -0.11 0.00 -0.31 0.06 -0.36 0.08 c -2.12 0.75 -2.51 2.33 -2.51 5.19 v 0.42 h 1.13 v -0.90 c 0.00 -1.54 0.08 -3.61 1.49 -4.54 c 0.10 -0.07 0.33 -0.15 0.33 -0.21 z  M 2.89 6.42 v 1.88 h 1.13 v -1.88 z  M 4.02 8.30 h -1.13 v 0.41 c 0.00 2.08 -1.92 2.56 -1.93 2.56 v 0.02 c 0.01 0.00 1.93 0.52 1.93 2.59 h 1.13 c 0.00 -0.74 -0.06 -2.01 -2.07 -2.59 c 2.01 -0.56 2.07 -1.84 2.07 -2.59 v -0.41 z  M 2.89 13.69 v 1.88 h 1.13 v -1.88 z" style="fill:rgb(0,0,0);fill-opacity:1;stroke-width:1px;stroke:none;stroke-opacity:1;"></path><path d=" M 5.84 20.80 c 0.00 0.02 -0.04 0.04 -0.08 0.04 c -0.11 0.00 -0.31 -0.06 -0.36 -0.08 c -2.12 -0.75 -2.51 -2.33 -2.51 -5.19 v -0.42 h 1.13 v 0.90 c 0.00 1.54 0.08 3.61 1.49 4.54 c 0.10 0.07 0.33 0.15 0.33 0.21 z" style="fill:rgb(0,0,0);fill-opacity:1;stroke-width:1px;stroke:none;stroke-opacity:1;"></path></svg></g><g><g transform="matrix(1,0,0,1,394.80206298828125,280.7541870117187)"><path transform="matrix(0.0119,0,0,-0.0119,0,0)" d="M9 1C24 -7 40 -11 52 -11C85 -11 124 18 155 65L231 182L242 113C255 28 278 -11 314 -11C336 -11 368 6 400 35L449 79L440 98C404 68 379 53 363 53C348 53 335 63 325 83C316 102 305 139 300 168L282 269L317 318C364 383 391 406 422 406C438 406 450 398 455 383L469 387L484 472C472 479 463 482 454 482C414 482 374 446 312 354L275 299L269 347C257 446 230 482 171 482C145 482 123 474 114 461L56 378L73 368C103 402 123 416 142 416C175 416 197 375 214 277L225 215L185 153C142 86 108 54 80 54C65 54 54 58 52 63L41 91L21 88C21 53 13 27 9 1Z" stroke="rgb(0,0,0)" stroke-opacity="1" stroke-width="8" fill="rgb(0,0,0)" fill-opacity="1"></path></g></g><g><g transform="matrix(1,0,0,1,403.11456298828125,280.7541870117187)"><path transform="matrix(0.0119,0,0,-0.0119,0,0)" d="M123 111C93 111 66 83 66 53C66 23 93 -5 122 -5C154 -5 182 22 182 53C182 83 154 111 123 111ZM123 456C93 456 66 428 66 398C66 368 93 340 122 340C154 340 182 367 182 397C182 428 154 456 123 456Z" stroke="rgb(0,0,0)" stroke-opacity="1" stroke-width="8" fill="rgb(0,0,0)" fill-opacity="1"></path></g></g><g><g transform="matrix(1,0,0,1,408.45831298828125,280.7541870117187)"><path transform="matrix(0.0119,0,0,-0.0119,0,0)" d="M167 420C188 420 201 421 226 424C171 350 72 266 72 126C72 44 107 -11 160 -11C224 -11 276 44 350 187C341 143 338 118 338 95C338 32 367 -11 412 -11C546 -11 699 238 699 384C699 441 673 482 637 482C624 482 612 478 604 470L554 423L565 404C574 410 583 413 592 413C619 413 635 390 635 350C635 205 538 39 453 39C424 39 403 79 403 134C403 181 412 247 424 290L476 474L469 482L395 460L366 311C354 249 340 209 311 155C271 80 233 39 203 39C168 39 145 78 145 136C145 255 186 352 285 464L275 482C255 473 242 470 214 470C186 470 144 472 115 475L103 476C97 477 92 477 91 477C79 477 70 475 59 470C45 443 34 407 21 352L43 352L60 394C67 411 87 422 111 422C145 422 128 420 167 420Z" stroke="rgb(0,0,0)" stroke-opacity="1" stroke-width="8" fill="rgb(0,0,0)" fill-opacity="1"></path></g></g><g><g><g><g><g transform="matrix(1,0,0,1,417.70831298828125,276.72584350585936)"><path transform="matrix(0.00833,0,0,-0.00833,0,0)" d="M390 646L463 646C541 646 577 641 580 629C583 621 585 602 584 592L580 528L608 528L635 692L544 691C456 690 388 689 353 689C316 689 252 690 166 691L71 692L53 528L82 528L97 588C102 610 109 626 115 633C121 640 159 646 196 646L308 646L222 125C206 34 204 31 164 28L113 25L109 -3L166 -2C206 -1 235 0 251 0C270 0 301 -1 340 -2L384 -3L387 25L328 28C302 29 292 37 292 58C292 67 293 74 296 93Z" stroke="rgb(0,0,0)" stroke-opacity="1" stroke-width="8" fill="rgb(0,0,0)" fill-opacity="1"></path></g></g></g></g></g><g><g transform="matrix(1,0,0,1,423.5,280.7541870117187)"><path transform="matrix(0.0119,0,0,-0.0119,0,0)" d="M9 1C24 -7 40 -11 52 -11C85 -11 124 18 155 65L231 182L242 113C255 28 278 -11 314 -11C336 -11 368 6 400 35L449 79L440 98C404 68 379 53 363 53C348 53 335 63 325 83C316 102 305 139 300 168L282 269L317 318C364 383 391 406 422 406C438 406 450 398 455 383L469 387L484 472C472 479 463 482 454 482C414 482 374 446 312 354L275 299L269 347C257 446 230 482 171 482C145 482 123 474 114 461L56 378L73 368C103 402 123 416 142 416C175 416 197 375 214 277L225 215L185 153C142 86 108 54 80 54C65 54 54 58 52 63L41 91L21 88C21 53 13 27 9 1Z" stroke="rgb(0,0,0)" stroke-opacity="1" stroke-width="8" fill="rgb(0,0,0)" fill-opacity="1"></path></g></g><g><g transform="matrix(1,0,0,1,433,280.7541870117187)"><path transform="matrix(0.0119,0,0,-0.0119,0,0)" d="M604 347L604 406L65 406L65 347ZM604 134L604 193L65 193L65 134Z" stroke="rgb(0,0,0)" stroke-opacity="1" stroke-width="8" fill="rgb(0,0,0)" fill-opacity="1"></path></g></g><g><g transform="matrix(1,0,0,1,446.88543701171875,280.7541870117187)"><path transform="matrix(0.0119,0,0,-0.0119,0,0)" d="M555 243L555 299L51 299L51 243Z" stroke="rgb(0,0,0)" stroke-opacity="1" stroke-width="8" fill="rgb(0,0,0)" fill-opacity="1"></path></g></g><g><g transform="matrix(1,0,0,1,456.45831298828125,280.7541870117187)"><path transform="matrix(0.0119,0,0,-0.0119,0,0)" d="M418 -3L418 27L366 30C311 33 301 44 301 96L301 700L60 598L67 548L217 614L217 96C217 44 206 33 152 30L96 27L96 -3C250 0 250 0 261 0C292 0 402 -3 418 -3Z" stroke="rgb(0,0,0)" stroke-opacity="1" stroke-width="8" fill="rgb(0,0,0)" fill-opacity="1"></path></g></g><g><svg x="462.98956298828125" overflow="visible" y="266.85418701171875" height="21.98958396911621" width="5.9479169845581055"><path d=" M 0.11 1.19 c 0.00 -0.02 0.04 -0.04 0.08 -0.04 c 0.11 0.00 0.31 0.06 0.36 0.08 c 2.12 0.75 2.51 2.33 2.51 5.19 v 0.42 h -1.13 v -0.90 c 0.00 -1.54 -0.08 -3.61 -1.49 -4.54 c -0.10 -0.07 -0.33 -0.15 -0.33 -0.21 z   M 3.06 6.42 v 1.88 h -1.13 v -1.88 z  M 1.93 8.30 h 1.13 v 0.41 c 0.00 2.08 1.92 2.56 1.93 2.56 v 0.02 c -0.01 0.00 -1.93 0.52 -1.93 2.59 h -1.13 c 0.00 -0.74 0.06 -2.01 2.07 -2.59 c -2.01 -0.56 -2.07 -1.84 -2.07 -2.59 v -0.41 z  M 3.06 13.69 v 1.88 h -1.13 v -1.88 z" style="fill:rgb(0,0,0);fill-opacity:1;stroke-width:1px;stroke:none;stroke-opacity:1;"></path><path d=" M 0.11 20.80 c 0.00 0.02 0.04 0.04 0.08 0.04 c 0.11 0.00 0.31 -0.06 0.36 -0.08 c 2.12 -0.75 2.51 -2.33 2.51 -5.19 v -0.42 h -1.13 v 0.90 c 0.00 1.54 -0.08 3.61 -1.49 4.54 c -0.10 0.07 -0.33 0.15 -0.33 0.21 z" style="fill:rgb(0,0,0);fill-opacity:1;stroke-width:1px;stroke:none;stroke-opacity:1;"></path></svg></g></g></g><g><g><g><svg x="438.26043701171875" overflow="visible" y="216.85418701171875" height="21.98958396911621" width="5.9479169845581055"><path d=" M 5.84 1.19 c 0.00 -0.02 -0.04 -0.04 -0.08 -0.04 c -0.11 0.00 -0.31 0.06 -0.36 0.08 c -2.12 0.75 -2.51 2.33 -2.51 5.19 v 0.42 h 1.13 v -0.90 c 0.00 -1.54 0.08 -3.61 1.49 -4.54 c 0.10 -0.07 0.33 -0.15 0.33 -0.21 z  M 2.89 6.42 v 1.88 h 1.13 v -1.88 z  M 4.02 8.30 h -1.13 v 0.41 c 0.00 2.08 -1.92 2.56 -1.93 2.56 v 0.02 c 0.01 0.00 1.93 0.52 1.93 2.59 h 1.13 c 0.00 -0.74 -0.06 -2.01 -2.07 -2.59 c 2.01 -0.56 2.07 -1.84 2.07 -2.59 v -0.41 z  M 2.89 13.69 v 1.88 h 1.13 v -1.88 z" style="fill:rgb(0,0,0);fill-opacity:1;stroke-width:1px;stroke:none;stroke-opacity:1;"></path><path d=" M 5.84 20.80 c 0.00 0.02 -0.04 0.04 -0.08 0.04 c -0.11 0.00 -0.31 -0.06 -0.36 -0.08 c -2.12 -0.75 -2.51 -2.33 -2.51 -5.19 v -0.42 h 1.13 v 0.90 c 0.00 1.54 0.08 3.61 1.49 4.54 c 0.10 0.07 0.33 0.15 0.33 0.21 z" style="fill:rgb(0,0,0);fill-opacity:1;stroke-width:1px;stroke:none;stroke-opacity:1;"></path></svg></g><g><g transform="matrix(1,0,0,1,444.80206298828125,230.75418701171876)"><path transform="matrix(0.0119,0,0,-0.0119,0,0)" d="M9 1C24 -7 40 -11 52 -11C85 -11 124 18 155 65L231 182L242 113C255 28 278 -11 314 -11C336 -11 368 6 400 35L449 79L440 98C404 68 379 53 363 53C348 53 335 63 325 83C316 102 305 139 300 168L282 269L317 318C364 383 391 406 422 406C438 406 450 398 455 383L469 387L484 472C472 479 463 482 454 482C414 482 374 446 312 354L275 299L269 347C257 446 230 482 171 482C145 482 123 474 114 461L56 378L73 368C103 402 123 416 142 416C175 416 197 375 214 277L225 215L185 153C142 86 108 54 80 54C65 54 54 58 52 63L41 91L21 88C21 53 13 27 9 1Z" stroke="rgb(0,0,0)" stroke-opacity="1" stroke-width="8" fill="rgb(0,0,0)" fill-opacity="1"></path></g></g><g><g transform="matrix(1,0,0,1,453.11456298828125,230.75418701171876)"><path transform="matrix(0.0119,0,0,-0.0119,0,0)" d="M123 111C93 111 66 83 66 53C66 23 93 -5 122 -5C154 -5 182 22 182 53C182 83 154 111 123 111ZM123 456C93 456 66 428 66 398C66 368 93 340 122 340C154 340 182 367 182 397C182 428 154 456 123 456Z" stroke="rgb(0,0,0)" stroke-opacity="1" stroke-width="8" fill="rgb(0,0,0)" fill-opacity="1"></path></g></g><g><g transform="matrix(1,0,0,1,458.45831298828125,230.75418701171876)"><path transform="matrix(0.0119,0,0,-0.0119,0,0)" d="M167 420C188 420 201 421 226 424C171 350 72 266 72 126C72 44 107 -11 160 -11C224 -11 276 44 350 187C341 143 338 118 338 95C338 32 367 -11 412 -11C546 -11 699 238 699 384C699 441 673 482 637 482C624 482 612 478 604 470L554 423L565 404C574 410 583 413 592 413C619 413 635 390 635 350C635 205 538 39 453 39C424 39 403 79 403 134C403 181 412 247 424 290L476 474L469 482L395 460L366 311C354 249 340 209 311 155C271 80 233 39 203 39C168 39 145 78 145 136C145 255 186 352 285 464L275 482C255 473 242 470 214 470C186 470 144 472 115 475L103 476C97 477 92 477 91 477C79 477 70 475 59 470C45 443 34 407 21 352L43 352L60 394C67 411 87 422 111 422C145 422 128 420 167 420Z" stroke="rgb(0,0,0)" stroke-opacity="1" stroke-width="8" fill="rgb(0,0,0)" fill-opacity="1"></path></g></g><g><g><g><g><g transform="matrix(1,0,0,1,467.70831298828125,226.7258435058594)"><path transform="matrix(0.00833,0,0,-0.00833,0,0)" d="M390 646L463 646C541 646 577 641 580 629C583 621 585 602 584 592L580 528L608 528L635 692L544 691C456 690 388 689 353 689C316 689 252 690 166 691L71 692L53 528L82 528L97 588C102 610 109 626 115 633C121 640 159 646 196 646L308 646L222 125C206 34 204 31 164 28L113 25L109 -3L166 -2C206 -1 235 0 251 0C270 0 301 -1 340 -2L384 -3L387 25L328 28C302 29 292 37 292 58C292 67 293 74 296 93Z" stroke="rgb(0,0,0)" stroke-opacity="1" stroke-width="8" fill="rgb(0,0,0)" fill-opacity="1"></path></g></g></g></g></g><g><g transform="matrix(1,0,0,1,473.5,230.75418701171876)"><path transform="matrix(0.0119,0,0,-0.0119,0,0)" d="M9 1C24 -7 40 -11 52 -11C85 -11 124 18 155 65L231 182L242 113C255 28 278 -11 314 -11C336 -11 368 6 400 35L449 79L440 98C404 68 379 53 363 53C348 53 335 63 325 83C316 102 305 139 300 168L282 269L317 318C364 383 391 406 422 406C438 406 450 398 455 383L469 387L484 472C472 479 463 482 454 482C414 482 374 446 312 354L275 299L269 347C257 446 230 482 171 482C145 482 123 474 114 461L56 378L73 368C103 402 123 416 142 416C175 416 197 375 214 277L225 215L185 153C142 86 108 54 80 54C65 54 54 58 52 63L41 91L21 88C21 53 13 27 9 1Z" stroke="rgb(0,0,0)" stroke-opacity="1" stroke-width="8" fill="rgb(0,0,0)" fill-opacity="1"></path></g></g><g><g transform="matrix(1,0,0,1,483,230.75418701171876)"><path transform="matrix(0.0119,0,0,-0.0119,0,0)" d="M604 347L604 406L65 406L65 347ZM604 134L604 193L65 193L65 134Z" stroke="rgb(0,0,0)" stroke-opacity="1" stroke-width="8" fill="rgb(0,0,0)" fill-opacity="1"></path></g></g><g><g transform="matrix(1,0,0,1,494.51043701171875,230.75418701171876)"><path transform="matrix(0.0119,0,0,-0.0119,0,0)" d="M418 -3L418 27L366 30C311 33 301 44 301 96L301 700L60 598L67 548L217 614L217 96C217 44 206 33 152 30L96 27L96 -3C250 0 250 0 261 0C292 0 402 -3 418 -3Z" stroke="rgb(0,0,0)" stroke-opacity="1" stroke-width="8" fill="rgb(0,0,0)" fill-opacity="1"></path></g></g><g><svg x="501.04168701171875" overflow="visible" y="216.85418701171875" height="21.98958396911621" width="5.9479169845581055"><path d=" M 0.11 1.19 c 0.00 -0.02 0.04 -0.04 0.08 -0.04 c 0.11 0.00 0.31 0.06 0.36 0.08 c 2.12 0.75 2.51 2.33 2.51 5.19 v 0.42 h -1.13 v -0.90 c 0.00 -1.54 -0.08 -3.61 -1.49 -4.54 c -0.10 -0.07 -0.33 -0.15 -0.33 -0.21 z   M 3.06 6.42 v 1.88 h -1.13 v -1.88 z  M 1.93 8.30 h 1.13 v 0.41 c 0.00 2.08 1.92 2.56 1.93 2.56 v 0.02 c -0.01 0.00 -1.93 0.52 -1.93 2.59 h -1.13 c 0.00 -0.74 0.06 -2.01 2.07 -2.59 c -2.01 -0.56 -2.07 -1.84 -2.07 -2.59 v -0.41 z  M 3.06 13.69 v 1.88 h -1.13 v -1.88 z" style="fill:rgb(0,0,0);fill-opacity:1;stroke-width:1px;stroke:none;stroke-opacity:1;"></path><path d=" M 0.11 20.80 c 0.00 0.02 0.04 0.04 0.08 0.04 c 0.11 0.00 0.31 -0.06 0.36 -0.08 c 2.12 -0.75 2.51 -2.33 2.51 -5.19 v -0.42 h -1.13 v 0.90 c 0.00 1.54 -0.08 3.61 -1.49 4.54 c -0.10 0.07 -0.33 0.15 -0.33 0.21 z" style="fill:rgb(0,0,0);fill-opacity:1;stroke-width:1px;stroke:none;stroke-opacity:1;"></path></svg></g></g></g><g><g><g><g transform="matrix(1,0,0,1,51.666656494140625,50.25625)"><path transform="matrix(0.0136,0,0,-0.0136,0,0)" d="M400 -16C446 -16 513 54 545 84L545 97L532 97C513 79 489 55 462 55C417 55 424 184 424 216C474 278 520 343 558 413C551 428 544 444 536 459L525 459C511 391 456 315 420 257C422 336 445 472 332 473C164 473 27 243 24 93C23 33 43 -16 111 -16C203 -16 297 64 357 131C357 96 348 -15 400 -16ZM284 437C371 437 358 224 357 164C314 113 233 28 162 28C109 28 98 70 99 115C100 202 175 437 284 437Z" stroke="rgb(0,0,0)" stroke-opacity="1" stroke-width="24" fill="rgb(0,0,0)" fill-opacity="1"></path></g></g><g><g><g><g><g transform="matrix(1,0,0,1,60.53125,44.186687011718746)"><path transform="matrix(0.009519999999999999,0,0,-0.009519999999999999,0,0)" d="M168 267L37 213L32 204L68 153L78 153L184 241L202 99L212 95L280 121L280 131L212 253L350 233L359 241L359 303L353 307L214 283L283 408L280 423L218 442L209 438L183 295L88 393L78 393L34 341L37 331Z" stroke="rgb(0,0,0)" stroke-opacity="1" stroke-width="24" fill="rgb(0,0,0)" fill-opacity="1"></path></g></g></g></g><g><g><g><g transform="matrix(1,0,0,1,60.15625,53.97834350585937)"><path transform="matrix(0.009519999999999999,0,0,-0.009519999999999999,0,0)" d="M188 465L179 469C128 448 76 434 23 428L23 400L60 400C100 400 104 393 104 327L104 102C104 39 101 32 67 30L21 27L21 -3C121 0 121 0 146 0C171 0 171 0 271 -3L271 27L225 30C191 32 188 39 188 102ZM142 687C112 687 86 661 86 631C86 602 112 576 141 576C170 576 197 602 197 631C197 659 170 687 142 687Z" stroke="rgb(0,0,0)" stroke-opacity="1" stroke-width="24" fill="rgb(0,0,0)" fill-opacity="1"></path></g></g></g></g></g><g><g transform="matrix(1,0,0,1,65.04165649414062,50.25625)"><path transform="matrix(0.0136,0,0,-0.0136,0,0)" d="" stroke="rgb(0,0,0)" stroke-opacity="1" stroke-width="24" fill="rgb(0,0,0)" fill-opacity="1"></path></g></g><g><g transform="matrix(1,0,0,1,72.5,50.25625)"><path transform="matrix(0.0136,0,0,-0.0136,0,0)" d="M604 347L604 406L65 406L65 347ZM604 134L604 193L65 193L65 134Z" stroke="rgb(0,0,0)" stroke-opacity="1" stroke-width="24" fill="rgb(0,0,0)" fill-opacity="1"></path></g></g><g><g transform="matrix(1,0,0,1,85.65625,50.25625)"><path transform="matrix(0.0136,0,0,-0.0136,0,0)" d="M512 689C357 689 278 566 278 324C278 207 299 106 334 57C369 8 425 -20 487 -20C638 -20 714 110 714 366C714 585 649 689 512 689ZM494 654C591 654 630 556 630 316C630 103 592 15 500 15C403 15 362 116 362 360C362 571 399 654 494 654Z" stroke="rgb(0,0,0)" stroke-opacity="1" stroke-width="24" fill="rgb(0,0,0)" fill-opacity="1"></path></g></g></g></g><g><g><g><g transform="matrix(1,0,0,1,51.666656494140625,80.25625)"><path transform="matrix(0.0136,0,0,-0.0136,0,0)" d="M400 -16C446 -16 513 54 545 84L545 97L532 97C513 79 489 55 462 55C417 55 424 184 424 216C474 278 520 343 558 413C551 428 544 444 536 459L525 459C511 391 456 315 420 257C422 336 445 472 332 473C164 473 27 243 24 93C23 33 43 -16 111 -16C203 -16 297 64 357 131C357 96 348 -15 400 -16ZM284 437C371 437 358 224 357 164C314 113 233 28 162 28C109 28 98 70 99 115C100 202 175 437 284 437Z" stroke="rgb(0,0,0)" stroke-opacity="1" stroke-width="24" fill="rgb(0,0,0)" fill-opacity="1"></path></g></g><g><g><g><g><g transform="matrix(1,0,0,1,60.53125,74.18668701171875)"><path transform="matrix(0.009519999999999999,0,0,-0.009519999999999999,0,0)" d="M168 267L37 213L32 204L68 153L78 153L184 241L202 99L212 95L280 121L280 131L212 253L350 233L359 241L359 303L353 307L214 283L283 408L280 423L218 442L209 438L183 295L88 393L78 393L34 341L37 331Z" stroke="rgb(0,0,0)" stroke-opacity="1" stroke-width="24" fill="rgb(0,0,0)" fill-opacity="1"></path></g></g></g></g><g><g><g><g transform="matrix(1,0,0,1,60.15625,83.97834350585937)"><path transform="matrix(0.009519999999999999,0,0,-0.009519999999999999,0,0)" d="M188 465L179 469C128 448 76 434 23 428L23 400L60 400C100 400 104 393 104 327L104 102C104 39 101 32 67 30L21 27L21 -3C121 0 121 0 146 0C171 0 171 0 271 -3L271 27L225 30C191 32 188 39 188 102ZM142 687C112 687 86 661 86 631C86 602 112 576 141 576C170 576 197 602 197 631C197 659 170 687 142 687Z" stroke="rgb(0,0,0)" stroke-opacity="1" stroke-width="24" fill="rgb(0,0,0)" fill-opacity="1"></path></g></g></g></g></g><g><g transform="matrix(1,0,0,1,65.04165649414062,80.25625)"><path transform="matrix(0.0136,0,0,-0.0136,0,0)" d="" stroke="rgb(0,0,0)" stroke-opacity="1" stroke-width="24" fill="rgb(0,0,0)" fill-opacity="1"></path></g></g><g><g transform="matrix(1,0,0,1,72.5,80.25625)"><path transform="matrix(0.0136,0,0,-0.0136,0,0)" d="M604 347L604 406L65 406L65 347ZM604 134L604 193L65 193L65 134Z" stroke="rgb(0,0,0)" stroke-opacity="1" stroke-width="24" fill="rgb(0,0,0)" fill-opacity="1"></path></g></g><g><g transform="matrix(1,0,0,1,85.65625,80.25625)"><path transform="matrix(0.0136,0,0,-0.0136,0,0)" d="M271 342C271 126 429 -20 664 -20C747 -20 822 -2 891 34L919 84L910 94C848 54 779 34 703 34C508 34 378 164 378 361C378 545 492 667 664 667C762 667 863 627 863 588L863 516L894 516C895 566 899 602 913 668C828 696 755 709 682 709C467 709 271 582 271 342Z" stroke="rgb(0,0,0)" stroke-opacity="1" stroke-width="24" fill="rgb(0,0,0)" fill-opacity="1"></path></g></g></g></g><g><g><g><g transform="matrix(1,0,0,1,51.666656494140625,111.25625)"><path transform="matrix(0.0136,0,0,-0.0136,0,0)" d="M400 -16C446 -16 513 54 545 84L545 97L532 97C513 79 489 55 462 55C417 55 424 184 424 216C474 278 520 343 558 413C551 428 544 444 536 459L525 459C511 391 456 315 420 257C422 336 445 472 332 473C164 473 27 243 24 93C23 33 43 -16 111 -16C203 -16 297 64 357 131C357 96 348 -15 400 -16ZM284 437C371 437 358 224 357 164C314 113 233 28 162 28C109 28 98 70 99 115C100 202 175 437 284 437Z" stroke="rgb(0,0,0)" stroke-opacity="1" stroke-width="24" fill="rgb(0,0,0)" fill-opacity="1"></path></g></g><g><g><g><g><g transform="matrix(1,0,0,1,60.53125,105.18668701171875)"><path transform="matrix(0.009519999999999999,0,0,-0.009519999999999999,0,0)" d="M168 267L37 213L32 204L68 153L78 153L184 241L202 99L212 95L280 121L280 131L212 253L350 233L359 241L359 303L353 307L214 283L283 408L280 423L218 442L209 438L183 295L88 393L78 393L34 341L37 331Z" stroke="rgb(0,0,0)" stroke-opacity="1" stroke-width="24" fill="rgb(0,0,0)" fill-opacity="1"></path></g></g></g></g><g><g><g><g transform="matrix(1,0,0,1,60.15625,114.97834350585937)"><path transform="matrix(0.009519999999999999,0,0,-0.009519999999999999,0,0)" d="M188 465L179 469C128 448 76 434 23 428L23 400L60 400C100 400 104 393 104 327L104 102C104 39 101 32 67 30L21 27L21 -3C121 0 121 0 146 0C171 0 171 0 271 -3L271 27L225 30C191 32 188 39 188 102ZM142 687C112 687 86 661 86 631C86 602 112 576 141 576C170 576 197 602 197 631C197 659 170 687 142 687Z" stroke="rgb(0,0,0)" stroke-opacity="1" stroke-width="24" fill="rgb(0,0,0)" fill-opacity="1"></path></g></g></g></g></g><g><g transform="matrix(1,0,0,1,65.04165649414062,111.25625)"><path transform="matrix(0.0136,0,0,-0.0136,0,0)" d="" stroke="rgb(0,0,0)" stroke-opacity="1" stroke-width="24" fill="rgb(0,0,0)" fill-opacity="1"></path></g></g><g><g transform="matrix(1,0,0,1,72.5,111.25625)"><path transform="matrix(0.0136,0,0,-0.0136,0,0)" d="M509 8L509 61L309 61C215 61 122 139 109 244L492 244L492 297L109 297C121 397 204 480 309 480L509 480L509 533L314 533C167 533 55 411 55 271C55 131 167 8 314 8Z" stroke="rgb(0,0,0)" stroke-opacity="1" stroke-width="24" fill="rgb(0,0,0)" fill-opacity="1"></path></g></g><g><g transform="matrix(1,0,0,1,84.22915649414062,111.25625)"><path transform="matrix(0.0136,0,0,-0.0136,0,0)" d="" stroke="rgb(0,0,0)" stroke-opacity="1" stroke-width="24" fill="rgb(0,0,0)" fill-opacity="1"></path></g></g><g><g transform="matrix(1,0,0,1,87.61456298828125,111.25625)"><path transform="matrix(0.0136,0,0,-0.0136,0,0)" d="M88 -184C88 -184 182 -183 182 -183C182 -183 282 -184 282 -184L288 -178L288 -152L284 -147L246 -147C219 -147 197 -141 185 -131C176 -122 173 -108 173 -75L173 616C173 649 176 664 185 673C197 683 219 689 246 689L284 689L288 694L288 720L282 726L188 723L88 726C84 717 83 706 83 691C83 665 87 628 87 578L87 -44C87 -112 85 -140 79 -171Z" stroke="rgb(0,0,0)" stroke-opacity="1" stroke-width="24" fill="rgb(0,0,0)" fill-opacity="1"></path></g></g><g><g transform="matrix(1,0,0,1,92.13540649414062,111.25625)"><path transform="matrix(0.0136,0,0,-0.0136,0,0)" d="M263 689C108 689 29 566 29 324C29 207 50 106 85 57C120 8 176 -20 238 -20C389 -20 465 110 465 366C465 585 400 689 263 689ZM245 654C342 654 381 556 381 316C381 103 343 15 251 15C154 15 113 116 113 360C113 571 150 654 245 654Z" stroke="rgb(0,0,0)" stroke-opacity="1" stroke-width="24" fill="rgb(0,0,0)" fill-opacity="1"></path></g></g><g><g transform="matrix(1,0,0,1,98.92706298828125,111.25625)"><path transform="matrix(0.0136,0,0,-0.0136,0,0)" d="M204 123C177 114 159 108 106 93C99 17 74 -48 16 -144L30 -155L71 -136C152 -31 190 32 218 109Z" stroke="rgb(0,0,0)" stroke-opacity="1" stroke-width="24" fill="rgb(0,0,0)" fill-opacity="1"></path></g></g><g><g transform="matrix(1,0,0,1,105.03125,111.25625)"><path transform="matrix(0.0136,0,0,-0.0136,0,0)" d="M22 342C22 126 180 -20 415 -20C498 -20 573 -2 642 34L670 84L661 94C599 54 530 34 454 34C259 34 129 164 129 361C129 545 243 667 415 667C513 667 614 627 614 588L614 516L645 516C646 566 650 602 664 668C579 696 506 709 433 709C218 709 22 582 22 342Z" stroke="rgb(0,0,0)" stroke-opacity="1" stroke-width="24" fill="rgb(0,0,0)" fill-opacity="1"></path></g></g><g><g transform="matrix(1,0,0,1,114.65625,111.25625)"><path transform="matrix(0.0136,0,0,-0.0136,0,0)" d="M245 -184L254 -171C248 -140 246 -112 246 -44L246 578C246 628 250 665 250 691C250 706 249 717 245 726L51 726L45 720L45 694L49 689L87 689C114 689 136 683 148 673C157 664 160 649 160 616L160 -75C160 -108 157 -122 148 -131C136 -141 114 -147 87 -147L49 -147L45 -152L45 -178L51 -184Z" stroke="rgb(0,0,0)" stroke-opacity="1" stroke-width="8" fill="rgb(0,0,0)" fill-opacity="1"></path></g></g></g></g></svg>
</svg>
