<svg xmlns="http://www.w3.org/2000/svg" xmlns:xlink="http://www.w3.org/1999/xlink" x="0" y="0" width="661.3333740234375" height="301.3333435058594" style="
        width:661.3333740234375px;
        height:301.3333435058594px;
        background: #FFF;
        fill: none;
">
        
        
        <svg xmlns="http://www.w3.org/2000/svg" class="role-diagram-draw-area"><g class="shapes-region" style="stroke: black; fill: none;"><g class="composite-shape" data-amt="diagram/shapes/plot" transform="matrix(1,0,0,1,116,60)"><g><g/><g><g class="test-plot-expression"><defs><clipPath id="cpd1gz9almc"><rect x="1" y="1" width="428" height="198"/></clipPath></defs><g clip-path="url(#cpd1gz9almc)"><path d=" M0.00,89.31 L0.50,88.39 L1.00,87.48 L1.50,86.59 L2.00,85.72 L2.50,84.88 L3.00,84.06 L3.50,83.26 L4.00,82.49 L4.51,81.75 L5.01,81.04 L5.51,80.36 L6.01,79.71 L6.51,79.10 L7.01,78.52 L7.51,77.97 L8.01,77.46 L8.51,76.99 L9.01,76.56 L9.51,76.17 L10.01,75.82 L10.51,75.50 L11.01,75.23 L11.51,75.00 L12.01,74.81 L12.51,74.67 L13.02,74.57 L13.52,74.51 L14.02,74.49 L14.52,74.52 L15.02,74.59 L15.52,74.70 L16.02,74.85 L16.52,75.05 L17.02,75.29 L17.52,75.57 L18.02,75.89 L18.52,76.26 L19.02,76.66 L19.52,77.10 L20.02,77.58 L20.52,78.10 L21.02,78.65 L21.53,79.24 L22.03,79.86 L22.53,80.52 L23.03,81.21 L23.53,81.92 L24.03,82.67 L24.53,83.45 L25.03,84.25 L25.53,85.08 L26.03,85.93 L26.53,86.80 L27.03,87.69 L27.53,88.60 L28.03,89.53 L28.53,90.48 L29.03,91.43 L29.53,92.40 L30.03,93.38 L30.54,94.37 L31.04,95.36 L31.54,96.36 L32.04,97.36 L32.54,98.36 L33.04,99.36 L33.54,100.36 L34.04,101.35 L34.54,102.34 L35.04,103.31 L35.54,104.28 L36.04,105.23 L36.54,106.18 L37.04,107.10 L37.54,108.01 L38.04,108.90 L38.54,109.77 L39.05,110.62 L39.55,111.44 L40.05,112.24 L40.55,113.01 L41.05,113.75 L41.55,114.46 L42.05,115.15 L42.55,115.80 L43.05,116.41 L43.55,117.00 L44.05,117.54 L44.55,118.06 L45.05,118.53 L45.55,118.96 L46.05,119.36 L46.55,119.72 L47.05,120.03 L47.56,120.30 L48.06,120.54 L48.56,120.73 L49.06,120.88 L49.56,120.98 L50.06,121.04 L50.56,121.06 L51.06,121.04 L51.56,120.97 L52.06,120.86 L52.56,120.71 L53.06,120.52 L53.56,120.28 L54.06,120.00 L54.56,119.68 L55.06,119.32 L55.56,118.92 L56.07,118.49 L56.57,118.01 L57.07,117.49 L57.57,116.94 L58.07,116.36 L58.57,115.74 L59.07,115.08 L59.57,114.40 L60.07,113.68 L60.57,112.94 L61.07,112.16 L61.57,111.36 L62.07,110.54 L62.57,109.69 L63.07,108.82 L63.57,107.92 L64.07,107.01 L64.58,106.09 L65.08,105.14 L65.58,104.19 L66.08,103.22 L66.58,102.24 L67.08,101.26 L67.58,100.26 L68.08,99.27 L68.58,98.27 L69.08,97.26 L69.58,96.26 L70.08,95.27 L70.58,94.27 L71.08,93.29 L71.58,92.31 L72.08,91.34 L72.58,90.39 L73.08,89.44 L73.59,88.52 L74.09,87.61 L74.59,86.72 L75.09,85.85 L75.59,85.00 L76.09,84.17 L76.59,83.37 L77.09,82.60 L77.59,81.85 L78.09,81.14 L78.59,80.45 L79.09,79.80 L79.59,79.18 L80.09,78.60 L80.59,78.05 L81.09,77.53 L81.59,77.06 L82.10,76.62 L82.60,76.22 L83.10,75.86 L83.60,75.54 L84.10,75.27 L84.60,75.03 L85.10,74.84 L85.60,74.69 L86.10,74.58 L86.60,74.51 L87.10,74.49 L87.60,74.51 L88.10,74.57 L88.60,74.68 L89.10,74.83 L89.60,75.02 L90.10,75.26 L90.61,75.53 L91.11,75.85 L91.61,76.20 L92.11,76.60 L92.61,77.04 L93.11,77.51 L93.61,78.02 L94.11,78.57 L94.61,79.15 L95.11,79.77 L95.61,80.42 L96.11,81.11 L96.61,81.82 L97.11,82.56 L97.61,83.34 L98.11,84.13 L98.61,84.96 L99.12,85.81 L99.62,86.68 L100.12,87.57 L100.62,88.47 L101.12,89.40 L101.62,90.34 L102.12,91.30 L102.62,92.26 L103.12,93.24 L103.62,94.23 L104.12,95.22 L104.62,96.22 L105.12,97.22 L105.62,98.22 L106.12,99.22 L106.62,100.22 L107.12,101.21 L107.63,102.20 L108.13,103.18 L108.63,104.14 L109.13,105.10 L109.63,106.04 L110.13,106.97 L110.63,107.88 L111.13,108.78 L111.63,109.65 L112.13,110.50 L112.63,111.32 L113.13,112.13 L113.63,112.90 L114.13,113.65 L114.63,114.37 L115.13,115.05 L115.63,115.71 L116.14,116.33 L116.64,116.92 L117.14,117.47 L117.64,117.99 L118.14,118.46 L118.64,118.90 L119.14,119.31 L119.64,119.67 L120.14,119.99 L120.64,120.27 L121.14,120.51 L121.64,120.70 L122.14,120.86 L122.64,120.97 L123.14,121.04 L123.64,121.06 L124.14,121.05 L124.64,120.98 L125.15,120.88 L125.65,120.74 L126.15,120.55 L126.65,120.32 L127.15,120.04 L127.65,119.73 L128.15,119.38 L128.65,118.98 L129.15,118.55 L129.65,118.08 L130.15,117.57 L130.65,117.02 L131.15,116.44 L131.65,115.83 L132.15,115.18 L132.65,114.50 L133.15,113.78 L133.66,113.04 L134.16,112.27 L134.66,111.48 L135.16,110.65 L135.66,109.81 L136.16,108.94 L136.66,108.05 L137.16,107.14 L137.66,106.22 L138.16,105.28 L138.66,104.32 L139.16,103.36 L139.66,102.38 L140.16,101.40 L140.66,100.40 L141.16,99.41 L141.66,98.41 L142.17,97.41 L142.67,96.40 L143.17,95.41 L143.67,94.41 L144.17,93.43 L144.67,92.45 L145.17,91.48 L145.67,90.52 L146.17,89.58 L146.67,88.65 L147.17,87.73 L147.67,86.84 L148.17,85.97 L148.67,85.12 L149.17,84.29 L149.67,83.48 L150.17,82.71 L150.68,81.96 L151.18,81.24 L151.68,80.55 L152.18,79.89 L152.68,79.27 L153.18,78.68 L153.68,78.12 L154.18,77.60 L154.68,77.12 L155.18,76.68 L155.68,76.27 L156.18,75.91 L156.68,75.59 L157.18,75.30 L157.68,75.06 L158.18,74.86 L158.68,74.71 L159.19,74.59 L159.69,74.52 L160.19,74.49 L160.69,74.51 L161.19,74.56 L161.69,74.66 L162.19,74.81 L162.69,74.99 L163.19,75.22 L163.69,75.49 L164.19,75.80 L164.69,76.15 L165.19,76.54 L165.69,76.97 L166.19,77.44 L166.69,77.95 L167.19,78.49 L167.69,79.07 L168.20,79.68 L168.70,80.33 L169.20,81.01 L169.70,81.72 L170.20,82.46 L170.70,83.23 L171.20,84.02 L171.70,84.84 L172.20,85.69 L172.70,86.55 L173.20,87.44 L173.70,88.35 L174.20,89.27 L174.70,90.21 L175.20,91.16 L175.70,92.13 L176.20,93.10 L176.71,94.09 L177.21,95.08 L177.71,96.08 L178.21,97.08 L178.71,98.08 L179.21,99.08 L179.71,100.08 L180.21,101.07 L180.71,102.06 L181.21,103.04 L181.71,104.01 L182.21,104.97 L182.71,105.91 L183.21,106.84 L183.71,107.76 L184.21,108.65 L184.71,109.53 L185.22,110.38 L185.72,111.21 L186.22,112.01 L186.72,112.79 L187.22,113.54 L187.72,114.27 L188.22,114.96 L188.72,115.62 L189.22,116.24 L189.72,116.84 L190.22,117.39 L190.72,117.92 L191.22,118.40 L191.72,118.84 L192.22,119.25 L192.72,119.62 L193.22,119.95 L193.73,120.23 L194.23,120.48 L194.73,120.68 L195.23,120.84 L195.73,120.96 L196.23,121.03 L196.73,121.06 L197.23,121.05 L197.73,121.00 L198.23,120.90 L198.73,120.76 L199.23,120.58 L199.73,120.35 L200.23,120.08 L200.73,119.78 L201.23,119.43 L201.73,119.04 L202.24,118.61 L202.74,118.15 L203.24,117.64 L203.74,117.10 L204.24,116.53 L204.74,115.92 L205.24,115.27 L205.74,114.59 L206.24,113.89 L206.74,113.15 L207.24,112.38 L207.74,111.59 L208.24,110.77 L208.74,109.93 L209.24,109.06 L209.74,108.18 L210.24,107.27 L210.75,106.35 L211.25,105.41 L211.75,104.46 L212.25,103.49 L212.75,102.52 L213.25,101.53 L213.75,100.54 L214.25,99.55 L214.75,98.55 L215.25,97.55 L215.75,96.55 L216.25,95.55 L216.75,94.55 L217.25,93.56 L217.75,92.58 L218.25,91.61 L218.75,90.65 L219.25,89.71 L219.76,88.78 L220.26,87.86 L220.76,86.97 L221.26,86.09 L221.76,85.23 L222.26,84.40 L222.76,83.60 L223.26,82.81 L223.76,82.06 L224.26,81.34 L224.76,80.64 L225.26,79.98 L225.76,79.35 L226.26,78.76 L226.76,78.20 L227.26,77.67 L227.76,77.19 L228.27,76.74 L228.77,76.33 L229.27,75.96 L229.77,75.63 L230.27,75.34 L230.77,75.09 L231.27,74.89 L231.77,74.73 L232.27,74.60 L232.77,74.53 L233.27,74.49 L233.77,74.50 L234.27,74.55 L234.77,74.65 L235.27,74.78 L235.77,74.96 L236.27,75.19 L236.78,75.45 L237.28,75.75 L237.78,76.10 L238.28,76.48 L238.78,76.91 L239.28,77.37 L239.78,77.87 L240.28,78.41 L240.78,78.99 L241.28,79.59 L241.78,80.24 L242.28,80.91 L242.78,81.62 L243.28,82.35 L243.78,83.12 L244.28,83.91 L244.78,84.72 L245.29,85.56 L245.79,86.43 L246.29,87.31 L246.79,88.22 L247.29,89.14 L247.79,90.08 L248.29,91.03 L248.79,91.99 L249.29,92.97 L249.79,93.95 L250.29,94.94 L250.79,95.94 L251.29,96.94 L251.79,97.94 L252.29,98.94 L252.79,99.94 L253.29,100.93 L253.80,101.92 L254.30,102.90 L254.80,103.87 L255.30,104.83 L255.80,105.78 L256.30,106.71 L256.80,107.63 L257.30,108.53 L257.80,109.40 L258.30,110.26 L258.80,111.09 L259.30,111.90 L259.80,112.68 L260.30,113.44 L260.80,114.17 L261.30,114.86 L261.80,115.53 L262.31,116.16 L262.81,116.76 L263.31,117.32 L263.81,117.84 L264.31,118.33 L264.81,118.78 L265.31,119.20 L265.81,119.57 L266.31,119.90 L266.81,120.19 L267.31,120.44 L267.81,120.65 L268.31,120.82 L268.81,120.94 L269.31,121.02 L269.81,121.06 L270.31,121.05 L270.81,121.01 L271.32,120.91 L271.82,120.78 L272.32,120.60 L272.82,120.39 L273.32,120.12 L273.82,119.82 L274.32,119.48 L274.82,119.10 L275.32,118.68 L275.82,118.21 L276.32,117.72 L276.82,117.18 L277.32,116.61 L277.82,116.00 L278.32,115.36 L278.82,114.69 L279.32,113.99 L279.83,113.25 L280.33,112.49 L280.83,111.70 L281.33,110.89 L281.83,110.05 L282.33,109.19 L282.83,108.30 L283.33,107.40 L283.83,106.48 L284.33,105.54 L284.83,104.59 L285.33,103.63 L285.83,102.66 L286.33,101.67 L286.83,100.68 L287.33,99.69 L287.83,98.69 L288.34,97.69 L288.84,96.69 L289.34,95.69 L289.84,94.69 L290.34,93.70 L290.84,92.72 L291.34,91.75 L291.84,90.79 L292.34,89.84 L292.84,88.91 L293.34,87.99 L293.84,87.09 L294.34,86.21 L294.84,85.35 L295.34,84.52 L295.84,83.71 L296.34,82.92 L296.85,82.17 L297.35,81.44 L297.85,80.74 L298.35,80.07 L298.85,79.44 L299.35,78.84 L299.85,78.27 L300.35,77.75 L300.85,77.25 L301.35,76.80 L301.85,76.38 L302.35,76.01 L302.85,75.67 L303.35,75.38 L303.85,75.13 L304.35,74.91 L304.85,74.75 L305.36,74.62 L305.86,74.54 L306.36,74.50 L306.86,74.50 L307.36,74.54 L307.86,74.63 L308.36,74.76 L308.86,74.94 L309.36,75.15 L309.86,75.41 L310.36,75.71 L310.86,76.05 L311.36,76.43 L311.86,76.85 L312.36,77.31 L312.86,77.80 L313.36,78.33 L313.86,78.90 L314.37,79.51 L314.87,80.14 L315.37,80.81 L315.87,81.52 L316.37,82.25 L316.87,83.01 L317.37,83.79 L317.87,84.61 L318.37,85.44 L318.87,86.31 L319.37,87.19 L319.87,88.09 L320.37,89.01 L320.87,89.94 L321.37,90.89 L321.87,91.85 L322.37,92.83 L322.88,93.81 L323.38,94.80 L323.88,95.80 L324.38,96.79 L324.88,97.80 L325.38,98.80 L325.88,99.80 L326.38,100.79 L326.88,101.78 L327.38,102.76 L327.88,103.74 L328.38,104.70 L328.88,105.65 L329.38,106.58 L329.88,107.50 L330.38,108.40 L330.88,109.28 L331.39,110.14 L331.89,110.98 L332.39,111.79 L332.89,112.58 L333.39,113.34 L333.89,114.07 L334.39,114.77 L334.89,115.43 L335.39,116.07 L335.89,116.67 L336.39,117.24 L336.89,117.77 L337.39,118.27 L337.89,118.72 L338.39,119.14 L338.89,119.52 L339.39,119.86 L339.90,120.16 L340.40,120.41 L340.90,120.63 L341.40,120.80 L341.90,120.93 L342.40,121.01 L342.90,121.06 L343.40,121.06 L343.90,121.02 L344.40,120.93 L344.90,120.80 L345.40,120.63 L345.90,120.42 L346.40,120.16 L346.90,119.87 L347.40,119.53 L347.90,119.15 L348.41,118.74 L348.91,118.28 L349.41,117.79 L349.91,117.26 L350.41,116.69 L350.91,116.09 L351.41,115.46 L351.91,114.79 L352.41,114.09 L352.91,113.36 L353.41,112.60 L353.91,111.82 L354.41,111.00 L354.91,110.17 L355.41,109.31 L355.91,108.43 L356.41,107.53 L356.92,106.61 L357.42,105.68 L357.92,104.73 L358.42,103.77 L358.92,102.79 L359.42,101.81 L359.92,100.82 L360.42,99.83 L360.92,98.83 L361.42,97.83 L361.92,96.83 L362.42,95.83 L362.92,94.83 L363.42,93.84 L363.92,92.86 L364.42,91.89 L364.92,90.92 L365.42,89.97 L365.93,89.04 L366.43,88.12 L366.93,87.22 L367.43,86.33 L367.93,85.47 L368.43,84.63 L368.93,83.82 L369.43,83.03 L369.93,82.27 L370.43,81.54 L370.93,80.84 L371.43,80.17 L371.93,79.53 L372.43,78.92 L372.93,78.35 L373.43,77.82 L373.93,77.32 L374.44,76.86 L374.94,76.44 L375.44,76.06 L375.94,75.72 L376.44,75.42 L376.94,75.16 L377.44,74.94 L377.94,74.77 L378.44,74.63 L378.94,74.54 L379.44,74.50 L379.94,74.49 L380.44,74.53 L380.94,74.62 L381.44,74.74 L381.94,74.91 L382.44,75.12 L382.95,75.37 L383.45,75.66 L383.95,76.00 L384.45,76.37 L384.95,76.79 L385.45,77.24 L385.95,77.73 L386.45,78.26 L386.95,78.82 L387.45,79.42 L387.95,80.05 L388.45,80.72 L388.95,81.41 L389.45,82.14 L389.95,82.90 L390.45,83.68 L390.95,84.49 L391.46,85.33 L391.96,86.18 L392.46,87.06 L392.96,87.96 L393.46,88.88 L393.96,89.81 L394.46,90.76 L394.96,91.72 L395.46,92.69 L395.96,93.67 L396.46,94.66 L396.96,95.66 L397.46,96.65 L397.96,97.65 L398.46,98.66 L398.96,99.65 L399.46,100.65 L399.97,101.64 L400.47,102.62 L400.97,103.60 L401.47,104.56 L401.97,105.51 L402.47,106.45 L402.97,107.37 L403.47,108.27 L403.97,109.16 L404.47,110.02 L404.97,110.86 L405.47,111.68 L405.97,112.47 L406.47,113.23 L406.97,113.96 L407.47,114.67 L407.97,115.34 L408.47,115.98 L408.98,116.59 L409.48,117.16 L409.98,117.70 L410.48,118.20 L410.98,118.66 L411.48,119.08 L411.98,119.47 L412.48,119.81 L412.98,120.12 L413.48,120.38 L413.98,120.60 L414.48,120.78 L414.98,120.91 L415.48,121.00 L415.98,121.05 L416.48,121.06 L416.98,121.02 L417.49,120.94 L417.99,120.82 L418.49,120.66 L418.99,120.45 L419.49,120.20 L419.99,119.91 L420.49,119.58 L420.99,119.21 L421.49,118.80 L421.99,118.35 L422.49,117.86 L422.99,117.34 L423.49,116.77 L423.99,116.18 L424.49,115.55 L424.99,114.88 L425.49,114.19 L426.00,113.46 L426.50,112.71 L427.00,111.93 L427.50,111.12 L428.00,110.29 L428.50,109.43 L429.00,108.55 L429.50,107.66 L430.00,106.74" style="stroke-width: 3; stroke: rgb(0, 0, 0); stroke-opacity: 1;"/></g></g><rect class="real" x="1" y="1" width="428" height="198" style="fill: transparent; stroke: none;"/></g></g></g><g class="composite-shape"><path class="real" d=" M201.73,124.14 C201.73,121.85 203.58,120 205.86,120 C208.15,120 210,121.85 210,124.14 C210,126.42 208.15,128.27 205.86,128.27 C203.58,128.27 201.73,126.42 201.73,124.14 Z" style="stroke-width: 1; stroke: none; stroke-opacity: 1; fill: rgb(0, 0, 0); fill-opacity: 1;"/></g><g class="composite-shape"><path class="real" d=" M131.73,174.14 C131.73,171.85 133.58,170 135.86,170 C138.15,170 140,171.85 140,174.14 C140,176.42 138.15,178.27 135.86,178.27 C133.58,178.27 131.73,176.42 131.73,174.14 Z" style="stroke-width: 1; stroke: none; stroke-opacity: 1; fill: rgb(0, 0, 0); fill-opacity: 1;"/></g><g class="composite-shape"><path class="real" d=" M350,175.86 C350,173.58 351.85,171.73 354.14,171.73 C356.42,171.73 358.27,173.58 358.27,175.86 C358.27,178.15 356.42,180 354.14,180 C351.85,180 350,178.15 350,175.86 Z" style="stroke-width: 1; stroke: none; stroke-opacity: 1; fill: rgb(0, 0, 0); fill-opacity: 1;"/></g><g class="composite-shape"><path class="real" d=" M410,165.86 C410,163.58 411.85,161.73 414.14,161.73 C416.42,161.73 418.27,163.58 418.27,165.86 C418.27,168.15 416.42,170 414.14,170 C411.85,170 410,168.15 410,165.86 Z" style="stroke-width: 1; stroke: none; stroke-opacity: 1; fill: rgb(0, 0, 0); fill-opacity: 1;"/></g><g class="composite-shape"><path class="real" d=" M461.73,194.14 C461.73,191.85 463.58,190 465.86,190 C468.15,190 470,191.85 470,194.14 C470,196.42 468.15,198.27 465.86,198.27 C463.58,198.27 461.73,196.42 461.73,194.14 Z" style="stroke-width: 1; stroke: none; stroke-opacity: 1; fill: rgb(0, 0, 0); fill-opacity: 1;"/></g><g class="composite-shape"><path class="real" d=" M531.73,144.14 C531.73,141.85 533.58,140 535.86,140 C538.15,140 540,141.85 540,144.14 C540,146.42 538.15,148.27 535.86,148.27 C533.58,148.27 531.73,146.42 531.73,144.14 Z" style="stroke-width: 1; stroke: none; stroke-opacity: 1; fill: rgb(0, 0, 0); fill-opacity: 1;"/></g><g class="composite-shape"><path class="real" d=" M231.73,194.14 C231.73,191.85 233.58,190 235.86,190 C238.15,190 240,191.85 240,194.14 C240,196.42 238.15,198.27 235.86,198.27 C233.58,198.27 231.73,196.42 231.73,194.14 Z" style="stroke-width: 1; stroke: none; stroke-opacity: 1; fill: rgb(0, 0, 0); fill-opacity: 1;"/></g><g class="composite-shape"><path class="real" d=" M260,175.86 C260,173.58 261.85,171.73 264.14,171.73 C266.42,171.73 268.27,173.58 268.27,175.86 C268.27,178.15 266.42,180 264.14,180 C261.85,180 260,178.15 260,175.86 Z" style="stroke-width: 1; stroke: none; stroke-opacity: 1; fill: rgb(0, 0, 0); fill-opacity: 1;"/></g><g class="arrow-line"><path class="connection real" stroke-dasharray="" d="  M330,60 L330,260" style="stroke: rgb(0, 0, 0); stroke-width: 1; fill: none; fill-opacity: 1;"/></g><g class="arrow-line"><path class="connection real" stroke-dasharray="" d="  M560,160 L120,160" style="stroke: rgb(0, 0, 0); stroke-width: 1; fill: none; fill-opacity: 1;"/></g><g/></g><g/><g/><g/></svg>
        <svg xmlns="http://www.w3.org/2000/svg" xmlns:xlink="http://www.w3.org/1999/xlink" width="660" height="300" style="width:660px;height:300px;font-family:Asana-Math, Asana;background:#FFF;"><g><g><g><text x="275.66668701171875" y="16.666671752929688" style="white-space:pre;stroke:none;fill:rgb(0,0,0);fill-opacity:1;font-size:15px;font-family:Arial, Helvetica, sans-serif;font-weight:700;font-style:normal;dominant-baseline:text-before-edge;text-decoration:none solid rgb(0, 0, 0);">Original Dataset</text></g><g><text x="390.70831298828125" y="16.666671752929688" style="white-space:pre;stroke:none;fill:rgb(0,0,0);fill-opacity:1;font-size:15px;font-family:Arial, Helvetica, sans-serif;font-weight:700;font-style:normal;dominant-baseline:text-before-edge;text-decoration:none solid rgb(0, 0, 0);"> </text></g></g></g></svg>
</svg>
