<svg xmlns="http://www.w3.org/2000/svg" xmlns:xlink="http://www.w3.org/1999/xlink" x="0" y="0" width="661.6000366210938" height="301.6000061035156" style="
        width:661.6000366210938px;
        height:301.6000061035156px;
        background: #FFF;
        fill: none;
">
        
        
        <svg xmlns="http://www.w3.org/2000/svg" class="role-diagram-draw-area"><g class="shapes-region" style="stroke: black; fill: none;"><g class="composite-shape" data-amt="diagram/shapes/plot" transform="matrix(1,0,0,1,130,80)"><g><g/><g><g class="test-xti" style="font-family: Asana-Math, Asana;"><line x1="0" y1="135.55379339401014" x2="426" y2="135.55379339401014" fill="none" stroke="rgb(50,50,50)" stroke-opacity="1" stroke-width="1"/><line x1="49.75111998136291" y1="131.55379339401014" x2="49.75111998136291" y2="139.55379339401014" fill="none" stroke="rgb(50,50,50)" stroke-opacity="1" stroke-width="1"/><line x1="128.2446080005777" y1="131.55379339401014" x2="128.2446080005777" y2="139.55379339401014" fill="none" stroke="rgb(50,50,50)" stroke-opacity="1" stroke-width="1"/><line x1="285.23158403900726" y1="131.55379339401014" x2="285.23158403900726" y2="139.55379339401014" fill="none" stroke="rgb(50,50,50)" stroke-opacity="1" stroke-width="1"/><line x1="363.72507205822205" y1="131.55379339401014" x2="363.72507205822205" y2="139.55379339401014" fill="none" stroke="rgb(50,50,50)" stroke-opacity="1" stroke-width="1"/><path d="M421,131.95379339401015 L429,135.55379339401014 L421,139.15379339401014 Z" stroke="none" stroke-width="1" fill="rgb(50,50,50)" fill-opacity="1"/></g><g class="test-yti" style="font-family: Asana-Math, Asana;"><line x1="206.7380960197925" y1="4" x2="206.7380960197925" y2="200" fill="none" stroke="rgb(50,50,50)" stroke-opacity="1" stroke-width="1"/><line x1="202.7380960197925" y1="57.06030537479535" x2="210.7380960197925" y2="57.06030537479535" fill="none" stroke="rgb(50,50,50)" stroke-opacity="1" stroke-width="1"/><path d="M203.1380960197925,9 L206.7380960197925,1 L210.3380960197925,9 Z" stroke="none" stroke-width="1" fill="rgb(50,50,50)" fill-opacity="1"/></g><g class="test-plot-expression"><defs><clipPath id="cpmx6avi0s2"><rect x="1" y="1" width="428" height="198"/></clipPath></defs><g clip-path="url(#cpmx6avi0s2)"><path d=" M0.00,-136.70 L0.50,-135.39 L1.00,-134.07 L1.50,-132.76 L2.00,-131.45 L2.50,-130.15 L3.00,-128.85 L3.50,-127.55 L4.00,-126.26 L4.51,-124.97 L5.01,-123.68 L5.51,-122.39 L6.01,-121.11 L6.51,-119.83 L7.01,-118.56 L7.51,-117.28 L8.01,-116.02 L8.51,-114.75 L9.01,-113.49 L9.51,-112.23 L10.01,-110.97 L10.51,-109.72 L11.01,-108.47 L11.51,-107.22 L12.01,-105.98 L12.51,-104.74 L13.02,-103.50 L13.52,-102.27 L14.02,-101.04 L14.52,-99.81 L15.02,-98.59 L15.52,-97.36 L16.02,-96.15 L16.52,-94.93 L17.02,-93.72 L17.52,-92.51 L18.02,-91.31 L18.52,-90.10 L19.02,-88.91 L19.52,-87.71 L20.02,-86.52 L20.52,-85.33 L21.02,-84.14 L21.53,-82.96 L22.03,-81.78 L22.53,-80.60 L23.03,-79.43 L23.53,-78.26 L24.03,-77.09 L24.53,-75.93 L25.03,-74.77 L25.53,-73.61 L26.03,-72.46 L26.53,-71.31 L27.03,-70.16 L27.53,-69.02 L28.03,-67.87 L28.53,-66.74 L29.03,-65.60 L29.53,-64.47 L30.03,-63.34 L30.54,-62.22 L31.04,-61.09 L31.54,-59.98 L32.04,-58.86 L32.54,-57.75 L33.04,-56.64 L33.54,-55.53 L34.04,-54.43 L34.54,-53.33 L35.04,-52.23 L35.54,-51.14 L36.04,-50.05 L36.54,-48.96 L37.04,-47.88 L37.54,-46.80 L38.04,-45.72 L38.54,-44.65 L39.05,-43.57 L39.55,-42.51 L40.05,-41.44 L40.55,-40.38 L41.05,-39.32 L41.55,-38.27 L42.05,-37.22 L42.55,-36.17 L43.05,-35.12 L43.55,-34.08 L44.05,-33.04 L44.55,-32.00 L45.05,-30.97 L45.55,-29.94 L46.05,-28.92 L46.55,-27.89 L47.05,-26.87 L47.56,-25.86 L48.06,-24.84 L48.56,-23.83 L49.06,-22.82 L49.56,-21.82 L50.06,-20.82 L50.56,-19.82 L51.06,-18.83 L51.56,-17.84 L52.06,-16.85 L52.56,-15.86 L53.06,-14.88 L53.56,-13.90 L54.06,-12.93 L54.56,-11.96 L55.06,-10.99 L55.56,-10.02 L56.07,-9.06 L56.57,-8.10 L57.07,-7.14 L57.57,-6.19 L58.07,-5.24 L58.57,-4.29 L59.07,-3.35 L59.57,-2.41 L60.07,-1.47 L60.57,-0.54 L61.07,0.39 L61.57,1.32 L62.07,2.24 L62.57,3.16 L63.07,4.08 L63.57,5.00 L64.07,5.91 L64.58,6.81 L65.08,7.72 L65.58,8.62 L66.08,9.52 L66.58,10.42 L67.08,11.31 L67.58,12.20 L68.08,13.08 L68.58,13.97 L69.08,14.85 L69.58,15.72 L70.08,16.59 L70.58,17.46 L71.08,18.33 L71.58,19.19 L72.08,20.06 L72.58,20.91 L73.08,21.77 L73.59,22.62 L74.09,23.46 L74.59,24.31 L75.09,25.15 L75.59,25.99 L76.09,26.82 L76.59,27.65 L77.09,28.48 L77.59,29.31 L78.09,30.13 L78.59,30.95 L79.09,31.76 L79.59,32.58 L80.09,33.39 L80.59,34.19 L81.09,35.00 L81.59,35.80 L82.10,36.59 L82.60,37.38 L83.10,38.17 L83.60,38.96 L84.10,39.75 L84.60,40.53 L85.10,41.30 L85.60,42.08 L86.10,42.85 L86.60,43.62 L87.10,44.38 L87.60,45.14 L88.10,45.90 L88.60,46.66 L89.10,47.41 L89.60,48.16 L90.10,48.90 L90.61,49.64 L91.11,50.38 L91.61,51.12 L92.11,51.85 L92.61,52.58 L93.11,53.31 L93.61,54.03 L94.11,54.75 L94.61,55.47 L95.11,56.18 L95.61,56.89 L96.11,57.60 L96.61,58.30 L97.11,59.00 L97.61,59.70 L98.11,60.39 L98.61,61.08 L99.12,61.77 L99.62,62.46 L100.12,63.14 L100.62,63.82 L101.12,64.49 L101.62,65.16 L102.12,65.83 L102.62,66.50 L103.12,67.16 L103.62,67.82 L104.12,68.48 L104.62,69.13 L105.12,69.78 L105.62,70.43 L106.12,71.07 L106.62,71.71 L107.12,72.35 L107.63,72.98 L108.13,73.61 L108.63,74.24 L109.13,74.86 L109.63,75.48 L110.13,76.10 L110.63,76.71 L111.13,77.33 L111.63,77.93 L112.13,78.54 L112.63,79.14 L113.13,79.74 L113.63,80.33 L114.13,80.93 L114.63,81.52 L115.13,82.10 L115.63,82.68 L116.14,83.26 L116.64,83.84 L117.14,84.41 L117.64,84.98 L118.14,85.55 L118.64,86.11 L119.14,86.67 L119.64,87.23 L120.14,87.78 L120.64,88.33 L121.14,88.88 L121.64,89.43 L122.14,89.97 L122.64,90.51 L123.14,91.04 L123.64,91.57 L124.14,92.10 L124.64,92.62 L125.15,93.15 L125.65,93.67 L126.15,94.18 L126.65,94.69 L127.15,95.20 L127.65,95.71 L128.15,96.21 L128.65,96.71 L129.15,97.21 L129.65,97.70 L130.15,98.19 L130.65,98.68 L131.15,99.16 L131.65,99.64 L132.15,100.12 L132.65,100.59 L133.15,101.06 L133.66,101.53 L134.16,102.00 L134.66,102.46 L135.16,102.92 L135.66,103.37 L136.16,103.82 L136.66,104.27 L137.16,104.72 L137.66,105.16 L138.16,105.60 L138.66,106.03 L139.16,106.47 L139.66,106.89 L140.16,107.32 L140.66,107.74 L141.16,108.16 L141.66,108.58 L142.17,108.99 L142.67,109.40 L143.17,109.81 L143.67,110.21 L144.17,110.62 L144.67,111.01 L145.17,111.41 L145.67,111.80 L146.17,112.19 L146.67,112.57 L147.17,112.95 L147.67,113.33 L148.17,113.71 L148.67,114.08 L149.17,114.45 L149.67,114.81 L150.17,115.17 L150.68,115.53 L151.18,115.89 L151.68,116.24 L152.18,116.59 L152.68,116.94 L153.18,117.28 L153.68,117.62 L154.18,117.96 L154.68,118.29 L155.18,118.62 L155.68,118.95 L156.18,119.27 L156.68,119.59 L157.18,119.91 L157.68,120.23 L158.18,120.54 L158.68,120.84 L159.19,121.15 L159.69,121.45 L160.19,121.75 L160.69,122.04 L161.19,122.34 L161.69,122.63 L162.19,122.91 L162.69,123.19 L163.19,123.47 L163.69,123.75 L164.19,124.02 L164.69,124.29 L165.19,124.56 L165.69,124.82 L166.19,125.08 L166.69,125.34 L167.19,125.59 L167.69,125.84 L168.20,126.09 L168.70,126.34 L169.20,126.58 L169.70,126.81 L170.20,127.05 L170.70,127.28 L171.20,127.51 L171.70,127.73 L172.20,127.96 L172.70,128.17 L173.20,128.39 L173.70,128.60 L174.20,128.81 L174.70,129.02 L175.20,129.22 L175.70,129.42 L176.20,129.62 L176.71,129.81 L177.21,130.00 L177.71,130.19 L178.21,130.37 L178.71,130.55 L179.21,130.73 L179.71,130.90 L180.21,131.07 L180.71,131.24 L181.21,131.40 L181.71,131.56 L182.21,131.72 L182.71,131.88 L183.21,132.03 L183.71,132.18 L184.21,132.32 L184.71,132.46 L185.22,132.60 L185.72,132.74 L186.22,132.87 L186.72,133.00 L187.22,133.13 L187.72,133.25 L188.22,133.37 L188.72,133.49 L189.22,133.60 L189.72,133.71 L190.22,133.82 L190.72,133.92 L191.22,134.02 L191.72,134.12 L192.22,134.21 L192.72,134.30 L193.22,134.39 L193.73,134.48 L194.23,134.56 L194.73,134.63 L195.23,134.71 L195.73,134.78 L196.23,134.85 L196.73,134.92 L197.23,134.98 L197.73,135.04 L198.23,135.09 L198.73,135.15 L199.23,135.19 L199.73,135.24 L200.23,135.28 L200.73,135.32 L201.23,135.36 L201.73,135.39 L202.24,135.42 L202.74,135.45 L203.24,135.48 L203.74,135.50 L204.24,135.51 L204.74,135.53 L205.24,135.54 L205.74,135.55 L206.24,135.55 L206.74,135.55 L207.24,135.55 L207.74,135.55 L208.24,135.54 L208.74,135.53 L209.24,135.51 L209.74,135.50 L210.24,135.48 L210.75,135.45 L211.25,135.42 L211.75,135.39 L212.25,135.36 L212.75,135.32 L213.25,135.28 L213.75,135.24 L214.25,135.19 L214.75,135.14 L215.25,135.09 L215.75,135.04 L216.25,134.98 L216.75,134.92 L217.25,134.85 L217.75,134.78 L218.25,134.71 L218.75,134.63 L219.25,134.56 L219.76,134.47 L220.26,134.39 L220.76,134.30 L221.26,134.21 L221.76,134.12 L222.26,134.02 L222.76,133.92 L223.26,133.82 L223.76,133.71 L224.26,133.60 L224.76,133.48 L225.26,133.37 L225.76,133.25 L226.26,133.13 L226.76,133.00 L227.26,132.87 L227.76,132.74 L228.27,132.60 L228.77,132.46 L229.27,132.32 L229.77,132.18 L230.27,132.03 L230.77,131.88 L231.27,131.72 L231.77,131.56 L232.27,131.40 L232.77,131.24 L233.27,131.07 L233.77,130.90 L234.27,130.72 L234.77,130.55 L235.27,130.37 L235.77,130.18 L236.27,130.00 L236.78,129.81 L237.28,129.61 L237.78,129.42 L238.28,129.22 L238.78,129.01 L239.28,128.81 L239.78,128.60 L240.28,128.39 L240.78,128.17 L241.28,127.95 L241.78,127.73 L242.28,127.51 L242.78,127.28 L243.28,127.05 L243.78,126.81 L244.28,126.57 L244.78,126.33 L245.29,126.09 L245.79,125.84 L246.29,125.59 L246.79,125.34 L247.29,125.08 L247.79,124.82 L248.29,124.56 L248.79,124.29 L249.29,124.02 L249.79,123.75 L250.29,123.47 L250.79,123.19 L251.29,122.91 L251.79,122.62 L252.29,122.33 L252.79,122.04 L253.29,121.75 L253.80,121.45 L254.30,121.15 L254.80,120.84 L255.30,120.53 L255.80,120.22 L256.30,119.91 L256.80,119.59 L257.30,119.27 L257.80,118.95 L258.30,118.62 L258.80,118.29 L259.30,117.95 L259.80,117.62 L260.30,117.28 L260.80,116.93 L261.30,116.59 L261.80,116.24 L262.31,115.89 L262.81,115.53 L263.31,115.17 L263.81,114.81 L264.31,114.44 L264.81,114.07 L265.31,113.70 L265.81,113.33 L266.31,112.95 L266.81,112.57 L267.31,112.18 L267.81,111.79 L268.31,111.40 L268.81,111.01 L269.31,110.61 L269.81,110.21 L270.31,109.81 L270.81,109.40 L271.32,108.99 L271.82,108.58 L272.32,108.16 L272.82,107.74 L273.32,107.32 L273.82,106.89 L274.32,106.46 L274.82,106.03 L275.32,105.59 L275.82,105.15 L276.32,104.71 L276.82,104.27 L277.32,103.82 L277.82,103.37 L278.32,102.91 L278.82,102.45 L279.32,101.99 L279.83,101.53 L280.33,101.06 L280.83,100.59 L281.33,100.11 L281.83,99.64 L282.33,99.16 L282.83,98.67 L283.33,98.19 L283.83,97.70 L284.33,97.20 L284.83,96.71 L285.33,96.21 L285.83,95.70 L286.33,95.20 L286.83,94.69 L287.33,94.18 L287.83,93.66 L288.34,93.14 L288.84,92.62 L289.34,92.09 L289.84,91.57 L290.34,91.03 L290.84,90.50 L291.34,89.96 L291.84,89.42 L292.34,88.88 L292.84,88.33 L293.34,87.78 L293.84,87.22 L294.34,86.67 L294.84,86.11 L295.34,85.54 L295.84,84.98 L296.34,84.41 L296.85,83.83 L297.35,83.26 L297.85,82.68 L298.35,82.10 L298.85,81.51 L299.35,80.92 L299.85,80.33 L300.35,79.73 L300.85,79.13 L301.35,78.53 L301.85,77.93 L302.35,77.32 L302.85,76.71 L303.35,76.09 L303.85,75.48 L304.35,74.86 L304.85,74.23 L305.36,73.60 L305.86,72.97 L306.36,72.34 L306.86,71.70 L307.36,71.06 L307.86,70.42 L308.36,69.77 L308.86,69.12 L309.36,68.47 L309.86,67.81 L310.36,67.16 L310.86,66.49 L311.36,65.83 L311.86,65.16 L312.36,64.49 L312.86,63.81 L313.36,63.13 L313.86,62.45 L314.37,61.77 L314.87,61.08 L315.37,60.39 L315.87,59.69 L316.37,59.00 L316.87,58.29 L317.37,57.59 L317.87,56.88 L318.37,56.17 L318.87,55.46 L319.37,54.74 L319.87,54.02 L320.37,53.30 L320.87,52.57 L321.37,51.84 L321.87,51.11 L322.37,50.38 L322.88,49.64 L323.38,48.89 L323.88,48.15 L324.38,47.40 L324.88,46.65 L325.38,45.89 L325.88,45.14 L326.38,44.37 L326.88,43.61 L327.38,42.84 L327.88,42.07 L328.38,41.30 L328.88,40.52 L329.38,39.74 L329.88,38.95 L330.38,38.17 L330.88,37.38 L331.39,36.58 L331.89,35.79 L332.39,34.99 L332.89,34.19 L333.39,33.38 L333.89,32.57 L334.39,31.76 L334.89,30.94 L335.39,30.12 L335.89,29.30 L336.39,28.48 L336.89,27.65 L337.39,26.82 L337.89,25.98 L338.39,25.14 L338.89,24.30 L339.39,23.46 L339.90,22.61 L340.40,21.76 L340.90,20.90 L341.40,20.05 L341.90,19.19 L342.40,18.32 L342.90,17.46 L343.40,16.59 L343.90,15.71 L344.40,14.84 L344.90,13.96 L345.40,13.07 L345.90,12.19 L346.40,11.30 L346.90,10.41 L347.40,9.51 L347.90,8.61 L348.41,7.71 L348.91,6.81 L349.41,5.90 L349.91,4.99 L350.41,4.07 L350.91,3.15 L351.41,2.23 L351.91,1.31 L352.41,0.38 L352.91,-0.55 L353.41,-1.48 L353.91,-2.42 L354.41,-3.36 L354.91,-4.30 L355.41,-5.25 L355.91,-6.20 L356.41,-7.15 L356.92,-8.11 L357.42,-9.07 L357.92,-10.03 L358.42,-11.00 L358.92,-11.96 L359.42,-12.94 L359.92,-13.91 L360.42,-14.89 L360.92,-15.87 L361.42,-16.86 L361.92,-17.85 L362.42,-18.84 L362.92,-19.83 L363.42,-20.83 L363.92,-21.83 L364.42,-22.83 L364.92,-23.84 L365.42,-24.85 L365.93,-25.86 L366.43,-26.88 L366.93,-27.90 L367.43,-28.92 L367.93,-29.95 L368.43,-30.98 L368.93,-32.01 L369.43,-33.05 L369.93,-34.09 L370.43,-35.13 L370.93,-36.18 L371.43,-37.23 L371.93,-38.28 L372.43,-39.33 L372.93,-40.39 L373.43,-41.45 L373.93,-42.52 L374.44,-43.58 L374.94,-44.66 L375.44,-45.73 L375.94,-46.81 L376.44,-47.89 L376.94,-48.97 L377.44,-50.06 L377.94,-51.15 L378.44,-52.24 L378.94,-53.34 L379.44,-54.44 L379.94,-55.54 L380.44,-56.65 L380.94,-57.76 L381.44,-58.87 L381.94,-59.99 L382.44,-61.10 L382.95,-62.23 L383.45,-63.35 L383.95,-64.48 L384.45,-65.61 L384.95,-66.75 L385.45,-67.89 L385.95,-69.03 L386.45,-70.17 L386.95,-71.32 L387.45,-72.47 L387.95,-73.62 L388.45,-74.78 L388.95,-75.94 L389.45,-77.11 L389.95,-78.27 L390.45,-79.44 L390.95,-80.62 L391.46,-81.79 L391.96,-82.97 L392.46,-84.15 L392.96,-85.34 L393.46,-86.53 L393.96,-87.72 L394.46,-88.92 L394.96,-90.12 L395.46,-91.32 L395.96,-92.52 L396.46,-93.73 L396.96,-94.94 L397.46,-96.16 L397.96,-97.38 L398.46,-98.60 L398.96,-99.82 L399.46,-101.05 L399.97,-102.28 L400.47,-103.51 L400.97,-104.75 L401.47,-105.99 L401.97,-107.23 L402.47,-108.48 L402.97,-109.73 L403.47,-110.98 L403.97,-112.24 L404.47,-113.50 L404.97,-114.76 L405.47,-116.03 L405.97,-117.30 L406.47,-118.57 L406.97,-119.84 L407.47,-121.12 L407.97,-122.40 L408.47,-123.69 L408.98,-124.98 L409.48,-126.27 L409.98,-127.56 L410.48,-128.86 L410.98,-130.16 L411.48,-131.47 L411.98,-132.77 L412.48,-134.08 L412.98,-135.40 L413.48,-136.71 L413.98,-138.03 L414.48,-139.36 L414.98,-140.68 L415.48,-142.01 L415.98,-143.35 L416.48,-144.68 L416.98,-146.02 L417.49,-147.36 L417.99,-148.71 L418.49,-150.06 L418.99,-151.41 L419.49,-152.77 L419.99,-154.12 L420.49,-155.49 L420.99,-156.85 L421.49,-158.22 L421.99,-159.59 L422.49,-160.96 L422.99,-162.34 L423.49,-163.72 L423.99,-165.11 L424.49,-166.49 L424.99,-167.88 L425.49,-169.28 L426.00,-170.67 L426.50,-172.07 L427.00,-173.48 L427.50,-174.88 L428.00,-176.29 L428.50,-177.71 L429.00,-179.12 L429.50,-180.54 L430.00,-181.96" style="stroke-width: 3; stroke: rgb(0, 0, 0); stroke-opacity: 1;"/></g></g><g class="test-xtl" style="font-family: &quot;Open Sans&quot;, verdana, arial, sans-serif;"/><g class="test-ytl" style="font-family: &quot;Open Sans&quot;, verdana, arial, sans-serif;"/><rect class="real" x="1" y="1" width="428" height="198" style="fill: transparent; stroke: none;"/></g></g></g><g class="composite-shape"><path class="real" d=" M390,134.14 C390,131.85 391.85,130 394.14,130 C396.42,130 398.27,131.85 398.27,134.14 C398.27,136.42 396.42,138.27 394.14,138.27 C391.85,138.27 390,136.42 390,134.14 Z" style="stroke-width: 1; stroke: none; stroke-opacity: 1; fill: rgb(255, 0, 0); fill-opacity: 1;"/></g><g class="composite-shape"><path class="real" d=" M410,204.14 C410,201.85 411.85,200 414.14,200 C416.42,200 418.27,201.85 418.27,204.14 C418.27,206.42 416.42,208.27 414.14,208.27 C411.85,208.27 410,206.42 410,204.14 Z" style="stroke-width: 1; stroke: none; stroke-opacity: 1; fill: rgb(74, 144, 226); fill-opacity: 1;"/></g><g class="composite-shape"><path class="real" d=" M371.73,164.14 C371.73,161.85 373.58,160 375.86,160 C378.15,160 380,161.85 380,164.14 C380,166.42 378.15,168.27 375.86,168.27 C373.58,168.27 371.73,166.42 371.73,164.14 Z" style="stroke-width: 1; stroke: none; stroke-opacity: 1; fill: rgb(255, 0, 0); fill-opacity: 1;"/></g><g class="composite-shape"><path class="real" d=" M401.73,155.86 C401.73,153.58 403.58,151.73 405.86,151.73 C408.15,151.73 410,153.58 410,155.86 C410,158.15 408.15,160 405.86,160 C403.58,160 401.73,158.15 401.73,155.86 Z" style="stroke-width: 1; stroke: none; stroke-opacity: 1; fill: rgb(255, 0, 0); fill-opacity: 1;"/></g><g class="composite-shape"><path class="real" d=" M350,204.14 C350,201.85 351.85,200 354.14,200 C356.42,200 358.27,201.85 358.27,204.14 C358.27,206.42 356.42,208.27 354.14,208.27 C351.85,208.27 350,206.42 350,204.14 Z" style="stroke-width: 1; stroke: none; stroke-opacity: 1; fill: rgb(255, 0, 0); fill-opacity: 1;"/></g><g class="composite-shape"><path class="real" d=" M450,105.86 C450,103.58 451.85,101.73 454.14,101.73 C456.42,101.73 458.27,103.58 458.27,105.86 C458.27,108.15 456.42,110 454.14,110 C451.85,110 450,108.15 450,105.86 Z" style="stroke-width: 1; stroke: none; stroke-opacity: 1; fill: rgb(255, 0, 0); fill-opacity: 1;"/></g><g class="composite-shape"><path class="real" d=" M421.73,95.86 C421.73,93.58 423.58,91.73 425.86,91.73 C428.15,91.73 430,93.58 430,95.86 C430,98.15 428.15,100 425.86,100 C423.58,100 421.73,98.15 421.73,95.86 Z" style="stroke-width: 1; stroke: none; stroke-opacity: 1; fill: rgb(255, 0, 0); fill-opacity: 1;"/></g><g class="composite-shape"><path class="real" d=" M311.73,264.14 C311.73,261.85 313.58,260 315.86,260 C318.15,260 320,261.85 320,264.14 C320,266.42 318.15,268.27 315.86,268.27 C313.58,268.27 311.73,266.42 311.73,264.14 Z" style="stroke-width: 1; stroke: none; stroke-opacity: 1; fill: rgb(255, 0, 0); fill-opacity: 1;"/></g><g class="composite-shape"><path class="real" d=" M430,115.86 C430,113.58 431.85,111.73 434.14,111.73 C436.42,111.73 438.27,113.58 438.27,115.86 C438.27,118.15 436.42,120 434.14,120 C431.85,120 430,118.15 430,115.86 Z" style="stroke-width: 1; stroke: none; stroke-opacity: 1; fill: rgb(255, 0, 0); fill-opacity: 1;"/></g><g class="composite-shape"><path class="real" d=" M430,144.14 C430,141.85 431.85,140 434.14,140 C436.42,140 438.27,141.85 438.27,144.14 C438.27,146.42 436.42,148.27 434.14,148.27 C431.85,148.27 430,146.42 430,144.14 Z" style="stroke-width: 1; stroke: none; stroke-opacity: 1; fill: rgb(255, 0, 0); fill-opacity: 1;"/></g><g class="composite-shape"><path class="real" d=" M271.73,244.14 C271.73,241.85 273.58,240 275.86,240 C278.15,240 280,241.85 280,244.14 C280,246.42 278.15,248.27 275.86,248.27 C273.58,248.27 271.73,246.42 271.73,244.14 Z" style="stroke-width: 1; stroke: none; stroke-opacity: 1; fill: rgb(255, 0, 0); fill-opacity: 1;"/></g><g class="composite-shape"><path class="real" d=" M281.73,174.14 C281.73,171.85 283.58,170 285.86,170 C288.15,170 290,171.85 290,174.14 C290,176.42 288.15,178.27 285.86,178.27 C283.58,178.27 281.73,176.42 281.73,174.14 Z" style="stroke-width: 1; stroke: none; stroke-opacity: 1; fill: rgb(255, 0, 0); fill-opacity: 1;"/></g><g class="composite-shape"><path class="real" d=" M291.73,194.14 C291.73,191.85 293.58,190 295.86,190 C298.15,190 300,191.85 300,194.14 C300,196.42 298.15,198.27 295.86,198.27 C293.58,198.27 291.73,196.42 291.73,194.14 Z" style="stroke-width: 1; stroke: none; stroke-opacity: 1; fill: rgb(255, 0, 0); fill-opacity: 1;"/></g><g class="composite-shape"><path class="real" d=" M380,184.14 C380,181.85 381.85,180 384.14,180 C386.42,180 388.27,181.85 388.27,184.14 C388.27,186.42 386.42,188.27 384.14,188.27 C381.85,188.27 380,186.42 380,184.14 Z" style="stroke-width: 1; stroke: none; stroke-opacity: 1; fill: rgb(255, 0, 0); fill-opacity: 1;"/></g><g class="composite-shape"><path class="real" d=" M311.73,185.86 C311.73,183.58 313.58,181.73 315.86,181.73 C318.15,181.73 320,183.58 320,185.86 C320,188.15 318.15,190 315.86,190 C313.58,190 311.73,188.15 311.73,185.86 Z" style="stroke-width: 1; stroke: none; stroke-opacity: 1; fill: rgb(255, 0, 0); fill-opacity: 1;"/></g><g class="composite-shape"><path class="real" d=" M251.73,145.86 C251.73,143.58 253.58,141.73 255.86,141.73 C258.15,141.73 260,143.58 260,145.86 C260,148.15 258.15,150 255.86,150 C253.58,150 251.73,148.15 251.73,145.86 Z" style="stroke-width: 1; stroke: none; stroke-opacity: 1; fill: rgb(255, 0, 0); fill-opacity: 1;"/></g><g class="composite-shape"><path class="real" d=" M241.73,145.86 C241.73,143.58 243.58,141.73 245.86,141.73 C248.15,141.73 250,143.58 250,145.86 C250,148.15 248.15,150 245.86,150 C243.58,150 241.73,148.15 241.73,145.86 Z" style="stroke-width: 1; stroke: none; stroke-opacity: 1; fill: rgb(255, 0, 0); fill-opacity: 1;"/></g><g class="composite-shape"><path class="real" d=" M370,254.14 C370,251.85 371.85,250 374.14,250 C376.42,250 378.27,251.85 378.27,254.14 C378.27,256.42 376.42,258.27 374.14,258.27 C371.85,258.27 370,256.42 370,254.14 Z" style="stroke-width: 1; stroke: none; stroke-opacity: 1; fill: rgb(255, 0, 0); fill-opacity: 1;"/></g><g class="composite-shape"><path class="real" d=" M201.73,84.14 C201.73,81.85 203.58,80 205.86,80 C208.15,80 210,81.85 210,84.14 C210,86.42 208.15,88.27 205.86,88.27 C203.58,88.27 201.73,86.42 201.73,84.14 Z" style="stroke-width: 1; stroke: none; stroke-opacity: 1; fill: rgb(255, 0, 0); fill-opacity: 1;"/></g><g class="composite-shape"><path class="real" d=" M231.73,115.86 C231.73,113.58 233.58,111.73 235.86,111.73 C238.15,111.73 240,113.58 240,115.86 C240,118.15 238.15,120 235.86,120 C233.58,120 231.73,118.15 231.73,115.86 Z" style="stroke-width: 1; stroke: none; stroke-opacity: 1; fill: rgb(255, 0, 0); fill-opacity: 1;"/></g><g class="composite-shape"><path class="real" d=" M240,125.86 C240,123.58 241.85,121.73 244.14,121.73 C246.42,121.73 248.27,123.58 248.27,125.86 C248.27,128.15 246.42,130 244.14,130 C241.85,130 240,128.15 240,125.86 Z" style="stroke-width: 1; stroke: none; stroke-opacity: 1; fill: rgb(255, 0, 0); fill-opacity: 1;"/></g><g class="composite-shape"><path class="real" d=" M350,225.86 C350,223.58 351.85,221.73 354.14,221.73 C356.42,221.73 358.27,223.58 358.27,225.86 C358.27,228.15 356.42,230 354.14,230 C351.85,230 350,228.15 350,225.86 Z" style="stroke-width: 1; stroke: none; stroke-opacity: 1; fill: rgb(74, 144, 226); fill-opacity: 1;"/></g><g class="composite-shape"><path class="real" d=" M401.73,215.86 C401.73,213.58 403.58,211.73 405.86,211.73 C408.15,211.73 410,213.58 410,215.86 C410,218.15 408.15,220 405.86,220 C403.58,220 401.73,218.15 401.73,215.86 Z" style="stroke-width: 1; stroke: none; stroke-opacity: 1; fill: rgb(74, 144, 226); fill-opacity: 1;"/></g><g class="composite-shape"><path class="real" d=" M380,215.86 C380,213.58 381.85,211.73 384.14,211.73 C386.42,211.73 388.27,213.58 388.27,215.86 C388.27,218.15 386.42,220 384.14,220 C381.85,220 380,218.15 380,215.86 Z" style="stroke-width: 1; stroke: none; stroke-opacity: 1; fill: rgb(74, 144, 226); fill-opacity: 1;"/></g><g class="composite-shape"><path class="real" d=" M391.73,224.14 C391.73,221.85 393.58,220 395.86,220 C398.15,220 400,221.85 400,224.14 C400,226.42 398.15,228.27 395.86,228.27 C393.58,228.27 391.73,226.42 391.73,224.14 Z" style="stroke-width: 1; stroke: none; stroke-opacity: 1; fill: rgb(74, 144, 226); fill-opacity: 1;"/></g><g class="composite-shape"><path class="real" d=" M430,175.86 C430,173.58 431.85,171.73 434.14,171.73 C436.42,171.73 438.27,173.58 438.27,175.86 C438.27,178.15 436.42,180 434.14,180 C431.85,180 430,178.15 430,175.86 Z" style="stroke-width: 1; stroke: none; stroke-opacity: 1; fill: rgb(74, 144, 226); fill-opacity: 1;"/></g><g class="composite-shape"><path class="real" d=" M420,185.86 C420,183.58 421.85,181.73 424.14,181.73 C426.42,181.73 428.27,183.58 428.27,185.86 C428.27,188.15 426.42,190 424.14,190 C421.85,190 420,188.15 420,185.86 Z" style="stroke-width: 1; stroke: none; stroke-opacity: 1; fill: rgb(74, 144, 226); fill-opacity: 1;"/></g><g class="composite-shape"><path class="real" d=" M443.73,225.74 C443.73,223.45 445.58,221.6 447.86,221.6 C450.15,221.6 452,223.45 452,225.74 C452,228.02 450.15,229.87 447.86,229.87 C445.58,229.87 443.73,228.02 443.73,225.74 Z" style="stroke-width: 1; stroke: none; stroke-opacity: 1; fill: rgb(74, 144, 226); fill-opacity: 1;"/></g><g class="composite-shape"><path class="real" d=" M491.73,165.86 C491.73,163.58 493.58,161.73 495.86,161.73 C498.15,161.73 500,163.58 500,165.86 C500,168.15 498.15,170 495.86,170 C493.58,170 491.73,168.15 491.73,165.86 Z" style="stroke-width: 1; stroke: none; stroke-opacity: 1; fill: rgb(74, 144, 226); fill-opacity: 1;"/></g><g class="composite-shape"><path class="real" d=" M460,185.86 C460,183.58 461.85,181.73 464.14,181.73 C466.42,181.73 468.27,183.58 468.27,185.86 C468.27,188.15 466.42,190 464.14,190 C461.85,190 460,188.15 460,185.86 Z" style="stroke-width: 1; stroke: none; stroke-opacity: 1; fill: rgb(74, 144, 226); fill-opacity: 1;"/></g><g class="composite-shape"><path class="real" d=" M301.73,244.14 C301.73,241.85 303.58,240 305.86,240 C308.15,240 310,241.85 310,244.14 C310,246.42 308.15,248.27 305.86,248.27 C303.58,248.27 301.73,246.42 301.73,244.14 Z" style="stroke-width: 1; stroke: none; stroke-opacity: 1; fill: rgb(74, 144, 226); fill-opacity: 1;"/></g><g class="composite-shape"><path class="real" d=" M231.73,194.14 C231.73,191.85 233.58,190 235.86,190 C238.15,190 240,191.85 240,194.14 C240,196.42 238.15,198.27 235.86,198.27 C233.58,198.27 231.73,196.42 231.73,194.14 Z" style="stroke-width: 1; stroke: none; stroke-opacity: 1; fill: rgb(74, 144, 226); fill-opacity: 1;"/></g><g class="composite-shape"><path class="real" d=" M302.74,136.9 C304.26,135.19 306.87,135.04 308.58,136.55 C310.29,138.07 310.45,140.68 308.94,142.39 C307.42,144.1 304.81,144.26 303.1,142.74 C301.39,141.23 301.23,138.61 302.74,136.9 Z" style="stroke-width: 3; stroke: none; stroke-opacity: 1; fill: rgb(74, 144, 226); fill-opacity: 1;"/></g><g class="composite-shape"><path class="real" d=" M216.55,161.42 C218.07,159.71 220.68,159.55 222.39,161.06 C224.1,162.58 224.26,165.19 222.74,166.9 C221.23,168.61 218.61,168.77 216.9,167.26 C215.19,165.74 215.04,163.13 216.55,161.42 Z" style="stroke-width: 1; stroke: none; stroke-opacity: 1; fill: rgb(74, 144, 226); fill-opacity: 1;"/></g><g class="composite-shape"><path class="real" d=" M351.06,147.61 C352.58,145.9 355.19,145.74 356.9,147.26 C358.61,148.77 358.77,151.39 357.26,153.1 C355.74,154.81 353.13,154.96 351.42,153.45 C349.71,151.93 349.55,149.32 351.06,147.61 Z" style="stroke-width: 1; stroke: none; stroke-opacity: 1; fill: rgb(74, 144, 226); fill-opacity: 1;"/></g><g class="composite-shape"><path class="real" d=" M252.19,201.04 C253.71,199.33 256.32,199.18 258.03,200.69 C259.74,202.21 259.9,204.82 258.38,206.53 C256.87,208.24 254.26,208.4 252.55,206.88 C250.84,205.37 250.68,202.75 252.19,201.04 Z" style="stroke-width: 1; stroke: none; stroke-opacity: 1; fill: rgb(74, 144, 226); fill-opacity: 1;"/></g><g class="composite-shape"><path class="real" d=" M251.73,185.86 C251.73,183.58 253.58,181.73 255.86,181.73 C258.15,181.73 260,183.58 260,185.86 C260,188.15 258.15,190 255.86,190 C253.58,190 251.73,188.15 251.73,185.86 Z" style="stroke-width: 1; stroke: none; stroke-opacity: 1; fill: rgb(74, 144, 226); fill-opacity: 1;"/></g><g class="composite-shape"><path class="real" d=" M191.73,215.86 C191.73,213.58 193.58,211.73 195.86,211.73 C198.15,211.73 200,213.58 200,215.86 C200,218.15 198.15,220 195.86,220 C193.58,220 191.73,218.15 191.73,215.86 Z" style="stroke-width: 1; stroke: none; stroke-opacity: 1; fill: rgb(74, 144, 226); fill-opacity: 1;"/></g><g class="composite-shape"><path class="real" d=" M231.73,225.86 C231.73,223.58 233.58,221.73 235.86,221.73 C238.15,221.73 240,223.58 240,225.86 C240,228.15 238.15,230 235.86,230 C233.58,230 231.73,228.15 231.73,225.86 Z" style="stroke-width: 1; stroke: none; stroke-opacity: 1; fill: rgb(74, 144, 226); fill-opacity: 1;"/></g><g class="composite-shape"><path class="real" d=" M171.73,125.86 C171.73,123.58 173.58,121.73 175.86,121.73 C178.15,121.73 180,123.58 180,125.86 C180,128.15 178.15,130 175.86,130 C173.58,130 171.73,128.15 171.73,125.86 Z" style="stroke-width: 1; stroke: none; stroke-opacity: 1; fill: rgb(74, 144, 226); fill-opacity: 1;"/></g><g class="composite-shape"><path class="real" d=" M211.73,195.86 C211.73,193.58 213.58,191.73 215.86,191.73 C218.15,191.73 220,193.58 220,195.86 C220,198.15 218.15,200 215.86,200 C213.58,200 211.73,198.15 211.73,195.86 Z" style="stroke-width: 1; stroke: none; stroke-opacity: 1; fill: rgb(74, 144, 226); fill-opacity: 1;"/></g><g class="composite-shape"><path class="real" d=" M321.73,234.14 C321.73,231.85 323.58,230 325.86,230 C328.15,230 330,231.85 330,234.14 C330,236.42 328.15,238.27 325.86,238.27 C323.58,238.27 321.73,236.42 321.73,234.14 Z" style="stroke-width: 1; stroke: none; stroke-opacity: 1; fill: rgb(74, 144, 226); fill-opacity: 1;"/></g><g class="composite-shape"><path class="real" d=" M161.73,175.86 C161.73,173.58 163.58,171.73 165.86,171.73 C168.15,171.73 170,173.58 170,175.86 C170,178.15 168.15,180 165.86,180 C163.58,180 161.73,178.15 161.73,175.86 Z" style="stroke-width: 1; stroke: none; stroke-opacity: 1; fill: rgb(74, 144, 226); fill-opacity: 1;"/></g><g/></g><g/><g/><g/></svg>
        <svg xmlns="http://www.w3.org/2000/svg" xmlns:xlink="http://www.w3.org/1999/xlink" width="660" height="300" style="width:660px;height:300px;font-family:Asana-Math, Asana;background:#FFF;"><g><g><g><g transform="matrix(1,0,0,1,251.79998779296875,32.59999084472656)"><path transform="matrix(0.018,0,0,-0.018,0,0)" d="M60 342C60 153 127 -22 396 -22C427 -22 435 -21 473 -17C529 -97 528 -105 565 -105L645 -105C662 -105 676 -101 676 -82C676 -65 657 -54 598 27C739 113 731 310 732 336L731 381C718 661 543 717 400 717C196 717 60 619 60 342ZM199 338L199 343C199 413 200 531 270 594C279 602 320 639 396 639C437 639 478 627 511 603C592 543 593 410 593 340L593 327C593 242 582 164 533 109C468 192 470 194 445 194L382 194C364 194 353 193 346 171L349 162L360 145L421 57C412 56 404 56 395 56C346 56 302 70 273 95C208 149 199 247 199 338ZM853 139C853 68 859 -11 1013 -11C1068 -11 1112 -3 1161 44C1161 37 1159 0 1202 0L1249 0C1275 0 1294 8 1294 43L1294 416C1293 451 1274 458 1249 458L1205 458C1193 458 1181 457 1171 449C1160 437 1158 436 1158 406L1158 181C1158 72 1092 50 1053 50C995 50 989 67 989 123C989 131 990 139 990 147L990 413C989 430 990 458 943 458L897 458C852 458 853 424 853 414ZM1385 137C1385 69 1435 -11 1531 -11C1613 -11 1663 23 1685 40C1685 23 1694 0 1726 0L1774 0C1814 0 1819 23 1819 45L1819 308C1819 408 1773 475 1612 475C1549 475 1500 463 1455 443C1433 432 1427 433 1427 417C1427 417 1430 352 1437 340L1441 337L1445 336C1467 337 1497 405 1612 405C1675 405 1683 359 1683 312L1683 291C1594 290 1385 273 1385 137ZM1516 137C1516 215 1622 227 1683 232L1683 154C1683 80 1618 62 1585 62C1542 62 1516 101 1516 137ZM1916 239C1916 206 1916 172 1927 130C1955 23 2035 -11 2115 -11C2170 -11 2206 6 2242 32C2251 1 2270 0 2288 0L2334 0C2376 0 2379 27 2379 46L2379 677C2379 698 2376 722 2329 722L2289 722C2250 722 2245 697 2245 678L2245 433C2209 456 2170 469 2120 469C2015 469 1919 417 1916 239ZM2053 221L2053 242C2053 303 2054 396 2164 396C2211 396 2235 371 2242 366L2242 121C2242 91 2197 62 2154 62C2055 62 2053 150 2053 221ZM2501 43C2501 24 2505 0 2546 0L2589 0C2606 0 2607 1 2617 6C2633 19 2635 22 2635 50L2635 225C2635 238 2635 250 2638 263C2648 308 2686 343 2729 358C2762 369 2780 364 2792 373C2796 379 2797 380 2797 391L2797 447C2797 461 2795 469 2777 469L2776 469C2758 469 2683 462 2630 388C2629 438 2629 439 2620 450C2609 461 2605 463 2580 463L2547 463C2526 463 2501 461 2501 418ZM2843 137C2843 69 2893 -11 2989 -11C3071 -11 3121 23 3143 40C3143 23 3152 0 3184 0L3232 0C3272 0 3277 23 3277 45L3277 308C3277 408 3231 475 3070 475C3007 475 2958 463 2913 443C2891 432 2885 433 2885 417C2885 417 2888 352 2895 340L2899 337L2903 336C2925 337 2955 405 3070 405C3133 405 3141 359 3141 312L3141 291C3052 290 2843 273 2843 137ZM2974 137C2974 215 3080 227 3141 232L3141 154C3141 80 3076 62 3043 62C3000 62 2974 101 2974 137ZM3359 422C3359 411 3363 385 3403 385L3424 385L3424 152C3424 121 3424 91 3433 61C3450 6 3488 -11 3528 -11C3602 -11 3710 21 3710 47C3710 47 3702 102 3687 102C3674 102 3644 67 3597 67C3569 67 3555 85 3555 159C3555 168 3556 176 3556 185L3556 385L3649 385C3687 386 3692 411 3692 421C3692 430 3687 458 3647 458L3556 458L3556 544C3556 568 3546 589 3511 589L3475 589C3458 589 3427 588 3427 544L3427 458L3403 458C3363 458 3359 433 3359 422ZM3798 626C3798 586 3821 580 3844 580L3896 580C3905 581 3940 579 3940 624L3940 676C3940 716 3917 722 3894 722L3843 722C3824 721 3798 722 3798 676ZM3802 50C3802 33 3801 0 3846 0L3892 0C3937 0 3936 33 3936 45L3936 408C3936 434 3934 458 3887 458L3846 458C3801 458 3802 425 3802 413ZM4033 228C4033 52 4132 -11 4271 -11C4337 -11 4389 4 4433 27C4444 33 4453 37 4453 52L4453 60C4447 126 4448 125 4440 130L4435 131C4414 128 4378 67 4274 67C4173 67 4170 160 4170 223L4170 242C4170 296 4171 393 4267 397C4282 397 4315 398 4344 388C4387 373 4407 340 4423 340C4442 340 4447 418 4447 418C4447 426 4445 430 4439 434C4382 465 4342 475 4277 475C4147 475 4033 425 4033 228ZM4902 63C4902 59 4903 58 4904 54C4911 39 5026 -22 5158 -22C5353 -22 5402 90 5402 199C5402 317 5316 389 5239 414C5163 439 5039 437 5039 528C5039 562 5056 613 5148 613C5292 613 5309 537 5336 537C5340 537 5343 540 5346 548C5360 617 5364 642 5364 653C5364 657 5364 658 5363 660C5359 671 5272 717 5159 717C4941 717 4913 588 4913 509C4913 387 5014 322 5084 305C5176 282 5192 283 5216 271C5233 263 5276 237 5276 184C5276 106 5218 86 5162 86C5004 86 4955 177 4932 177C4925 177 4920 169 4916 147C4905 87 4902 71 4902 63ZM5485 422C5485 411 5489 385 5529 385L5550 385L5550 152C5550 121 5550 91 5559 61C5576 6 5614 -11 5654 -11C5728 -11 5836 21 5836 47C5836 47 5828 102 5813 102C5800 102 5770 67 5723 67C5695 67 5681 85 5681 159C5681 168 5682 176 5682 185L5682 385L5775 385C5813 386 5818 411 5818 421C5818 430 5813 458 5773 458L5682 458L5682 544C5682 568 5672 589 5637 589L5601 589C5584 589 5553 588 5553 544L5553 458L5529 458C5489 458 5485 433 5485 422ZM5928 43C5928 24 5932 0 5973 0L6016 0C6033 0 6034 1 6044 6C6060 19 6062 22 6062 50L6062 225C6062 238 6062 250 6065 263C6075 308 6113 343 6156 358C6189 369 6207 364 6219 373C6223 379 6224 380 6224 391L6224 447C6224 461 6222 469 6204 469L6203 469C6185 469 6110 462 6057 388C6056 438 6056 439 6047 450C6036 461 6032 463 6007 463L5974 463C5953 463 5928 461 5928 418ZM6299 139C6299 68 6305 -11 6459 -11C6514 -11 6558 -3 6607 44C6607 37 6605 0 6648 0L6695 0C6721 0 6740 8 6740 43L6740 416C6739 451 6720 458 6695 458L6651 458C6639 458 6627 457 6617 449C6606 437 6604 436 6604 406L6604 181C6604 72 6538 50 6499 50C6441 50 6435 67 6435 123C6435 131 6436 139 6436 147L6436 413C6435 430 6436 458 6389 458L6343 458C6298 458 6299 424 6299 414ZM6837 228C6837 52 6936 -11 7075 -11C7141 -11 7193 4 7237 27C7248 33 7257 37 7257 52L7257 60C7251 126 7252 125 7244 130L7239 131C7218 128 7182 67 7078 67C6977 67 6974 160 6974 223L6974 242C6974 296 6975 393 7071 397C7086 397 7119 398 7148 388C7191 373 7211 340 7227 340C7246 340 7251 418 7251 418C7251 426 7249 430 7243 434C7186 465 7146 475 7081 475C6951 475 6837 425 6837 228ZM7311 422C7311 411 7315 385 7355 385L7376 385L7376 152C7376 121 7376 91 7385 61C7402 6 7440 -11 7480 -11C7554 -11 7662 21 7662 47C7662 47 7654 102 7639 102C7626 102 7596 67 7549 67C7521 67 7507 85 7507 159C7507 168 7508 176 7508 185L7508 385L7601 385C7639 386 7644 411 7644 421C7644 430 7639 458 7599 458L7508 458L7508 544C7508 568 7498 589 7463 589L7427 589C7410 589 7379 588 7379 544L7379 458L7355 458C7315 458 7311 433 7311 422ZM7753 139C7753 68 7759 -11 7913 -11C7968 -11 8012 -3 8061 44C8061 37 8059 0 8102 0L8149 0C8175 0 8194 8 8194 43L8194 416C8193 451 8174 458 8149 458L8105 458C8093 458 8081 457 8071 449C8060 437 8058 436 8058 406L8058 181C8058 72 7992 50 7953 50C7895 50 7889 67 7889 123C7889 131 7890 139 7890 147L7890 413C7889 430 7890 458 7843 458L7797 458C7752 458 7753 424 7753 414ZM8315 43C8315 24 8319 0 8360 0L8403 0C8420 0 8421 1 8431 6C8447 19 8449 22 8449 50L8449 225C8449 238 8449 250 8452 263C8462 308 8500 343 8543 358C8576 369 8594 364 8606 373C8610 379 8611 380 8611 391L8611 447C8611 461 8609 469 8591 469L8590 469C8572 469 8497 462 8444 388C8443 438 8443 439 8434 450C8423 461 8419 463 8394 463L8361 463C8340 463 8315 461 8315 418ZM8657 233C8657 74 8744 -11 8911 -11C8980 -11 9042 9 9084 33C9096 40 9100 44 9100 55C9100 55 9100 114 9089 125L9084 127L9080 127C9060 121 9013 62 8913 62C8811 62 8788 136 8786 214L9062 214C9080 214 9106 216 9106 257C9106 364 9064 475 8897 475C8753 475 8657 401 8657 233ZM8787 279C8793 341 8817 402 8897 402C8975 402 8991 346 8994 279Z" stroke="rgb(0,0,0)" stroke-opacity="1" stroke-width="8" fill="rgb(0,0,0)" fill-opacity="1"></path></g></g><g><text x="416.28753662109375" y="17" style="white-space:pre;stroke:none;fill:rgb(0,0,0);fill-opacity:1;font-size:18px;font-family:Arial, Helvetica, sans-serif;font-weight:400;font-style:normal;dominant-baseline:text-before-edge;text-decoration:none solid rgb(0, 0, 0);"> </text></g></g></g></svg>
</svg>
