<svg xmlns="http://www.w3.org/2000/svg" xmlns:xlink="http://www.w3.org/1999/xlink" x="0" y="0" width="661.6000366210938" height="301.6000061035156" style="
        width:661.6000366210938px;
        height:301.6000061035156px;
        background: #FFF;
        fill: none;
">
        
        
        <svg xmlns="http://www.w3.org/2000/svg" class="role-diagram-draw-area"><g class="shapes-region" style="stroke: black; fill: none;"><g class="arrow-line"><path class="connection real" stroke-dasharray="" d="  M200,260 L450,260" style="stroke: rgb(0, 0, 0); stroke-width: 1; fill: none; fill-opacity: 1;"/></g><g class="arrow-line"><path class="connection real" stroke-dasharray="" d="  M230,70 L230,290" style="stroke: rgb(0, 0, 0); stroke-width: 1; fill: none; fill-opacity: 1;"/></g><g class="shape"><path class="real" d=" M270,140 C290,130 296.12,117.56 320,110 C343.88,102.44 386.38,103.21 390,120 C393.62,136.79 422.53,176.27 390,200 C357.47,223.73 359.16,236.51 350,240 C340.84,243.49 284.54,221.81 270,200 C255.46,178.19 250,150 270,140 Z" style="stroke: rgb(0, 0, 0); stroke-width: 2; fill: rgb(255, 142, 0); fill-opacity: 0.4;"/></g><g class="composite-shape"><path class="real" d=" M367.5,259.59 C367.5,258.02 368.79,256.75 370.38,256.75 C371.96,256.75 373.25,258.02 373.25,259.59 C373.25,261.15 371.96,262.43 370.38,262.43 C368.79,262.43 367.5,261.15 367.5,259.59 Z" style="stroke-width: 1; stroke: none; stroke-opacity: 1; fill: rgb(0, 0, 0); fill-opacity: 1;"/></g><g class="composite-shape"><path class="real" d=" M227.25,180.06 C227.25,178.5 228.54,177.22 230.13,177.22 C231.71,177.22 233,178.5 233,180.06 C233,181.63 231.71,182.9 230.13,182.9 C228.54,182.9 227.25,181.63 227.25,180.06 Z" style="stroke-width: 1; stroke: none; stroke-opacity: 1; fill: rgb(0, 0, 0); fill-opacity: 1;"/></g><g class="composite-shape"><path class="real" d=" M367.25,180.46 C367.25,178.9 368.54,177.62 370.13,177.62 C371.71,177.62 373,178.9 373,180.46 C373,182.03 371.71,183.3 370.13,183.3 C368.54,183.3 367.25,182.03 367.25,180.46 Z" style="stroke-width: 1; stroke: none; stroke-opacity: 1; fill: rgb(0, 0, 0); fill-opacity: 1;"/></g><g class="arrow-line"><path class="connection real" stroke-dasharray="" d="  M360,150 C397.59,123.37 422.99,138.49 458.38,149.5" style="stroke: rgb(0, 0, 0); stroke-width: 1; fill: none; fill-opacity: 1;"/><g stroke="#000" transform="matrix(-0.9566104024875921,-0.2913701045964172,0.2913701045964172,-0.9566104024875921,460,150)" style="stroke: rgb(0, 0, 0); stroke-width: 1;"><path d=" M10.93,-3.29 Q4.96,-0.45 0,0 Q4.96,0.45 10.93,3.29"/></g></g><g class="arrow-line"><path class="connection real" stroke-dasharray="" d="  M350,220 C387.43,234.59 418.07,233.84 448.6,220.61" style="stroke: rgb(0, 0, 0); stroke-width: 1; fill: none; fill-opacity: 1;"/><g stroke="#000" transform="matrix(-0.9134034241169094,0.40705550581156047,-0.40705550581156047,-0.9134034241169094,450,220)" style="stroke: rgb(0, 0, 0); stroke-width: 1;"><path d=" M10.93,-3.29 Q4.96,-0.45 0,0 Q4.96,0.45 10.93,3.29"/></g></g><g/></g><g/><g/><g/></svg>
        <svg xmlns="http://www.w3.org/2000/svg" xmlns:xlink="http://www.w3.org/1999/xlink" width="660" height="300" style="width:660px;height:300px;font-family:Asana-Math, Asana;background:#FFF;"><g><g><g><g transform="matrix(1,0,0,1,192.79998779296875,38.59999084472656)"><path transform="matrix(0.018,0,0,-0.018,0,0)" d="M91 47C91 5 114 0 137 0L487 0C531 0 534 26 534 49L534 60C534 85 525 106 490 106C482 106 319 102 233 101L233 651C233 690 207 694 189 694L137 694C100 694 91 676 91 647ZM610 137C610 69 660 -11 756 -11C838 -11 888 23 910 40C910 23 919 0 951 0L999 0C1039 0 1044 23 1044 45L1044 308C1044 408 998 475 837 475C774 475 725 463 680 443C658 432 652 433 652 417C652 417 655 352 662 340L666 337L670 336C692 337 722 405 837 405C900 405 908 359 908 312L908 291C819 290 610 273 610 137ZM741 137C741 215 847 227 908 232L908 154C908 80 843 62 810 62C767 62 741 101 741 137ZM1164 45C1164 6 1188 0 1211 0L1255 0C1301 0 1301 53 1301 53L1301 261C1301 279 1302 297 1307 315C1316 346 1348 396 1410 396C1469 396 1469 355 1469 318L1469 44C1469 19 1476 0 1515 0L1562 0C1603 0 1605 28 1605 44L1605 308C1605 380 1605 469 1457 469C1376 469 1330 435 1295 400L1295 420C1295 463 1267 463 1249 463L1209 463C1190 463 1164 460 1164 418ZM1690 -65C1690 -83 1694 -101 1702 -117C1745 -206 1879 -206 1940 -206C1993 -206 2047 -204 2097 -185C2166 -159 2189 -112 2189 -63C2189 88 2056 92 1935 92L1849 92C1798 92 1790 122 1790 140C1790 145 1791 152 1793 159C1836 142 1868 139 1908 139C2055 139 2110 205 2110 304C2110 360 2090 389 2086 397L2112 398C2153 398 2174 393 2181 393C2191 393 2199 397 2198 412C2190 461 2191 469 2169 469C2105 469 2050 444 2040 444C2025 444 2003 469 1912 469L1909 469C1733 469 1707 369 1707 303C1707 250 1726 216 1747 192L1747 190C1731 166 1720 139 1720 108C1720 75 1732 50 1746 29C1697 2 1690 -41 1690 -65ZM1793 -63C1793 -14 1834 -17 1850 -17L1948 -17C2038 -17 2086 -27 2086 -67C2086 -94 2064 -134 1945 -134L1941 -134C1863 -134 1793 -120 1793 -63ZM1836 296L1836 312C1836 372 1850 397 1911 397C1973 397 1982 363 1982 312L1982 296C1982 237 1969 211 1907 211C1842 211 1836 249 1836 296ZM2276 43C2276 24 2280 0 2321 0L2364 0C2381 0 2382 1 2392 6C2408 19 2410 22 2410 50L2410 225C2410 238 2410 250 2413 263C2423 308 2461 343 2504 358C2537 369 2555 364 2567 373C2571 379 2572 380 2572 391L2572 447C2572 461 2570 469 2552 469L2551 469C2533 469 2458 462 2405 388C2404 438 2404 439 2395 450C2384 461 2380 463 2355 463L2322 463C2301 463 2276 461 2276 418ZM2618 137C2618 69 2668 -11 2764 -11C2846 -11 2896 23 2918 40C2918 23 2927 0 2959 0L3007 0C3047 0 3052 23 3052 45L3052 308C3052 408 3006 475 2845 475C2782 475 2733 463 2688 443C2666 432 2660 433 2660 417C2660 417 2663 352 2670 340L2674 337L2678 336C2700 337 2730 405 2845 405C2908 405 2916 359 2916 312L2916 291C2827 290 2618 273 2618 137ZM2749 137C2749 215 2855 227 2916 232L2916 154C2916 80 2851 62 2818 62C2775 62 2749 101 2749 137ZM3172 45C3172 6 3196 0 3219 0L3263 0C3309 0 3309 53 3309 53L3309 261C3309 279 3310 297 3315 315C3324 346 3356 396 3418 396C3477 396 3477 355 3477 318L3477 44C3477 19 3484 0 3523 0L3570 0C3611 0 3613 28 3613 44L3613 308C3613 380 3613 469 3465 469C3384 469 3338 435 3303 400L3303 420C3303 463 3275 463 3257 463L3217 463C3198 463 3172 460 3172 418ZM3698 -65C3698 -83 3702 -101 3710 -117C3753 -206 3887 -206 3948 -206C4001 -206 4055 -204 4105 -185C4174 -159 4197 -112 4197 -63C4197 88 4064 92 3943 92L3857 92C3806 92 3798 122 3798 140C3798 145 3799 152 3801 159C3844 142 3876 139 3916 139C4063 139 4118 205 4118 304C4118 360 4098 389 4094 397L4120 398C4161 398 4182 393 4189 393C4199 393 4207 397 4206 412C4198 461 4199 469 4177 469C4113 469 4058 444 4048 444C4033 444 4011 469 3920 469L3917 469C3741 469 3715 369 3715 303C3715 250 3734 216 3755 192L3755 190C3739 166 3728 139 3728 108C3728 75 3740 50 3754 29C3705 2 3698 -41 3698 -65ZM3801 -63C3801 -14 3842 -17 3858 -17L3956 -17C4046 -17 4094 -27 4094 -67C4094 -94 4072 -134 3953 -134L3949 -134C3871 -134 3801 -120 3801 -63ZM3844 296L3844 312C3844 372 3858 397 3919 397C3981 397 3990 363 3990 312L3990 296C3990 237 3977 211 3915 211C3850 211 3844 249 3844 296ZM4280 626C4280 586 4303 580 4326 580L4378 580C4387 581 4422 579 4422 624L4422 676C4422 716 4399 722 4376 722L4325 722C4306 721 4280 722 4280 676ZM4284 50C4284 33 4283 0 4328 0L4374 0C4419 0 4418 33 4418 45L4418 408C4418 434 4416 458 4369 458L4328 458C4283 458 4284 425 4284 413ZM4509 137C4509 69 4559 -11 4655 -11C4737 -11 4787 23 4809 40C4809 23 4818 0 4850 0L4898 0C4938 0 4943 23 4943 45L4943 308C4943 408 4897 475 4736 475C4673 475 4624 463 4579 443C4557 432 4551 433 4551 417C4551 417 4554 352 4561 340L4565 337L4569 336C4591 337 4621 405 4736 405C4799 405 4807 359 4807 312L4807 291C4718 290 4509 273 4509 137ZM4640 137C4640 215 4746 227 4807 232L4807 154C4807 80 4742 62 4709 62C4666 62 4640 101 4640 137ZM5063 45C5063 6 5087 0 5110 0L5154 0C5200 0 5200 53 5200 53L5200 261C5200 279 5201 297 5206 315C5215 346 5247 396 5309 396C5368 396 5368 355 5368 318L5368 44C5368 19 5375 0 5414 0L5461 0C5502 0 5504 28 5504 44L5504 308C5504 380 5504 469 5356 469C5275 469 5229 435 5194 400L5194 420C5194 463 5166 463 5148 463L5108 463C5089 463 5063 460 5063 418ZM6023 46C6023 23 6028 0 6069 0L6121 0C6155 0 6165 19 6165 44L6165 298L6404 298C6425 298 6450 300 6450 347C6450 369 6445 393 6406 393L6165 393L6165 590C6260 589 6442 586 6451 586C6495 586 6496 617 6496 631L6496 646C6496 671 6490 691 6451 691L6068 691C6026 691 6023 663 6023 649ZM6571 139C6571 68 6577 -11 6731 -11C6786 -11 6830 -3 6879 44C6879 37 6877 0 6920 0L6967 0C6993 0 7012 8 7012 43L7012 416C7011 451 6992 458 6967 458L6923 458C6911 458 6899 457 6889 449C6878 437 6876 436 6876 406L6876 181C6876 72 6810 50 6771 50C6713 50 6707 67 6707 123C6707 131 6708 139 6708 147L6708 413C6707 430 6708 458 6661 458L6615 458C6570 458 6571 424 6571 414ZM7132 45C7132 6 7156 0 7179 0L7223 0C7269 0 7269 53 7269 53L7269 261C7269 279 7270 297 7275 315C7284 346 7316 396 7378 396C7437 396 7437 355 7437 318L7437 44C7437 19 7444 0 7483 0L7530 0C7571 0 7573 28 7573 44L7573 308C7573 380 7573 469 7425 469C7344 469 7298 435 7263 400L7263 420C7263 463 7235 463 7217 463L7177 463C7158 463 7132 460 7132 418ZM7670 228C7670 52 7769 -11 7908 -11C7974 -11 8026 4 8070 27C8081 33 8090 37 8090 52L8090 60C8084 126 8085 125 8077 130L8072 131C8051 128 8015 67 7911 67C7810 67 7807 160 7807 223L7807 242C7807 296 7808 393 7904 397C7919 397 7952 398 7981 388C8024 373 8044 340 8060 340C8079 340 8084 418 8084 418C8084 426 8082 430 8076 434C8019 465 7979 475 7914 475C7784 475 7670 425 7670 228ZM8144 422C8144 411 8148 385 8188 385L8209 385L8209 152C8209 121 8209 91 8218 61C8235 6 8273 -11 8313 -11C8387 -11 8495 21 8495 47C8495 47 8487 102 8472 102C8459 102 8429 67 8382 67C8354 67 8340 85 8340 159C8340 168 8341 176 8341 185L8341 385L8434 385C8472 386 8477 411 8477 421C8477 430 8472 458 8432 458L8341 458L8341 544C8341 568 8331 589 8296 589L8260 589C8243 589 8212 588 8212 544L8212 458L8188 458C8148 458 8144 433 8144 422ZM8583 626C8583 586 8606 580 8629 580L8681 580C8690 581 8725 579 8725 624L8725 676C8725 716 8702 722 8679 722L8628 722C8609 721 8583 722 8583 676ZM8587 50C8587 33 8586 0 8631 0L8677 0C8722 0 8721 33 8721 45L8721 408C8721 434 8719 458 8672 458L8631 458C8586 458 8587 425 8587 413ZM8812 224C8812 36 8928 -11 9057 -11C9180 -11 9300 35 9300 220C9300 465 9138 475 9041 475C8928 475 8812 424 8812 224ZM8949 214L8949 241C8949 310 8947 402 9055 402C9162 402 9162 313 9163 255L9163 228C9162 161 9165 67 9056 67C8952 67 8951 155 8949 214ZM9391 45C9391 6 9415 0 9438 0L9482 0C9528 0 9528 53 9528 53L9528 261C9528 279 9529 297 9534 315C9543 346 9575 396 9637 396C9696 396 9696 355 9696 318L9696 44C9696 19 9703 0 9742 0L9789 0C9830 0 9832 28 9832 44L9832 308C9832 380 9832 469 9684 469C9603 469 9557 435 9522 400L9522 420C9522 463 9494 463 9476 463L9436 463C9417 463 9391 460 9391 418ZM10351 55C10351 30 10349 0 10396 0L10429 0C10471 0 10474 27 10474 46L10474 569C10482 536 10495 504 10531 410L10635 153C10678 49 10678 22 10737 22L10757 22C10786 22 10806 25 10827 75C10874 189 11012 524 11022 569C11022 560 11023 550 11023 541L11023 52C11023 32 11021 0 11068 0L11100 0C11141 0 11146 23 11146 48L11146 648C11146 666 11143 694 11101 694L11012 694C10963 694 10954 668 10943 642C10771 222 10751 167 10746 148C10727 208 10547 650 10537 666C10520 693 10496 694 10478 694L10396 694C10370 694 10351 685 10351 650ZM11268 137C11268 69 11318 -11 11414 -11C11496 -11 11546 23 11568 40C11568 23 11577 0 11609 0L11657 0C11697 0 11702 23 11702 45L11702 308C11702 408 11656 475 11495 475C11432 475 11383 463 11338 443C11316 432 11310 433 11310 417C11310 417 11313 352 11320 340L11324 337L11328 336C11350 337 11380 405 11495 405C11558 405 11566 359 11566 312L11566 291C11477 290 11268 273 11268 137ZM11399 137C11399 215 11505 227 11566 232L11566 154C11566 80 11501 62 11468 62C11425 62 11399 101 11399 137ZM11788 22C11788 1 11808 0 11819 0L11868 0C11906 0 11899 0 12009 164C12123 1 12116 0 12155 0L12206 0C12233 0 12236 16 12236 22C12236 30 12232 36 12227 42C12195 81 12081 217 12064 236C12077 254 12092 272 12207 413C12215 423 12218 431 12218 438C12218 451 12205 458 12189 458L12140 458C12101 458 12106 457 12009 327C11909 454 11914 458 11873 458L11824 458C11808 458 11795 451 11795 438C11795 431 11798 423 11806 413C11925 272 11940 255 11954 236C11937 217 11922 197 11906 177C11787 30 11788 34 11788 22ZM12319 626C12319 586 12342 580 12365 580L12417 580C12426 581 12461 579 12461 624L12461 676C12461 716 12438 722 12415 722L12364 722C12345 721 12319 722 12319 676ZM12323 50C12323 33 12322 0 12367 0L12413 0C12458 0 12457 33 12457 45L12457 408C12457 434 12455 458 12408 458L12367 458C12322 458 12323 425 12323 413ZM12577 45C12577 6 12600 0 12624 0L12669 0C12707 0 12714 21 12714 45L12714 269C12714 355 12771 396 12824 396C12871 396 12882 372 12882 323L12882 45C12882 20 12889 0 12929 0L12975 0C13020 0 13019 54 13019 54L13019 261C13019 278 13019 296 13024 313C13035 350 13070 396 13129 396C13187 396 13188 357 13188 319L13188 47C13189 31 13186 0 13234 0L13278 0C13317 0 13324 20 13324 45L13324 307C13324 382 13324 469 13176 469C13076 469 13026 414 13010 395C12990 446 12951 469 12871 469C12774 469 12726 417 12708 400L12708 420C12708 463 12680 463 12662 463L12622 463C12604 463 12577 461 12577 419ZM13440 626C13440 586 13463 580 13486 580L13538 580C13547 581 13582 579 13582 624L13582 676C13582 716 13559 722 13536 722L13485 722C13466 721 13440 722 13440 676ZM13444 50C13444 33 13443 0 13488 0L13534 0C13579 0 13578 33 13578 45L13578 408C13578 434 13576 458 13529 458L13488 458C13443 458 13444 425 13444 413ZM13669 41C13670 3 13698 0 13713 0L14037 0C14076 0 14080 27 14080 38C14080 49 14076 75 14038 76L13821 74L14054 367C14068 384 14078 393 14078 417C14078 443 14062 458 14037 458L13728 458C13689 458 13684 432 13684 421C13684 410 13689 384 13728 383L13926 385L13693 92C13679 75 13669 65 13669 41ZM14145 137C14145 69 14195 -11 14291 -11C14373 -11 14423 23 14445 40C14445 23 14454 0 14486 0L14534 0C14574 0 14579 23 14579 45L14579 308C14579 408 14533 475 14372 475C14309 475 14260 463 14215 443C14193 432 14187 433 14187 417C14187 417 14190 352 14197 340L14201 337L14205 336C14227 337 14257 405 14372 405C14435 405 14443 359 14443 312L14443 291C14354 290 14145 273 14145 137ZM14276 137C14276 215 14382 227 14443 232L14443 154C14443 80 14378 62 14345 62C14302 62 14276 101 14276 137ZM14696 626C14696 586 14719 580 14742 580L14794 580C14803 581 14838 579 14838 624L14838 676C14838 716 14815 722 14792 722L14741 722C14722 721 14696 722 14696 676ZM14700 50C14700 33 14699 0 14744 0L14790 0C14835 0 14834 33 14834 45L14834 408C14834 434 14832 458 14785 458L14744 458C14699 458 14700 425 14700 413ZM14916 422C14916 411 14920 385 14960 385L14981 385L14981 152C14981 121 14981 91 14990 61C15007 6 15045 -11 15085 -11C15159 -11 15267 21 15267 47C15267 47 15259 102 15244 102C15231 102 15201 67 15154 67C15126 67 15112 85 15112 159C15112 168 15113 176 15113 185L15113 385L15206 385C15244 386 15249 411 15249 421C15249 430 15244 458 15204 458L15113 458L15113 544C15113 568 15103 589 15068 589L15032 589C15015 589 14984 588 14984 544L14984 458L14960 458C14920 458 14916 433 14916 422ZM15329 224C15329 36 15445 -11 15574 -11C15697 -11 15817 35 15817 220C15817 465 15655 475 15558 475C15445 475 15329 424 15329 224ZM15466 214L15466 241C15466 310 15464 402 15572 402C15679 402 15679 313 15680 255L15680 228C15679 161 15682 67 15573 67C15469 67 15468 155 15466 214ZM15908 45C15908 6 15932 0 15955 0L15999 0C16045 0 16045 53 16045 53L16045 261C16045 279 16046 297 16051 315C16060 346 16092 396 16154 396C16213 396 16213 355 16213 318L16213 44C16213 19 16220 0 16259 0L16306 0C16347 0 16349 28 16349 44L16349 308C16349 380 16349 469 16201 469C16120 469 16074 435 16039 400L16039 420C16039 463 16011 463 15993 463L15953 463C15934 463 15908 460 15908 418Z" stroke="rgb(0,0,0)" stroke-opacity="1" stroke-width="8" fill="rgb(0,0,0)" fill-opacity="1"></path></g></g></g></g><g><g><g><g transform="matrix(1,0,0,1,363.70001220703125,274.24999084472654)"><path transform="matrix(0.0119,0,0,-0.0119,0,0)" d="M167 420C188 420 201 421 226 424C171 350 72 266 72 126C72 44 107 -11 160 -11C224 -11 276 44 350 187C341 143 338 118 338 95C338 32 367 -11 412 -11C546 -11 699 238 699 384C699 441 673 482 637 482C624 482 612 478 604 470L554 423L565 404C574 410 583 413 592 413C619 413 635 390 635 350C635 205 538 39 453 39C424 39 403 79 403 134C403 181 412 247 424 290L476 474L469 482L395 460L366 311C354 249 340 209 311 155C271 80 233 39 203 39C168 39 145 78 145 136C145 255 186 352 285 464L275 482C255 473 242 470 214 470C186 470 144 472 115 475L103 476C97 477 92 477 91 477C79 477 70 475 59 470C45 443 34 407 21 352L43 352L60 394C67 411 87 422 111 422C145 422 128 420 167 420Z" stroke="rgb(0,0,0)" stroke-opacity="1" stroke-width="8" fill="rgb(0,0,0)" fill-opacity="1"></path></g></g><g><g><g><g><g transform="matrix(1,0,0,1,372.625,277.1549969482422)"><path transform="matrix(0.00833,0,0,-0.00833,0,0)" d="M418 -3L418 27L366 30C311 33 301 44 301 96L301 700L60 598L67 548L217 614L217 96C217 44 206 33 152 30L96 27L96 -3C250 0 250 0 261 0C292 0 402 -3 418 -3Z" stroke="rgb(0,0,0)" stroke-opacity="1" stroke-width="8" fill="rgb(0,0,0)" fill-opacity="1"></path></g></g></g></g></g></g></g><g><g><g><g transform="matrix(1,0,0,1,205.54998779296875,181.40001525878907)"><path transform="matrix(0.0119,0,0,-0.0119,0,0)" d="M167 420C188 420 201 421 226 424C171 350 72 266 72 126C72 44 107 -11 160 -11C224 -11 276 44 350 187C341 143 338 118 338 95C338 32 367 -11 412 -11C546 -11 699 238 699 384C699 441 673 482 637 482C624 482 612 478 604 470L554 423L565 404C574 410 583 413 592 413C619 413 635 390 635 350C635 205 538 39 453 39C424 39 403 79 403 134C403 181 412 247 424 290L476 474L469 482L395 460L366 311C354 249 340 209 311 155C271 80 233 39 203 39C168 39 145 78 145 136C145 255 186 352 285 464L275 482C255 473 242 470 214 470C186 470 144 472 115 475L103 476C97 477 92 477 91 477C79 477 70 475 59 470C45 443 34 407 21 352L43 352L60 394C67 411 87 422 111 422C145 422 128 420 167 420Z" stroke="rgb(0,0,0)" stroke-opacity="1" stroke-width="8" fill="rgb(0,0,0)" fill-opacity="1"></path></g></g><g><g><g><g><g transform="matrix(1,0,0,1,214.47503662109375,184.30499084472658)"><path transform="matrix(0.00833,0,0,-0.00833,0,0)" d="M16 23L16 -3C203 -3 203 0 239 0C275 0 275 -3 468 -3L468 82C353 77 307 81 122 77L304 270C401 373 431 428 431 503C431 618 353 689 226 689C154 689 105 669 56 619L39 483L68 483L81 529C97 587 133 612 200 612C286 612 341 558 341 473C341 398 299 324 186 204Z" stroke="rgb(0,0,0)" stroke-opacity="1" stroke-width="8" fill="rgb(0,0,0)" fill-opacity="1"></path></g></g></g></g></g></g></g><g><g><g><g transform="matrix(1,0,0,1,305.54998779296875,182.45000305175782)"><path transform="matrix(0.0119,0,0,-0.0119,0,0)" d="M167 420C188 420 201 421 226 424C171 350 72 266 72 126C72 44 107 -11 160 -11C224 -11 276 44 350 187C341 143 338 118 338 95C338 32 367 -11 412 -11C546 -11 699 238 699 384C699 441 673 482 637 482C624 482 612 478 604 470L554 423L565 404C574 410 583 413 592 413C619 413 635 390 635 350C635 205 538 39 453 39C424 39 403 79 403 134C403 181 412 247 424 290L476 474L469 482L395 460L366 311C354 249 340 209 311 155C271 80 233 39 203 39C168 39 145 78 145 136C145 255 186 352 285 464L275 482C255 473 242 470 214 470C186 470 144 472 115 475L103 476C97 477 92 477 91 477C79 477 70 475 59 470C45 443 34 407 21 352L43 352L60 394C67 411 87 422 111 422C145 422 128 420 167 420Z" stroke="rgb(0,0,0)" stroke-opacity="1" stroke-width="8" fill="rgb(0,0,0)" fill-opacity="1"></path></g></g><g><g transform="matrix(1,0,0,1,320.6500244140625,182.45000305175782)"><path transform="matrix(0.0119,0,0,-0.0119,0,0)" d="M604 347L604 406L65 406L65 347ZM604 134L604 193L65 193L65 134Z" stroke="rgb(0,0,0)" stroke-opacity="1" stroke-width="8" fill="rgb(0,0,0)" fill-opacity="1"></path></g></g><g><g><g><g><g transform="matrix(1,0,0,1,339.5,174.5999969482422)"><path transform="matrix(0.0119,0,0,-0.0119,0,0)" d="M167 420C188 420 201 421 226 424C171 350 72 266 72 126C72 44 107 -11 160 -11C224 -11 276 44 350 187C341 143 338 118 338 95C338 32 367 -11 412 -11C546 -11 699 238 699 384C699 441 673 482 637 482C624 482 612 478 604 470L554 423L565 404C574 410 583 413 592 413C619 413 635 390 635 350C635 205 538 39 453 39C424 39 403 79 403 134C403 181 412 247 424 290L476 474L469 482L395 460L366 311C354 249 340 209 311 155C271 80 233 39 203 39C168 39 145 78 145 136C145 255 186 352 285 464L275 482C255 473 242 470 214 470C186 470 144 472 115 475L103 476C97 477 92 477 91 477C79 477 70 475 59 470C45 443 34 407 21 352L43 352L60 394C67 411 87 422 111 422C145 422 128 420 167 420Z" stroke="rgb(0,0,0)" stroke-opacity="1" stroke-width="8" fill="rgb(0,0,0)" fill-opacity="1"></path></g></g><g><g><g><g><g transform="matrix(1,0,0,1,348.42498779296875,177.50500305175783)"><path transform="matrix(0.00833,0,0,-0.00833,0,0)" d="M418 -3L418 27L366 30C311 33 301 44 301 96L301 700L60 598L67 548L217 614L217 96C217 44 206 33 152 30L96 27L96 -3C250 0 250 0 261 0C292 0 402 -3 418 -3Z" stroke="rgb(0,0,0)" stroke-opacity="1" stroke-width="8" fill="rgb(0,0,0)" fill-opacity="1"></path></g></g></g></g></g></g></g><g><g><g><g transform="matrix(1,0,0,1,339.5,191.06249084472657)"><path transform="matrix(0.0119,0,0,-0.0119,0,0)" d="M167 420C188 420 201 421 226 424C171 350 72 266 72 126C72 44 107 -11 160 -11C224 -11 276 44 350 187C341 143 338 118 338 95C338 32 367 -11 412 -11C546 -11 699 238 699 384C699 441 673 482 637 482C624 482 612 478 604 470L554 423L565 404C574 410 583 413 592 413C619 413 635 390 635 350C635 205 538 39 453 39C424 39 403 79 403 134C403 181 412 247 424 290L476 474L469 482L395 460L366 311C354 249 340 209 311 155C271 80 233 39 203 39C168 39 145 78 145 136C145 255 186 352 285 464L275 482C255 473 242 470 214 470C186 470 144 472 115 475L103 476C97 477 92 477 91 477C79 477 70 475 59 470C45 443 34 407 21 352L43 352L60 394C67 411 87 422 111 422C145 422 128 420 167 420Z" stroke="rgb(0,0,0)" stroke-opacity="1" stroke-width="8" fill="rgb(0,0,0)" fill-opacity="1"></path></g></g><g><g><g><g><g transform="matrix(1,0,0,1,348.42498779296875,193.9674969482422)"><path transform="matrix(0.00833,0,0,-0.00833,0,0)" d="M16 23L16 -3C203 -3 203 0 239 0C275 0 275 -3 468 -3L468 82C353 77 307 81 122 77L304 270C401 373 431 428 431 503C431 618 353 689 226 689C154 689 105 669 56 619L39 483L68 483L81 529C97 587 133 612 200 612C286 612 341 558 341 473C341 398 299 324 186 204Z" stroke="rgb(0,0,0)" stroke-opacity="1" stroke-width="8" fill="rgb(0,0,0)" fill-opacity="1"></path></g></g></g></g></g></g></g><svg x="332.16253662109375" overflow="visible" y="162.6999969482422" height="33.72500228881836" width="5.349999904632568"><path d=" M 4.19 1.19 l -0.07 -0.07 q -0.76 0.02 -1.51 0.02 q -0.71 0.00 -1.50 -0.02 l -0.11 0.15 q 0.11 0.40 0.11 2.20 v 0.60 h 1.00 v -0.60 q 0.00 -0.92 0.05 -1.50 q 0.04 -0.42 0.83 -0.42 h 1.15 l 0.05 -0.06 v -0.31 z  M 1.11 3.94 v 25.85 h 1.00 v -25.85 z " style="fill:rgb(0,0,0);fill-opacity:1;stroke-width:1px;stroke:none;stroke-opacity:1;"></path><path d=" M 4.19 32.54 l -0.07 0.07 q -0.76 -0.02 -1.51 -0.02 q -0.71 0.00 -1.50 0.02 l -0.11 -0.15 q 0.11 -0.40 0.11 -2.20 v -0.60 h 1.00 v 0.60 q 0.00 0.92 0.05 1.50 q 0.04 0.42 0.83 0.42 h 1.15 l 0.05 0.06 v 0.31 z" style="fill:rgb(0,0,0);fill-opacity:1;stroke-width:1px;stroke:none;stroke-opacity:1;"></path></svg><svg x="355.28753662109375" overflow="visible" y="162.6999969482422" height="33.72500228881836" width="5.349999904632568"><path d=" M 1.10 1.19 l 0.07 -0.07 q 0.76 0.02 1.51 0.02 q 0.71 0.00 1.50 -0.02 l 0.11 0.15 q -0.11 0.40 -0.11 2.20 v 0.60 h -1.00 v -0.60 q 0.00 -0.92 -0.05 -1.50 q -0.04 -0.42 -0.83 -0.42 h -1.15 l -0.05 -0.06 v -0.31 z  M 4.18 3.94 v 25.85 h -1.00 v -25.85 z" style="fill:rgb(0,0,0);fill-opacity:1;stroke-width:1px;stroke:none;stroke-opacity:1;"></path><path d=" M 1.10 32.54 l 0.07 0.07 q 0.76 -0.02 1.51 -0.02 q 0.71 0.00 1.50 0.02 l 0.11 -0.15 q -0.11 -0.40 -0.11 -2.20 v -0.60 h -1.00 v 0.60 q 0.00 0.92 -0.05 1.50 q -0.04 0.42 -0.83 0.42 h -1.15 l -0.05 0.06 v 0.31 z" style="fill:rgb(0,0,0);fill-opacity:1;stroke-width:1px;stroke:none;stroke-opacity:1;"></path></svg><line stroke-dasharray="1" style="fill:none;stroke-width:[object Object];stroke:rgba(0, 0, 0, 0);" x1="335.53753662109375" y1="163.09999084472656" x2="357.2625370025635" y2="163.09999084472656"></line><line stroke-dasharray="1" style="fill:none;stroke-width:[object Object];stroke:rgba(0, 0, 0, 0);" x1="335.53753662109375" y1="163.09999084472656" x2="335.53753662109375" y2="179.56249046325684"></line><line stroke-dasharray="1" style="fill:none;stroke-width:[object Object];stroke:rgba(0, 0, 0, 0);" x1="357.2625370025635" y1="163.09999084472656" x2="357.2625370025635" y2="179.56249046325684"></line><line stroke-dasharray="1" style="fill:none;stroke-width:[object Object];stroke:rgba(0, 0, 0, 0);" x1="335.53753662109375" y1="179.56249046325684" x2="357.2625370025635" y2="179.56249046325684"></line><line stroke-dasharray="1" style="fill:none;stroke-width:[object Object];stroke:rgba(0, 0, 0, 0);" x1="335.53753662109375" y1="179.56251525878906" x2="357.2625370025635" y2="179.56251525878906"></line><line stroke-dasharray="1" style="fill:none;stroke-width:[object Object];stroke:rgba(0, 0, 0, 0);" x1="335.53753662109375" y1="179.56251525878906" x2="335.53753662109375" y2="196.02501487731934"></line><line stroke-dasharray="1" style="fill:none;stroke-width:[object Object];stroke:rgba(0, 0, 0, 0);" x1="357.2625370025635" y1="179.56251525878906" x2="357.2625370025635" y2="196.02501487731934"></line><line stroke-dasharray="1" style="fill:none;stroke-width:[object Object];stroke:rgba(0, 0, 0, 0);" x1="335.53753662109375" y1="196.02501487731934" x2="357.2625370025635" y2="196.02501487731934"></line></g><g><g><g></g></g></g></g></g><g><g><g><g transform="matrix(1,0,0,1,464.60003662109375,156.90001525878907)"><path transform="matrix(0.0119,0,0,-0.0119,0,0)" d="M345 437L329 437L350 549C366 635 394 673 440 673C470 673 497 658 512 634L522 638C527 654 537 685 545 705L550 720C534 727 503 733 480 733C469 733 453 730 445 726C421 715 339 654 316 630C294 608 282 578 271 521L256 442C215 422 195 414 170 405L165 383L246 383L237 327C207 132 170 -54 148 -123C130 -182 100 -213 64 -213C41 -213 30 -206 12 -184L-2 -188C-6 -211 -20 -259 -25 -268C-16 -273 -1 -276 10 -276C51 -276 105 -245 144 -198C215 -114 235 -18 319 383L423 383C427 402 434 425 440 439L436 446C407 439 408 437 345 437Z" stroke="rgb(0,0,0)" stroke-opacity="1" stroke-width="8" fill="rgb(0,0,0)" fill-opacity="1"></path></g></g><g><g transform="matrix(1,0,0,1,471.1500244140625,157.70000305175782)"><path transform="matrix(0.0119,0,0,-0.0119,0,0)" d="M146 266C146 526 243 632 301 700L282 726C225 675 60 542 60 266C60 159 85 58 133 -32C168 -99 200 -138 282 -215L301 -194C255 -137 146 -15 146 266Z" stroke="rgb(0,0,0)" stroke-opacity="1" stroke-width="8" fill="rgb(0,0,0)" fill-opacity="1"></path></g></g><g><g transform="matrix(1,0,0,1,475.10003662109375,156.90001525878907)"><path transform="matrix(0.0119,0,0,-0.0119,0,0)" d="M167 420C188 420 201 421 226 424C171 350 72 266 72 126C72 44 107 -11 160 -11C224 -11 276 44 350 187C341 143 338 118 338 95C338 32 367 -11 412 -11C546 -11 699 238 699 384C699 441 673 482 637 482C624 482 612 478 604 470L554 423L565 404C574 410 583 413 592 413C619 413 635 390 635 350C635 205 538 39 453 39C424 39 403 79 403 134C403 181 412 247 424 290L476 474L469 482L395 460L366 311C354 249 340 209 311 155C271 80 233 39 203 39C168 39 145 78 145 136C145 255 186 352 285 464L275 482C255 473 242 470 214 470C186 470 144 472 115 475L103 476C97 477 92 477 91 477C79 477 70 475 59 470C45 443 34 407 21 352L43 352L60 394C67 411 87 422 111 422C145 422 128 420 167 420Z" stroke="rgb(0,0,0)" stroke-opacity="1" stroke-width="8" fill="rgb(0,0,0)" fill-opacity="1"></path></g></g><g><g transform="matrix(1,0,0,1,483.675048828125,157.70000305175782)"><path transform="matrix(0.0119,0,0,-0.0119,0,0)" d="M51 726L32 700C87 636 187 526 187 266C187 -10 83 -131 32 -194L51 -215C104 -165 273 -23 273 265C273 542 108 675 51 726Z" stroke="rgb(0,0,0)" stroke-opacity="1" stroke-width="8" fill="rgb(0,0,0)" fill-opacity="1"></path></g></g></g></g><g><g><g><g><g><g><g><g transform="matrix(1,0,0,1,20.79998779296875,128.40001525878907)"><path transform="matrix(0.020399999999999998,0,0,-0.020399999999999998,0,0)" d="M18 400L55 400C95 400 99 393 99 327L99 102C99 39 96 32 62 30L16 27L16 -3C112 0 115 0 143 0C171 0 197 -1 262 -3L262 27L220 30C186 32 183 39 183 102L183 314C183 359 249 408 309 408C363 408 400 357 400 281L400 102C400 39 397 32 363 30L317 27L317 -3C417 0 417 0 442 0C467 0 467 0 567 -3L567 27L521 30C487 32 484 39 484 102L484 314C484 359 550 408 610 408C664 408 701 357 701 281L701 -3C762 0 763 0 780 0C793 0 793 0 869 -3L869 27L822 30C788 32 785 39 785 102L785 308C785 407 727 469 635 469C600 469 571 460 553 444L477 376C445 442 404 469 335 469C298 469 270 460 252 444L183 380L183 465L174 469C123 448 71 434 18 428ZM1206 82L1201 -3C1266 0 1266 0 1279 0C1284 0 1309 -1 1353 -3L1353 27L1314 29C1290 30 1286 38 1286 87L1286 270C1286 416 1244 469 1128 469C1085 469 1045 458 1007 435L954 403L954 338L980 331L993 362C1014 409 1024 416 1070 416C1164 416 1203 379 1206 288L1107 270C971 245 914 198 914 111C914 33 961 -12 1040 -12C1058 -12 1075 -9 1082 -4ZM1206 124C1177 83 1114 45 1075 45C1035 45 1000 82 1000 125C1000 162 1020 197 1050 216C1075 231 1130 245 1206 256ZM1669 254L1811 420C1817 427 1828 431 1845 431L1859 431L1859 459L1777 459L1653 284L1577 400C1562 422 1551 435 1517 469L1401 449L1406 423L1427 421C1445 420 1467 406 1477 392L1597 218L1448 42C1441 33 1428 27 1418 27L1401 27L1401 0L1487 0L1621 192L1754 -3C1806 0 1806 0 1815 0C1825 0 1825 0 1877 -3L1877 27L1852 30C1840 31 1828 39 1817 54Z" stroke="rgb(0,0,0)" stroke-opacity="1" stroke-width="8" fill="rgb(0,0,0)" fill-opacity="1"></path></g></g></g></g></g><g><g><g><g transform="matrix(1,0,0,1,26.04998779296875,146.75499084472656)"><path transform="matrix(0.01428,0,0,-0.01428,0,0)" d="M400 -16C446 -16 513 54 545 84L545 97L532 97C513 79 489 55 462 55C417 55 424 184 424 216C474 278 520 343 558 413C551 428 544 444 536 459L525 459C511 391 456 315 420 257C422 336 445 472 332 473C164 473 27 243 24 93C23 33 43 -16 111 -16C203 -16 297 64 357 131C357 96 348 -15 400 -16ZM284 437C371 437 358 224 357 164C314 113 233 28 162 28C109 28 98 70 99 115C100 202 175 437 284 437ZM908 -15L908 -74L1447 181L1447 240ZM908 615L908 555L1346 349L908 144L908 85L1447 340L1447 361ZM2023 689C1868 689 1789 566 1789 324C1789 207 1810 106 1845 57C1880 8 1936 -20 1998 -20C2149 -20 2225 110 2225 366C2225 585 2160 689 2023 689ZM2005 654C2102 654 2141 556 2141 316C2141 103 2103 15 2011 15C1914 15 1873 116 1873 360C1873 571 1910 654 2005 654Z" stroke="rgb(0,0,0)" stroke-opacity="1" stroke-width="8" fill="rgb(0,0,0)" fill-opacity="1"></path></g></g></g></g></g><g><g transform="matrix(1,0,0,1,63.5625,128.40001525878907)"><path transform="matrix(0.020399999999999998,0,0,-0.020399999999999998,0,0)" d="M594 437L578 437L599 549C615 635 643 673 689 673C719 673 746 658 761 634L771 638C776 654 786 685 794 705L799 720C783 727 752 733 729 733C718 733 702 730 694 726C670 715 588 654 565 630C543 608 531 578 520 521L505 442C464 422 444 414 419 405L414 383L495 383L486 327C456 132 419 -54 397 -123C379 -182 349 -213 313 -213C290 -213 279 -206 261 -184L247 -188C243 -211 229 -259 224 -268C233 -273 248 -276 259 -276C300 -276 354 -245 393 -198C464 -114 484 -18 568 383L672 383C676 402 683 425 689 439L685 446C656 439 657 437 594 437Z" stroke="rgb(0,0,0)" stroke-opacity="1" stroke-width="8" fill="rgb(0,0,0)" fill-opacity="1"></path></g></g><g><g transform="matrix(1,0,0,1,79.86248779296875,129.20000305175782)"><path transform="matrix(0.020399999999999998,0,0,-0.020399999999999998,0,0)" d="M146 266C146 526 243 632 301 700L282 726C225 675 60 542 60 266C60 159 85 58 133 -32C168 -99 200 -138 282 -215L301 -194C255 -137 146 -15 146 266Z" stroke="rgb(0,0,0)" stroke-opacity="1" stroke-width="8" fill="rgb(0,0,0)" fill-opacity="1"></path></g></g><g><g transform="matrix(1,0,0,1,86.63751220703125,128.40001525878907)"><path transform="matrix(0.020399999999999998,0,0,-0.020399999999999998,0,0)" d="M167 420C188 420 201 421 226 424C171 350 72 266 72 126C72 44 107 -11 160 -11C224 -11 276 44 350 187C341 143 338 118 338 95C338 32 367 -11 412 -11C546 -11 699 238 699 384C699 441 673 482 637 482C624 482 612 478 604 470L554 423L565 404C574 410 583 413 592 413C619 413 635 390 635 350C635 205 538 39 453 39C424 39 403 79 403 134C403 181 412 247 424 290L476 474L469 482L395 460L366 311C354 249 340 209 311 155C271 80 233 39 203 39C168 39 145 78 145 136C145 255 186 352 285 464L275 482C255 473 242 470 214 470C186 470 144 472 115 475L103 476C97 477 92 477 91 477C79 477 70 475 59 470C45 443 34 407 21 352L43 352L60 394C67 411 87 422 111 422C145 422 128 420 167 420Z" stroke="rgb(0,0,0)" stroke-opacity="1" stroke-width="8" fill="rgb(0,0,0)" fill-opacity="1"></path></g></g><g><g transform="matrix(1,0,0,1,101.35003662109375,129.20000305175782)"><path transform="matrix(0.020399999999999998,0,0,-0.020399999999999998,0,0)" d="M51 726L32 700C87 636 187 526 187 266C187 -10 83 -131 32 -194L51 -215C104 -165 273 -23 273 265C273 542 108 675 51 726Z" stroke="rgb(0,0,0)" stroke-opacity="1" stroke-width="8" fill="rgb(0,0,0)" fill-opacity="1"></path></g></g><g><g transform="matrix(1,0,0,1,108.125,128.40001525878907)"><path transform="matrix(0.020399999999999998,0,0,-0.020399999999999998,0,0)" d="" stroke="rgb(0,0,0)" stroke-opacity="1" stroke-width="8" fill="rgb(0,0,0)" fill-opacity="1"></path></g></g><g><g transform="matrix(1,0,0,1,117.28753662109375,128.40001525878907)"><path transform="matrix(0.020399999999999998,0,0,-0.020399999999999998,0,0)" d="M604 241L604 300L364 300L364 538L305 538L305 300L65 300L65 241L305 241L305 0L364 0L364 241Z" stroke="rgb(0,0,0)" stroke-opacity="1" stroke-width="8" fill="rgb(0,0,0)" fill-opacity="1"></path></g></g><g><g transform="matrix(1,0,0,1,135,128.40001525878907)"><path transform="matrix(0.020399999999999998,0,0,-0.020399999999999998,0,0)" d="M524 482C457 482 304 419 304 259C304 182 349 136 426 136C434 136 445 136 456 137L415 99C399 84 388 66 388 52C388 42 395 31 409 19C340 -4 212 -48 212 -159C212 -230 282 -276 391 -276C520 -276 633 -204 633 -121C633 -85 612 -49 569 -14L509 35C475 62 462 81 462 100C462 114 477 128 489 146C587 170 658 253 658 342C658 357 655 376 654 380C671 378 679 378 688 378C705 378 715 379 738 382L747 427L744 433C716 426 696 424 642 424C642 425 618 482 524 482ZM425 1L502 -58C548 -94 567 -121 567 -154C567 -206 498 -248 415 -248C333 -248 276 -206 276 -145C276 -43 386 -11 425 1ZM499 448C557 448 586 412 586 341C586 238 538 168 468 168C407 168 375 209 375 288C375 383 426 448 499 448Z" stroke="rgb(0,0,0)" stroke-opacity="1" stroke-width="8" fill="rgb(0,0,0)" fill-opacity="1"></path></g></g><g><g transform="matrix(1,0,0,1,150.26251220703125,129.20000305175782)"><path transform="matrix(0.020399999999999998,0,0,-0.020399999999999998,0,0)" d="M146 266C146 526 243 632 301 700L282 726C225 675 60 542 60 266C60 159 85 58 133 -32C168 -99 200 -138 282 -215L301 -194C255 -137 146 -15 146 266Z" stroke="rgb(0,0,0)" stroke-opacity="1" stroke-width="8" fill="rgb(0,0,0)" fill-opacity="1"></path></g></g><g><g transform="matrix(1,0,0,1,157.03753662109375,128.40001525878907)"><path transform="matrix(0.020399999999999998,0,0,-0.020399999999999998,0,0)" d="M167 420C188 420 201 421 226 424C171 350 72 266 72 126C72 44 107 -11 160 -11C224 -11 276 44 350 187C341 143 338 118 338 95C338 32 367 -11 412 -11C546 -11 699 238 699 384C699 441 673 482 637 482C624 482 612 478 604 470L554 423L565 404C574 410 583 413 592 413C619 413 635 390 635 350C635 205 538 39 453 39C424 39 403 79 403 134C403 181 412 247 424 290L476 474L469 482L395 460L366 311C354 249 340 209 311 155C271 80 233 39 203 39C168 39 145 78 145 136C145 255 186 352 285 464L275 482C255 473 242 470 214 470C186 470 144 472 115 475L103 476C97 477 92 477 91 477C79 477 70 475 59 470C45 443 34 407 21 352L43 352L60 394C67 411 87 422 111 422C145 422 128 420 167 420Z" stroke="rgb(0,0,0)" stroke-opacity="1" stroke-width="8" fill="rgb(0,0,0)" fill-opacity="1"></path></g></g><g><g transform="matrix(1,0,0,1,171.75,129.20000305175782)"><path transform="matrix(0.020399999999999998,0,0,-0.020399999999999998,0,0)" d="M51 726L32 700C87 636 187 526 187 266C187 -10 83 -131 32 -194L51 -215C104 -165 273 -23 273 265C273 542 108 675 51 726Z" stroke="rgb(0,0,0)" stroke-opacity="1" stroke-width="8" fill="rgb(0,0,0)" fill-opacity="1"></path></g></g></g></g><g><g><g><g transform="matrix(1,0,0,1,461.79998779296875,220.90001525878907)"><path transform="matrix(0.0119,0,0,-0.0119,0,0)" d="M275 482C208 482 55 419 55 259C55 182 100 136 177 136C185 136 196 136 207 137L166 99C150 84 139 66 139 52C139 42 146 31 160 19C91 -4 -37 -48 -37 -159C-37 -230 33 -276 142 -276C271 -276 384 -204 384 -121C384 -85 363 -49 320 -14L260 35C226 62 213 81 213 100C213 114 228 128 240 146C338 170 409 253 409 342C409 357 406 376 405 380C422 378 430 378 439 378C456 378 466 379 489 382L498 427L495 433C467 426 447 424 393 424C393 425 369 482 275 482ZM176 1L253 -58C299 -94 318 -121 318 -154C318 -206 249 -248 166 -248C84 -248 27 -206 27 -145C27 -43 137 -11 176 1ZM250 448C308 448 337 412 337 341C337 238 289 168 219 168C158 168 126 209 126 288C126 383 177 448 250 448Z" stroke="rgb(0,0,0)" stroke-opacity="1" stroke-width="8" fill="rgb(0,0,0)" fill-opacity="1"></path></g></g><g><g transform="matrix(1,0,0,1,467.73748779296875,221.70000305175782)"><path transform="matrix(0.0119,0,0,-0.0119,0,0)" d="M146 266C146 526 243 632 301 700L282 726C225 675 60 542 60 266C60 159 85 58 133 -32C168 -99 200 -138 282 -215L301 -194C255 -137 146 -15 146 266Z" stroke="rgb(0,0,0)" stroke-opacity="1" stroke-width="8" fill="rgb(0,0,0)" fill-opacity="1"></path></g></g><g><g transform="matrix(1,0,0,1,471.6875,220.90001525878907)"><path transform="matrix(0.0119,0,0,-0.0119,0,0)" d="M167 420C188 420 201 421 226 424C171 350 72 266 72 126C72 44 107 -11 160 -11C224 -11 276 44 350 187C341 143 338 118 338 95C338 32 367 -11 412 -11C546 -11 699 238 699 384C699 441 673 482 637 482C624 482 612 478 604 470L554 423L565 404C574 410 583 413 592 413C619 413 635 390 635 350C635 205 538 39 453 39C424 39 403 79 403 134C403 181 412 247 424 290L476 474L469 482L395 460L366 311C354 249 340 209 311 155C271 80 233 39 203 39C168 39 145 78 145 136C145 255 186 352 285 464L275 482C255 473 242 470 214 470C186 470 144 472 115 475L103 476C97 477 92 477 91 477C79 477 70 475 59 470C45 443 34 407 21 352L43 352L60 394C67 411 87 422 111 422C145 422 128 420 167 420Z" stroke="rgb(0,0,0)" stroke-opacity="1" stroke-width="8" fill="rgb(0,0,0)" fill-opacity="1"></path></g></g><g><g transform="matrix(1,0,0,1,480.2625732421875,221.70000305175782)"><path transform="matrix(0.0119,0,0,-0.0119,0,0)" d="M51 726L32 700C87 636 187 526 187 266C187 -10 83 -131 32 -194L51 -215C104 -165 273 -23 273 265C273 542 108 675 51 726Z" stroke="rgb(0,0,0)" stroke-opacity="1" stroke-width="8" fill="rgb(0,0,0)" fill-opacity="1"></path></g></g><g><g transform="matrix(1,0,0,1,484.2125244140625,220.90001525878907)"><path transform="matrix(0.0119,0,0,-0.0119,0,0)" d="" stroke="rgb(0,0,0)" stroke-opacity="1" stroke-width="8" fill="rgb(0,0,0)" fill-opacity="1"></path></g></g><g><g transform="matrix(1,0,0,1,490.737548828125,220.90001525878907)"><path transform="matrix(0.0119,0,0,-0.0119,0,0)" d="M604 -15L604 -74L65 181L65 240ZM604 615L604 555L166 349L604 144L604 85L65 340L65 361Z" stroke="rgb(0,0,0)" stroke-opacity="1" stroke-width="8" fill="rgb(0,0,0)" fill-opacity="1"></path></g></g><g><g transform="matrix(1,0,0,1,502.25,220.90001525878907)"><path transform="matrix(0.0119,0,0,-0.0119,0,0)" d="M512 689C357 689 278 566 278 324C278 207 299 106 334 57C369 8 425 -20 487 -20C638 -20 714 110 714 366C714 585 649 689 512 689ZM494 654C591 654 630 556 630 316C630 103 592 15 500 15C403 15 362 116 362 360C362 571 399 654 494 654Z" stroke="rgb(0,0,0)" stroke-opacity="1" stroke-width="8" fill="rgb(0,0,0)" fill-opacity="1"></path></g></g></g></g></svg>
</svg>
