<svg xmlns="http://www.w3.org/2000/svg" xmlns:xlink="http://www.w3.org/1999/xlink" x="0" y="0" width="661.6000366210938" height="301.6000061035156" style="
        width:661.6000366210938px;
        height:301.6000061035156px;
        background: #FFF;
        fill: none;
">
        
        
        <svg xmlns="http://www.w3.org/2000/svg" class="role-diagram-draw-area"><g class="shapes-region" style="stroke: black; fill: none;"><g class="arrow-line"><path class="connection real" stroke-dasharray="" d="  M210,161.82 L470,161.82" style="stroke: rgb(0, 0, 0); stroke-width: 1; fill: none; fill-opacity: 1;"/></g><g class="arrow-line"><path class="connection real" stroke-dasharray="" d="  M340,280 L340,43.64" style="stroke: rgb(0, 0, 0); stroke-width: 1; fill: none; fill-opacity: 1;"/></g><g class="composite-shape"><path class="real" d=" M387.27,122.23 C387.27,119.94 389.12,118.09 391.41,118.09 C393.69,118.09 395.55,119.94 395.55,122.23 C395.55,124.51 393.69,126.36 391.41,126.36 C389.12,126.36 387.27,124.51 387.27,122.23 Z" style="stroke-width: 1; stroke: none; stroke-opacity: 1; fill: rgb(255, 0, 0); fill-opacity: 1;"/></g><g class="composite-shape"><path class="real" d=" M425.09,121.05 C425.09,118.76 426.94,116.91 429.23,116.91 C431.51,116.91 433.36,118.76 433.36,121.05 C433.36,123.33 431.51,125.18 429.23,125.18 C426.94,125.18 425.09,123.33 425.09,121.05 Z" style="stroke-width: 1; stroke: none; stroke-opacity: 1; fill: rgb(255, 0, 0); fill-opacity: 1;"/></g><g class="composite-shape"><path class="real" d=" M402.64,134.05 C402.64,131.76 404.49,129.91 406.77,129.91 C409.06,129.91 410.91,131.76 410.91,134.05 C410.91,136.33 409.06,138.18 406.77,138.18 C404.49,138.18 402.64,136.33 402.64,134.05 Z" style="stroke-width: 1; stroke: none; stroke-opacity: 1; fill: rgb(255, 0, 0); fill-opacity: 1;"/></g><g class="composite-shape"><path class="real" d=" M379,74.95 C379,72.67 380.85,70.82 383.14,70.82 C385.42,70.82 387.27,72.67 387.27,74.95 C387.27,77.24 385.42,79.09 383.14,79.09 C380.85,79.09 379,77.24 379,74.95 Z" style="stroke-width: 1; stroke: none; stroke-opacity: 1; fill: rgb(255, 0, 0); fill-opacity: 1;"/></g><g class="composite-shape"><path class="real" d=" M374.8,127.61 C374.8,125.33 376.65,123.47 378.93,123.47 C381.22,123.47 383.07,125.33 383.07,127.61 C383.07,129.9 381.22,131.75 378.93,131.75 C376.65,131.75 374.8,129.9 374.8,127.61 Z" style="stroke-width: 1; stroke: none; stroke-opacity: 1; fill: rgb(255, 0, 0); fill-opacity: 1;"/></g><g class="composite-shape"><path class="real" d=" M379,98.59 C379,96.31 380.85,94.45 383.14,94.45 C385.42,94.45 387.27,96.31 387.27,98.59 C387.27,100.88 385.42,102.73 383.14,102.73 C380.85,102.73 379,100.88 379,98.59 Z" style="stroke-width: 1; stroke: none; stroke-opacity: 1; fill: rgb(255, 0, 0); fill-opacity: 1;"/></g><g class="composite-shape"><path class="real" d=" M296.27,193.14 C296.27,190.85 298.12,189 300.41,189 C302.69,189 304.55,190.85 304.55,193.14 C304.55,195.42 302.69,197.27 300.41,197.27 C298.12,197.27 296.27,195.42 296.27,193.14 Z" style="stroke-width: 1; stroke: none; stroke-opacity: 1; fill: rgb(74, 144, 226); fill-opacity: 1;"/></g><g class="composite-shape"><path class="real" d=" M280.91,181.32 C280.91,179.03 282.76,177.18 285.05,177.18 C287.33,177.18 289.18,179.03 289.18,181.32 C289.18,183.6 287.33,185.45 285.05,185.45 C282.76,185.45 280.91,183.6 280.91,181.32 Z" style="stroke-width: 1; stroke: none; stroke-opacity: 1; fill: rgb(74, 144, 226); fill-opacity: 1;"/></g><g class="composite-shape"><path class="real" d=" M269.09,213.23 C269.09,210.94 270.94,209.09 273.23,209.09 C275.51,209.09 277.36,210.94 277.36,213.23 C277.36,215.51 275.51,217.36 273.23,217.36 C270.94,217.36 269.09,215.51 269.09,213.23 Z" style="stroke-width: 1; stroke: none; stroke-opacity: 1; fill: rgb(74, 144, 226); fill-opacity: 1;"/></g><g class="composite-shape"><path class="real" d=" M280.91,236.86 C280.91,234.58 282.76,232.73 285.05,232.73 C287.33,232.73 289.18,234.58 289.18,236.86 C289.18,239.15 287.33,241 285.05,241 C282.76,241 280.91,239.15 280.91,236.86 Z" style="stroke-width: 1; stroke: none; stroke-opacity: 1; fill: rgb(74, 144, 226); fill-opacity: 1;"/></g><g class="composite-shape"><path class="real" d=" M272.64,169.5 C272.64,167.22 274.49,165.36 276.77,165.36 C279.06,165.36 280.91,167.22 280.91,169.5 C280.91,171.78 279.06,173.64 276.77,173.64 C274.49,173.64 272.64,171.78 272.64,169.5 Z" style="stroke-width: 1; stroke: none; stroke-opacity: 1; fill: rgb(74, 144, 226); fill-opacity: 1;"/></g><g class="composite-shape"><path class="real" d=" M284.45,225.05 C284.45,222.76 286.31,220.91 288.59,220.91 C290.88,220.91 292.73,222.76 292.73,225.05 C292.73,227.33 290.88,229.18 288.59,229.18 C286.31,229.18 284.45,227.33 284.45,225.05 Z" style="stroke-width: 1; stroke: none; stroke-opacity: 1; fill: rgb(74, 144, 226); fill-opacity: 1;"/></g><g class="composite-shape"><path class="real" d=" M292.73,225.05 C292.73,222.76 294.58,220.91 296.86,220.91 C299.15,220.91 301,222.76 301,225.05 C301,227.33 299.15,229.18 296.86,229.18 C294.58,229.18 292.73,227.33 292.73,225.05 Z" style="stroke-width: 1; stroke: none; stroke-opacity: 1; fill: rgb(74, 144, 226); fill-opacity: 1;"/></g><g class="composite-shape"><path class="real" d=" M289.18,236.86 C289.18,234.58 291.03,232.73 293.32,232.73 C295.6,232.73 297.45,234.58 297.45,236.86 C297.45,239.15 295.6,241 293.32,241 C291.03,241 289.18,239.15 289.18,236.86 Z" style="stroke-width: 1; stroke: none; stroke-opacity: 1; fill: rgb(74, 144, 226); fill-opacity: 1;"/></g><g class="arrow-line"><path class="connection real" stroke-dasharray="" d="  M260.11,82.87 L347.76,170.53 L425.56,248.33" style="stroke: rgb(0, 0, 0); stroke-opacity: 1; stroke-width: 2; fill: none; fill-opacity: 1;"/></g><g class="arrow-line"><path class="connection real" stroke-dasharray="" d="  M340,161.82 L396.97,104.85" style="stroke: rgb(255, 142, 0); stroke-opacity: 1; stroke-width: 2; fill: none; fill-opacity: 1;"/><g stroke="rgb(255,142,0)" stroke-opacity="1" transform="matrix(-0.7071067811865479,0.7071067811865471,-0.7071067811865471,-0.7071067811865479,399.0909090909092,102.72727272727272)" style="stroke: rgb(255, 142, 0); stroke-width: 2;"><path d=" M14.21,-4.28 Q6.45,-0.59 0,0 Q6.45,0.59 14.21,4.28"/></g></g><g class="arrow-line"><path class="connection real" stroke-dasharray="2.25 3.685" d="  M296.27,47.42 L383.93,135.07 L461.73,212.87" style="stroke: rgb(0, 0, 0); stroke-opacity: 1; stroke-width: 2; fill: none; fill-opacity: 1;"/></g><g class="arrow-line"><path class="connection real" stroke-dasharray="2.25 3.685" d="  M228.71,112.22 L316.36,199.87 L394.16,277.67" style="stroke: rgb(0, 0, 0); stroke-opacity: 1; stroke-width: 2; fill: none; fill-opacity: 1;"/></g><g class="arrow-line"><path class="connection real" stroke-dasharray="" d="  M340,69.87 L340,167.6 L340,258.96" style="stroke: rgb(0, 0, 0); stroke-opacity: 1; stroke-width: 2; fill: none; fill-opacity: 1;"/></g><g class="arrow-line"><path class="connection real" stroke-dasharray="" d="  M340,161.82 L420.57,161.82" style="stroke: rgb(126, 211, 33); stroke-opacity: 1; stroke-width: 2; fill: none; fill-opacity: 1;"/><g stroke="rgb(126,211,33)" stroke-opacity="1" transform="matrix(-1,1.2246467991473532e-16,-1.2246467991473532e-16,-1,423.56716504931927,161.8181818181818)" style="stroke: rgb(126, 211, 33); stroke-width: 2;"><path d=" M14.21,-4.28 Q6.45,-0.59 0,0 Q6.45,0.59 14.21,4.28"/></g></g><g class="arrow-line"><path class="connection real" stroke-dasharray="2.25 3.685" d="  M304.55,81.69 L304.55,205.65 L304.55,261.79" style="stroke: rgb(0, 0, 0); stroke-opacity: 1; stroke-width: 2; fill: none; fill-opacity: 1;"/></g><g class="arrow-line"><path class="connection real" stroke-dasharray="2.25 3.685" d="  M375.45,81.69 L375.45,205.65 L375.45,261.79" style="stroke: rgb(0, 0, 0); stroke-opacity: 1; stroke-width: 2; fill: none; fill-opacity: 1;"/></g><g class="composite-shape"><path class="real" d=" M228.71,112.22 L293.71,47.22 L459.16,212.67 L394.16,277.67 Z" style="stroke-width: 1; stroke: none; stroke-opacity: 1; fill: rgb(255, 142, 0); fill-opacity: 0.4;"/></g><g class="composite-shape"><path class="real" d=" M304.55,81.69 L375.45,81.69 L375.45,258.02 L304.55,258.02 Z" style="stroke-width: 1; stroke: none; stroke-opacity: 1; fill: rgb(126, 211, 33); fill-opacity: 0.4;"/></g><g class="composite-shape"><path class="real" d=" M451.73,124.14 C451.73,121.85 453.58,120 455.86,120 C458.15,120 460,121.85 460,124.14 C460,126.42 458.15,128.27 455.86,128.27 C453.58,128.27 451.73,126.42 451.73,124.14 Z" style="stroke-width: 1; stroke: none; stroke-opacity: 1; fill: rgb(255, 0, 0); fill-opacity: 1;"/></g><g class="grouped-shape"><g class="arrow-line"><path class="connection real" stroke-dasharray="" d="  M328.18,123.35 L340,123.35" style="stroke: rgb(0, 0, 0); stroke-width: 1; fill: none; fill-opacity: 1;"/></g><g class="arrow-line"><path class="connection real" stroke-dasharray="" d="  M304.74,123.65 L316.56,123.65" style="stroke: rgb(0, 0, 0); stroke-width: 1; fill: none; fill-opacity: 1;"/></g></g><g class="grouped-shape"><g class="arrow-line"><path class="connection real" stroke-dasharray="" d="  M363.44,217.21 L375.26,217.21" style="stroke: rgb(0, 0, 0); stroke-width: 1; fill: none; fill-opacity: 1;"/></g><g class="arrow-line"><path class="connection real" stroke-dasharray="" d="  M340,217.5 L351.82,217.5" style="stroke: rgb(0, 0, 0); stroke-width: 1; fill: none; fill-opacity: 1;"/></g></g><g class="grouped-shape"><g class="arrow-line"><path class="connection real" stroke-dasharray="" d="  M277.48,121.39 L287.7,111.32" style="stroke: rgb(0, 0, 0); stroke-width: 1; fill: none; fill-opacity: 1;"/></g><g class="arrow-line"><path class="connection real" stroke-dasharray="" d="  M257.27,140.78 L269.09,128.96" style="stroke: rgb(0, 0, 0); stroke-width: 1; fill: none; fill-opacity: 1;"/></g></g><g class="arrow-line"><path class="connection real" stroke-dasharray="" d="  M424.32,198.12 L434.55,188.05" style="stroke: rgb(0, 0, 0); stroke-width: 1; fill: none; fill-opacity: 1;"/></g><g class="arrow-line"><path class="connection real" stroke-dasharray="" d="  M399.09,223.51 L410.91,211.69" style="stroke: rgb(0, 0, 0); stroke-width: 1; fill: none; fill-opacity: 1;"/></g><g/></g><g/><g/><g/></svg>
        <svg xmlns="http://www.w3.org/2000/svg" xmlns:xlink="http://www.w3.org/1999/xlink" width="660" height="300" style="width:660px;height:300px;font-family:Asana-Math, Asana;background:#FFF;"><g><g><g><text x="51.79998779296875" y="160.1999969482422" style="white-space:pre;stroke:none;fill:rgb(74,144,226);fill-opacity:1;font-size:13.5px;font-family:Arial, Helvetica, sans-serif;font-weight:400;font-style:normal;dominant-baseline:text-before-edge;text-decoration:none solid rgb(74, 144, 226);">Negative Labels</text></g></g><g><g><g><g><g><g transform="matrix(1,0,0,1,69.17498779296875,191.9999969482422)"><path transform="matrix(0.015300000000000001,0,0,-0.015300000000000001,0,0)" d="M-7 -180C-8 -187 -8 -193 -8 -198C-8 -241 29 -276 74 -276C180 -276 290 -152 349 33L490 473L479 482C450 471 427 465 405 463L370 331C358 284 323 211 290 162C255 111 206 67 184 67C172 67 163 90 164 115L180 322C182 353 184 391 184 419C184 464 177 482 160 482C147 482 133 475 85 442L3 386L14 368L64 398C69 401 80 410 89 410C103 410 111 391 111 358C111 357 111 351 110 343L93 100L92 60C92 18 110 -11 135 -11C172 -11 256 74 331 187L282 16C231 -161 181 -234 111 -234C76 -234 49 -207 49 -172C49 -167 50 -159 51 -150L41 -146Z" stroke="rgb(0,0,0)" stroke-opacity="1" stroke-width="8" fill="rgb(0,0,0)" fill-opacity="1"></path></g></g><g><g><g><g><g transform="matrix(1,0,0,1,77.26251220703125,195.51000305175782)"><path transform="matrix(0.01071,0,0,-0.01071,0,0)" d="M34 388L41 368L73 389C110 412 113 414 120 414C130 414 138 404 138 391C138 384 134 361 130 347L64 107C56 76 51 49 51 30C51 6 62 -9 81 -9C107 -9 143 12 241 85L231 103L205 86C176 67 153 56 144 56C137 56 131 66 131 76C131 86 133 95 138 116L215 420C219 437 221 448 221 456C221 473 212 482 196 482C174 482 137 461 62 408ZM228 712C199 712 170 679 170 645C170 620 185 604 209 604C240 604 264 633 264 671C264 695 249 712 228 712Z" stroke="rgb(0,0,0)" stroke-opacity="1" stroke-width="8" fill="rgb(0,0,0)" fill-opacity="1"></path></g></g></g></g></g><g><g transform="matrix(1,0,0,1,81.1500244140625,191.9999969482422)"><path transform="matrix(0.015300000000000001,0,0,-0.015300000000000001,0,0)" d="" stroke="rgb(0,0,0)" stroke-opacity="1" stroke-width="8" fill="rgb(0,0,0)" fill-opacity="1"></path></g></g><g><g transform="matrix(1,0,0,1,89.54998779296875,191.9999969482422)"><path transform="matrix(0.015300000000000001,0,0,-0.015300000000000001,0,0)" d="M604 347L604 406L65 406L65 347ZM604 134L604 193L65 193L65 134Z" stroke="rgb(0,0,0)" stroke-opacity="1" stroke-width="8" fill="rgb(0,0,0)" fill-opacity="1"></path></g></g><g><g transform="matrix(1,0,0,1,104.35003662109375,191.9999969482422)"><path transform="matrix(0.015300000000000001,0,0,-0.015300000000000001,0,0)" d="" stroke="rgb(0,0,0)" stroke-opacity="1" stroke-width="8" fill="rgb(0,0,0)" fill-opacity="1"></path></g></g><g><g transform="matrix(1,0,0,1,111.2125244140625,191.9999969482422)"><path transform="matrix(0.015300000000000001,0,0,-0.015300000000000001,0,0)" d="M555 243L555 299L51 299L51 243Z" stroke="rgb(0,0,0)" stroke-opacity="1" stroke-width="8" fill="rgb(0,0,0)" fill-opacity="1"></path></g></g><g><g transform="matrix(1,0,0,1,123.51251220703125,191.9999969482422)"><path transform="matrix(0.015300000000000001,0,0,-0.015300000000000001,0,0)" d="M418 -3L418 27L366 30C311 33 301 44 301 96L301 700L60 598L67 548L217 614L217 96C217 44 206 33 152 30L96 27L96 -3C250 0 250 0 261 0C292 0 402 -3 418 -3Z" stroke="rgb(0,0,0)" stroke-opacity="1" stroke-width="8" fill="rgb(0,0,0)" fill-opacity="1"></path></g></g></g></g></g></g></g><g><g><g><text x="51.79998779296875" y="110.19999694824219" style="white-space:pre;stroke:none;fill:rgb(255,0,0);fill-opacity:1;font-size:13.5px;font-family:Arial, Helvetica, sans-serif;font-weight:400;font-style:normal;dominant-baseline:text-before-edge;text-decoration:none solid rgb(255, 0, 0);">Positive Labels</text></g></g><g><g><g><g><g><g transform="matrix(1,0,0,1,65.6875,141.9999969482422)"><path transform="matrix(0.015300000000000001,0,0,-0.015300000000000001,0,0)" d="M-7 -180C-8 -187 -8 -193 -8 -198C-8 -241 29 -276 74 -276C180 -276 290 -152 349 33L490 473L479 482C450 471 427 465 405 463L370 331C358 284 323 211 290 162C255 111 206 67 184 67C172 67 163 90 164 115L180 322C182 353 184 391 184 419C184 464 177 482 160 482C147 482 133 475 85 442L3 386L14 368L64 398C69 401 80 410 89 410C103 410 111 391 111 358C111 357 111 351 110 343L93 100L92 60C92 18 110 -11 135 -11C172 -11 256 74 331 187L282 16C231 -161 181 -234 111 -234C76 -234 49 -207 49 -172C49 -167 50 -159 51 -150L41 -146Z" stroke="rgb(0,0,0)" stroke-opacity="1" stroke-width="8" fill="rgb(0,0,0)" fill-opacity="1"></path></g></g><g><g><g><g><g transform="matrix(1,0,0,1,73.7750244140625,145.51000305175782)"><path transform="matrix(0.01071,0,0,-0.01071,0,0)" d="M34 388L41 368L73 389C110 412 113 414 120 414C130 414 138 404 138 391C138 384 134 361 130 347L64 107C56 76 51 49 51 30C51 6 62 -9 81 -9C107 -9 143 12 241 85L231 103L205 86C176 67 153 56 144 56C137 56 131 66 131 76C131 86 133 95 138 116L215 420C219 437 221 448 221 456C221 473 212 482 196 482C174 482 137 461 62 408ZM228 712C199 712 170 679 170 645C170 620 185 604 209 604C240 604 264 633 264 671C264 695 249 712 228 712Z" stroke="rgb(0,0,0)" stroke-opacity="1" stroke-width="8" fill="rgb(0,0,0)" fill-opacity="1"></path></g></g></g></g></g><g><g transform="matrix(1,0,0,1,77.66253662109375,141.9999969482422)"><path transform="matrix(0.015300000000000001,0,0,-0.015300000000000001,0,0)" d="" stroke="rgb(0,0,0)" stroke-opacity="1" stroke-width="8" fill="rgb(0,0,0)" fill-opacity="1"></path></g></g><g><g transform="matrix(1,0,0,1,86.0625,141.9999969482422)"><path transform="matrix(0.015300000000000001,0,0,-0.015300000000000001,0,0)" d="M604 347L604 406L65 406L65 347ZM604 134L604 193L65 193L65 134Z" stroke="rgb(0,0,0)" stroke-opacity="1" stroke-width="8" fill="rgb(0,0,0)" fill-opacity="1"></path></g></g><g><g transform="matrix(1,0,0,1,100.86248779296875,141.9999969482422)"><path transform="matrix(0.015300000000000001,0,0,-0.015300000000000001,0,0)" d="" stroke="rgb(0,0,0)" stroke-opacity="1" stroke-width="8" fill="rgb(0,0,0)" fill-opacity="1"></path></g></g><g><g transform="matrix(1,0,0,1,107.72503662109375,141.9999969482422)"><path transform="matrix(0.015300000000000001,0,0,-0.015300000000000001,0,0)" d="M604 241L604 300L364 300L364 538L305 538L305 300L65 300L65 241L305 241L305 0L364 0L364 241Z" stroke="rgb(0,0,0)" stroke-opacity="1" stroke-width="8" fill="rgb(0,0,0)" fill-opacity="1"></path></g></g><g><g transform="matrix(1,0,0,1,120.98748779296875,141.9999969482422)"><path transform="matrix(0.015300000000000001,0,0,-0.015300000000000001,0,0)" d="M418 -3L418 27L366 30C311 33 301 44 301 96L301 700L60 598L67 548L217 614L217 96C217 44 206 33 152 30L96 27L96 -3C250 0 250 0 261 0C292 0 402 -3 418 -3Z" stroke="rgb(0,0,0)" stroke-opacity="1" stroke-width="8" fill="rgb(0,0,0)" fill-opacity="1"></path></g></g></g></g></g></g></g><g><g><g><g transform="matrix(1,0,0,1,402.79998779296875,98.76249084472656)"><path transform="matrix(0.0136,0,0,-0.0136,0,0)" d="M413 469L254 104C251 113 166 397 166 405C166 420 179 428 204 429L244 431L244 459C145 456 145 456 125 456C105 456 105 456 6 459L6 431L34 429C62 427 75 407 100 329L202 -7L249 -7L399 335L535 -7L581 -7L718 342C748 409 760 426 782 429L808 431L808 459C726 456 726 456 710 456C694 456 694 456 612 459L612 431L646 429C671 428 685 416 685 398L580 98L465 388C451 422 444 442 436 469Z" stroke="rgb(255,142,0)" stroke-opacity="1" stroke-width="24" fill="rgb(255,142,0)" fill-opacity="1"></path></g></g><g><g><g><g><g transform="matrix(1,0,0,1,414.91253662109375,92.68249084472656)"><path transform="matrix(0.009519999999999999,0,0,-0.009519999999999999,0,0)" d="M168 267L37 213L32 204L68 153L78 153L184 241L202 99L212 95L280 121L280 131L212 253L350 233L359 241L359 303L353 307L214 283L283 408L280 423L218 442L209 438L183 295L88 393L78 393L34 341L37 331Z" stroke="rgb(255,142,0)" stroke-opacity="1" stroke-width="24" fill="rgb(255,142,0)" fill-opacity="1"></path></g></g></g></g><g><g><g><g transform="matrix(1,0,0,1,414.53753662109375,102.49499084472656)"><path transform="matrix(0.009519999999999999,0,0,-0.009519999999999999,0,0)" d="M418 -3L418 27L366 30C311 33 301 44 301 96L301 700L60 598L67 548L217 614L217 96C217 44 206 33 152 30L96 27L96 -3C250 0 250 0 261 0C292 0 402 -3 418 -3Z" stroke="rgb(255,142,0)" stroke-opacity="1" stroke-width="24" fill="rgb(255,142,0)" fill-opacity="1"></path></g></g></g></g></g></g></g><g><g><g><g transform="matrix(1,0,0,1,231.79998779296875,28.599990844726562)"><path transform="matrix(0.018,0,0,-0.018,0,0)" d="M60 342C60 153 127 -22 396 -22C427 -22 435 -21 473 -17C529 -97 528 -105 565 -105L645 -105C662 -105 676 -101 676 -82C676 -65 657 -54 598 27C739 113 731 310 732 336L731 381C718 661 543 717 400 717C196 717 60 619 60 342ZM199 338L199 343C199 413 200 531 270 594C279 602 320 639 396 639C437 639 478 627 511 603C592 543 593 410 593 340L593 327C593 242 582 164 533 109C468 192 470 194 445 194L382 194C364 194 353 193 346 171L349 162L360 145L421 57C412 56 404 56 395 56C346 56 302 70 273 95C208 149 199 247 199 338ZM853 139C853 68 859 -11 1013 -11C1068 -11 1112 -3 1161 44C1161 37 1159 0 1202 0L1249 0C1275 0 1294 8 1294 43L1294 416C1293 451 1274 458 1249 458L1205 458C1193 458 1181 457 1171 449C1160 437 1158 436 1158 406L1158 181C1158 72 1092 50 1053 50C995 50 989 67 989 123C989 131 990 139 990 147L990 413C989 430 990 458 943 458L897 458C852 458 853 424 853 414ZM1385 137C1385 69 1435 -11 1531 -11C1613 -11 1663 23 1685 40C1685 23 1694 0 1726 0L1774 0C1814 0 1819 23 1819 45L1819 308C1819 408 1773 475 1612 475C1549 475 1500 463 1455 443C1433 432 1427 433 1427 417C1427 417 1430 352 1437 340L1441 337L1445 336C1467 337 1497 405 1612 405C1675 405 1683 359 1683 312L1683 291C1594 290 1385 273 1385 137ZM1516 137C1516 215 1622 227 1683 232L1683 154C1683 80 1618 62 1585 62C1542 62 1516 101 1516 137ZM1940 45C1940 5 1962 0 1988 0L2029 0C2072 2 2074 22 2074 49L2074 677C2074 714 2053 722 2028 722L1982 722C1954 722 1940 704 1940 675ZM2191 626C2191 586 2214 580 2237 580L2289 580C2298 581 2333 579 2333 624L2333 676C2333 716 2310 722 2287 722L2236 722C2217 721 2191 722 2191 676ZM2195 50C2195 33 2194 0 2239 0L2285 0C2330 0 2329 33 2329 45L2329 408C2329 434 2327 458 2280 458L2239 458C2194 458 2195 425 2195 413ZM2411 422C2411 411 2415 385 2455 385L2476 385L2476 152C2476 121 2476 91 2485 61C2502 6 2540 -11 2580 -11C2654 -11 2762 21 2762 47C2762 47 2754 102 2739 102C2726 102 2696 67 2649 67C2621 67 2607 85 2607 159C2607 168 2608 176 2608 185L2608 385L2701 385C2739 386 2744 411 2744 421C2744 430 2739 458 2699 458L2608 458L2608 544C2608 568 2598 589 2563 589L2527 589C2510 589 2479 588 2479 544L2479 458L2455 458C2415 458 2411 433 2411 422ZM2793 433C2793 423 2798 414 2802 405L2979 14C2982 8 2984 2 2983 -5C2967 -56 2952 -120 2889 -120C2848 -120 2829 -101 2814 -97L2810 -97L2805 -99C2799 -105 2799 -107 2800 -124C2805 -188 2805 -188 2810 -193C2819 -202 2868 -206 2886 -206C2988 -206 3038 -126 3056 -90C3064 -74 3070 -56 3076 -39L3231 412C3233 418 3235 425 3235 431C3235 440 3230 458 3200 458L3172 458C3125 458 3119 433 3107 400C3072 296 3036 190 3032 137C3017 234 2921 427 2915 434C2898 457 2872 458 2861 458L2827 458C2818 458 2793 457 2793 433ZM3660 224C3660 36 3776 -11 3905 -11C4028 -11 4148 35 4148 220C4148 465 3986 475 3889 475C3776 475 3660 424 3660 224ZM3797 214L3797 241C3797 310 3795 402 3903 402C4010 402 4010 313 4011 255L4011 228C4010 161 4013 67 3904 67C3800 67 3799 155 3797 214ZM4211 422C4211 412 4214 385 4254 385L4266 385L4266 46C4266 31 4265 0 4310 0L4352 0C4399 0 4399 27 4399 52L4399 385L4449 385C4489 385 4494 411 4494 422C4494 437 4484 458 4451 458L4396 458L4396 580C4396 613 4396 660 4463 660C4519 660 4534 623 4549 623C4561 623 4561 639 4561 648L4561 709L4559 714L4556 718C4542 728 4497 733 4461 733L4459 733C4304 732 4266 644 4266 546L4266 458L4256 458C4215 458 4211 433 4211 422ZM4974 46C4974 23 4979 0 5020 0L5072 0C5106 0 5116 19 5116 44L5116 298L5355 298C5376 298 5401 300 5401 347C5401 369 5396 393 5357 393L5116 393L5116 590C5211 589 5393 586 5402 586C5446 586 5447 617 5447 631L5447 646C5447 671 5441 691 5402 691L5019 691C4977 691 4974 663 4974 649ZM5550 626C5550 586 5573 580 5596 580L5648 580C5657 581 5692 579 5692 624L5692 676C5692 716 5669 722 5646 722L5595 722C5576 721 5550 722 5550 676ZM5554 50C5554 33 5553 0 5598 0L5644 0C5689 0 5688 33 5688 45L5688 408C5688 434 5686 458 5639 458L5598 458C5553 458 5554 425 5554 413ZM5808 45C5808 6 5832 0 5855 0L5899 0C5945 0 5945 53 5945 53L5945 261C5945 279 5946 297 5951 315C5960 346 5992 396 6054 396C6113 396 6113 355 6113 318L6113 44C6113 19 6120 0 6159 0L6206 0C6247 0 6249 28 6249 44L6249 308C6249 380 6249 469 6101 469C6020 469 5974 435 5939 400L5939 420C5939 463 5911 463 5893 463L5853 463C5834 463 5808 460 5808 418ZM6340 137C6340 69 6390 -11 6486 -11C6568 -11 6618 23 6640 40C6640 23 6649 0 6681 0L6729 0C6769 0 6774 23 6774 45L6774 308C6774 408 6728 475 6567 475C6504 475 6455 463 6410 443C6388 432 6382 433 6382 417C6382 417 6385 352 6392 340L6396 337L6400 336C6422 337 6452 405 6567 405C6630 405 6638 359 6638 312L6638 291C6549 290 6340 273 6340 137ZM6471 137C6471 215 6577 227 6638 232L6638 154C6638 80 6573 62 6540 62C6497 62 6471 101 6471 137ZM6895 45C6895 5 6917 0 6943 0L6984 0C7027 2 7029 22 7029 49L7029 677C7029 714 7008 722 6983 722L6937 722C6909 722 6895 704 6895 675ZM7506 63C7506 59 7507 58 7508 54C7515 39 7630 -22 7762 -22C7957 -22 8006 90 8006 199C8006 317 7920 389 7843 414C7767 439 7643 437 7643 528C7643 562 7660 613 7752 613C7896 613 7913 537 7940 537C7944 537 7947 540 7950 548C7964 617 7968 642 7968 653C7968 657 7968 658 7967 660C7963 671 7876 717 7763 717C7545 717 7517 588 7517 509C7517 387 7618 322 7688 305C7780 282 7796 283 7820 271C7837 263 7880 237 7880 184C7880 106 7822 86 7766 86C7608 86 7559 177 7536 177C7529 177 7524 169 7520 147C7509 87 7506 71 7506 63ZM8098 224C8098 36 8214 -11 8343 -11C8466 -11 8586 35 8586 220C8586 465 8424 475 8327 475C8214 475 8098 424 8098 224ZM8235 214L8235 241C8235 310 8233 402 8341 402C8448 402 8448 313 8449 255L8449 228C8448 161 8451 67 8342 67C8238 67 8237 155 8235 214ZM8678 45C8678 5 8700 0 8726 0L8767 0C8810 2 8812 22 8812 49L8812 677C8812 714 8791 722 8766 722L8720 722C8692 722 8678 704 8678 675ZM8932 139C8932 68 8938 -11 9092 -11C9147 -11 9191 -3 9240 44C9240 37 9238 0 9281 0L9328 0C9354 0 9373 8 9373 43L9373 416C9372 451 9353 458 9328 458L9284 458C9272 458 9260 457 9250 449C9239 437 9237 436 9237 406L9237 181C9237 72 9171 50 9132 50C9074 50 9068 67 9068 123C9068 131 9069 139 9069 147L9069 413C9068 430 9069 458 9022 458L8976 458C8931 458 8932 424 8932 414ZM9455 422C9455 411 9459 385 9499 385L9520 385L9520 152C9520 121 9520 91 9529 61C9546 6 9584 -11 9624 -11C9698 -11 9806 21 9806 47C9806 47 9798 102 9783 102C9770 102 9740 67 9693 67C9665 67 9651 85 9651 159C9651 168 9652 176 9652 185L9652 385L9745 385C9783 386 9788 411 9788 421C9788 430 9783 458 9743 458L9652 458L9652 544C9652 568 9642 589 9607 589L9571 589C9554 589 9523 588 9523 544L9523 458L9499 458C9459 458 9455 433 9455 422ZM9894 626C9894 586 9917 580 9940 580L9992 580C10001 581 10036 579 10036 624L10036 676C10036 716 10013 722 9990 722L9939 722C9920 721 9894 722 9894 676ZM9898 50C9898 33 9897 0 9942 0L9988 0C10033 0 10032 33 10032 45L10032 408C10032 434 10030 458 9983 458L9942 458C9897 458 9898 425 9898 413ZM10123 224C10123 36 10239 -11 10368 -11C10491 -11 10611 35 10611 220C10611 465 10449 475 10352 475C10239 475 10123 424 10123 224ZM10260 214L10260 241C10260 310 10258 402 10366 402C10473 402 10473 313 10474 255L10474 228C10473 161 10476 67 10367 67C10263 67 10262 155 10260 214ZM10702 45C10702 6 10726 0 10749 0L10793 0C10839 0 10839 53 10839 53L10839 261C10839 279 10840 297 10845 315C10854 346 10886 396 10948 396C11007 396 11007 355 11007 318L11007 44C11007 19 11014 0 11053 0L11100 0C11141 0 11143 28 11143 44L11143 308C11143 380 11143 469 10995 469C10914 469 10868 435 10833 400L10833 420C10833 463 10805 463 10787 463L10747 463C10728 463 10702 460 10702 418Z" stroke="rgb(0,0,0)" stroke-opacity="1" stroke-width="8" fill="rgb(0,0,0)" fill-opacity="1"></path></g></g><g><text x="433.47503662109375" y="13" style="white-space:pre;stroke:none;fill:rgb(0,0,0);fill-opacity:1;font-size:18px;font-family:Arial, Helvetica, sans-serif;font-weight:400;font-style:normal;dominant-baseline:text-before-edge;text-decoration:none solid rgb(0, 0, 0);"> </text></g></g></g><g><g><g><g transform="matrix(1,0,0,1,421.11248779296875,152.76249084472656)"><path transform="matrix(0.0136,0,0,-0.0136,0,0)" d="M413 469L254 104C251 113 166 397 166 405C166 420 179 428 204 429L244 431L244 459C145 456 145 456 125 456C105 456 105 456 6 459L6 431L34 429C62 427 75 407 100 329L202 -7L249 -7L399 335L535 -7L581 -7L718 342C748 409 760 426 782 429L808 431L808 459C726 456 726 456 710 456C694 456 694 456 612 459L612 431L646 429C671 428 685 416 685 398L580 98L465 388C451 422 444 442 436 469Z" stroke="rgb(126,211,33)" stroke-opacity="1" stroke-width="24" fill="rgb(126,211,33)" fill-opacity="1"></path></g></g><g><g><g><g><g transform="matrix(1,0,0,1,433.22503662109375,146.68249084472657)"><path transform="matrix(0.009519999999999999,0,0,-0.009519999999999999,0,0)" d="M168 267L37 213L32 204L68 153L78 153L184 241L202 99L212 95L280 121L280 131L212 253L350 233L359 241L359 303L353 307L214 283L283 408L280 423L218 442L209 438L183 295L88 393L78 393L34 341L37 331Z" stroke="rgb(126,211,33)" stroke-opacity="1" stroke-width="24" fill="rgb(126,211,33)" fill-opacity="1"></path></g></g></g></g><g><g><g><g transform="matrix(1,0,0,1,432.85003662109375,156.49499084472657)"><path transform="matrix(0.009519999999999999,0,0,-0.009519999999999999,0,0)" d="M16 23L16 -3C203 -3 203 0 239 0C275 0 275 -3 468 -3L468 82C353 77 307 81 122 77L304 270C401 373 431 428 431 503C431 618 353 689 226 689C154 689 105 669 56 619L39 483L68 483L81 529C97 587 133 612 200 612C286 612 341 558 341 473C341 398 299 324 186 204Z" stroke="rgb(126,211,33)" stroke-opacity="1" stroke-width="24" fill="rgb(126,211,33)" fill-opacity="1"></path></g></g></g></g></g></g></g><g><g><g><g transform="matrix(1,0,0,1,317.5625,125.15000915527344)"><path transform="matrix(0.0085,0,0,-0.0085,0,0)" d="M154 473C89 473 51 426 18 377C18 371 27 368 30 365L30 366C54 394 74 412 111 412C206 412 215 290 214 220C212 136 203 53 186 -29C140 -86 92 -181 65 -249C69 -257 74 -265 77 -273C98 -268 119 -260 139 -251C165 -183 189 -106 203 -36C387 199 540 317 547 438C550 493 485 453 459 446L459 435C502 284 287 130 220 19L220 23C302 358 258 473 154 473Z" stroke="rgb(0,0,0)" stroke-opacity="1" stroke-width="24" fill="rgb(0,0,0)" fill-opacity="1"></path></g></g><g><g><g><g><g transform="matrix(1,0,0,1,322.75,127.46249694824219)"><path transform="matrix(0.00595,0,0,-0.00595,0,0)" d="M16 23L16 -3C203 -3 203 0 239 0C275 0 275 -3 468 -3L468 82C353 77 307 81 122 77L304 270C401 373 431 428 431 503C431 618 353 689 226 689C154 689 105 669 56 619L39 483L68 483L81 529C97 587 133 612 200 612C286 612 341 558 341 473C341 398 299 324 186 204Z" stroke="rgb(0,0,0)" stroke-opacity="1" stroke-width="24" fill="rgb(0,0,0)" fill-opacity="1"></path></g></g></g></g></g></g></g><g><g><g><g transform="matrix(1,0,0,1,352.8125,218.99998474121094)"><path transform="matrix(0.0085,0,0,-0.0085,0,0)" d="M154 473C89 473 51 426 18 377C18 371 27 368 30 365L30 366C54 394 74 412 111 412C206 412 215 290 214 220C212 136 203 53 186 -29C140 -86 92 -181 65 -249C69 -257 74 -265 77 -273C98 -268 119 -260 139 -251C165 -183 189 -106 203 -36C387 199 540 317 547 438C550 493 485 453 459 446L459 435C502 284 287 130 220 19L220 23C302 358 258 473 154 473Z" stroke="rgb(0,0,0)" stroke-opacity="1" stroke-width="24" fill="rgb(0,0,0)" fill-opacity="1"></path></g></g><g><g><g><g><g transform="matrix(1,0,0,1,358,221.3125030517578)"><path transform="matrix(0.00595,0,0,-0.00595,0,0)" d="M16 23L16 -3C203 -3 203 0 239 0C275 0 275 -3 468 -3L468 82C353 77 307 81 122 77L304 270C401 373 431 428 431 503C431 618 353 689 226 689C154 689 105 669 56 619L39 483L68 483L81 529C97 587 133 612 200 612C286 612 341 558 341 473C341 398 299 324 186 204Z" stroke="rgb(0,0,0)" stroke-opacity="1" stroke-width="24" fill="rgb(0,0,0)" fill-opacity="1"></path></g></g></g></g></g></g></g><g transform="matrix(0.7071067811865474,-0.7071067811865477,0.7071067811865477,0.7071067811865474,-7.247854645500979,228.85212472247215)"><g><g><g transform="matrix(1,0,0,1,267.4000244140625,125.27500915527344)"><path transform="matrix(0.0085,0,0,-0.0085,0,0)" d="M154 473C89 473 51 426 18 377C18 371 27 368 30 365L30 366C54 394 74 412 111 412C206 412 215 290 214 220C212 136 203 53 186 -29C140 -86 92 -181 65 -249C69 -257 74 -265 77 -273C98 -268 119 -260 139 -251C165 -183 189 -106 203 -36C387 199 540 317 547 438C550 493 485 453 459 446L459 435C502 284 287 130 220 19L220 23C302 358 258 473 154 473Z" stroke="rgb(0,0,0)" stroke-opacity="1" stroke-width="24" fill="rgb(0,0,0)" fill-opacity="1"></path></g></g><g><g><g><g><g transform="matrix(1,0,0,1,272.5875244140625,127.58749694824219)"><path transform="matrix(0.00595,0,0,-0.00595,0,0)" d="M418 -3L418 27L366 30C311 33 301 44 301 96L301 700L60 598L67 548L217 614L217 96C217 44 206 33 152 30L96 27L96 -3C250 0 250 0 261 0C292 0 402 -3 418 -3Z" stroke="rgb(0,0,0)" stroke-opacity="1" stroke-width="24" fill="rgb(0,0,0)" fill-opacity="1"></path></g></g></g></g></g></g></g><g transform="matrix(0.7071067811865474,-0.7071067811865477,0.7071067811865477,0.7071067811865474,-20.35393897658571,355.08623818076194)"><g><g><g transform="matrix(1,0,0,1,413.22503662109375,204.21250915527344)"><path transform="matrix(0.0085,0,0,-0.0085,0,0)" d="M154 473C89 473 51 426 18 377C18 371 27 368 30 365L30 366C54 394 74 412 111 412C206 412 215 290 214 220C212 136 203 53 186 -29C140 -86 92 -181 65 -249C69 -257 74 -265 77 -273C98 -268 119 -260 139 -251C165 -183 189 -106 203 -36C387 199 540 317 547 438C550 493 485 453 459 446L459 435C502 284 287 130 220 19L220 23C302 358 258 473 154 473Z" stroke="rgb(0,0,0)" stroke-opacity="1" stroke-width="24" fill="rgb(0,0,0)" fill-opacity="1"></path></g></g><g><g><g><g><g transform="matrix(1,0,0,1,418.41253662109375,206.52499694824218)"><path transform="matrix(0.00595,0,0,-0.00595,0,0)" d="M418 -3L418 27L366 30C311 33 301 44 301 96L301 700L60 598L67 548L217 614L217 96C217 44 206 33 152 30L96 27L96 -3C250 0 250 0 261 0C292 0 402 -3 418 -3Z" stroke="rgb(0,0,0)" stroke-opacity="1" stroke-width="24" fill="rgb(0,0,0)" fill-opacity="1"></path></g></g></g></g></g></g></g></svg>
</svg>
