<svg xmlns="http://www.w3.org/2000/svg" xmlns:xlink="http://www.w3.org/1999/xlink" x="0" y="0" width="661.3333740234375" height="301.3333435058594" style="
        width:661.3333740234375px;
        height:301.3333435058594px;
        background: #FFF;
        fill: none;
">
        
        
        <svg xmlns="http://www.w3.org/2000/svg" class="role-diagram-draw-area"><g class="shapes-region" style="stroke: black; fill: none;"><g class="arrow-line"><path class="connection real" stroke-dasharray="" d="  M210,163.64 L460,163.64" style="stroke: rgb(0, 0, 0); stroke-width: 1; fill: none; fill-opacity: 1;"/></g><g class="arrow-line"><path class="connection real" stroke-dasharray="" d="  M335,277.27 L335,50" style="stroke: rgb(0, 0, 0); stroke-width: 1; fill: none; fill-opacity: 1;"/></g><g class="arrow-line"><path class="connection real" stroke-dasharray="" d="  M335,163.64 L389.7,108.94" style="stroke: rgb(0, 0, 0); stroke-opacity: 1; stroke-width: 2; fill: none; fill-opacity: 1;"/><g stroke="rgb(0,0,0)" stroke-opacity="1" transform="matrix(-0.7071067811865479,0.7071067811865471,-0.7071067811865471,-0.7071067811865479,391.8181818181819,106.81818181818181)" style="stroke: rgb(0, 0, 0); stroke-width: 2;"><path d=" M14.21,-4.28 Q6.45,-0.59 0,0 Q6.45,0.59 14.21,4.28"/></g></g><g class="arrow-line"><path class="connection real" stroke-dasharray="2.25 3.685" d="  M300.91,50.87 L385.19,135.16 L460,209.97" style="stroke: rgb(0, 0, 0); stroke-opacity: 1; stroke-width: 2; fill: none; fill-opacity: 1;"/></g><g class="arrow-line"><path class="connection real" stroke-dasharray="2.25 3.685" d="  M221.87,116.07 L306.15,200.35 L380.96,275.16" style="stroke: rgb(0, 0, 0); stroke-opacity: 1; stroke-width: 2; fill: none; fill-opacity: 1;"/></g><g class="arrow-line"><path class="connection real" stroke-dasharray="" d="  M258.09,152.71 L330.44,79.78" style="stroke: rgb(0, 0, 0); stroke-width: 2; fill: none; fill-opacity: 1;"/></g><g class="composite-shape"><path class="real" d=" M254.91,148.47 L257.93,145.46 L260.94,148.47 L257.93,151.49 Z" style="stroke-width: 1; stroke: rgb(0, 0, 0); fill: none; fill-opacity: 1;"/></g><g class="composite-shape"><path class="real" d=" M323.34,80.04 L326.35,77.03 L329.37,80.04 L326.35,83.06 Z" style="stroke-width: 1; stroke: rgb(0, 0, 0); fill: none; fill-opacity: 1;"/></g><g/></g><g/><g/><g/></svg>
        <svg xmlns="http://www.w3.org/2000/svg" xmlns:xlink="http://www.w3.org/1999/xlink" width="660" height="300" style="width:660px;height:300px;font-family:Asana-Math, Asana;background:#FFF;"><g><g><g><g transform="matrix(1,0,0,1,395.01043701171875,102.14375)"><path transform="matrix(0.015300000000000001,0,0,-0.015300000000000001,0,0)" d="M413 469L254 104C251 113 166 397 166 405C166 420 179 428 204 429L244 431L244 459C145 456 145 456 125 456C105 456 105 456 6 459L6 431L34 429C62 427 75 407 100 329L202 -7L249 -7L399 335L535 -7L581 -7L718 342C748 409 760 426 782 429L808 431L808 459C726 456 726 456 710 456C694 456 694 456 612 459L612 431L646 429C671 428 685 416 685 398L580 98L465 388C451 422 444 442 436 469Z" stroke="rgb(0,0,0)" stroke-opacity="1" stroke-width="24" fill="rgb(0,0,0)" fill-opacity="1"></path></g></g></g></g><g><g><g><g transform="matrix(1,0,0,1,294.66668701171875,29)"><path transform="matrix(0.018,0,0,-0.018,0,0)" d="M24 665C24 659 25 653 27 647L184 64C192 37 194 0 246 0L318 0C368 0 372 33 378 54L515 569C529 511 545 454 560 396L652 54C658 31 665 0 713 0L790 0C839 0 844 32 852 62L1009 646C1011 655 1012 660 1012 664C1012 688 994 694 974 694L949 694C914 694 900 680 891 649L752 125C740 178 726 230 712 282L617 637C609 667 604 694 553 694L484 694C437 694 430 666 425 646C414 603 298 178 290 125C280 170 269 215 257 260L152 655C142 693 113 694 95 694L62 694C29 694 24 677 24 665ZM1095 626C1095 586 1118 580 1141 580L1193 580C1202 581 1237 579 1237 624L1237 676C1237 716 1214 722 1191 722L1140 722C1121 721 1095 722 1095 676ZM1099 50C1099 33 1098 0 1143 0L1189 0C1234 0 1233 33 1233 45L1233 408C1233 434 1231 458 1184 458L1143 458C1098 458 1099 425 1099 413ZM1330 239C1330 206 1330 172 1341 130C1369 23 1449 -11 1529 -11C1584 -11 1620 6 1656 32C1665 1 1684 0 1702 0L1748 0C1790 0 1793 27 1793 46L1793 677C1793 698 1790 722 1743 722L1703 722C1664 722 1659 697 1659 678L1659 433C1623 456 1584 469 1534 469C1429 469 1333 417 1330 239ZM1467 221L1467 242C1467 303 1468 396 1578 396C1625 396 1649 371 1656 366L1656 121C1656 91 1611 62 1568 62C1469 62 1467 150 1467 221ZM1876 422C1876 411 1880 385 1920 385L1941 385L1941 152C1941 121 1941 91 1950 61C1967 6 2005 -11 2045 -11C2119 -11 2227 21 2227 47C2227 47 2219 102 2204 102C2191 102 2161 67 2114 67C2086 67 2072 85 2072 159C2072 168 2073 176 2073 185L2073 385L2166 385C2204 386 2209 411 2209 421C2209 430 2204 458 2164 458L2073 458L2073 544C2073 568 2063 589 2028 589L1992 589C1975 589 1944 588 1944 544L1944 458L1920 458C1880 458 1876 433 1876 422ZM2318 44C2318 21 2325 0 2364 0L2408 0C2454 0 2455 26 2455 50L2455 260C2455 272 2454 284 2456 295C2463 342 2500 396 2565 396C2618 396 2623 364 2623 324L2623 44C2623 19 2630 0 2669 0L2716 0C2757 0 2759 28 2759 44L2759 308C2759 380 2759 469 2611 469C2532 469 2486 437 2452 403L2452 677C2452 720 2425 722 2402 722L2362 722C2321 722 2318 695 2318 674ZM3217 224C3217 36 3333 -11 3462 -11C3585 -11 3705 35 3705 220C3705 465 3543 475 3446 475C3333 475 3217 424 3217 224ZM3354 214L3354 241C3354 310 3352 402 3460 402C3567 402 3567 313 3568 255L3568 228C3567 161 3570 67 3461 67C3357 67 3356 155 3354 214ZM3768 422C3768 412 3771 385 3811 385L3823 385L3823 46C3823 31 3822 0 3867 0L3909 0C3956 0 3956 27 3956 52L3956 385L4006 385C4046 385 4051 411 4051 422C4051 437 4041 458 4008 458L3953 458L3953 580C3953 613 3953 660 4020 660C4076 660 4091 623 4106 623C4118 623 4118 639 4118 648L4118 709L4116 714L4113 718C4099 728 4054 733 4018 733L4016 733C3861 732 3823 644 3823 546L3823 458L3813 458C3772 458 3768 433 3768 422ZM4465 429C4465 423 4466 417 4468 411L4566 60C4573 34 4578 0 4629 0L4668 0C4703 0 4717 15 4726 47C4752 141 4789 269 4792 321C4795 298 4795 274 4845 94C4863 29 4864 0 4916 0L4995 0C5043 0 5049 31 5056 57L5156 415C5157 420 5159 424 5159 429C5159 438 5155 458 5123 458L5095 458C5080 458 5049 458 5037 414L4953 114L4952 114L4863 429L4854 444C4840 454 4833 458 4810 458L4806 458C4789 458 4761 457 4749 414C4685 186 4676 158 4669 129C4666 138 4616 316 4590 410C4579 448 4563 458 4530 458L4502 458C4492 458 4465 456 4465 429Z" stroke="rgb(0,0,0)" stroke-opacity="1" stroke-width="8" fill="rgb(0,0,0)" fill-opacity="1"></path></g></g></g></g><g><g><g><g transform="matrix(1,0,0,1,240.86456298828125,156.86043701171874)"><path transform="matrix(0.0136,0,0,-0.0136,0,0)" d="M9 1C24 -7 40 -11 52 -11C85 -11 124 18 155 65L231 182L242 113C255 28 278 -11 314 -11C336 -11 368 6 400 35L449 79L440 98C404 68 379 53 363 53C348 53 335 63 325 83C316 102 305 139 300 168L282 269L317 318C364 383 391 406 422 406C438 406 450 398 455 383L469 387L484 472C472 479 463 482 454 482C414 482 374 446 312 354L275 299L269 347C257 446 230 482 171 482C145 482 123 474 114 461L56 378L73 368C103 402 123 416 142 416C175 416 197 375 214 277L225 215L185 153C142 86 108 54 80 54C65 54 54 58 52 63L41 91L21 88C21 53 13 27 9 1Z" stroke="rgb(0,0,0)" stroke-opacity="1" stroke-width="8" fill="rgb(0,0,0)" fill-opacity="1"></path></g></g><g><g><g><g><g transform="matrix(1,0,0,1,248.0625,159.25959350585939)"><path transform="matrix(0.009519999999999999,0,0,-0.009519999999999999,0,0)" d="M16 23L16 -3C203 -3 203 0 239 0C275 0 275 -3 468 -3L468 82C353 77 307 81 122 77L304 270C401 373 431 428 431 503C431 618 353 689 226 689C154 689 105 669 56 619L39 483L68 483L81 529C97 587 133 612 200 612C286 612 341 558 341 473C341 398 299 324 186 204Z" stroke="rgb(0,0,0)" stroke-opacity="1" stroke-width="8" fill="rgb(0,0,0)" fill-opacity="1"></path></g></g></g></g></g></g></g><g><g><g><g transform="matrix(1,0,0,1,308.86456298828125,81.26668701171874)"><path transform="matrix(0.0136,0,0,-0.0136,0,0)" d="M9 1C24 -7 40 -11 52 -11C85 -11 124 18 155 65L231 182L242 113C255 28 278 -11 314 -11C336 -11 368 6 400 35L449 79L440 98C404 68 379 53 363 53C348 53 335 63 325 83C316 102 305 139 300 168L282 269L317 318C364 383 391 406 422 406C438 406 450 398 455 383L469 387L484 472C472 479 463 482 454 482C414 482 374 446 312 354L275 299L269 347C257 446 230 482 171 482C145 482 123 474 114 461L56 378L73 368C103 402 123 416 142 416C175 416 197 375 214 277L225 215L185 153C142 86 108 54 80 54C65 54 54 58 52 63L41 91L21 88C21 53 13 27 9 1Z" stroke="rgb(0,0,0)" stroke-opacity="1" stroke-width="8" fill="rgb(0,0,0)" fill-opacity="1"></path></g></g><g><g><g><g><g transform="matrix(1,0,0,1,316.0625,83.66584350585937)"><path transform="matrix(0.009519999999999999,0,0,-0.009519999999999999,0,0)" d="M418 -3L418 27L366 30C311 33 301 44 301 96L301 700L60 598L67 548L217 614L217 96C217 44 206 33 152 30L96 27L96 -3C250 0 250 0 261 0C292 0 402 -3 418 -3Z" stroke="rgb(0,0,0)" stroke-opacity="1" stroke-width="8" fill="rgb(0,0,0)" fill-opacity="1"></path></g></g></g></g></g></g></g><g><g><g><svg x="382.26043701171875" overflow="visible" y="266.85418701171875" height="21.98958396911621" width="5.9479169845581055"><path d=" M 5.84 1.19 c 0.00 -0.02 -0.04 -0.04 -0.08 -0.04 c -0.11 0.00 -0.31 0.06 -0.36 0.08 c -2.12 0.75 -2.51 2.33 -2.51 5.19 v 0.42 h 1.13 v -0.90 c 0.00 -1.54 0.08 -3.61 1.49 -4.54 c 0.10 -0.07 0.33 -0.15 0.33 -0.21 z  M 2.89 6.42 v 1.88 h 1.13 v -1.88 z  M 4.02 8.30 h -1.13 v 0.41 c 0.00 2.08 -1.92 2.56 -1.93 2.56 v 0.02 c 0.01 0.00 1.93 0.52 1.93 2.59 h 1.13 c 0.00 -0.74 -0.06 -2.01 -2.07 -2.59 c 2.01 -0.56 2.07 -1.84 2.07 -2.59 v -0.41 z  M 2.89 13.69 v 1.88 h 1.13 v -1.88 z" style="fill:rgb(0,0,0);fill-opacity:1;stroke-width:1px;stroke:none;stroke-opacity:1;"></path><path d=" M 5.84 20.80 c 0.00 0.02 -0.04 0.04 -0.08 0.04 c -0.11 0.00 -0.31 -0.06 -0.36 -0.08 c -2.12 -0.75 -2.51 -2.33 -2.51 -5.19 v -0.42 h 1.13 v 0.90 c 0.00 1.54 0.08 3.61 1.49 4.54 c 0.10 0.07 0.33 0.15 0.33 0.21 z" style="fill:rgb(0,0,0);fill-opacity:1;stroke-width:1px;stroke:none;stroke-opacity:1;"></path></svg></g><g><g transform="matrix(1,0,0,1,388.80206298828125,280.7541870117187)"><path transform="matrix(0.0119,0,0,-0.0119,0,0)" d="M9 1C24 -7 40 -11 52 -11C85 -11 124 18 155 65L231 182L242 113C255 28 278 -11 314 -11C336 -11 368 6 400 35L449 79L440 98C404 68 379 53 363 53C348 53 335 63 325 83C316 102 305 139 300 168L282 269L317 318C364 383 391 406 422 406C438 406 450 398 455 383L469 387L484 472C472 479 463 482 454 482C414 482 374 446 312 354L275 299L269 347C257 446 230 482 171 482C145 482 123 474 114 461L56 378L73 368C103 402 123 416 142 416C175 416 197 375 214 277L225 215L185 153C142 86 108 54 80 54C65 54 54 58 52 63L41 91L21 88C21 53 13 27 9 1Z" stroke="rgb(0,0,0)" stroke-opacity="1" stroke-width="8" fill="rgb(0,0,0)" fill-opacity="1"></path></g></g><g><g transform="matrix(1,0,0,1,397.11456298828125,280.7541870117187)"><path transform="matrix(0.0119,0,0,-0.0119,0,0)" d="M123 111C93 111 66 83 66 53C66 23 93 -5 122 -5C154 -5 182 22 182 53C182 83 154 111 123 111ZM123 456C93 456 66 428 66 398C66 368 93 340 122 340C154 340 182 367 182 397C182 428 154 456 123 456Z" stroke="rgb(0,0,0)" stroke-opacity="1" stroke-width="8" fill="rgb(0,0,0)" fill-opacity="1"></path></g></g><g><g transform="matrix(1,0,0,1,402.45831298828125,280.7541870117187)"><path transform="matrix(0.0119,0,0,-0.0119,0,0)" d="M167 420C188 420 201 421 226 424C171 350 72 266 72 126C72 44 107 -11 160 -11C224 -11 276 44 350 187C341 143 338 118 338 95C338 32 367 -11 412 -11C546 -11 699 238 699 384C699 441 673 482 637 482C624 482 612 478 604 470L554 423L565 404C574 410 583 413 592 413C619 413 635 390 635 350C635 205 538 39 453 39C424 39 403 79 403 134C403 181 412 247 424 290L476 474L469 482L395 460L366 311C354 249 340 209 311 155C271 80 233 39 203 39C168 39 145 78 145 136C145 255 186 352 285 464L275 482C255 473 242 470 214 470C186 470 144 472 115 475L103 476C97 477 92 477 91 477C79 477 70 475 59 470C45 443 34 407 21 352L43 352L60 394C67 411 87 422 111 422C145 422 128 420 167 420Z" stroke="rgb(0,0,0)" stroke-opacity="1" stroke-width="8" fill="rgb(0,0,0)" fill-opacity="1"></path></g></g><g><g><g><g><g transform="matrix(1,0,0,1,411.70831298828125,276.7258740234375)"><path transform="matrix(0.00833,0,0,-0.00833,0,0)" d="M390 646L463 646C541 646 577 641 580 629C583 621 585 602 584 592L580 528L608 528L635 692L544 691C456 690 388 689 353 689C316 689 252 690 166 691L71 692L53 528L82 528L97 588C102 610 109 626 115 633C121 640 159 646 196 646L308 646L222 125C206 34 204 31 164 28L113 25L109 -3L166 -2C206 -1 235 0 251 0C270 0 301 -1 340 -2L384 -3L387 25L328 28C302 29 292 37 292 58C292 67 293 74 296 93Z" stroke="rgb(0,0,0)" stroke-opacity="1" stroke-width="8" fill="rgb(0,0,0)" fill-opacity="1"></path></g></g></g></g></g><g><g transform="matrix(1,0,0,1,417.5,280.7541870117187)"><path transform="matrix(0.0119,0,0,-0.0119,0,0)" d="M9 1C24 -7 40 -11 52 -11C85 -11 124 18 155 65L231 182L242 113C255 28 278 -11 314 -11C336 -11 368 6 400 35L449 79L440 98C404 68 379 53 363 53C348 53 335 63 325 83C316 102 305 139 300 168L282 269L317 318C364 383 391 406 422 406C438 406 450 398 455 383L469 387L484 472C472 479 463 482 454 482C414 482 374 446 312 354L275 299L269 347C257 446 230 482 171 482C145 482 123 474 114 461L56 378L73 368C103 402 123 416 142 416C175 416 197 375 214 277L225 215L185 153C142 86 108 54 80 54C65 54 54 58 52 63L41 91L21 88C21 53 13 27 9 1Z" stroke="rgb(0,0,0)" stroke-opacity="1" stroke-width="8" fill="rgb(0,0,0)" fill-opacity="1"></path></g></g><g><g transform="matrix(1,0,0,1,427,280.7541870117187)"><path transform="matrix(0.0119,0,0,-0.0119,0,0)" d="M604 347L604 406L65 406L65 347ZM604 134L604 193L65 193L65 134Z" stroke="rgb(0,0,0)" stroke-opacity="1" stroke-width="8" fill="rgb(0,0,0)" fill-opacity="1"></path></g></g><g><g transform="matrix(1,0,0,1,440.88543701171875,280.7541870117187)"><path transform="matrix(0.0119,0,0,-0.0119,0,0)" d="M555 243L555 299L51 299L51 243Z" stroke="rgb(0,0,0)" stroke-opacity="1" stroke-width="8" fill="rgb(0,0,0)" fill-opacity="1"></path></g></g><g><g transform="matrix(1,0,0,1,450.45831298828125,280.7541870117187)"><path transform="matrix(0.0119,0,0,-0.0119,0,0)" d="M418 -3L418 27L366 30C311 33 301 44 301 96L301 700L60 598L67 548L217 614L217 96C217 44 206 33 152 30L96 27L96 -3C250 0 250 0 261 0C292 0 402 -3 418 -3Z" stroke="rgb(0,0,0)" stroke-opacity="1" stroke-width="8" fill="rgb(0,0,0)" fill-opacity="1"></path></g></g><g><svg x="456.98956298828125" overflow="visible" y="266.85418701171875" height="21.98958396911621" width="5.9479169845581055"><path d=" M 0.11 1.19 c 0.00 -0.02 0.04 -0.04 0.08 -0.04 c 0.11 0.00 0.31 0.06 0.36 0.08 c 2.12 0.75 2.51 2.33 2.51 5.19 v 0.42 h -1.13 v -0.90 c 0.00 -1.54 -0.08 -3.61 -1.49 -4.54 c -0.10 -0.07 -0.33 -0.15 -0.33 -0.21 z   M 3.06 6.42 v 1.88 h -1.13 v -1.88 z  M 1.93 8.30 h 1.13 v 0.41 c 0.00 2.08 1.92 2.56 1.93 2.56 v 0.02 c -0.01 0.00 -1.93 0.52 -1.93 2.59 h -1.13 c 0.00 -0.74 0.06 -2.01 2.07 -2.59 c -2.01 -0.56 -2.07 -1.84 -2.07 -2.59 v -0.41 z  M 3.06 13.69 v 1.88 h -1.13 v -1.88 z" style="fill:rgb(0,0,0);fill-opacity:1;stroke-width:1px;stroke:none;stroke-opacity:1;"></path><path d=" M 0.11 20.80 c 0.00 0.02 0.04 0.04 0.08 0.04 c 0.11 0.00 0.31 -0.06 0.36 -0.08 c 2.12 -0.75 2.51 -2.33 2.51 -5.19 v -0.42 h -1.13 v 0.90 c 0.00 1.54 -0.08 3.61 -1.49 4.54 c -0.10 0.07 -0.33 0.15 -0.33 0.21 z" style="fill:rgb(0,0,0);fill-opacity:1;stroke-width:1px;stroke:none;stroke-opacity:1;"></path></svg></g></g></g><g><g><g><svg x="442.26043701171875" overflow="visible" y="210.85418701171875" height="21.98958396911621" width="5.9479169845581055"><path d=" M 5.84 1.19 c 0.00 -0.02 -0.04 -0.04 -0.08 -0.04 c -0.11 0.00 -0.31 0.06 -0.36 0.08 c -2.12 0.75 -2.51 2.33 -2.51 5.19 v 0.42 h 1.13 v -0.90 c 0.00 -1.54 0.08 -3.61 1.49 -4.54 c 0.10 -0.07 0.33 -0.15 0.33 -0.21 z  M 2.89 6.42 v 1.88 h 1.13 v -1.88 z  M 4.02 8.30 h -1.13 v 0.41 c 0.00 2.08 -1.92 2.56 -1.93 2.56 v 0.02 c 0.01 0.00 1.93 0.52 1.93 2.59 h 1.13 c 0.00 -0.74 -0.06 -2.01 -2.07 -2.59 c 2.01 -0.56 2.07 -1.84 2.07 -2.59 v -0.41 z  M 2.89 13.69 v 1.88 h 1.13 v -1.88 z" style="fill:rgb(0,0,0);fill-opacity:1;stroke-width:1px;stroke:none;stroke-opacity:1;"></path><path d=" M 5.84 20.80 c 0.00 0.02 -0.04 0.04 -0.08 0.04 c -0.11 0.00 -0.31 -0.06 -0.36 -0.08 c -2.12 -0.75 -2.51 -2.33 -2.51 -5.19 v -0.42 h 1.13 v 0.90 c 0.00 1.54 0.08 3.61 1.49 4.54 c 0.10 0.07 0.33 0.15 0.33 0.21 z" style="fill:rgb(0,0,0);fill-opacity:1;stroke-width:1px;stroke:none;stroke-opacity:1;"></path></svg></g><g><g transform="matrix(1,0,0,1,448.80206298828125,224.75418701171876)"><path transform="matrix(0.0119,0,0,-0.0119,0,0)" d="M9 1C24 -7 40 -11 52 -11C85 -11 124 18 155 65L231 182L242 113C255 28 278 -11 314 -11C336 -11 368 6 400 35L449 79L440 98C404 68 379 53 363 53C348 53 335 63 325 83C316 102 305 139 300 168L282 269L317 318C364 383 391 406 422 406C438 406 450 398 455 383L469 387L484 472C472 479 463 482 454 482C414 482 374 446 312 354L275 299L269 347C257 446 230 482 171 482C145 482 123 474 114 461L56 378L73 368C103 402 123 416 142 416C175 416 197 375 214 277L225 215L185 153C142 86 108 54 80 54C65 54 54 58 52 63L41 91L21 88C21 53 13 27 9 1Z" stroke="rgb(0,0,0)" stroke-opacity="1" stroke-width="8" fill="rgb(0,0,0)" fill-opacity="1"></path></g></g><g><g transform="matrix(1,0,0,1,457.11456298828125,224.75418701171876)"><path transform="matrix(0.0119,0,0,-0.0119,0,0)" d="M123 111C93 111 66 83 66 53C66 23 93 -5 122 -5C154 -5 182 22 182 53C182 83 154 111 123 111ZM123 456C93 456 66 428 66 398C66 368 93 340 122 340C154 340 182 367 182 397C182 428 154 456 123 456Z" stroke="rgb(0,0,0)" stroke-opacity="1" stroke-width="8" fill="rgb(0,0,0)" fill-opacity="1"></path></g></g><g><g transform="matrix(1,0,0,1,462.45831298828125,224.75418701171876)"><path transform="matrix(0.0119,0,0,-0.0119,0,0)" d="M167 420C188 420 201 421 226 424C171 350 72 266 72 126C72 44 107 -11 160 -11C224 -11 276 44 350 187C341 143 338 118 338 95C338 32 367 -11 412 -11C546 -11 699 238 699 384C699 441 673 482 637 482C624 482 612 478 604 470L554 423L565 404C574 410 583 413 592 413C619 413 635 390 635 350C635 205 538 39 453 39C424 39 403 79 403 134C403 181 412 247 424 290L476 474L469 482L395 460L366 311C354 249 340 209 311 155C271 80 233 39 203 39C168 39 145 78 145 136C145 255 186 352 285 464L275 482C255 473 242 470 214 470C186 470 144 472 115 475L103 476C97 477 92 477 91 477C79 477 70 475 59 470C45 443 34 407 21 352L43 352L60 394C67 411 87 422 111 422C145 422 128 420 167 420Z" stroke="rgb(0,0,0)" stroke-opacity="1" stroke-width="8" fill="rgb(0,0,0)" fill-opacity="1"></path></g></g><g><g><g><g><g transform="matrix(1,0,0,1,471.70831298828125,220.7258435058594)"><path transform="matrix(0.00833,0,0,-0.00833,0,0)" d="M390 646L463 646C541 646 577 641 580 629C583 621 585 602 584 592L580 528L608 528L635 692L544 691C456 690 388 689 353 689C316 689 252 690 166 691L71 692L53 528L82 528L97 588C102 610 109 626 115 633C121 640 159 646 196 646L308 646L222 125C206 34 204 31 164 28L113 25L109 -3L166 -2C206 -1 235 0 251 0C270 0 301 -1 340 -2L384 -3L387 25L328 28C302 29 292 37 292 58C292 67 293 74 296 93Z" stroke="rgb(0,0,0)" stroke-opacity="1" stroke-width="8" fill="rgb(0,0,0)" fill-opacity="1"></path></g></g></g></g></g><g><g transform="matrix(1,0,0,1,477.5,224.75418701171876)"><path transform="matrix(0.0119,0,0,-0.0119,0,0)" d="M9 1C24 -7 40 -11 52 -11C85 -11 124 18 155 65L231 182L242 113C255 28 278 -11 314 -11C336 -11 368 6 400 35L449 79L440 98C404 68 379 53 363 53C348 53 335 63 325 83C316 102 305 139 300 168L282 269L317 318C364 383 391 406 422 406C438 406 450 398 455 383L469 387L484 472C472 479 463 482 454 482C414 482 374 446 312 354L275 299L269 347C257 446 230 482 171 482C145 482 123 474 114 461L56 378L73 368C103 402 123 416 142 416C175 416 197 375 214 277L225 215L185 153C142 86 108 54 80 54C65 54 54 58 52 63L41 91L21 88C21 53 13 27 9 1Z" stroke="rgb(0,0,0)" stroke-opacity="1" stroke-width="8" fill="rgb(0,0,0)" fill-opacity="1"></path></g></g><g><g transform="matrix(1,0,0,1,487,224.75418701171876)"><path transform="matrix(0.0119,0,0,-0.0119,0,0)" d="M604 347L604 406L65 406L65 347ZM604 134L604 193L65 193L65 134Z" stroke="rgb(0,0,0)" stroke-opacity="1" stroke-width="8" fill="rgb(0,0,0)" fill-opacity="1"></path></g></g><g><g transform="matrix(1,0,0,1,498.51043701171875,224.75418701171876)"><path transform="matrix(0.0119,0,0,-0.0119,0,0)" d="M418 -3L418 27L366 30C311 33 301 44 301 96L301 700L60 598L67 548L217 614L217 96C217 44 206 33 152 30L96 27L96 -3C250 0 250 0 261 0C292 0 402 -3 418 -3Z" stroke="rgb(0,0,0)" stroke-opacity="1" stroke-width="8" fill="rgb(0,0,0)" fill-opacity="1"></path></g></g><g><svg x="505.04168701171875" overflow="visible" y="210.85418701171875" height="21.98958396911621" width="5.9479169845581055"><path d=" M 0.11 1.19 c 0.00 -0.02 0.04 -0.04 0.08 -0.04 c 0.11 0.00 0.31 0.06 0.36 0.08 c 2.12 0.75 2.51 2.33 2.51 5.19 v 0.42 h -1.13 v -0.90 c 0.00 -1.54 -0.08 -3.61 -1.49 -4.54 c -0.10 -0.07 -0.33 -0.15 -0.33 -0.21 z   M 3.06 6.42 v 1.88 h -1.13 v -1.88 z  M 1.93 8.30 h 1.13 v 0.41 c 0.00 2.08 1.92 2.56 1.93 2.56 v 0.02 c -0.01 0.00 -1.93 0.52 -1.93 2.59 h -1.13 c 0.00 -0.74 0.06 -2.01 2.07 -2.59 c -2.01 -0.56 -2.07 -1.84 -2.07 -2.59 v -0.41 z  M 3.06 13.69 v 1.88 h -1.13 v -1.88 z" style="fill:rgb(0,0,0);fill-opacity:1;stroke-width:1px;stroke:none;stroke-opacity:1;"></path><path d=" M 0.11 20.80 c 0.00 0.02 0.04 0.04 0.08 0.04 c 0.11 0.00 0.31 -0.06 0.36 -0.08 c 2.12 -0.75 2.51 -2.33 2.51 -5.19 v -0.42 h -1.13 v 0.90 c 0.00 1.54 -0.08 3.61 -1.49 4.54 c -0.10 0.07 -0.33 0.15 -0.33 0.21 z" style="fill:rgb(0,0,0);fill-opacity:1;stroke-width:1px;stroke:none;stroke-opacity:1;"></path></svg></g></g></g></svg>
</svg>
