<svg xmlns="http://www.w3.org/2000/svg" xmlns:xlink="http://www.w3.org/1999/xlink" x="0" y="0" width="661.6000366210938" height="301.6000061035156" style="
        width:661.6000366210938px;
        height:301.6000061035156px;
        background: #FFF;
        fill: none;
">
        
        
        <svg xmlns="http://www.w3.org/2000/svg" class="role-diagram-draw-area"><g class="shapes-region" style="stroke: black; fill: none;"><g class="arrow-line"><path class="connection real" stroke-dasharray="" d="  M249,160 L469,160" style="stroke: rgb(0, 0, 0); stroke-width: 1; fill: none; fill-opacity: 1;"/></g><g class="arrow-line"><path class="connection real" stroke-dasharray="" d="  M359,260 L359,60" style="stroke: rgb(0, 0, 0); stroke-width: 1; fill: none; fill-opacity: 1;"/></g><g class="arrow-line"><path class="connection real" stroke-dasharray="" d="  M291.4,93.2 L365.57,167.37 L431.4,233.2" style="stroke: rgb(0, 0, 0); stroke-width: 2; fill: none; fill-opacity: 1;"/></g><g class="arrow-line"><path class="connection real" stroke-dasharray="" d="  M359,160 L406.88,112.12" style="stroke: rgb(0, 0, 0); stroke-width: 2; fill: none; fill-opacity: 1;"/><g stroke="#000" transform="matrix(-0.7071067811865479,0.7071067811865471,-0.7071067811865471,-0.7071067811865479,409,110)" style="stroke: rgb(0, 0, 0); stroke-width: 2;"><path d=" M14.21,-4.28 Q6.45,-0.59 0,0 Q6.45,0.59 14.21,4.28"/></g></g><g class="arrow-line"><path class="connection real" stroke-dasharray="2.25 3.685" d="  M334.83,65.83 L409,140 L474.83,205.83" style="stroke: rgb(0, 0, 0); stroke-width: 2; fill: none; fill-opacity: 1;"/></g><g class="arrow-line"><path class="connection real" stroke-dasharray="2.25 3.685" d="  M249,120 L323.17,194.17 L389,260" style="stroke: rgb(0, 0, 0); stroke-width: 2; fill: none; fill-opacity: 1;"/></g><g class="arrow-line"><path class="connection real" stroke-dasharray="2.25 3.685" d="  M464.83,55.83 L519,110 L564.83,155.83" style="stroke: rgb(0, 0, 0); stroke-width: 2; fill: none; fill-opacity: 1;"/></g><g class="composite-shape"><path class="real" d=" M515.5,110 C515.5,108.07 517.07,106.5 519,106.5 C520.93,106.5 522.5,108.07 522.5,110 C522.5,111.93 520.93,113.5 519,113.5 C517.07,113.5 515.5,111.93 515.5,110 Z" style="stroke-width: 1; stroke: none; stroke-opacity: 1; fill: rgb(255, 0, 31); fill-opacity: 1;"/></g><g class="composite-shape"><path class="real" d=" M409,145 C409,143.07 410.57,141.5 412.5,141.5 C414.43,141.5 416,143.07 416,145 C416,146.93 414.43,148.5 412.5,148.5 C410.57,148.5 409,146.93 409,145 Z" style="stroke-width: 1; stroke: none; stroke-opacity: 1; fill: rgb(255, 0, 31); fill-opacity: 1;"/></g><g class="arrow-line"><path class="connection real" stroke-dasharray="2.25 3.685" d="  M140,180 L183.17,224.17 L229,270" style="stroke: rgb(0, 0, 0); stroke-width: 2; fill: none; fill-opacity: 1;"/></g><g class="composite-shape"><path class="real" d=" M179.67,224.17 C179.67,222.24 181.24,220.67 183.17,220.67 C185.1,220.67 186.67,222.24 186.67,224.17 C186.67,226.1 185.1,227.67 183.17,227.67 C181.24,227.67 179.67,226.1 179.67,224.17 Z" style="stroke-width: 1; stroke: none; stroke-opacity: 1; fill: rgb(74, 144, 226); fill-opacity: 1;"/></g><g class="composite-shape"><path class="real" d=" M369,245 C369,243.07 370.57,241.5 372.5,241.5 C374.43,241.5 376,243.07 376,245 C376,246.93 374.43,248.5 372.5,248.5 C370.57,248.5 369,246.93 369,245 Z" style="stroke-width: 1; stroke: none; stroke-opacity: 1; fill: rgb(74, 144, 226); fill-opacity: 1;"/></g><g/></g><g/><g/><g/></svg>
        <svg xmlns="http://www.w3.org/2000/svg" xmlns:xlink="http://www.w3.org/1999/xlink" width="660" height="300" style="width:660px;height:300px;font-family:Asana-Math, Asana;background:#FFF;"><g><g><g><g transform="matrix(1,0,0,1,276.79998779296875,38.599998474121094)"><path transform="matrix(0.018,0,0,-0.018,0,0)" d="M49 63C49 59 50 58 51 54C58 39 173 -22 305 -22C500 -22 549 90 549 199C549 317 463 389 386 414C310 439 186 437 186 528C186 562 203 613 295 613C439 613 456 537 483 537C487 537 490 540 493 548C507 617 511 642 511 653C511 657 511 658 510 660C506 671 419 717 306 717C88 717 60 588 60 509C60 387 161 322 231 305C323 282 339 283 363 271C380 263 423 237 423 184C423 106 365 86 309 86C151 86 102 177 79 177C72 177 67 169 63 147C52 87 49 71 49 63ZM667 626C667 586 690 580 713 580L765 580C774 581 809 579 809 624L809 676C809 716 786 722 763 722L712 722C693 721 667 722 667 676ZM671 50C671 33 670 0 715 0L761 0C806 0 805 33 805 45L805 408C805 434 803 458 756 458L715 458C670 458 671 425 671 413ZM925 45C925 6 948 0 972 0L1017 0C1055 0 1062 21 1062 45L1062 269C1062 355 1119 396 1172 396C1219 396 1230 372 1230 323L1230 45C1230 20 1237 0 1277 0L1323 0C1368 0 1367 54 1367 54L1367 261C1367 278 1367 296 1372 313C1383 350 1418 396 1477 396C1535 396 1536 357 1536 319L1536 47C1537 31 1534 0 1582 0L1626 0C1665 0 1672 20 1672 45L1672 307C1672 382 1672 469 1524 469C1424 469 1374 414 1358 395C1338 446 1299 469 1219 469C1122 469 1074 417 1056 400L1056 420C1056 463 1028 463 1010 463L970 463C952 463 925 461 925 419ZM1792 -149C1792 -160 1790 -195 1836 -195L1882 -195C1912 -195 1929 -186 1929 -147L1929 26C1961 3 1993 -11 2041 -11C2143 -11 2254 35 2255 224C2255 265 2253 299 2244 335C2224 412 2172 469 2072 469C2028 469 1975 458 1925 427C1917 457 1896 458 1879 458L1837 458C1797 458 1792 435 1792 412ZM1929 100L1929 358C1946 370 1970 391 2016 391C2097 391 2118 318 2118 242L2118 230C2118 192 2117 145 2092 106C2072 75 2038 62 2005 62C1959 62 1938 91 1929 100ZM2353 45C2353 5 2375 0 2401 0L2442 0C2485 2 2487 22 2487 49L2487 677C2487 714 2466 722 2441 722L2395 722C2367 722 2353 704 2353 675ZM2578 233C2578 74 2665 -11 2832 -11C2901 -11 2963 9 3005 33C3017 40 3021 44 3021 55C3021 55 3021 114 3010 125L3005 127L3001 127C2981 121 2934 62 2834 62C2732 62 2709 136 2707 214L2983 214C3001 214 3027 216 3027 257C3027 364 2985 475 2818 475C2674 475 2578 401 2578 233ZM2708 279C2714 341 2738 402 2818 402C2896 402 2912 346 2915 279ZM3517 47C3517 5 3540 0 3563 0L3913 0C3957 0 3960 26 3960 49L3960 60C3960 85 3951 106 3916 106C3908 106 3745 102 3659 101L3659 651C3659 690 3633 694 3615 694L3563 694C3526 694 3517 676 3517 647ZM4062 626C4062 586 4085 580 4108 580L4160 580C4169 581 4204 579 4204 624L4204 676C4204 716 4181 722 4158 722L4107 722C4088 721 4062 722 4062 676ZM4066 50C4066 33 4065 0 4110 0L4156 0C4201 0 4200 33 4200 45L4200 408C4200 434 4198 458 4151 458L4110 458C4065 458 4066 425 4066 413ZM4320 45C4320 6 4344 0 4367 0L4411 0C4457 0 4457 53 4457 53L4457 261C4457 279 4458 297 4463 315C4472 346 4504 396 4566 396C4625 396 4625 355 4625 318L4625 44C4625 19 4632 0 4671 0L4718 0C4759 0 4761 28 4761 44L4761 308C4761 380 4761 469 4613 469C4532 469 4486 435 4451 400L4451 420C4451 463 4423 463 4405 463L4365 463C4346 463 4320 460 4320 418ZM4852 233C4852 74 4939 -11 5106 -11C5175 -11 5237 9 5279 33C5291 40 5295 44 5295 55C5295 55 5295 114 5284 125L5279 127L5275 127C5255 121 5208 62 5108 62C5006 62 4983 136 4981 214L5257 214C5275 214 5301 216 5301 257C5301 364 5259 475 5092 475C4948 475 4852 401 4852 233ZM4982 279C4988 341 5012 402 5092 402C5170 402 5186 346 5189 279ZM5363 137C5363 69 5413 -11 5509 -11C5591 -11 5641 23 5663 40C5663 23 5672 0 5704 0L5752 0C5792 0 5797 23 5797 45L5797 308C5797 408 5751 475 5590 475C5527 475 5478 463 5433 443C5411 432 5405 433 5405 417C5405 417 5408 352 5415 340L5419 337L5423 336C5445 337 5475 405 5590 405C5653 405 5661 359 5661 312L5661 291C5572 290 5363 273 5363 137ZM5494 137C5494 215 5600 227 5661 232L5661 154C5661 80 5596 62 5563 62C5520 62 5494 101 5494 137ZM5887 43C5887 24 5891 0 5932 0L5975 0C5992 0 5993 1 6003 6C6019 19 6021 22 6021 50L6021 225C6021 238 6021 250 6024 263C6034 308 6072 343 6115 358C6148 369 6166 364 6178 373C6182 379 6183 380 6183 391L6183 447C6183 461 6181 469 6163 469L6162 469C6144 469 6069 462 6016 388C6015 438 6015 439 6006 450C5995 461 5991 463 5966 463L5933 463C5912 463 5887 461 5887 418ZM6657 55C6657 30 6655 0 6702 0L6735 0C6777 0 6780 27 6780 46L6780 569C6788 536 6801 504 6837 410L6941 153C6984 49 6984 22 7043 22L7063 22C7092 22 7112 25 7133 75C7180 189 7318 524 7328 569C7328 560 7329 550 7329 541L7329 52C7329 32 7327 0 7374 0L7406 0C7447 0 7452 23 7452 48L7452 648C7452 666 7449 694 7407 694L7318 694C7269 694 7260 668 7249 642C7077 222 7057 167 7052 148C7033 208 6853 650 6843 666C6826 693 6802 694 6784 694L6702 694C6676 694 6657 685 6657 650ZM7574 224C7574 36 7690 -11 7819 -11C7942 -11 8062 35 8062 220C8062 465 7900 475 7803 475C7690 475 7574 424 7574 224ZM7711 214L7711 241C7711 310 7709 402 7817 402C7924 402 7924 313 7925 255L7925 228C7924 161 7927 67 7818 67C7714 67 7713 155 7711 214ZM8161 239C8161 206 8161 172 8172 130C8200 23 8280 -11 8360 -11C8415 -11 8451 6 8487 32C8496 1 8515 0 8533 0L8579 0C8621 0 8624 27 8624 46L8624 677C8624 698 8621 722 8574 722L8534 722C8495 722 8490 697 8490 678L8490 433C8454 456 8415 469 8365 469C8260 469 8164 417 8161 239ZM8298 221L8298 242C8298 303 8299 396 8409 396C8456 396 8480 371 8487 366L8487 121C8487 91 8442 62 8399 62C8300 62 8298 150 8298 221ZM8716 233C8716 74 8803 -11 8970 -11C9039 -11 9101 9 9143 33C9155 40 9159 44 9159 55C9159 55 9159 114 9148 125L9143 127L9139 127C9119 121 9072 62 8972 62C8870 62 8847 136 8845 214L9121 214C9139 214 9165 216 9165 257C9165 364 9123 475 8956 475C8812 475 8716 401 8716 233ZM8846 279C8852 341 8876 402 8956 402C9034 402 9050 346 9053 279ZM9257 45C9257 5 9279 0 9305 0L9346 0C9389 2 9391 22 9391 49L9391 677C9391 714 9370 722 9345 722L9299 722C9271 722 9257 704 9257 675Z" stroke="rgb(0,0,0)" stroke-opacity="1" stroke-width="8" fill="rgb(0,0,0)" fill-opacity="1"></path></g></g></g></g><g><g><g><svg x="362.38751220703125" overflow="visible" y="261.9875183105469" height="22" width="5.950000286102295"><path d=" M 5.84 1.19 c 0.00 -0.02 -0.04 -0.04 -0.08 -0.04 c -0.11 0.00 -0.31 0.06 -0.36 0.08 c -2.12 0.75 -2.51 2.33 -2.51 5.19 v 0.42 h 1.13 v -0.90 c 0.00 -1.54 0.08 -3.61 1.49 -4.54 c 0.10 -0.07 0.33 -0.15 0.33 -0.21 z  M 2.89 6.42 v 1.88 h 1.13 v -1.88 z  M 4.02 8.30 h -1.13 v 0.41 c 0.00 2.08 -1.92 2.56 -1.93 2.56 v 0.02 c 0.01 0.00 1.93 0.52 1.93 2.59 h 1.13 c 0.00 -0.74 -0.06 -2.01 -2.07 -2.59 c 2.01 -0.56 2.07 -1.84 2.07 -2.59 v -0.41 z  M 2.89 13.70 v 1.88 h 1.13 v -1.88 z" style="fill:rgb(0,0,0);fill-opacity:1;stroke-width:1px;stroke:none;stroke-opacity:1;"></path><path d=" M 5.84 20.81 c 0.00 0.02 -0.04 0.04 -0.08 0.04 c -0.11 0.00 -0.31 -0.06 -0.36 -0.08 c -2.12 -0.75 -2.51 -2.33 -2.51 -5.19 v -0.42 h 1.13 v 0.90 c 0.00 1.54 0.08 3.61 1.49 4.54 c 0.10 0.07 0.33 0.15 0.33 0.21 z" style="fill:rgb(0,0,0);fill-opacity:1;stroke-width:1px;stroke:none;stroke-opacity:1;"></path></svg></g><g><g transform="matrix(1,0,0,1,368.92498779296875,275.76251831054685)"><path transform="matrix(0.0119,0,0,-0.0119,0,0)" d="M9 1C24 -7 40 -11 52 -11C85 -11 124 18 155 65L231 182L242 113C255 28 278 -11 314 -11C336 -11 368 6 400 35L449 79L440 98C404 68 379 53 363 53C348 53 335 63 325 83C316 102 305 139 300 168L282 269L317 318C364 383 391 406 422 406C438 406 450 398 455 383L469 387L484 472C472 479 463 482 454 482C414 482 374 446 312 354L275 299L269 347C257 446 230 482 171 482C145 482 123 474 114 461L56 378L73 368C103 402 123 416 142 416C175 416 197 375 214 277L225 215L185 153C142 86 108 54 80 54C65 54 54 58 52 63L41 91L21 88C21 53 13 27 9 1Z" stroke="rgb(0,0,0)" stroke-opacity="1" stroke-width="8" fill="rgb(0,0,0)" fill-opacity="1"></path></g></g><g><g transform="matrix(1,0,0,1,377.23748779296875,275.76251831054685)"><path transform="matrix(0.0119,0,0,-0.0119,0,0)" d="M123 111C93 111 66 83 66 53C66 23 93 -5 122 -5C154 -5 182 22 182 53C182 83 154 111 123 111ZM123 456C93 456 66 428 66 398C66 368 93 340 122 340C154 340 182 367 182 397C182 428 154 456 123 456Z" stroke="rgb(0,0,0)" stroke-opacity="1" stroke-width="8" fill="rgb(0,0,0)" fill-opacity="1"></path></g></g><g><g transform="matrix(1,0,0,1,382.57501220703125,275.76251831054685)"><path transform="matrix(0.0119,0,0,-0.0119,0,0)" d="M167 420C188 420 201 421 226 424C171 350 72 266 72 126C72 44 107 -11 160 -11C224 -11 276 44 350 187C341 143 338 118 338 95C338 32 367 -11 412 -11C546 -11 699 238 699 384C699 441 673 482 637 482C624 482 612 478 604 470L554 423L565 404C574 410 583 413 592 413C619 413 635 390 635 350C635 205 538 39 453 39C424 39 403 79 403 134C403 181 412 247 424 290L476 474L469 482L395 460L366 311C354 249 340 209 311 155C271 80 233 39 203 39C168 39 145 78 145 136C145 255 186 352 285 464L275 482C255 473 242 470 214 470C186 470 144 472 115 475L103 476C97 477 92 477 91 477C79 477 70 475 59 470C45 443 34 407 21 352L43 352L60 394C67 411 87 422 111 422C145 422 128 420 167 420Z" stroke="rgb(0,0,0)" stroke-opacity="1" stroke-width="8" fill="rgb(0,0,0)" fill-opacity="1"></path></g></g><g><g><g><g><g transform="matrix(1,0,0,1,391.82501220703125,271.88001831054686)"><path transform="matrix(0.00833,0,0,-0.00833,0,0)" d="M390 646L463 646C541 646 577 641 580 629C583 621 585 602 584 592L580 528L608 528L635 692L544 691C456 690 388 689 353 689C316 689 252 690 166 691L71 692L53 528L82 528L97 588C102 610 109 626 115 633C121 640 159 646 196 646L308 646L222 125C206 34 204 31 164 28L113 25L109 -3L166 -2C206 -1 235 0 251 0C270 0 301 -1 340 -2L384 -3L387 25L328 28C302 29 292 37 292 58C292 67 293 74 296 93Z" stroke="rgb(0,0,0)" stroke-opacity="1" stroke-width="8" fill="rgb(0,0,0)" fill-opacity="1"></path></g></g></g></g></g><g><g transform="matrix(1,0,0,1,397.625,275.76251831054685)"><path transform="matrix(0.0119,0,0,-0.0119,0,0)" d="M9 1C24 -7 40 -11 52 -11C85 -11 124 18 155 65L231 182L242 113C255 28 278 -11 314 -11C336 -11 368 6 400 35L449 79L440 98C404 68 379 53 363 53C348 53 335 63 325 83C316 102 305 139 300 168L282 269L317 318C364 383 391 406 422 406C438 406 450 398 455 383L469 387L484 472C472 479 463 482 454 482C414 482 374 446 312 354L275 299L269 347C257 446 230 482 171 482C145 482 123 474 114 461L56 378L73 368C103 402 123 416 142 416C175 416 197 375 214 277L225 215L185 153C142 86 108 54 80 54C65 54 54 58 52 63L41 91L21 88C21 53 13 27 9 1Z" stroke="rgb(0,0,0)" stroke-opacity="1" stroke-width="8" fill="rgb(0,0,0)" fill-opacity="1"></path></g></g><g><g transform="matrix(1,0,0,1,407.125,275.76251831054685)"><path transform="matrix(0.0119,0,0,-0.0119,0,0)" d="M604 347L604 406L65 406L65 347ZM604 134L604 193L65 193L65 134Z" stroke="rgb(0,0,0)" stroke-opacity="1" stroke-width="8" fill="rgb(0,0,0)" fill-opacity="1"></path></g></g><g><g transform="matrix(1,0,0,1,421.01251220703125,275.76251831054685)"><path transform="matrix(0.0119,0,0,-0.0119,0,0)" d="M555 243L555 299L51 299L51 243Z" stroke="rgb(0,0,0)" stroke-opacity="1" stroke-width="8" fill="rgb(0,0,0)" fill-opacity="1"></path></g></g><g><g transform="matrix(1,0,0,1,430.5875244140625,275.76251831054685)"><path transform="matrix(0.0119,0,0,-0.0119,0,0)" d="M418 -3L418 27L366 30C311 33 301 44 301 96L301 700L60 598L67 548L217 614L217 96C217 44 206 33 152 30L96 27L96 -3C250 0 250 0 261 0C292 0 402 -3 418 -3Z" stroke="rgb(0,0,0)" stroke-opacity="1" stroke-width="8" fill="rgb(0,0,0)" fill-opacity="1"></path></g></g><g><svg x="437.11248779296875" overflow="visible" y="261.9875183105469" height="22" width="5.950000286102295"><path d=" M 0.11 1.19 c 0.00 -0.02 0.04 -0.04 0.08 -0.04 c 0.11 0.00 0.31 0.06 0.36 0.08 c 2.12 0.75 2.51 2.33 2.51 5.19 v 0.42 h -1.13 v -0.90 c 0.00 -1.54 -0.08 -3.61 -1.49 -4.54 c -0.10 -0.07 -0.33 -0.15 -0.33 -0.21 z   M 3.06 6.42 v 1.88 h -1.13 v -1.88 z  M 1.93 8.30 h 1.13 v 0.41 c 0.00 2.08 1.92 2.56 1.93 2.56 v 0.02 c -0.01 0.00 -1.93 0.52 -1.93 2.59 h -1.13 c 0.00 -0.74 0.06 -2.01 2.07 -2.59 c -2.01 -0.56 -2.07 -1.84 -2.07 -2.59 v -0.41 z  M 3.06 13.70 v 1.88 h -1.13 v -1.88 z" style="fill:rgb(0,0,0);fill-opacity:1;stroke-width:1px;stroke:none;stroke-opacity:1;"></path><path d=" M 0.11 20.81 c 0.00 0.02 0.04 0.04 0.08 0.04 c 0.11 0.00 0.31 -0.06 0.36 -0.08 c 2.12 -0.75 2.51 -2.33 2.51 -5.19 v -0.42 h -1.13 v 0.90 c 0.00 1.54 -0.08 3.61 -1.49 4.54 c -0.10 0.07 -0.33 0.15 -0.33 0.21 z" style="fill:rgb(0,0,0);fill-opacity:1;stroke-width:1px;stroke:none;stroke-opacity:1;"></path></svg></g></g></g><g><g><g><svg x="447.38751220703125" overflow="visible" y="210.98751831054688" height="22" width="5.950000286102295"><path d=" M 5.84 1.19 c 0.00 -0.02 -0.04 -0.04 -0.08 -0.04 c -0.11 0.00 -0.31 0.06 -0.36 0.08 c -2.12 0.75 -2.51 2.33 -2.51 5.19 v 0.42 h 1.13 v -0.90 c 0.00 -1.54 0.08 -3.61 1.49 -4.54 c 0.10 -0.07 0.33 -0.15 0.33 -0.21 z  M 2.89 6.42 v 1.88 h 1.13 v -1.88 z  M 4.02 8.30 h -1.13 v 0.41 c 0.00 2.08 -1.92 2.56 -1.93 2.56 v 0.02 c 0.01 0.00 1.93 0.52 1.93 2.59 h 1.13 c 0.00 -0.74 -0.06 -2.01 -2.07 -2.59 c 2.01 -0.56 2.07 -1.84 2.07 -2.59 v -0.41 z  M 2.89 13.70 v 1.88 h 1.13 v -1.88 z" style="fill:rgb(0,0,0);fill-opacity:1;stroke-width:1px;stroke:none;stroke-opacity:1;"></path><path d=" M 5.84 20.81 c 0.00 0.02 -0.04 0.04 -0.08 0.04 c -0.11 0.00 -0.31 -0.06 -0.36 -0.08 c -2.12 -0.75 -2.51 -2.33 -2.51 -5.19 v -0.42 h 1.13 v 0.90 c 0.00 1.54 0.08 3.61 1.49 4.54 c 0.10 0.07 0.33 0.15 0.33 0.21 z" style="fill:rgb(0,0,0);fill-opacity:1;stroke-width:1px;stroke:none;stroke-opacity:1;"></path></svg></g><g><g transform="matrix(1,0,0,1,453.92498779296875,224.76251831054688)"><path transform="matrix(0.0119,0,0,-0.0119,0,0)" d="M9 1C24 -7 40 -11 52 -11C85 -11 124 18 155 65L231 182L242 113C255 28 278 -11 314 -11C336 -11 368 6 400 35L449 79L440 98C404 68 379 53 363 53C348 53 335 63 325 83C316 102 305 139 300 168L282 269L317 318C364 383 391 406 422 406C438 406 450 398 455 383L469 387L484 472C472 479 463 482 454 482C414 482 374 446 312 354L275 299L269 347C257 446 230 482 171 482C145 482 123 474 114 461L56 378L73 368C103 402 123 416 142 416C175 416 197 375 214 277L225 215L185 153C142 86 108 54 80 54C65 54 54 58 52 63L41 91L21 88C21 53 13 27 9 1Z" stroke="rgb(0,0,0)" stroke-opacity="1" stroke-width="8" fill="rgb(0,0,0)" fill-opacity="1"></path></g></g><g><g transform="matrix(1,0,0,1,462.23748779296875,224.76251831054688)"><path transform="matrix(0.0119,0,0,-0.0119,0,0)" d="M123 111C93 111 66 83 66 53C66 23 93 -5 122 -5C154 -5 182 22 182 53C182 83 154 111 123 111ZM123 456C93 456 66 428 66 398C66 368 93 340 122 340C154 340 182 367 182 397C182 428 154 456 123 456Z" stroke="rgb(0,0,0)" stroke-opacity="1" stroke-width="8" fill="rgb(0,0,0)" fill-opacity="1"></path></g></g><g><g transform="matrix(1,0,0,1,467.57501220703125,224.76251831054688)"><path transform="matrix(0.0119,0,0,-0.0119,0,0)" d="M167 420C188 420 201 421 226 424C171 350 72 266 72 126C72 44 107 -11 160 -11C224 -11 276 44 350 187C341 143 338 118 338 95C338 32 367 -11 412 -11C546 -11 699 238 699 384C699 441 673 482 637 482C624 482 612 478 604 470L554 423L565 404C574 410 583 413 592 413C619 413 635 390 635 350C635 205 538 39 453 39C424 39 403 79 403 134C403 181 412 247 424 290L476 474L469 482L395 460L366 311C354 249 340 209 311 155C271 80 233 39 203 39C168 39 145 78 145 136C145 255 186 352 285 464L275 482C255 473 242 470 214 470C186 470 144 472 115 475L103 476C97 477 92 477 91 477C79 477 70 475 59 470C45 443 34 407 21 352L43 352L60 394C67 411 87 422 111 422C145 422 128 420 167 420Z" stroke="rgb(0,0,0)" stroke-opacity="1" stroke-width="8" fill="rgb(0,0,0)" fill-opacity="1"></path></g></g><g><g><g><g><g transform="matrix(1,0,0,1,476.82501220703125,220.8800183105469)"><path transform="matrix(0.00833,0,0,-0.00833,0,0)" d="M390 646L463 646C541 646 577 641 580 629C583 621 585 602 584 592L580 528L608 528L635 692L544 691C456 690 388 689 353 689C316 689 252 690 166 691L71 692L53 528L82 528L97 588C102 610 109 626 115 633C121 640 159 646 196 646L308 646L222 125C206 34 204 31 164 28L113 25L109 -3L166 -2C206 -1 235 0 251 0C270 0 301 -1 340 -2L384 -3L387 25L328 28C302 29 292 37 292 58C292 67 293 74 296 93Z" stroke="rgb(0,0,0)" stroke-opacity="1" stroke-width="8" fill="rgb(0,0,0)" fill-opacity="1"></path></g></g></g></g></g><g><g transform="matrix(1,0,0,1,482.625,224.76251831054688)"><path transform="matrix(0.0119,0,0,-0.0119,0,0)" d="M9 1C24 -7 40 -11 52 -11C85 -11 124 18 155 65L231 182L242 113C255 28 278 -11 314 -11C336 -11 368 6 400 35L449 79L440 98C404 68 379 53 363 53C348 53 335 63 325 83C316 102 305 139 300 168L282 269L317 318C364 383 391 406 422 406C438 406 450 398 455 383L469 387L484 472C472 479 463 482 454 482C414 482 374 446 312 354L275 299L269 347C257 446 230 482 171 482C145 482 123 474 114 461L56 378L73 368C103 402 123 416 142 416C175 416 197 375 214 277L225 215L185 153C142 86 108 54 80 54C65 54 54 58 52 63L41 91L21 88C21 53 13 27 9 1Z" stroke="rgb(0,0,0)" stroke-opacity="1" stroke-width="8" fill="rgb(0,0,0)" fill-opacity="1"></path></g></g><g><g transform="matrix(1,0,0,1,492.125,224.76251831054688)"><path transform="matrix(0.0119,0,0,-0.0119,0,0)" d="M604 347L604 406L65 406L65 347ZM604 134L604 193L65 193L65 134Z" stroke="rgb(0,0,0)" stroke-opacity="1" stroke-width="8" fill="rgb(0,0,0)" fill-opacity="1"></path></g></g><g><g transform="matrix(1,0,0,1,503.6375732421875,224.76251831054688)"><path transform="matrix(0.0119,0,0,-0.0119,0,0)" d="M418 -3L418 27L366 30C311 33 301 44 301 96L301 700L60 598L67 548L217 614L217 96C217 44 206 33 152 30L96 27L96 -3C250 0 250 0 261 0C292 0 402 -3 418 -3Z" stroke="rgb(0,0,0)" stroke-opacity="1" stroke-width="8" fill="rgb(0,0,0)" fill-opacity="1"></path></g></g><g><svg x="510.1624755859375" overflow="visible" y="210.98751831054688" height="22" width="5.950000286102295"><path d=" M 0.11 1.19 c 0.00 -0.02 0.04 -0.04 0.08 -0.04 c 0.11 0.00 0.31 0.06 0.36 0.08 c 2.12 0.75 2.51 2.33 2.51 5.19 v 0.42 h -1.13 v -0.90 c 0.00 -1.54 -0.08 -3.61 -1.49 -4.54 c -0.10 -0.07 -0.33 -0.15 -0.33 -0.21 z   M 3.06 6.42 v 1.88 h -1.13 v -1.88 z  M 1.93 8.30 h 1.13 v 0.41 c 0.00 2.08 1.92 2.56 1.93 2.56 v 0.02 c -0.01 0.00 -1.93 0.52 -1.93 2.59 h -1.13 c 0.00 -0.74 0.06 -2.01 2.07 -2.59 c -2.01 -0.56 -2.07 -1.84 -2.07 -2.59 v -0.41 z  M 3.06 13.70 v 1.88 h -1.13 v -1.88 z" style="fill:rgb(0,0,0);fill-opacity:1;stroke-width:1px;stroke:none;stroke-opacity:1;"></path><path d=" M 0.11 20.81 c 0.00 0.02 0.04 0.04 0.08 0.04 c 0.11 0.00 0.31 -0.06 0.36 -0.08 c 2.12 -0.75 2.51 -2.33 2.51 -5.19 v -0.42 h -1.13 v 0.90 c 0.00 1.54 -0.08 3.61 -1.49 4.54 c -0.10 0.07 -0.33 0.15 -0.33 0.21 z" style="fill:rgb(0,0,0);fill-opacity:1;stroke-width:1px;stroke:none;stroke-opacity:1;"></path></svg></g></g></g><g><g><g><svg x="252.1875" overflow="visible" y="74.58750915527344" height="22" width="5.950000286102295"><path d=" M 5.84 1.19 c 0.00 -0.02 -0.04 -0.04 -0.08 -0.04 c -0.11 0.00 -0.31 0.06 -0.36 0.08 c -2.12 0.75 -2.51 2.33 -2.51 5.19 v 0.42 h 1.13 v -0.90 c 0.00 -1.54 0.08 -3.61 1.49 -4.54 c 0.10 -0.07 0.33 -0.15 0.33 -0.21 z  M 2.89 6.42 v 1.88 h 1.13 v -1.88 z  M 4.02 8.30 h -1.13 v 0.41 c 0.00 2.08 -1.92 2.56 -1.93 2.56 v 0.02 c 0.01 0.00 1.93 0.52 1.93 2.59 h 1.13 c 0.00 -0.74 -0.06 -2.01 -2.07 -2.59 c 2.01 -0.56 2.07 -1.84 2.07 -2.59 v -0.41 z  M 2.89 13.70 v 1.88 h 1.13 v -1.88 z" style="fill:rgb(0,0,0);fill-opacity:1;stroke-width:1px;stroke:none;stroke-opacity:1;"></path><path d=" M 5.84 20.81 c 0.00 0.02 -0.04 0.04 -0.08 0.04 c -0.11 0.00 -0.31 -0.06 -0.36 -0.08 c -2.12 -0.75 -2.51 -2.33 -2.51 -5.19 v -0.42 h 1.13 v 0.90 c 0.00 1.54 0.08 3.61 1.49 4.54 c 0.10 0.07 0.33 0.15 0.33 0.21 z" style="fill:rgb(0,0,0);fill-opacity:1;stroke-width:1px;stroke:none;stroke-opacity:1;"></path></svg></g><g><g transform="matrix(1,0,0,1,258.72503662109375,88.36250915527344)"><path transform="matrix(0.0119,0,0,-0.0119,0,0)" d="M9 1C24 -7 40 -11 52 -11C85 -11 124 18 155 65L231 182L242 113C255 28 278 -11 314 -11C336 -11 368 6 400 35L449 79L440 98C404 68 379 53 363 53C348 53 335 63 325 83C316 102 305 139 300 168L282 269L317 318C364 383 391 406 422 406C438 406 450 398 455 383L469 387L484 472C472 479 463 482 454 482C414 482 374 446 312 354L275 299L269 347C257 446 230 482 171 482C145 482 123 474 114 461L56 378L73 368C103 402 123 416 142 416C175 416 197 375 214 277L225 215L185 153C142 86 108 54 80 54C65 54 54 58 52 63L41 91L21 88C21 53 13 27 9 1Z" stroke="rgb(0,0,0)" stroke-opacity="1" stroke-width="8" fill="rgb(0,0,0)" fill-opacity="1"></path></g></g><g><g transform="matrix(1,0,0,1,267.03753662109375,88.36250915527344)"><path transform="matrix(0.0119,0,0,-0.0119,0,0)" d="M123 111C93 111 66 83 66 53C66 23 93 -5 122 -5C154 -5 182 22 182 53C182 83 154 111 123 111ZM123 456C93 456 66 428 66 398C66 368 93 340 122 340C154 340 182 367 182 397C182 428 154 456 123 456Z" stroke="rgb(0,0,0)" stroke-opacity="1" stroke-width="8" fill="rgb(0,0,0)" fill-opacity="1"></path></g></g><g><g transform="matrix(1,0,0,1,272.375,88.36250915527344)"><path transform="matrix(0.0119,0,0,-0.0119,0,0)" d="M167 420C188 420 201 421 226 424C171 350 72 266 72 126C72 44 107 -11 160 -11C224 -11 276 44 350 187C341 143 338 118 338 95C338 32 367 -11 412 -11C546 -11 699 238 699 384C699 441 673 482 637 482C624 482 612 478 604 470L554 423L565 404C574 410 583 413 592 413C619 413 635 390 635 350C635 205 538 39 453 39C424 39 403 79 403 134C403 181 412 247 424 290L476 474L469 482L395 460L366 311C354 249 340 209 311 155C271 80 233 39 203 39C168 39 145 78 145 136C145 255 186 352 285 464L275 482C255 473 242 470 214 470C186 470 144 472 115 475L103 476C97 477 92 477 91 477C79 477 70 475 59 470C45 443 34 407 21 352L43 352L60 394C67 411 87 422 111 422C145 422 128 420 167 420Z" stroke="rgb(0,0,0)" stroke-opacity="1" stroke-width="8" fill="rgb(0,0,0)" fill-opacity="1"></path></g></g><g><g><g><g><g transform="matrix(1,0,0,1,281.625,84.48000915527344)"><path transform="matrix(0.00833,0,0,-0.00833,0,0)" d="M390 646L463 646C541 646 577 641 580 629C583 621 585 602 584 592L580 528L608 528L635 692L544 691C456 690 388 689 353 689C316 689 252 690 166 691L71 692L53 528L82 528L97 588C102 610 109 626 115 633C121 640 159 646 196 646L308 646L222 125C206 34 204 31 164 28L113 25L109 -3L166 -2C206 -1 235 0 251 0C270 0 301 -1 340 -2L384 -3L387 25L328 28C302 29 292 37 292 58C292 67 293 74 296 93Z" stroke="rgb(0,0,0)" stroke-opacity="1" stroke-width="8" fill="rgb(0,0,0)" fill-opacity="1"></path></g></g></g></g></g><g><g transform="matrix(1,0,0,1,287.42498779296875,88.36250915527344)"><path transform="matrix(0.0119,0,0,-0.0119,0,0)" d="M9 1C24 -7 40 -11 52 -11C85 -11 124 18 155 65L231 182L242 113C255 28 278 -11 314 -11C336 -11 368 6 400 35L449 79L440 98C404 68 379 53 363 53C348 53 335 63 325 83C316 102 305 139 300 168L282 269L317 318C364 383 391 406 422 406C438 406 450 398 455 383L469 387L484 472C472 479 463 482 454 482C414 482 374 446 312 354L275 299L269 347C257 446 230 482 171 482C145 482 123 474 114 461L56 378L73 368C103 402 123 416 142 416C175 416 197 375 214 277L225 215L185 153C142 86 108 54 80 54C65 54 54 58 52 63L41 91L21 88C21 53 13 27 9 1Z" stroke="rgb(0,0,0)" stroke-opacity="1" stroke-width="8" fill="rgb(0,0,0)" fill-opacity="1"></path></g></g><g><g transform="matrix(1,0,0,1,296.92498779296875,88.36250915527344)"><path transform="matrix(0.0119,0,0,-0.0119,0,0)" d="M604 347L604 406L65 406L65 347ZM604 134L604 193L65 193L65 134Z" stroke="rgb(0,0,0)" stroke-opacity="1" stroke-width="8" fill="rgb(0,0,0)" fill-opacity="1"></path></g></g><g><g transform="matrix(1,0,0,1,308.4375,88.36250915527344)"><path transform="matrix(0.0119,0,0,-0.0119,0,0)" d="M263 689C108 689 29 566 29 324C29 207 50 106 85 57C120 8 176 -20 238 -20C389 -20 465 110 465 366C465 585 400 689 263 689ZM245 654C342 654 381 556 381 316C381 103 343 15 251 15C154 15 113 116 113 360C113 571 150 654 245 654Z" stroke="rgb(0,0,0)" stroke-opacity="1" stroke-width="8" fill="rgb(0,0,0)" fill-opacity="1"></path></g></g><g><svg x="314.9625244140625" overflow="visible" y="74.58750915527344" height="22" width="5.950000286102295"><path d=" M 0.11 1.19 c 0.00 -0.02 0.04 -0.04 0.08 -0.04 c 0.11 0.00 0.31 0.06 0.36 0.08 c 2.12 0.75 2.51 2.33 2.51 5.19 v 0.42 h -1.13 v -0.90 c 0.00 -1.54 -0.08 -3.61 -1.49 -4.54 c -0.10 -0.07 -0.33 -0.15 -0.33 -0.21 z   M 3.06 6.42 v 1.88 h -1.13 v -1.88 z  M 1.93 8.30 h 1.13 v 0.41 c 0.00 2.08 1.92 2.56 1.93 2.56 v 0.02 c -0.01 0.00 -1.93 0.52 -1.93 2.59 h -1.13 c 0.00 -0.74 0.06 -2.01 2.07 -2.59 c -2.01 -0.56 -2.07 -1.84 -2.07 -2.59 v -0.41 z  M 3.06 13.70 v 1.88 h -1.13 v -1.88 z" style="fill:rgb(0,0,0);fill-opacity:1;stroke-width:1px;stroke:none;stroke-opacity:1;"></path><path d=" M 0.11 20.81 c 0.00 0.02 0.04 0.04 0.08 0.04 c 0.11 0.00 0.31 -0.06 0.36 -0.08 c 2.12 -0.75 2.51 -2.33 2.51 -5.19 v -0.42 h -1.13 v 0.90 c 0.00 1.54 -0.08 3.61 -1.49 4.54 c -0.10 0.07 -0.33 0.15 -0.33 0.21 z" style="fill:rgb(0,0,0);fill-opacity:1;stroke-width:1px;stroke:none;stroke-opacity:1;"></path></svg></g></g></g><g><g><g><svg x="527.3875732421875" overflow="visible" y="160.9875030517578" height="22" width="5.950000286102295"><path d=" M 5.84 1.19 c 0.00 -0.02 -0.04 -0.04 -0.08 -0.04 c -0.11 0.00 -0.31 0.06 -0.36 0.08 c -2.12 0.75 -2.51 2.33 -2.51 5.19 v 0.42 h 1.13 v -0.90 c 0.00 -1.54 0.08 -3.61 1.49 -4.54 c 0.10 -0.07 0.33 -0.15 0.33 -0.21 z  M 2.89 6.42 v 1.88 h 1.13 v -1.88 z  M 4.02 8.30 h -1.13 v 0.41 c 0.00 2.08 -1.92 2.56 -1.93 2.56 v 0.02 c 0.01 0.00 1.93 0.52 1.93 2.59 h 1.13 c 0.00 -0.74 -0.06 -2.01 -2.07 -2.59 c 2.01 -0.56 2.07 -1.84 2.07 -2.59 v -0.41 z  M 2.89 13.70 v 1.88 h 1.13 v -1.88 z" style="fill:rgb(0,0,0);fill-opacity:1;stroke-width:1px;stroke:none;stroke-opacity:1;"></path><path d=" M 5.84 20.81 c 0.00 0.02 -0.04 0.04 -0.08 0.04 c -0.11 0.00 -0.31 -0.06 -0.36 -0.08 c -2.12 -0.75 -2.51 -2.33 -2.51 -5.19 v -0.42 h 1.13 v 0.90 c 0.00 1.54 0.08 3.61 1.49 4.54 c 0.10 0.07 0.33 0.15 0.33 0.21 z" style="fill:rgb(0,0,0);fill-opacity:1;stroke-width:1px;stroke:none;stroke-opacity:1;"></path></svg></g><g><g transform="matrix(1,0,0,1,533.925048828125,174.76250305175782)"><path transform="matrix(0.0119,0,0,-0.0119,0,0)" d="M9 1C24 -7 40 -11 52 -11C85 -11 124 18 155 65L231 182L242 113C255 28 278 -11 314 -11C336 -11 368 6 400 35L449 79L440 98C404 68 379 53 363 53C348 53 335 63 325 83C316 102 305 139 300 168L282 269L317 318C364 383 391 406 422 406C438 406 450 398 455 383L469 387L484 472C472 479 463 482 454 482C414 482 374 446 312 354L275 299L269 347C257 446 230 482 171 482C145 482 123 474 114 461L56 378L73 368C103 402 123 416 142 416C175 416 197 375 214 277L225 215L185 153C142 86 108 54 80 54C65 54 54 58 52 63L41 91L21 88C21 53 13 27 9 1Z" stroke="rgb(0,0,0)" stroke-opacity="1" stroke-width="8" fill="rgb(0,0,0)" fill-opacity="1"></path></g></g><g><g transform="matrix(1,0,0,1,542.237548828125,174.76250305175782)"><path transform="matrix(0.0119,0,0,-0.0119,0,0)" d="M123 111C93 111 66 83 66 53C66 23 93 -5 122 -5C154 -5 182 22 182 53C182 83 154 111 123 111ZM123 456C93 456 66 428 66 398C66 368 93 340 122 340C154 340 182 367 182 397C182 428 154 456 123 456Z" stroke="rgb(0,0,0)" stroke-opacity="1" stroke-width="8" fill="rgb(0,0,0)" fill-opacity="1"></path></g></g><g><g transform="matrix(1,0,0,1,547.5750732421875,174.76250305175782)"><path transform="matrix(0.0119,0,0,-0.0119,0,0)" d="M167 420C188 420 201 421 226 424C171 350 72 266 72 126C72 44 107 -11 160 -11C224 -11 276 44 350 187C341 143 338 118 338 95C338 32 367 -11 412 -11C546 -11 699 238 699 384C699 441 673 482 637 482C624 482 612 478 604 470L554 423L565 404C574 410 583 413 592 413C619 413 635 390 635 350C635 205 538 39 453 39C424 39 403 79 403 134C403 181 412 247 424 290L476 474L469 482L395 460L366 311C354 249 340 209 311 155C271 80 233 39 203 39C168 39 145 78 145 136C145 255 186 352 285 464L275 482C255 473 242 470 214 470C186 470 144 472 115 475L103 476C97 477 92 477 91 477C79 477 70 475 59 470C45 443 34 407 21 352L43 352L60 394C67 411 87 422 111 422C145 422 128 420 167 420Z" stroke="rgb(0,0,0)" stroke-opacity="1" stroke-width="8" fill="rgb(0,0,0)" fill-opacity="1"></path></g></g><g><g><g><g><g transform="matrix(1,0,0,1,556.8250732421875,170.88000305175783)"><path transform="matrix(0.00833,0,0,-0.00833,0,0)" d="M390 646L463 646C541 646 577 641 580 629C583 621 585 602 584 592L580 528L608 528L635 692L544 691C456 690 388 689 353 689C316 689 252 690 166 691L71 692L53 528L82 528L97 588C102 610 109 626 115 633C121 640 159 646 196 646L308 646L222 125C206 34 204 31 164 28L113 25L109 -3L166 -2C206 -1 235 0 251 0C270 0 301 -1 340 -2L384 -3L387 25L328 28C302 29 292 37 292 58C292 67 293 74 296 93Z" stroke="rgb(0,0,0)" stroke-opacity="1" stroke-width="8" fill="rgb(0,0,0)" fill-opacity="1"></path></g></g></g></g></g><g><g transform="matrix(1,0,0,1,562.625,174.76250305175782)"><path transform="matrix(0.0119,0,0,-0.0119,0,0)" d="M9 1C24 -7 40 -11 52 -11C85 -11 124 18 155 65L231 182L242 113C255 28 278 -11 314 -11C336 -11 368 6 400 35L449 79L440 98C404 68 379 53 363 53C348 53 335 63 325 83C316 102 305 139 300 168L282 269L317 318C364 383 391 406 422 406C438 406 450 398 455 383L469 387L484 472C472 479 463 482 454 482C414 482 374 446 312 354L275 299L269 347C257 446 230 482 171 482C145 482 123 474 114 461L56 378L73 368C103 402 123 416 142 416C175 416 197 375 214 277L225 215L185 153C142 86 108 54 80 54C65 54 54 58 52 63L41 91L21 88C21 53 13 27 9 1Z" stroke="rgb(0,0,0)" stroke-opacity="1" stroke-width="8" fill="rgb(0,0,0)" fill-opacity="1"></path></g></g><g><g transform="matrix(1,0,0,1,572.125,174.76250305175782)"><path transform="matrix(0.0119,0,0,-0.0119,0,0)" d="M604 347L604 406L65 406L65 347ZM604 134L604 193L65 193L65 134Z" stroke="rgb(0,0,0)" stroke-opacity="1" stroke-width="8" fill="rgb(0,0,0)" fill-opacity="1"></path></g></g><g><g transform="matrix(1,0,0,1,583.6375732421875,174.76250305175782)"><path transform="matrix(0.0119,0,0,-0.0119,0,0)" d="M418 -3L418 27L366 30C311 33 301 44 301 96L301 700L60 598L67 548L217 614L217 96C217 44 206 33 152 30L96 27L96 -3C250 0 250 0 261 0C292 0 402 -3 418 -3ZM762 689C607 689 528 566 528 324C528 207 549 106 584 57C619 8 675 -20 737 -20C888 -20 964 110 964 366C964 585 899 689 762 689ZM744 654C841 654 880 556 880 316C880 103 842 15 750 15C653 15 612 116 612 360C612 571 649 654 744 654ZM1261 689C1106 689 1027 566 1027 324C1027 207 1048 106 1083 57C1118 8 1174 -20 1236 -20C1387 -20 1463 110 1463 366C1463 585 1398 689 1261 689ZM1243 654C1340 654 1379 556 1379 316C1379 103 1341 15 1249 15C1152 15 1111 116 1111 360C1111 571 1148 654 1243 654Z" stroke="rgb(0,0,0)" stroke-opacity="1" stroke-width="8" fill="rgb(0,0,0)" fill-opacity="1"></path></g></g><g><svg x="602.0250244140625" overflow="visible" y="160.9875030517578" height="22" width="5.950000286102295"><path d=" M 0.11 1.19 c 0.00 -0.02 0.04 -0.04 0.08 -0.04 c 0.11 0.00 0.31 0.06 0.36 0.08 c 2.12 0.75 2.51 2.33 2.51 5.19 v 0.42 h -1.13 v -0.90 c 0.00 -1.54 -0.08 -3.61 -1.49 -4.54 c -0.10 -0.07 -0.33 -0.15 -0.33 -0.21 z   M 3.06 6.42 v 1.88 h -1.13 v -1.88 z  M 1.93 8.30 h 1.13 v 0.41 c 0.00 2.08 1.92 2.56 1.93 2.56 v 0.02 c -0.01 0.00 -1.93 0.52 -1.93 2.59 h -1.13 c 0.00 -0.74 0.06 -2.01 2.07 -2.59 c -2.01 -0.56 -2.07 -1.84 -2.07 -2.59 v -0.41 z  M 3.06 13.70 v 1.88 h -1.13 v -1.88 z" style="fill:rgb(0,0,0);fill-opacity:1;stroke-width:1px;stroke:none;stroke-opacity:1;"></path><path d=" M 0.11 20.81 c 0.00 0.02 0.04 0.04 0.08 0.04 c 0.11 0.00 0.31 -0.06 0.36 -0.08 c 2.12 -0.75 2.51 -2.33 2.51 -5.19 v -0.42 h -1.13 v 0.90 c 0.00 1.54 -0.08 3.61 -1.49 4.54 c -0.10 0.07 -0.33 0.15 -0.33 0.21 z" style="fill:rgb(0,0,0);fill-opacity:1;stroke-width:1px;stroke:none;stroke-opacity:1;"></path></svg></g></g></g><g><g><g><g transform="matrix(1,0,0,1,22.79998779296875,98.40000915527344)"><path transform="matrix(0.017,0,0,-0.017,0,0)" d="M455 432L455 462C385 460 355 459 317 459L69 462C67 411 66 399 60 330L90 330L102 398C106 419 124 424 198 424L341 424C320 391 303 368 276 334L106 122L16 17L22 -3C126 0 132 0 175 0L451 -3C451 20 453 44 460 92L466 139L436 139L418 60C414 42 372 35 276 35L141 35Z" stroke="rgb(0,0,0)" stroke-opacity="1" stroke-width="24" fill="rgb(0,0,0)" fill-opacity="1"></path></g></g><g><g transform="matrix(1,0,0,1,40.625,98.40000915527344)"><path transform="matrix(0.017,0,0,-0.017,0,0)" d="M604 347L604 406L65 406L65 347ZM604 134L604 193L65 193L65 134Z" stroke="rgb(0,0,0)" stroke-opacity="1" stroke-width="24" fill="rgb(0,0,0)" fill-opacity="1"></path></g></g><g><g transform="matrix(1,0,0,1,57.0875244140625,98.40000915527344)"><path transform="matrix(0.017,0,0,-0.017,0,0)" d="M662 469L503 104C500 113 415 397 415 405C415 420 428 428 453 429L493 431L493 459C394 456 394 456 374 456C354 456 354 456 255 459L255 431L283 429C311 427 324 407 349 329L451 -7L498 -7L648 335L784 -7L830 -7L967 342C997 409 1009 426 1031 429L1057 431L1057 459C975 456 975 456 959 456C943 456 943 456 861 459L861 431L895 429C920 428 934 416 934 398L829 98L714 388C700 422 693 442 685 469Z" stroke="rgb(0,0,0)" stroke-opacity="1" stroke-width="24" fill="rgb(0,0,0)" fill-opacity="1"></path></g></g><g><g><g><g><g transform="matrix(1,0,0,1,76.4625244140625,91.70000305175782)"><path transform="matrix(0.0119,0,0,-0.0119,0,0)" d="M379 689L221 689C211 689 157 690 86 691L18 692C23 635 25 596 25 531L56 531L60 610C61 634 72 643 100 643L255 643L259 120C259 41 254 33 208 30L160 27L160 -3C219 -1 254 0 306 0C358 0 394 -1 453 -3L453 27L405 30C359 33 354 41 354 120L358 643L513 643C541 643 552 634 553 610L557 531L588 531C588 596 590 635 595 692C401 689 422 689 379 689Z" stroke="rgb(0,0,0)" stroke-opacity="1" stroke-width="24" fill="rgb(0,0,0)" fill-opacity="1"></path></g></g></g></g></g><g><g transform="matrix(1,0,0,1,84.76251220703125,98.40000915527344)"><path transform="matrix(0.017,0,0,-0.017,0,0)" d="M537 254L679 420C685 427 696 431 713 431L727 431L727 459L645 459L521 284L445 400C430 422 419 435 385 469L269 449L274 423L295 421C313 420 335 406 345 392L465 218L316 42C309 33 296 27 286 27L269 27L269 0L355 0L489 192L622 -3C674 0 674 0 683 0C693 0 693 0 745 -3L745 27L720 30C708 31 696 39 685 54Z" stroke="rgb(0,0,0)" stroke-opacity="1" stroke-width="24" fill="rgb(0,0,0)" fill-opacity="1"></path></g></g></g></g><g><g><g><g transform="matrix(1,0,0,1,525.800048828125,108.4000030517578)"><path transform="matrix(0.0136,0,0,-0.0136,0,0)" d="M9 1C24 -7 40 -11 52 -11C85 -11 124 18 155 65L231 182L242 113C255 28 278 -11 314 -11C336 -11 368 6 400 35L449 79L440 98C404 68 379 53 363 53C348 53 335 63 325 83C316 102 305 139 300 168L282 269L317 318C364 383 391 406 422 406C438 406 450 398 455 383L469 387L484 472C472 479 463 482 454 482C414 482 374 446 312 354L275 299L269 347C257 446 230 482 171 482C145 482 123 474 114 461L56 378L73 368C103 402 123 416 142 416C175 416 197 375 214 277L225 215L185 153C142 86 108 54 80 54C65 54 54 58 52 63L41 91L21 88C21 53 13 27 9 1Z" stroke="rgb(0,0,0)" stroke-opacity="1" stroke-width="8" fill="rgb(0,0,0)" fill-opacity="1"></path></g></g><g><g><g><g><g transform="matrix(1,0,0,1,532.987548828125,110.80750610351562)"><path transform="matrix(0.009519999999999999,0,0,-0.009519999999999999,0,0)" d="M16 23L16 -3C203 -3 203 0 239 0C275 0 275 -3 468 -3L468 82C353 77 307 81 122 77L304 270C401 373 431 428 431 503C431 618 353 689 226 689C154 689 105 669 56 619L39 483L68 483L81 529C97 587 133 612 200 612C286 612 341 558 341 473C341 398 299 324 186 204Z" stroke="rgb(0,0,0)" stroke-opacity="1" stroke-width="8" fill="rgb(0,0,0)" fill-opacity="1"></path></g></g></g></g></g></g></g><g><g><g><g transform="matrix(1,0,0,1,419.29998779296875,143.4000030517578)"><path transform="matrix(0.0136,0,0,-0.0136,0,0)" d="M9 1C24 -7 40 -11 52 -11C85 -11 124 18 155 65L231 182L242 113C255 28 278 -11 314 -11C336 -11 368 6 400 35L449 79L440 98C404 68 379 53 363 53C348 53 335 63 325 83C316 102 305 139 300 168L282 269L317 318C364 383 391 406 422 406C438 406 450 398 455 383L469 387L484 472C472 479 463 482 454 482C414 482 374 446 312 354L275 299L269 347C257 446 230 482 171 482C145 482 123 474 114 461L56 378L73 368C103 402 123 416 142 416C175 416 197 375 214 277L225 215L185 153C142 86 108 54 80 54C65 54 54 58 52 63L41 91L21 88C21 53 13 27 9 1Z" stroke="rgb(0,0,0)" stroke-opacity="1" stroke-width="8" fill="rgb(0,0,0)" fill-opacity="1"></path></g></g><g><g><g><g><g transform="matrix(1,0,0,1,426.48748779296875,145.80750610351564)"><path transform="matrix(0.009519999999999999,0,0,-0.009519999999999999,0,0)" d="M418 -3L418 27L366 30C311 33 301 44 301 96L301 700L60 598L67 548L217 614L217 96C217 44 206 33 152 30L96 27L96 -3C250 0 250 0 261 0C292 0 402 -3 418 -3Z" stroke="rgb(0,0,0)" stroke-opacity="1" stroke-width="8" fill="rgb(0,0,0)" fill-opacity="1"></path></g></g></g></g></g></g></g><g><g><g><svg x="191.54998779296875" overflow="visible" y="275.1499938964844" height="22" width="5.950000286102295"><path d=" M 5.84 1.19 c 0.00 -0.02 -0.04 -0.04 -0.08 -0.04 c -0.11 0.00 -0.31 0.06 -0.36 0.08 c -2.12 0.75 -2.51 2.33 -2.51 5.19 v 0.42 h 1.13 v -0.90 c 0.00 -1.54 0.08 -3.61 1.49 -4.54 c 0.10 -0.07 0.33 -0.15 0.33 -0.21 z  M 2.89 6.42 v 1.88 h 1.13 v -1.88 z  M 4.02 8.30 h -1.13 v 0.41 c 0.00 2.08 -1.92 2.56 -1.93 2.56 v 0.02 c 0.01 0.00 1.93 0.52 1.93 2.59 h 1.13 c 0.00 -0.74 -0.06 -2.01 -2.07 -2.59 c 2.01 -0.56 2.07 -1.84 2.07 -2.59 v -0.41 z  M 2.89 13.70 v 1.88 h 1.13 v -1.88 z" style="fill:rgb(0,0,0);fill-opacity:1;stroke-width:1px;stroke:none;stroke-opacity:1;"></path><path d=" M 5.84 20.81 c 0.00 0.02 -0.04 0.04 -0.08 0.04 c -0.11 0.00 -0.31 -0.06 -0.36 -0.08 c -2.12 -0.75 -2.51 -2.33 -2.51 -5.19 v -0.42 h 1.13 v 0.90 c 0.00 1.54 0.08 3.61 1.49 4.54 c 0.10 0.07 0.33 0.15 0.33 0.21 z" style="fill:rgb(0,0,0);fill-opacity:1;stroke-width:1px;stroke:none;stroke-opacity:1;"></path></svg></g><g><g transform="matrix(1,0,0,1,198.0875244140625,288.92499389648435)"><path transform="matrix(0.0119,0,0,-0.0119,0,0)" d="M9 1C24 -7 40 -11 52 -11C85 -11 124 18 155 65L231 182L242 113C255 28 278 -11 314 -11C336 -11 368 6 400 35L449 79L440 98C404 68 379 53 363 53C348 53 335 63 325 83C316 102 305 139 300 168L282 269L317 318C364 383 391 406 422 406C438 406 450 398 455 383L469 387L484 472C472 479 463 482 454 482C414 482 374 446 312 354L275 299L269 347C257 446 230 482 171 482C145 482 123 474 114 461L56 378L73 368C103 402 123 416 142 416C175 416 197 375 214 277L225 215L185 153C142 86 108 54 80 54C65 54 54 58 52 63L41 91L21 88C21 53 13 27 9 1Z" stroke="rgb(0,0,0)" stroke-opacity="1" stroke-width="8" fill="rgb(0,0,0)" fill-opacity="1"></path></g></g><g><g transform="matrix(1,0,0,1,206.4000244140625,288.92499389648435)"><path transform="matrix(0.0119,0,0,-0.0119,0,0)" d="M123 111C93 111 66 83 66 53C66 23 93 -5 122 -5C154 -5 182 22 182 53C182 83 154 111 123 111ZM123 456C93 456 66 428 66 398C66 368 93 340 122 340C154 340 182 367 182 397C182 428 154 456 123 456Z" stroke="rgb(0,0,0)" stroke-opacity="1" stroke-width="8" fill="rgb(0,0,0)" fill-opacity="1"></path></g></g><g><g transform="matrix(1,0,0,1,211.73748779296875,288.92499389648435)"><path transform="matrix(0.0119,0,0,-0.0119,0,0)" d="M167 420C188 420 201 421 226 424C171 350 72 266 72 126C72 44 107 -11 160 -11C224 -11 276 44 350 187C341 143 338 118 338 95C338 32 367 -11 412 -11C546 -11 699 238 699 384C699 441 673 482 637 482C624 482 612 478 604 470L554 423L565 404C574 410 583 413 592 413C619 413 635 390 635 350C635 205 538 39 453 39C424 39 403 79 403 134C403 181 412 247 424 290L476 474L469 482L395 460L366 311C354 249 340 209 311 155C271 80 233 39 203 39C168 39 145 78 145 136C145 255 186 352 285 464L275 482C255 473 242 470 214 470C186 470 144 472 115 475L103 476C97 477 92 477 91 477C79 477 70 475 59 470C45 443 34 407 21 352L43 352L60 394C67 411 87 422 111 422C145 422 128 420 167 420Z" stroke="rgb(0,0,0)" stroke-opacity="1" stroke-width="8" fill="rgb(0,0,0)" fill-opacity="1"></path></g></g><g><g><g><g><g transform="matrix(1,0,0,1,220.98748779296875,285.04249389648436)"><path transform="matrix(0.00833,0,0,-0.00833,0,0)" d="M390 646L463 646C541 646 577 641 580 629C583 621 585 602 584 592L580 528L608 528L635 692L544 691C456 690 388 689 353 689C316 689 252 690 166 691L71 692L53 528L82 528L97 588C102 610 109 626 115 633C121 640 159 646 196 646L308 646L222 125C206 34 204 31 164 28L113 25L109 -3L166 -2C206 -1 235 0 251 0C270 0 301 -1 340 -2L384 -3L387 25L328 28C302 29 292 37 292 58C292 67 293 74 296 93Z" stroke="rgb(0,0,0)" stroke-opacity="1" stroke-width="8" fill="rgb(0,0,0)" fill-opacity="1"></path></g></g></g></g></g><g><g transform="matrix(1,0,0,1,226.78753662109375,288.92499389648435)"><path transform="matrix(0.0119,0,0,-0.0119,0,0)" d="M9 1C24 -7 40 -11 52 -11C85 -11 124 18 155 65L231 182L242 113C255 28 278 -11 314 -11C336 -11 368 6 400 35L449 79L440 98C404 68 379 53 363 53C348 53 335 63 325 83C316 102 305 139 300 168L282 269L317 318C364 383 391 406 422 406C438 406 450 398 455 383L469 387L484 472C472 479 463 482 454 482C414 482 374 446 312 354L275 299L269 347C257 446 230 482 171 482C145 482 123 474 114 461L56 378L73 368C103 402 123 416 142 416C175 416 197 375 214 277L225 215L185 153C142 86 108 54 80 54C65 54 54 58 52 63L41 91L21 88C21 53 13 27 9 1Z" stroke="rgb(0,0,0)" stroke-opacity="1" stroke-width="8" fill="rgb(0,0,0)" fill-opacity="1"></path></g></g><g><g transform="matrix(1,0,0,1,236.28753662109375,288.92499389648435)"><path transform="matrix(0.0119,0,0,-0.0119,0,0)" d="M604 347L604 406L65 406L65 347ZM604 134L604 193L65 193L65 134Z" stroke="rgb(0,0,0)" stroke-opacity="1" stroke-width="8" fill="rgb(0,0,0)" fill-opacity="1"></path></g></g><g><g transform="matrix(1,0,0,1,250.17498779296875,288.92499389648435)"><path transform="matrix(0.0119,0,0,-0.0119,0,0)" d="M555 243L555 299L51 299L51 243Z" stroke="rgb(0,0,0)" stroke-opacity="1" stroke-width="8" fill="rgb(0,0,0)" fill-opacity="1"></path></g></g><g><g transform="matrix(1,0,0,1,259.75,288.92499389648435)"><path transform="matrix(0.0119,0,0,-0.0119,0,0)" d="M418 -3L418 27L366 30C311 33 301 44 301 96L301 700L60 598L67 548L217 614L217 96C217 44 206 33 152 30L96 27L96 -3C250 0 250 0 261 0C292 0 402 -3 418 -3ZM958 253C958 366 877 446 763 446C715 446 679 443 626 396L626 605L931 604L931 689L574 690L574 322L594 316C641 363 668 377 717 377C813 377 873 309 873 201C873 90 809 25 700 25C646 25 596 43 582 69L536 151L512 137C535 80 547 48 561 4C589 -11 629 -20 672 -20C800 -20 958 89 958 253ZM1261 689C1106 689 1027 566 1027 324C1027 207 1048 106 1083 57C1118 8 1174 -20 1236 -20C1387 -20 1463 110 1463 366C1463 585 1398 689 1261 689ZM1243 654C1340 654 1379 556 1379 316C1379 103 1341 15 1249 15C1152 15 1111 116 1111 360C1111 571 1148 654 1243 654Z" stroke="rgb(0,0,0)" stroke-opacity="1" stroke-width="8" fill="rgb(0,0,0)" fill-opacity="1"></path></g></g><g><svg x="278.13751220703125" overflow="visible" y="275.1499938964844" height="22" width="5.950000286102295"><path d=" M 0.11 1.19 c 0.00 -0.02 0.04 -0.04 0.08 -0.04 c 0.11 0.00 0.31 0.06 0.36 0.08 c 2.12 0.75 2.51 2.33 2.51 5.19 v 0.42 h -1.13 v -0.90 c 0.00 -1.54 -0.08 -3.61 -1.49 -4.54 c -0.10 -0.07 -0.33 -0.15 -0.33 -0.21 z   M 3.06 6.42 v 1.88 h -1.13 v -1.88 z  M 1.93 8.30 h 1.13 v 0.41 c 0.00 2.08 1.92 2.56 1.93 2.56 v 0.02 c -0.01 0.00 -1.93 0.52 -1.93 2.59 h -1.13 c 0.00 -0.74 0.06 -2.01 2.07 -2.59 c -2.01 -0.56 -2.07 -1.84 -2.07 -2.59 v -0.41 z  M 3.06 13.70 v 1.88 h -1.13 v -1.88 z" style="fill:rgb(0,0,0);fill-opacity:1;stroke-width:1px;stroke:none;stroke-opacity:1;"></path><path d=" M 0.11 20.81 c 0.00 0.02 0.04 0.04 0.08 0.04 c 0.11 0.00 0.31 -0.06 0.36 -0.08 c 2.12 -0.75 2.51 -2.33 2.51 -5.19 v -0.42 h -1.13 v 0.90 c 0.00 1.54 -0.08 3.61 -1.49 4.54 c -0.10 0.07 -0.33 0.15 -0.33 0.21 z" style="fill:rgb(0,0,0);fill-opacity:1;stroke-width:1px;stroke:none;stroke-opacity:1;"></path></svg></g></g></g><g><g><g><g transform="matrix(1,0,0,1,189.9625244140625,222.56249389648437)"><path transform="matrix(0.0136,0,0,-0.0136,0,0)" d="M9 1C24 -7 40 -11 52 -11C85 -11 124 18 155 65L231 182L242 113C255 28 278 -11 314 -11C336 -11 368 6 400 35L449 79L440 98C404 68 379 53 363 53C348 53 335 63 325 83C316 102 305 139 300 168L282 269L317 318C364 383 391 406 422 406C438 406 450 398 455 383L469 387L484 472C472 479 463 482 454 482C414 482 374 446 312 354L275 299L269 347C257 446 230 482 171 482C145 482 123 474 114 461L56 378L73 368C103 402 123 416 142 416C175 416 197 375 214 277L225 215L185 153C142 86 108 54 80 54C65 54 54 58 52 63L41 91L21 88C21 53 13 27 9 1Z" stroke="rgb(0,0,0)" stroke-opacity="1" stroke-width="8" fill="rgb(0,0,0)" fill-opacity="1"></path></g></g><g><g><g><g><g transform="matrix(1,0,0,1,197.1500244140625,224.97001220703126)"><path transform="matrix(0.009519999999999999,0,0,-0.009519999999999999,0,0)" d="M280 181L280 106C280 46 269 32 220 30L158 27L158 -3C291 0 291 0 315 0C339 0 339 0 472 -3L472 27L424 30C375 33 364 46 364 106L364 181C423 181 444 180 472 177L472 248L364 245L365 697L285 667L2 204L2 181ZM280 245L65 245L280 597Z" stroke="rgb(0,0,0)" stroke-opacity="1" stroke-width="8" fill="rgb(0,0,0)" fill-opacity="1"></path></g></g></g></g></g></g></g><g><g><g><g transform="matrix(1,0,0,1,379.29998779296875,243.40001831054687)"><path transform="matrix(0.0136,0,0,-0.0136,0,0)" d="M9 1C24 -7 40 -11 52 -11C85 -11 124 18 155 65L231 182L242 113C255 28 278 -11 314 -11C336 -11 368 6 400 35L449 79L440 98C404 68 379 53 363 53C348 53 335 63 325 83C316 102 305 139 300 168L282 269L317 318C364 383 391 406 422 406C438 406 450 398 455 383L469 387L484 472C472 479 463 482 454 482C414 482 374 446 312 354L275 299L269 347C257 446 230 482 171 482C145 482 123 474 114 461L56 378L73 368C103 402 123 416 142 416C175 416 197 375 214 277L225 215L185 153C142 86 108 54 80 54C65 54 54 58 52 63L41 91L21 88C21 53 13 27 9 1Z" stroke="rgb(0,0,0)" stroke-opacity="1" stroke-width="8" fill="rgb(0,0,0)" fill-opacity="1"></path></g></g><g><g><g><g><g transform="matrix(1,0,0,1,386.48748779296875,245.80750610351564)"><path transform="matrix(0.009519999999999999,0,0,-0.009519999999999999,0,0)" d="M462 224C462 345 355 366 308 374C388 436 418 482 418 541C418 630 344 689 233 689C165 689 120 670 72 622L43 498L74 498L92 554C103 588 166 622 218 622C283 622 336 569 336 506C336 431 277 368 206 368C198 368 187 369 174 370L159 371L147 318L154 312C192 329 211 334 238 334C321 334 369 281 369 190C369 88 308 21 215 21C169 21 128 36 98 64C74 86 61 109 42 163L15 153C36 92 44 56 50 6C103 -12 147 -20 184 -20C307 -20 462 87 462 224Z" stroke="rgb(0,0,0)" stroke-opacity="1" stroke-width="8" fill="rgb(0,0,0)" fill-opacity="1"></path></g></g></g></g></g></g></g><g><g><g><text x="21.79998779296875" y="172.40000915527344" style="white-space:pre;stroke:none;fill:rgb(74,144,226);fill-opacity:1;font-size:13.5px;font-family:Arial, Helvetica, sans-serif;font-weight:400;font-style:normal;dominant-baseline:text-before-edge;text-decoration:none solid rgb(74, 144, 226);">Negative Labels</text></g></g><g><g><g><g><g><g transform="matrix(1,0,0,1,39.17498779296875,204.20000915527345)"><path transform="matrix(0.015300000000000001,0,0,-0.015300000000000001,0,0)" d="M-7 -180C-8 -187 -8 -193 -8 -198C-8 -241 29 -276 74 -276C180 -276 290 -152 349 33L490 473L479 482C450 471 427 465 405 463L370 331C358 284 323 211 290 162C255 111 206 67 184 67C172 67 163 90 164 115L180 322C182 353 184 391 184 419C184 464 177 482 160 482C147 482 133 475 85 442L3 386L14 368L64 398C69 401 80 410 89 410C103 410 111 391 111 358C111 357 111 351 110 343L93 100L92 60C92 18 110 -11 135 -11C172 -11 256 74 331 187L282 16C231 -161 181 -234 111 -234C76 -234 49 -207 49 -172C49 -167 50 -159 51 -150L41 -146Z" stroke="rgb(0,0,0)" stroke-opacity="1" stroke-width="8" fill="rgb(0,0,0)" fill-opacity="1"></path></g></g><g><g><g><g><g transform="matrix(1,0,0,1,47.26251220703125,207.71)"><path transform="matrix(0.01071,0,0,-0.01071,0,0)" d="M34 388L41 368L73 389C110 412 113 414 120 414C130 414 138 404 138 391C138 384 134 361 130 347L64 107C56 76 51 49 51 30C51 6 62 -9 81 -9C107 -9 143 12 241 85L231 103L205 86C176 67 153 56 144 56C137 56 131 66 131 76C131 86 133 95 138 116L215 420C219 437 221 448 221 456C221 473 212 482 196 482C174 482 137 461 62 408ZM228 712C199 712 170 679 170 645C170 620 185 604 209 604C240 604 264 633 264 671C264 695 249 712 228 712Z" stroke="rgb(0,0,0)" stroke-opacity="1" stroke-width="8" fill="rgb(0,0,0)" fill-opacity="1"></path></g></g></g></g></g><g><g transform="matrix(1,0,0,1,51.1500244140625,204.20000915527345)"><path transform="matrix(0.015300000000000001,0,0,-0.015300000000000001,0,0)" d="" stroke="rgb(0,0,0)" stroke-opacity="1" stroke-width="8" fill="rgb(0,0,0)" fill-opacity="1"></path></g></g><g><g transform="matrix(1,0,0,1,59.54998779296875,204.20000915527345)"><path transform="matrix(0.015300000000000001,0,0,-0.015300000000000001,0,0)" d="M604 347L604 406L65 406L65 347ZM604 134L604 193L65 193L65 134Z" stroke="rgb(0,0,0)" stroke-opacity="1" stroke-width="8" fill="rgb(0,0,0)" fill-opacity="1"></path></g></g><g><g transform="matrix(1,0,0,1,74.35003662109375,204.20000915527345)"><path transform="matrix(0.015300000000000001,0,0,-0.015300000000000001,0,0)" d="" stroke="rgb(0,0,0)" stroke-opacity="1" stroke-width="8" fill="rgb(0,0,0)" fill-opacity="1"></path></g></g><g><g transform="matrix(1,0,0,1,81.2125244140625,204.20000915527345)"><path transform="matrix(0.015300000000000001,0,0,-0.015300000000000001,0,0)" d="M555 243L555 299L51 299L51 243Z" stroke="rgb(0,0,0)" stroke-opacity="1" stroke-width="8" fill="rgb(0,0,0)" fill-opacity="1"></path></g></g><g><g transform="matrix(1,0,0,1,93.51251220703125,204.20000915527345)"><path transform="matrix(0.015300000000000001,0,0,-0.015300000000000001,0,0)" d="M418 -3L418 27L366 30C311 33 301 44 301 96L301 700L60 598L67 548L217 614L217 96C217 44 206 33 152 30L96 27L96 -3C250 0 250 0 261 0C292 0 402 -3 418 -3Z" stroke="rgb(0,0,0)" stroke-opacity="1" stroke-width="8" fill="rgb(0,0,0)" fill-opacity="1"></path></g></g></g></g></g></g></g><g><g><g><text x="21.79998779296875" y="122.40000915527344" style="white-space:pre;stroke:none;fill:rgb(255,0,0);fill-opacity:1;font-size:13.5px;font-family:Arial, Helvetica, sans-serif;font-weight:400;font-style:normal;dominant-baseline:text-before-edge;text-decoration:none solid rgb(255, 0, 0);">Positive Labels</text></g></g><g><g><g><g><g><g transform="matrix(1,0,0,1,35.6875,154.20000915527345)"><path transform="matrix(0.015300000000000001,0,0,-0.015300000000000001,0,0)" d="M-7 -180C-8 -187 -8 -193 -8 -198C-8 -241 29 -276 74 -276C180 -276 290 -152 349 33L490 473L479 482C450 471 427 465 405 463L370 331C358 284 323 211 290 162C255 111 206 67 184 67C172 67 163 90 164 115L180 322C182 353 184 391 184 419C184 464 177 482 160 482C147 482 133 475 85 442L3 386L14 368L64 398C69 401 80 410 89 410C103 410 111 391 111 358C111 357 111 351 110 343L93 100L92 60C92 18 110 -11 135 -11C172 -11 256 74 331 187L282 16C231 -161 181 -234 111 -234C76 -234 49 -207 49 -172C49 -167 50 -159 51 -150L41 -146Z" stroke="rgb(0,0,0)" stroke-opacity="1" stroke-width="8" fill="rgb(0,0,0)" fill-opacity="1"></path></g></g><g><g><g><g><g transform="matrix(1,0,0,1,43.7750244140625,157.71)"><path transform="matrix(0.01071,0,0,-0.01071,0,0)" d="M34 388L41 368L73 389C110 412 113 414 120 414C130 414 138 404 138 391C138 384 134 361 130 347L64 107C56 76 51 49 51 30C51 6 62 -9 81 -9C107 -9 143 12 241 85L231 103L205 86C176 67 153 56 144 56C137 56 131 66 131 76C131 86 133 95 138 116L215 420C219 437 221 448 221 456C221 473 212 482 196 482C174 482 137 461 62 408ZM228 712C199 712 170 679 170 645C170 620 185 604 209 604C240 604 264 633 264 671C264 695 249 712 228 712Z" stroke="rgb(0,0,0)" stroke-opacity="1" stroke-width="8" fill="rgb(0,0,0)" fill-opacity="1"></path></g></g></g></g></g><g><g transform="matrix(1,0,0,1,47.66253662109375,154.20000915527345)"><path transform="matrix(0.015300000000000001,0,0,-0.015300000000000001,0,0)" d="" stroke="rgb(0,0,0)" stroke-opacity="1" stroke-width="8" fill="rgb(0,0,0)" fill-opacity="1"></path></g></g><g><g transform="matrix(1,0,0,1,56.0625,154.20000915527345)"><path transform="matrix(0.015300000000000001,0,0,-0.015300000000000001,0,0)" d="M604 347L604 406L65 406L65 347ZM604 134L604 193L65 193L65 134Z" stroke="rgb(0,0,0)" stroke-opacity="1" stroke-width="8" fill="rgb(0,0,0)" fill-opacity="1"></path></g></g><g><g transform="matrix(1,0,0,1,70.86248779296875,154.20000915527345)"><path transform="matrix(0.015300000000000001,0,0,-0.015300000000000001,0,0)" d="" stroke="rgb(0,0,0)" stroke-opacity="1" stroke-width="8" fill="rgb(0,0,0)" fill-opacity="1"></path></g></g><g><g transform="matrix(1,0,0,1,77.72503662109375,154.20000915527345)"><path transform="matrix(0.015300000000000001,0,0,-0.015300000000000001,0,0)" d="M604 241L604 300L364 300L364 538L305 538L305 300L65 300L65 241L305 241L305 0L364 0L364 241Z" stroke="rgb(0,0,0)" stroke-opacity="1" stroke-width="8" fill="rgb(0,0,0)" fill-opacity="1"></path></g></g><g><g transform="matrix(1,0,0,1,90.98748779296875,154.20000915527345)"><path transform="matrix(0.015300000000000001,0,0,-0.015300000000000001,0,0)" d="M418 -3L418 27L366 30C311 33 301 44 301 96L301 700L60 598L67 548L217 614L217 96C217 44 206 33 152 30L96 27L96 -3C250 0 250 0 261 0C292 0 402 -3 418 -3Z" stroke="rgb(0,0,0)" stroke-opacity="1" stroke-width="8" fill="rgb(0,0,0)" fill-opacity="1"></path></g></g></g></g></g></g></g></svg>
</svg>
