<svg xmlns="http://www.w3.org/2000/svg" xmlns:xlink="http://www.w3.org/1999/xlink" x="0" y="0" width="661.3333740234375" height="301.3333435058594" style="
        width:661.3333740234375px;
        height:301.3333435058594px;
        background: #FFF;
        fill: none;
">
        
        
        <svg xmlns="http://www.w3.org/2000/svg" class="role-diagram-draw-area"><g class="shapes-region" style="stroke: black; fill: none;"><g class="composite-shape"><path class="real" d=" M211.15,163.49 L399.33,75.34 L447.92,179.07 L259.74,267.22 Z" style="stroke-width: 1; stroke: none; stroke-opacity: 1; fill: rgb(74, 144, 226); fill-opacity: 0.3;"/></g><g class="arrow-line"><path class="connection real" stroke-dasharray="" d="  M328,56 L328,280" style="stroke: rgb(0, 0, 0); stroke-width: 1; fill: none; fill-opacity: 1;"/></g><g class="arrow-line"><path class="connection real" stroke-dasharray="" d="  M440,168 L216,168" style="stroke: rgb(0, 0, 0); stroke-width: 1; fill: none; fill-opacity: 1;"/></g><g class="composite-shape"><path class="real" d=" M247.73,228.14 C247.73,225.85 249.58,224 251.86,224 C254.15,224 256,225.85 256,228.14 C256,230.42 254.15,232.27 251.86,232.27 C249.58,232.27 247.73,230.42 247.73,228.14 Z" style="stroke-width: 1; stroke: none; stroke-opacity: 1; fill: rgb(0, 0, 0); fill-opacity: 1;"/></g><g class="arrow-line"><path class="connection real" stroke-dasharray="" d="  M328,168 L331.69,209.87" style="stroke: rgb(0, 0, 0); stroke-width: 1; fill: none; fill-opacity: 1;"/><g stroke="#000" transform="matrix(-0.08767733710088155,-0.9961489268974285,0.9961489268974285,-0.08767733710088155,331.8636363636364,211.86363636363637)" style="stroke: rgb(0, 0, 0); stroke-width: 1;"><path d=" M10.93,-3.29 Q4.96,-0.45 0,0 Q4.96,0.45 10.93,3.29"/></g></g><g class="arrow-line"><path class="connection real" stroke-dasharray="" d="  M328,168 L277.86,171.98" style="stroke: rgb(0, 0, 0); stroke-width: 1; fill: none; fill-opacity: 1;"/><g stroke="#000" transform="matrix(0.9968623160129351,-0.07915505614505727,0.07915505614505727,0.9968623160129351,275.8636363636364,172.13636363636363)" style="stroke: rgb(0, 0, 0); stroke-width: 1;"><path d=" M10.93,-3.29 Q4.96,-0.45 0,0 Q4.96,0.45 10.93,3.29"/></g></g><g class="arrow-line"><path class="connection real" stroke-dasharray="" d="  M328,168 L331.98,118.13" style="stroke: rgb(0, 0, 0); stroke-width: 1; fill: none; fill-opacity: 1;"/><g stroke="#000" transform="matrix(-0.07950302190765894,0.9968346249541848,-0.9968346249541848,-0.07950302190765894,332.1363636363636,116.13636363636363)" style="stroke: rgb(0, 0, 0); stroke-width: 1;"><path d=" M10.93,-3.29 Q4.96,-0.45 0,0 Q4.96,0.45 10.93,3.29"/></g></g><g class="arrow-line"><path class="connection real" stroke-dasharray="" d="  M328,168 L393.95,148.43" style="stroke: rgb(0, 0, 0); stroke-width: 1; fill: none; fill-opacity: 1;"/><g stroke="#000" transform="matrix(-0.958670893355316,0.28451734258797023,-0.28451734258797023,-0.958670893355316,395.86363636363643,147.86363636363637)" style="stroke: rgb(0, 0, 0); stroke-width: 1;"><path d=" M10.93,-3.29 Q4.96,-0.45 0,0 Q4.96,0.45 10.93,3.29"/></g></g><g class="arrow-line"><path class="connection real" stroke-dasharray="2.25 3.685" d="  M276,172 L292.4,195.73" style="stroke: rgb(255, 142, 0); stroke-opacity: 1; stroke-width: 2; fill: none; fill-opacity: 1;"/></g><g class="composite-shape"><path class="real" d=" M271.73,172.14 C271.73,169.85 273.58,168 275.86,168 C278.15,168 280,169.85 280,172.14 C280,174.42 278.15,176.27 275.86,176.27 C273.58,176.27 271.73,174.42 271.73,172.14 Z" style="stroke-width: 1; stroke: none; stroke-opacity: 1; fill: rgb(0, 0, 0); fill-opacity: 1;"/></g><g class="arrow-line"><path class="connection real" stroke-dasharray="2.25 3.685" d="  M332.14,116.14 L354.8,144.13" style="stroke: rgb(255, 142, 0); stroke-opacity: 1; stroke-width: 2; fill: none; fill-opacity: 1;"/></g><g class="composite-shape"><path class="real" d=" M328,116.14 C328,113.85 329.85,112 332.14,112 C334.42,112 336.27,113.85 336.27,116.14 C336.27,118.42 334.42,120.27 332.14,120.27 C329.85,120.27 328,118.42 328,116.14 Z" style="stroke-width: 1; stroke: none; stroke-opacity: 1; fill: rgb(0, 0, 0); fill-opacity: 1;"/></g><g class="arrow-line"><path class="connection real" stroke-dasharray="2.25 3.685" d="  M309.2,183.87 L331.86,211.86" style="stroke: rgb(255, 142, 0); stroke-opacity: 1; stroke-width: 2; fill: none; fill-opacity: 1;"/></g><g class="composite-shape"><path class="real" d=" M327.73,211.86 C327.73,209.58 329.58,207.73 331.86,207.73 C334.15,207.73 336,209.58 336,211.86 C336,214.15 334.15,216 331.86,216 C329.58,216 327.73,214.15 327.73,211.86 Z" style="stroke-width: 1; stroke: none; stroke-opacity: 1; fill: rgb(0, 0, 0); fill-opacity: 1;"/></g><g class="arrow-line"><path class="connection real" stroke-dasharray="2.25 3.685" d="  M380.48,123.9 L395.86,147.86" style="stroke: rgb(255, 142, 0); stroke-opacity: 1; stroke-width: 2; fill: none; fill-opacity: 1;"/></g><g class="composite-shape"><path class="real" d=" M391.73,147.86 C391.73,145.58 393.58,143.73 395.86,143.73 C398.15,143.73 400,145.58 400,147.86 C400,150.15 398.15,152 395.86,152 C393.58,152 391.73,150.15 391.73,147.86 Z" style="stroke-width: 1; stroke: none; stroke-opacity: 1; fill: rgb(0, 0, 0); fill-opacity: 1;"/></g><g class="arrow-line"><path class="connection real" stroke-dasharray="" d="  M424,88 L240,240" style="stroke: rgb(0, 0, 0); stroke-width: 2; fill: none; fill-opacity: 1;"/></g><g class="arrow-line"><path class="connection real" stroke-dasharray="" d="  M396,192 C431.68,187.4 465.2,191.86 494.66,222.58" style="stroke: rgb(0, 0, 0); stroke-width: 1; fill: none; fill-opacity: 1;"/><g stroke="#000" transform="matrix(-0.681232114449672,-0.7320674874917127,0.7320674874917127,-0.681232114449672,496,224)" style="stroke: rgb(0, 0, 0); stroke-width: 1;"><path d=" M10.93,-3.29 Q4.96,-0.45 0,0 Q4.96,0.45 10.93,3.29"/></g></g><g class="arrow-line"><path class="connection real" stroke-dasharray="" d="  M388.17,135.88 C426.75,142.13 462.9,138.99 486.91,113.19" style="stroke: rgb(0, 0, 0); stroke-width: 1; fill: none; fill-opacity: 1;"/><g stroke="#000" transform="matrix(-0.665881666000834,0.7460573750616998,-0.7460573750616998,-0.665881666000834,488,112)" style="stroke: rgb(0, 0, 0); stroke-width: 1;"><path d=" M10.93,-3.29 Q4.96,-0.45 0,0 Q4.96,0.45 10.93,3.29"/></g></g><g/></g><g/><g/><g/></svg>
        <svg xmlns="http://www.w3.org/2000/svg" xmlns:xlink="http://www.w3.org/1999/xlink" width="660" height="300" style="width:660px;height:300px;font-family:Asana-Math, Asana;background:#FFF;"><g><g><g><g transform="matrix(1,0,0,1,273.66668701171875,35)"><path transform="matrix(0.018,0,0,-0.018,0,0)" d="M91 47C91 29 92 0 137 0L550 0C572 0 595 6 595 44L595 65C595 89 587 110 553 111L233 107L233 310L505 310C518 310 550 311 550 357C550 404 522 405 498 405L233 405L233 590C477 587 507 586 538 586C576 586 580 613 580 630L580 646C580 665 578 691 535 691L137 691C108 691 91 682 91 644ZM702 43C702 24 706 0 747 0L790 0C807 0 808 1 818 6C834 19 836 22 836 50L836 225C836 238 836 250 839 263C849 308 887 343 930 358C963 369 981 364 993 373C997 379 998 380 998 391L998 447C998 461 996 469 978 469L977 469C959 469 884 462 831 388C830 438 830 439 821 450C810 461 806 463 781 463L748 463C727 463 702 461 702 418ZM1074 43C1074 24 1078 0 1119 0L1162 0C1179 0 1180 1 1190 6C1206 19 1208 22 1208 50L1208 225C1208 238 1208 250 1211 263C1221 308 1259 343 1302 358C1335 369 1353 364 1365 373C1369 379 1370 380 1370 391L1370 447C1370 461 1368 469 1350 469L1349 469C1331 469 1256 462 1203 388C1202 438 1202 439 1193 450C1182 461 1178 463 1153 463L1120 463C1099 463 1074 461 1074 418ZM1416 224C1416 36 1532 -11 1661 -11C1784 -11 1904 35 1904 220C1904 465 1742 475 1645 475C1532 475 1416 424 1416 224ZM1553 214L1553 241C1553 310 1551 402 1659 402C1766 402 1766 313 1767 255L1767 228C1766 161 1769 67 1660 67C1556 67 1555 155 1553 214ZM1965 43C1965 24 1969 0 2010 0L2053 0C2070 0 2071 1 2081 6C2097 19 2099 22 2099 50L2099 225C2099 238 2099 250 2102 263C2112 308 2150 343 2193 358C2226 369 2244 364 2256 373C2260 379 2261 380 2261 391L2261 447C2261 461 2259 469 2241 469L2240 469C2222 469 2147 462 2094 388C2093 438 2093 439 2084 450C2073 461 2069 463 2044 463L2011 463C1990 463 1965 461 1965 418ZM2671 667C2671 661 2673 655 2675 649L2894 60C2905 31 2910 0 2965 0L3056 0C3105 0 3113 27 3124 58L3344 649C3346 655 3348 661 3348 667C3348 676 3344 694 3314 694L3272 694C3223 694 3216 672 3201 632C3138 463 3025 159 3016 125L2829 634C2818 664 2811 694 2761 694L2706 694C2675 694 2671 675 2671 667ZM3376 233C3376 74 3463 -11 3630 -11C3699 -11 3761 9 3803 33C3815 40 3819 44 3819 55C3819 55 3819 114 3808 125L3803 127L3799 127C3779 121 3732 62 3632 62C3530 62 3507 136 3505 214L3781 214C3799 214 3825 216 3825 257C3825 364 3783 475 3616 475C3472 475 3376 401 3376 233ZM3506 279C3512 341 3536 402 3616 402C3694 402 3710 346 3713 279ZM3893 228C3893 52 3992 -11 4131 -11C4197 -11 4249 4 4293 27C4304 33 4313 37 4313 52L4313 60C4307 126 4308 125 4300 130L4295 131C4274 128 4238 67 4134 67C4033 67 4030 160 4030 223L4030 242C4030 296 4031 393 4127 397C4142 397 4175 398 4204 388C4247 373 4267 340 4283 340C4302 340 4307 418 4307 418C4307 426 4305 430 4299 434C4242 465 4202 475 4137 475C4007 475 3893 425 3893 228ZM4367 422C4367 411 4371 385 4411 385L4432 385L4432 152C4432 121 4432 91 4441 61C4458 6 4496 -11 4536 -11C4610 -11 4718 21 4718 47C4718 47 4710 102 4695 102C4682 102 4652 67 4605 67C4577 67 4563 85 4563 159C4563 168 4564 176 4564 185L4564 385L4657 385C4695 386 4700 411 4700 421C4700 430 4695 458 4655 458L4564 458L4564 544C4564 568 4554 589 4519 589L4483 589C4466 589 4435 588 4435 544L4435 458L4411 458C4371 458 4367 433 4367 422ZM4780 224C4780 36 4896 -11 5025 -11C5148 -11 5268 35 5268 220C5268 465 5106 475 5009 475C4896 475 4780 424 4780 224ZM4917 214L4917 241C4917 310 4915 402 5023 402C5130 402 5130 313 5131 255L5131 228C5130 161 5133 67 5024 67C4920 67 4919 155 4917 214ZM5329 43C5329 24 5333 0 5374 0L5417 0C5434 0 5435 1 5445 6C5461 19 5463 22 5463 50L5463 225C5463 238 5463 250 5466 263C5476 308 5514 343 5557 358C5590 369 5608 364 5620 373C5624 379 5625 380 5625 391L5625 447C5625 461 5623 469 5605 469L5604 469C5586 469 5511 462 5458 388C5457 438 5457 439 5448 450C5437 461 5433 463 5408 463L5375 463C5354 463 5329 461 5329 418ZM5672 50C5672 47 5673 45 5674 42L5678 37C5703 21 5768 -11 5857 -11C5956 -11 6037 19 6037 140C6037 221 5977 261 5949 275C5887 307 5776 295 5776 354C5776 392 5809 402 5850 402C5947 402 5974 348 5995 348C6000 348 6004 352 6007 363C6013 397 6017 415 6017 426C6017 440 6011 443 5993 450C5956 465 5918 474 5871 475L5845 475C5761 473 5677 446 5677 331C5677 250 5744 210 5781 196C5838 175 5937 183 5937 121C5937 79 5904 68 5859 68C5752 68 5716 143 5698 143C5686 143 5685 127 5684 120C5676 76 5672 59 5672 50Z" stroke="rgb(0,0,0)" stroke-opacity="1" stroke-width="8" fill="rgb(0,0,0)" fill-opacity="1"></path></g></g></g></g><g><g><g><g transform="matrix(1,0,0,1,457.66668701171875,240.81668701171876)"><path transform="matrix(0.012150000000000001,0,0,-0.012150000000000001,0,0)" d="M41 514L84 459C88 461 100 613 222 613C308 613 366 545 366 461C366 354 275 283 179 194L49 65L49 0L449 0L449 71L121 70C201 146 249 192 282 221C386 313 449 367 449 464C449 577 368 678 235 678C119 678 66 598 41 514ZM510 193L776 193L776 252L510 252ZM868 221C868 102 938 -11 1040 -11C1106 -11 1154 19 1188 52L1188 0L1267 0L1267 722L1191 722L1191 401C1156 429 1109 456 1046 456C947 456 868 353 868 221ZM946 222C946 353 1033 394 1091 394L1093 394C1104 394 1136 393 1167 364C1185 347 1188 341 1188 325L1188 134C1188 103 1141 51 1081 51C1027 51 946 90 946 222ZM1727 47C1790 7 1864 -22 1956 -22C2093 -22 2182 81 2182 189C2182 289 2112 355 2048 382C2012 397 1927 412 1898 424C1854 442 1818 482 1818 531C1818 590 1872 649 1963 649C2045 649 2087 621 2133 585L2147 668C2095 696 2045 716 1964 716C1823 716 1738 616 1738 519C1738 415 1821 351 1892 332C1979 309 1992 308 2016 299C2067 278 2102 232 2102 179C2102 114 2047 47 1956 47C1857 47 1790 92 1742 130ZM2319 -195L2397 -195L2397 46C2430 15 2473 -11 2532 -11C2629 -11 2718 83 2718 224C2718 343 2655 455 2560 455C2526 455 2458 448 2394 396L2394 445L2319 445ZM2397 126L2397 334C2403 341 2437 391 2503 391C2585 391 2639 310 2639 222C2639 116 2564 50 2494 50C2435 50 2397 102 2397 126ZM2799 113C2799 67 2829 -11 2913 -11C3023 -11 3078 34 3079 35L3079 0L3155 0L3155 305C3150 389 3084 461 2989 461C2926 461 2880 445 2832 417L2838 350C2871 373 2913 401 2988 401C3001 401 3027 400 3051 371C3076 341 3076 307 3077 279L3077 245C2974 244 2799 219 2799 113ZM2872 114C2872 177 3005 192 3077 193L3077 130C3077 65 3008 51 2965 51C2911 51 2872 78 2872 114ZM3270 223C3270 95 3364 -11 3487 -11C3556 -11 3605 11 3650 40L3645 107C3613 85 3566 53 3488 53C3404 53 3348 126 3348 223C3348 310 3392 397 3489 397C3568 397 3594 376 3633 351L3645 417C3584 452 3552 461 3490 461C3350 461 3270 339 3270 223ZM3713 226C3713 102 3800 -11 3931 -11C3994 -11 4046 11 4089 40L4083 106C4039 74 3994 51 3931 51C3855 51 3787 117 3783 220L4093 220L4093 249C4084 420 3986 461 3915 461C3809 461 3713 360 3713 226ZM3788 275C3799 324 3839 399 3915 399C3944 399 4019 386 4036 275ZM4470 445L4608 0L4687 0C4726 129 4790 331 4793 394C4803 320 4811 293 4900 0L4987 0L5125 445L5052 445C4969 174 4945 89 4941 50C4937 81 4932 96 4903 201L4830 445L4759 445C4725 335 4656 113 4653 50C4648 88 4644 129 4545 445ZM5219 0L5297 0L5297 240C5297 314 5322 394 5399 394C5497 394 5497 319 5497 281L5497 0L5575 0L5575 288C5575 349 5571 455 5438 455C5369 455 5326 422 5294 384L5294 722L5219 722ZM5690 226C5690 102 5777 -11 5908 -11C5971 -11 6023 11 6066 40L6060 106C6016 74 5971 51 5908 51C5832 51 5764 117 5760 220L6070 220L6070 249C6061 420 5963 461 5892 461C5786 461 5690 360 5690 226ZM5765 275C5776 324 5816 399 5892 399C5921 399 5996 386 6013 275ZM6181 0L6256 0L6256 206C6256 352 6367 386 6426 388L6426 455C6320 453 6267 385 6251 360L6251 450L6181 450ZM6476 226C6476 102 6563 -11 6694 -11C6757 -11 6809 11 6852 40L6846 106C6802 74 6757 51 6694 51C6618 51 6550 117 6546 220L6856 220L6856 249C6847 420 6749 461 6678 461C6572 461 6476 360 6476 226ZM6551 275C6562 324 6602 399 6678 399C6707 399 6782 386 6799 275ZM7263 113C7263 67 7293 -11 7377 -11C7487 -11 7542 34 7543 35L7543 0L7619 0L7619 305C7614 389 7548 461 7453 461C7390 461 7344 445 7296 417L7302 350C7335 373 7377 401 7452 401C7465 401 7491 400 7515 371C7540 341 7540 307 7541 279L7541 245C7438 244 7263 219 7263 113ZM7336 114C7336 177 7469 192 7541 193L7541 130C7541 65 7472 51 7429 51C7375 51 7336 78 7336 114ZM7780 0L7855 0L7855 722L7780 722ZM8019 0L8094 0L8094 722L8019 722Z" stroke="rgb(0,0,0)" stroke-opacity="1" stroke-width="8" fill="rgb(0,0,0)" fill-opacity="1"></path></g></g></g><g><g><g transform="matrix(1,0,0,1,463.03125,259.7125)"><path transform="matrix(0.012150000000000001,0,0,-0.012150000000000001,0,0)" d="M18 386L102 386L102 117C102 7 151 -11 184 -11C229 -11 280 -1 332 27L316 86C302 76 271 53 228 53C176 53 174 112 174 140L174 386L315 386L315 445L174 445L174 571L104 571L104 445L18 445ZM441 0L519 0L519 240C519 314 544 394 621 394C719 394 719 319 719 281L719 0L797 0L797 288C797 349 793 455 660 455C591 455 548 422 516 384L516 722L441 722ZM912 226C912 102 999 -11 1130 -11C1193 -11 1245 11 1288 40L1282 106C1238 74 1193 51 1130 51C1054 51 986 117 982 220L1292 220L1292 249C1283 420 1185 461 1114 461C1008 461 912 360 912 226ZM987 275C998 324 1038 399 1114 399C1143 399 1218 386 1235 275ZM1690 221C1690 102 1760 -11 1862 -11C1928 -11 1976 19 2010 52L2010 0L2089 0L2089 722L2013 722L2013 401C1978 429 1931 456 1868 456C1769 456 1690 353 1690 221ZM1768 222C1768 353 1855 394 1913 394L1915 394C1926 394 1958 393 1989 364C2007 347 2010 341 2010 325L2010 134C2010 103 1963 51 1903 51C1849 51 1768 90 1768 222ZM2216 113C2216 67 2246 -11 2330 -11C2440 -11 2495 34 2496 35L2496 0L2572 0L2572 305C2567 389 2501 461 2406 461C2343 461 2297 445 2249 417L2255 350C2288 373 2330 401 2405 401C2418 401 2444 400 2468 371C2493 341 2493 307 2494 279L2494 245C2391 244 2216 219 2216 113ZM2289 114C2289 177 2422 192 2494 193L2494 130C2494 65 2425 51 2382 51C2328 51 2289 78 2289 114ZM2670 386L2754 386L2754 117C2754 7 2803 -11 2836 -11C2881 -11 2932 -1 2984 27L2968 86C2954 76 2923 53 2880 53C2828 53 2826 112 2826 140L2826 386L2967 386L2967 445L2826 445L2826 571L2756 571L2756 445L2670 445ZM3057 113C3057 67 3087 -11 3171 -11C3281 -11 3336 34 3337 35L3337 0L3413 0L3413 305C3408 389 3342 461 3247 461C3184 461 3138 445 3090 417L3096 350C3129 373 3171 401 3246 401C3259 401 3285 400 3309 371C3334 341 3334 307 3335 279L3335 245C3232 244 3057 219 3057 113ZM3130 114C3130 177 3263 192 3335 193L3335 130C3335 65 3266 51 3223 51C3169 51 3130 78 3130 114ZM3574 -195L3652 -195L3652 46C3685 15 3728 -11 3787 -11C3884 -11 3973 83 3973 224C3973 343 3910 455 3815 455C3781 455 3713 448 3649 396L3649 445L3574 445ZM3652 126L3652 334C3658 341 3692 391 3758 391C3840 391 3894 310 3894 222C3894 116 3819 50 3749 50C3690 50 3652 102 3652 126ZM4068 221C4068 85 4173 -11 4287 -11C4401 -11 4507 84 4507 220C4507 345 4415 461 4287 461C4169 461 4068 357 4068 221ZM4146 231C4146 352 4223 399 4287 399C4351 399 4428 353 4428 231C4428 106 4354 53 4287 53C4221 53 4146 105 4146 231ZM4619 0L4694 0L4694 445L4619 445ZM4612 590L4702 590L4702 679L4612 679ZM4857 0L4935 0L4935 240C4935 314 4960 394 5037 394C5135 394 5135 319 5135 281L5135 0L5213 0L5213 288C5213 358 5204 455 5076 455C4988 455 4944 398 4930 380L4930 450L4857 450ZM5312 386L5396 386L5396 117C5396 7 5445 -11 5478 -11C5523 -11 5574 -1 5626 27L5610 86C5596 76 5565 53 5522 53C5470 53 5468 112 5468 140L5468 386L5609 386L5609 445L5468 445L5468 571L5398 571L5398 445L5312 445ZM5682 34C5757 -7 5818 -11 5852 -11C5986 -11 6015 72 6015 127C6015 192 5969 234 5928 252C5866 280 5759 267 5759 340C5759 365 5774 401 5843 401C5915 401 5947 383 5987 364L5998 430C5943 453 5908 461 5852 461C5716 461 5688 382 5688 329C5688 259 5748 220 5792 206C5823 196 5866 191 5888 184C5908 178 5944 158 5944 120C5944 93 5926 52 5851 52C5770 52 5722 86 5694 102ZM6452 0L6527 0L6527 722L6452 722ZM6691 0L6766 0L6766 445L6691 445ZM6684 590L6774 590L6774 679L6684 679ZM6883 226C6883 102 6970 -11 7101 -11C7164 -11 7216 11 7259 40L7253 106C7209 74 7164 51 7101 51C7025 51 6957 117 6953 220L7263 220L7263 249C7254 420 7156 461 7085 461C6979 461 6883 360 6883 226ZM6958 275C6969 324 7009 399 7085 399C7114 399 7189 386 7206 275Z" stroke="rgb(0,0,0)" stroke-opacity="1" stroke-width="8" fill="rgb(0,0,0)" fill-opacity="1"></path></g></g></g></g><g><g><g><g transform="matrix(1,0,0,1,473.66668701171875,101.8166717529297)"><path transform="matrix(0.012150000000000001,0,0,-0.012150000000000001,0,0)" d="M34 226C34 102 121 -11 252 -11C315 -11 367 11 410 40L404 106C360 74 315 51 252 51C176 51 108 117 104 220L414 220L414 249C405 420 307 461 236 461C130 461 34 360 34 226ZM109 275C120 324 160 399 236 399C265 399 340 386 357 275ZM525 0L600 0L600 206C600 352 711 386 770 388L770 455C664 453 611 385 595 360L595 450L525 450ZM867 0L942 0L942 206C942 352 1053 386 1112 388L1112 455C1006 453 953 385 937 360L937 450L867 450ZM1158 221C1158 85 1263 -11 1377 -11C1491 -11 1597 84 1597 220C1597 345 1505 461 1377 461C1259 461 1158 357 1158 221ZM1236 231C1236 352 1313 399 1377 399C1441 399 1518 353 1518 231C1518 106 1444 53 1377 53C1311 53 1236 105 1236 231ZM1681 0L1756 0L1756 206C1756 352 1867 386 1926 388L1926 455C1820 453 1767 385 1751 360L1751 450L1681 450ZM2289 445L2461 0L2549 0L2721 445L2647 445C2550 193 2513 90 2507 50C2502 81 2496 97 2459 201L2366 445ZM2770 226C2770 102 2857 -11 2988 -11C3051 -11 3103 11 3146 40L3140 106C3096 74 3051 51 2988 51C2912 51 2844 117 2840 220L3150 220L3150 249C3141 420 3043 461 2972 461C2866 461 2770 360 2770 226ZM2845 275C2856 324 2896 399 2972 399C3001 399 3076 386 3093 275ZM3215 223C3215 95 3309 -11 3432 -11C3501 -11 3550 11 3595 40L3590 107C3558 85 3511 53 3433 53C3349 53 3293 126 3293 223C3293 310 3337 397 3434 397C3513 397 3539 376 3578 351L3590 417C3529 452 3497 461 3435 461C3295 461 3215 339 3215 223ZM3642 386L3726 386L3726 117C3726 7 3775 -11 3808 -11C3853 -11 3904 -1 3956 27L3940 86C3926 76 3895 53 3852 53C3800 53 3798 112 3798 140L3798 386L3939 386L3939 445L3798 445L3798 571L3728 571L3728 445L3642 445ZM4015 221C4015 85 4120 -11 4234 -11C4348 -11 4454 84 4454 220C4454 345 4362 461 4234 461C4116 461 4015 357 4015 221ZM4093 231C4093 352 4170 399 4234 399C4298 399 4375 353 4375 231C4375 106 4301 53 4234 53C4168 53 4093 105 4093 231ZM4538 0L4613 0L4613 206C4613 352 4724 386 4783 388L4783 455C4677 453 4624 385 4608 360L4608 450L4538 450ZM4826 34C4901 -7 4962 -11 4996 -11C5130 -11 5159 72 5159 127C5159 192 5113 234 5072 252C5010 280 4903 267 4903 340C4903 365 4918 401 4987 401C5059 401 5091 383 5131 364L5142 430C5087 453 5052 461 4996 461C4860 461 4832 382 4832 329C4832 259 4892 220 4936 206C4967 196 5010 191 5032 184C5052 178 5088 158 5088 120C5088 93 5070 52 4995 52C4914 52 4866 86 4838 102Z" stroke="rgb(0,0,0)" stroke-opacity="1" stroke-width="8" fill="rgb(0,0,0)" fill-opacity="1"></path></g></g></g></g></svg>
</svg>
