<svg xmlns="http://www.w3.org/2000/svg" xmlns:xlink="http://www.w3.org/1999/xlink" x="0" y="0" width="661.3333740234375" height="301.3333435058594" style="
        width:661.3333740234375px;
        height:301.3333435058594px;
        background: #FFF;
        fill: none;
">
        
        
        <svg xmlns="http://www.w3.org/2000/svg" class="role-diagram-draw-area"><g class="shapes-region" style="stroke: black; fill: none;"><g class="composite-shape"><path class="real" d=" M280,168 C280,141.49 301.49,120 328,120 C354.51,120 376,141.49 376,168 C376,194.51 354.51,216 328,216 C301.49,216 280,194.51 280,168 Z" style="stroke-width: 1; stroke: rgb(0, 0, 0); fill: none; fill-opacity: 1; stroke-dasharray: 6, 6;"/></g><g class="arrow-line"><path class="connection real" stroke-dasharray="" d="  M328,56 L328,280" style="stroke: rgb(0, 0, 0); stroke-width: 1; fill: none; fill-opacity: 1;"/></g><g class="arrow-line"><path class="connection real" stroke-dasharray="" d="  M440,168 L216,168" style="stroke: rgb(0, 0, 0); stroke-width: 1; fill: none; fill-opacity: 1;"/></g><g class="arrow-line"><path class="connection real" stroke-dasharray="" d="  M456,116 L200,220" style="stroke: rgb(0, 0, 0); stroke-width: 2; fill: none; fill-opacity: 1;"/></g><g class="composite-shape"><path class="real" d=" M376,171.86 C376,169.58 377.85,167.73 380.14,167.73 C382.42,167.73 384.27,169.58 384.27,171.86 C384.27,174.15 382.42,176 380.14,176 C377.85,176 376,174.15 376,171.86 Z" style="stroke-width: 1; stroke: none; stroke-opacity: 1; fill: rgb(0, 0, 0); fill-opacity: 1;"/></g><g class="arrow-line"><path class="connection real" stroke-dasharray="7.5 6" d="  M387.67,99.73 L403.49,137.14" style="stroke: rgb(255, 142, 0); stroke-opacity: 1; stroke-width: 2; fill: none; fill-opacity: 1;"/></g><g class="arrow-line"><path class="connection real" stroke-dasharray="7.5 6" d="  M256.27,197.23 L279.73,251.86" style="stroke: rgb(255, 142, 0); stroke-opacity: 1; stroke-width: 2; fill: none; fill-opacity: 1;"/></g><g class="composite-shape"><path class="real" d=" M275.59,251.86 C275.59,249.58 277.44,247.73 279.73,247.73 C282.01,247.73 283.86,249.58 283.86,251.86 C283.86,254.15 282.01,256 279.73,256 C277.44,256 275.59,254.15 275.59,251.86 Z" style="stroke-width: 1; stroke: none; stroke-opacity: 1; fill: rgb(0, 0, 0); fill-opacity: 1;"/></g><g class="composite-shape"><path class="real" d=" M384,100.14 C384,97.85 385.85,96 388.14,96 C390.42,96 392.27,97.85 392.27,100.14 C392.27,102.42 390.42,104.27 388.14,104.27 C385.85,104.27 384,102.42 384,100.14 Z" style="stroke-width: 1; stroke: none; stroke-opacity: 1; fill: rgb(0, 0, 0); fill-opacity: 1;"/></g><g class="arrow-line"><path class="connection real" stroke-dasharray="7.5 6" d="  M312.18,130.59 L328,168" style="stroke: rgb(255, 142, 0); stroke-opacity: 1; stroke-width: 2; fill: none; fill-opacity: 1;"/></g><g class="arrow-line"><path class="connection real" stroke-dasharray="" d="  M400,112 C439.62,86.83 464.15,96.8 498.43,111.33" style="stroke: rgb(0, 0, 0); stroke-width: 1; fill: none; fill-opacity: 1;"/><g stroke="#000" transform="matrix(-0.9206411882629519,-0.3904097878816307,0.3904097878816307,-0.9206411882629519,500,112)" style="stroke: rgb(0, 0, 0); stroke-width: 1;"><path d=" M10.93,-3.29 Q4.96,-0.45 0,0 Q4.96,0.45 10.93,3.29"/></g></g><g class="arrow-line"><path class="connection real" stroke-dasharray="" d="  M260,216 C216.66,246.58 196.62,257.99 153.32,232.78" style="stroke: rgb(0, 0, 0); stroke-width: 1; fill: none; fill-opacity: 1;"/><g stroke="#000" transform="matrix(0.8601194733646801,0.5100926303514542,-0.5100926303514542,0.8601194733646801,152,232)" style="stroke: rgb(0, 0, 0); stroke-width: 1;"><path d=" M10.93,-3.29 Q4.96,-0.45 0,0 Q4.96,0.45 10.93,3.29"/></g></g><g class="arrow-line"><path class="connection real" stroke-dasharray="7.5 6" d="  M328,168 L351.46,222.64" style="stroke: rgb(255, 142, 0); stroke-opacity: 1; stroke-width: 2; fill: none; fill-opacity: 1;"/></g><g class="arrow-line"><path class="connection real" stroke-dasharray="" d="  M328,168 L346.35,209.7" style="stroke: rgb(74, 144, 226); stroke-opacity: 1; stroke-width: 2; fill: none; fill-opacity: 1;"/><g stroke="rgb(74,144,226)" stroke-opacity="1" transform="matrix(-0.40274668985873735,-0.9153114791194471,0.9153114791194471,-0.40274668985873735,347.5555419921875,212.4444427490235)" style="stroke: rgb(74, 144, 226); stroke-width: 2;"><path d=" M14.21,-4.28 Q6.45,-0.59 0,0 Q6.45,0.59 14.21,4.28"/></g></g><g class="arrow-line"><path class="connection real" stroke-dasharray="" d="  M350.89,223.11 C388.61,203.5 412.12,226.95 415.72,246.23" style="stroke: rgb(0, 0, 0); stroke-width: 1; fill: none; fill-opacity: 1;"/><g stroke="#000" transform="matrix(-0.124121043561393,-0.9922670842798479,0.9922670842798479,-0.124121043561393,416,247.99999999999994)" style="stroke: rgb(0, 0, 0); stroke-width: 1;"><path d=" M10.93,-3.29 Q4.96,-0.45 0,0 Q4.96,0.45 10.93,3.29"/></g></g><g class="composite-shape"><path class="real" d=" M347.32,222.64 C347.32,220.35 349.17,218.5 351.46,218.5 C353.74,218.5 355.59,220.35 355.59,222.64 C355.59,224.92 353.74,226.77 351.46,226.77 C349.17,226.77 347.32,224.92 347.32,222.64 Z" style="stroke-width: 1; stroke: none; stroke-opacity: 1; fill: rgb(255, 142, 0); fill-opacity: 1;"/></g><g class="arrow-line"><path class="connection real" stroke-dasharray="" d="  M312.18,130.59 C294.21,130.24 267.5,115.32 264.26,97.9" style="stroke: rgb(0, 0, 0); stroke-width: 1; fill: none; fill-opacity: 1;"/><g stroke="#000" transform="matrix(0.08506912782242838,0.9963750516203882,-0.9963750516203882,0.08506912782242838,264,96)" style="stroke: rgb(0, 0, 0); stroke-width: 1;"><path d=" M10.93,-3.29 Q4.96,-0.45 0,0 Q4.96,0.45 10.93,3.29"/></g></g><g class="composite-shape"><path class="real" d=" M308.04,130.59 C308.04,128.3 309.9,126.45 312.18,126.45 C314.47,126.45 316.32,128.3 316.32,130.59 C316.32,132.87 314.47,134.72 312.18,134.72 C309.9,134.72 308.04,132.87 308.04,130.59 Z" style="stroke-width: 1; stroke: none; stroke-opacity: 1; fill: rgb(255, 142, 0); fill-opacity: 1;"/></g><g class="arrow-line"><path class="connection real" stroke-dasharray="" d="  M328,168 L370.33,150.9" style="stroke: rgb(74, 144, 226); stroke-opacity: 1; stroke-width: 2; fill: none; fill-opacity: 1;"/><g stroke="rgb(74,144,226)" stroke-opacity="1" transform="matrix(-0.9271838545667869,0.3746065934159133,-0.3746065934159133,-0.9271838545667869,373.111104329427,149.77777783075967)" style="stroke: rgb(74, 144, 226); stroke-width: 2;"><path d=" M14.21,-4.28 Q6.45,-0.59 0,0 Q6.45,0.59 14.21,4.28"/></g></g><g/></g><g/><g/><g/></svg>
        <svg xmlns="http://www.w3.org/2000/svg" xmlns:xlink="http://www.w3.org/1999/xlink" width="660" height="300" style="width:660px;height:300px;font-family:Asana-Math, Asana;background:#FFF;"><g><g><g><g transform="matrix(1,0,0,1,273.66668701171875,35)"><path transform="matrix(0.018,0,0,-0.018,0,0)" d="M91 47C91 29 92 0 137 0L550 0C572 0 595 6 595 44L595 65C595 89 587 110 553 111L233 107L233 310L505 310C518 310 550 311 550 357C550 404 522 405 498 405L233 405L233 590C477 587 507 586 538 586C576 586 580 613 580 630L580 646C580 665 578 691 535 691L137 691C108 691 91 682 91 644ZM702 43C702 24 706 0 747 0L790 0C807 0 808 1 818 6C834 19 836 22 836 50L836 225C836 238 836 250 839 263C849 308 887 343 930 358C963 369 981 364 993 373C997 379 998 380 998 391L998 447C998 461 996 469 978 469L977 469C959 469 884 462 831 388C830 438 830 439 821 450C810 461 806 463 781 463L748 463C727 463 702 461 702 418ZM1074 43C1074 24 1078 0 1119 0L1162 0C1179 0 1180 1 1190 6C1206 19 1208 22 1208 50L1208 225C1208 238 1208 250 1211 263C1221 308 1259 343 1302 358C1335 369 1353 364 1365 373C1369 379 1370 380 1370 391L1370 447C1370 461 1368 469 1350 469L1349 469C1331 469 1256 462 1203 388C1202 438 1202 439 1193 450C1182 461 1178 463 1153 463L1120 463C1099 463 1074 461 1074 418ZM1416 224C1416 36 1532 -11 1661 -11C1784 -11 1904 35 1904 220C1904 465 1742 475 1645 475C1532 475 1416 424 1416 224ZM1553 214L1553 241C1553 310 1551 402 1659 402C1766 402 1766 313 1767 255L1767 228C1766 161 1769 67 1660 67C1556 67 1555 155 1553 214ZM1965 43C1965 24 1969 0 2010 0L2053 0C2070 0 2071 1 2081 6C2097 19 2099 22 2099 50L2099 225C2099 238 2099 250 2102 263C2112 308 2150 343 2193 358C2226 369 2244 364 2256 373C2260 379 2261 380 2261 391L2261 447C2261 461 2259 469 2241 469L2240 469C2222 469 2147 462 2094 388C2093 438 2093 439 2084 450C2073 461 2069 463 2044 463L2011 463C1990 463 1965 461 1965 418ZM2671 667C2671 661 2673 655 2675 649L2894 60C2905 31 2910 0 2965 0L3056 0C3105 0 3113 27 3124 58L3344 649C3346 655 3348 661 3348 667C3348 676 3344 694 3314 694L3272 694C3223 694 3216 672 3201 632C3138 463 3025 159 3016 125L2829 634C2818 664 2811 694 2761 694L2706 694C2675 694 2671 675 2671 667ZM3376 233C3376 74 3463 -11 3630 -11C3699 -11 3761 9 3803 33C3815 40 3819 44 3819 55C3819 55 3819 114 3808 125L3803 127L3799 127C3779 121 3732 62 3632 62C3530 62 3507 136 3505 214L3781 214C3799 214 3825 216 3825 257C3825 364 3783 475 3616 475C3472 475 3376 401 3376 233ZM3506 279C3512 341 3536 402 3616 402C3694 402 3710 346 3713 279ZM3893 228C3893 52 3992 -11 4131 -11C4197 -11 4249 4 4293 27C4304 33 4313 37 4313 52L4313 60C4307 126 4308 125 4300 130L4295 131C4274 128 4238 67 4134 67C4033 67 4030 160 4030 223L4030 242C4030 296 4031 393 4127 397C4142 397 4175 398 4204 388C4247 373 4267 340 4283 340C4302 340 4307 418 4307 418C4307 426 4305 430 4299 434C4242 465 4202 475 4137 475C4007 475 3893 425 3893 228ZM4367 422C4367 411 4371 385 4411 385L4432 385L4432 152C4432 121 4432 91 4441 61C4458 6 4496 -11 4536 -11C4610 -11 4718 21 4718 47C4718 47 4710 102 4695 102C4682 102 4652 67 4605 67C4577 67 4563 85 4563 159C4563 168 4564 176 4564 185L4564 385L4657 385C4695 386 4700 411 4700 421C4700 430 4695 458 4655 458L4564 458L4564 544C4564 568 4554 589 4519 589L4483 589C4466 589 4435 588 4435 544L4435 458L4411 458C4371 458 4367 433 4367 422ZM4780 224C4780 36 4896 -11 5025 -11C5148 -11 5268 35 5268 220C5268 465 5106 475 5009 475C4896 475 4780 424 4780 224ZM4917 214L4917 241C4917 310 4915 402 5023 402C5130 402 5130 313 5131 255L5131 228C5130 161 5133 67 5024 67C4920 67 4919 155 4917 214ZM5329 43C5329 24 5333 0 5374 0L5417 0C5434 0 5435 1 5445 6C5461 19 5463 22 5463 50L5463 225C5463 238 5463 250 5466 263C5476 308 5514 343 5557 358C5590 369 5608 364 5620 373C5624 379 5625 380 5625 391L5625 447C5625 461 5623 469 5605 469L5604 469C5586 469 5511 462 5458 388C5457 438 5457 439 5448 450C5437 461 5433 463 5408 463L5375 463C5354 463 5329 461 5329 418ZM5672 50C5672 47 5673 45 5674 42L5678 37C5703 21 5768 -11 5857 -11C5956 -11 6037 19 6037 140C6037 221 5977 261 5949 275C5887 307 5776 295 5776 354C5776 392 5809 402 5850 402C5947 402 5974 348 5995 348C6000 348 6004 352 6007 363C6013 397 6017 415 6017 426C6017 440 6011 443 5993 450C5956 465 5918 474 5871 475L5845 475C5761 473 5677 446 5677 331C5677 250 5744 210 5781 196C5838 175 5937 183 5937 121C5937 79 5904 68 5859 68C5752 68 5716 143 5698 143C5686 143 5685 127 5684 120C5676 76 5672 59 5672 50Z" stroke="rgb(0,0,0)" stroke-opacity="1" stroke-width="8" fill="rgb(0,0,0)" fill-opacity="1"></path></g></g></g></g><g><g><g><svg x="510.48956298828125" overflow="visible" y="106.85415649414062" height="19.98958396911621" width="5.9479169845581055"><path d=" M 4.39 1.19 c 0.00 -0.04 -0.03 -0.06 -0.06 -0.06 c -0.02 0.00 -0.04 0.01 -0.06 0.02 c -1.78 0.94 -3.25 2.61 -3.25 6.58 v 0.42 h 1.07 v -0.42 c 0.00 -2.26 0.45 -4.92 2.32 -6.34 c 0.09 -0.07 0.09 -0.13 0.09 -0.20 z   M 1.01 8.15 v 3.69 h 1.07 v -3.69 z" style="fill:rgb(0,0,0);fill-opacity:1;stroke-width:1px;stroke:none;stroke-opacity:1;"></path><path d=" M 4.39 18.80 c 0.00 0.04 -0.03 0.06 -0.06 0.06 c -0.02 0.00 -0.04 -0.01 -0.06 -0.02 c -1.78 -0.94 -3.25 -2.61 -3.25 -6.58 v -0.42 h 1.07 v 0.42 c 0.00 2.26 0.45 4.92 2.32 6.34 c 0.09 0.07 0.09 0.13 0.09 0.20 z" style="fill:rgb(0,0,0);fill-opacity:1;stroke-width:1px;stroke:none;stroke-opacity:1;"></path></svg></g><g><g transform="matrix(1,0,0,1,515.25,119.07709350585938)"><path transform="matrix(0.0119,0,0,-0.0119,0,0)" d="M9 1C24 -7 40 -11 52 -11C85 -11 124 18 155 65L231 182L242 113C255 28 278 -11 314 -11C336 -11 368 6 400 35L449 79L440 98C404 68 379 53 363 53C348 53 335 63 325 83C316 102 305 139 300 168L282 269L317 318C364 383 391 406 422 406C438 406 450 398 455 383L469 387L484 472C472 479 463 482 454 482C414 482 374 446 312 354L275 299L269 347C257 446 230 482 171 482C145 482 123 474 114 461L56 378L73 368C103 402 123 416 142 416C175 416 197 375 214 277L225 215L185 153C142 86 108 54 80 54C65 54 54 58 52 63L41 91L21 88C21 53 13 27 9 1Z" stroke="rgb(0,0,0)" stroke-opacity="1" stroke-width="8" fill="rgb(0,0,0)" fill-opacity="1"></path></g></g><g><g><g><g><g transform="matrix(1,0,0,1,521.8645629882812,114.54875)"><path transform="matrix(0.00833,0,0,-0.00833,0,0)" d="M390 646L463 646C541 646 577 641 580 629C583 621 585 602 584 592L580 528L608 528L635 692L544 691C456 690 388 689 353 689C316 689 252 690 166 691L71 692L53 528L82 528L97 588C102 610 109 626 115 633C121 640 159 646 196 646L308 646L222 125C206 34 204 31 164 28L113 25L109 -3L166 -2C206 -1 235 0 251 0C270 0 301 -1 340 -2L384 -3L387 25L328 28C302 29 292 37 292 58C292 67 293 74 296 93Z" stroke="rgb(0,0,0)" stroke-opacity="1" stroke-width="8" fill="rgb(0,0,0)" fill-opacity="1"></path></g></g></g></g><g><g><g><g transform="matrix(1,0,0,1,521.5416870117188,123.00709350585937)"><path transform="matrix(0.00833,0,0,-0.00833,0,0)" d="M418 -3L418 27L366 30C311 33 301 44 301 96L301 700L60 598L67 548L217 614L217 96C217 44 206 33 152 30L96 27L96 -3C250 0 250 0 261 0C292 0 402 -3 418 -3Z" stroke="rgb(0,0,0)" stroke-opacity="1" stroke-width="8" fill="rgb(0,0,0)" fill-opacity="1"></path></g></g></g></g></g><g><g transform="matrix(1,0,0,1,527.65625,119.07709350585938)"><path transform="matrix(0.0119,0,0,-0.0119,0,0)" d="M167 420C188 420 201 421 226 424C171 350 72 266 72 126C72 44 107 -11 160 -11C224 -11 276 44 350 187C341 143 338 118 338 95C338 32 367 -11 412 -11C546 -11 699 238 699 384C699 441 673 482 637 482C624 482 612 478 604 470L554 423L565 404C574 410 583 413 592 413C619 413 635 390 635 350C635 205 538 39 453 39C424 39 403 79 403 134C403 181 412 247 424 290L476 474L469 482L395 460L366 311C354 249 340 209 311 155C271 80 233 39 203 39C168 39 145 78 145 136C145 255 186 352 285 464L275 482C255 473 242 470 214 470C186 470 144 472 115 475L103 476C97 477 92 477 91 477C79 477 70 475 59 470C45 443 34 407 21 352L43 352L60 394C67 411 87 422 111 422C145 422 128 420 167 420Z" stroke="rgb(0,0,0)" stroke-opacity="1" stroke-width="8" fill="rgb(0,0,0)" fill-opacity="1"></path></g></g><g><g><g><g><g transform="matrix(1,0,0,1,536.5833129882812,121.84040649414062)"><path transform="matrix(0.00833,0,0,-0.00833,0,0)" d="M418 -3L418 27L366 30C311 33 301 44 301 96L301 700L60 598L67 548L217 614L217 96C217 44 206 33 152 30L96 27L96 -3C250 0 250 0 261 0C292 0 402 -3 418 -3Z" stroke="rgb(0,0,0)" stroke-opacity="1" stroke-width="8" fill="rgb(0,0,0)" fill-opacity="1"></path></g></g></g></g></g><g><svg x="540.2604370117188" overflow="visible" y="106.85415649414062" height="19.98958396911621" width="5.9479169845581055"><path d=" M 1.22 1.19 c 0.00 -0.04 0.03 -0.06 0.06 -0.06 c 0.02 0.00 0.04 0.01 0.06 0.02 c 1.78 0.94 3.25 2.61 3.25 6.58 v 0.42 h -1.07 v -0.42 c 0.00 -2.26 -0.45 -4.92 -2.32 -6.34 c -0.09 -0.07 -0.09 -0.13 -0.09 -0.20 z  M 4.61 8.15 v 3.69 h -1.07 v -3.69 z" style="fill:rgb(0,0,0);fill-opacity:1;stroke-width:1px;stroke:none;stroke-opacity:1;"></path><path d=" M 1.22 18.80 c 0.00 0.04 0.03 0.06 0.06 0.06 c 0.02 0.00 0.04 -0.01 0.06 -0.02 c 1.78 -0.94 3.25 -2.61 3.25 -6.58 v -0.42 h -1.07 v 0.42 c 0.00 2.26 -0.45 4.92 -2.32 6.34 c -0.09 0.07 -0.09 0.13 -0.09 0.20 z" style="fill:rgb(0,0,0);fill-opacity:1;stroke-width:1px;stroke:none;stroke-opacity:1;"></path></svg></g><g><g transform="matrix(1,0,0,1,547.03125,119.07709350585938)"><path transform="matrix(0.0119,0,0,-0.0119,0,0)" d="M167 420C188 420 201 421 226 424C171 350 72 266 72 126C72 44 107 -11 160 -11C224 -11 276 44 350 187C341 143 338 118 338 95C338 32 367 -11 412 -11C546 -11 699 238 699 384C699 441 673 482 637 482C624 482 612 478 604 470L554 423L565 404C574 410 583 413 592 413C619 413 635 390 635 350C635 205 538 39 453 39C424 39 403 79 403 134C403 181 412 247 424 290L476 474L469 482L395 460L366 311C354 249 340 209 311 155C271 80 233 39 203 39C168 39 145 78 145 136C145 255 186 352 285 464L275 482C255 473 242 470 214 470C186 470 144 472 115 475L103 476C97 477 92 477 91 477C79 477 70 475 59 470C45 443 34 407 21 352L43 352L60 394C67 411 87 422 111 422C145 422 128 420 167 420Z" stroke="rgb(0,0,0)" stroke-opacity="1" stroke-width="8" fill="rgb(0,0,0)" fill-opacity="1"></path></g></g><g><g><g><g><g transform="matrix(1,0,0,1,555.9583129882812,121.84040649414062)"><path transform="matrix(0.00833,0,0,-0.00833,0,0)" d="M418 -3L418 27L366 30C311 33 301 44 301 96L301 700L60 598L67 548L217 614L217 96C217 44 206 33 152 30L96 27L96 -3C250 0 250 0 261 0C292 0 402 -3 418 -3Z" stroke="rgb(0,0,0)" stroke-opacity="1" stroke-width="8" fill="rgb(0,0,0)" fill-opacity="1"></path></g></g></g></g></g></g></g><g><g><g><g transform="matrix(1,0,0,1,377.66668701171875,90.9)"><path transform="matrix(0.0119,0,0,-0.0119,0,0)" d="M9 1C24 -7 40 -11 52 -11C85 -11 124 18 155 65L231 182L242 113C255 28 278 -11 314 -11C336 -11 368 6 400 35L449 79L440 98C404 68 379 53 363 53C348 53 335 63 325 83C316 102 305 139 300 168L282 269L317 318C364 383 391 406 422 406C438 406 450 398 455 383L469 387L484 472C472 479 463 482 454 482C414 482 374 446 312 354L275 299L269 347C257 446 230 482 171 482C145 482 123 474 114 461L56 378L73 368C103 402 123 416 142 416C175 416 197 375 214 277L225 215L185 153C142 86 108 54 80 54C65 54 54 58 52 63L41 91L21 88C21 53 13 27 9 1Z" stroke="rgb(0,0,0)" stroke-opacity="1" stroke-width="8" fill="rgb(0,0,0)" fill-opacity="1"></path></g></g><g><g><g><g><g transform="matrix(1,0,0,1,383.95831298828125,93.66334350585937)"><path transform="matrix(0.00833,0,0,-0.00833,0,0)" d="M418 -3L418 27L366 30C311 33 301 44 301 96L301 700L60 598L67 548L217 614L217 96C217 44 206 33 152 30L96 27L96 -3C250 0 250 0 261 0C292 0 402 -3 418 -3Z" stroke="rgb(0,0,0)" stroke-opacity="1" stroke-width="8" fill="rgb(0,0,0)" fill-opacity="1"></path></g></g></g></g></g></g></g><g><g><g><g transform="matrix(1,0,0,1,297.66668701171875,258.9000305175781)"><path transform="matrix(0.0119,0,0,-0.0119,0,0)" d="M9 1C24 -7 40 -11 52 -11C85 -11 124 18 155 65L231 182L242 113C255 28 278 -11 314 -11C336 -11 368 6 400 35L449 79L440 98C404 68 379 53 363 53C348 53 335 63 325 83C316 102 305 139 300 168L282 269L317 318C364 383 391 406 422 406C438 406 450 398 455 383L469 387L484 472C472 479 463 482 454 482C414 482 374 446 312 354L275 299L269 347C257 446 230 482 171 482C145 482 123 474 114 461L56 378L73 368C103 402 123 416 142 416C175 416 197 375 214 277L225 215L185 153C142 86 108 54 80 54C65 54 54 58 52 63L41 91L21 88C21 53 13 27 9 1Z" stroke="rgb(0,0,0)" stroke-opacity="1" stroke-width="8" fill="rgb(0,0,0)" fill-opacity="1"></path></g></g><g><g><g><g><g transform="matrix(1,0,0,1,303.95831298828125,261.66334350585936)"><path transform="matrix(0.00833,0,0,-0.00833,0,0)" d="M16 23L16 -3C203 -3 203 0 239 0C275 0 275 -3 468 -3L468 82C353 77 307 81 122 77L304 270C401 373 431 428 431 503C431 618 353 689 226 689C154 689 105 669 56 619L39 483L68 483L81 529C97 587 133 612 200 612C286 612 341 558 341 473C341 398 299 324 186 204Z" stroke="rgb(0,0,0)" stroke-opacity="1" stroke-width="8" fill="rgb(0,0,0)" fill-opacity="1"></path></g></g></g></g></g></g></g><g><g><g><svg x="98.48956298828125" overflow="visible" y="216.85415649414062" height="19.98958396911621" width="5.9479169845581055"><path d=" M 4.39 1.19 c 0.00 -0.04 -0.03 -0.06 -0.06 -0.06 c -0.02 0.00 -0.04 0.01 -0.06 0.02 c -1.78 0.94 -3.25 2.61 -3.25 6.58 v 0.42 h 1.07 v -0.42 c 0.00 -2.26 0.45 -4.92 2.32 -6.34 c 0.09 -0.07 0.09 -0.13 0.09 -0.20 z   M 1.01 8.15 v 3.69 h 1.07 v -3.69 z" style="fill:rgb(0,0,0);fill-opacity:1;stroke-width:1px;stroke:none;stroke-opacity:1;"></path><path d=" M 4.39 18.80 c 0.00 0.04 -0.03 0.06 -0.06 0.06 c -0.02 0.00 -0.04 -0.01 -0.06 -0.02 c -1.78 -0.94 -3.25 -2.61 -3.25 -6.58 v -0.42 h 1.07 v 0.42 c 0.00 2.26 0.45 4.92 2.32 6.34 c 0.09 0.07 0.09 0.13 0.09 0.20 z" style="fill:rgb(0,0,0);fill-opacity:1;stroke-width:1px;stroke:none;stroke-opacity:1;"></path></svg></g><g><g transform="matrix(1,0,0,1,103.25,229.07709350585938)"><path transform="matrix(0.0119,0,0,-0.0119,0,0)" d="M9 1C24 -7 40 -11 52 -11C85 -11 124 18 155 65L231 182L242 113C255 28 278 -11 314 -11C336 -11 368 6 400 35L449 79L440 98C404 68 379 53 363 53C348 53 335 63 325 83C316 102 305 139 300 168L282 269L317 318C364 383 391 406 422 406C438 406 450 398 455 383L469 387L484 472C472 479 463 482 454 482C414 482 374 446 312 354L275 299L269 347C257 446 230 482 171 482C145 482 123 474 114 461L56 378L73 368C103 402 123 416 142 416C175 416 197 375 214 277L225 215L185 153C142 86 108 54 80 54C65 54 54 58 52 63L41 91L21 88C21 53 13 27 9 1Z" stroke="rgb(0,0,0)" stroke-opacity="1" stroke-width="8" fill="rgb(0,0,0)" fill-opacity="1"></path></g></g><g><g><g><g><g transform="matrix(1,0,0,1,109.86456298828125,224.54875)"><path transform="matrix(0.00833,0,0,-0.00833,0,0)" d="M390 646L463 646C541 646 577 641 580 629C583 621 585 602 584 592L580 528L608 528L635 692L544 691C456 690 388 689 353 689C316 689 252 690 166 691L71 692L53 528L82 528L97 588C102 610 109 626 115 633C121 640 159 646 196 646L308 646L222 125C206 34 204 31 164 28L113 25L109 -3L166 -2C206 -1 235 0 251 0C270 0 301 -1 340 -2L384 -3L387 25L328 28C302 29 292 37 292 58C292 67 293 74 296 93Z" stroke="rgb(0,0,0)" stroke-opacity="1" stroke-width="8" fill="rgb(0,0,0)" fill-opacity="1"></path></g></g></g></g><g><g><g><g transform="matrix(1,0,0,1,109.54168701171875,233.0070935058594)"><path transform="matrix(0.00833,0,0,-0.00833,0,0)" d="M16 23L16 -3C203 -3 203 0 239 0C275 0 275 -3 468 -3L468 82C353 77 307 81 122 77L304 270C401 373 431 428 431 503C431 618 353 689 226 689C154 689 105 669 56 619L39 483L68 483L81 529C97 587 133 612 200 612C286 612 341 558 341 473C341 398 299 324 186 204Z" stroke="rgb(0,0,0)" stroke-opacity="1" stroke-width="8" fill="rgb(0,0,0)" fill-opacity="1"></path></g></g></g></g></g><g><g transform="matrix(1,0,0,1,115.65625,229.07709350585938)"><path transform="matrix(0.0119,0,0,-0.0119,0,0)" d="M167 420C188 420 201 421 226 424C171 350 72 266 72 126C72 44 107 -11 160 -11C224 -11 276 44 350 187C341 143 338 118 338 95C338 32 367 -11 412 -11C546 -11 699 238 699 384C699 441 673 482 637 482C624 482 612 478 604 470L554 423L565 404C574 410 583 413 592 413C619 413 635 390 635 350C635 205 538 39 453 39C424 39 403 79 403 134C403 181 412 247 424 290L476 474L469 482L395 460L366 311C354 249 340 209 311 155C271 80 233 39 203 39C168 39 145 78 145 136C145 255 186 352 285 464L275 482C255 473 242 470 214 470C186 470 144 472 115 475L103 476C97 477 92 477 91 477C79 477 70 475 59 470C45 443 34 407 21 352L43 352L60 394C67 411 87 422 111 422C145 422 128 420 167 420Z" stroke="rgb(0,0,0)" stroke-opacity="1" stroke-width="8" fill="rgb(0,0,0)" fill-opacity="1"></path></g></g><g><g><g><g><g transform="matrix(1,0,0,1,124.58331298828125,231.84040649414064)"><path transform="matrix(0.00833,0,0,-0.00833,0,0)" d="M418 -3L418 27L366 30C311 33 301 44 301 96L301 700L60 598L67 548L217 614L217 96C217 44 206 33 152 30L96 27L96 -3C250 0 250 0 261 0C292 0 402 -3 418 -3Z" stroke="rgb(0,0,0)" stroke-opacity="1" stroke-width="8" fill="rgb(0,0,0)" fill-opacity="1"></path></g></g></g></g></g><g><svg x="128.26043701171875" overflow="visible" y="216.85415649414062" height="19.98958396911621" width="5.9479169845581055"><path d=" M 1.22 1.19 c 0.00 -0.04 0.03 -0.06 0.06 -0.06 c 0.02 0.00 0.04 0.01 0.06 0.02 c 1.78 0.94 3.25 2.61 3.25 6.58 v 0.42 h -1.07 v -0.42 c 0.00 -2.26 -0.45 -4.92 -2.32 -6.34 c -0.09 -0.07 -0.09 -0.13 -0.09 -0.20 z  M 4.61 8.15 v 3.69 h -1.07 v -3.69 z" style="fill:rgb(0,0,0);fill-opacity:1;stroke-width:1px;stroke:none;stroke-opacity:1;"></path><path d=" M 1.22 18.80 c 0.00 0.04 0.03 0.06 0.06 0.06 c 0.02 0.00 0.04 -0.01 0.06 -0.02 c 1.78 -0.94 3.25 -2.61 3.25 -6.58 v -0.42 h -1.07 v 0.42 c 0.00 2.26 -0.45 4.92 -2.32 6.34 c -0.09 0.07 -0.09 0.13 -0.09 0.20 z" style="fill:rgb(0,0,0);fill-opacity:1;stroke-width:1px;stroke:none;stroke-opacity:1;"></path></svg></g><g><g transform="matrix(1,0,0,1,135.03125,229.07709350585938)"><path transform="matrix(0.0119,0,0,-0.0119,0,0)" d="M167 420C188 420 201 421 226 424C171 350 72 266 72 126C72 44 107 -11 160 -11C224 -11 276 44 350 187C341 143 338 118 338 95C338 32 367 -11 412 -11C546 -11 699 238 699 384C699 441 673 482 637 482C624 482 612 478 604 470L554 423L565 404C574 410 583 413 592 413C619 413 635 390 635 350C635 205 538 39 453 39C424 39 403 79 403 134C403 181 412 247 424 290L476 474L469 482L395 460L366 311C354 249 340 209 311 155C271 80 233 39 203 39C168 39 145 78 145 136C145 255 186 352 285 464L275 482C255 473 242 470 214 470C186 470 144 472 115 475L103 476C97 477 92 477 91 477C79 477 70 475 59 470C45 443 34 407 21 352L43 352L60 394C67 411 87 422 111 422C145 422 128 420 167 420Z" stroke="rgb(0,0,0)" stroke-opacity="1" stroke-width="8" fill="rgb(0,0,0)" fill-opacity="1"></path></g></g><g><g><g><g><g transform="matrix(1,0,0,1,143.95831298828125,231.84040649414064)"><path transform="matrix(0.00833,0,0,-0.00833,0,0)" d="M418 -3L418 27L366 30C311 33 301 44 301 96L301 700L60 598L67 548L217 614L217 96C217 44 206 33 152 30L96 27L96 -3C250 0 250 0 261 0C292 0 402 -3 418 -3Z" stroke="rgb(0,0,0)" stroke-opacity="1" stroke-width="8" fill="rgb(0,0,0)" fill-opacity="1"></path></g></g></g></g></g></g></g><g><g><g><g transform="matrix(1,0,0,1,373.66668701171875,269.07709350585935)"><path transform="matrix(0.0119,0,0,-0.0119,0,0)" d="M9 1C24 -7 40 -11 52 -11C85 -11 124 18 155 65L231 182L242 113C255 28 278 -11 314 -11C336 -11 368 6 400 35L449 79L440 98C404 68 379 53 363 53C348 53 335 63 325 83C316 102 305 139 300 168L282 269L317 318C364 383 391 406 422 406C438 406 450 398 455 383L469 387L484 472C472 479 463 482 454 482C414 482 374 446 312 354L275 299L269 347C257 446 230 482 171 482C145 482 123 474 114 461L56 378L73 368C103 402 123 416 142 416C175 416 197 375 214 277L225 215L185 153C142 86 108 54 80 54C65 54 54 58 52 63L41 91L21 88C21 53 13 27 9 1Z" stroke="rgb(0,0,0)" stroke-opacity="1" stroke-width="8" fill="rgb(0,0,0)" fill-opacity="1"></path></g></g><g><g><g><g><g transform="matrix(1,0,0,1,379.95831298828125,271.8404064941406)"><path transform="matrix(0.00833,0,0,-0.00833,0,0)" d="M16 23L16 -3C203 -3 203 0 239 0C275 0 275 -3 468 -3L468 82C353 77 307 81 122 77L304 270C401 373 431 428 431 503C431 618 353 689 226 689C154 689 105 669 56 619L39 483L68 483L81 529C97 587 133 612 200 612C286 612 341 558 341 473C341 398 299 324 186 204Z" stroke="rgb(0,0,0)" stroke-opacity="1" stroke-width="8" fill="rgb(0,0,0)" fill-opacity="1"></path></g></g></g></g></g><g><g transform="matrix(1,0,0,1,384.82293701171875,269.07709350585935)"><path transform="matrix(0.0119,0,0,-0.0119,0,0)" d="" stroke="rgb(0,0,0)" stroke-opacity="1" stroke-width="8" fill="rgb(0,0,0)" fill-opacity="1"></path></g></g><g><g transform="matrix(1,0,0,1,390.16668701171875,269.07709350585935)"><path transform="matrix(0.0119,0,0,-0.0119,0,0)" d="M555 243L555 299L51 299L51 243Z" stroke="rgb(0,0,0)" stroke-opacity="1" stroke-width="8" fill="rgb(0,0,0)" fill-opacity="1"></path></g></g><g><g transform="matrix(1,0,0,1,399.73956298828125,269.07709350585935)"><path transform="matrix(0.0119,0,0,-0.0119,0,0)" d="" stroke="rgb(0,0,0)" stroke-opacity="1" stroke-width="8" fill="rgb(0,0,0)" fill-opacity="1"></path></g></g><g><svg x="403.53125" overflow="visible" y="256.8541564941406" height="19.98958396911621" width="5.9479169845581055"><path d=" M 4.39 1.19 c 0.00 -0.04 -0.03 -0.06 -0.06 -0.06 c -0.02 0.00 -0.04 0.01 -0.06 0.02 c -1.78 0.94 -3.25 2.61 -3.25 6.58 v 0.42 h 1.07 v -0.42 c 0.00 -2.26 0.45 -4.92 2.32 -6.34 c 0.09 -0.07 0.09 -0.13 0.09 -0.20 z   M 1.01 8.15 v 3.69 h 1.07 v -3.69 z" style="fill:rgb(0,0,0);fill-opacity:1;stroke-width:1px;stroke:none;stroke-opacity:1;"></path><path d=" M 4.39 18.80 c 0.00 0.04 -0.03 0.06 -0.06 0.06 c -0.02 0.00 -0.04 -0.01 -0.06 -0.02 c -1.78 -0.94 -3.25 -2.61 -3.25 -6.58 v -0.42 h 1.07 v 0.42 c 0.00 2.26 0.45 4.92 2.32 6.34 c 0.09 0.07 0.09 0.13 0.09 0.20 z" style="fill:rgb(0,0,0);fill-opacity:1;stroke-width:1px;stroke:none;stroke-opacity:1;"></path></svg></g><g><g transform="matrix(1,0,0,1,408.29168701171875,269.07709350585935)"><path transform="matrix(0.0119,0,0,-0.0119,0,0)" d="M9 1C24 -7 40 -11 52 -11C85 -11 124 18 155 65L231 182L242 113C255 28 278 -11 314 -11C336 -11 368 6 400 35L449 79L440 98C404 68 379 53 363 53C348 53 335 63 325 83C316 102 305 139 300 168L282 269L317 318C364 383 391 406 422 406C438 406 450 398 455 383L469 387L484 472C472 479 463 482 454 482C414 482 374 446 312 354L275 299L269 347C257 446 230 482 171 482C145 482 123 474 114 461L56 378L73 368C103 402 123 416 142 416C175 416 197 375 214 277L225 215L185 153C142 86 108 54 80 54C65 54 54 58 52 63L41 91L21 88C21 53 13 27 9 1Z" stroke="rgb(0,0,0)" stroke-opacity="1" stroke-width="8" fill="rgb(0,0,0)" fill-opacity="1"></path></g></g><g><g><g><g><g transform="matrix(1,0,0,1,414.90625,264.5487805175781)"><path transform="matrix(0.00833,0,0,-0.00833,0,0)" d="M390 646L463 646C541 646 577 641 580 629C583 621 585 602 584 592L580 528L608 528L635 692L544 691C456 690 388 689 353 689C316 689 252 690 166 691L71 692L53 528L82 528L97 588C102 610 109 626 115 633C121 640 159 646 196 646L308 646L222 125C206 34 204 31 164 28L113 25L109 -3L166 -2C206 -1 235 0 251 0C270 0 301 -1 340 -2L384 -3L387 25L328 28C302 29 292 37 292 58C292 67 293 74 296 93Z" stroke="rgb(0,0,0)" stroke-opacity="1" stroke-width="8" fill="rgb(0,0,0)" fill-opacity="1"></path></g></g></g></g><g><g><g><g transform="matrix(1,0,0,1,414.58331298828125,273.00709350585936)"><path transform="matrix(0.00833,0,0,-0.00833,0,0)" d="M16 23L16 -3C203 -3 203 0 239 0C275 0 275 -3 468 -3L468 82C353 77 307 81 122 77L304 270C401 373 431 428 431 503C431 618 353 689 226 689C154 689 105 669 56 619L39 483L68 483L81 529C97 587 133 612 200 612C286 612 341 558 341 473C341 398 299 324 186 204Z" stroke="rgb(0,0,0)" stroke-opacity="1" stroke-width="8" fill="rgb(0,0,0)" fill-opacity="1"></path></g></g></g></g></g><g><g transform="matrix(1,0,0,1,420.69793701171875,269.07709350585935)"><path transform="matrix(0.0119,0,0,-0.0119,0,0)" d="M167 420C188 420 201 421 226 424C171 350 72 266 72 126C72 44 107 -11 160 -11C224 -11 276 44 350 187C341 143 338 118 338 95C338 32 367 -11 412 -11C546 -11 699 238 699 384C699 441 673 482 637 482C624 482 612 478 604 470L554 423L565 404C574 410 583 413 592 413C619 413 635 390 635 350C635 205 538 39 453 39C424 39 403 79 403 134C403 181 412 247 424 290L476 474L469 482L395 460L366 311C354 249 340 209 311 155C271 80 233 39 203 39C168 39 145 78 145 136C145 255 186 352 285 464L275 482C255 473 242 470 214 470C186 470 144 472 115 475L103 476C97 477 92 477 91 477C79 477 70 475 59 470C45 443 34 407 21 352L43 352L60 394C67 411 87 422 111 422C145 422 128 420 167 420Z" stroke="rgb(0,0,0)" stroke-opacity="1" stroke-width="8" fill="rgb(0,0,0)" fill-opacity="1"></path></g></g><g><g><g><g><g transform="matrix(1,0,0,1,429.625,271.8404064941406)"><path transform="matrix(0.00833,0,0,-0.00833,0,0)" d="M418 -3L418 27L366 30C311 33 301 44 301 96L301 700L60 598L67 548L217 614L217 96C217 44 206 33 152 30L96 27L96 -3C250 0 250 0 261 0C292 0 402 -3 418 -3Z" stroke="rgb(0,0,0)" stroke-opacity="1" stroke-width="8" fill="rgb(0,0,0)" fill-opacity="1"></path></g></g></g></g></g><g><svg x="433.30206298828125" overflow="visible" y="256.8541564941406" height="19.98958396911621" width="5.9479169845581055"><path d=" M 1.22 1.19 c 0.00 -0.04 0.03 -0.06 0.06 -0.06 c 0.02 0.00 0.04 0.01 0.06 0.02 c 1.78 0.94 3.25 2.61 3.25 6.58 v 0.42 h -1.07 v -0.42 c 0.00 -2.26 -0.45 -4.92 -2.32 -6.34 c -0.09 -0.07 -0.09 -0.13 -0.09 -0.20 z  M 4.61 8.15 v 3.69 h -1.07 v -3.69 z" style="fill:rgb(0,0,0);fill-opacity:1;stroke-width:1px;stroke:none;stroke-opacity:1;"></path><path d=" M 1.22 18.80 c 0.00 0.04 0.03 0.06 0.06 0.06 c 0.02 0.00 0.04 -0.01 0.06 -0.02 c 1.78 -0.94 3.25 -2.61 3.25 -6.58 v -0.42 h -1.07 v 0.42 c 0.00 2.26 -0.45 4.92 -2.32 6.34 c -0.09 0.07 -0.09 0.13 -0.09 0.20 z" style="fill:rgb(0,0,0);fill-opacity:1;stroke-width:1px;stroke:none;stroke-opacity:1;"></path></svg></g><g><g transform="matrix(1,0,0,1,440.07293701171875,269.07709350585935)"><path transform="matrix(0.0119,0,0,-0.0119,0,0)" d="M167 420C188 420 201 421 226 424C171 350 72 266 72 126C72 44 107 -11 160 -11C224 -11 276 44 350 187C341 143 338 118 338 95C338 32 367 -11 412 -11C546 -11 699 238 699 384C699 441 673 482 637 482C624 482 612 478 604 470L554 423L565 404C574 410 583 413 592 413C619 413 635 390 635 350C635 205 538 39 453 39C424 39 403 79 403 134C403 181 412 247 424 290L476 474L469 482L395 460L366 311C354 249 340 209 311 155C271 80 233 39 203 39C168 39 145 78 145 136C145 255 186 352 285 464L275 482C255 473 242 470 214 470C186 470 144 472 115 475L103 476C97 477 92 477 91 477C79 477 70 475 59 470C45 443 34 407 21 352L43 352L60 394C67 411 87 422 111 422C145 422 128 420 167 420Z" stroke="rgb(0,0,0)" stroke-opacity="1" stroke-width="8" fill="rgb(0,0,0)" fill-opacity="1"></path></g></g><g><g><g><g><g transform="matrix(1,0,0,1,449,271.8404064941406)"><path transform="matrix(0.00833,0,0,-0.00833,0,0)" d="M418 -3L418 27L366 30C311 33 301 44 301 96L301 700L60 598L67 548L217 614L217 96C217 44 206 33 152 30L96 27L96 -3C250 0 250 0 261 0C292 0 402 -3 418 -3Z" stroke="rgb(0,0,0)" stroke-opacity="1" stroke-width="8" fill="rgb(0,0,0)" fill-opacity="1"></path></g></g></g></g></g></g></g><g><g><g><g transform="matrix(1,0,0,1,221.66668701171875,87.07709350585938)"><path transform="matrix(0.0119,0,0,-0.0119,0,0)" d="M9 1C24 -7 40 -11 52 -11C85 -11 124 18 155 65L231 182L242 113C255 28 278 -11 314 -11C336 -11 368 6 400 35L449 79L440 98C404 68 379 53 363 53C348 53 335 63 325 83C316 102 305 139 300 168L282 269L317 318C364 383 391 406 422 406C438 406 450 398 455 383L469 387L484 472C472 479 463 482 454 482C414 482 374 446 312 354L275 299L269 347C257 446 230 482 171 482C145 482 123 474 114 461L56 378L73 368C103 402 123 416 142 416C175 416 197 375 214 277L225 215L185 153C142 86 108 54 80 54C65 54 54 58 52 63L41 91L21 88C21 53 13 27 9 1Z" stroke="rgb(0,0,0)" stroke-opacity="1" stroke-width="8" fill="rgb(0,0,0)" fill-opacity="1"></path></g></g><g><g><g><g><g transform="matrix(1,0,0,1,227.95831298828125,89.84040649414062)"><path transform="matrix(0.00833,0,0,-0.00833,0,0)" d="M418 -3L418 27L366 30C311 33 301 44 301 96L301 700L60 598L67 548L217 614L217 96C217 44 206 33 152 30L96 27L96 -3C250 0 250 0 261 0C292 0 402 -3 418 -3Z" stroke="rgb(0,0,0)" stroke-opacity="1" stroke-width="8" fill="rgb(0,0,0)" fill-opacity="1"></path></g></g></g></g></g><g><g transform="matrix(1,0,0,1,232.82293701171875,87.07709350585938)"><path transform="matrix(0.0119,0,0,-0.0119,0,0)" d="" stroke="rgb(0,0,0)" stroke-opacity="1" stroke-width="8" fill="rgb(0,0,0)" fill-opacity="1"></path></g></g><g><g transform="matrix(1,0,0,1,238.16668701171875,87.07709350585938)"><path transform="matrix(0.0119,0,0,-0.0119,0,0)" d="M555 243L555 299L51 299L51 243Z" stroke="rgb(0,0,0)" stroke-opacity="1" stroke-width="8" fill="rgb(0,0,0)" fill-opacity="1"></path></g></g><g><g transform="matrix(1,0,0,1,247.73956298828125,87.07709350585938)"><path transform="matrix(0.0119,0,0,-0.0119,0,0)" d="" stroke="rgb(0,0,0)" stroke-opacity="1" stroke-width="8" fill="rgb(0,0,0)" fill-opacity="1"></path></g></g><g><svg x="251.53125" overflow="visible" y="74.85415649414062" height="19.98958396911621" width="5.9479169845581055"><path d=" M 4.39 1.19 c 0.00 -0.04 -0.03 -0.06 -0.06 -0.06 c -0.02 0.00 -0.04 0.01 -0.06 0.02 c -1.78 0.94 -3.25 2.61 -3.25 6.58 v 0.42 h 1.07 v -0.42 c 0.00 -2.26 0.45 -4.92 2.32 -6.34 c 0.09 -0.07 0.09 -0.13 0.09 -0.20 z   M 1.01 8.15 v 3.69 h 1.07 v -3.69 z" style="fill:rgb(0,0,0);fill-opacity:1;stroke-width:1px;stroke:none;stroke-opacity:1;"></path><path d=" M 4.39 18.80 c 0.00 0.04 -0.03 0.06 -0.06 0.06 c -0.02 0.00 -0.04 -0.01 -0.06 -0.02 c -1.78 -0.94 -3.25 -2.61 -3.25 -6.58 v -0.42 h 1.07 v 0.42 c 0.00 2.26 0.45 4.92 2.32 6.34 c 0.09 0.07 0.09 0.13 0.09 0.20 z" style="fill:rgb(0,0,0);fill-opacity:1;stroke-width:1px;stroke:none;stroke-opacity:1;"></path></svg></g><g><g transform="matrix(1,0,0,1,256.29168701171875,87.07709350585938)"><path transform="matrix(0.0119,0,0,-0.0119,0,0)" d="M9 1C24 -7 40 -11 52 -11C85 -11 124 18 155 65L231 182L242 113C255 28 278 -11 314 -11C336 -11 368 6 400 35L449 79L440 98C404 68 379 53 363 53C348 53 335 63 325 83C316 102 305 139 300 168L282 269L317 318C364 383 391 406 422 406C438 406 450 398 455 383L469 387L484 472C472 479 463 482 454 482C414 482 374 446 312 354L275 299L269 347C257 446 230 482 171 482C145 482 123 474 114 461L56 378L73 368C103 402 123 416 142 416C175 416 197 375 214 277L225 215L185 153C142 86 108 54 80 54C65 54 54 58 52 63L41 91L21 88C21 53 13 27 9 1Z" stroke="rgb(0,0,0)" stroke-opacity="1" stroke-width="8" fill="rgb(0,0,0)" fill-opacity="1"></path></g></g><g><g><g><g><g transform="matrix(1,0,0,1,262.90625,82.54875)"><path transform="matrix(0.00833,0,0,-0.00833,0,0)" d="M390 646L463 646C541 646 577 641 580 629C583 621 585 602 584 592L580 528L608 528L635 692L544 691C456 690 388 689 353 689C316 689 252 690 166 691L71 692L53 528L82 528L97 588C102 610 109 626 115 633C121 640 159 646 196 646L308 646L222 125C206 34 204 31 164 28L113 25L109 -3L166 -2C206 -1 235 0 251 0C270 0 301 -1 340 -2L384 -3L387 25L328 28C302 29 292 37 292 58C292 67 293 74 296 93Z" stroke="rgb(0,0,0)" stroke-opacity="1" stroke-width="8" fill="rgb(0,0,0)" fill-opacity="1"></path></g></g></g></g><g><g><g><g transform="matrix(1,0,0,1,262.58331298828125,91.00709350585937)"><path transform="matrix(0.00833,0,0,-0.00833,0,0)" d="M418 -3L418 27L366 30C311 33 301 44 301 96L301 700L60 598L67 548L217 614L217 96C217 44 206 33 152 30L96 27L96 -3C250 0 250 0 261 0C292 0 402 -3 418 -3Z" stroke="rgb(0,0,0)" stroke-opacity="1" stroke-width="8" fill="rgb(0,0,0)" fill-opacity="1"></path></g></g></g></g></g><g><g transform="matrix(1,0,0,1,268.69793701171875,87.07709350585938)"><path transform="matrix(0.0119,0,0,-0.0119,0,0)" d="M167 420C188 420 201 421 226 424C171 350 72 266 72 126C72 44 107 -11 160 -11C224 -11 276 44 350 187C341 143 338 118 338 95C338 32 367 -11 412 -11C546 -11 699 238 699 384C699 441 673 482 637 482C624 482 612 478 604 470L554 423L565 404C574 410 583 413 592 413C619 413 635 390 635 350C635 205 538 39 453 39C424 39 403 79 403 134C403 181 412 247 424 290L476 474L469 482L395 460L366 311C354 249 340 209 311 155C271 80 233 39 203 39C168 39 145 78 145 136C145 255 186 352 285 464L275 482C255 473 242 470 214 470C186 470 144 472 115 475L103 476C97 477 92 477 91 477C79 477 70 475 59 470C45 443 34 407 21 352L43 352L60 394C67 411 87 422 111 422C145 422 128 420 167 420Z" stroke="rgb(0,0,0)" stroke-opacity="1" stroke-width="8" fill="rgb(0,0,0)" fill-opacity="1"></path></g></g><g><g><g><g><g transform="matrix(1,0,0,1,277.625,89.84040649414062)"><path transform="matrix(0.00833,0,0,-0.00833,0,0)" d="M418 -3L418 27L366 30C311 33 301 44 301 96L301 700L60 598L67 548L217 614L217 96C217 44 206 33 152 30L96 27L96 -3C250 0 250 0 261 0C292 0 402 -3 418 -3Z" stroke="rgb(0,0,0)" stroke-opacity="1" stroke-width="8" fill="rgb(0,0,0)" fill-opacity="1"></path></g></g></g></g></g><g><svg x="281.30206298828125" overflow="visible" y="74.85415649414062" height="19.98958396911621" width="5.9479169845581055"><path d=" M 1.22 1.19 c 0.00 -0.04 0.03 -0.06 0.06 -0.06 c 0.02 0.00 0.04 0.01 0.06 0.02 c 1.78 0.94 3.25 2.61 3.25 6.58 v 0.42 h -1.07 v -0.42 c 0.00 -2.26 -0.45 -4.92 -2.32 -6.34 c -0.09 -0.07 -0.09 -0.13 -0.09 -0.20 z  M 4.61 8.15 v 3.69 h -1.07 v -3.69 z" style="fill:rgb(0,0,0);fill-opacity:1;stroke-width:1px;stroke:none;stroke-opacity:1;"></path><path d=" M 1.22 18.80 c 0.00 0.04 0.03 0.06 0.06 0.06 c 0.02 0.00 0.04 -0.01 0.06 -0.02 c 1.78 -0.94 3.25 -2.61 3.25 -6.58 v -0.42 h -1.07 v 0.42 c 0.00 2.26 -0.45 4.92 -2.32 6.34 c -0.09 0.07 -0.09 0.13 -0.09 0.20 z" style="fill:rgb(0,0,0);fill-opacity:1;stroke-width:1px;stroke:none;stroke-opacity:1;"></path></svg></g><g><g transform="matrix(1,0,0,1,288.07293701171875,87.07709350585938)"><path transform="matrix(0.0119,0,0,-0.0119,0,0)" d="M167 420C188 420 201 421 226 424C171 350 72 266 72 126C72 44 107 -11 160 -11C224 -11 276 44 350 187C341 143 338 118 338 95C338 32 367 -11 412 -11C546 -11 699 238 699 384C699 441 673 482 637 482C624 482 612 478 604 470L554 423L565 404C574 410 583 413 592 413C619 413 635 390 635 350C635 205 538 39 453 39C424 39 403 79 403 134C403 181 412 247 424 290L476 474L469 482L395 460L366 311C354 249 340 209 311 155C271 80 233 39 203 39C168 39 145 78 145 136C145 255 186 352 285 464L275 482C255 473 242 470 214 470C186 470 144 472 115 475L103 476C97 477 92 477 91 477C79 477 70 475 59 470C45 443 34 407 21 352L43 352L60 394C67 411 87 422 111 422C145 422 128 420 167 420Z" stroke="rgb(0,0,0)" stroke-opacity="1" stroke-width="8" fill="rgb(0,0,0)" fill-opacity="1"></path></g></g><g><g><g><g><g transform="matrix(1,0,0,1,297,89.84040649414062)"><path transform="matrix(0.00833,0,0,-0.00833,0,0)" d="M418 -3L418 27L366 30C311 33 301 44 301 96L301 700L60 598L67 548L217 614L217 96C217 44 206 33 152 30L96 27L96 -3C250 0 250 0 261 0C292 0 402 -3 418 -3Z" stroke="rgb(0,0,0)" stroke-opacity="1" stroke-width="8" fill="rgb(0,0,0)" fill-opacity="1"></path></g></g></g></g></g></g></g><g><g><g><g transform="matrix(1,0,0,1,345.66668701171875,146.9)"><path transform="matrix(0.0119,0,0,-0.0119,0,0)" d="M413 469L254 104C251 113 166 397 166 405C166 420 179 428 204 429L244 431L244 459C145 456 145 456 125 456C105 456 105 456 6 459L6 431L34 429C62 427 75 407 100 329L202 -7L249 -7L399 335L535 -7L581 -7L718 342C748 409 760 426 782 429L808 431L808 459C726 456 726 456 710 456C694 456 694 456 612 459L612 431L646 429C671 428 685 416 685 398L580 98L465 388C451 422 444 442 436 469Z" stroke="rgb(74,144,226)" stroke-opacity="1" stroke-width="24" fill="rgb(74,144,226)" fill-opacity="1"></path></g></g><g><g><g><g><g transform="matrix(1,0,0,1,355.92706298828125,149.6633435058594)"><path transform="matrix(0.00833,0,0,-0.00833,0,0)" d="M418 -3L418 27L366 30C311 33 301 44 301 96L301 700L60 598L67 548L217 614L217 96C217 44 206 33 152 30L96 27L96 -3C250 0 250 0 261 0C292 0 402 -3 418 -3Z" stroke="rgb(74,144,226)" stroke-opacity="1" stroke-width="24" fill="rgb(74,144,226)" fill-opacity="1"></path></g></g></g></g></g></g></g><g><g><g><g transform="matrix(1,0,0,1,340.33331298828125,191.56665649414063)"><path transform="matrix(0.0119,0,0,-0.0119,0,0)" d="M413 469L254 104C251 113 166 397 166 405C166 420 179 428 204 429L244 431L244 459C145 456 145 456 125 456C105 456 105 456 6 459L6 431L34 429C62 427 75 407 100 329L202 -7L249 -7L399 335L535 -7L581 -7L718 342C748 409 760 426 782 429L808 431L808 459C726 456 726 456 710 456C694 456 694 456 612 459L612 431L646 429C671 428 685 416 685 398L580 98L465 388C451 422 444 442 436 469Z" stroke="rgb(74,144,226)" stroke-opacity="1" stroke-width="24" fill="rgb(74,144,226)" fill-opacity="1"></path></g></g><g><g><g><g><g transform="matrix(1,0,0,1,350.59375,194.33)"><path transform="matrix(0.00833,0,0,-0.00833,0,0)" d="M16 23L16 -3C203 -3 203 0 239 0C275 0 275 -3 468 -3L468 82C353 77 307 81 122 77L304 270C401 373 431 428 431 503C431 618 353 689 226 689C154 689 105 669 56 619L39 483L68 483L81 529C97 587 133 612 200 612C286 612 341 558 341 473C341 398 299 324 186 204Z" stroke="rgb(74,144,226)" stroke-opacity="1" stroke-width="24" fill="rgb(74,144,226)" fill-opacity="1"></path></g></g></g></g></g></g></g></svg>
</svg>
