<svg xmlns="http://www.w3.org/2000/svg" xmlns:xlink="http://www.w3.org/1999/xlink" x="0" y="0" width="661.3333740234375" height="301.3333435058594" style="
        width:661.3333740234375px;
        height:301.3333435058594px;
        background: #FFF;
        fill: none;
">
        
        
        <svg xmlns="http://www.w3.org/2000/svg" class="role-diagram-draw-area"><g class="shapes-region" style="stroke: black; fill: none;"><g class="arrow-line"><path class="connection real" stroke-dasharray="" d="  M185.86,85.86 L220,170" style="stroke: rgb(255, 142, 0); stroke-opacity: 1; stroke-width: 2; fill: none; fill-opacity: 1;"/></g><g class="composite-shape axis2d" style="stroke-width: 1; stroke: rgb(0, 0, 0);"><path class="real" d=" M20,231 L470,231 M69.29,60 L69.29,280"/><path d=" M463,226 L470,231 L463,236"/><path d=" M64.29,67 L69.29,60 L74.29,67"/></g><g class="arrow-line"><path class="connection real" stroke-dasharray="" d="  M373.56,110.58 L23.29,249" style="stroke: rgb(0, 0, 0); stroke-width: 2; fill: none; fill-opacity: 1;"/></g><g class="composite-shape"><path class="real" d=" M181.73,85.86 C181.73,83.58 183.58,81.73 185.86,81.73 C188.15,81.73 190,83.58 190,85.86 C190,88.15 188.15,90 185.86,90 C183.58,90 181.73,88.15 181.73,85.86 Z" style="stroke-width: 1; stroke: none; stroke-opacity: 1; fill: rgb(0, 0, 0); fill-opacity: 1;"/></g><g class="composite-shape"><path class="real" d=" M215.86,168 C215.86,165.72 217.72,163.86 220,163.86 C222.28,163.86 224.14,165.72 224.14,168 C224.14,170.28 222.28,172.14 220,172.14 C217.72,172.14 215.86,170.28 215.86,168 Z" style="stroke-width: 1; stroke: none; stroke-opacity: 1; fill: rgb(0, 0, 0); fill-opacity: 1;"/></g><g class="arrow-line"><path class="connection real" stroke-dasharray="" d="  M185.86,85.86 L114.29,214" style="stroke: rgb(0, 0, 0); stroke-opacity: 1; stroke-width: 1; fill: none; fill-opacity: 1;"/></g><g class="arrow-line"><path class="connection real" stroke-dasharray="" d="  M185.86,85.86 L42.29,243" style="stroke: rgb(0, 0, 0); stroke-opacity: 1; stroke-width: 1; fill: none; fill-opacity: 1;"/></g><g class="arrow-line"><path class="connection real" stroke-dasharray="" d="  M185.86,85.86 L298.71,138.14" style="stroke: rgb(0, 0, 0); stroke-opacity: 1; stroke-width: 1; fill: none; fill-opacity: 1;"/></g><g class="composite-shape"><path class="real" d=" M294.58,138.14 C294.58,135.86 296.43,134.01 298.71,134.01 C301,134.01 302.85,135.86 302.85,138.14 C302.85,140.43 301,142.28 298.71,142.28 C296.43,142.28 294.58,140.43 294.58,138.14 Z" style="stroke-width: 1; stroke: none; stroke-opacity: 1; fill: rgb(0, 0, 0); fill-opacity: 1;"/></g><g class="composite-shape"><path class="real" d=" M111,213.86 C111,211.58 112.85,209.73 115.14,209.73 C117.42,209.73 119.27,211.58 119.27,213.86 C119.27,216.15 117.42,218 115.14,218 C112.85,218 111,216.15 111,213.86 Z" style="stroke-width: 1; stroke: none; stroke-opacity: 1; fill: rgb(0, 0, 0); fill-opacity: 1;"/></g><g class="composite-shape"><path class="real" d=" M38.15,243 C38.15,240.72 40,238.86 42.29,238.86 C44.57,238.86 46.42,240.72 46.42,243 C46.42,245.28 44.57,247.14 42.29,247.14 C40,247.14 38.15,245.28 38.15,243 Z" style="stroke-width: 1; stroke: none; stroke-opacity: 1; fill: rgb(0, 0, 0); fill-opacity: 1;"/></g><g class="arrow-line"><path class="connection real" stroke-dasharray="" d="  M220,171.14 C316.85,190.9 360.89,173.84 419.12,130.65" style="stroke: rgb(0, 0, 0); stroke-width: 1; fill: none; fill-opacity: 1;"/><g stroke="#000" transform="matrix(-0.8021926698823048,0.5970652563891987,-0.5970652563891987,-0.8021926698823048,420.00000000000006,130)" style="stroke: rgb(0, 0, 0); stroke-width: 1;"><path d=" M10.93,-3.29 Q4.96,-0.45 0,0 Q4.96,0.45 10.93,3.29"/></g></g><g/></g><g/><g/><g/></svg>
        <svg xmlns="http://www.w3.org/2000/svg" xmlns:xlink="http://www.w3.org/1999/xlink" width="660" height="300" style="width:660px;height:300px;font-family:Asana-Math, Asana;background:#FFF;"><g><g><g><g transform="matrix(1,0,0,1,248.66668701171875,29)"><path transform="matrix(0.018,0,0,-0.018,0,0)" d="M91 46C91 3 116 0 137 0L188 0C230 0 233 26 233 46L233 268L360 268C452 268 641 269 641 479C641 535 626 592 585 632C521 695 425 694 345 694L137 694C92 694 91 664 91 643ZM230 347L230 571L231 608L351 608C436 608 505 597 507 483C507 427 505 347 364 347ZM763 43C763 24 767 0 808 0L851 0C868 0 869 1 879 6C895 19 897 22 897 50L897 225C897 238 897 250 900 263C910 308 948 343 991 358C1024 369 1042 364 1054 373C1058 379 1059 380 1059 391L1059 447C1059 461 1057 469 1039 469L1038 469C1020 469 945 462 892 388C891 438 891 439 882 450C871 461 867 463 842 463L809 463C788 463 763 461 763 418ZM1105 224C1105 36 1221 -11 1350 -11C1473 -11 1593 35 1593 220C1593 465 1431 475 1334 475C1221 475 1105 424 1105 224ZM1242 214L1242 241C1242 310 1240 402 1348 402C1455 402 1455 313 1456 255L1456 228C1455 161 1458 67 1349 67C1245 67 1244 155 1242 214ZM1556 -157C1556 -184 1655 -206 1701 -206C1845 -206 1851 -82 1851 -15L1851 412C1851 430 1849 458 1805 458L1762 458C1750 457 1717 460 1717 414L1717 -62C1717 -84 1713 -121 1655 -121C1614 -121 1593 -101 1580 -101C1563 -101 1556 -157 1556 -157ZM1709 626C1709 586 1731 580 1754 580L1806 580C1815 581 1851 579 1851 624L1851 676C1851 716 1828 722 1805 722L1754 722C1735 721 1709 720 1709 676ZM1941 233C1941 74 2028 -11 2195 -11C2264 -11 2326 9 2368 33C2380 40 2384 44 2384 55C2384 55 2384 114 2373 125L2368 127L2364 127C2344 121 2297 62 2197 62C2095 62 2072 136 2070 214L2346 214C2364 214 2390 216 2390 257C2390 364 2348 475 2181 475C2037 475 1941 401 1941 233ZM2071 279C2077 341 2101 402 2181 402C2259 402 2275 346 2278 279ZM2458 228C2458 52 2557 -11 2696 -11C2762 -11 2814 4 2858 27C2869 33 2878 37 2878 52L2878 60C2872 126 2873 125 2865 130L2860 131C2839 128 2803 67 2699 67C2598 67 2595 160 2595 223L2595 242C2595 296 2596 393 2692 397C2707 397 2740 398 2769 388C2812 373 2832 340 2848 340C2867 340 2872 418 2872 418C2872 426 2870 430 2864 434C2807 465 2767 475 2702 475C2572 475 2458 425 2458 228ZM2932 422C2932 411 2936 385 2976 385L2997 385L2997 152C2997 121 2997 91 3006 61C3023 6 3061 -11 3101 -11C3175 -11 3283 21 3283 47C3283 47 3275 102 3260 102C3247 102 3217 67 3170 67C3142 67 3128 85 3128 159C3128 168 3129 176 3129 185L3129 385L3222 385C3260 386 3265 411 3265 421C3265 430 3260 458 3220 458L3129 458L3129 544C3129 568 3119 589 3084 589L3048 589C3031 589 3000 588 3000 544L3000 458L2976 458C2936 458 2932 433 2932 422ZM3371 626C3371 586 3394 580 3417 580L3469 580C3478 581 3513 579 3513 624L3513 676C3513 716 3490 722 3467 722L3416 722C3397 721 3371 722 3371 676ZM3375 50C3375 33 3374 0 3419 0L3465 0C3510 0 3509 33 3509 45L3509 408C3509 434 3507 458 3460 458L3419 458C3374 458 3375 425 3375 413ZM3600 224C3600 36 3716 -11 3845 -11C3968 -11 4088 35 4088 220C4088 465 3926 475 3829 475C3716 475 3600 424 3600 224ZM3737 214L3737 241C3737 310 3735 402 3843 402C3950 402 3950 313 3951 255L3951 228C3950 161 3953 67 3844 67C3740 67 3739 155 3737 214ZM4179 45C4179 6 4203 0 4226 0L4270 0C4316 0 4316 53 4316 53L4316 261C4316 279 4317 297 4322 315C4331 346 4363 396 4425 396C4484 396 4484 355 4484 318L4484 44C4484 19 4491 0 4530 0L4577 0C4618 0 4620 28 4620 44L4620 308C4620 380 4620 469 4472 469C4391 469 4345 435 4310 400L4310 420C4310 463 4282 463 4264 463L4224 463C4205 463 4179 460 4179 418ZM5078 224C5078 36 5194 -11 5323 -11C5446 -11 5566 35 5566 220C5566 465 5404 475 5307 475C5194 475 5078 424 5078 224ZM5215 214L5215 241C5215 310 5213 402 5321 402C5428 402 5428 313 5429 255L5429 228C5428 161 5431 67 5322 67C5218 67 5217 155 5215 214ZM5629 422C5629 412 5632 385 5672 385L5684 385L5684 46C5684 31 5683 0 5728 0L5770 0C5817 0 5817 27 5817 52L5817 385L5867 385C5907 385 5912 411 5912 422C5912 437 5902 458 5869 458L5814 458L5814 580C5814 613 5814 660 5881 660C5937 660 5952 623 5967 623C5979 623 5979 639 5979 648L5979 709L5977 714L5974 718C5960 728 5915 733 5879 733L5877 733C5722 732 5684 644 5684 546L5684 458L5674 458C5633 458 5629 433 5629 422ZM6361 343C6361 151 6429 -22 6698 -22C6970 -22 7033 158 7033 343C7033 536 6965 717 6696 717C6495 717 6361 613 6361 343ZM6503 345L6503 353C6503 428 6503 530 6566 591C6595 619 6643 639 6697 639C6888 639 6891 456 6891 373L6891 366C6891 289 6890 173 6826 108C6817 99 6775 59 6698 59C6506 59 6503 261 6503 345ZM7154 139C7154 68 7160 -11 7314 -11C7369 -11 7413 -3 7462 44C7462 37 7460 0 7503 0L7550 0C7576 0 7595 8 7595 43L7595 416C7594 451 7575 458 7550 458L7506 458C7494 458 7482 457 7472 449C7461 437 7459 436 7459 406L7459 181C7459 72 7393 50 7354 50C7296 50 7290 67 7290 123C7290 131 7291 139 7291 147L7291 413C7290 430 7291 458 7244 458L7198 458C7153 458 7154 424 7154 414ZM7677 422C7677 411 7681 385 7721 385L7742 385L7742 152C7742 121 7742 91 7751 61C7768 6 7806 -11 7846 -11C7920 -11 8028 21 8028 47C8028 47 8020 102 8005 102C7992 102 7962 67 7915 67C7887 67 7873 85 7873 159C7873 168 7874 176 7874 185L7874 385L7967 385C8005 386 8010 411 8010 421C8010 430 8005 458 7965 458L7874 458L7874 544C7874 568 7864 589 7829 589L7793 589C7776 589 7745 588 7745 544L7745 458L7721 458C7681 458 7677 433 7677 422ZM8120 45C8120 5 8142 0 8168 0L8209 0C8252 2 8254 22 8254 49L8254 677C8254 714 8233 722 8208 722L8162 722C8134 722 8120 704 8120 675ZM8371 626C8371 586 8394 580 8417 580L8469 580C8478 581 8513 579 8513 624L8513 676C8513 716 8490 722 8467 722L8416 722C8397 721 8371 722 8371 676ZM8375 50C8375 33 8374 0 8419 0L8465 0C8510 0 8509 33 8509 45L8509 408C8509 434 8507 458 8460 458L8419 458C8374 458 8375 425 8375 413ZM8600 233C8600 74 8687 -11 8854 -11C8923 -11 8985 9 9027 33C9039 40 9043 44 9043 55C9043 55 9043 114 9032 125L9027 127L9023 127C9003 121 8956 62 8856 62C8754 62 8731 136 8729 214L9005 214C9023 214 9049 216 9049 257C9049 364 9007 475 8840 475C8696 475 8600 401 8600 233ZM8730 279C8736 341 8760 402 8840 402C8918 402 8934 346 8937 279ZM9141 43C9141 24 9145 0 9186 0L9229 0C9246 0 9247 1 9257 6C9273 19 9275 22 9275 50L9275 225C9275 238 9275 250 9278 263C9288 308 9326 343 9369 358C9402 369 9420 364 9432 373C9436 379 9437 380 9437 391L9437 447C9437 461 9435 469 9417 469L9416 469C9398 469 9323 462 9270 388C9269 438 9269 439 9260 450C9249 461 9245 463 9220 463L9187 463C9166 463 9141 461 9141 418Z" stroke="rgb(0,0,0)" stroke-opacity="1" stroke-width="8" fill="rgb(0,0,0)" fill-opacity="1"></path></g></g></g></g><g><g><g><g><g><g><g transform="matrix(1,0,0,1,145.80206298828125,78.93334350585937)"><path transform="matrix(0.0136,0,0,-0.0136,0,0)" d="M9 1C24 -7 40 -11 52 -11C85 -11 124 18 155 65L231 182L242 113C255 28 278 -11 314 -11C336 -11 368 6 400 35L449 79L440 98C404 68 379 53 363 53C348 53 335 63 325 83C316 102 305 139 300 168L282 269L317 318C364 383 391 406 422 406C438 406 450 398 455 383L469 387L484 472C472 479 463 482 454 482C414 482 374 446 312 354L275 299L269 347C257 446 230 482 171 482C145 482 123 474 114 461L56 378L73 368C103 402 123 416 142 416C175 416 197 375 214 277L225 215L185 153C142 86 108 54 80 54C65 54 54 58 52 63L41 91L21 88C21 53 13 27 9 1Z" stroke="rgb(0,0,0)" stroke-opacity="1" stroke-width="8" fill="rgb(0,0,0)" fill-opacity="1"></path></g></g><g><g><g><g><g transform="matrix(1,0,0,1,153,81.3325)"><path transform="matrix(0.009519999999999999,0,0,-0.009519999999999999,0,0)" d="M418 -3L418 27L366 30C311 33 301 44 301 96L301 700L60 598L67 548L217 614L217 96C217 44 206 33 152 30L96 27L96 -3C250 0 250 0 261 0C292 0 402 -3 418 -3Z" stroke="rgb(0,0,0)" stroke-opacity="1" stroke-width="8" fill="rgb(0,0,0)" fill-opacity="1"></path></g></g></g></g></g></g></g><g><g><g><g transform="matrix(1,0,0,1,145.80206298828125,97.49584350585937)"><path transform="matrix(0.0136,0,0,-0.0136,0,0)" d="M9 1C24 -7 40 -11 52 -11C85 -11 124 18 155 65L231 182L242 113C255 28 278 -11 314 -11C336 -11 368 6 400 35L449 79L440 98C404 68 379 53 363 53C348 53 335 63 325 83C316 102 305 139 300 168L282 269L317 318C364 383 391 406 422 406C438 406 450 398 455 383L469 387L484 472C472 479 463 482 454 482C414 482 374 446 312 354L275 299L269 347C257 446 230 482 171 482C145 482 123 474 114 461L56 378L73 368C103 402 123 416 142 416C175 416 197 375 214 277L225 215L185 153C142 86 108 54 80 54C65 54 54 58 52 63L41 91L21 88C21 53 13 27 9 1Z" stroke="rgb(0,0,0)" stroke-opacity="1" stroke-width="8" fill="rgb(0,0,0)" fill-opacity="1"></path></g></g><g><g><g><g><g transform="matrix(1,0,0,1,153,99.895)"><path transform="matrix(0.009519999999999999,0,0,-0.009519999999999999,0,0)" d="M16 23L16 -3C203 -3 203 0 239 0C275 0 275 -3 468 -3L468 82C353 77 307 81 122 77L304 270C401 373 431 428 431 503C431 618 353 689 226 689C154 689 105 669 56 619L39 483L68 483L81 529C97 587 133 612 200 612C286 612 341 558 341 473C341 398 299 324 186 204Z" stroke="rgb(0,0,0)" stroke-opacity="1" stroke-width="8" fill="rgb(0,0,0)" fill-opacity="1"></path></g></g></g></g></g></g></g><svg x="137.66668701171875" overflow="visible" y="64.66665649414062" height="37.79166793823242" width="6.114583492279053"><path d=" M 4.79 1.36 l -0.08 -0.08 q -0.87 0.03 -1.73 0.03 q -0.82 0.00 -1.71 -0.03 l -0.12 0.18 q 0.12 0.46 0.12 2.52 v 0.68 h 1.14 v -0.68 q 0.00 -1.05 0.05 -1.71 q 0.04 -0.48 0.95 -0.48 h 1.32 l 0.05 -0.07 v -0.35 z  M 1.26 4.50 v 28.79 h 1.14 v -28.79 z " style="fill:rgb(0,0,0);fill-opacity:1;stroke-width:1px;stroke:none;stroke-opacity:1;"></path><path d=" M 4.79 36.43 l -0.08 0.08 q -0.87 -0.03 -1.73 -0.03 q -0.82 0.00 -1.71 0.03 l -0.12 -0.18 q 0.12 -0.46 0.12 -2.52 v -0.68 h 1.14 v 0.68 q 0.00 1.05 0.05 1.71 q 0.04 0.48 0.95 0.48 h 1.32 l 0.05 0.07 v 0.35 z" style="fill:rgb(0,0,0);fill-opacity:1;stroke-width:1px;stroke:none;stroke-opacity:1;"></path></svg><svg x="160.58331298828125" overflow="visible" y="64.66665649414062" height="37.79166793823242" width="6.114583492279053"><path d=" M 1.26 1.36 l 0.08 -0.08 q 0.87 0.03 1.73 0.03 q 0.82 0.00 1.71 -0.03 l 0.12 0.18 q -0.12 0.46 -0.12 2.52 v 0.68 h -1.14 v -0.68 q 0.00 -1.05 -0.05 -1.71 q -0.04 -0.48 -0.95 -0.48 h -1.32 l -0.05 -0.07 v -0.35 z  M 4.78 4.50 v 28.79 h -1.14 v -28.79 z" style="fill:rgb(0,0,0);fill-opacity:1;stroke-width:1px;stroke:none;stroke-opacity:1;"></path><path d=" M 1.26 36.43 l 0.08 0.08 q 0.87 -0.03 1.73 -0.03 q 0.82 0.00 1.71 0.03 l 0.12 -0.18 q -0.12 -0.46 -0.12 -2.52 v -0.68 h -1.14 v 0.68 q 0.00 1.05 -0.05 1.71 q -0.04 0.48 -0.95 0.48 h -1.32 l -0.05 0.07 v 0.35 z" style="fill:rgb(0,0,0);fill-opacity:1;stroke-width:1px;stroke:none;stroke-opacity:1;"></path></svg><line stroke-dasharray="1" style="fill:none;stroke-width:[object Object];stroke:rgba(0, 0, 0, 0);" x1="141.39581298828125" y1="65" x2="162.96873092651367" y2="65"></line><line stroke-dasharray="1" style="fill:none;stroke-width:[object Object];stroke:rgba(0, 0, 0, 0);" x1="141.39581298828125" y1="65" x2="141.39581298828125" y2="83.5625"></line><line stroke-dasharray="1" style="fill:none;stroke-width:[object Object];stroke:rgba(0, 0, 0, 0);" x1="162.96873092651367" y1="65" x2="162.96873092651367" y2="83.5625"></line><line stroke-dasharray="1" style="fill:none;stroke-width:[object Object];stroke:rgba(0, 0, 0, 0);" x1="141.39581298828125" y1="83.5625" x2="162.96873092651367" y2="83.5625"></line><line stroke-dasharray="1" style="fill:none;stroke-width:[object Object];stroke:rgba(0, 0, 0, 0);" x1="141.39581298828125" y1="83.5625" x2="162.96873092651367" y2="83.5625"></line><line stroke-dasharray="1" style="fill:none;stroke-width:[object Object];stroke:rgba(0, 0, 0, 0);" x1="141.39581298828125" y1="83.5625" x2="141.39581298828125" y2="102.125"></line><line stroke-dasharray="1" style="fill:none;stroke-width:[object Object];stroke:rgba(0, 0, 0, 0);" x1="162.96873092651367" y1="83.5625" x2="162.96873092651367" y2="102.125"></line><line stroke-dasharray="1" style="fill:none;stroke-width:[object Object];stroke:rgba(0, 0, 0, 0);" x1="141.39581298828125" y1="102.125" x2="162.96873092651367" y2="102.125"></line></g></g></g><g><g><g><g><g><g><g transform="matrix(1,0,0,1,181.875,203.56665649414063)"><path transform="matrix(0.0119,0,0,-0.0119,0,0)" d="M167 420C188 420 201 421 226 424C171 350 72 266 72 126C72 44 107 -11 160 -11C224 -11 276 44 350 187C341 143 338 118 338 95C338 32 367 -11 412 -11C546 -11 699 238 699 384C699 441 673 482 637 482C624 482 612 478 604 470L554 423L565 404C574 410 583 413 592 413C619 413 635 390 635 350C635 205 538 39 453 39C424 39 403 79 403 134C403 181 412 247 424 290L476 474L469 482L395 460L366 311C354 249 340 209 311 155C271 80 233 39 203 39C168 39 145 78 145 136C145 255 186 352 285 464L275 482C255 473 242 470 214 470C186 470 144 472 115 475L103 476C97 477 92 477 91 477C79 477 70 475 59 470C45 443 34 407 21 352L43 352L60 394C67 411 87 422 111 422C145 422 128 420 167 420Z" stroke="rgb(0,0,0)" stroke-opacity="1" stroke-width="8" fill="rgb(0,0,0)" fill-opacity="1"></path></g></g><g><g><g><g><g transform="matrix(1,0,0,1,190.80206298828125,206.33)"><path transform="matrix(0.00833,0,0,-0.00833,0,0)" d="M418 -3L418 27L366 30C311 33 301 44 301 96L301 700L60 598L67 548L217 614L217 96C217 44 206 33 152 30L96 27L96 -3C250 0 250 0 261 0C292 0 402 -3 418 -3Z" stroke="rgb(0,0,0)" stroke-opacity="1" stroke-width="8" fill="rgb(0,0,0)" fill-opacity="1"></path></g></g></g></g></g></g></g><g><g><g><g transform="matrix(1,0,0,1,181.875,219.9)"><path transform="matrix(0.0119,0,0,-0.0119,0,0)" d="M167 420C188 420 201 421 226 424C171 350 72 266 72 126C72 44 107 -11 160 -11C224 -11 276 44 350 187C341 143 338 118 338 95C338 32 367 -11 412 -11C546 -11 699 238 699 384C699 441 673 482 637 482C624 482 612 478 604 470L554 423L565 404C574 410 583 413 592 413C619 413 635 390 635 350C635 205 538 39 453 39C424 39 403 79 403 134C403 181 412 247 424 290L476 474L469 482L395 460L366 311C354 249 340 209 311 155C271 80 233 39 203 39C168 39 145 78 145 136C145 255 186 352 285 464L275 482C255 473 242 470 214 470C186 470 144 472 115 475L103 476C97 477 92 477 91 477C79 477 70 475 59 470C45 443 34 407 21 352L43 352L60 394C67 411 87 422 111 422C145 422 128 420 167 420Z" stroke="rgb(0,0,0)" stroke-opacity="1" stroke-width="8" fill="rgb(0,0,0)" fill-opacity="1"></path></g></g><g><g><g><g><g transform="matrix(1,0,0,1,190.80206298828125,222.6633435058594)"><path transform="matrix(0.00833,0,0,-0.00833,0,0)" d="M16 23L16 -3C203 -3 203 0 239 0C275 0 275 -3 468 -3L468 82C353 77 307 81 122 77L304 270C401 373 431 428 431 503C431 618 353 689 226 689C154 689 105 669 56 619L39 483L68 483L81 529C97 587 133 612 200 612C286 612 341 558 341 473C341 398 299 324 186 204Z" stroke="rgb(0,0,0)" stroke-opacity="1" stroke-width="8" fill="rgb(0,0,0)" fill-opacity="1"></path></g></g></g></g></g></g></g><svg x="174.66668701171875" overflow="visible" y="191.66665649414062" height="33.333335876464844" width="5.3541669845581055"><path d=" M 4.19 1.19 l -0.07 -0.07 q -0.76 0.02 -1.51 0.02 q -0.71 0.00 -1.50 -0.02 l -0.11 0.15 q 0.11 0.40 0.11 2.20 v 0.60 h 1.00 v -0.60 q 0.00 -0.92 0.05 -1.50 q 0.04 -0.42 0.83 -0.42 h 1.15 l 0.05 -0.06 v -0.31 z  M 1.11 3.94 v 25.46 h 1.00 v -25.46 z " style="fill:rgb(0,0,0);fill-opacity:1;stroke-width:1px;stroke:none;stroke-opacity:1;"></path><path d=" M 4.19 32.14 l -0.07 0.07 q -0.76 -0.02 -1.51 -0.02 q -0.71 0.00 -1.50 0.02 l -0.11 -0.15 q 0.11 -0.40 0.11 -2.20 v -0.60 h 1.00 v 0.60 q 0.00 0.92 0.05 1.50 q 0.04 0.42 0.83 0.42 h 1.15 l 0.05 0.06 v 0.31 z" style="fill:rgb(0,0,0);fill-opacity:1;stroke-width:1px;stroke:none;stroke-opacity:1;"></path></svg><svg x="197.52081298828125" overflow="visible" y="191.66665649414062" height="33.333335876464844" width="5.3541669845581055"><path d=" M 1.10 1.19 l 0.07 -0.07 q 0.76 0.02 1.51 0.02 q 0.71 0.00 1.50 -0.02 l 0.11 0.15 q -0.11 0.40 -0.11 2.20 v 0.60 h -1.00 v -0.60 q 0.00 -0.92 -0.05 -1.50 q -0.04 -0.42 -0.83 -0.42 h -1.15 l -0.05 -0.06 v -0.31 z  M 4.18 3.94 v 25.46 h -1.00 v -25.46 z" style="fill:rgb(0,0,0);fill-opacity:1;stroke-width:1px;stroke:none;stroke-opacity:1;"></path><path d=" M 1.10 32.14 l 0.07 0.07 q 0.76 -0.02 1.51 -0.02 q 0.71 0.00 1.50 0.02 l 0.11 -0.15 q -0.11 -0.40 -0.11 -2.20 v -0.60 h -1.00 v 0.60 q 0.00 0.92 -0.05 1.50 q -0.04 0.42 -0.83 0.42 h -1.15 l -0.05 0.06 v 0.31 z" style="fill:rgb(0,0,0);fill-opacity:1;stroke-width:1px;stroke:none;stroke-opacity:1;"></path></svg><line stroke-dasharray="1" style="fill:none;stroke-width:[object Object];stroke:rgba(0, 0, 0, 0);" x1="177.97918701171875" y1="192" x2="199.56252098083496" y2="192"></line><line stroke-dasharray="1" style="fill:none;stroke-width:[object Object];stroke:rgba(0, 0, 0, 0);" x1="177.97918701171875" y1="192" x2="177.97918701171875" y2="208.3333339691162"></line><line stroke-dasharray="1" style="fill:none;stroke-width:[object Object];stroke:rgba(0, 0, 0, 0);" x1="199.56252098083496" y1="192" x2="199.56252098083496" y2="208.3333339691162"></line><line stroke-dasharray="1" style="fill:none;stroke-width:[object Object];stroke:rgba(0, 0, 0, 0);" x1="177.97918701171875" y1="208.3333339691162" x2="199.56252098083496" y2="208.3333339691162"></line><line stroke-dasharray="1" style="fill:none;stroke-width:[object Object];stroke:rgba(0, 0, 0, 0);" x1="177.97918701171875" y1="208.33334350585938" x2="199.56252098083496" y2="208.33334350585938"></line><line stroke-dasharray="1" style="fill:none;stroke-width:[object Object];stroke:rgba(0, 0, 0, 0);" x1="177.97918701171875" y1="208.33334350585938" x2="177.97918701171875" y2="224.6666774749756"></line><line stroke-dasharray="1" style="fill:none;stroke-width:[object Object];stroke:rgba(0, 0, 0, 0);" x1="199.56252098083496" y1="208.33334350585938" x2="199.56252098083496" y2="224.6666774749756"></line><line stroke-dasharray="1" style="fill:none;stroke-width:[object Object];stroke:rgba(0, 0, 0, 0);" x1="177.97918701171875" y1="224.6666774749756" x2="199.56252098083496" y2="224.6666774749756"></line></g></g></g><g><g><g><g transform="matrix(1,0,0,1,413.66668701171875,79.82084350585937)"><path transform="matrix(0.015300000000000001,0,0,-0.015300000000000001,0,0)" d="M342 330L365 330C373 395 380 432 389 458C365 473 330 482 293 482C248 483 175 463 118 400C64 352 25 241 25 136C25 40 67 -11 147 -11C201 -11 249 9 304 54L354 95L346 115L331 105C259 57 221 40 186 40C130 40 101 80 101 159C101 267 136 371 185 409C206 425 230 433 261 433C306 433 342 414 342 390Z" stroke="rgb(0,0,0)" stroke-opacity="1" stroke-width="8" fill="rgb(0,0,0)" fill-opacity="1"></path></g></g><g><g transform="matrix(1,0,0,1,422.9375,79.82084350585937)"><path transform="matrix(0.015300000000000001,0,0,-0.015300000000000001,0,0)" d="M124 319C94 319 67 291 67 261C67 231 94 203 123 203C155 203 183 230 183 260C183 291 155 319 124 319Z" stroke="rgb(0,0,0)" stroke-opacity="1" stroke-width="8" fill="rgb(0,0,0)" fill-opacity="1"></path></g></g><g><g><g><g><g transform="matrix(1,0,0,1,438.875,69.90415649414062)"><path transform="matrix(0.015300000000000001,0,0,-0.015300000000000001,0,0)" d="M167 420C188 420 201 421 226 424C171 350 72 266 72 126C72 44 107 -11 160 -11C224 -11 276 44 350 187C341 143 338 118 338 95C338 32 367 -11 412 -11C546 -11 699 238 699 384C699 441 673 482 637 482C624 482 612 478 604 470L554 423L565 404C574 410 583 413 592 413C619 413 635 390 635 350C635 205 538 39 453 39C424 39 403 79 403 134C403 181 412 247 424 290L476 474L469 482L395 460L366 311C354 249 340 209 311 155C271 80 233 39 203 39C168 39 145 78 145 136C145 255 186 352 285 464L275 482C255 473 242 470 214 470C186 470 144 472 115 475L103 476C97 477 92 477 91 477C79 477 70 475 59 470C45 443 34 407 21 352L43 352L60 394C67 411 87 422 111 422C145 422 128 420 167 420Z" stroke="rgb(0,0,0)" stroke-opacity="1" stroke-width="8" fill="rgb(0,0,0)" fill-opacity="1"></path></g></g><g><g><g><g><g transform="matrix(1,0,0,1,450.36456298828125,73.27250000000001)"><path transform="matrix(0.01071,0,0,-0.01071,0,0)" d="M418 -3L418 27L366 30C311 33 301 44 301 96L301 700L60 598L67 548L217 614L217 96C217 44 206 33 152 30L96 27L96 -3C250 0 250 0 261 0C292 0 402 -3 418 -3Z" stroke="rgb(0,0,0)" stroke-opacity="1" stroke-width="8" fill="rgb(0,0,0)" fill-opacity="1"></path></g></g></g></g></g></g></g><g><g><g><g transform="matrix(1,0,0,1,438.875,90.70625)"><path transform="matrix(0.015300000000000001,0,0,-0.015300000000000001,0,0)" d="M167 420C188 420 201 421 226 424C171 350 72 266 72 126C72 44 107 -11 160 -11C224 -11 276 44 350 187C341 143 338 118 338 95C338 32 367 -11 412 -11C546 -11 699 238 699 384C699 441 673 482 637 482C624 482 612 478 604 470L554 423L565 404C574 410 583 413 592 413C619 413 635 390 635 350C635 205 538 39 453 39C424 39 403 79 403 134C403 181 412 247 424 290L476 474L469 482L395 460L366 311C354 249 340 209 311 155C271 80 233 39 203 39C168 39 145 78 145 136C145 255 186 352 285 464L275 482C255 473 242 470 214 470C186 470 144 472 115 475L103 476C97 477 92 477 91 477C79 477 70 475 59 470C45 443 34 407 21 352L43 352L60 394C67 411 87 422 111 422C145 422 128 420 167 420Z" stroke="rgb(0,0,0)" stroke-opacity="1" stroke-width="8" fill="rgb(0,0,0)" fill-opacity="1"></path></g></g><g><g><g><g><g transform="matrix(1,0,0,1,450.36456298828125,94.07459350585938)"><path transform="matrix(0.01071,0,0,-0.01071,0,0)" d="M16 23L16 -3C203 -3 203 0 239 0C275 0 275 -3 468 -3L468 82C353 77 307 81 122 77L304 270C401 373 431 428 431 503C431 618 353 689 226 689C154 689 105 669 56 619L39 483L68 483L81 529C97 587 133 612 200 612C286 612 341 558 341 473C341 398 299 324 186 204Z" stroke="rgb(0,0,0)" stroke-opacity="1" stroke-width="8" fill="rgb(0,0,0)" fill-opacity="1"></path></g></g></g></g></g></g></g><svg x="429.80206298828125" overflow="visible" y="54.604156494140625" height="42.270835876464844" width="6.875"><path d=" M 5.39 1.53 l -0.09 -0.09 q -0.98 0.03 -1.94 0.03 q -0.92 0.00 -1.93 -0.03 l -0.14 0.20 q 0.14 0.52 0.14 2.83 v 0.77 h 1.29 v -0.77 q 0.00 -1.18 0.06 -1.93 q 0.05 -0.54 1.07 -0.54 h 1.48 l 0.06 -0.08 v -0.40 z  M 1.42 5.06 v 32.14 h 1.29 v -32.14 z " style="fill:rgb(0,0,0);fill-opacity:1;stroke-width:1px;stroke:none;stroke-opacity:1;"></path><path d=" M 5.39 40.74 l -0.09 0.09 q -0.98 -0.03 -1.94 -0.03 q -0.92 0.00 -1.93 0.03 l -0.14 -0.20 q 0.14 -0.52 0.14 -2.83 v -0.77 h 1.29 v 0.77 q 0.00 1.18 0.06 1.93 q 0.05 0.54 1.07 0.54 h 1.48 l 0.06 0.08 v 0.40 z" style="fill:rgb(0,0,0);fill-opacity:1;stroke-width:1px;stroke:none;stroke-opacity:1;"></path></svg><svg x="458.82293701171875" overflow="visible" y="54.604156494140625" height="42.270835876464844" width="6.875"><path d=" M 1.41 1.53 l 0.09 -0.09 q 0.98 0.03 1.94 0.03 q 0.92 0.00 1.93 -0.03 l 0.14 0.20 q -0.14 0.52 -0.14 2.83 v 0.77 h -1.29 v -0.77 q 0.00 -1.18 -0.06 -1.93 q -0.05 -0.54 -1.07 -0.54 h -1.48 l -0.06 -0.08 v -0.40 z  M 5.38 5.06 v 32.14 h -1.29 v -32.14 z" style="fill:rgb(0,0,0);fill-opacity:1;stroke-width:1px;stroke:none;stroke-opacity:1;"></path><path d=" M 1.41 40.74 l 0.09 0.09 q 0.98 -0.03 1.94 -0.03 q 0.92 0.00 1.93 0.03 l 0.14 -0.20 q -0.14 -0.52 -0.14 -2.83 v -0.77 h -1.29 v 0.77 q 0.00 1.18 -0.06 1.93 q -0.05 0.54 -1.07 0.54 h -1.48 l -0.06 0.08 v 0.40 z" style="fill:rgb(0,0,0);fill-opacity:1;stroke-width:1px;stroke:none;stroke-opacity:1;"></path></svg><line stroke-dasharray="1" style="fill:none;stroke-width:[object Object];stroke:rgba(0, 0, 0, 0);" x1="433.95831298828125" y1="54.9375" x2="461.54164695739746" y2="54.9375"></line><line stroke-dasharray="1" style="fill:none;stroke-width:[object Object];stroke:rgba(0, 0, 0, 0);" x1="433.95831298828125" y1="54.9375" x2="433.95831298828125" y2="75.73958396911621"></line><line stroke-dasharray="1" style="fill:none;stroke-width:[object Object];stroke:rgba(0, 0, 0, 0);" x1="461.54164695739746" y1="54.9375" x2="461.54164695739746" y2="75.73958396911621"></line><line stroke-dasharray="1" style="fill:none;stroke-width:[object Object];stroke:rgba(0, 0, 0, 0);" x1="433.95831298828125" y1="75.73958396911621" x2="461.54164695739746" y2="75.73958396911621"></line><line stroke-dasharray="1" style="fill:none;stroke-width:[object Object];stroke:rgba(0, 0, 0, 0);" x1="433.95831298828125" y1="75.73959350585938" x2="461.54164695739746" y2="75.73959350585938"></line><line stroke-dasharray="1" style="fill:none;stroke-width:[object Object];stroke:rgba(0, 0, 0, 0);" x1="433.95831298828125" y1="75.73959350585938" x2="433.95831298828125" y2="96.54167747497559"></line><line stroke-dasharray="1" style="fill:none;stroke-width:[object Object];stroke:rgba(0, 0, 0, 0);" x1="461.54164695739746" y1="75.73959350585938" x2="461.54164695739746" y2="96.54167747497559"></line><line stroke-dasharray="1" style="fill:none;stroke-width:[object Object];stroke:rgba(0, 0, 0, 0);" x1="433.95831298828125" y1="96.54167747497559" x2="461.54164695739746" y2="96.54167747497559"></line></g><g><g transform="matrix(1,0,0,1,465.69793701171875,79.82084350585937)"><path transform="matrix(0.015300000000000001,0,0,-0.015300000000000001,0,0)" d="" stroke="rgb(0,0,0)" stroke-opacity="1" stroke-width="8" fill="rgb(0,0,0)" fill-opacity="1"></path></g></g><g><g transform="matrix(1,0,0,1,474.09375,79.82084350585937)"><path transform="matrix(0.015300000000000001,0,0,-0.015300000000000001,0,0)" d="M604 347L604 406L65 406L65 347ZM604 134L604 193L65 193L65 134Z" stroke="rgb(0,0,0)" stroke-opacity="1" stroke-width="8" fill="rgb(0,0,0)" fill-opacity="1"></path></g></g><g><g transform="matrix(1,0,0,1,488.89581298828125,79.82084350585937)"><path transform="matrix(0.015300000000000001,0,0,-0.015300000000000001,0,0)" d="" stroke="rgb(0,0,0)" stroke-opacity="1" stroke-width="8" fill="rgb(0,0,0)" fill-opacity="1"></path></g></g><g><svg x="493.77081298828125" overflow="visible" y="53.1875" height="49" width="7.645833492279053"><path d=" M 5.65 1.53 c 0.00 -0.05 -0.04 -0.07 -0.08 -0.07 c -0.03 0.00 -0.05 0.01 -0.08 0.02 c -2.29 1.20 -4.18 3.36 -4.18 8.46 v 0.54 h 1.38 v -0.54 c 0.00 -2.91 0.58 -6.32 2.98 -8.15 c 0.11 -0.08 0.11 -0.17 0.11 -0.26 z   M 1.29 10.48 v 28.05 h 1.38 v -28.05 z" style="fill:rgb(0,0,0);fill-opacity:1;stroke-width:1px;stroke:none;stroke-opacity:1;"></path><path d=" M 5.65 47.47 c 0.00 0.05 -0.04 0.07 -0.08 0.07 c -0.03 0.00 -0.05 -0.01 -0.08 -0.02 c -2.29 -1.20 -4.18 -3.36 -4.18 -8.46 v -0.54 h 1.38 v 0.54 c 0.00 2.91 0.58 6.32 2.98 8.15 c 0.11 0.08 0.11 0.17 0.11 0.26 z" style="fill:rgb(0,0,0);fill-opacity:1;stroke-width:1px;stroke:none;stroke-opacity:1;"></path></svg></g><g><g><g><g><g transform="matrix(1,0,0,1,501.41668701171875,67.68540649414062)"><path transform="matrix(0.015300000000000001,0,0,-0.015300000000000001,0,0)" d="M9 1C24 -7 40 -11 52 -11C85 -11 124 18 155 65L231 182L242 113C255 28 278 -11 314 -11C336 -11 368 6 400 35L449 79L440 98C404 68 379 53 363 53C348 53 335 63 325 83C316 102 305 139 300 168L282 269L317 318C364 383 391 406 422 406C438 406 450 398 455 383L469 387L484 472C472 479 463 482 454 482C414 482 374 446 312 354L275 299L269 347C257 446 230 482 171 482C145 482 123 474 114 461L56 378L73 368C103 402 123 416 142 416C175 416 197 375 214 277L225 215L185 153C142 86 108 54 80 54C65 54 54 58 52 63L41 91L21 88C21 53 13 27 9 1Z" stroke="rgb(0,0,0)" stroke-opacity="1" stroke-width="8" fill="rgb(0,0,0)" fill-opacity="1"></path></g></g><g><g><g><g><g transform="matrix(1,0,0,1,509.51043701171875,71.05375000000001)"><path transform="matrix(0.01071,0,0,-0.01071,0,0)" d="M418 -3L418 27L366 30C311 33 301 44 301 96L301 700L60 598L67 548L217 614L217 96C217 44 206 33 152 30L96 27L96 -3C250 0 250 0 261 0C292 0 402 -3 418 -3Z" stroke="rgb(0,0,0)" stroke-opacity="1" stroke-width="8" fill="rgb(0,0,0)" fill-opacity="1"></path></g></g></g></g></g><g><g transform="matrix(1,0,0,1,515.7708129882812,67.68540649414062)"><path transform="matrix(0.015300000000000001,0,0,-0.015300000000000001,0,0)" d="M167 420C188 420 201 421 226 424C171 350 72 266 72 126C72 44 107 -11 160 -11C224 -11 276 44 350 187C341 143 338 118 338 95C338 32 367 -11 412 -11C546 -11 699 238 699 384C699 441 673 482 637 482C624 482 612 478 604 470L554 423L565 404C574 410 583 413 592 413C619 413 635 390 635 350C635 205 538 39 453 39C424 39 403 79 403 134C403 181 412 247 424 290L476 474L469 482L395 460L366 311C354 249 340 209 311 155C271 80 233 39 203 39C168 39 145 78 145 136C145 255 186 352 285 464L275 482C255 473 242 470 214 470C186 470 144 472 115 475L103 476C97 477 92 477 91 477C79 477 70 475 59 470C45 443 34 407 21 352L43 352L60 394C67 411 87 422 111 422C145 422 128 420 167 420Z" stroke="rgb(0,0,0)" stroke-opacity="1" stroke-width="8" fill="rgb(0,0,0)" fill-opacity="1"></path></g></g><g><g><g><g><g transform="matrix(1,0,0,1,527.2604370117188,71.05375000000001)"><path transform="matrix(0.01071,0,0,-0.01071,0,0)" d="M418 -3L418 27L366 30C311 33 301 44 301 96L301 700L60 598L67 548L217 614L217 96C217 44 206 33 152 30L96 27L96 -3C250 0 250 0 261 0C292 0 402 -3 418 -3Z" stroke="rgb(0,0,0)" stroke-opacity="1" stroke-width="8" fill="rgb(0,0,0)" fill-opacity="1"></path></g></g></g></g></g><g><g transform="matrix(1,0,0,1,536.5729370117188,67.68540649414062)"><path transform="matrix(0.015300000000000001,0,0,-0.015300000000000001,0,0)" d="M604 241L604 300L364 300L364 538L305 538L305 300L65 300L65 241L305 241L305 0L364 0L364 241Z" stroke="rgb(0,0,0)" stroke-opacity="1" stroke-width="8" fill="rgb(0,0,0)" fill-opacity="1"></path></g></g><g><g transform="matrix(1,0,0,1,549.84375,67.68540649414062)"><path transform="matrix(0.015300000000000001,0,0,-0.015300000000000001,0,0)" d="M9 1C24 -7 40 -11 52 -11C85 -11 124 18 155 65L231 182L242 113C255 28 278 -11 314 -11C336 -11 368 6 400 35L449 79L440 98C404 68 379 53 363 53C348 53 335 63 325 83C316 102 305 139 300 168L282 269L317 318C364 383 391 406 422 406C438 406 450 398 455 383L469 387L484 472C472 479 463 482 454 482C414 482 374 446 312 354L275 299L269 347C257 446 230 482 171 482C145 482 123 474 114 461L56 378L73 368C103 402 123 416 142 416C175 416 197 375 214 277L225 215L185 153C142 86 108 54 80 54C65 54 54 58 52 63L41 91L21 88C21 53 13 27 9 1Z" stroke="rgb(0,0,0)" stroke-opacity="1" stroke-width="8" fill="rgb(0,0,0)" fill-opacity="1"></path></g></g><g><g><g><g><g transform="matrix(1,0,0,1,557.9375,71.05375000000001)"><path transform="matrix(0.01071,0,0,-0.01071,0,0)" d="M16 23L16 -3C203 -3 203 0 239 0C275 0 275 -3 468 -3L468 82C353 77 307 81 122 77L304 270C401 373 431 428 431 503C431 618 353 689 226 689C154 689 105 669 56 619L39 483L68 483L81 529C97 587 133 612 200 612C286 612 341 558 341 473C341 398 299 324 186 204Z" stroke="rgb(0,0,0)" stroke-opacity="1" stroke-width="8" fill="rgb(0,0,0)" fill-opacity="1"></path></g></g></g></g></g><g><g transform="matrix(1,0,0,1,564.1979370117188,67.68540649414062)"><path transform="matrix(0.015300000000000001,0,0,-0.015300000000000001,0,0)" d="M167 420C188 420 201 421 226 424C171 350 72 266 72 126C72 44 107 -11 160 -11C224 -11 276 44 350 187C341 143 338 118 338 95C338 32 367 -11 412 -11C546 -11 699 238 699 384C699 441 673 482 637 482C624 482 612 478 604 470L554 423L565 404C574 410 583 413 592 413C619 413 635 390 635 350C635 205 538 39 453 39C424 39 403 79 403 134C403 181 412 247 424 290L476 474L469 482L395 460L366 311C354 249 340 209 311 155C271 80 233 39 203 39C168 39 145 78 145 136C145 255 186 352 285 464L275 482C255 473 242 470 214 470C186 470 144 472 115 475L103 476C97 477 92 477 91 477C79 477 70 475 59 470C45 443 34 407 21 352L43 352L60 394C67 411 87 422 111 422C145 422 128 420 167 420Z" stroke="rgb(0,0,0)" stroke-opacity="1" stroke-width="8" fill="rgb(0,0,0)" fill-opacity="1"></path></g></g><g><g><g><g><g transform="matrix(1,0,0,1,575.6875,71.05375000000001)"><path transform="matrix(0.01071,0,0,-0.01071,0,0)" d="M16 23L16 -3C203 -3 203 0 239 0C275 0 275 -3 468 -3L468 82C353 77 307 81 122 77L304 270C401 373 431 428 431 503C431 618 353 689 226 689C154 689 105 669 56 619L39 483L68 483L81 529C97 587 133 612 200 612C286 612 341 558 341 473C341 398 299 324 186 204Z" stroke="rgb(0,0,0)" stroke-opacity="1" stroke-width="8" fill="rgb(0,0,0)" fill-opacity="1"></path></g></g></g></g></g></g></g><g><g><g><g transform="matrix(1,0,0,1,515.34375,93.53959350585937)"><path transform="matrix(0.015300000000000001,0,0,-0.015300000000000001,0,0)" d="M167 420C188 420 201 421 226 424C171 350 72 266 72 126C72 44 107 -11 160 -11C224 -11 276 44 350 187C341 143 338 118 338 95C338 32 367 -11 412 -11C546 -11 699 238 699 384C699 441 673 482 637 482C624 482 612 478 604 470L554 423L565 404C574 410 583 413 592 413C619 413 635 390 635 350C635 205 538 39 453 39C424 39 403 79 403 134C403 181 412 247 424 290L476 474L469 482L395 460L366 311C354 249 340 209 311 155C271 80 233 39 203 39C168 39 145 78 145 136C145 255 186 352 285 464L275 482C255 473 242 470 214 470C186 470 144 472 115 475L103 476C97 477 92 477 91 477C79 477 70 475 59 470C45 443 34 407 21 352L43 352L60 394C67 411 87 422 111 422C145 422 128 420 167 420Z" stroke="rgb(0,0,0)" stroke-opacity="1" stroke-width="8" fill="rgb(0,0,0)" fill-opacity="1"></path></g></g><g><g><g><g><g transform="matrix(1,0,0,1,527.2604370117188,88.25165649414063)"><path transform="matrix(0.01071,0,0,-0.01071,0,0)" d="M16 23L16 -3C203 -3 203 0 239 0C275 0 275 -3 468 -3L468 82C353 77 307 81 122 77L304 270C401 373 431 428 431 503C431 618 353 689 226 689C154 689 105 669 56 619L39 483L68 483L81 529C97 587 133 612 200 612C286 612 341 558 341 473C341 398 299 324 186 204Z" stroke="rgb(0,0,0)" stroke-opacity="1" stroke-width="8" fill="rgb(0,0,0)" fill-opacity="1"></path></g></g></g></g><g><g><g><g transform="matrix(1,0,0,1,526.8333129882812,98.38709350585938)"><path transform="matrix(0.01071,0,0,-0.01071,0,0)" d="M418 -3L418 27L366 30C311 33 301 44 301 96L301 700L60 598L67 548L217 614L217 96C217 44 206 33 152 30L96 27L96 -3C250 0 250 0 261 0C292 0 402 -3 418 -3Z" stroke="rgb(0,0,0)" stroke-opacity="1" stroke-width="8" fill="rgb(0,0,0)" fill-opacity="1"></path></g></g></g></g></g><g><g transform="matrix(1,0,0,1,536.5729370117188,93.53959350585937)"><path transform="matrix(0.015300000000000001,0,0,-0.015300000000000001,0,0)" d="M604 241L604 300L364 300L364 538L305 538L305 300L65 300L65 241L305 241L305 0L364 0L364 241Z" stroke="rgb(0,0,0)" stroke-opacity="1" stroke-width="8" fill="rgb(0,0,0)" fill-opacity="1"></path></g></g><g><g transform="matrix(1,0,0,1,549.84375,93.53959350585937)"><path transform="matrix(0.015300000000000001,0,0,-0.015300000000000001,0,0)" d="M167 420C188 420 201 421 226 424C171 350 72 266 72 126C72 44 107 -11 160 -11C224 -11 276 44 350 187C341 143 338 118 338 95C338 32 367 -11 412 -11C546 -11 699 238 699 384C699 441 673 482 637 482C624 482 612 478 604 470L554 423L565 404C574 410 583 413 592 413C619 413 635 390 635 350C635 205 538 39 453 39C424 39 403 79 403 134C403 181 412 247 424 290L476 474L469 482L395 460L366 311C354 249 340 209 311 155C271 80 233 39 203 39C168 39 145 78 145 136C145 255 186 352 285 464L275 482C255 473 242 470 214 470C186 470 144 472 115 475L103 476C97 477 92 477 91 477C79 477 70 475 59 470C45 443 34 407 21 352L43 352L60 394C67 411 87 422 111 422C145 422 128 420 167 420Z" stroke="rgb(0,0,0)" stroke-opacity="1" stroke-width="8" fill="rgb(0,0,0)" fill-opacity="1"></path></g></g><g><g><g><g><g transform="matrix(1,0,0,1,561.7604370117188,88.25165649414063)"><path transform="matrix(0.01071,0,0,-0.01071,0,0)" d="M16 23L16 -3C203 -3 203 0 239 0C275 0 275 -3 468 -3L468 82C353 77 307 81 122 77L304 270C401 373 431 428 431 503C431 618 353 689 226 689C154 689 105 669 56 619L39 483L68 483L81 529C97 587 133 612 200 612C286 612 341 558 341 473C341 398 299 324 186 204Z" stroke="rgb(0,0,0)" stroke-opacity="1" stroke-width="8" fill="rgb(0,0,0)" fill-opacity="1"></path></g></g></g></g><g><g><g><g transform="matrix(1,0,0,1,561.3333129882812,98.38709350585938)"><path transform="matrix(0.01071,0,0,-0.01071,0,0)" d="M16 23L16 -3C203 -3 203 0 239 0C275 0 275 -3 468 -3L468 82C353 77 307 81 122 77L304 270C401 373 431 428 431 503C431 618 353 689 226 689C154 689 105 669 56 619L39 483L68 483L81 529C97 587 133 612 200 612C286 612 341 558 341 473C341 398 299 324 186 204Z" stroke="rgb(0,0,0)" stroke-opacity="1" stroke-width="8" fill="rgb(0,0,0)" fill-opacity="1"></path></g></g></g></g></g></g></g><line style="fill:none;stroke-width:0.666667px;stroke:rgb(0, 0, 0);" x1="501.41668701171875" y1="76.03126019239426" x2="581.9479370117188" y2="76.03126019239426"></line></g><g><svg x="581.9479370117188" overflow="visible" y="53.1875" height="49" width="7.645833492279053"><path d=" M 1.57 1.53 c 0.00 -0.05 0.04 -0.07 0.08 -0.07 c 0.03 0.00 0.05 0.01 0.08 0.02 c 2.29 1.20 4.18 3.36 4.18 8.46 v 0.54 h -1.38 v -0.54 c 0.00 -2.91 -0.58 -6.32 -2.98 -8.15 c -0.11 -0.08 -0.11 -0.17 -0.11 -0.26 z  M 5.93 10.48 v 28.05 h -1.38 v -28.05 z" style="fill:rgb(0,0,0);fill-opacity:1;stroke-width:1px;stroke:none;stroke-opacity:1;"></path><path d=" M 1.57 47.47 c 0.00 0.05 0.04 0.07 0.08 0.07 c 0.03 0.00 0.05 -0.01 0.08 -0.02 c 2.29 -1.20 4.18 -3.36 4.18 -8.46 v -0.54 h -1.38 v 0.54 c 0.00 2.91 -0.58 6.32 -2.98 8.15 c -0.11 0.08 -0.11 0.17 -0.11 0.26 z" style="fill:rgb(0,0,0);fill-opacity:1;stroke-width:1px;stroke:none;stroke-opacity:1;"></path></svg></g><g><g transform="matrix(1,0,0,1,593.7083129882812,79.82084350585937)"><path transform="matrix(0.015300000000000001,0,0,-0.015300000000000001,0,0)" d="M124 319C94 319 67 291 67 261C67 231 94 203 123 203C155 203 183 230 183 260C183 291 155 319 124 319Z" stroke="rgb(0,0,0)" stroke-opacity="1" stroke-width="8" fill="rgb(0,0,0)" fill-opacity="1"></path></g></g><g><g><g><g><g transform="matrix(1,0,0,1,609.6458129882812,69.90415649414062)"><path transform="matrix(0.015300000000000001,0,0,-0.015300000000000001,0,0)" d="M167 420C188 420 201 421 226 424C171 350 72 266 72 126C72 44 107 -11 160 -11C224 -11 276 44 350 187C341 143 338 118 338 95C338 32 367 -11 412 -11C546 -11 699 238 699 384C699 441 673 482 637 482C624 482 612 478 604 470L554 423L565 404C574 410 583 413 592 413C619 413 635 390 635 350C635 205 538 39 453 39C424 39 403 79 403 134C403 181 412 247 424 290L476 474L469 482L395 460L366 311C354 249 340 209 311 155C271 80 233 39 203 39C168 39 145 78 145 136C145 255 186 352 285 464L275 482C255 473 242 470 214 470C186 470 144 472 115 475L103 476C97 477 92 477 91 477C79 477 70 475 59 470C45 443 34 407 21 352L43 352L60 394C67 411 87 422 111 422C145 422 128 420 167 420Z" stroke="rgb(0,0,0)" stroke-opacity="1" stroke-width="8" fill="rgb(0,0,0)" fill-opacity="1"></path></g></g><g><g><g><g><g transform="matrix(1,0,0,1,621.1354370117188,73.27250000000001)"><path transform="matrix(0.01071,0,0,-0.01071,0,0)" d="M418 -3L418 27L366 30C311 33 301 44 301 96L301 700L60 598L67 548L217 614L217 96C217 44 206 33 152 30L96 27L96 -3C250 0 250 0 261 0C292 0 402 -3 418 -3Z" stroke="rgb(0,0,0)" stroke-opacity="1" stroke-width="8" fill="rgb(0,0,0)" fill-opacity="1"></path></g></g></g></g></g></g></g><g><g><g><g transform="matrix(1,0,0,1,609.6458129882812,90.70625)"><path transform="matrix(0.015300000000000001,0,0,-0.015300000000000001,0,0)" d="M167 420C188 420 201 421 226 424C171 350 72 266 72 126C72 44 107 -11 160 -11C224 -11 276 44 350 187C341 143 338 118 338 95C338 32 367 -11 412 -11C546 -11 699 238 699 384C699 441 673 482 637 482C624 482 612 478 604 470L554 423L565 404C574 410 583 413 592 413C619 413 635 390 635 350C635 205 538 39 453 39C424 39 403 79 403 134C403 181 412 247 424 290L476 474L469 482L395 460L366 311C354 249 340 209 311 155C271 80 233 39 203 39C168 39 145 78 145 136C145 255 186 352 285 464L275 482C255 473 242 470 214 470C186 470 144 472 115 475L103 476C97 477 92 477 91 477C79 477 70 475 59 470C45 443 34 407 21 352L43 352L60 394C67 411 87 422 111 422C145 422 128 420 167 420Z" stroke="rgb(0,0,0)" stroke-opacity="1" stroke-width="8" fill="rgb(0,0,0)" fill-opacity="1"></path></g></g><g><g><g><g><g transform="matrix(1,0,0,1,621.1354370117188,94.07459350585938)"><path transform="matrix(0.01071,0,0,-0.01071,0,0)" d="M16 23L16 -3C203 -3 203 0 239 0C275 0 275 -3 468 -3L468 82C353 77 307 81 122 77L304 270C401 373 431 428 431 503C431 618 353 689 226 689C154 689 105 669 56 619L39 483L68 483L81 529C97 587 133 612 200 612C286 612 341 558 341 473C341 398 299 324 186 204Z" stroke="rgb(0,0,0)" stroke-opacity="1" stroke-width="8" fill="rgb(0,0,0)" fill-opacity="1"></path></g></g></g></g></g></g></g><svg x="600.5729370117188" overflow="visible" y="54.604156494140625" height="42.270835876464844" width="6.875"><path d=" M 5.39 1.53 l -0.09 -0.09 q -0.98 0.03 -1.94 0.03 q -0.92 0.00 -1.93 -0.03 l -0.14 0.20 q 0.14 0.52 0.14 2.83 v 0.77 h 1.29 v -0.77 q 0.00 -1.18 0.06 -1.93 q 0.05 -0.54 1.07 -0.54 h 1.48 l 0.06 -0.08 v -0.40 z  M 1.42 5.06 v 32.14 h 1.29 v -32.14 z " style="fill:rgb(0,0,0);fill-opacity:1;stroke-width:1px;stroke:none;stroke-opacity:1;"></path><path d=" M 5.39 40.74 l -0.09 0.09 q -0.98 -0.03 -1.94 -0.03 q -0.92 0.00 -1.93 0.03 l -0.14 -0.20 q 0.14 -0.52 0.14 -2.83 v -0.77 h 1.29 v 0.77 q 0.00 1.18 0.06 1.93 q 0.05 0.54 1.07 0.54 h 1.48 l 0.06 0.08 v 0.40 z" style="fill:rgb(0,0,0);fill-opacity:1;stroke-width:1px;stroke:none;stroke-opacity:1;"></path></svg><svg x="629.5938110351562" overflow="visible" y="54.604156494140625" height="42.270835876464844" width="6.875"><path d=" M 1.41 1.53 l 0.09 -0.09 q 0.98 0.03 1.94 0.03 q 0.92 0.00 1.93 -0.03 l 0.14 0.20 q -0.14 0.52 -0.14 2.83 v 0.77 h -1.29 v -0.77 q 0.00 -1.18 -0.06 -1.93 q -0.05 -0.54 -1.07 -0.54 h -1.48 l -0.06 -0.08 v -0.40 z  M 5.38 5.06 v 32.14 h -1.29 v -32.14 z" style="fill:rgb(0,0,0);fill-opacity:1;stroke-width:1px;stroke:none;stroke-opacity:1;"></path><path d=" M 1.41 40.74 l 0.09 0.09 q 0.98 -0.03 1.94 -0.03 q 0.92 0.00 1.93 0.03 l 0.14 -0.20 q -0.14 -0.52 -0.14 -2.83 v -0.77 h -1.29 v 0.77 q 0.00 1.18 -0.06 1.93 q -0.05 0.54 -1.07 0.54 h -1.48 l -0.06 0.08 v 0.40 z" style="fill:rgb(0,0,0);fill-opacity:1;stroke-width:1px;stroke:none;stroke-opacity:1;"></path></svg><line stroke-dasharray="1" style="fill:none;stroke-width:[object Object];stroke:rgba(0, 0, 0, 0);" x1="604.7291870117188" y1="54.9375" x2="632.312520980835" y2="54.9375"></line><line stroke-dasharray="1" style="fill:none;stroke-width:[object Object];stroke:rgba(0, 0, 0, 0);" x1="604.7291870117188" y1="54.9375" x2="604.7291870117188" y2="75.73958396911621"></line><line stroke-dasharray="1" style="fill:none;stroke-width:[object Object];stroke:rgba(0, 0, 0, 0);" x1="632.312520980835" y1="54.9375" x2="632.312520980835" y2="75.73958396911621"></line><line stroke-dasharray="1" style="fill:none;stroke-width:[object Object];stroke:rgba(0, 0, 0, 0);" x1="604.7291870117188" y1="75.73958396911621" x2="632.312520980835" y2="75.73958396911621"></line><line stroke-dasharray="1" style="fill:none;stroke-width:[object Object];stroke:rgba(0, 0, 0, 0);" x1="604.7291870117188" y1="75.73959350585938" x2="632.312520980835" y2="75.73959350585938"></line><line stroke-dasharray="1" style="fill:none;stroke-width:[object Object];stroke:rgba(0, 0, 0, 0);" x1="604.7291870117188" y1="75.73959350585938" x2="604.7291870117188" y2="96.54167747497559"></line><line stroke-dasharray="1" style="fill:none;stroke-width:[object Object];stroke:rgba(0, 0, 0, 0);" x1="632.312520980835" y1="75.73959350585938" x2="632.312520980835" y2="96.54167747497559"></line><line stroke-dasharray="1" style="fill:none;stroke-width:[object Object];stroke:rgba(0, 0, 0, 0);" x1="604.7291870117188" y1="96.54167747497559" x2="632.312520980835" y2="96.54167747497559"></line></g></g></g><g><g><g><g transform="matrix(1,0,0,1,476.25,137.8208435058594)"><path transform="matrix(0.015300000000000001,0,0,-0.015300000000000001,0,0)" d="M604 347L604 406L65 406L65 347ZM604 134L604 193L65 193L65 134Z" stroke="rgb(0,0,0)" stroke-opacity="1" stroke-width="8" fill="rgb(0,0,0)" fill-opacity="1"></path></g></g><g><g transform="matrix(1,0,0,1,491.05206298828125,137.8208435058594)"><path transform="matrix(0.015300000000000001,0,0,-0.015300000000000001,0,0)" d="" stroke="rgb(0,0,0)" stroke-opacity="1" stroke-width="8" fill="rgb(0,0,0)" fill-opacity="1"></path></g></g><g><svg x="495.92706298828125" overflow="visible" y="111.1875" height="47" width="7.645833492279053"><path d=" M 5.65 1.53 c 0.00 -0.05 -0.04 -0.07 -0.08 -0.07 c -0.03 0.00 -0.05 0.01 -0.08 0.02 c -2.29 1.20 -4.18 3.36 -4.18 8.46 v 0.54 h 1.38 v -0.54 c 0.00 -2.91 0.58 -6.32 2.98 -8.15 c 0.11 -0.08 0.11 -0.17 0.11 -0.26 z   M 1.29 10.48 v 26.05 h 1.38 v -26.05 z" style="fill:rgb(0,0,0);fill-opacity:1;stroke-width:1px;stroke:none;stroke-opacity:1;"></path><path d=" M 5.65 45.47 c 0.00 0.05 -0.04 0.07 -0.08 0.07 c -0.03 0.00 -0.05 -0.01 -0.08 -0.02 c -2.29 -1.20 -4.18 -3.36 -4.18 -8.46 v -0.54 h 1.38 v 0.54 c 0.00 2.91 0.58 6.32 2.98 8.15 c 0.11 0.08 0.11 0.17 0.11 0.26 z" style="fill:rgb(0,0,0);fill-opacity:1;stroke-width:1px;stroke:none;stroke-opacity:1;"></path></svg></g><g><g><g><g><g transform="matrix(1,0,0,1,508.33331298828125,127.46665649414062)"><path transform="matrix(0.015300000000000001,0,0,-0.015300000000000001,0,0)" d="M9 1C24 -7 40 -11 52 -11C85 -11 124 18 155 65L231 182L242 113C255 28 278 -11 314 -11C336 -11 368 6 400 35L449 79L440 98C404 68 379 53 363 53C348 53 335 63 325 83C316 102 305 139 300 168L282 269L317 318C364 383 391 406 422 406C438 406 450 398 455 383L469 387L484 472C472 479 463 482 454 482C414 482 374 446 312 354L275 299L269 347C257 446 230 482 171 482C145 482 123 474 114 461L56 378L73 368C103 402 123 416 142 416C175 416 197 375 214 277L225 215L185 153C142 86 108 54 80 54C65 54 54 58 52 63L41 91L21 88C21 53 13 27 9 1Z" stroke="rgb(0,0,0)" stroke-opacity="1" stroke-width="8" fill="rgb(0,0,0)" fill-opacity="1"></path></g></g><g><g><g><g><g transform="matrix(1,0,0,1,516.8541870117188,122.10584350585938)"><path transform="matrix(0.01071,0,0,-0.01071,0,0)" d="M390 646L463 646C541 646 577 641 580 629C583 621 585 602 584 592L580 528L608 528L635 692L544 691C456 690 388 689 353 689C316 689 252 690 166 691L71 692L53 528L82 528L97 588C102 610 109 626 115 633C121 640 159 646 196 646L308 646L222 125C206 34 204 31 164 28L113 25L109 -3L166 -2C206 -1 235 0 251 0C270 0 301 -1 340 -2L384 -3L387 25L328 28C302 29 292 37 292 58C292 67 293 74 296 93Z" stroke="rgb(0,0,0)" stroke-opacity="1" stroke-width="8" fill="rgb(0,0,0)" fill-opacity="1"></path></g></g></g></g></g><g><g transform="matrix(1,0,0,1,524.3020629882812,127.46665649414062)"><path transform="matrix(0.015300000000000001,0,0,-0.015300000000000001,0,0)" d="M167 420C188 420 201 421 226 424C171 350 72 266 72 126C72 44 107 -11 160 -11C224 -11 276 44 350 187C341 143 338 118 338 95C338 32 367 -11 412 -11C546 -11 699 238 699 384C699 441 673 482 637 482C624 482 612 478 604 470L554 423L565 404C574 410 583 413 592 413C619 413 635 390 635 350C635 205 538 39 453 39C424 39 403 79 403 134C403 181 412 247 424 290L476 474L469 482L395 460L366 311C354 249 340 209 311 155C271 80 233 39 203 39C168 39 145 78 145 136C145 255 186 352 285 464L275 482C255 473 242 470 214 470C186 470 144 472 115 475L103 476C97 477 92 477 91 477C79 477 70 475 59 470C45 443 34 407 21 352L43 352L60 394C67 411 87 422 111 422C145 422 128 420 167 420Z" stroke="rgb(0,0,0)" stroke-opacity="1" stroke-width="8" fill="rgb(0,0,0)" fill-opacity="1"></path></g></g></g></g><g><g><g><g transform="matrix(1,0,0,1,503.57293701171875,151.6125)"><path transform="matrix(0.015300000000000001,0,0,-0.015300000000000001,0,0)" d="M179.50274 -172L179.50274 713L120.50274 713L120.50274 -172ZM479.50274 -172L479.50274 713L420.50274 713L420.50274 -172Z" stroke="rgb(0,0,0)" stroke-opacity="1" stroke-width="8" fill="rgb(0,0,0)" fill-opacity="1"></path></g></g><g><g transform="matrix(1,0,0,1,512.75,151.6125)"><path transform="matrix(0.015300000000000001,0,0,-0.015300000000000001,0,0)" d="M167 420C188 420 201 421 226 424C171 350 72 266 72 126C72 44 107 -11 160 -11C224 -11 276 44 350 187C341 143 338 118 338 95C338 32 367 -11 412 -11C546 -11 699 238 699 384C699 441 673 482 637 482C624 482 612 478 604 470L554 423L565 404C574 410 583 413 592 413C619 413 635 390 635 350C635 205 538 39 453 39C424 39 403 79 403 134C403 181 412 247 424 290L476 474L469 482L395 460L366 311C354 249 340 209 311 155C271 80 233 39 203 39C168 39 145 78 145 136C145 255 186 352 285 464L275 482C255 473 242 470 214 470C186 470 144 472 115 475L103 476C97 477 92 477 91 477C79 477 70 475 59 470C45 443 34 407 21 352L43 352L60 394C67 411 87 422 111 422C145 422 128 420 167 420Z" stroke="rgb(0,0,0)" stroke-opacity="1" stroke-width="8" fill="rgb(0,0,0)" fill-opacity="1"></path></g></g><g><g transform="matrix(1,0,0,1,523.78125,151.6125)"><path transform="matrix(0.015300000000000001,0,0,-0.015300000000000001,0,0)" d="M179.50274 -172L179.50274 713L120.50274 713L120.50274 -172ZM479.50274 -172L479.50274 713L420.50274 713L420.50274 -172Z" stroke="rgb(0,0,0)" stroke-opacity="1" stroke-width="8" fill="rgb(0,0,0)" fill-opacity="1"></path></g></g><g><g><g><g><g transform="matrix(1,0,0,1,533.84375,146.25165649414063)"><path transform="matrix(0.01071,0,0,-0.01071,0,0)" d="M16 23L16 -3C203 -3 203 0 239 0C275 0 275 -3 468 -3L468 82C353 77 307 81 122 77L304 270C401 373 431 428 431 503C431 618 353 689 226 689C154 689 105 669 56 619L39 483L68 483L81 529C97 587 133 612 200 612C286 612 341 558 341 473C341 398 299 324 186 204Z" stroke="rgb(0,0,0)" stroke-opacity="1" stroke-width="8" fill="rgb(0,0,0)" fill-opacity="1"></path></g></g></g></g></g></g></g><line style="fill:none;stroke-width:0.666667px;stroke:rgb(0, 0, 0);" x1="503.57293701171875" y1="134.03126019239426" x2="540.1041870117188" y2="134.03126019239426"></line></g><g><svg x="540.1041870117188" overflow="visible" y="111.1875" height="47" width="7.645833492279053"><path d=" M 1.57 1.53 c 0.00 -0.05 0.04 -0.07 0.08 -0.07 c 0.03 0.00 0.05 0.01 0.08 0.02 c 2.29 1.20 4.18 3.36 4.18 8.46 v 0.54 h -1.38 v -0.54 c 0.00 -2.91 -0.58 -6.32 -2.98 -8.15 c -0.11 -0.08 -0.11 -0.17 -0.11 -0.26 z  M 5.93 10.48 v 26.05 h -1.38 v -26.05 z" style="fill:rgb(0,0,0);fill-opacity:1;stroke-width:1px;stroke:none;stroke-opacity:1;"></path><path d=" M 1.57 45.47 c 0.00 0.05 0.04 0.07 0.08 0.07 c 0.03 0.00 0.05 -0.01 0.08 -0.02 c 2.29 -1.20 4.18 -3.36 4.18 -8.46 v -0.54 h -1.38 v 0.54 c 0.00 2.91 -0.58 6.32 -2.98 8.15 c -0.11 0.08 -0.11 0.17 -0.11 0.26 z" style="fill:rgb(0,0,0);fill-opacity:1;stroke-width:1px;stroke:none;stroke-opacity:1;"></path></svg></g><g><g transform="matrix(1,0,0,1,551.8645629882812,137.8208435058594)"><path transform="matrix(0.015300000000000001,0,0,-0.015300000000000001,0,0)" d="M124 319C94 319 67 291 67 261C67 231 94 203 123 203C155 203 183 230 183 260C183 291 155 319 124 319Z" stroke="rgb(0,0,0)" stroke-opacity="1" stroke-width="8" fill="rgb(0,0,0)" fill-opacity="1"></path></g></g><g><g><g><g><g transform="matrix(1,0,0,1,567.8020629882812,127.90415649414062)"><path transform="matrix(0.015300000000000001,0,0,-0.015300000000000001,0,0)" d="M167 420C188 420 201 421 226 424C171 350 72 266 72 126C72 44 107 -11 160 -11C224 -11 276 44 350 187C341 143 338 118 338 95C338 32 367 -11 412 -11C546 -11 699 238 699 384C699 441 673 482 637 482C624 482 612 478 604 470L554 423L565 404C574 410 583 413 592 413C619 413 635 390 635 350C635 205 538 39 453 39C424 39 403 79 403 134C403 181 412 247 424 290L476 474L469 482L395 460L366 311C354 249 340 209 311 155C271 80 233 39 203 39C168 39 145 78 145 136C145 255 186 352 285 464L275 482C255 473 242 470 214 470C186 470 144 472 115 475L103 476C97 477 92 477 91 477C79 477 70 475 59 470C45 443 34 407 21 352L43 352L60 394C67 411 87 422 111 422C145 422 128 420 167 420Z" stroke="rgb(0,0,0)" stroke-opacity="1" stroke-width="8" fill="rgb(0,0,0)" fill-opacity="1"></path></g></g><g><g><g><g><g transform="matrix(1,0,0,1,579.2916870117188,131.2725)"><path transform="matrix(0.01071,0,0,-0.01071,0,0)" d="M418 -3L418 27L366 30C311 33 301 44 301 96L301 700L60 598L67 548L217 614L217 96C217 44 206 33 152 30L96 27L96 -3C250 0 250 0 261 0C292 0 402 -3 418 -3Z" stroke="rgb(0,0,0)" stroke-opacity="1" stroke-width="8" fill="rgb(0,0,0)" fill-opacity="1"></path></g></g></g></g></g></g></g><g><g><g><g transform="matrix(1,0,0,1,567.8020629882812,148.70625)"><path transform="matrix(0.015300000000000001,0,0,-0.015300000000000001,0,0)" d="M167 420C188 420 201 421 226 424C171 350 72 266 72 126C72 44 107 -11 160 -11C224 -11 276 44 350 187C341 143 338 118 338 95C338 32 367 -11 412 -11C546 -11 699 238 699 384C699 441 673 482 637 482C624 482 612 478 604 470L554 423L565 404C574 410 583 413 592 413C619 413 635 390 635 350C635 205 538 39 453 39C424 39 403 79 403 134C403 181 412 247 424 290L476 474L469 482L395 460L366 311C354 249 340 209 311 155C271 80 233 39 203 39C168 39 145 78 145 136C145 255 186 352 285 464L275 482C255 473 242 470 214 470C186 470 144 472 115 475L103 476C97 477 92 477 91 477C79 477 70 475 59 470C45 443 34 407 21 352L43 352L60 394C67 411 87 422 111 422C145 422 128 420 167 420Z" stroke="rgb(0,0,0)" stroke-opacity="1" stroke-width="8" fill="rgb(0,0,0)" fill-opacity="1"></path></g></g><g><g><g><g><g transform="matrix(1,0,0,1,579.2916870117188,152.07459350585938)"><path transform="matrix(0.01071,0,0,-0.01071,0,0)" d="M16 23L16 -3C203 -3 203 0 239 0C275 0 275 -3 468 -3L468 82C353 77 307 81 122 77L304 270C401 373 431 428 431 503C431 618 353 689 226 689C154 689 105 669 56 619L39 483L68 483L81 529C97 587 133 612 200 612C286 612 341 558 341 473C341 398 299 324 186 204Z" stroke="rgb(0,0,0)" stroke-opacity="1" stroke-width="8" fill="rgb(0,0,0)" fill-opacity="1"></path></g></g></g></g></g></g></g><svg x="558.7291870117188" overflow="visible" y="112.60415649414062" height="42.270835876464844" width="6.875"><path d=" M 5.39 1.53 l -0.09 -0.09 q -0.98 0.03 -1.94 0.03 q -0.92 0.00 -1.93 -0.03 l -0.14 0.20 q 0.14 0.52 0.14 2.83 v 0.77 h 1.29 v -0.77 q 0.00 -1.18 0.06 -1.93 q 0.05 -0.54 1.07 -0.54 h 1.48 l 0.06 -0.08 v -0.40 z  M 1.42 5.06 v 32.14 h 1.29 v -32.14 z " style="fill:rgb(0,0,0);fill-opacity:1;stroke-width:1px;stroke:none;stroke-opacity:1;"></path><path d=" M 5.39 40.74 l -0.09 0.09 q -0.98 -0.03 -1.94 -0.03 q -0.92 0.00 -1.93 0.03 l -0.14 -0.20 q 0.14 -0.52 0.14 -2.83 v -0.77 h 1.29 v 0.77 q 0.00 1.18 0.06 1.93 q 0.05 0.54 1.07 0.54 h 1.48 l 0.06 0.08 v 0.40 z" style="fill:rgb(0,0,0);fill-opacity:1;stroke-width:1px;stroke:none;stroke-opacity:1;"></path></svg><svg x="587.75" overflow="visible" y="112.60415649414062" height="42.270835876464844" width="6.875"><path d=" M 1.41 1.53 l 0.09 -0.09 q 0.98 0.03 1.94 0.03 q 0.92 0.00 1.93 -0.03 l 0.14 0.20 q -0.14 0.52 -0.14 2.83 v 0.77 h -1.29 v -0.77 q 0.00 -1.18 -0.06 -1.93 q -0.05 -0.54 -1.07 -0.54 h -1.48 l -0.06 -0.08 v -0.40 z  M 5.38 5.06 v 32.14 h -1.29 v -32.14 z" style="fill:rgb(0,0,0);fill-opacity:1;stroke-width:1px;stroke:none;stroke-opacity:1;"></path><path d=" M 1.41 40.74 l 0.09 0.09 q 0.98 -0.03 1.94 -0.03 q 0.92 0.00 1.93 0.03 l 0.14 -0.20 q -0.14 -0.52 -0.14 -2.83 v -0.77 h -1.29 v 0.77 q 0.00 1.18 -0.06 1.93 q -0.05 0.54 -1.07 0.54 h -1.48 l -0.06 0.08 v 0.40 z" style="fill:rgb(0,0,0);fill-opacity:1;stroke-width:1px;stroke:none;stroke-opacity:1;"></path></svg><line stroke-dasharray="1" style="fill:none;stroke-width:[object Object];stroke:rgba(0, 0, 0, 0);" x1="562.8854370117188" y1="112.9375" x2="590.468770980835" y2="112.9375"></line><line stroke-dasharray="1" style="fill:none;stroke-width:[object Object];stroke:rgba(0, 0, 0, 0);" x1="562.8854370117188" y1="112.9375" x2="562.8854370117188" y2="133.7395839691162"></line><line stroke-dasharray="1" style="fill:none;stroke-width:[object Object];stroke:rgba(0, 0, 0, 0);" x1="590.468770980835" y1="112.9375" x2="590.468770980835" y2="133.7395839691162"></line><line stroke-dasharray="1" style="fill:none;stroke-width:[object Object];stroke:rgba(0, 0, 0, 0);" x1="562.8854370117188" y1="133.7395839691162" x2="590.468770980835" y2="133.7395839691162"></line><line stroke-dasharray="1" style="fill:none;stroke-width:[object Object];stroke:rgba(0, 0, 0, 0);" x1="562.8854370117188" y1="133.73959350585938" x2="590.468770980835" y2="133.73959350585938"></line><line stroke-dasharray="1" style="fill:none;stroke-width:[object Object];stroke:rgba(0, 0, 0, 0);" x1="562.8854370117188" y1="133.73959350585938" x2="562.8854370117188" y2="154.5416774749756"></line><line stroke-dasharray="1" style="fill:none;stroke-width:[object Object];stroke:rgba(0, 0, 0, 0);" x1="590.468770980835" y1="133.73959350585938" x2="590.468770980835" y2="154.5416774749756"></line><line stroke-dasharray="1" style="fill:none;stroke-width:[object Object];stroke:rgba(0, 0, 0, 0);" x1="562.8854370117188" y1="154.5416774749756" x2="590.468770980835" y2="154.5416774749756"></line></g></g></g></svg>
</svg>
