<svg xmlns="http://www.w3.org/2000/svg" xmlns:xlink="http://www.w3.org/1999/xlink" x="0" y="0" width="661.3333740234375" height="301.3333435058594" style="
        width:661.3333740234375px;
        height:301.3333435058594px;
        background: #FFF;
        fill: none;
">
        
        
        <svg xmlns="http://www.w3.org/2000/svg" class="role-diagram-draw-area"><g class="shapes-region" style="stroke: black; fill: none;"><g class="composite-shape" data-amt="diagram/shapes/plot" transform="matrix(1,0,0,1,80,60)"><g><g/><g><g class="test-xti" style="font-family: Asana-Math, Asana;"><line x1="0" y1="150.64459161147903" x2="376" y2="150.64459161147903" fill="none" stroke="rgb(50,50,50)" stroke-opacity="1" stroke-width="1"/><line x1="21.038627476967253" y1="146.64459161147903" x2="21.038627476967253" y2="154.64459161147903" fill="none" stroke="rgb(50,50,50)" stroke-opacity="1" stroke-width="1"/><line x1="132.67862747696728" y1="146.64459161147903" x2="132.67862747696728" y2="154.64459161147903" fill="none" stroke="rgb(50,50,50)" stroke-opacity="1" stroke-width="1"/><line x1="188.49862747696727" y1="146.64459161147903" x2="188.49862747696727" y2="154.64459161147903" fill="none" stroke="rgb(50,50,50)" stroke-opacity="1" stroke-width="1"/><line x1="244.31862747696727" y1="146.64459161147903" x2="244.31862747696727" y2="154.64459161147903" fill="none" stroke="rgb(50,50,50)" stroke-opacity="1" stroke-width="1"/><line x1="300.1386274769673" y1="146.64459161147903" x2="300.1386274769673" y2="154.64459161147903" fill="none" stroke="rgb(50,50,50)" stroke-opacity="1" stroke-width="1"/><line x1="355.9586274769673" y1="146.64459161147903" x2="355.9586274769673" y2="154.64459161147903" fill="none" stroke="rgb(50,50,50)" stroke-opacity="1" stroke-width="1"/><path d="M371,147.04459161147904 L379,150.64459161147903 L371,154.24459161147902 Z" stroke="none" stroke-width="1" fill="rgb(50,50,50)" fill-opacity="1"/></g><g class="test-yti" style="font-family: Asana-Math, Asana;"><line x1="76.85862747696726" y1="4" x2="76.85862747696726" y2="220" fill="none" stroke="rgb(50,50,50)" stroke-opacity="1" stroke-width="1"/><line x1="72.85862747696726" y1="192.64459161147903" x2="80.85862747696726" y2="192.64459161147903" fill="none" stroke="rgb(50,50,50)" stroke-opacity="1" stroke-width="1"/><line x1="72.85862747696726" y1="108.64459161147904" x2="80.85862747696726" y2="108.64459161147904" fill="none" stroke="rgb(50,50,50)" stroke-opacity="1" stroke-width="1"/><line x1="72.85862747696726" y1="66.64459161147903" x2="80.85862747696726" y2="66.64459161147903" fill="none" stroke="rgb(50,50,50)" stroke-opacity="1" stroke-width="1"/><line x1="72.85862747696726" y1="24.64459161147903" x2="80.85862747696726" y2="24.64459161147903" fill="none" stroke="rgb(50,50,50)" stroke-opacity="1" stroke-width="1"/><path d="M73.25862747696726,9 L76.85862747696726,1 L80.45862747696725,9 Z" stroke="none" stroke-width="1" fill="rgb(50,50,50)" fill-opacity="1"/></g><g class="test-plot-expression"><defs><clipPath id="cpn9cwy8nwu"><rect x="1" y="1" width="378" height="218"/></clipPath></defs><g clip-path="url(#cpn9cwy8nwu)"><path d=" M76.86,150.64 L77.23,150.03 L77.59,149.42 L77.96,148.81 L78.33,148.20 L78.70,147.59 L79.06,146.98 L79.43,146.38 L79.80,145.78 L80.17,145.18 L80.54,144.58 L80.90,143.98 L81.27,143.38 L81.64,142.79 L82.01,142.20 L82.37,141.60 L82.74,141.01 L83.11,140.43 L83.48,139.84 L83.85,139.25 L84.21,138.67 L84.58,138.09 L84.95,137.51 L85.32,136.93 L85.68,136.35 L86.05,135.78 L86.42,135.21 L86.79,134.63 L87.15,134.06 L87.52,133.50 L87.89,132.93 L88.26,132.36 L88.63,131.80 L88.99,131.24 L89.36,130.68 L89.73,130.12 L90.10,129.56 L90.46,129.00 L90.83,128.45 L91.20,127.90 L91.57,127.35 L91.94,126.80 L92.30,126.25 L92.67,125.70 L93.04,125.16 L93.41,124.62 L93.77,124.08 L94.14,123.54 L94.51,123.00 L94.88,122.46 L95.24,121.93 L95.61,121.39 L95.98,120.86 L96.35,120.33 L96.72,119.81 L97.08,119.28 L97.45,118.75 L97.82,118.23 L98.19,117.71 L98.55,117.19 L98.92,116.67 L99.29,116.15 L99.66,115.64 L100.03,115.12 L100.39,114.61 L100.76,114.10 L101.13,113.59 L101.50,113.09 L101.86,112.58 L102.23,112.08 L102.60,111.57 L102.97,111.07 L103.33,110.58 L103.70,110.08 L104.07,109.58 L104.44,109.09 L104.81,108.60 L105.17,108.10 L105.54,107.62 L105.91,107.13 L106.28,106.64 L106.64,106.16 L107.01,105.67 L107.38,105.19 L107.75,104.71 L108.11,104.24 L108.48,103.76 L108.85,103.28 L109.22,102.81 L109.59,102.34 L109.95,101.87 L110.32,101.40 L110.69,100.94 L111.06,100.47 L111.42,100.01 L111.79,99.55 L112.16,99.09 L112.53,98.63 L112.90,98.17 L113.26,97.71 L113.63,97.26 L114.00,96.81 L114.37,96.36 L114.73,95.91 L115.10,95.46 L115.47,95.02 L115.84,94.57 L116.20,94.13 L116.57,93.69 L116.94,93.25 L117.31,92.81 L117.68,92.38 L118.04,91.94 L118.41,91.51 L118.78,91.08 L119.15,90.65 L119.51,90.22 L119.88,89.80 L120.25,89.37 L120.62,88.95 L120.99,88.53 L121.35,88.11 L121.72,87.69 L122.09,87.27 L122.46,86.86 L122.82,86.45 L123.19,86.03 L123.56,85.63 L123.93,85.22 L124.29,84.81 L124.66,84.41 L125.03,84.00 L125.40,83.60 L125.77,83.20 L126.13,82.80 L126.50,82.40 L126.87,82.01 L127.24,81.62 L127.60,81.22 L127.97,80.83 L128.34,80.44 L128.71,80.06 L129.07,79.67 L129.44,79.29 L129.81,78.90 L130.18,78.52 L130.55,78.14 L130.91,77.77 L131.28,77.39 L131.65,77.02 L132.02,76.64 L132.38,76.27 L132.75,75.90 L133.12,75.54 L133.49,75.17 L133.86,74.81 L134.22,74.44 L134.59,74.08 L134.96,73.72 L135.33,73.36 L135.69,73.01 L136.06,72.65 L136.43,72.30 L136.80,71.95 L137.16,71.60 L137.53,71.25 L137.90,70.90 L138.27,70.56 L138.64,70.21 L139.00,69.87 L139.37,69.53 L139.74,69.19 L140.11,68.86 L140.47,68.52 L140.84,68.19 L141.21,67.86 L141.58,67.52 L141.95,67.20 L142.31,66.87 L142.68,66.54 L143.05,66.22 L143.42,65.90 L143.78,65.58 L144.15,65.26 L144.52,64.94 L144.89,64.62 L145.25,64.31 L145.62,64.00 L145.99,63.69 L146.36,63.38 L146.73,63.07 L147.09,62.76 L147.46,62.46 L147.83,62.15 L148.20,61.85 L148.56,61.55 L148.93,61.25 L149.30,60.96 L149.67,60.66 L150.04,60.37 L150.40,60.08 L150.77,59.79 L151.14,59.50 L151.51,59.21 L151.87,58.93 L152.24,58.64 L152.61,58.36 L152.98,58.08 L153.34,57.80 L153.71,57.53 L154.08,57.25 L154.45,56.98 L154.82,56.71 L155.18,56.43 L155.55,56.17 L155.92,55.90 L156.29,55.63 L156.65,55.37 L157.02,55.11 L157.39,54.85 L157.76,54.59 L158.12,54.33 L158.49,54.07 L158.86,53.82 L159.23,53.57 L159.60,53.31 L159.96,53.07 L160.33,52.82 L160.70,52.57 L161.07,52.33 L161.43,52.08 L161.80,51.84 L162.17,51.60 L162.54,51.36 L162.91,51.13 L163.27,50.89 L163.64,50.66 L164.01,50.43 L164.38,50.20 L164.74,49.97 L165.11,49.74 L165.48,49.52 L165.85,49.29 L166.21,49.07 L166.58,48.85 L166.95,48.63 L167.32,48.42 L167.69,48.20 L168.05,47.99 L168.42,47.77 L168.79,47.56 L169.16,47.35 L169.52,47.15 L169.89,46.94 L170.26,46.74 L170.63,46.53 L171.00,46.33 L171.36,46.13 L171.73,45.94 L172.10,45.74 L172.47,45.55 L172.83,45.35 L173.20,45.16 L173.57,44.97 L173.94,44.78 L174.30,44.60 L174.67,44.41 L175.04,44.23 L175.41,44.05 L175.78,43.87 L176.14,43.69 L176.51,43.51 L176.88,43.34 L177.25,43.17 L177.61,42.99 L177.98,42.82 L178.35,42.66 L178.72,42.49 L179.08,42.32 L179.45,42.16 L179.82,42.00 L180.19,41.84 L180.56,41.68 L180.92,41.52 L181.29,41.37 L181.66,41.21 L182.03,41.06 L182.39,40.91 L182.76,40.76 L183.13,40.61 L183.50,40.47 L183.87,40.32 L184.23,40.18 L184.60,40.04 L184.97,39.90 L185.34,39.76 L185.70,39.63 L186.07,39.49 L186.44,39.36 L186.81,39.23 L187.17,39.10 L187.54,38.97 L187.91,38.84 L188.28,38.72 L188.65,38.60 L189.01,38.47 L189.38,38.35 L189.75,38.24 L190.12,38.12 L190.48,38.00 L190.85,37.89 L191.22,37.78 L191.59,37.67 L191.96,37.56 L192.32,37.45 L192.69,37.35 L193.06,37.24 L193.43,37.14 L193.79,37.04 L194.16,36.94 L194.53,36.85 L194.90,36.75 L195.26,36.66 L195.63,36.56 L196.00,36.47 L196.37,36.38 L196.74,36.30 L197.10,36.21 L197.47,36.13 L197.84,36.04 L198.21,35.96 L198.57,35.88 L198.94,35.81 L199.31,35.73 L199.68,35.65 L200.05,35.58 L200.41,35.51 L200.78,35.44 L201.15,35.37 L201.52,35.31 L201.88,35.24 L202.25,35.18 L202.62,35.12 L202.99,35.06 L203.35,35.00 L203.72,34.94 L204.09,34.89 L204.46,34.83 L204.83,34.78 L205.19,34.73 L205.56,34.68 L205.93,34.64 L206.30,34.59 L206.66,34.55 L207.03,34.50 L207.40,34.46 L207.77,34.43 L208.13,34.39 L208.50,34.35 L208.87,34.32 L209.24,34.29 L209.61,34.26 L209.97,34.23 L210.34,34.20 L210.71,34.17 L211.08,34.15 L211.44,34.13 L211.81,34.10 L212.18,34.09 L212.55,34.07 L212.92,34.05 L213.28,34.04 L213.65,34.02 L214.02,34.01 L214.39,34.00 L214.75,33.99 L215.12,33.99 L215.49,33.98 L215.86,33.98 L216.22,33.98 L216.59,33.98 L216.96,33.98 L217.33,33.98 L217.70,33.99 L218.06,33.99 L218.43,34.00 L218.80,34.01 L219.17,34.02 L219.53,34.04 L219.90,34.05 L220.27,34.07 L220.64,34.09 L221.01,34.10 L221.37,34.13 L221.74,34.15 L222.11,34.17 L222.48,34.20 L222.84,34.23 L223.21,34.26 L223.58,34.29 L223.95,34.32 L224.31,34.35 L224.68,34.39 L225.05,34.43 L225.42,34.46 L225.79,34.50 L226.15,34.55 L226.52,34.59 L226.89,34.64 L227.26,34.68 L227.62,34.73 L227.99,34.78 L228.36,34.83 L228.73,34.89 L229.09,34.94 L229.46,35.00 L229.83,35.06 L230.20,35.12 L230.57,35.18 L230.93,35.24 L231.30,35.31 L231.67,35.37 L232.04,35.44 L232.40,35.51 L232.77,35.58 L233.14,35.65 L233.51,35.73 L233.88,35.81 L234.24,35.88 L234.61,35.96 L234.98,36.04 L235.35,36.13 L235.71,36.21 L236.08,36.30 L236.45,36.38 L236.82,36.47 L237.18,36.56 L237.55,36.66 L237.92,36.75 L238.29,36.85 L238.66,36.94 L239.02,37.04 L239.39,37.14 L239.76,37.24 L240.13,37.35 L240.49,37.45 L240.86,37.56 L241.23,37.67 L241.60,37.78 L241.97,37.89 L242.33,38.00 L242.70,38.12 L243.07,38.24 L243.44,38.35 L243.80,38.47 L244.17,38.60 L244.54,38.72 L244.91,38.84 L245.27,38.97 L245.64,39.10 L246.01,39.23 L246.38,39.36 L246.75,39.49 L247.11,39.63 L247.48,39.76 L247.85,39.90 L248.22,40.04 L248.58,40.18 L248.95,40.32 L249.32,40.47 L249.69,40.61 L250.06,40.76 L250.42,40.91 L250.79,41.06 L251.16,41.21 L251.53,41.37 L251.89,41.52 L252.26,41.68 L252.63,41.84 L253.00,42.00 L253.36,42.16 L253.73,42.32 L254.10,42.49 L254.47,42.66 L254.84,42.82 L255.20,42.99 L255.57,43.17 L255.94,43.34 L256.31,43.51 L256.67,43.69 L257.04,43.87 L257.41,44.05 L257.78,44.23 L258.14,44.41 L258.51,44.60 L258.88,44.78 L259.25,44.97 L259.62,45.16 L259.98,45.35 L260.35,45.55 L260.72,45.74 L261.09,45.94 L261.45,46.13 L261.82,46.33 L262.19,46.53 L262.56,46.74 L262.93,46.94 L263.29,47.15 L263.66,47.35 L264.03,47.56 L264.40,47.77 L264.76,47.99 L265.13,48.20 L265.50,48.42 L265.87,48.63 L266.23,48.85 L266.60,49.07 L266.97,49.29 L267.34,49.52 L267.71,49.74 L268.07,49.97 L268.44,50.20 L268.81,50.43 L269.18,50.66 L269.54,50.89 L269.91,51.13 L270.28,51.36 L270.65,51.60 L271.02,51.84 L271.38,52.08 L271.75,52.33 L272.12,52.57 L272.49,52.82 L272.85,53.07 L273.22,53.31 L273.59,53.57 L273.96,53.82 L274.32,54.07 L274.69,54.33 L275.06,54.59 L275.43,54.85 L275.80,55.11 L276.16,55.37 L276.53,55.63 L276.90,55.90 L277.27,56.17 L277.63,56.43 L278.00,56.71 L278.37,56.98 L278.74,57.25 L279.11,57.53 L279.47,57.80 L279.84,58.08 L280.21,58.36 L280.58,58.64 L280.94,58.93 L281.31,59.21 L281.68,59.50 L282.05,59.79 L282.41,60.08 L282.78,60.37 L283.15,60.66 L283.52,60.96 L283.89,61.25 L284.25,61.55 L284.62,61.85 L284.99,62.15 L285.36,62.46 L285.72,62.76 L286.09,63.07 L286.46,63.38 L286.83,63.69 L287.19,64.00 L287.56,64.31 L287.93,64.62 L288.30,64.94 L288.67,65.26 L289.03,65.58 L289.40,65.90 L289.77,66.22 L290.14,66.54 L290.50,66.87 L290.87,67.20 L291.24,67.52 L291.61,67.86 L291.98,68.19 L292.34,68.52 L292.71,68.86 L293.08,69.19 L293.45,69.53 L293.81,69.87 L294.18,70.21 L294.55,70.56 L294.92,70.90 L295.28,71.25 L295.65,71.60 L296.02,71.95 L296.39,72.30 L296.76,72.65 L297.12,73.01 L297.49,73.36 L297.86,73.72 L298.23,74.08 L298.59,74.44 L298.96,74.81 L299.33,75.17 L299.70,75.54 L300.07,75.90 L300.43,76.27 L300.80,76.64 L301.17,77.02 L301.54,77.39 L301.90,77.77 L302.27,78.14 L302.64,78.52 L303.01,78.90 L303.37,79.29 L303.74,79.67 L304.11,80.06 L304.48,80.44 L304.85,80.83 L305.21,81.22 L305.58,81.62 L305.95,82.01 L306.32,82.40 L306.68,82.80 L307.05,83.20 L307.42,83.60 L307.79,84.00 L308.15,84.41 L308.52,84.81 L308.89,85.22 L309.26,85.63 L309.63,86.03 L309.99,86.45 L310.36,86.86 L310.73,87.27 L311.10,87.69 L311.46,88.11 L311.83,88.53 L312.20,88.95 L312.57,89.37 L312.94,89.80 L313.30,90.22 L313.67,90.65 L314.04,91.08 L314.41,91.51 L314.77,91.94 L315.14,92.38 L315.51,92.81 L315.88,93.25 L316.24,93.69 L316.61,94.13 L316.98,94.57 L317.35,95.02 L317.72,95.46 L318.08,95.91 L318.45,96.36 L318.82,96.81 L319.19,97.26 L319.55,97.71 L319.92,98.17 L320.29,98.63 L320.66,99.09 L321.03,99.55 L321.39,100.01 L321.76,100.47 L322.13,100.94 L322.50,101.40 L322.86,101.87 L323.23,102.34 L323.60,102.81 L323.97,103.28 L324.33,103.76 L324.70,104.24 L325.07,104.71 L325.44,105.19 L325.81,105.67 L326.17,106.16 L326.54,106.64 L326.91,107.13 L327.28,107.62 L327.64,108.10 L328.01,108.60 L328.38,109.09 L328.75,109.58 L329.12,110.08 L329.48,110.58 L329.85,111.07 L330.22,111.57 L330.59,112.08 L330.95,112.58 L331.32,113.09 L331.69,113.59 L332.06,114.10 L332.42,114.61 L332.79,115.12 L333.16,115.64 L333.53,116.15 L333.90,116.67 L334.26,117.19 L334.63,117.71 L335.00,118.23 L335.37,118.75 L335.73,119.28 L336.10,119.81 L336.47,120.33 L336.84,120.86 L337.20,121.39 L337.57,121.93 L337.94,122.46 L338.31,123.00 L338.68,123.54 L339.04,124.08 L339.41,124.62 L339.78,125.16 L340.15,125.70 L340.51,126.25 L340.88,126.80 L341.25,127.35 L341.62,127.90 L341.99,128.45 L342.35,129.00 L342.72,129.56 L343.09,130.12 L343.46,130.68 L343.82,131.24 L344.19,131.80 L344.56,132.36 L344.93,132.93 L345.29,133.50 L345.66,134.06 L346.03,134.63 L346.40,135.21 L346.77,135.78 L347.13,136.35 L347.50,136.93 L347.87,137.51 L348.24,138.09 L348.60,138.67 L348.97,139.25 L349.34,139.84 L349.71,140.43 L350.08,141.01 L350.44,141.60 L350.81,142.20 L351.18,142.79 L351.55,143.38 L351.91,143.98 L352.28,144.58 L352.65,145.18 L353.02,145.78 L353.38,146.38 L353.75,146.98 L354.12,147.59 L354.49,148.20 L354.86,148.81 L355.22,149.42 L355.59,150.03 L355.96,150.64" style="stroke-width: 3; stroke: rgb(68, 128, 194); stroke-opacity: 0.8;"/><path d=" M76.86,150.64 L77.23,150.64 L77.59,150.64 L77.96,150.64 L78.33,150.64 L78.70,150.64 L79.06,150.64 L79.43,150.64 L79.80,150.64 L80.17,150.64 L80.54,150.64 L80.90,150.64 L81.27,150.64 L81.64,150.64 L82.01,150.64 L82.37,150.64 L82.74,150.64 L83.11,150.64 L83.48,150.64 L83.85,150.64 L84.21,150.64 L84.58,150.64 L84.95,150.64 L85.32,150.64 L85.68,150.64 L86.05,150.64 L86.42,150.64 L86.79,150.64 L87.15,150.64 L87.52,150.64 L87.89,150.64 L88.26,150.64 L88.63,150.64 L88.99,150.64 L89.36,150.64 L89.73,150.64 L90.10,150.64 L90.46,150.64 L90.83,150.64 L91.20,150.64 L91.57,150.64 L91.94,150.64 L92.30,150.64 L92.67,150.64 L93.04,150.64 L93.41,150.63 L93.77,150.63 L94.14,150.63 L94.51,150.63 L94.88,150.63 L95.24,150.63 L95.61,150.63 L95.98,150.63 L96.35,150.63 L96.72,150.62 L97.08,150.62 L97.45,150.62 L97.82,150.62 L98.19,150.62 L98.55,150.62 L98.92,150.61 L99.29,150.61 L99.66,150.61 L100.03,150.61 L100.39,150.61 L100.76,150.60 L101.13,150.60 L101.50,150.60 L101.86,150.60 L102.23,150.59 L102.60,150.59 L102.97,150.59 L103.33,150.58 L103.70,150.58 L104.07,150.58 L104.44,150.57 L104.81,150.57 L105.17,150.56 L105.54,150.56 L105.91,150.56 L106.28,150.55 L106.64,150.55 L107.01,150.54 L107.38,150.54 L107.75,150.53 L108.11,150.53 L108.48,150.52 L108.85,150.52 L109.22,150.51 L109.59,150.50 L109.95,150.50 L110.32,150.49 L110.69,150.49 L111.06,150.48 L111.42,150.47 L111.79,150.46 L112.16,150.46 L112.53,150.45 L112.90,150.44 L113.26,150.43 L113.63,150.42 L114.00,150.42 L114.37,150.41 L114.73,150.40 L115.10,150.39 L115.47,150.38 L115.84,150.37 L116.20,150.36 L116.57,150.35 L116.94,150.34 L117.31,150.33 L117.68,150.32 L118.04,150.31 L118.41,150.29 L118.78,150.28 L119.15,150.27 L119.51,150.26 L119.88,150.24 L120.25,150.23 L120.62,150.22 L120.99,150.20 L121.35,150.19 L121.72,150.17 L122.09,150.16 L122.46,150.14 L122.82,150.13 L123.19,150.11 L123.56,150.10 L123.93,150.08 L124.29,150.06 L124.66,150.05 L125.03,150.03 L125.40,150.01 L125.77,149.99 L126.13,149.97 L126.50,149.95 L126.87,149.93 L127.24,149.91 L127.60,149.89 L127.97,149.87 L128.34,149.85 L128.71,149.83 L129.07,149.81 L129.44,149.79 L129.81,149.76 L130.18,149.74 L130.55,149.72 L130.91,149.69 L131.28,149.67 L131.65,149.64 L132.02,149.62 L132.38,149.59 L132.75,149.56 L133.12,149.54 L133.49,149.51 L133.86,149.48 L134.22,149.45 L134.59,149.42 L134.96,149.40 L135.33,149.37 L135.69,149.34 L136.06,149.30 L136.43,149.27 L136.80,149.24 L137.16,149.21 L137.53,149.18 L137.90,149.14 L138.27,149.11 L138.64,149.07 L139.00,149.04 L139.37,149.00 L139.74,148.97 L140.11,148.93 L140.47,148.89 L140.84,148.86 L141.21,148.82 L141.58,148.78 L141.95,148.74 L142.31,148.70 L142.68,148.66 L143.05,148.62 L143.42,148.58 L143.78,148.53 L144.15,148.49 L144.52,148.45 L144.89,148.40 L145.25,148.36 L145.62,148.31 L145.99,148.27 L146.36,148.22 L146.73,148.17 L147.09,148.12 L147.46,148.08 L147.83,148.03 L148.20,147.98 L148.56,147.93 L148.93,147.87 L149.30,147.82 L149.67,147.77 L150.04,147.72 L150.40,147.66 L150.77,147.61 L151.14,147.55 L151.51,147.50 L151.87,147.44 L152.24,147.38 L152.61,147.32 L152.98,147.26 L153.34,147.21 L153.71,147.14 L154.08,147.08 L154.45,147.02 L154.82,146.96 L155.18,146.90 L155.55,146.83 L155.92,146.77 L156.29,146.70 L156.65,146.64 L157.02,146.57 L157.39,146.50 L157.76,146.43 L158.12,146.36 L158.49,146.29 L158.86,146.22 L159.23,146.15 L159.60,146.08 L159.96,146.01 L160.33,145.93 L160.70,145.86 L161.07,145.78 L161.43,145.71 L161.80,145.63 L162.17,145.55 L162.54,145.47 L162.91,145.40 L163.27,145.32 L163.64,145.23 L164.01,145.15 L164.38,145.07 L164.74,144.99 L165.11,144.90 L165.48,144.82 L165.85,144.73 L166.21,144.64 L166.58,144.56 L166.95,144.47 L167.32,144.38 L167.69,144.29 L168.05,144.20 L168.42,144.11 L168.79,144.01 L169.16,143.92 L169.52,143.83 L169.89,143.73 L170.26,143.63 L170.63,143.54 L171.00,143.44 L171.36,143.34 L171.73,143.24 L172.10,143.14 L172.47,143.04 L172.83,142.94 L173.20,142.83 L173.57,142.73 L173.94,142.63 L174.30,142.52 L174.67,142.41 L175.04,142.31 L175.41,142.20 L175.78,142.09 L176.14,141.98 L176.51,141.87 L176.88,141.76 L177.25,141.64 L177.61,141.53 L177.98,141.41 L178.35,141.30 L178.72,141.18 L179.08,141.06 L179.45,140.95 L179.82,140.83 L180.19,140.71 L180.56,140.58 L180.92,140.46 L181.29,140.34 L181.66,140.22 L182.03,140.09 L182.39,139.97 L182.76,139.84 L183.13,139.71 L183.50,139.58 L183.87,139.45 L184.23,139.32 L184.60,139.19 L184.97,139.06 L185.34,138.93 L185.70,138.79 L186.07,138.66 L186.44,138.52 L186.81,138.38 L187.17,138.25 L187.54,138.11 L187.91,137.97 L188.28,137.83 L188.65,137.69 L189.01,137.54 L189.38,137.40 L189.75,137.26 L190.12,137.11 L190.48,136.96 L190.85,136.82 L191.22,136.67 L191.59,136.52 L191.96,136.37 L192.32,136.22 L192.69,136.07 L193.06,135.91 L193.43,135.76 L193.79,135.61 L194.16,135.45 L194.53,135.29 L194.90,135.14 L195.26,134.98 L195.63,134.82 L196.00,134.66 L196.37,134.50 L196.74,134.34 L197.10,134.17 L197.47,134.01 L197.84,133.84 L198.21,133.68 L198.57,133.51 L198.94,133.34 L199.31,133.18 L199.68,133.01 L200.05,132.84 L200.41,132.67 L200.78,132.49 L201.15,132.32 L201.52,132.15 L201.88,131.97 L202.25,131.80 L202.62,131.62 L202.99,131.44 L203.35,131.26 L203.72,131.09 L204.09,130.91 L204.46,130.72 L204.83,130.54 L205.19,130.36 L205.56,130.18 L205.93,129.99 L206.30,129.81 L206.66,129.62 L207.03,129.43 L207.40,129.25 L207.77,129.06 L208.13,128.87 L208.50,128.68 L208.87,128.49 L209.24,128.30 L209.61,128.10 L209.97,127.91 L210.34,127.72 L210.71,127.52 L211.08,127.32 L211.44,127.13 L211.81,126.93 L212.18,126.73 L212.55,126.53 L212.92,126.33 L213.28,126.13 L213.65,125.93 L214.02,125.73 L214.39,125.52 L214.75,125.32 L215.12,125.12 L215.49,124.91 L215.86,124.71 L216.22,124.50 L216.59,124.29 L216.96,124.08 L217.33,123.87 L217.70,123.66 L218.06,123.45 L218.43,123.24 L218.80,123.03 L219.17,122.82 L219.53,122.61 L219.90,122.39 L220.27,122.18 L220.64,121.96 L221.01,121.75 L221.37,121.53 L221.74,121.31 L222.11,121.09 L222.48,120.88 L222.84,120.66 L223.21,120.44 L223.58,120.22 L223.95,120.00 L224.31,119.77 L224.68,119.55 L225.05,119.33 L225.42,119.11 L225.79,118.88 L226.15,118.66 L226.52,118.43 L226.89,118.21 L227.26,117.98 L227.62,117.76 L227.99,117.53 L228.36,117.30 L228.73,117.07 L229.09,116.85 L229.46,116.62 L229.83,116.39 L230.20,116.16 L230.57,115.93 L230.93,115.70 L231.30,115.47 L231.67,115.24 L232.04,115.00 L232.40,114.77 L232.77,114.54 L233.14,114.31 L233.51,114.07 L233.88,113.84 L234.24,113.60 L234.61,113.37 L234.98,113.14 L235.35,112.90 L235.71,112.66 L236.08,112.43 L236.45,112.19 L236.82,111.96 L237.18,111.72 L237.55,111.48 L237.92,111.25 L238.29,111.01 L238.66,110.77 L239.02,110.53 L239.39,110.30 L239.76,110.06 L240.13,109.82 L240.49,109.58 L240.86,109.34 L241.23,109.11 L241.60,108.87 L241.97,108.63 L242.33,108.39 L242.70,108.15 L243.07,107.91 L243.44,107.67 L243.80,107.43 L244.17,107.19 L244.54,106.96 L244.91,106.72 L245.27,106.48 L245.64,106.24 L246.01,106.00 L246.38,105.76 L246.75,105.52 L247.11,105.28 L247.48,105.04 L247.85,104.81 L248.22,104.57 L248.58,104.33 L248.95,104.09 L249.32,103.85 L249.69,103.62 L250.06,103.38 L250.42,103.14 L250.79,102.90 L251.16,102.67 L251.53,102.43 L251.89,102.20 L252.26,101.96 L252.63,101.72 L253.00,101.49 L253.36,101.25 L253.73,101.02 L254.10,100.79 L254.47,100.55 L254.84,100.32 L255.20,100.09 L255.57,99.85 L255.94,99.62 L256.31,99.39 L256.67,99.16 L257.04,98.93 L257.41,98.70 L257.78,98.47 L258.14,98.24 L258.51,98.02 L258.88,97.79 L259.25,97.56 L259.62,97.34 L259.98,97.11 L260.35,96.89 L260.72,96.66 L261.09,96.44 L261.45,96.22 L261.82,96.00 L262.19,95.77 L262.56,95.55 L262.93,95.34 L263.29,95.12 L263.66,94.90 L264.03,94.68 L264.40,94.47 L264.76,94.25 L265.13,94.04 L265.50,93.83 L265.87,93.62 L266.23,93.41 L266.60,93.20 L266.97,92.99 L267.34,92.78 L267.71,92.57 L268.07,92.37 L268.44,92.17 L268.81,91.96 L269.18,91.76 L269.54,91.56 L269.91,91.36 L270.28,91.16 L270.65,90.97 L271.02,90.77 L271.38,90.58 L271.75,90.39 L272.12,90.20 L272.49,90.01 L272.85,89.82 L273.22,89.63 L273.59,89.45 L273.96,89.26 L274.32,89.08 L274.69,88.90 L275.06,88.72 L275.43,88.54 L275.80,88.37 L276.16,88.20 L276.53,88.02 L276.90,87.85 L277.27,87.68 L277.63,87.52 L278.00,87.35 L278.37,87.19 L278.74,87.03 L279.11,86.87 L279.47,86.71 L279.84,86.55 L280.21,86.40 L280.58,86.25 L280.94,86.10 L281.31,85.95 L281.68,85.80 L282.05,85.66 L282.41,85.52 L282.78,85.38 L283.15,85.24 L283.52,85.11 L283.89,84.98 L284.25,84.85 L284.62,84.72 L284.99,84.59 L285.36,84.47 L285.72,84.35 L286.09,84.23 L286.46,84.11 L286.83,84.00 L287.19,83.89 L287.56,83.78 L287.93,83.67 L288.30,83.57 L288.67,83.47 L289.03,83.37 L289.40,83.28 L289.77,83.18 L290.14,83.09 L290.50,83.01 L290.87,82.92 L291.24,82.84 L291.61,82.76 L291.98,82.69 L292.34,82.61 L292.71,82.54 L293.08,82.48 L293.45,82.41 L293.81,82.35 L294.18,82.30 L294.55,82.24 L294.92,82.19 L295.28,82.14 L295.65,82.10 L296.02,82.06 L296.39,82.02 L296.76,81.99 L297.12,81.95 L297.49,81.93 L297.86,81.90 L298.23,81.88 L298.59,81.86 L298.96,81.85 L299.33,81.84 L299.70,81.83 L300.07,81.83 L300.43,81.83 L300.80,81.84 L301.17,81.85 L301.54,81.86 L301.90,81.88 L302.27,81.90 L302.64,81.92 L303.01,81.95 L303.37,81.98 L303.74,82.02 L304.11,82.06 L304.48,82.10 L304.85,82.15 L305.21,82.20 L305.58,82.26 L305.95,82.32 L306.32,82.39 L306.68,82.46 L307.05,82.53 L307.42,82.61 L307.79,82.70 L308.15,82.78 L308.52,82.88 L308.89,82.97 L309.26,83.08 L309.63,83.18 L309.99,83.29 L310.36,83.41 L310.73,83.53 L311.10,83.66 L311.46,83.79 L311.83,83.92 L312.20,84.07 L312.57,84.21 L312.94,84.36 L313.30,84.52 L313.67,84.68 L314.04,84.85 L314.41,85.02 L314.77,85.20 L315.14,85.38 L315.51,85.57 L315.88,85.76 L316.24,85.96 L316.61,86.16 L316.98,86.37 L317.35,86.59 L317.72,86.81 L318.08,87.03 L318.45,87.27 L318.82,87.51 L319.19,87.75 L319.55,88.00 L319.92,88.26 L320.29,88.52 L320.66,88.79 L321.03,89.06 L321.39,89.34 L321.76,89.63 L322.13,89.92 L322.50,90.22 L322.86,90.52 L323.23,90.84 L323.60,91.15 L323.97,91.48 L324.33,91.81 L324.70,92.15 L325.07,92.49 L325.44,92.84 L325.81,93.20 L326.17,93.57 L326.54,93.94 L326.91,94.32 L327.28,94.70 L327.64,95.09 L328.01,95.49 L328.38,95.90 L328.75,96.31 L329.12,96.73 L329.48,97.16 L329.85,97.59 L330.22,98.04 L330.59,98.49 L330.95,98.94 L331.32,99.41 L331.69,99.88 L332.06,100.36 L332.42,100.85 L332.79,101.34 L333.16,101.85 L333.53,102.36 L333.90,102.88 L334.26,103.40 L334.63,103.94 L335.00,104.48 L335.37,105.03 L335.73,105.59 L336.10,106.16 L336.47,106.73 L336.84,107.32 L337.20,107.91 L337.57,108.51 L337.94,109.12 L338.31,109.74 L338.68,110.36 L339.04,111.00 L339.41,111.64 L339.78,112.30 L340.15,112.96 L340.51,113.63 L340.88,114.31 L341.25,115.00 L341.62,115.69 L341.99,116.40 L342.35,117.12 L342.72,117.84 L343.09,118.58 L343.46,119.32 L343.82,120.07 L344.19,120.83 L344.56,121.61 L344.93,122.39 L345.29,123.18 L345.66,123.98 L346.03,124.79 L346.40,125.61 L346.77,126.45 L347.13,127.29 L347.50,128.14 L347.87,129.00 L348.24,129.87 L348.60,130.75 L348.97,131.64 L349.34,132.55 L349.71,133.46 L350.08,134.38 L350.44,135.32 L350.81,136.26 L351.18,137.22 L351.55,138.18 L351.91,139.16 L352.28,140.15 L352.65,141.15 L353.02,142.16 L353.38,143.18 L353.75,144.21 L354.12,145.26 L354.49,146.31 L354.86,147.38 L355.22,148.45 L355.59,149.54 L355.96,150.64" style="stroke-width: 3; stroke: rgb(126, 211, 33); stroke-opacity: 1;"/><path d=" M76.86,150.64 L77.23,149.54 L77.59,148.45 L77.96,147.38 L78.33,146.31 L78.70,145.26 L79.06,144.21 L79.43,143.18 L79.80,142.16 L80.17,141.15 L80.54,140.15 L80.90,139.16 L81.27,138.18 L81.64,137.22 L82.01,136.26 L82.37,135.32 L82.74,134.38 L83.11,133.46 L83.48,132.55 L83.85,131.64 L84.21,130.75 L84.58,129.87 L84.95,129.00 L85.32,128.14 L85.68,127.29 L86.05,126.45 L86.42,125.61 L86.79,124.79 L87.15,123.98 L87.52,123.18 L87.89,122.39 L88.26,121.61 L88.63,120.83 L88.99,120.07 L89.36,119.32 L89.73,118.58 L90.10,117.84 L90.46,117.12 L90.83,116.40 L91.20,115.69 L91.57,115.00 L91.94,114.31 L92.30,113.63 L92.67,112.96 L93.04,112.30 L93.41,111.64 L93.77,111.00 L94.14,110.36 L94.51,109.74 L94.88,109.12 L95.24,108.51 L95.61,107.91 L95.98,107.32 L96.35,106.73 L96.72,106.16 L97.08,105.59 L97.45,105.03 L97.82,104.48 L98.19,103.94 L98.55,103.40 L98.92,102.88 L99.29,102.36 L99.66,101.85 L100.03,101.34 L100.39,100.85 L100.76,100.36 L101.13,99.88 L101.50,99.41 L101.86,98.94 L102.23,98.49 L102.60,98.04 L102.97,97.59 L103.33,97.16 L103.70,96.73 L104.07,96.31 L104.44,95.90 L104.81,95.49 L105.17,95.09 L105.54,94.70 L105.91,94.32 L106.28,93.94 L106.64,93.57 L107.01,93.20 L107.38,92.84 L107.75,92.49 L108.11,92.15 L108.48,91.81 L108.85,91.48 L109.22,91.15 L109.59,90.84 L109.95,90.52 L110.32,90.22 L110.69,89.92 L111.06,89.63 L111.42,89.34 L111.79,89.06 L112.16,88.79 L112.53,88.52 L112.90,88.26 L113.26,88.00 L113.63,87.75 L114.00,87.51 L114.37,87.27 L114.73,87.03 L115.10,86.81 L115.47,86.59 L115.84,86.37 L116.20,86.16 L116.57,85.96 L116.94,85.76 L117.31,85.57 L117.68,85.38 L118.04,85.20 L118.41,85.02 L118.78,84.85 L119.15,84.68 L119.51,84.52 L119.88,84.36 L120.25,84.21 L120.62,84.07 L120.99,83.92 L121.35,83.79 L121.72,83.66 L122.09,83.53 L122.46,83.41 L122.82,83.29 L123.19,83.18 L123.56,83.08 L123.93,82.97 L124.29,82.88 L124.66,82.78 L125.03,82.70 L125.40,82.61 L125.77,82.53 L126.13,82.46 L126.50,82.39 L126.87,82.32 L127.24,82.26 L127.60,82.20 L127.97,82.15 L128.34,82.10 L128.71,82.06 L129.07,82.02 L129.44,81.98 L129.81,81.95 L130.18,81.92 L130.55,81.90 L130.91,81.88 L131.28,81.86 L131.65,81.85 L132.02,81.84 L132.38,81.83 L132.75,81.83 L133.12,81.83 L133.49,81.84 L133.86,81.85 L134.22,81.86 L134.59,81.88 L134.96,81.90 L135.33,81.93 L135.69,81.95 L136.06,81.99 L136.43,82.02 L136.80,82.06 L137.16,82.10 L137.53,82.14 L137.90,82.19 L138.27,82.24 L138.64,82.30 L139.00,82.35 L139.37,82.41 L139.74,82.48 L140.11,82.54 L140.47,82.61 L140.84,82.69 L141.21,82.76 L141.58,82.84 L141.95,82.92 L142.31,83.01 L142.68,83.09 L143.05,83.18 L143.42,83.28 L143.78,83.37 L144.15,83.47 L144.52,83.57 L144.89,83.67 L145.25,83.78 L145.62,83.89 L145.99,84.00 L146.36,84.11 L146.73,84.23 L147.09,84.35 L147.46,84.47 L147.83,84.59 L148.20,84.72 L148.56,84.85 L148.93,84.98 L149.30,85.11 L149.67,85.24 L150.04,85.38 L150.40,85.52 L150.77,85.66 L151.14,85.80 L151.51,85.95 L151.87,86.10 L152.24,86.25 L152.61,86.40 L152.98,86.55 L153.34,86.71 L153.71,86.87 L154.08,87.03 L154.45,87.19 L154.82,87.35 L155.18,87.52 L155.55,87.68 L155.92,87.85 L156.29,88.02 L156.65,88.20 L157.02,88.37 L157.39,88.54 L157.76,88.72 L158.12,88.90 L158.49,89.08 L158.86,89.26 L159.23,89.45 L159.60,89.63 L159.96,89.82 L160.33,90.01 L160.70,90.20 L161.07,90.39 L161.43,90.58 L161.80,90.77 L162.17,90.97 L162.54,91.16 L162.91,91.36 L163.27,91.56 L163.64,91.76 L164.01,91.96 L164.38,92.17 L164.74,92.37 L165.11,92.57 L165.48,92.78 L165.85,92.99 L166.21,93.20 L166.58,93.41 L166.95,93.62 L167.32,93.83 L167.69,94.04 L168.05,94.25 L168.42,94.47 L168.79,94.68 L169.16,94.90 L169.52,95.12 L169.89,95.34 L170.26,95.55 L170.63,95.77 L171.00,96.00 L171.36,96.22 L171.73,96.44 L172.10,96.66 L172.47,96.89 L172.83,97.11 L173.20,97.34 L173.57,97.56 L173.94,97.79 L174.30,98.02 L174.67,98.24 L175.04,98.47 L175.41,98.70 L175.78,98.93 L176.14,99.16 L176.51,99.39 L176.88,99.62 L177.25,99.85 L177.61,100.09 L177.98,100.32 L178.35,100.55 L178.72,100.79 L179.08,101.02 L179.45,101.25 L179.82,101.49 L180.19,101.72 L180.56,101.96 L180.92,102.20 L181.29,102.43 L181.66,102.67 L182.03,102.90 L182.39,103.14 L182.76,103.38 L183.13,103.62 L183.50,103.85 L183.87,104.09 L184.23,104.33 L184.60,104.57 L184.97,104.81 L185.34,105.04 L185.70,105.28 L186.07,105.52 L186.44,105.76 L186.81,106.00 L187.17,106.24 L187.54,106.48 L187.91,106.72 L188.28,106.96 L188.65,107.19 L189.01,107.43 L189.38,107.67 L189.75,107.91 L190.12,108.15 L190.48,108.39 L190.85,108.63 L191.22,108.87 L191.59,109.11 L191.96,109.34 L192.32,109.58 L192.69,109.82 L193.06,110.06 L193.43,110.30 L193.79,110.53 L194.16,110.77 L194.53,111.01 L194.90,111.25 L195.26,111.48 L195.63,111.72 L196.00,111.96 L196.37,112.19 L196.74,112.43 L197.10,112.66 L197.47,112.90 L197.84,113.14 L198.21,113.37 L198.57,113.60 L198.94,113.84 L199.31,114.07 L199.68,114.31 L200.05,114.54 L200.41,114.77 L200.78,115.00 L201.15,115.24 L201.52,115.47 L201.88,115.70 L202.25,115.93 L202.62,116.16 L202.99,116.39 L203.35,116.62 L203.72,116.85 L204.09,117.07 L204.46,117.30 L204.83,117.53 L205.19,117.76 L205.56,117.98 L205.93,118.21 L206.30,118.43 L206.66,118.66 L207.03,118.88 L207.40,119.11 L207.77,119.33 L208.13,119.55 L208.50,119.77 L208.87,120.00 L209.24,120.22 L209.61,120.44 L209.97,120.66 L210.34,120.88 L210.71,121.09 L211.08,121.31 L211.44,121.53 L211.81,121.75 L212.18,121.96 L212.55,122.18 L212.92,122.39 L213.28,122.61 L213.65,122.82 L214.02,123.03 L214.39,123.24 L214.75,123.45 L215.12,123.66 L215.49,123.87 L215.86,124.08 L216.22,124.29 L216.59,124.50 L216.96,124.71 L217.33,124.91 L217.70,125.12 L218.06,125.32 L218.43,125.52 L218.80,125.73 L219.17,125.93 L219.53,126.13 L219.90,126.33 L220.27,126.53 L220.64,126.73 L221.01,126.93 L221.37,127.13 L221.74,127.32 L222.11,127.52 L222.48,127.72 L222.84,127.91 L223.21,128.10 L223.58,128.30 L223.95,128.49 L224.31,128.68 L224.68,128.87 L225.05,129.06 L225.42,129.25 L225.79,129.43 L226.15,129.62 L226.52,129.81 L226.89,129.99 L227.26,130.18 L227.62,130.36 L227.99,130.54 L228.36,130.72 L228.73,130.91 L229.09,131.09 L229.46,131.26 L229.83,131.44 L230.20,131.62 L230.57,131.80 L230.93,131.97 L231.30,132.15 L231.67,132.32 L232.04,132.49 L232.40,132.67 L232.77,132.84 L233.14,133.01 L233.51,133.18 L233.88,133.34 L234.24,133.51 L234.61,133.68 L234.98,133.84 L235.35,134.01 L235.71,134.17 L236.08,134.34 L236.45,134.50 L236.82,134.66 L237.18,134.82 L237.55,134.98 L237.92,135.14 L238.29,135.29 L238.66,135.45 L239.02,135.61 L239.39,135.76 L239.76,135.91 L240.13,136.07 L240.49,136.22 L240.86,136.37 L241.23,136.52 L241.60,136.67 L241.97,136.82 L242.33,136.96 L242.70,137.11 L243.07,137.26 L243.44,137.40 L243.80,137.54 L244.17,137.69 L244.54,137.83 L244.91,137.97 L245.27,138.11 L245.64,138.25 L246.01,138.38 L246.38,138.52 L246.75,138.66 L247.11,138.79 L247.48,138.93 L247.85,139.06 L248.22,139.19 L248.58,139.32 L248.95,139.45 L249.32,139.58 L249.69,139.71 L250.06,139.84 L250.42,139.97 L250.79,140.09 L251.16,140.22 L251.53,140.34 L251.89,140.46 L252.26,140.58 L252.63,140.71 L253.00,140.83 L253.36,140.95 L253.73,141.06 L254.10,141.18 L254.47,141.30 L254.84,141.41 L255.20,141.53 L255.57,141.64 L255.94,141.76 L256.31,141.87 L256.67,141.98 L257.04,142.09 L257.41,142.20 L257.78,142.31 L258.14,142.41 L258.51,142.52 L258.88,142.63 L259.25,142.73 L259.62,142.83 L259.98,142.94 L260.35,143.04 L260.72,143.14 L261.09,143.24 L261.45,143.34 L261.82,143.44 L262.19,143.54 L262.56,143.63 L262.93,143.73 L263.29,143.83 L263.66,143.92 L264.03,144.01 L264.40,144.11 L264.76,144.20 L265.13,144.29 L265.50,144.38 L265.87,144.47 L266.23,144.56 L266.60,144.64 L266.97,144.73 L267.34,144.82 L267.71,144.90 L268.07,144.99 L268.44,145.07 L268.81,145.15 L269.18,145.23 L269.54,145.32 L269.91,145.40 L270.28,145.47 L270.65,145.55 L271.02,145.63 L271.38,145.71 L271.75,145.78 L272.12,145.86 L272.49,145.93 L272.85,146.01 L273.22,146.08 L273.59,146.15 L273.96,146.22 L274.32,146.29 L274.69,146.36 L275.06,146.43 L275.43,146.50 L275.80,146.57 L276.16,146.64 L276.53,146.70 L276.90,146.77 L277.27,146.83 L277.63,146.90 L278.00,146.96 L278.37,147.02 L278.74,147.08 L279.11,147.14 L279.47,147.21 L279.84,147.26 L280.21,147.32 L280.58,147.38 L280.94,147.44 L281.31,147.50 L281.68,147.55 L282.05,147.61 L282.41,147.66 L282.78,147.72 L283.15,147.77 L283.52,147.82 L283.89,147.87 L284.25,147.93 L284.62,147.98 L284.99,148.03 L285.36,148.08 L285.72,148.12 L286.09,148.17 L286.46,148.22 L286.83,148.27 L287.19,148.31 L287.56,148.36 L287.93,148.40 L288.30,148.45 L288.67,148.49 L289.03,148.53 L289.40,148.58 L289.77,148.62 L290.14,148.66 L290.50,148.70 L290.87,148.74 L291.24,148.78 L291.61,148.82 L291.98,148.86 L292.34,148.89 L292.71,148.93 L293.08,148.97 L293.45,149.00 L293.81,149.04 L294.18,149.07 L294.55,149.11 L294.92,149.14 L295.28,149.18 L295.65,149.21 L296.02,149.24 L296.39,149.27 L296.76,149.30 L297.12,149.34 L297.49,149.37 L297.86,149.40 L298.23,149.42 L298.59,149.45 L298.96,149.48 L299.33,149.51 L299.70,149.54 L300.07,149.56 L300.43,149.59 L300.80,149.62 L301.17,149.64 L301.54,149.67 L301.90,149.69 L302.27,149.72 L302.64,149.74 L303.01,149.76 L303.37,149.79 L303.74,149.81 L304.11,149.83 L304.48,149.85 L304.85,149.87 L305.21,149.89 L305.58,149.91 L305.95,149.93 L306.32,149.95 L306.68,149.97 L307.05,149.99 L307.42,150.01 L307.79,150.03 L308.15,150.05 L308.52,150.06 L308.89,150.08 L309.26,150.10 L309.63,150.11 L309.99,150.13 L310.36,150.14 L310.73,150.16 L311.10,150.17 L311.46,150.19 L311.83,150.20 L312.20,150.22 L312.57,150.23 L312.94,150.24 L313.30,150.26 L313.67,150.27 L314.04,150.28 L314.41,150.29 L314.77,150.31 L315.14,150.32 L315.51,150.33 L315.88,150.34 L316.24,150.35 L316.61,150.36 L316.98,150.37 L317.35,150.38 L317.72,150.39 L318.08,150.40 L318.45,150.41 L318.82,150.42 L319.19,150.42 L319.55,150.43 L319.92,150.44 L320.29,150.45 L320.66,150.46 L321.03,150.46 L321.39,150.47 L321.76,150.48 L322.13,150.49 L322.50,150.49 L322.86,150.50 L323.23,150.50 L323.60,150.51 L323.97,150.52 L324.33,150.52 L324.70,150.53 L325.07,150.53 L325.44,150.54 L325.81,150.54 L326.17,150.55 L326.54,150.55 L326.91,150.56 L327.28,150.56 L327.64,150.56 L328.01,150.57 L328.38,150.57 L328.75,150.58 L329.12,150.58 L329.48,150.58 L329.85,150.59 L330.22,150.59 L330.59,150.59 L330.95,150.60 L331.32,150.60 L331.69,150.60 L332.06,150.60 L332.42,150.61 L332.79,150.61 L333.16,150.61 L333.53,150.61 L333.90,150.61 L334.26,150.62 L334.63,150.62 L335.00,150.62 L335.37,150.62 L335.73,150.62 L336.10,150.62 L336.47,150.63 L336.84,150.63 L337.20,150.63 L337.57,150.63 L337.94,150.63 L338.31,150.63 L338.68,150.63 L339.04,150.63 L339.41,150.63 L339.78,150.64 L340.15,150.64 L340.51,150.64 L340.88,150.64 L341.25,150.64 L341.62,150.64 L341.99,150.64 L342.35,150.64 L342.72,150.64 L343.09,150.64 L343.46,150.64 L343.82,150.64 L344.19,150.64 L344.56,150.64 L344.93,150.64 L345.29,150.64 L345.66,150.64 L346.03,150.64 L346.40,150.64 L346.77,150.64 L347.13,150.64 L347.50,150.64 L347.87,150.64 L348.24,150.64 L348.60,150.64 L348.97,150.64 L349.34,150.64 L349.71,150.64 L350.08,150.64 L350.44,150.64 L350.81,150.64 L351.18,150.64 L351.55,150.64 L351.91,150.64 L352.28,150.64 L352.65,150.64 L353.02,150.64 L353.38,150.64 L353.75,150.64 L354.12,150.64 L354.49,150.64 L354.86,150.64 L355.22,150.64 L355.59,150.64 L355.96,150.64" style="stroke-width: 3; stroke: rgb(245, 130, 49); stroke-opacity: 0.8;"/><path d=" M76.86,-220.00 L77.23,34.86 L77.59,68.72 L77.96,83.71 L78.33,92.64 L78.70,98.73 L79.06,103.22 L79.43,106.71 L79.80,109.52 L80.17,111.84 L80.54,113.81 L80.90,115.50 L81.27,116.97 L81.64,118.27 L82.01,119.43 L82.37,120.47 L82.74,121.41 L83.11,122.26 L83.48,123.04 L83.85,123.76 L84.21,124.42 L84.58,125.04 L84.95,125.61 L85.32,126.14 L85.68,126.64 L86.05,127.11 L86.42,127.55 L86.79,127.97 L87.15,128.36 L87.52,128.74 L87.89,129.09 L88.26,129.42 L88.63,129.74 L88.99,130.05 L89.36,130.34 L89.73,130.62 L90.10,130.89 L90.46,131.14 L90.83,131.39 L91.20,131.62 L91.57,131.85 L91.94,132.06 L92.30,132.27 L92.67,132.48 L93.04,132.67 L93.41,132.86 L93.77,133.04 L94.14,133.22 L94.51,133.39 L94.88,133.55 L95.24,133.71 L95.61,133.87 L95.98,134.02 L96.35,134.16 L96.72,134.31 L97.08,134.44 L97.45,134.58 L97.82,134.71 L98.19,134.84 L98.55,134.96 L98.92,135.08 L99.29,135.20 L99.66,135.31 L100.03,135.42 L100.39,135.53 L100.76,135.64 L101.13,135.74 L101.50,135.84 L101.86,135.94 L102.23,136.03 L102.60,136.13 L102.97,136.22 L103.33,136.31 L103.70,136.40 L104.07,136.49 L104.44,136.57 L104.81,136.65 L105.17,136.73 L105.54,136.81 L105.91,136.89 L106.28,136.97 L106.64,137.04 L107.01,137.11 L107.38,137.19 L107.75,137.26 L108.11,137.33 L108.48,137.39 L108.85,137.46 L109.22,137.53 L109.59,137.59 L109.95,137.65 L110.32,137.72 L110.69,137.78 L111.06,137.84 L111.42,137.89 L111.79,137.95 L112.16,138.01 L112.53,138.06 L112.90,138.12 L113.26,138.17 L113.63,138.23 L114.00,138.28 L114.37,138.33 L114.73,138.38 L115.10,138.43 L115.47,138.48 L115.84,138.53 L116.20,138.58 L116.57,138.62 L116.94,138.67 L117.31,138.71 L117.68,138.76 L118.04,138.80 L118.41,138.85 L118.78,138.89 L119.15,138.93 L119.51,138.97 L119.88,139.01 L120.25,139.05 L120.62,139.09 L120.99,139.13 L121.35,139.17 L121.72,139.21 L122.09,139.25 L122.46,139.28 L122.82,139.32 L123.19,139.36 L123.56,139.39 L123.93,139.43 L124.29,139.46 L124.66,139.50 L125.03,139.53 L125.40,139.56 L125.77,139.60 L126.13,139.63 L126.50,139.66 L126.87,139.69 L127.24,139.72 L127.60,139.76 L127.97,139.79 L128.34,139.82 L128.71,139.85 L129.07,139.87 L129.44,139.90 L129.81,139.93 L130.18,139.96 L130.55,139.99 L130.91,140.02 L131.28,140.04 L131.65,140.07 L132.02,140.10 L132.38,140.12 L132.75,140.15 L133.12,140.18 L133.49,140.20 L133.86,140.23 L134.22,140.25 L134.59,140.28 L134.96,140.30 L135.33,140.32 L135.69,140.35 L136.06,140.37 L136.43,140.39 L136.80,140.42 L137.16,140.44 L137.53,140.46 L137.90,140.48 L138.27,140.51 L138.64,140.53 L139.00,140.55 L139.37,140.57 L139.74,140.59 L140.11,140.61 L140.47,140.63 L140.84,140.65 L141.21,140.67 L141.58,140.69 L141.95,140.71 L142.31,140.73 L142.68,140.75 L143.05,140.77 L143.42,140.79 L143.78,140.81 L144.15,140.83 L144.52,140.84 L144.89,140.86 L145.25,140.88 L145.62,140.90 L145.99,140.92 L146.36,140.93 L146.73,140.95 L147.09,140.97 L147.46,140.98 L147.83,141.00 L148.20,141.02 L148.56,141.03 L148.93,141.05 L149.30,141.06 L149.67,141.08 L150.04,141.10 L150.40,141.11 L150.77,141.13 L151.14,141.14 L151.51,141.16 L151.87,141.17 L152.24,141.19 L152.61,141.20 L152.98,141.21 L153.34,141.23 L153.71,141.24 L154.08,141.26 L154.45,141.27 L154.82,141.28 L155.18,141.30 L155.55,141.31 L155.92,141.32 L156.29,141.34 L156.65,141.35 L157.02,141.36 L157.39,141.37 L157.76,141.39 L158.12,141.40 L158.49,141.41 L158.86,141.42 L159.23,141.44 L159.60,141.45 L159.96,141.46 L160.33,141.47 L160.70,141.48 L161.07,141.49 L161.43,141.51 L161.80,141.52 L162.17,141.53 L162.54,141.54 L162.91,141.55 L163.27,141.56 L163.64,141.57 L164.01,141.58 L164.38,141.59 L164.74,141.60 L165.11,141.61 L165.48,141.62 L165.85,141.63 L166.21,141.64 L166.58,141.65 L166.95,141.66 L167.32,141.67 L167.69,141.68 L168.05,141.69 L168.42,141.70 L168.79,141.71 L169.16,141.72 L169.52,141.73 L169.89,141.74 L170.26,141.74 L170.63,141.75 L171.00,141.76 L171.36,141.77 L171.73,141.78 L172.10,141.79 L172.47,141.79 L172.83,141.80 L173.20,141.81 L173.57,141.82 L173.94,141.83 L174.30,141.83 L174.67,141.84 L175.04,141.85 L175.41,141.86 L175.78,141.86 L176.14,141.87 L176.51,141.88 L176.88,141.89 L177.25,141.89 L177.61,141.90 L177.98,141.91 L178.35,141.91 L178.72,141.92 L179.08,141.93 L179.45,141.93 L179.82,141.94 L180.19,141.95 L180.56,141.95 L180.92,141.96 L181.29,141.97 L181.66,141.97 L182.03,141.98 L182.39,141.98 L182.76,141.99 L183.13,142.00 L183.50,142.00 L183.87,142.01 L184.23,142.01 L184.60,142.02 L184.97,142.02 L185.34,142.03 L185.70,142.03 L186.07,142.04 L186.44,142.04 L186.81,142.05 L187.17,142.05 L187.54,142.06 L187.91,142.06 L188.28,142.07 L188.65,142.07 L189.01,142.08 L189.38,142.08 L189.75,142.09 L190.12,142.09 L190.48,142.10 L190.85,142.10 L191.22,142.10 L191.59,142.11 L191.96,142.11 L192.32,142.12 L192.69,142.12 L193.06,142.12 L193.43,142.13 L193.79,142.13 L194.16,142.14 L194.53,142.14 L194.90,142.14 L195.26,142.15 L195.63,142.15 L196.00,142.15 L196.37,142.16 L196.74,142.16 L197.10,142.16 L197.47,142.17 L197.84,142.17 L198.21,142.17 L198.57,142.18 L198.94,142.18 L199.31,142.18 L199.68,142.18 L200.05,142.19 L200.41,142.19 L200.78,142.19 L201.15,142.19 L201.52,142.20 L201.88,142.20 L202.25,142.20 L202.62,142.20 L202.99,142.21 L203.35,142.21 L203.72,142.21 L204.09,142.21 L204.46,142.21 L204.83,142.22 L205.19,142.22 L205.56,142.22 L205.93,142.22 L206.30,142.22 L206.66,142.22 L207.03,142.23 L207.40,142.23 L207.77,142.23 L208.13,142.23 L208.50,142.23 L208.87,142.23 L209.24,142.23 L209.61,142.23 L209.97,142.24 L210.34,142.24 L210.71,142.24 L211.08,142.24 L211.44,142.24 L211.81,142.24 L212.18,142.24 L212.55,142.24 L212.92,142.24 L213.28,142.24 L213.65,142.24 L214.02,142.24 L214.39,142.24 L214.75,142.24 L215.12,142.24 L215.49,142.24 L215.86,142.24 L216.22,142.24 L216.59,142.24 L216.96,142.24 L217.33,142.24 L217.70,142.24 L218.06,142.24 L218.43,142.24 L218.80,142.24 L219.17,142.24 L219.53,142.24 L219.90,142.24 L220.27,142.24 L220.64,142.24 L221.01,142.24 L221.37,142.24 L221.74,142.24 L222.11,142.24 L222.48,142.24 L222.84,142.24 L223.21,142.23 L223.58,142.23 L223.95,142.23 L224.31,142.23 L224.68,142.23 L225.05,142.23 L225.42,142.23 L225.79,142.23 L226.15,142.22 L226.52,142.22 L226.89,142.22 L227.26,142.22 L227.62,142.22 L227.99,142.22 L228.36,142.21 L228.73,142.21 L229.09,142.21 L229.46,142.21 L229.83,142.21 L230.20,142.20 L230.57,142.20 L230.93,142.20 L231.30,142.20 L231.67,142.19 L232.04,142.19 L232.40,142.19 L232.77,142.19 L233.14,142.18 L233.51,142.18 L233.88,142.18 L234.24,142.18 L234.61,142.17 L234.98,142.17 L235.35,142.17 L235.71,142.16 L236.08,142.16 L236.45,142.16 L236.82,142.15 L237.18,142.15 L237.55,142.15 L237.92,142.14 L238.29,142.14 L238.66,142.14 L239.02,142.13 L239.39,142.13 L239.76,142.12 L240.13,142.12 L240.49,142.12 L240.86,142.11 L241.23,142.11 L241.60,142.10 L241.97,142.10 L242.33,142.10 L242.70,142.09 L243.07,142.09 L243.44,142.08 L243.80,142.08 L244.17,142.07 L244.54,142.07 L244.91,142.06 L245.27,142.06 L245.64,142.05 L246.01,142.05 L246.38,142.04 L246.75,142.04 L247.11,142.03 L247.48,142.03 L247.85,142.02 L248.22,142.02 L248.58,142.01 L248.95,142.01 L249.32,142.00 L249.69,142.00 L250.06,141.99 L250.42,141.98 L250.79,141.98 L251.16,141.97 L251.53,141.97 L251.89,141.96 L252.26,141.95 L252.63,141.95 L253.00,141.94 L253.36,141.93 L253.73,141.93 L254.10,141.92 L254.47,141.91 L254.84,141.91 L255.20,141.90 L255.57,141.89 L255.94,141.89 L256.31,141.88 L256.67,141.87 L257.04,141.86 L257.41,141.86 L257.78,141.85 L258.14,141.84 L258.51,141.83 L258.88,141.83 L259.25,141.82 L259.62,141.81 L259.98,141.80 L260.35,141.79 L260.72,141.79 L261.09,141.78 L261.45,141.77 L261.82,141.76 L262.19,141.75 L262.56,141.74 L262.93,141.74 L263.29,141.73 L263.66,141.72 L264.03,141.71 L264.40,141.70 L264.76,141.69 L265.13,141.68 L265.50,141.67 L265.87,141.66 L266.23,141.65 L266.60,141.64 L266.97,141.63 L267.34,141.62 L267.71,141.61 L268.07,141.60 L268.44,141.59 L268.81,141.58 L269.18,141.57 L269.54,141.56 L269.91,141.55 L270.28,141.54 L270.65,141.53 L271.02,141.52 L271.38,141.51 L271.75,141.49 L272.12,141.48 L272.49,141.47 L272.85,141.46 L273.22,141.45 L273.59,141.44 L273.96,141.42 L274.32,141.41 L274.69,141.40 L275.06,141.39 L275.43,141.37 L275.80,141.36 L276.16,141.35 L276.53,141.34 L276.90,141.32 L277.27,141.31 L277.63,141.30 L278.00,141.28 L278.37,141.27 L278.74,141.26 L279.11,141.24 L279.47,141.23 L279.84,141.21 L280.21,141.20 L280.58,141.19 L280.94,141.17 L281.31,141.16 L281.68,141.14 L282.05,141.13 L282.41,141.11 L282.78,141.10 L283.15,141.08 L283.52,141.06 L283.89,141.05 L284.25,141.03 L284.62,141.02 L284.99,141.00 L285.36,140.98 L285.72,140.97 L286.09,140.95 L286.46,140.93 L286.83,140.92 L287.19,140.90 L287.56,140.88 L287.93,140.86 L288.30,140.84 L288.67,140.83 L289.03,140.81 L289.40,140.79 L289.77,140.77 L290.14,140.75 L290.50,140.73 L290.87,140.71 L291.24,140.69 L291.61,140.67 L291.98,140.65 L292.34,140.63 L292.71,140.61 L293.08,140.59 L293.45,140.57 L293.81,140.55 L294.18,140.53 L294.55,140.51 L294.92,140.48 L295.28,140.46 L295.65,140.44 L296.02,140.42 L296.39,140.39 L296.76,140.37 L297.12,140.35 L297.49,140.32 L297.86,140.30 L298.23,140.28 L298.59,140.25 L298.96,140.23 L299.33,140.20 L299.70,140.18 L300.07,140.15 L300.43,140.12 L300.80,140.10 L301.17,140.07 L301.54,140.04 L301.90,140.02 L302.27,139.99 L302.64,139.96 L303.01,139.93 L303.37,139.90 L303.74,139.87 L304.11,139.85 L304.48,139.82 L304.85,139.79 L305.21,139.76 L305.58,139.72 L305.95,139.69 L306.32,139.66 L306.68,139.63 L307.05,139.60 L307.42,139.56 L307.79,139.53 L308.15,139.50 L308.52,139.46 L308.89,139.43 L309.26,139.39 L309.63,139.36 L309.99,139.32 L310.36,139.28 L310.73,139.25 L311.10,139.21 L311.46,139.17 L311.83,139.13 L312.20,139.09 L312.57,139.05 L312.94,139.01 L313.30,138.97 L313.67,138.93 L314.04,138.89 L314.41,138.85 L314.77,138.80 L315.14,138.76 L315.51,138.71 L315.88,138.67 L316.24,138.62 L316.61,138.58 L316.98,138.53 L317.35,138.48 L317.72,138.43 L318.08,138.38 L318.45,138.33 L318.82,138.28 L319.19,138.23 L319.55,138.17 L319.92,138.12 L320.29,138.06 L320.66,138.01 L321.03,137.95 L321.39,137.89 L321.76,137.84 L322.13,137.78 L322.50,137.72 L322.86,137.65 L323.23,137.59 L323.60,137.53 L323.97,137.46 L324.33,137.39 L324.70,137.33 L325.07,137.26 L325.44,137.19 L325.81,137.11 L326.17,137.04 L326.54,136.97 L326.91,136.89 L327.28,136.81 L327.64,136.73 L328.01,136.65 L328.38,136.57 L328.75,136.49 L329.12,136.40 L329.48,136.31 L329.85,136.22 L330.22,136.13 L330.59,136.03 L330.95,135.94 L331.32,135.84 L331.69,135.74 L332.06,135.64 L332.42,135.53 L332.79,135.42 L333.16,135.31 L333.53,135.20 L333.90,135.08 L334.26,134.96 L334.63,134.84 L335.00,134.71 L335.37,134.58 L335.73,134.44 L336.10,134.31 L336.47,134.16 L336.84,134.02 L337.20,133.87 L337.57,133.71 L337.94,133.55 L338.31,133.39 L338.68,133.22 L339.04,133.04 L339.41,132.86 L339.78,132.67 L340.15,132.48 L340.51,132.27 L340.88,132.06 L341.25,131.85 L341.62,131.62 L341.99,131.39 L342.35,131.14 L342.72,130.89 L343.09,130.62 L343.46,130.34 L343.82,130.05 L344.19,129.74 L344.56,129.42 L344.93,129.09 L345.29,128.74 L345.66,128.36 L346.03,127.97 L346.40,127.55 L346.77,127.11 L347.13,126.64 L347.50,126.14 L347.87,125.61 L348.24,125.04 L348.60,124.42 L348.97,123.76 L349.34,123.04 L349.71,122.26 L350.08,121.41 L350.44,120.47 L350.81,119.43 L351.18,118.27 L351.55,116.97 L351.91,115.50 L352.28,113.81 L352.65,111.84 L353.02,109.52 L353.38,106.71 L353.75,103.22 L354.12,98.73 L354.49,92.64 L354.86,83.71 L355.22,68.72 L355.59,34.86 L355.96,-220.00" style="stroke-width: 3; stroke: rgb(157, 40, 192); stroke-opacity: 0.8;"/></g></g><g class="test-xtl" style="font-family: &quot;Open Sans&quot;, verdana, arial, sans-serif;"><text text-anchor="middle" font-size="12" dominant-baseline="hanging" stroke="none" fill="rgb(50,50,50)" fill-opacity="1" x="17.618627476967255" y="157.64459161147903">-0.2</text><text text-anchor="middle" font-size="12" dominant-baseline="hanging" stroke="none" fill="rgb(50,50,50)" fill-opacity="1" x="132.67862747696728" y="157.64459161147903">0.2</text><text text-anchor="middle" font-size="12" dominant-baseline="hanging" stroke="none" fill="rgb(50,50,50)" fill-opacity="1" x="188.49862747696727" y="157.64459161147903">0.4</text><text text-anchor="middle" font-size="12" dominant-baseline="hanging" stroke="none" fill="rgb(50,50,50)" fill-opacity="1" x="244.31862747696727" y="157.64459161147903">0.6</text><text text-anchor="middle" font-size="12" dominant-baseline="hanging" stroke="none" fill="rgb(50,50,50)" fill-opacity="1" x="300.1386274769673" y="157.64459161147903">0.8</text><text text-anchor="middle" font-size="12" dominant-baseline="hanging" stroke="none" fill="rgb(50,50,50)" fill-opacity="1" x="355.9586274769673" y="157.64459161147903">1</text><text text-anchor="middle" font-size="12" dominant-baseline="hanging" stroke="none" fill="rgb(50,50,50)" fill-opacity="1" x="68.85862747696727" y="155.64459161147903">0</text></g><g class="test-ytl" style="font-family: &quot;Open Sans&quot;, verdana, arial, sans-serif;"><text text-anchor="end" dominant-baseline="middle" font-size="12" stroke="none" fill="rgb(50,50,50)" fill-opacity="1" x="68.85862747696726" y="192.64459161147903">-10</text><text text-anchor="end" dominant-baseline="middle" font-size="12" stroke="none" fill="rgb(50,50,50)" fill-opacity="1" x="68.85862747696726" y="108.64459161147904">10</text><text text-anchor="end" dominant-baseline="middle" font-size="12" stroke="none" fill="rgb(50,50,50)" fill-opacity="1" x="68.85862747696726" y="66.64459161147903">20</text><text text-anchor="end" dominant-baseline="middle" font-size="12" stroke="none" fill="rgb(50,50,50)" fill-opacity="1" x="68.85862747696726" y="24.64459161147903">30</text></g><rect class="real" x="1" y="1" width="378" height="218" style="fill: transparent; stroke: none;"/></g></g></g><g class="arrow-line"><path class="connection real" stroke-dasharray="" d="  M490,60 L540,60" style="stroke: rgb(74, 144, 226); stroke-width: 2; fill: none; fill-opacity: 1; stroke-opacity: 1;"/></g><g class="arrow-line"><path class="connection real" stroke-dasharray="" d="  M490,90 L540,90" style="stroke: rgb(126, 211, 33); stroke-opacity: 1; stroke-width: 2; fill: none; fill-opacity: 1;"/></g><g class="arrow-line"><path class="connection real" stroke-dasharray="" d="  M490,120 L540,120" style="stroke: rgb(255, 142, 0); stroke-opacity: 1; stroke-width: 2; fill: none; fill-opacity: 1;"/></g><g class="arrow-line"><path class="connection real" stroke-dasharray="" d="  M490,150 L540,150" style="stroke: rgb(189, 16, 224); stroke-opacity: 1; stroke-width: 2; fill: none; fill-opacity: 1;"/></g><g/></g><g/><g/><g/></svg>
        <svg xmlns="http://www.w3.org/2000/svg" xmlns:xlink="http://www.w3.org/1999/xlink" width="660" height="300" style="width:660px;height:300px;font-family:Asana-Math, Asana;background:#FFF;"><g><g><g><g transform="matrix(1,0,0,1,250.66668701171875,33)"><path transform="matrix(0.018,0,0,-0.018,0,0)" d="M91 46C91 19 99 0 138 0L383 0C448 0 516 1 575 31C660 74 671 153 671 192C671 295 596 350 493 363C517 370 641 393 641 514C641 557 624 604 589 636C526 694 419 694 351 694L138 694C96 694 91 671 91 648ZM228 86L228 324L378 324C512 319 538 248 538 197C538 173 531 150 515 131C484 95 433 86 363 86ZM228 397L228 608L333 608C372 608 412 607 449 593C498 574 510 540 510 511C510 482 500 460 481 437C435 399 393 397 322 397ZM763 233C763 74 850 -11 1017 -11C1086 -11 1148 9 1190 33C1202 40 1206 44 1206 55C1206 55 1206 114 1195 125L1190 127L1186 127C1166 121 1119 62 1019 62C917 62 894 136 892 214L1168 214C1186 214 1212 216 1212 257C1212 364 1170 475 1003 475C859 475 763 401 763 233ZM893 279C899 341 923 402 1003 402C1081 402 1097 346 1100 279ZM1265 422C1265 411 1269 385 1309 385L1330 385L1330 152C1330 121 1330 91 1339 61C1356 6 1394 -11 1434 -11C1508 -11 1616 21 1616 47C1616 47 1608 102 1593 102C1580 102 1550 67 1503 67C1475 67 1461 85 1461 159C1461 168 1462 176 1462 185L1462 385L1555 385C1593 386 1598 411 1598 421C1598 430 1593 458 1553 458L1462 458L1462 544C1462 568 1452 589 1417 589L1381 589C1364 589 1333 588 1333 544L1333 458L1309 458C1269 458 1265 433 1265 422ZM1678 137C1678 69 1728 -11 1824 -11C1906 -11 1956 23 1978 40C1978 23 1987 0 2019 0L2067 0C2107 0 2112 23 2112 45L2112 308C2112 408 2066 475 1905 475C1842 475 1793 463 1748 443C1726 432 1720 433 1720 417C1720 417 1723 352 1730 340L1734 337L1738 336C1760 337 1790 405 1905 405C1968 405 1976 359 1976 312L1976 291C1887 290 1678 273 1678 137ZM1809 137C1809 215 1915 227 1976 232L1976 154C1976 80 1911 62 1878 62C1835 62 1809 101 1809 137ZM2631 45C2631 6 2652 0 2677 0L2924 0C3041 0 3272 15 3272 341C3272 648 3089 694 2913 694L2673 694C2629 694 2631 658 2631 646ZM2770 86L2770 579L2771 608L2916 608C3125 600 3133 459 3133 332L3133 321C3132 268 3127 212 3097 166C3046 90 2958 86 2881 86ZM3390 626C3390 586 3413 580 3436 580L3488 580C3497 581 3532 579 3532 624L3532 676C3532 716 3509 722 3486 722L3435 722C3416 721 3390 722 3390 676ZM3394 50C3394 33 3393 0 3438 0L3484 0C3529 0 3528 33 3528 45L3528 408C3528 434 3526 458 3479 458L3438 458C3393 458 3394 425 3394 413ZM3620 50C3620 47 3621 45 3622 42L3626 37C3651 21 3716 -11 3805 -11C3904 -11 3985 19 3985 140C3985 221 3925 261 3897 275C3835 307 3724 295 3724 354C3724 392 3757 402 3798 402C3895 402 3922 348 3943 348C3948 348 3952 352 3955 363C3961 397 3965 415 3965 426C3965 440 3959 443 3941 450C3904 465 3866 474 3819 475L3793 475C3709 473 3625 446 3625 331C3625 250 3692 210 3729 196C3786 175 3885 183 3885 121C3885 79 3852 68 3807 68C3700 68 3664 143 3646 143C3634 143 3633 127 3632 120C3624 76 3620 59 3620 50ZM4032 422C4032 411 4036 385 4076 385L4097 385L4097 152C4097 121 4097 91 4106 61C4123 6 4161 -11 4201 -11C4275 -11 4383 21 4383 47C4383 47 4375 102 4360 102C4347 102 4317 67 4270 67C4242 67 4228 85 4228 159C4228 168 4229 176 4229 185L4229 385L4322 385C4360 386 4365 411 4365 421C4365 430 4360 458 4320 458L4229 458L4229 544C4229 568 4219 589 4184 589L4148 589C4131 589 4100 588 4100 544L4100 458L4076 458C4036 458 4032 433 4032 422ZM4475 43C4475 24 4479 0 4520 0L4563 0C4580 0 4581 1 4591 6C4607 19 4609 22 4609 50L4609 225C4609 238 4609 250 4612 263C4622 308 4660 343 4703 358C4736 369 4754 364 4766 373C4770 379 4771 380 4771 391L4771 447C4771 461 4769 469 4751 469L4750 469C4732 469 4657 462 4604 388C4603 438 4603 439 4594 450C4583 461 4579 463 4554 463L4521 463C4500 463 4475 461 4475 418ZM4843 626C4843 586 4866 580 4889 580L4941 580C4950 581 4985 579 4985 624L4985 676C4985 716 4962 722 4939 722L4888 722C4869 721 4843 722 4843 676ZM4847 50C4847 33 4846 0 4891 0L4937 0C4982 0 4981 33 4981 45L4981 408C4981 434 4979 458 4932 458L4891 458C4846 458 4847 425 4847 413ZM5102 46C5102 21 5109 0 5148 0L5194 0C5219 0 5228 6 5238 27C5267 5 5303 -11 5351 -11C5453 -11 5564 35 5565 224C5565 246 5565 292 5554 334C5529 427 5463 469 5375 469C5318 469 5274 453 5236 429L5236 678C5236 702 5227 722 5192 722L5148 722C5109 722 5102 702 5102 676ZM5239 101L5239 362C5264 383 5290 397 5328 397C5426 397 5428 311 5428 234C5428 165 5433 62 5317 62C5270 62 5250 89 5239 101ZM5662 139C5662 68 5668 -11 5822 -11C5877 -11 5921 -3 5970 44C5970 37 5968 0 6011 0L6058 0C6084 0 6103 8 6103 43L6103 416C6102 451 6083 458 6058 458L6014 458C6002 458 5990 457 5980 449C5969 437 5967 436 5967 406L5967 181C5967 72 5901 50 5862 50C5804 50 5798 67 5798 123C5798 131 5799 139 5799 147L5799 413C5798 430 5799 458 5752 458L5706 458C5661 458 5662 424 5662 414ZM6185 422C6185 411 6189 385 6229 385L6250 385L6250 152C6250 121 6250 91 6259 61C6276 6 6314 -11 6354 -11C6428 -11 6536 21 6536 47C6536 47 6528 102 6513 102C6500 102 6470 67 6423 67C6395 67 6381 85 6381 159C6381 168 6382 176 6382 185L6382 385L6475 385C6513 386 6518 411 6518 421C6518 430 6513 458 6473 458L6382 458L6382 544C6382 568 6372 589 6337 589L6301 589C6284 589 6253 588 6253 544L6253 458L6229 458C6189 458 6185 433 6185 422ZM6624 626C6624 586 6647 580 6670 580L6722 580C6731 581 6766 579 6766 624L6766 676C6766 716 6743 722 6720 722L6669 722C6650 721 6624 722 6624 676ZM6628 50C6628 33 6627 0 6672 0L6718 0C6763 0 6762 33 6762 45L6762 408C6762 434 6760 458 6713 458L6672 458C6627 458 6628 425 6628 413ZM6853 224C6853 36 6969 -11 7098 -11C7221 -11 7341 35 7341 220C7341 465 7179 475 7082 475C6969 475 6853 424 6853 224ZM6990 214L6990 241C6990 310 6988 402 7096 402C7203 402 7203 313 7204 255L7204 228C7203 161 7206 67 7097 67C6993 67 6992 155 6990 214ZM7432 45C7432 6 7456 0 7479 0L7523 0C7569 0 7569 53 7569 53L7569 261C7569 279 7570 297 7575 315C7584 346 7616 396 7678 396C7737 396 7737 355 7737 318L7737 44C7737 19 7744 0 7783 0L7830 0C7871 0 7873 28 7873 44L7873 308C7873 380 7873 469 7725 469C7644 469 7598 435 7563 400L7563 420C7563 463 7535 463 7517 463L7477 463C7458 463 7432 460 7432 418Z" stroke="rgb(0,0,0)" stroke-opacity="1" stroke-width="8" fill="rgb(0,0,0)" fill-opacity="1"></path></g></g><g><text x="393.47918701171875" y="17" style="white-space:pre;stroke:none;fill:rgb(0,0,0);fill-opacity:1;font-size:18px;font-family:Arial, Helvetica, sans-serif;font-weight:400;font-style:normal;dominant-baseline:text-before-edge;text-decoration:none solid rgb(0, 0, 0);"> </text></g></g></g><g><g><g><g transform="matrix(1,0,0,1,551.6666870117188,63.266656494140626)"><path transform="matrix(0.0136,0,0,-0.0136,0,0)" d="M400 -16C446 -16 513 54 545 84L545 97L532 97C513 79 489 55 462 55C417 55 424 184 424 216C474 278 520 343 558 413C551 428 544 444 536 459L525 459C511 391 456 315 420 257C422 336 445 472 332 473C164 473 27 243 24 93C23 33 43 -16 111 -16C203 -16 297 64 357 131C357 96 348 -15 400 -16ZM284 437C371 437 358 224 357 164C314 113 233 28 162 28C109 28 98 70 99 115C100 202 175 437 284 437Z" stroke="rgb(0,0,0)" stroke-opacity="1" stroke-width="8" fill="rgb(0,0,0)" fill-opacity="1"></path></g></g><g><g transform="matrix(1,0,0,1,563.8229370117188,63.266656494140626)"><path transform="matrix(0.0136,0,0,-0.0136,0,0)" d="M604 347L604 406L65 406L65 347ZM604 134L604 193L65 193L65 134Z" stroke="rgb(0,0,0)" stroke-opacity="1" stroke-width="8" fill="rgb(0,0,0)" fill-opacity="1"></path></g></g><g><g transform="matrix(1,0,0,1,576.9791870117188,63.266656494140626)"><path transform="matrix(0.0136,0,0,-0.0136,0,0)" d="M16 23L16 -3C203 -3 203 0 239 0C275 0 275 -3 468 -3L468 82C353 77 307 81 122 77L304 270C401 373 431 428 431 503C431 618 353 689 226 689C154 689 105 669 56 619L39 483L68 483L81 529C97 587 133 612 200 612C286 612 341 558 341 473C341 398 299 324 186 204Z" stroke="rgb(0,0,0)" stroke-opacity="1" stroke-width="8" fill="rgb(0,0,0)" fill-opacity="1"></path></g></g><g><g transform="matrix(1,0,0,1,583.7708129882812,63.266656494140626)"><path transform="matrix(0.0136,0,0,-0.0136,0,0)" d="M204 123C177 114 159 108 106 93C99 17 74 -48 16 -144L30 -155L71 -136C152 -31 190 32 218 109Z" stroke="rgb(0,0,0)" stroke-opacity="1" stroke-width="8" fill="rgb(0,0,0)" fill-opacity="1"></path></g></g><g><g transform="matrix(1,0,0,1,589.875,63.266656494140626)"><path transform="matrix(0.0136,0,0,-0.0136,0,0)" d="M459 205C459 301 389 358 298 360L298 369C391 400 475 479 476 581C477 644 445 680 381 680C154 680 114 463 89 289C62 101 36 -87 -8 -273L-8 -283C18 -274 43 -265 70 -259C76 -162 90 -66 104 29C239 -84 459 37 459 205ZM216 12C159 12 123 45 124 103C126 205 190 570 278 629C337 668 411 631 406 558C398 447 310 371 204 371C201 338 204 378 200 329C294 362 383 309 378 208C374 115 322 12 216 12Z" stroke="rgb(0,0,0)" stroke-opacity="1" stroke-width="8" fill="rgb(0,0,0)" fill-opacity="1"></path></g></g><g><g transform="matrix(1,0,0,1,600.9166870117188,63.266656494140626)"><path transform="matrix(0.0136,0,0,-0.0136,0,0)" d="M604 347L604 406L65 406L65 347ZM604 134L604 193L65 193L65 134Z" stroke="rgb(0,0,0)" stroke-opacity="1" stroke-width="8" fill="rgb(0,0,0)" fill-opacity="1"></path></g></g><g><g transform="matrix(1,0,0,1,614.0729370117188,63.266656494140626)"><path transform="matrix(0.0136,0,0,-0.0136,0,0)" d="M16 23L16 -3C203 -3 203 0 239 0C275 0 275 -3 468 -3L468 82C353 77 307 81 122 77L304 270C401 373 431 428 431 503C431 618 353 689 226 689C154 689 105 669 56 619L39 483L68 483L81 529C97 587 133 612 200 612C286 612 341 558 341 473C341 398 299 324 186 204Z" stroke="rgb(0,0,0)" stroke-opacity="1" stroke-width="8" fill="rgb(0,0,0)" fill-opacity="1"></path></g></g></g></g><g><g><g><g transform="matrix(1,0,0,1,551.6666870117188,93.26665649414062)"><path transform="matrix(0.0136,0,0,-0.0136,0,0)" d="M400 -16C446 -16 513 54 545 84L545 97L532 97C513 79 489 55 462 55C417 55 424 184 424 216C474 278 520 343 558 413C551 428 544 444 536 459L525 459C511 391 456 315 420 257C422 336 445 472 332 473C164 473 27 243 24 93C23 33 43 -16 111 -16C203 -16 297 64 357 131C357 96 348 -15 400 -16ZM284 437C371 437 358 224 357 164C314 113 233 28 162 28C109 28 98 70 99 115C100 202 175 437 284 437Z" stroke="rgb(0,0,0)" stroke-opacity="1" stroke-width="8" fill="rgb(0,0,0)" fill-opacity="1"></path></g></g><g><g transform="matrix(1,0,0,1,563.8229370117188,93.26665649414062)"><path transform="matrix(0.0136,0,0,-0.0136,0,0)" d="M604 347L604 406L65 406L65 347ZM604 134L604 193L65 193L65 134Z" stroke="rgb(0,0,0)" stroke-opacity="1" stroke-width="8" fill="rgb(0,0,0)" fill-opacity="1"></path></g></g><g><g transform="matrix(1,0,0,1,576.9791870117188,93.26665649414062)"><path transform="matrix(0.0136,0,0,-0.0136,0,0)" d="M459 253C459 366 378 446 264 446C216 446 180 443 127 396L127 605L432 604L432 689L75 690L75 322L95 316C142 363 169 377 218 377C314 377 374 309 374 201C374 90 310 25 201 25C147 25 97 43 83 69L37 151L13 137C36 80 48 48 62 4C90 -11 130 -20 173 -20C301 -20 459 89 459 253Z" stroke="rgb(0,0,0)" stroke-opacity="1" stroke-width="8" fill="rgb(0,0,0)" fill-opacity="1"></path></g></g><g><g transform="matrix(1,0,0,1,583.7708129882812,93.26665649414062)"><path transform="matrix(0.0136,0,0,-0.0136,0,0)" d="M204 123C177 114 159 108 106 93C99 17 74 -48 16 -144L30 -155L71 -136C152 -31 190 32 218 109Z" stroke="rgb(0,0,0)" stroke-opacity="1" stroke-width="8" fill="rgb(0,0,0)" fill-opacity="1"></path></g></g><g><g transform="matrix(1,0,0,1,589.875,93.26665649414062)"><path transform="matrix(0.0136,0,0,-0.0136,0,0)" d="M459 205C459 301 389 358 298 360L298 369C391 400 475 479 476 581C477 644 445 680 381 680C154 680 114 463 89 289C62 101 36 -87 -8 -273L-8 -283C18 -274 43 -265 70 -259C76 -162 90 -66 104 29C239 -84 459 37 459 205ZM216 12C159 12 123 45 124 103C126 205 190 570 278 629C337 668 411 631 406 558C398 447 310 371 204 371C201 338 204 378 200 329C294 362 383 309 378 208C374 115 322 12 216 12Z" stroke="rgb(0,0,0)" stroke-opacity="1" stroke-width="8" fill="rgb(0,0,0)" fill-opacity="1"></path></g></g><g><g transform="matrix(1,0,0,1,600.9166870117188,93.26665649414062)"><path transform="matrix(0.0136,0,0,-0.0136,0,0)" d="M604 347L604 406L65 406L65 347ZM604 134L604 193L65 193L65 134Z" stroke="rgb(0,0,0)" stroke-opacity="1" stroke-width="8" fill="rgb(0,0,0)" fill-opacity="1"></path></g></g><g><g transform="matrix(1,0,0,1,614.0729370117188,93.26665649414062)"><path transform="matrix(0.0136,0,0,-0.0136,0,0)" d="M16 23L16 -3C203 -3 203 0 239 0C275 0 275 -3 468 -3L468 82C353 77 307 81 122 77L304 270C401 373 431 428 431 503C431 618 353 689 226 689C154 689 105 669 56 619L39 483L68 483L81 529C97 587 133 612 200 612C286 612 341 558 341 473C341 398 299 324 186 204Z" stroke="rgb(0,0,0)" stroke-opacity="1" stroke-width="8" fill="rgb(0,0,0)" fill-opacity="1"></path></g></g></g></g><g><g><g><g transform="matrix(1,0,0,1,551.6666870117188,123.26665649414062)"><path transform="matrix(0.0136,0,0,-0.0136,0,0)" d="M400 -16C446 -16 513 54 545 84L545 97L532 97C513 79 489 55 462 55C417 55 424 184 424 216C474 278 520 343 558 413C551 428 544 444 536 459L525 459C511 391 456 315 420 257C422 336 445 472 332 473C164 473 27 243 24 93C23 33 43 -16 111 -16C203 -16 297 64 357 131C357 96 348 -15 400 -16ZM284 437C371 437 358 224 357 164C314 113 233 28 162 28C109 28 98 70 99 115C100 202 175 437 284 437Z" stroke="rgb(0,0,0)" stroke-opacity="1" stroke-width="8" fill="rgb(0,0,0)" fill-opacity="1"></path></g></g><g><g transform="matrix(1,0,0,1,563.8229370117188,123.26665649414062)"><path transform="matrix(0.0136,0,0,-0.0136,0,0)" d="M604 347L604 406L65 406L65 347ZM604 134L604 193L65 193L65 134Z" stroke="rgb(0,0,0)" stroke-opacity="1" stroke-width="8" fill="rgb(0,0,0)" fill-opacity="1"></path></g></g><g><g transform="matrix(1,0,0,1,576.9791870117188,123.26665649414062)"><path transform="matrix(0.0136,0,0,-0.0136,0,0)" d="M16 23L16 -3C203 -3 203 0 239 0C275 0 275 -3 468 -3L468 82C353 77 307 81 122 77L304 270C401 373 431 428 431 503C431 618 353 689 226 689C154 689 105 669 56 619L39 483L68 483L81 529C97 587 133 612 200 612C286 612 341 558 341 473C341 398 299 324 186 204Z" stroke="rgb(0,0,0)" stroke-opacity="1" stroke-width="8" fill="rgb(0,0,0)" fill-opacity="1"></path></g></g><g><g transform="matrix(1,0,0,1,583.7708129882812,123.26665649414062)"><path transform="matrix(0.0136,0,0,-0.0136,0,0)" d="M204 123C177 114 159 108 106 93C99 17 74 -48 16 -144L30 -155L71 -136C152 -31 190 32 218 109Z" stroke="rgb(0,0,0)" stroke-opacity="1" stroke-width="8" fill="rgb(0,0,0)" fill-opacity="1"></path></g></g><g><g transform="matrix(1,0,0,1,589.875,123.26665649414062)"><path transform="matrix(0.0136,0,0,-0.0136,0,0)" d="M459 205C459 301 389 358 298 360L298 369C391 400 475 479 476 581C477 644 445 680 381 680C154 680 114 463 89 289C62 101 36 -87 -8 -273L-8 -283C18 -274 43 -265 70 -259C76 -162 90 -66 104 29C239 -84 459 37 459 205ZM216 12C159 12 123 45 124 103C126 205 190 570 278 629C337 668 411 631 406 558C398 447 310 371 204 371C201 338 204 378 200 329C294 362 383 309 378 208C374 115 322 12 216 12Z" stroke="rgb(0,0,0)" stroke-opacity="1" stroke-width="8" fill="rgb(0,0,0)" fill-opacity="1"></path></g></g><g><g transform="matrix(1,0,0,1,600.9166870117188,123.26665649414062)"><path transform="matrix(0.0136,0,0,-0.0136,0,0)" d="M604 347L604 406L65 406L65 347ZM604 134L604 193L65 193L65 134Z" stroke="rgb(0,0,0)" stroke-opacity="1" stroke-width="8" fill="rgb(0,0,0)" fill-opacity="1"></path></g></g><g><g transform="matrix(1,0,0,1,614.0729370117188,123.26665649414062)"><path transform="matrix(0.0136,0,0,-0.0136,0,0)" d="M459 253C459 366 378 446 264 446C216 446 180 443 127 396L127 605L432 604L432 689L75 690L75 322L95 316C142 363 169 377 218 377C314 377 374 309 374 201C374 90 310 25 201 25C147 25 97 43 83 69L37 151L13 137C36 80 48 48 62 4C90 -11 130 -20 173 -20C301 -20 459 89 459 253Z" stroke="rgb(0,0,0)" stroke-opacity="1" stroke-width="8" fill="rgb(0,0,0)" fill-opacity="1"></path></g></g></g></g><g><g><g><g transform="matrix(1,0,0,1,551.6666870117188,153.26665649414062)"><path transform="matrix(0.0136,0,0,-0.0136,0,0)" d="M400 -16C446 -16 513 54 545 84L545 97L532 97C513 79 489 55 462 55C417 55 424 184 424 216C474 278 520 343 558 413C551 428 544 444 536 459L525 459C511 391 456 315 420 257C422 336 445 472 332 473C164 473 27 243 24 93C23 33 43 -16 111 -16C203 -16 297 64 357 131C357 96 348 -15 400 -16ZM284 437C371 437 358 224 357 164C314 113 233 28 162 28C109 28 98 70 99 115C100 202 175 437 284 437Z" stroke="rgb(0,0,0)" stroke-opacity="1" stroke-width="8" fill="rgb(0,0,0)" fill-opacity="1"></path></g></g><g><g transform="matrix(1,0,0,1,563.8229370117188,153.26665649414062)"><path transform="matrix(0.0136,0,0,-0.0136,0,0)" d="M604 347L604 406L65 406L65 347ZM604 134L604 193L65 193L65 134Z" stroke="rgb(0,0,0)" stroke-opacity="1" stroke-width="8" fill="rgb(0,0,0)" fill-opacity="1"></path></g></g><g><g transform="matrix(1,0,0,1,576.9791870117188,153.26665649414062)"><path transform="matrix(0.0136,0,0,-0.0136,0,0)" d="M263 689C108 689 29 566 29 324C29 207 50 106 85 57C120 8 176 -20 238 -20C389 -20 465 110 465 366C465 585 400 689 263 689ZM245 654C342 654 381 556 381 316C381 103 343 15 251 15C154 15 113 116 113 360C113 571 150 654 245 654ZM623 111C593 111 566 83 566 53C566 23 593 -5 622 -5C654 -5 682 22 682 53C682 83 654 111 623 111ZM1207 253C1207 366 1126 446 1012 446C964 446 928 443 875 396L875 605L1180 604L1180 689L823 690L823 322L843 316C890 363 917 377 966 377C1062 377 1122 309 1122 201C1122 90 1058 25 949 25C895 25 845 43 831 69L785 151L761 137C784 80 796 48 810 4C838 -11 878 -20 921 -20C1049 -20 1207 89 1207 253Z" stroke="rgb(0,0,0)" stroke-opacity="1" stroke-width="8" fill="rgb(0,0,0)" fill-opacity="1"></path></g></g><g><g transform="matrix(1,0,0,1,593.9375,153.26665649414062)"><path transform="matrix(0.0136,0,0,-0.0136,0,0)" d="M204 123C177 114 159 108 106 93C99 17 74 -48 16 -144L30 -155L71 -136C152 -31 190 32 218 109Z" stroke="rgb(0,0,0)" stroke-opacity="1" stroke-width="8" fill="rgb(0,0,0)" fill-opacity="1"></path></g></g><g><g transform="matrix(1,0,0,1,600.0416870117188,153.26665649414062)"><path transform="matrix(0.0136,0,0,-0.0136,0,0)" d="M459 205C459 301 389 358 298 360L298 369C391 400 475 479 476 581C477 644 445 680 381 680C154 680 114 463 89 289C62 101 36 -87 -8 -273L-8 -283C18 -274 43 -265 70 -259C76 -162 90 -66 104 29C239 -84 459 37 459 205ZM216 12C159 12 123 45 124 103C126 205 190 570 278 629C337 668 411 631 406 558C398 447 310 371 204 371C201 338 204 378 200 329C294 362 383 309 378 208C374 115 322 12 216 12Z" stroke="rgb(0,0,0)" stroke-opacity="1" stroke-width="8" fill="rgb(0,0,0)" fill-opacity="1"></path></g></g><g><g transform="matrix(1,0,0,1,611.0833129882812,153.26665649414062)"><path transform="matrix(0.0136,0,0,-0.0136,0,0)" d="M604 347L604 406L65 406L65 347ZM604 134L604 193L65 193L65 134Z" stroke="rgb(0,0,0)" stroke-opacity="1" stroke-width="8" fill="rgb(0,0,0)" fill-opacity="1"></path></g></g><g><g transform="matrix(1,0,0,1,624.2395629882812,153.26665649414062)"><path transform="matrix(0.0136,0,0,-0.0136,0,0)" d="M263 689C108 689 29 566 29 324C29 207 50 106 85 57C120 8 176 -20 238 -20C389 -20 465 110 465 366C465 585 400 689 263 689ZM245 654C342 654 381 556 381 316C381 103 343 15 251 15C154 15 113 116 113 360C113 571 150 654 245 654ZM623 111C593 111 566 83 566 53C566 23 593 -5 622 -5C654 -5 682 22 682 53C682 83 654 111 623 111ZM1207 253C1207 366 1126 446 1012 446C964 446 928 443 875 396L875 605L1180 604L1180 689L823 690L823 322L843 316C890 363 917 377 966 377C1062 377 1122 309 1122 201C1122 90 1058 25 949 25C895 25 845 43 831 69L785 151L761 137C784 80 796 48 810 4C838 -11 878 -20 921 -20C1049 -20 1207 89 1207 253Z" stroke="rgb(0,0,0)" stroke-opacity="1" stroke-width="8" fill="rgb(0,0,0)" fill-opacity="1"></path></g></g></g></g></svg>
</svg>
