<svg xmlns="http://www.w3.org/2000/svg" xmlns:xlink="http://www.w3.org/1999/xlink" x="0" y="0" width="661.3333740234375" height="301.3333435058594" style="
        width:661.3333740234375px;
        height:301.3333435058594px;
        background: #FFF;
        fill: none;
">
        
        
        <svg xmlns="http://www.w3.org/2000/svg" class="role-diagram-draw-area"><g class="shapes-region" style="stroke: black; fill: none;"><g class="composite-shape" data-amt="diagram/shapes/plot" transform="matrix(1,0,0,1,128,72)"><g><g/><g><g class="test-xti" style="font-family: Asana-Math, Asana;"><line x1="0" y1="97" x2="424.5" y2="97" fill="none" stroke="rgb(50,50,50)" stroke-opacity="1" stroke-width="2"/><line x1="60.4" y1="92" x2="60.4" y2="102" fill="none" stroke="rgb(50,50,50)" stroke-opacity="1" stroke-width="2"/><line x1="95.8" y1="92" x2="95.8" y2="102" fill="none" stroke="rgb(50,50,50)" stroke-opacity="1" stroke-width="2"/><line x1="131.20000000000002" y1="92" x2="131.20000000000002" y2="102" fill="none" stroke="rgb(50,50,50)" stroke-opacity="1" stroke-width="2"/><line x1="166.6" y1="92" x2="166.6" y2="102" fill="none" stroke="rgb(50,50,50)" stroke-opacity="1" stroke-width="2"/><line x1="202" y1="92" x2="202" y2="102" fill="none" stroke="rgb(50,50,50)" stroke-opacity="1" stroke-width="2"/><line x1="237.39999999999998" y1="92" x2="237.39999999999998" y2="102" fill="none" stroke="rgb(50,50,50)" stroke-opacity="1" stroke-width="2"/><line x1="272.79999999999995" y1="92" x2="272.79999999999995" y2="102" fill="none" stroke="rgb(50,50,50)" stroke-opacity="1" stroke-width="2"/><line x1="308.2" y1="92" x2="308.2" y2="102" fill="none" stroke="rgb(50,50,50)" stroke-opacity="1" stroke-width="2"/><line x1="343.59999999999997" y1="92" x2="343.59999999999997" y2="102" fill="none" stroke="rgb(50,50,50)" stroke-opacity="1" stroke-width="2"/><line x1="379" y1="92" x2="379" y2="102" fill="none" stroke="rgb(50,50,50)" stroke-opacity="1" stroke-width="2"/><line x1="414.4" y1="92" x2="414.4" y2="102" fill="none" stroke="rgb(50,50,50)" stroke-opacity="1" stroke-width="2"/><path d="M419,92.5 L429,97 L419,101.5 Z" stroke="none" stroke-width="2" fill="rgb(50,50,50)" fill-opacity="1"/></g><g class="test-plot-expression"><defs><clipPath id="cpx1eeg613m"><rect x="1" y="1" width="428" height="206"/></clipPath></defs><g clip-path="url(#cpx1eeg613m)"><g><circle cx="60.4" cy="97" r="4" style="stroke-width: 2; stroke: rgb(0, 0, 0); stroke-opacity: 0.1; fill: rgb(255, 142, 0); fill-opacity: 1;"/><circle cx="69.25" cy="97" r="4" style="stroke-width: 2; stroke: rgb(0, 0, 0); stroke-opacity: 0.1; fill: rgb(255, 142, 0); fill-opacity: 1;"/><circle cx="78.1" cy="97" r="4" style="stroke-width: 2; stroke: rgb(0, 0, 0); stroke-opacity: 0.1; fill: rgb(255, 142, 0); fill-opacity: 1;"/><circle cx="63.940000000000005" cy="97" r="4" style="stroke-width: 2; stroke: rgb(0, 0, 0); stroke-opacity: 0.1; fill: rgb(255, 142, 0); fill-opacity: 1;"/><circle cx="83.41" cy="97" r="4" style="stroke-width: 2; stroke: rgb(0, 0, 0); stroke-opacity: 0.1; fill: rgb(255, 142, 0); fill-opacity: 1;"/><circle cx="95.8" cy="97" r="4" style="stroke-width: 2; stroke: rgb(0, 0, 0); stroke-opacity: 0.1; fill: rgb(255, 142, 0); fill-opacity: 1;"/></g><g><circle cx="201.99999999999997" cy="97" r="4" style="stroke-width: 3; stroke: rgb(0, 0, 0); stroke-opacity: 0.11; fill: rgb(60, 180, 75); fill-opacity: 1;"/><circle cx="210.84999999999997" cy="97" r="4" style="stroke-width: 3; stroke: rgb(0, 0, 0); stroke-opacity: 0.11; fill: rgb(60, 180, 75); fill-opacity: 1;"/><circle cx="191.38000000000002" cy="97" r="4" style="stroke-width: 3; stroke: rgb(0, 0, 0); stroke-opacity: 0.11; fill: rgb(60, 180, 75); fill-opacity: 1;"/><circle cx="184.29999999999998" cy="97" r="4" style="stroke-width: 3; stroke: rgb(0, 0, 0); stroke-opacity: 0.11; fill: rgb(60, 180, 75); fill-opacity: 1;"/><circle cx="177.22" cy="97" r="4" style="stroke-width: 3; stroke: rgb(0, 0, 0); stroke-opacity: 0.11; fill: rgb(60, 180, 75); fill-opacity: 1;"/></g><g><circle cx="290.5" cy="97" r="4" style="stroke-width: 3; stroke: rgb(0, 0, 0); stroke-opacity: 0.1; fill: rgb(255, 142, 0); fill-opacity: 1;"/><circle cx="286.96" cy="97" r="4" style="stroke-width: 3; stroke: rgb(0, 0, 0); stroke-opacity: 0.1; fill: rgb(255, 142, 0); fill-opacity: 1;"/><circle cx="299.34999999999997" cy="97" r="4" style="stroke-width: 3; stroke: rgb(0, 0, 0); stroke-opacity: 0.1; fill: rgb(255, 142, 0); fill-opacity: 1;"/><circle cx="308.2" cy="97" r="4" style="stroke-width: 3; stroke: rgb(0, 0, 0); stroke-opacity: 0.1; fill: rgb(255, 142, 0); fill-opacity: 1;"/><circle cx="272.79999999999995" cy="97" r="4" style="stroke-width: 3; stroke: rgb(0, 0, 0); stroke-opacity: 0.1; fill: rgb(255, 142, 0); fill-opacity: 1;"/><circle cx="278.995" cy="97" r="4" style="stroke-width: 3; stroke: rgb(0, 0, 0); stroke-opacity: 0.1; fill: rgb(255, 142, 0); fill-opacity: 1;"/><circle cx="322.36" cy="97" r="4" style="stroke-width: 3; stroke: rgb(0, 0, 0); stroke-opacity: 0.1; fill: rgb(255, 142, 0); fill-opacity: 1;"/></g><path d=" M210.85, 97.00 L210.85, 96.79 L210.85, 96.57 L210.85, 96.36 L210.85, 96.15 L210.85, 95.93 L210.85, 95.72 L210.85, 95.51 L210.85, 95.30 L210.85, 95.08 L210.85, 94.87 L210.85, 94.66 L210.85, 94.44 L210.85, 94.23 L210.85, 94.02 L210.85, 93.80 L210.85, 93.59 L210.85, 93.38 L210.85, 93.17 L210.85, 92.95 L210.85, 92.74 L210.85, 92.53 L210.85, 92.31 L210.85, 92.10 L210.85, 91.89 L210.85, 91.67 L210.85, 91.46 L210.85, 91.25 L210.85, 91.04 L210.85, 90.82 L210.85, 90.61 L210.85, 90.40 L210.85, 90.18 L210.85, 89.97 L210.85, 89.76 L210.85, 89.54 L210.85, 89.33 L210.85, 89.12 L210.85, 88.91 L210.85, 88.69 L210.85, 88.48 L210.85, 88.27 L210.85, 88.05 L210.85, 87.84 L210.85, 87.63 L210.85, 87.41 L210.85, 87.20 L210.85, 86.99 L210.85, 86.78 L210.85, 86.56 L210.85, 86.35 L210.85, 86.14 L210.85, 85.92 L210.85, 85.71 L210.85, 85.50 L210.85, 85.28 L210.85, 85.07 L210.85, 84.86 L210.85, 84.65 L210.85, 84.43 L210.85, 84.22 L210.85, 84.01 L210.85, 83.79 L210.85, 83.58 L210.85, 83.37 L210.85, 83.15 L210.85, 82.94 L210.85, 82.73 L210.85, 82.52 L210.85, 82.30 L210.85, 82.09 L210.85, 81.88 L210.85, 81.66 L210.85, 81.45 L210.85, 81.24 L210.85, 81.02 L210.85, 80.81 L210.85, 80.60 L210.85, 80.39 L210.85, 80.17 L210.85, 79.96 L210.85, 79.75 L210.85, 79.53 L210.85, 79.32 L210.85, 79.11 L210.85, 78.89 L210.85, 78.68 L210.85, 78.47 L210.85, 78.25 L210.85, 78.04 L210.85, 77.83 L210.85, 77.62 L210.85, 77.40 L210.85, 77.19 L210.85, 76.98 L210.85, 76.76 L210.85, 76.55 L210.85, 76.34 L210.85, 76.12 L210.85, 75.91 L210.85, 75.70 L210.85, 75.49 L210.85, 75.27 L210.85, 75.06 L210.85, 74.85 L210.85, 74.63 L210.85, 74.42 L210.85, 74.21 L210.85, 73.99 L210.85, 73.78 L210.85, 73.57 L210.85, 73.36 L210.85, 73.14 L210.85, 72.93 L210.85, 72.72 L210.85, 72.50 L210.85, 72.29 L210.85, 72.08 L210.85, 71.86 L210.85, 71.65 L210.85, 71.44 L210.85, 71.23 L210.85, 71.01 L210.85, 70.80 L210.85, 70.59 L210.85, 70.37 L210.85, 70.16 L210.85, 69.95 L210.85, 69.73 L210.85, 69.52 L210.85, 69.31 L210.85, 69.10 L210.85, 68.88 L210.85, 68.67 L210.85, 68.46 L210.85, 68.24 L210.85, 68.03 L210.85, 67.82 L210.85, 67.60 L210.85, 67.39 L210.85, 67.18 L210.85, 66.97 L210.85, 66.75 L210.85, 66.54 L210.85, 66.33 L210.85, 66.11 L210.85, 65.90 L210.85, 65.69 L210.85, 65.47 L210.85, 65.26 L210.85, 65.05 L210.85, 64.84 L210.85, 64.62 L210.85, 64.41 L210.85, 64.20 L210.85, 63.98 L210.85, 63.77 L210.85, 63.56 L210.85, 63.34 L210.85, 63.13 L210.85, 62.92 L210.85, 62.71 L210.85, 62.49 L210.85, 62.28 L210.85, 62.07 L210.85, 61.85 L210.85, 61.64 L210.85, 61.43 L210.85, 61.21 L210.85, 61.00 L210.85, 60.79 L210.85, 60.57 L210.85, 60.36 L210.85, 60.15 L210.85, 59.94 L210.85, 59.72 L210.85, 59.51 L210.85, 59.30 L210.85, 59.08 L210.85, 58.87 L210.85, 58.66 L210.85, 58.44 L210.85, 58.23 L210.85, 58.02 L210.85, 57.81 L210.85, 57.59 L210.85, 57.38 L210.85, 57.17 L210.85, 56.95 L210.85, 56.74 L210.85, 56.53 L210.85, 56.31 L210.85, 56.10 L210.85, 55.89 L210.85, 55.68 L210.85, 55.46 L210.85, 55.25 L210.85, 55.04 L210.85, 54.82 L210.85, 54.61 L210.85, 54.40 L210.85, 54.18 L210.85, 53.97 L210.85, 53.76 L210.85, 53.55 L210.85, 53.33 L210.85, 53.12 L210.85, 52.91 L210.85, 52.69 L210.85, 52.48 L210.85, 52.27 L210.85, 52.05 L210.85, 51.84 L210.85, 51.63 L210.85, 51.42 L210.85, 51.20 L210.85, 50.99 L210.85, 50.78 L210.85, 50.56 L210.85, 50.35 L210.85, 50.14 L210.85, 49.92 L210.85, 49.71 L210.85, 49.50 L210.85, 49.29 L210.85, 49.07 L210.85, 48.86 L210.85, 48.65 L210.85, 48.43 L210.85, 48.22 L210.85, 48.01 L210.85, 47.79 L210.85, 47.58 L210.85, 47.37 L210.85, 47.16 L210.85, 46.94 L210.85, 46.73 L210.85, 46.52 L210.85, 46.30 L210.85, 46.09 L210.85, 45.88 L210.85, 45.66 L210.85, 45.45 L210.85, 45.24 L210.85, 45.03 L210.85, 44.81 L210.85, 44.60 L210.85, 44.39 L210.85, 44.17 L210.85, 43.96 L210.85, 43.75 L210.85, 43.53 L210.85, 43.32 L210.85, 43.11 L210.85, 42.89 L210.85, 42.68 L210.85, 42.47 L210.85, 42.26 L210.85, 42.04 L210.85, 41.83 L210.85, 41.62 L210.85, 41.40 L210.85, 41.19 L210.85, 40.98 L210.85, 40.76 L210.85, 40.55 L210.85, 40.34 L210.85, 40.13 L210.85, 39.91 L210.85, 39.70 L210.85, 39.49 L210.85, 39.27 L210.85, 39.06 L210.85, 38.85 L210.85, 38.63 L210.85, 38.42 L210.85, 38.21 L210.85, 38.00 L210.85, 37.78 L210.85, 37.57 L210.85, 37.36 L210.85, 37.14 L210.85, 36.93 L210.85, 36.72 L210.85, 36.50 L210.85, 36.29 L210.85, 36.08 L210.85, 35.87 L210.85, 35.65 L210.85, 35.44 L210.85, 35.23 L210.85, 35.01 L210.85, 34.80 L210.85, 34.59 L210.85, 34.37 L210.85, 34.16 L210.85, 33.95 L210.85, 33.74 L210.85, 33.52 L210.85, 33.31 L210.85, 33.10 L210.85, 32.88 L210.85, 32.67 L210.85, 32.46 L210.85, 32.24 L210.85, 32.03 L210.85, 31.82 L210.85, 31.61 L210.85, 31.39 L210.85, 31.18 L210.85, 30.97 L210.85, 30.75 L210.85, 30.54 L210.85, 30.33 L210.85, 30.11 L210.85, 29.90 L210.85, 29.69 L210.85, 29.48 L210.85, 29.26 L210.85, 29.05 L210.85, 28.84 L210.85, 28.62 L210.85, 28.41 L210.85, 28.20 L210.85, 27.98 L210.85, 27.77 L210.85, 27.56 L210.85, 27.35 L210.85, 27.13 L210.85, 26.92 L210.85, 26.71 L210.85, 26.49 L210.85, 26.28 L210.85, 26.07 L210.85, 25.85 L210.85, 25.64 L210.85, 25.43 L210.85, 25.21 L210.85, 25.00 L210.85, 24.79 L210.85, 24.58 L210.85, 24.36 L210.85, 24.15 L210.85, 23.94 L210.85, 23.72 L210.85, 23.51 L210.85, 23.30 L210.85, 23.08 L210.85, 22.87 L210.85, 22.66 L210.85, 22.45 L210.85, 22.23 L210.85, 22.02 L210.85, 21.81 L210.85, 21.59 L210.85, 21.38 L210.85, 21.17 L210.85, 20.95 L210.85, 20.74 L210.85, 20.53 L210.85, 20.32 L210.85, 20.10 L210.85, 19.89 L210.85, 19.68 L210.85, 19.46 L210.85, 19.25 L210.85, 19.04 L210.85, 18.82 L210.85, 18.61 L210.85, 18.40 L210.85, 18.19 L210.85, 17.97 L210.85, 17.76 L210.85, 17.55 L210.85, 17.33 L210.85, 17.12 L210.85, 16.91 L210.85, 16.69 L210.85, 16.48 L210.85, 16.27 L210.85, 16.06 L210.85, 15.84 L210.85, 15.63 L210.85, 15.42 L210.85, 15.20 L210.85, 14.99 L210.85, 14.78 L210.85, 14.56 L210.85, 14.35 L210.85, 14.14 L210.85, 13.93 L210.85, 13.71 L210.85, 13.50 L210.85, 13.29 L210.85, 13.07 L210.85, 12.86 L210.85, 12.65 L210.85, 12.43 L210.85, 12.22 L210.85, 12.01 L210.85, 11.80 L210.85, 11.58 L210.85, 11.37 L210.85, 11.16 L210.85, 10.94 L210.85, 10.73 L210.85, 10.52 L210.85, 10.30 L210.85, 10.09 L210.85, 9.88 L210.85, 9.67 L210.85, 9.45 L210.85, 9.24 L210.85, 9.03 L210.85, 8.81 L210.85, 8.60" style="stroke-width: 2; stroke: rgb(0, 0, 0); stroke-opacity: 1; stroke-dasharray: 2.25, 3.685;"/><path d=" M0.00,96.97 L0.50,96.97 L1.00,96.96 L1.50,96.96 L2.00,96.96 L2.50,96.96 L3.00,96.96 L3.50,96.96 L4.00,96.96 L4.51,96.95 L5.01,96.95 L5.51,96.95 L6.01,96.95 L6.51,96.95 L7.01,96.95 L7.51,96.94 L8.01,96.94 L8.51,96.94 L9.01,96.94 L9.51,96.93 L10.01,96.93 L10.51,96.93 L11.01,96.93 L11.51,96.92 L12.01,96.92 L12.51,96.92 L13.02,96.92 L13.52,96.91 L14.02,96.91 L14.52,96.91 L15.02,96.90 L15.52,96.90 L16.02,96.90 L16.52,96.89 L17.02,96.89 L17.52,96.89 L18.02,96.88 L18.52,96.88 L19.02,96.87 L19.52,96.87 L20.02,96.86 L20.52,96.86 L21.02,96.85 L21.53,96.85 L22.03,96.84 L22.53,96.84 L23.03,96.83 L23.53,96.83 L24.03,96.82 L24.53,96.82 L25.03,96.81 L25.53,96.80 L26.03,96.80 L26.53,96.79 L27.03,96.78 L27.53,96.78 L28.03,96.77 L28.53,96.76 L29.03,96.75 L29.53,96.75 L30.03,96.74 L30.54,96.73 L31.04,96.72 L31.54,96.71 L32.04,96.70 L32.54,96.69 L33.04,96.68 L33.54,96.67 L34.04,96.66 L34.54,96.65 L35.04,96.64 L35.54,96.63 L36.04,96.62 L36.54,96.60 L37.04,96.59 L37.54,96.58 L38.04,96.57 L38.54,96.55 L39.05,96.54 L39.55,96.52 L40.05,96.51 L40.55,96.50 L41.05,96.48 L41.55,96.46 L42.05,96.45 L42.55,96.43 L43.05,96.41 L43.55,96.40 L44.05,96.38 L44.55,96.36 L45.05,96.34 L45.55,96.32 L46.05,96.30 L46.55,96.28 L47.05,96.26 L47.56,96.24 L48.06,96.21 L48.56,96.19 L49.06,96.17 L49.56,96.14 L50.06,96.12 L50.56,96.09 L51.06,96.07 L51.56,96.04 L52.06,96.01 L52.56,95.98 L53.06,95.95 L53.56,95.92 L54.06,95.89 L54.56,95.86 L55.06,95.83 L55.56,95.80 L56.07,95.77 L56.57,95.73 L57.07,95.70 L57.57,95.66 L58.07,95.62 L58.57,95.58 L59.07,95.55 L59.57,95.51 L60.07,95.47 L60.57,95.42 L61.07,95.38 L61.57,95.34 L62.07,95.29 L62.57,95.25 L63.07,95.20 L63.57,95.15 L64.07,95.11 L64.58,95.06 L65.08,95.00 L65.58,94.95 L66.08,94.90 L66.58,94.84 L67.08,94.79 L67.58,94.73 L68.08,94.67 L68.58,94.61 L69.08,94.55 L69.58,94.49 L70.08,94.43 L70.58,94.36 L71.08,94.29 L71.58,94.23 L72.08,94.16 L72.58,94.09 L73.08,94.01 L73.59,93.94 L74.09,93.87 L74.59,93.79 L75.09,93.71 L75.59,93.63 L76.09,93.55 L76.59,93.46 L77.09,93.38 L77.59,93.29 L78.09,93.20 L78.59,93.11 L79.09,93.02 L79.59,92.93 L80.09,92.83 L80.59,92.73 L81.09,92.63 L81.59,92.53 L82.10,92.43 L82.60,92.32 L83.10,92.22 L83.60,92.11 L84.10,92.00 L84.60,91.88 L85.10,91.77 L85.60,91.65 L86.10,91.53 L86.60,91.41 L87.10,91.28 L87.60,91.15 L88.10,91.02 L88.60,90.89 L89.10,90.76 L89.60,90.62 L90.10,90.49 L90.61,90.34 L91.11,90.20 L91.61,90.06 L92.11,89.91 L92.61,89.76 L93.11,89.60 L93.61,89.45 L94.11,89.29 L94.61,89.13 L95.11,88.96 L95.61,88.80 L96.11,88.63 L96.61,88.46 L97.11,88.28 L97.61,88.10 L98.11,87.92 L98.61,87.74 L99.12,87.55 L99.62,87.37 L100.12,87.17 L100.62,86.98 L101.12,86.78 L101.62,86.58 L102.12,86.38 L102.62,86.17 L103.12,85.96 L103.62,85.75 L104.12,85.53 L104.62,85.31 L105.12,85.09 L105.62,84.87 L106.12,84.64 L106.62,84.41 L107.12,84.17 L107.63,83.94 L108.13,83.69 L108.63,83.45 L109.13,83.20 L109.63,82.95 L110.13,82.70 L110.63,82.44 L111.13,82.18 L111.63,81.92 L112.13,81.65 L112.63,81.38 L113.13,81.10 L113.63,80.83 L114.13,80.54 L114.63,80.26 L115.13,79.97 L115.63,79.68 L116.14,79.39 L116.64,79.09 L117.14,78.79 L117.64,78.48 L118.14,78.18 L118.64,77.86 L119.14,77.55 L119.64,77.23 L120.14,76.91 L120.64,76.58 L121.14,76.25 L121.64,75.92 L122.14,75.59 L122.64,75.25 L123.14,74.91 L123.64,74.56 L124.14,74.21 L124.64,73.86 L125.15,73.50 L125.65,73.14 L126.15,72.78 L126.65,72.41 L127.15,72.05 L127.65,71.67 L128.15,71.30 L128.65,70.92 L129.15,70.54 L129.65,70.15 L130.15,69.76 L130.65,69.37 L131.15,68.98 L131.65,68.58 L132.15,68.18 L132.65,67.77 L133.15,67.36 L133.66,66.95 L134.16,66.54 L134.66,66.13 L135.16,65.71 L135.66,65.28 L136.16,64.86 L136.66,64.43 L137.16,64.00 L137.66,63.57 L138.16,63.13 L138.66,62.69 L139.16,62.25 L139.66,61.81 L140.16,61.36 L140.66,60.92 L141.16,60.46 L141.66,60.01 L142.17,59.56 L142.67,59.10 L143.17,58.64 L143.67,58.18 L144.17,57.71 L144.67,57.25 L145.17,56.78 L145.67,56.31 L146.17,55.84 L146.67,55.36 L147.17,54.89 L147.67,54.41 L148.17,53.93 L148.67,53.45 L149.17,52.97 L149.67,52.49 L150.17,52.00 L150.68,51.52 L151.18,51.03 L151.68,50.54 L152.18,50.06 L152.68,49.57 L153.18,49.08 L153.68,48.58 L154.18,48.09 L154.68,47.60 L155.18,47.11 L155.68,46.61 L156.18,46.12 L156.68,45.63 L157.18,45.13 L157.68,44.64 L158.18,44.14 L158.68,43.65 L159.19,43.16 L159.69,42.66 L160.19,42.17 L160.69,41.68 L161.19,41.18 L161.69,40.69 L162.19,40.20 L162.69,39.71 L163.19,39.22 L163.69,38.73 L164.19,38.25 L164.69,37.76 L165.19,37.27 L165.69,36.79 L166.19,36.31 L166.69,35.83 L167.19,35.35 L167.69,34.87 L168.20,34.40 L168.70,33.93 L169.20,33.45 L169.70,32.99 L170.20,32.52 L170.70,32.05 L171.20,31.59 L171.70,31.13 L172.20,30.68 L172.70,30.22 L173.20,29.77 L173.70,29.33 L174.20,28.88 L174.70,28.44 L175.20,28.00 L175.70,27.57 L176.20,27.13 L176.71,26.71 L177.21,26.28 L177.71,25.86 L178.21,25.44 L178.71,25.03 L179.21,24.62 L179.71,24.22 L180.21,23.82 L180.71,23.42 L181.21,23.03 L181.71,22.64 L182.21,22.26 L182.71,21.88 L183.21,21.51 L183.71,21.14 L184.21,20.78 L184.71,20.42 L185.22,20.07 L185.72,19.72 L186.22,19.38 L186.72,19.04 L187.22,18.71 L187.72,18.39 L188.22,18.07 L188.72,17.75 L189.22,17.44 L189.72,17.14 L190.22,16.85 L190.72,16.55 L191.22,16.27 L191.72,15.99 L192.22,15.72 L192.72,15.45 L193.22,15.20 L193.73,14.94 L194.23,14.70 L194.73,14.46 L195.23,14.22 L195.73,14.00 L196.23,13.78 L196.73,13.57 L197.23,13.36 L197.73,13.16 L198.23,12.97 L198.73,12.78 L199.23,12.61 L199.73,12.44 L200.23,12.27 L200.73,12.12 L201.23,11.97 L201.73,11.83 L202.24,11.69 L202.74,11.57 L203.24,11.45 L203.74,11.33 L204.24,11.23 L204.74,11.13 L205.24,11.04 L205.74,10.96 L206.24,10.89 L206.74,10.82 L207.24,10.76 L207.74,10.71 L208.24,10.67 L208.74,10.63 L209.24,10.60 L209.74,10.58 L210.24,10.57 L210.75,10.56 L211.25,10.56 L211.75,10.57 L212.25,10.59 L212.75,10.62 L213.25,10.65 L213.75,10.69 L214.25,10.74 L214.75,10.80 L215.25,10.86 L215.75,10.93 L216.25,11.01 L216.75,11.09 L217.25,11.19 L217.75,11.29 L218.25,11.40 L218.75,11.51 L219.25,11.64 L219.76,11.77 L220.26,11.91 L220.76,12.05 L221.26,12.21 L221.76,12.37 L222.26,12.53 L222.76,12.71 L223.26,12.89 L223.76,13.08 L224.26,13.28 L224.76,13.48 L225.26,13.69 L225.76,13.90 L226.26,14.13 L226.76,14.36 L227.26,14.60 L227.76,14.84 L228.27,15.09 L228.77,15.35 L229.27,15.61 L229.77,15.88 L230.27,16.15 L230.77,16.43 L231.27,16.72 L231.77,17.02 L232.27,17.32 L232.77,17.62 L233.27,17.93 L233.77,18.25 L234.27,18.58 L234.77,18.90 L235.27,19.24 L235.77,19.58 L236.27,19.92 L236.78,20.27 L237.28,20.63 L237.78,20.99 L238.28,21.36 L238.78,21.73 L239.28,22.10 L239.78,22.48 L240.28,22.87 L240.78,23.26 L241.28,23.65 L241.78,24.05 L242.28,24.45 L242.78,24.86 L243.28,25.27 L243.78,25.69 L244.28,26.11 L244.78,26.53 L245.29,26.95 L245.79,27.38 L246.29,27.82 L246.79,28.25 L247.29,28.70 L247.79,29.14 L248.29,29.59 L248.79,30.03 L249.29,30.49 L249.79,30.94 L250.29,31.40 L250.79,31.86 L251.29,32.32 L251.79,32.79 L252.29,33.26 L252.79,33.73 L253.29,34.20 L253.80,34.67 L254.30,35.15 L254.80,35.63 L255.30,36.11 L255.80,36.59 L256.30,37.07 L256.80,37.56 L257.30,38.04 L257.80,38.53 L258.30,39.02 L258.80,39.51 L259.30,40.00 L259.80,40.49 L260.30,40.98 L260.80,41.47 L261.30,41.96 L261.80,42.46 L262.31,42.95 L262.81,43.44 L263.31,43.94 L263.81,44.43 L264.31,44.93 L264.81,45.42 L265.31,45.91 L265.81,46.41 L266.31,46.90 L266.81,47.39 L267.31,47.89 L267.81,48.38 L268.31,48.87 L268.81,49.36 L269.31,49.85 L269.81,50.34 L270.31,50.83 L270.81,51.31 L271.32,51.80 L271.82,52.28 L272.32,52.77 L272.82,53.25 L273.32,53.73 L273.82,54.21 L274.32,54.69 L274.82,55.16 L275.32,55.64 L275.82,56.11 L276.32,56.58 L276.82,57.05 L277.32,57.52 L277.82,57.98 L278.32,58.44 L278.82,58.91 L279.32,59.36 L279.83,59.82 L280.33,60.27 L280.83,60.73 L281.33,61.18 L281.83,61.62 L282.33,62.07 L282.83,62.51 L283.33,62.95 L283.83,63.39 L284.33,63.82 L284.83,64.25 L285.33,64.68 L285.83,65.11 L286.33,65.53 L286.83,65.95 L287.33,66.37 L287.83,66.78 L288.34,67.19 L288.84,67.60 L289.34,68.01 L289.84,68.41 L290.34,68.81 L290.84,69.21 L291.34,69.60 L291.84,69.99 L292.34,70.38 L292.84,70.76 L293.34,71.14 L293.84,71.52 L294.34,71.89 L294.84,72.26 L295.34,72.63 L295.84,72.99 L296.34,73.35 L296.85,73.71 L297.35,74.06 L297.85,74.41 L298.35,74.76 L298.85,75.10 L299.35,75.45 L299.85,75.78 L300.35,76.12 L300.85,76.45 L301.35,76.77 L301.85,77.10 L302.35,77.42 L302.85,77.73 L303.35,78.05 L303.85,78.35 L304.35,78.66 L304.85,78.96 L305.36,79.26 L305.86,79.56 L306.36,79.85 L306.86,80.14 L307.36,80.43 L307.86,80.71 L308.36,80.99 L308.86,81.26 L309.36,81.53 L309.86,81.80 L310.36,82.07 L310.86,82.33 L311.36,82.59 L311.86,82.85 L312.36,83.10 L312.86,83.35 L313.36,83.59 L313.86,83.83 L314.37,84.07 L314.87,84.31 L315.37,84.54 L315.87,84.77 L316.37,85.00 L316.87,85.22 L317.37,85.44 L317.87,85.66 L318.37,85.87 L318.87,86.08 L319.37,86.29 L319.87,86.50 L320.37,86.70 L320.87,86.90 L321.37,87.09 L321.87,87.29 L322.37,87.48 L322.88,87.66 L323.38,87.85 L323.88,88.03 L324.38,88.21 L324.88,88.38 L325.38,88.56 L325.88,88.73 L326.38,88.89 L326.88,89.06 L327.38,89.22 L327.88,89.38 L328.38,89.54 L328.88,89.69 L329.38,89.84 L329.88,89.99 L330.38,90.14 L330.88,90.28 L331.39,90.43 L331.89,90.57 L332.39,90.70 L332.89,90.84 L333.39,90.97 L333.89,91.10 L334.39,91.23 L334.89,91.35 L335.39,91.48 L335.89,91.60 L336.39,91.72 L336.89,91.83 L337.39,91.95 L337.89,92.06 L338.39,92.17 L338.89,92.28 L339.39,92.39 L339.90,92.49 L340.40,92.59 L340.90,92.69 L341.40,92.79 L341.90,92.89 L342.40,92.98 L342.90,93.08 L343.40,93.17 L343.90,93.26 L344.40,93.34 L344.90,93.43 L345.40,93.51 L345.90,93.60 L346.40,93.68 L346.90,93.76 L347.40,93.83 L347.90,93.91 L348.41,93.98 L348.91,94.06 L349.41,94.13 L349.91,94.20 L350.41,94.27 L350.91,94.33 L351.41,94.40 L351.91,94.46 L352.41,94.53 L352.91,94.59 L353.41,94.65 L353.91,94.71 L354.41,94.76 L354.91,94.82 L355.41,94.88 L355.91,94.93 L356.41,94.98 L356.92,95.03 L357.42,95.08 L357.92,95.13 L358.42,95.18 L358.92,95.23 L359.42,95.27 L359.92,95.32 L360.42,95.36 L360.92,95.41 L361.42,95.45 L361.92,95.49 L362.42,95.53 L362.92,95.57 L363.42,95.61 L363.92,95.64 L364.42,95.68 L364.92,95.72 L365.42,95.75 L365.93,95.78 L366.43,95.82 L366.93,95.85 L367.43,95.88 L367.93,95.91 L368.43,95.94 L368.93,95.97 L369.43,96.00 L369.93,96.03 L370.43,96.05 L370.93,96.08 L371.43,96.11 L371.93,96.13 L372.43,96.16 L372.93,96.18 L373.43,96.20 L373.93,96.23 L374.44,96.25 L374.94,96.27 L375.44,96.29 L375.94,96.31 L376.44,96.33 L376.94,96.35 L377.44,96.37 L377.94,96.39 L378.44,96.41 L378.94,96.42 L379.44,96.44 L379.94,96.46 L380.44,96.47 L380.94,96.49 L381.44,96.50 L381.94,96.52 L382.44,96.53 L382.95,96.55 L383.45,96.56 L383.95,96.57 L384.45,96.59 L384.95,96.60 L385.45,96.61 L385.95,96.62 L386.45,96.64 L386.95,96.65 L387.45,96.66 L387.95,96.67 L388.45,96.68 L388.95,96.69 L389.45,96.70 L389.95,96.71 L390.45,96.72 L390.95,96.73 L391.46,96.73 L391.96,96.74 L392.46,96.75 L392.96,96.76 L393.46,96.77 L393.96,96.77 L394.46,96.78 L394.96,96.79 L395.46,96.79 L395.96,96.80 L396.46,96.81 L396.96,96.81 L397.46,96.82 L397.96,96.83 L398.46,96.83 L398.96,96.84 L399.46,96.84 L399.97,96.85 L400.47,96.85 L400.97,96.86 L401.47,96.86 L401.97,96.87 L402.47,96.87 L402.97,96.88 L403.47,96.88 L403.97,96.88 L404.47,96.89 L404.97,96.89 L405.47,96.90 L405.97,96.90 L406.47,96.90 L406.97,96.91 L407.47,96.91 L407.97,96.91 L408.47,96.92 L408.98,96.92 L409.48,96.92 L409.98,96.92 L410.48,96.93 L410.98,96.93 L411.48,96.93 L411.98,96.93 L412.48,96.94 L412.98,96.94 L413.48,96.94 L413.98,96.94 L414.48,96.94 L414.98,96.95 L415.48,96.95 L415.98,96.95 L416.48,96.95 L416.98,96.95 L417.49,96.96 L417.99,96.96 L418.49,96.96 L418.99,96.96 L419.49,96.96 L419.99,96.96 L420.49,96.96 L420.99,96.97 L421.49,96.97 L421.99,96.97 L422.49,96.97 L422.99,96.97 L423.49,96.97 L423.99,96.97 L424.49,96.97 L424.99,96.97 L425.49,96.98 L426.00,96.98 L426.50,96.98 L427.00,96.98 L427.50,96.98 L428.00,96.98 L428.50,96.98 L429.00,96.98 L429.50,96.98 L430.00,96.98" style="stroke-width: 3; stroke: rgb(60, 180, 75); stroke-opacity: 1;"/></g></g><g class="test-xtl" style="font-family: &quot;Open Sans&quot;, verdana, arial, sans-serif;"><text text-anchor="middle" font-size="11" dominant-baseline="hanging" stroke="none" fill="rgb(50,50,50)" fill-opacity="1" x="60.4" y="105">2</text><text text-anchor="middle" font-size="11" dominant-baseline="hanging" stroke="none" fill="rgb(50,50,50)" fill-opacity="1" x="95.8" y="105">4</text><text text-anchor="middle" font-size="11" dominant-baseline="hanging" stroke="none" fill="rgb(50,50,50)" fill-opacity="1" x="131.20000000000002" y="105">6</text><text text-anchor="middle" font-size="11" dominant-baseline="hanging" stroke="none" fill="rgb(50,50,50)" fill-opacity="1" x="166.6" y="105">8</text><text text-anchor="middle" font-size="11" dominant-baseline="hanging" stroke="none" fill="rgb(50,50,50)" fill-opacity="1" x="202" y="105">10</text><text text-anchor="middle" font-size="11" dominant-baseline="hanging" stroke="none" fill="rgb(50,50,50)" fill-opacity="1" x="237.39999999999998" y="105">12</text><text text-anchor="middle" font-size="11" dominant-baseline="hanging" stroke="none" fill="rgb(50,50,50)" fill-opacity="1" x="272.79999999999995" y="105">14</text><text text-anchor="middle" font-size="11" dominant-baseline="hanging" stroke="none" fill="rgb(50,50,50)" fill-opacity="1" x="308.2" y="105">16</text><text text-anchor="middle" font-size="11" dominant-baseline="hanging" stroke="none" fill="rgb(50,50,50)" fill-opacity="1" x="343.59999999999997" y="105">18</text><text text-anchor="middle" font-size="11" dominant-baseline="hanging" stroke="none" fill="rgb(50,50,50)" fill-opacity="1" x="379" y="105">20</text><text text-anchor="middle" font-size="11" dominant-baseline="hanging" stroke="none" fill="rgb(50,50,50)" fill-opacity="1" x="414.4" y="105">22</text><text text-anchor="middle" font-size="11" dominant-baseline="hanging" stroke="none" fill="rgb(50,50,50)" fill-opacity="1" x="16" y="103">0</text></g><rect class="real" x="1" y="1" width="428" height="206" style="fill: transparent; stroke: none;"/></g></g></g><g class="arrow-line"><path class="connection real" stroke-dasharray="" d="  M542,104 C505.7,129.67 461.23,138.75 411.51,128.32" style="stroke: rgb(0, 0, 0); stroke-width: 1; fill: none; fill-opacity: 1;"/><g stroke="#000" transform="matrix(0.977231106462679,0.21217767215644606,-0.21217767215644606,0.977231106462679,410,128)" style="stroke: rgb(0, 0, 0); stroke-width: 1;"><path d=" M10.93,-3.29 Q4.96,-0.45 0,0 Q4.96,0.45 10.93,3.29"/></g></g><g class="arrow-line"><path class="connection real" stroke-dasharray="" d="  M339,169 L339,199" style="stroke: rgb(0, 0, 0); stroke-width: 1; fill: none; fill-opacity: 1;"/><g stroke="#000" transform="matrix(-1.8369701987210297e-16,-1,1,-1.8369701987210297e-16,339,200.99999999999994)" style="stroke: rgb(0, 0, 0); stroke-width: 1;"><path d=" M10.93,-3.29 Q4.96,-0.45 0,0 Q4.96,0.45 10.93,3.29"/></g></g><g/></g><g/><g/><g/></svg>
        <svg xmlns="http://www.w3.org/2000/svg" xmlns:xlink="http://www.w3.org/1999/xlink" width="660" height="300" style="width:660px;height:300px;font-family:Asana-Math, Asana;background:#FFF;"><g><g><g><g transform="matrix(1,0,0,1,189.66668701171875,35)"><path transform="matrix(0.018,0,0,-0.018,0,0)" d="M91 55C91 30 89 0 136 0L169 0C211 0 214 27 214 46L214 569C222 536 235 504 271 410L375 153C418 49 418 22 477 22L497 22C526 22 546 25 567 75C614 189 752 524 762 569C762 560 763 550 763 541L763 52C763 32 761 0 808 0L840 0C881 0 886 23 886 48L886 648C886 666 883 694 841 694L752 694C703 694 694 668 683 642C511 222 491 167 486 148C467 208 287 650 277 666C260 693 236 694 218 694L136 694C110 694 91 685 91 650ZM1008 137C1008 69 1058 -11 1154 -11C1236 -11 1286 23 1308 40C1308 23 1317 0 1349 0L1397 0C1437 0 1442 23 1442 45L1442 308C1442 408 1396 475 1235 475C1172 475 1123 463 1078 443C1056 432 1050 433 1050 417C1050 417 1053 352 1060 340L1064 337L1068 336C1090 337 1120 405 1235 405C1298 405 1306 359 1306 312L1306 291C1217 290 1008 273 1008 137ZM1139 137C1139 215 1245 227 1306 232L1306 154C1306 80 1241 62 1208 62C1165 62 1139 101 1139 137ZM1528 22C1528 1 1548 0 1559 0L1608 0C1646 0 1639 0 1749 164C1863 1 1856 0 1895 0L1946 0C1973 0 1976 16 1976 22C1976 30 1972 36 1967 42C1935 81 1821 217 1804 236C1817 254 1832 272 1947 413C1955 423 1958 431 1958 438C1958 451 1945 458 1929 458L1880 458C1841 458 1846 457 1749 327C1649 454 1654 458 1613 458L1564 458C1548 458 1535 451 1535 438C1535 431 1538 423 1546 413C1665 272 1680 255 1694 236C1677 217 1662 197 1646 177C1527 30 1528 34 1528 22ZM2059 626C2059 586 2082 580 2105 580L2157 580C2166 581 2201 579 2201 624L2201 676C2201 716 2178 722 2155 722L2104 722C2085 721 2059 722 2059 676ZM2063 50C2063 33 2062 0 2107 0L2153 0C2198 0 2197 33 2197 45L2197 408C2197 434 2195 458 2148 458L2107 458C2062 458 2063 425 2063 413ZM2317 45C2317 6 2340 0 2364 0L2409 0C2447 0 2454 21 2454 45L2454 269C2454 355 2511 396 2564 396C2611 396 2622 372 2622 323L2622 45C2622 20 2629 0 2669 0L2715 0C2760 0 2759 54 2759 54L2759 261C2759 278 2759 296 2764 313C2775 350 2810 396 2869 396C2927 396 2928 357 2928 319L2928 47C2929 31 2926 0 2974 0L3018 0C3057 0 3064 20 3064 45L3064 307C3064 382 3064 469 2916 469C2816 469 2766 414 2750 395C2730 446 2691 469 2611 469C2514 469 2466 417 2448 400L2448 420C2448 463 2420 463 2402 463L2362 463C2344 463 2317 461 2317 419ZM3183 139C3183 68 3189 -11 3343 -11C3398 -11 3442 -3 3491 44C3491 37 3489 0 3532 0L3579 0C3605 0 3624 8 3624 43L3624 416C3623 451 3604 458 3579 458L3535 458C3523 458 3511 457 3501 449C3490 437 3488 436 3488 406L3488 181C3488 72 3422 50 3383 50C3325 50 3319 67 3319 123C3319 131 3320 139 3320 147L3320 413C3319 430 3320 458 3273 458L3227 458C3182 458 3183 424 3183 414ZM3744 45C3744 6 3767 0 3791 0L3836 0C3874 0 3881 21 3881 45L3881 269C3881 355 3938 396 3991 396C4038 396 4049 372 4049 323L4049 45C4049 20 4056 0 4096 0L4142 0C4187 0 4186 54 4186 54L4186 261C4186 278 4186 296 4191 313C4202 350 4237 396 4296 396C4354 396 4355 357 4355 319L4355 47C4356 31 4353 0 4401 0L4445 0C4484 0 4491 20 4491 45L4491 307C4491 382 4491 469 4343 469C4243 469 4193 414 4177 395C4157 446 4118 469 4038 469C3941 469 3893 417 3875 400L3875 420C3875 463 3847 463 3829 463L3789 463C3771 463 3744 461 3744 419ZM5009 47C5009 5 5032 0 5055 0L5405 0C5449 0 5452 26 5452 49L5452 60C5452 85 5443 106 5408 106C5400 106 5237 102 5151 101L5151 651C5151 690 5125 694 5107 694L5055 694C5018 694 5009 676 5009 647ZM5554 626C5554 586 5577 580 5600 580L5652 580C5661 581 5696 579 5696 624L5696 676C5696 716 5673 722 5650 722L5599 722C5580 721 5554 722 5554 676ZM5558 50C5558 33 5557 0 5602 0L5648 0C5693 0 5692 33 5692 45L5692 408C5692 434 5690 458 5643 458L5602 458C5557 458 5558 425 5558 413ZM5822 47C5822 30 5822 0 5868 0L5892 0C5928 0 5937 19 5937 44L5937 153L5983 195L6109 29C6130 2 6140 0 6165 0L6218 0C6245 0 6248 15 6248 22C6248 31 6243 38 6238 45C6100 226 6081 249 6065 272C6238 430 6233 424 6234 440C6233 445 6230 457 6209 458L6143 458C6096 458 6106 458 5939 303L5939 674C5939 688 5941 722 5894 722L5867 722C5842 722 5822 713 5822 678ZM6282 233C6282 74 6369 -11 6536 -11C6605 -11 6667 9 6709 33C6721 40 6725 44 6725 55C6725 55 6725 114 6714 125L6709 127L6705 127C6685 121 6638 62 6538 62C6436 62 6413 136 6411 214L6687 214C6705 214 6731 216 6731 257C6731 364 6689 475 6522 475C6378 475 6282 401 6282 233ZM6412 279C6418 341 6442 402 6522 402C6600 402 6616 346 6619 279ZM6823 45C6823 5 6845 0 6871 0L6912 0C6955 2 6957 22 6957 49L6957 677C6957 714 6936 722 6911 722L6865 722C6837 722 6823 704 6823 675ZM7074 626C7074 586 7097 580 7120 580L7172 580C7181 581 7216 579 7216 624L7216 676C7216 716 7193 722 7170 722L7119 722C7100 721 7074 722 7074 676ZM7078 50C7078 33 7077 0 7122 0L7168 0C7213 0 7212 33 7212 45L7212 408C7212 434 7210 458 7163 458L7122 458C7077 458 7078 425 7078 413ZM7332 44C7332 21 7339 0 7378 0L7422 0C7468 0 7469 26 7469 50L7469 260C7469 272 7468 284 7470 295C7477 342 7514 396 7579 396C7632 396 7637 364 7637 324L7637 44C7637 19 7644 0 7683 0L7730 0C7771 0 7773 28 7773 44L7773 308C7773 380 7773 469 7625 469C7546 469 7500 437 7466 403L7466 677C7466 720 7439 722 7416 722L7376 722C7335 722 7332 695 7332 674ZM7864 224C7864 36 7980 -11 8109 -11C8232 -11 8352 35 8352 220C8352 465 8190 475 8093 475C7980 475 7864 424 7864 224ZM8001 214L8001 241C8001 310 7999 402 8107 402C8214 402 8214 313 8215 255L8215 228C8214 161 8217 67 8108 67C8004 67 8003 155 8001 214ZM8445 224C8445 36 8561 -11 8690 -11C8813 -11 8933 35 8933 220C8933 465 8771 475 8674 475C8561 475 8445 424 8445 224ZM8582 214L8582 241C8582 310 8580 402 8688 402C8795 402 8795 313 8796 255L8796 228C8795 161 8798 67 8689 67C8585 67 8584 155 8582 214ZM9032 239C9032 206 9032 172 9043 130C9071 23 9151 -11 9231 -11C9286 -11 9322 6 9358 32C9367 1 9386 0 9404 0L9450 0C9492 0 9495 27 9495 46L9495 677C9495 698 9492 722 9445 722L9405 722C9366 722 9361 697 9361 678L9361 433C9325 456 9286 469 9236 469C9131 469 9035 417 9032 239ZM9169 221L9169 242C9169 303 9170 396 9280 396C9327 396 9351 371 9358 366L9358 121C9358 91 9313 62 9270 62C9171 62 9169 150 9169 221ZM9954 224C9954 36 10070 -11 10199 -11C10322 -11 10442 35 10442 220C10442 465 10280 475 10183 475C10070 475 9954 424 9954 224ZM10091 214L10091 241C10091 310 10089 402 10197 402C10304 402 10304 313 10305 255L10305 228C10304 161 10307 67 10198 67C10094 67 10093 155 10091 214ZM10505 422C10505 412 10508 385 10548 385L10560 385L10560 46C10560 31 10559 0 10604 0L10646 0C10693 0 10693 27 10693 52L10693 385L10743 385C10783 385 10788 411 10788 422C10788 437 10778 458 10745 458L10690 458L10690 580C10690 613 10690 660 10757 660C10813 660 10828 623 10843 623C10855 623 10855 639 10855 648L10855 709L10853 714L10850 718C10836 728 10791 733 10755 733L10753 733C10598 732 10560 644 10560 546L10560 458L10550 458C10509 458 10505 433 10505 422ZM11268 45C11268 6 11289 0 11314 0L11561 0C11678 0 11909 15 11909 341C11909 648 11726 694 11550 694L11310 694C11266 694 11268 658 11268 646ZM11407 86L11407 579L11408 608L11553 608C11762 600 11770 459 11770 332L11770 321C11769 268 11764 212 11734 166C11683 90 11595 86 11518 86ZM12001 137C12001 69 12051 -11 12147 -11C12229 -11 12279 23 12301 40C12301 23 12310 0 12342 0L12390 0C12430 0 12435 23 12435 45L12435 308C12435 408 12389 475 12228 475C12165 475 12116 463 12071 443C12049 432 12043 433 12043 417C12043 417 12046 352 12053 340L12057 337L12061 336C12083 337 12113 405 12228 405C12291 405 12299 359 12299 312L12299 291C12210 290 12001 273 12001 137ZM12132 137C12132 215 12238 227 12299 232L12299 154C12299 80 12234 62 12201 62C12158 62 12132 101 12132 137ZM12517 422C12517 411 12521 385 12561 385L12582 385L12582 152C12582 121 12582 91 12591 61C12608 6 12646 -11 12686 -11C12760 -11 12868 21 12868 47C12868 47 12860 102 12845 102C12832 102 12802 67 12755 67C12727 67 12713 85 12713 159C12713 168 12714 176 12714 185L12714 385L12807 385C12845 386 12850 411 12850 421C12850 430 12845 458 12805 458L12714 458L12714 544C12714 568 12704 589 12669 589L12633 589C12616 589 12585 588 12585 544L12585 458L12561 458C12521 458 12517 433 12517 422ZM12930 137C12930 69 12980 -11 13076 -11C13158 -11 13208 23 13230 40C13230 23 13239 0 13271 0L13319 0C13359 0 13364 23 13364 45L13364 308C13364 408 13318 475 13157 475C13094 475 13045 463 13000 443C12978 432 12972 433 12972 417C12972 417 12975 352 12982 340L12986 337L12990 336C13012 337 13042 405 13157 405C13220 405 13228 359 13228 312L13228 291C13139 290 12930 273 12930 137ZM13061 137C13061 215 13167 227 13228 232L13228 154C13228 80 13163 62 13130 62C13087 62 13061 101 13061 137ZM13485 -149C13485 -160 13483 -195 13529 -195L13575 -195C13605 -195 13622 -186 13622 -147L13622 26C13654 3 13686 -11 13734 -11C13836 -11 13947 35 13948 224C13948 265 13946 299 13937 335C13917 412 13865 469 13765 469C13721 469 13668 458 13618 427C13610 457 13589 458 13572 458L13530 458C13490 458 13485 435 13485 412ZM13622 100L13622 358C13639 370 13663 391 13709 391C13790 391 13811 318 13811 242L13811 230C13811 192 13810 145 13785 106C13765 75 13731 62 13698 62C13652 62 13631 91 13622 100ZM14047 224C14047 36 14163 -11 14292 -11C14415 -11 14535 35 14535 220C14535 465 14373 475 14276 475C14163 475 14047 424 14047 224ZM14184 214L14184 241C14184 310 14182 402 14290 402C14397 402 14397 313 14398 255L14398 228C14397 161 14400 67 14291 67C14187 67 14186 155 14184 214ZM14623 626C14623 586 14646 580 14669 580L14721 580C14730 581 14765 579 14765 624L14765 676C14765 716 14742 722 14719 722L14668 722C14649 721 14623 722 14623 676ZM14627 50C14627 33 14626 0 14671 0L14717 0C14762 0 14761 33 14761 45L14761 408C14761 434 14759 458 14712 458L14671 458C14626 458 14627 425 14627 413ZM14881 45C14881 6 14905 0 14928 0L14972 0C15018 0 15018 53 15018 53L15018 261C15018 279 15019 297 15024 315C15033 346 15065 396 15127 396C15186 396 15186 355 15186 318L15186 44C15186 19 15193 0 15232 0L15279 0C15320 0 15322 28 15322 44L15322 308C15322 380 15322 469 15174 469C15093 469 15047 435 15012 400L15012 420C15012 463 14984 463 14966 463L14926 463C14907 463 14881 460 14881 418ZM15404 422C15404 411 15408 385 15448 385L15469 385L15469 152C15469 121 15469 91 15478 61C15495 6 15533 -11 15573 -11C15647 -11 15755 21 15755 47C15755 47 15747 102 15732 102C15719 102 15689 67 15642 67C15614 67 15600 85 15600 159C15600 168 15601 176 15601 185L15601 385L15694 385C15732 386 15737 411 15737 421C15737 430 15732 458 15692 458L15601 458L15601 544C15601 568 15591 589 15556 589L15520 589C15503 589 15472 588 15472 544L15472 458L15448 458C15408 458 15404 433 15404 422ZM15818 50C15818 47 15819 45 15820 42L15824 37C15849 21 15914 -11 16003 -11C16102 -11 16183 19 16183 140C16183 221 16123 261 16095 275C16033 307 15922 295 15922 354C15922 392 15955 402 15996 402C16093 402 16120 348 16141 348C16146 348 16150 352 16153 363C16159 397 16163 415 16163 426C16163 440 16157 443 16139 450C16102 465 16064 474 16017 475L15991 475C15907 473 15823 446 15823 331C15823 250 15890 210 15927 196C15984 175 16083 183 16083 121C16083 79 16050 68 16005 68C15898 68 15862 143 15844 143C15832 143 15831 127 15830 120C15822 76 15818 59 15818 50Z" stroke="rgb(0,0,0)" stroke-opacity="1" stroke-width="8" fill="rgb(0,0,0)" fill-opacity="1"></path></g></g><g><text x="481.4375" y="19" style="white-space:pre;stroke:none;fill:rgb(0,0,0);fill-opacity:1;font-size:18px;font-family:Arial, Helvetica, sans-serif;font-weight:400;font-style:normal;dominant-baseline:text-before-edge;text-decoration:none solid rgb(0, 0, 0);"> </text></g></g></g><g><g><g><g transform="matrix(1,0,0,1,503.66668701171875,90.6208282470703)"><path transform="matrix(0.0136,0,0,-0.0136,0,0)" d="M137 689C81 690 72 690 17 692L17 662L61 659C107 656 112 647 112 569L112 120C112 42 107 33 61 30L17 27L17 -3C116 0 116 0 133 0C148 0 148 0 253 -3L253 27L209 30C163 33 158 42 158 120L158 583L631 -4L718 -6L718 569C718 647 723 656 769 659L813 662L813 692C708 689 708 689 693 689C676 689 676 689 577 692L577 662L621 659C667 656 672 647 672 569L672 98L191 692Z" stroke="rgb(0,0,0)" stroke-opacity="1" stroke-width="24" fill="rgb(0,0,0)" fill-opacity="1"></path></g></g><g><svg x="515.90625" overflow="visible" y="75.02082824707031" height="28" width="6.7916669845581055"><path d=" M 5.02 1.36 c 0.00 -0.05 -0.03 -0.06 -0.07 -0.06 c -0.02 0.00 -0.04 0.01 -0.07 0.02 c -2.04 1.07 -3.72 2.98 -3.72 7.52 v 0.48 h 1.22 v -0.48 c 0.00 -2.58 0.51 -5.62 2.65 -7.24 c 0.10 -0.07 0.10 -0.15 0.10 -0.23 z   M 1.15 9.31 v 9.38 h 1.22 v -9.38 z" style="fill:rgb(0,0,0);fill-opacity:1;stroke-width:1px;stroke:none;stroke-opacity:1;"></path><path d=" M 5.02 26.64 c 0.00 0.05 -0.03 0.06 -0.07 0.06 c -0.02 0.00 -0.04 -0.01 -0.07 -0.02 c -2.04 -1.07 -3.72 -2.98 -3.72 -7.52 v -0.48 h 1.22 v 0.48 c 0.00 2.58 0.51 5.62 2.65 7.24 c 0.10 0.07 0.10 0.15 0.10 0.23 z" style="fill:rgb(0,0,0);fill-opacity:1;stroke-width:1px;stroke:none;stroke-opacity:1;"></path></svg></g><g><g><g><g><g transform="matrix(1,0,0,1,521.34375,90.6208282470703)"><path transform="matrix(0.0136,0,0,-0.0136,0,0)" d="M409 -15C458 -15 530 43 565 74L565 81C562 86 558 90 553 92C531 76 472 25 461 77C461 151 506 393 533 463L533 473C511 465 488 459 465 456L455 445C453 381 421 203 395 146C372 97 311 42 254 42C199 42 184 90 185 137C188 248 238 356 241 467C213 462 187 457 161 453C179 227 9 -91 53 -286C76 -285 109 -281 131 -273L131 -261C81 -173 121 -38 138 36L138 35C204 -77 344 37 395 104L395 101C387 65 354 -15 409 -15Z" stroke="rgb(0,0,0)" stroke-opacity="1" stroke-width="24" fill="rgb(0,0,0)" fill-opacity="1"></path></g></g></g></g><svg x="521.34375" overflow="visible" y="75.02082824707031" height="7" width="8.302083969116211"><polyline points="0.00,6.24 4.15,3.48 8.30,6.24" style="fill:none;fill-opacity:1;stroke-width:1px;stroke:rgb(0,0,0);stroke-opacity:1;"></polyline></svg></g><g><g><g><g><g><g><g><text x="530.0520629882812" y="88.40626525878906" style="white-space:pre;stroke:none;fill:rgb(0,0,0);fill-opacity:1;font-size:8.4px;font-family:Arial, Helvetica, sans-serif;font-weight:700;font-style:normal;dominant-baseline:text-before-edge;text-decoration:none solid rgb(0, 0, 0);">ML</text></g></g></g></g></g></g></g><g><g transform="matrix(1,0,0,1,542.9895629882812,90.6208282470703)"><path transform="matrix(0.0136,0,0,-0.0136,0,0)" d="M204 123C177 114 159 108 106 93C99 17 74 -48 16 -144L30 -155L71 -136C152 -31 190 32 218 109Z" stroke="rgb(0,0,0)" stroke-opacity="1" stroke-width="24" fill="rgb(0,0,0)" fill-opacity="1"></path></g></g><g><g transform="matrix(1,0,0,1,549.09375,90.6208282470703)"><path transform="matrix(0.0136,0,0,-0.0136,0,0)" d="M171 -15C331 -15 431 100 434 257C436 343 410 361 345 404L345 407C398 407 457 403 511 411C518 431 521 451 524 474C485 453 364 467 313 457C150 424 28 329 28 153C28 48 59 -15 171 -15ZM367 267C367 168 329 13 203 13C111 13 103 112 104 182C105 292 143 412 274 412C359 412 367 328 367 267Z" stroke="rgb(0,0,0)" stroke-opacity="1" stroke-width="24" fill="rgb(0,0,0)" fill-opacity="1"></path></g></g><g><g><g><g><g transform="matrix(1,0,0,1,557.3854370117188,85.25957824707031)"><path transform="matrix(0.009519999999999999,0,0,-0.009519999999999999,0,0)" d="M16 23L16 -3C203 -3 203 0 239 0C275 0 275 -3 468 -3L468 82C353 77 307 81 122 77L304 270C401 373 431 428 431 503C431 618 353 689 226 689C154 689 105 669 56 619L39 483L68 483L81 529C97 587 133 612 200 612C286 612 341 558 341 473C341 398 299 324 186 204Z" stroke="rgb(0,0,0)" stroke-opacity="1" stroke-width="24" fill="rgb(0,0,0)" fill-opacity="1"></path></g></g></g></g></g><g><svg x="561.59375" overflow="visible" y="75.02082824707031" height="28" width="6.7916669845581055"><path d=" M 1.40 1.36 c 0.00 -0.05 0.03 -0.06 0.07 -0.06 c 0.02 0.00 0.04 0.01 0.07 0.02 c 2.04 1.07 3.72 2.98 3.72 7.52 v 0.48 h -1.22 v -0.48 c 0.00 -2.58 -0.51 -5.62 -2.65 -7.24 c -0.10 -0.07 -0.10 -0.15 -0.10 -0.23 z  M 5.27 9.31 v 9.38 h -1.22 v -9.38 z" style="fill:rgb(0,0,0);fill-opacity:1;stroke-width:1px;stroke:none;stroke-opacity:1;"></path><path d=" M 1.40 26.64 c 0.00 0.05 0.03 0.06 0.07 0.06 c 0.02 0.00 0.04 -0.01 0.07 -0.02 c 2.04 -1.07 3.72 -2.98 3.72 -7.52 v -0.48 h -1.22 v 0.48 c 0.00 2.58 -0.51 5.62 -2.65 7.24 c -0.10 0.07 -0.10 0.15 -0.10 0.23 z" style="fill:rgb(0,0,0);fill-opacity:1;stroke-width:1px;stroke:none;stroke-opacity:1;"></path></svg></g></g></g><g><g><g><g><g><g><g><g><g><g transform="matrix(1,0,0,1,329.66668701171875,219.3395782470703)"><path transform="matrix(0.0136,0,0,-0.0136,0,0)" d="M409 -15C458 -15 530 43 565 74L565 81C562 86 558 90 553 92C531 76 472 25 461 77C461 151 506 393 533 463L533 473C511 465 488 459 465 456L455 445C453 381 421 203 395 146C372 97 311 42 254 42C199 42 184 90 185 137C188 248 238 356 241 467C213 462 187 457 161 453C179 227 9 -91 53 -286C76 -285 109 -281 131 -273L131 -261C81 -173 121 -38 138 36L138 35C204 -77 344 37 395 104L395 101C387 65 354 -15 409 -15Z" stroke="rgb(0,0,0)" stroke-opacity="1" stroke-width="24" fill="rgb(0,0,0)" fill-opacity="1"></path></g></g></g></g><svg x="329.66668701171875" overflow="visible" y="203.7395782470703" height="7" width="8.302083969116211"><polyline points="0.00,6.24 4.15,3.48 8.30,6.24" style="fill:none;fill-opacity:1;stroke-width:1px;stroke:rgb(0,0,0);stroke-opacity:1;"></polyline></svg></g><g><g><g><g><g><g><g><text x="338.375" y="217.12501525878906" style="white-space:pre;stroke:none;fill:rgb(0,0,0);fill-opacity:1;font-size:8.4px;font-family:Arial, Helvetica, sans-serif;font-weight:700;font-style:normal;dominant-baseline:text-before-edge;text-decoration:none solid rgb(0, 0, 0);">ML</text></g></g></g></g></g></g></g></g></g></g></g></g></svg>
</svg>
