<svg xmlns="http://www.w3.org/2000/svg" xmlns:xlink="http://www.w3.org/1999/xlink" x="0" y="0" width="661.3333740234375" height="301.3333435058594" style="
        width:661.3333740234375px;
        height:301.3333435058594px;
        background: #FFF;
        fill: none;
">
        
        
        <svg xmlns="http://www.w3.org/2000/svg" class="role-diagram-draw-area"><g class="shapes-region" style="stroke: black; fill: none;"><g class="composite-shape" data-amt="diagram/shapes/plot" transform="matrix(1,0,0,1,122,64)"><g><g/><g><g class="test-xti" style="font-family: Asana-Math, Asana;"><line x1="0" y1="127.13080557173903" x2="424.5" y2="127.13080557173903" fill="none" stroke="rgb(50,50,50)" stroke-opacity="1" stroke-width="2"/><line x1="50.660656711283885" y1="122.13080557173903" x2="50.660656711283885" y2="132.13080557173902" fill="none" stroke="rgb(50,50,50)" stroke-opacity="1" stroke-width="2"/><line x1="158.54561009419385" y1="122.13080557173903" x2="158.54561009419385" y2="132.13080557173902" fill="none" stroke="rgb(50,50,50)" stroke-opacity="1" stroke-width="2"/><line x1="212.4880867856488" y1="122.13080557173903" x2="212.4880867856488" y2="132.13080557173902" fill="none" stroke="rgb(50,50,50)" stroke-opacity="1" stroke-width="2"/><line x1="266.43056347710376" y1="122.13080557173903" x2="266.43056347710376" y2="132.13080557173902" fill="none" stroke="rgb(50,50,50)" stroke-opacity="1" stroke-width="2"/><line x1="320.37304016855876" y1="122.13080557173903" x2="320.37304016855876" y2="132.13080557173902" fill="none" stroke="rgb(50,50,50)" stroke-opacity="1" stroke-width="2"/><line x1="374.3155168600137" y1="122.13080557173903" x2="374.3155168600137" y2="132.13080557173902" fill="none" stroke="rgb(50,50,50)" stroke-opacity="1" stroke-width="2"/><line x1="428.2579935514687" y1="122.13080557173903" x2="428.2579935514687" y2="132.13080557173902" fill="none" stroke="rgb(50,50,50)" stroke-opacity="1" stroke-width="2"/><path d="M419,122.63080557173903 L429,127.13080557173903 L419,131.63080557173902 Z" stroke="none" stroke-width="2" fill="rgb(50,50,50)" fill-opacity="1"/></g><g class="test-plot-expression"><defs><clipPath id="cprw2wl0lyz"><rect x="1" y="1" width="428" height="206"/></clipPath></defs><g clip-path="url(#cprw2wl0lyz)"><path d=" M0.00,127.12 L0.50,127.12 L1.00,127.12 L1.50,127.11 L2.00,127.11 L2.50,127.11 L3.00,127.11 L3.50,127.11 L4.00,127.11 L4.51,127.11 L5.01,127.11 L5.51,127.10 L6.01,127.10 L6.51,127.10 L7.01,127.10 L7.51,127.10 L8.01,127.09 L8.51,127.09 L9.01,127.09 L9.51,127.09 L10.01,127.09 L10.51,127.08 L11.01,127.08 L11.51,127.08 L12.01,127.07 L12.51,127.07 L13.02,127.07 L13.52,127.06 L14.02,127.06 L14.52,127.05 L15.02,127.05 L15.52,127.05 L16.02,127.04 L16.52,127.04 L17.02,127.03 L17.52,127.02 L18.02,127.02 L18.52,127.01 L19.02,127.01 L19.52,127.00 L20.02,126.99 L20.52,126.98 L21.02,126.98 L21.53,126.97 L22.03,126.96 L22.53,126.95 L23.03,126.94 L23.53,126.93 L24.03,126.92 L24.53,126.91 L25.03,126.90 L25.53,126.89 L26.03,126.87 L26.53,126.86 L27.03,126.84 L27.53,126.83 L28.03,126.82 L28.53,126.80 L29.03,126.78 L29.53,126.76 L30.03,126.75 L30.54,126.73 L31.04,126.71 L31.54,126.69 L32.04,126.67 L32.54,126.64 L33.04,126.62 L33.54,126.59 L34.04,126.57 L34.54,126.54 L35.04,126.51 L35.54,126.49 L36.04,126.46 L36.54,126.42 L37.04,126.39 L37.54,126.36 L38.04,126.32 L38.54,126.28 L39.05,126.25 L39.55,126.21 L40.05,126.16 L40.55,126.12 L41.05,126.08 L41.55,126.03 L42.05,125.98 L42.55,125.93 L43.05,125.88 L43.55,125.83 L44.05,125.77 L44.55,125.71 L45.05,125.65 L45.55,125.59 L46.05,125.53 L46.55,125.46 L47.05,125.39 L47.56,125.32 L48.06,125.24 L48.56,125.17 L49.06,125.09 L49.56,125.01 L50.06,124.92 L50.56,124.83 L51.06,124.74 L51.56,124.65 L52.06,124.55 L52.56,124.45 L53.06,124.35 L53.56,124.25 L54.06,124.14 L54.56,124.02 L55.06,123.91 L55.56,123.79 L56.07,123.67 L56.57,123.54 L57.07,123.41 L57.57,123.27 L58.07,123.13 L58.57,122.99 L59.07,122.85 L59.57,122.70 L60.07,122.54 L60.57,122.38 L61.07,122.22 L61.57,122.05 L62.07,121.88 L62.57,121.70 L63.07,121.52 L63.57,121.33 L64.07,121.14 L64.58,120.95 L65.08,120.75 L65.58,120.54 L66.08,120.33 L66.58,120.12 L67.08,119.90 L67.58,119.67 L68.08,119.44 L68.58,119.20 L69.08,118.96 L69.58,118.72 L70.08,118.46 L70.58,118.21 L71.08,117.94 L71.58,117.68 L72.08,117.40 L72.58,117.12 L73.08,116.84 L73.59,116.55 L74.09,116.25 L74.59,115.95 L75.09,115.64 L75.59,115.33 L76.09,115.01 L76.59,114.69 L77.09,114.36 L77.59,114.02 L78.09,113.68 L78.59,113.33 L79.09,112.98 L79.59,112.62 L80.09,112.26 L80.59,111.89 L81.09,111.52 L81.59,111.14 L82.10,110.76 L82.60,110.37 L83.10,109.97 L83.60,109.57 L84.10,109.17 L84.60,108.76 L85.10,108.34 L85.60,107.92 L86.10,107.50 L86.60,107.07 L87.10,106.63 L87.60,106.20 L88.10,105.75 L88.60,105.31 L89.10,104.86 L89.60,104.40 L90.10,103.95 L90.61,103.49 L91.11,103.02 L91.61,102.55 L92.11,102.08 L92.61,101.61 L93.11,101.13 L93.61,100.65 L94.11,100.17 L94.61,99.69 L95.11,99.20 L95.61,98.71 L96.11,98.22 L96.61,97.73 L97.11,97.24 L97.61,96.75 L98.11,96.26 L98.61,95.76 L99.12,95.27 L99.62,94.77 L100.12,94.28 L100.62,93.79 L101.12,93.29 L101.62,92.80 L102.12,92.31 L102.62,91.82 L103.12,91.33 L103.62,90.85 L104.12,90.36 L104.62,89.88 L105.12,89.40 L105.62,88.93 L106.12,88.46 L106.62,87.99 L107.12,87.52 L107.63,87.06 L108.13,86.61 L108.63,86.16 L109.13,85.71 L109.63,85.27 L110.13,84.83 L110.63,84.40 L111.13,83.97 L111.63,83.56 L112.13,83.14 L112.63,82.74 L113.13,82.34 L113.63,81.95 L114.13,81.57 L114.63,81.19 L115.13,80.82 L115.63,80.46 L116.14,80.11 L116.64,79.77 L117.14,79.44 L117.64,79.11 L118.14,78.80 L118.64,78.49 L119.14,78.19 L119.64,77.91 L120.14,77.63 L120.64,77.37 L121.14,77.11 L121.64,76.87 L122.14,76.64 L122.64,76.41 L123.14,76.20 L123.64,76.00 L124.14,75.82 L124.64,75.64 L125.15,75.47 L125.65,75.32 L126.15,75.18 L126.65,75.05 L127.15,74.94 L127.65,74.83 L128.15,74.74 L128.65,74.66 L129.15,74.59 L129.65,74.54 L130.15,74.50 L130.65,74.47 L131.15,74.45 L131.65,74.45 L132.15,74.45 L132.65,74.47 L133.15,74.51 L133.66,74.55 L134.16,74.61 L134.66,74.68 L135.16,74.77 L135.66,74.86 L136.16,74.97 L136.66,75.09 L137.16,75.22 L137.66,75.37 L138.16,75.53 L138.66,75.69 L139.16,75.87 L139.66,76.07 L140.16,76.27 L140.66,76.48 L141.16,76.71 L141.66,76.94 L142.17,77.19 L142.67,77.45 L143.17,77.72 L143.67,78.00 L144.17,78.29 L144.67,78.59 L145.17,78.89 L145.67,79.21 L146.17,79.54 L146.67,79.88 L147.17,80.22 L147.67,80.57 L148.17,80.94 L148.67,81.31 L149.17,81.69 L149.67,82.07 L150.17,82.47 L150.68,82.87 L151.18,83.27 L151.68,83.69 L152.18,84.11 L152.68,84.53 L153.18,84.97 L153.68,85.40 L154.18,85.85 L154.68,86.30 L155.18,86.75 L155.68,87.21 L156.18,87.67 L156.68,88.14 L157.18,88.61 L157.68,89.08 L158.18,89.55 L158.68,90.03 L159.19,90.52 L159.69,91.00 L160.19,91.49 L160.69,91.97 L161.19,92.46 L161.69,92.96 L162.19,93.45 L162.69,93.94 L163.19,94.44 L163.69,94.93 L164.19,95.42 L164.69,95.92 L165.19,96.41 L165.69,96.90 L166.19,97.40 L166.69,97.89 L167.19,98.38 L167.69,98.87 L168.20,99.35 L168.70,99.84 L169.20,100.32 L169.70,100.80 L170.20,101.28 L170.70,101.76 L171.20,102.23 L171.70,102.70 L172.20,103.17 L172.70,103.63 L173.20,104.09 L173.70,104.55 L174.20,105.00 L174.70,105.45 L175.20,105.89 L175.70,106.33 L176.20,106.77 L176.71,107.20 L177.21,107.63 L177.71,108.05 L178.21,108.47 L178.71,108.88 L179.21,109.29 L179.71,109.70 L180.21,110.10 L180.71,110.49 L181.21,110.88 L181.71,111.26 L182.21,111.64 L182.71,112.01 L183.21,112.38 L183.71,112.74 L184.21,113.09 L184.71,113.44 L185.22,113.79 L185.72,114.13 L186.22,114.46 L186.72,114.79 L187.22,115.11 L187.72,115.43 L188.22,115.74 L188.72,116.05 L189.22,116.35 L189.72,116.64 L190.22,116.93 L190.72,117.21 L191.22,117.49 L191.72,117.76 L192.22,118.03 L192.72,118.29 L193.22,118.54 L193.73,118.79 L194.23,119.04 L194.73,119.28 L195.23,119.51 L195.73,119.74 L196.23,119.97 L196.73,120.19 L197.23,120.40 L197.73,120.61 L198.23,120.81 L198.73,121.01 L199.23,121.20 L199.73,121.39 L200.23,121.58 L200.73,121.76 L201.23,121.93 L201.73,122.10 L202.24,122.27 L202.74,122.43 L203.24,122.59 L203.74,122.74 L204.24,122.89 L204.74,123.04 L205.24,123.18 L205.74,123.32 L206.24,123.45 L206.74,123.58 L207.24,123.70 L207.74,123.83 L208.24,123.95 L208.74,124.06 L209.24,124.17 L209.74,124.28 L210.24,124.38 L210.75,124.49 L211.25,124.58 L211.75,124.68 L212.25,124.77 L212.75,124.86 L213.25,124.95 L213.75,125.03 L214.25,125.11 L214.75,125.19 L215.25,125.27 L215.75,125.34 L216.25,125.41 L216.75,125.48 L217.25,125.55 L217.75,125.61 L218.25,125.67 L218.75,125.73 L219.25,125.79 L219.76,125.84 L220.26,125.90 L220.76,125.95 L221.26,126.00 L221.76,126.05 L222.26,126.09 L222.76,126.14 L223.26,126.18 L223.76,126.22 L224.26,126.26 L224.76,126.30 L225.26,126.33 L225.76,126.37 L226.26,126.40 L226.76,126.43 L227.26,126.46 L227.76,126.49 L228.27,126.52 L228.77,126.55 L229.27,126.58 L229.77,126.60 L230.27,126.63 L230.77,126.65 L231.27,126.67 L231.77,126.69 L232.27,126.71 L232.77,126.73 L233.27,126.75 L233.77,126.77 L234.27,126.79 L234.77,126.80 L235.27,126.82 L235.77,126.84 L236.27,126.85 L236.78,126.86 L237.28,126.88 L237.78,126.89 L238.28,126.90 L238.78,126.91 L239.28,126.92 L239.78,126.93 L240.28,126.94 L240.78,126.95 L241.28,126.96 L241.78,126.97 L242.28,126.98 L242.78,126.99 L243.28,126.99 L243.78,127.00 L244.28,127.01 L244.78,127.01 L245.29,127.02 L245.79,127.03 L246.29,127.03 L246.79,127.04 L247.29,127.04 L247.79,127.05 L248.29,127.05 L248.79,127.06 L249.29,127.06 L249.79,127.06 L250.29,127.07 L250.79,127.07 L251.29,127.07 L251.79,127.08 L252.29,127.08 L252.79,127.08 L253.29,127.09 L253.80,127.09 L254.30,127.09 L254.80,127.09 L255.30,127.10 L255.80,127.10 L256.30,127.10 L256.80,127.10 L257.30,127.10 L257.80,127.10 L258.30,127.11 L258.80,127.11 L259.30,127.11 L259.80,127.11 L260.30,127.11 L260.80,127.11 L261.30,127.11 L261.80,127.11 L262.31,127.12 L262.81,127.12 L263.31,127.12 L263.81,127.12 L264.31,127.12 L264.81,127.12 L265.31,127.12 L265.81,127.12 L266.31,127.12 L266.81,127.12 L267.31,127.12 L267.81,127.12 L268.31,127.12 L268.81,127.12 L269.31,127.12 L269.81,127.13 L270.31,127.13 L270.81,127.13 L271.32,127.13 L271.82,127.13 L272.32,127.13 L272.82,127.13 L273.32,127.13 L273.82,127.13 L274.32,127.13 L274.82,127.13 L275.32,127.13 L275.82,127.13 L276.32,127.13 L276.82,127.13 L277.32,127.13 L277.82,127.13 L278.32,127.13 L278.82,127.13 L279.32,127.13 L279.83,127.13 L280.33,127.13 L280.83,127.13 L281.33,127.13 L281.83,127.13 L282.33,127.13 L282.83,127.13 L283.33,127.13 L283.83,127.13 L284.33,127.13 L284.83,127.13 L285.33,127.13 L285.83,127.13 L286.33,127.13 L286.83,127.13 L287.33,127.13 L287.83,127.13 L288.34,127.13 L288.84,127.13 L289.34,127.13 L289.84,127.13 L290.34,127.13 L290.84,127.13 L291.34,127.13 L291.84,127.13 L292.34,127.13 L292.84,127.13 L293.34,127.13 L293.84,127.13 L294.34,127.13 L294.84,127.13 L295.34,127.13 L295.84,127.13 L296.34,127.13 L296.85,127.13 L297.35,127.13 L297.85,127.13 L298.35,127.13 L298.85,127.13 L299.35,127.13 L299.85,127.13 L300.35,127.13 L300.85,127.13 L301.35,127.13 L301.85,127.13 L302.35,127.13 L302.85,127.13 L303.35,127.13 L303.85,127.13 L304.35,127.13 L304.85,127.13 L305.36,127.13 L305.86,127.13 L306.36,127.13 L306.86,127.13 L307.36,127.13 L307.86,127.13 L308.36,127.13 L308.86,127.13 L309.36,127.13 L309.86,127.13 L310.36,127.13 L310.86,127.13 L311.36,127.13 L311.86,127.13 L312.36,127.13 L312.86,127.13 L313.36,127.13 L313.86,127.13 L314.37,127.13 L314.87,127.13 L315.37,127.13 L315.87,127.13 L316.37,127.13 L316.87,127.13 L317.37,127.13 L317.87,127.13 L318.37,127.13 L318.87,127.13 L319.37,127.13 L319.87,127.13 L320.37,127.13 L320.87,127.13 L321.37,127.13 L321.87,127.13 L322.37,127.13 L322.88,127.13 L323.38,127.13 L323.88,127.13 L324.38,127.13 L324.88,127.13 L325.38,127.13 L325.88,127.13 L326.38,127.13 L326.88,127.13 L327.38,127.13 L327.88,127.13 L328.38,127.13 L328.88,127.13 L329.38,127.13 L329.88,127.13 L330.38,127.13 L330.88,127.13 L331.39,127.13 L331.89,127.13 L332.39,127.13 L332.89,127.13 L333.39,127.13 L333.89,127.13 L334.39,127.13 L334.89,127.13 L335.39,127.13 L335.89,127.13 L336.39,127.13 L336.89,127.13 L337.39,127.13 L337.89,127.13 L338.39,127.13 L338.89,127.13 L339.39,127.13 L339.90,127.13 L340.40,127.13 L340.90,127.13 L341.40,127.13 L341.90,127.13 L342.40,127.13 L342.90,127.13 L343.40,127.13 L343.90,127.13 L344.40,127.13 L344.90,127.13 L345.40,127.13 L345.90,127.13 L346.40,127.13 L346.90,127.13 L347.40,127.13 L347.90,127.13 L348.41,127.13 L348.91,127.13 L349.41,127.13 L349.91,127.13 L350.41,127.13 L350.91,127.13 L351.41,127.13 L351.91,127.13 L352.41,127.13 L352.91,127.13 L353.41,127.13 L353.91,127.13 L354.41,127.13 L354.91,127.13 L355.41,127.13 L355.91,127.13 L356.41,127.13 L356.92,127.13 L357.42,127.13 L357.92,127.13 L358.42,127.13 L358.92,127.13 L359.42,127.13 L359.92,127.13 L360.42,127.13 L360.92,127.13 L361.42,127.13 L361.92,127.13 L362.42,127.13 L362.92,127.13 L363.42,127.13 L363.92,127.13 L364.42,127.13 L364.92,127.13 L365.42,127.13 L365.93,127.13 L366.43,127.13 L366.93,127.13 L367.43,127.13 L367.93,127.13 L368.43,127.13 L368.93,127.13 L369.43,127.13 L369.93,127.13 L370.43,127.13 L370.93,127.13 L371.43,127.13 L371.93,127.13 L372.43,127.13 L372.93,127.13 L373.43,127.13 L373.93,127.13 L374.44,127.13 L374.94,127.13 L375.44,127.13 L375.94,127.13 L376.44,127.13 L376.94,127.13 L377.44,127.13 L377.94,127.13 L378.44,127.13 L378.94,127.13 L379.44,127.13 L379.94,127.13 L380.44,127.13 L380.94,127.13 L381.44,127.13 L381.94,127.13 L382.44,127.13 L382.95,127.13 L383.45,127.13 L383.95,127.13 L384.45,127.13 L384.95,127.13 L385.45,127.13 L385.95,127.13 L386.45,127.13 L386.95,127.13 L387.45,127.13 L387.95,127.13 L388.45,127.13 L388.95,127.13 L389.45,127.13 L389.95,127.13 L390.45,127.13 L390.95,127.13 L391.46,127.13 L391.96,127.13 L392.46,127.13 L392.96,127.13 L393.46,127.13 L393.96,127.13 L394.46,127.13 L394.96,127.13 L395.46,127.13 L395.96,127.13 L396.46,127.13 L396.96,127.13 L397.46,127.13 L397.96,127.13 L398.46,127.13 L398.96,127.13 L399.46,127.13 L399.97,127.13 L400.47,127.13 L400.97,127.13 L401.47,127.13 L401.97,127.13 L402.47,127.13 L402.97,127.13 L403.47,127.13 L403.97,127.13 L404.47,127.13 L404.97,127.13 L405.47,127.13 L405.97,127.13 L406.47,127.13 L406.97,127.13 L407.47,127.13 L407.97,127.13 L408.47,127.13 L408.98,127.13 L409.48,127.13 L409.98,127.13 L410.48,127.13 L410.98,127.13 L411.48,127.13 L411.98,127.13 L412.48,127.13 L412.98,127.13 L413.48,127.13 L413.98,127.13 L414.48,127.13 L414.98,127.13 L415.48,127.13 L415.98,127.13 L416.48,127.13 L416.98,127.13 L417.49,127.13 L417.99,127.13 L418.49,127.13 L418.99,127.13 L419.49,127.13 L419.99,127.13 L420.49,127.13 L420.99,127.13 L421.49,127.13 L421.99,127.13 L422.49,127.13 L422.99,127.13 L423.49,127.13 L423.99,127.13 L424.49,127.13 L424.99,127.13 L425.49,127.13 L426.00,127.13 L426.50,127.13 L427.00,127.13 L427.50,127.13 L428.00,127.13 L428.50,127.13 L429.00,127.13 L429.50,127.13 L430.00,127.13" style="stroke-width: 3; stroke: rgb(0, 0, 0); stroke-opacity: 1;"/><path d=" M131.57, 127.13 L131.57, 127.00 L131.57, 126.87 L131.57, 126.75 L131.57, 126.62 L131.57, 126.49 L131.57, 126.36 L131.57, 126.24 L131.57, 126.11 L131.57, 125.98 L131.57, 125.85 L131.57, 125.72 L131.57, 125.60 L131.57, 125.47 L131.57, 125.34 L131.57, 125.21 L131.57, 125.08 L131.57, 124.96 L131.57, 124.83 L131.57, 124.70 L131.57, 124.57 L131.57, 124.44 L131.57, 124.32 L131.57, 124.19 L131.57, 124.06 L131.57, 123.93 L131.57, 123.80 L131.57, 123.68 L131.57, 123.55 L131.57, 123.42 L131.57, 123.29 L131.57, 123.17 L131.57, 123.04 L131.57, 122.91 L131.57, 122.78 L131.57, 122.65 L131.57, 122.53 L131.57, 122.40 L131.57, 122.27 L131.57, 122.14 L131.57, 122.01 L131.57, 121.89 L131.57, 121.76 L131.57, 121.63 L131.57, 121.50 L131.57, 121.37 L131.57, 121.25 L131.57, 121.12 L131.57, 120.99 L131.57, 120.86 L131.57, 120.73 L131.57, 120.61 L131.57, 120.48 L131.57, 120.35 L131.57, 120.22 L131.57, 120.09 L131.57, 119.97 L131.57, 119.84 L131.57, 119.71 L131.57, 119.58 L131.57, 119.46 L131.57, 119.33 L131.57, 119.20 L131.57, 119.07 L131.57, 118.94 L131.57, 118.82 L131.57, 118.69 L131.57, 118.56 L131.57, 118.43 L131.57, 118.30 L131.57, 118.18 L131.57, 118.05 L131.57, 117.92 L131.57, 117.79 L131.57, 117.66 L131.57, 117.54 L131.57, 117.41 L131.57, 117.28 L131.57, 117.15 L131.57, 117.02 L131.57, 116.90 L131.57, 116.77 L131.57, 116.64 L131.57, 116.51 L131.57, 116.39 L131.57, 116.26 L131.57, 116.13 L131.57, 116.00 L131.57, 115.87 L131.57, 115.75 L131.57, 115.62 L131.57, 115.49 L131.57, 115.36 L131.57, 115.23 L131.57, 115.11 L131.57, 114.98 L131.57, 114.85 L131.57, 114.72 L131.57, 114.59 L131.57, 114.47 L131.57, 114.34 L131.57, 114.21 L131.57, 114.08 L131.57, 113.95 L131.57, 113.83 L131.57, 113.70 L131.57, 113.57 L131.57, 113.44 L131.57, 113.31 L131.57, 113.19 L131.57, 113.06 L131.57, 112.93 L131.57, 112.80 L131.57, 112.68 L131.57, 112.55 L131.57, 112.42 L131.57, 112.29 L131.57, 112.16 L131.57, 112.04 L131.57, 111.91 L131.57, 111.78 L131.57, 111.65 L131.57, 111.52 L131.57, 111.40 L131.57, 111.27 L131.57, 111.14 L131.57, 111.01 L131.57, 110.88 L131.57, 110.76 L131.57, 110.63 L131.57, 110.50 L131.57, 110.37 L131.57, 110.24 L131.57, 110.12 L131.57, 109.99 L131.57, 109.86 L131.57, 109.73 L131.57, 109.60 L131.57, 109.48 L131.57, 109.35 L131.57, 109.22 L131.57, 109.09 L131.57, 108.97 L131.57, 108.84 L131.57, 108.71 L131.57, 108.58 L131.57, 108.45 L131.57, 108.33 L131.57, 108.20 L131.57, 108.07 L131.57, 107.94 L131.57, 107.81 L131.57, 107.69 L131.57, 107.56 L131.57, 107.43 L131.57, 107.30 L131.57, 107.17 L131.57, 107.05 L131.57, 106.92 L131.57, 106.79 L131.57, 106.66 L131.57, 106.53 L131.57, 106.41 L131.57, 106.28 L131.57, 106.15 L131.57, 106.02 L131.57, 105.90 L131.57, 105.77 L131.57, 105.64 L131.57, 105.51 L131.57, 105.38 L131.57, 105.26 L131.57, 105.13 L131.57, 105.00 L131.57, 104.87 L131.57, 104.74 L131.57, 104.62 L131.57, 104.49 L131.57, 104.36 L131.57, 104.23 L131.57, 104.10 L131.57, 103.98 L131.57, 103.85 L131.57, 103.72 L131.57, 103.59 L131.57, 103.46 L131.57, 103.34 L131.57, 103.21 L131.57, 103.08 L131.57, 102.95 L131.57, 102.82 L131.57, 102.70 L131.57, 102.57 L131.57, 102.44 L131.57, 102.31 L131.57, 102.19 L131.57, 102.06 L131.57, 101.93 L131.57, 101.80 L131.57, 101.67 L131.57, 101.55 L131.57, 101.42 L131.57, 101.29 L131.57, 101.16 L131.57, 101.03 L131.57, 100.91 L131.57, 100.78 L131.57, 100.65 L131.57, 100.52 L131.57, 100.39 L131.57, 100.27 L131.57, 100.14 L131.57, 100.01 L131.57, 99.88 L131.57, 99.75 L131.57, 99.63 L131.57, 99.50 L131.57, 99.37 L131.57, 99.24 L131.57, 99.12 L131.57, 98.99 L131.57, 98.86 L131.57, 98.73 L131.57, 98.60 L131.57, 98.48 L131.57, 98.35 L131.57, 98.22 L131.57, 98.09 L131.57, 97.96 L131.57, 97.84 L131.57, 97.71 L131.57, 97.58 L131.57, 97.45 L131.57, 97.32 L131.57, 97.20 L131.57, 97.07 L131.57, 96.94 L131.57, 96.81 L131.57, 96.68 L131.57, 96.56 L131.57, 96.43 L131.57, 96.30 L131.57, 96.17 L131.57, 96.04 L131.57, 95.92 L131.57, 95.79 L131.57, 95.66 L131.57, 95.53 L131.57, 95.41 L131.57, 95.28 L131.57, 95.15 L131.57, 95.02 L131.57, 94.89 L131.57, 94.77 L131.57, 94.64 L131.57, 94.51 L131.57, 94.38 L131.57, 94.25 L131.57, 94.13 L131.57, 94.00 L131.57, 93.87 L131.57, 93.74 L131.57, 93.61 L131.57, 93.49 L131.57, 93.36 L131.57, 93.23 L131.57, 93.10 L131.57, 92.97 L131.57, 92.85 L131.57, 92.72 L131.57, 92.59 L131.57, 92.46 L131.57, 92.34 L131.57, 92.21 L131.57, 92.08 L131.57, 91.95 L131.57, 91.82 L131.57, 91.70 L131.57, 91.57 L131.57, 91.44 L131.57, 91.31 L131.57, 91.18 L131.57, 91.06 L131.57, 90.93 L131.57, 90.80 L131.57, 90.67 L131.57, 90.54 L131.57, 90.42 L131.57, 90.29 L131.57, 90.16 L131.57, 90.03 L131.57, 89.90 L131.57, 89.78 L131.57, 89.65 L131.57, 89.52 L131.57, 89.39 L131.57, 89.26 L131.57, 89.14 L131.57, 89.01 L131.57, 88.88 L131.57, 88.75 L131.57, 88.63 L131.57, 88.50 L131.57, 88.37 L131.57, 88.24 L131.57, 88.11 L131.57, 87.99 L131.57, 87.86 L131.57, 87.73 L131.57, 87.60 L131.57, 87.47 L131.57, 87.35 L131.57, 87.22 L131.57, 87.09 L131.57, 86.96 L131.57, 86.83 L131.57, 86.71 L131.57, 86.58 L131.57, 86.45 L131.57, 86.32 L131.57, 86.19 L131.57, 86.07 L131.57, 85.94 L131.57, 85.81 L131.57, 85.68 L131.57, 85.55 L131.57, 85.43 L131.57, 85.30 L131.57, 85.17 L131.57, 85.04 L131.57, 84.92 L131.57, 84.79 L131.57, 84.66 L131.57, 84.53 L131.57, 84.40 L131.57, 84.28 L131.57, 84.15 L131.57, 84.02 L131.57, 83.89 L131.57, 83.76 L131.57, 83.64 L131.57, 83.51 L131.57, 83.38 L131.57, 83.25 L131.57, 83.12 L131.57, 83.00 L131.57, 82.87 L131.57, 82.74 L131.57, 82.61 L131.57, 82.48 L131.57, 82.36 L131.57, 82.23 L131.57, 82.10 L131.57, 81.97 L131.57, 81.85 L131.57, 81.72 L131.57, 81.59 L131.57, 81.46 L131.57, 81.33 L131.57, 81.21 L131.57, 81.08 L131.57, 80.95 L131.57, 80.82 L131.57, 80.69 L131.57, 80.57 L131.57, 80.44 L131.57, 80.31 L131.57, 80.18 L131.57, 80.05 L131.57, 79.93 L131.57, 79.80 L131.57, 79.67 L131.57, 79.54 L131.57, 79.41 L131.57, 79.29 L131.57, 79.16 L131.57, 79.03 L131.57, 78.90 L131.57, 78.77 L131.57, 78.65 L131.57, 78.52 L131.57, 78.39 L131.57, 78.26 L131.57, 78.14 L131.57, 78.01 L131.57, 77.88 L131.57, 77.75 L131.57, 77.62 L131.57, 77.50 L131.57, 77.37 L131.57, 77.24 L131.57, 77.11 L131.57, 76.98 L131.57, 76.86 L131.57, 76.73 L131.57, 76.60 L131.57, 76.47 L131.57, 76.34 L131.57, 76.22 L131.57, 76.09 L131.57, 75.96 L131.57, 75.83 L131.57, 75.70 L131.57, 75.58 L131.57, 75.45 L131.57, 75.32 L131.57, 75.19 L131.57, 75.07 L131.57, 74.94 L131.57, 74.81 L131.57, 74.68 L131.57, 74.55 L131.57, 74.43 L131.57, 74.30 L131.57, 74.17 L131.57, 74.04" style="stroke-width: 2; stroke: rgb(0, 0, 0); stroke-opacity: 1; stroke-dasharray: 2.25, 3.685;"/><path d=" M0.00,127.13 L0.50,127.13 L1.00,127.13 L1.50,127.13 L2.00,127.13 L2.50,127.13 L3.00,127.13 L3.50,127.13 L4.00,127.13 L4.51,127.13 L5.01,127.13 L5.51,127.13 L6.01,127.13 L6.51,127.13 L7.01,127.13 L7.51,127.13 L8.01,127.13 L8.51,127.13 L9.01,127.13 L9.51,127.13 L10.01,127.13 L10.51,127.13 L11.01,127.13 L11.51,127.13 L12.01,127.13 L12.51,127.13 L13.02,127.13 L13.52,127.13 L14.02,127.13 L14.52,127.13 L15.02,127.13 L15.52,127.13 L16.02,127.13 L16.52,127.13 L17.02,127.13 L17.52,127.13 L18.02,127.13 L18.52,127.13 L19.02,127.13 L19.52,127.13 L20.02,127.13 L20.52,127.13 L21.02,127.13 L21.53,127.13 L22.03,127.13 L22.53,127.13 L23.03,127.13 L23.53,127.13 L24.03,127.13 L24.53,127.13 L25.03,127.13 L25.53,127.13 L26.03,127.13 L26.53,127.13 L27.03,127.13 L27.53,127.13 L28.03,127.13 L28.53,127.13 L29.03,127.13 L29.53,127.13 L30.03,127.13 L30.54,127.13 L31.04,127.13 L31.54,127.13 L32.04,127.13 L32.54,127.13 L33.04,127.13 L33.54,127.13 L34.04,127.13 L34.54,127.13 L35.04,127.13 L35.54,127.13 L36.04,127.13 L36.54,127.13 L37.04,127.13 L37.54,127.13 L38.04,127.13 L38.54,127.13 L39.05,127.13 L39.55,127.13 L40.05,127.13 L40.55,127.13 L41.05,127.13 L41.55,127.13 L42.05,127.13 L42.55,127.13 L43.05,127.13 L43.55,127.13 L44.05,127.13 L44.55,127.13 L45.05,127.13 L45.55,127.13 L46.05,127.13 L46.55,127.13 L47.05,127.13 L47.56,127.13 L48.06,127.13 L48.56,127.13 L49.06,127.13 L49.56,127.13 L50.06,127.13 L50.56,127.13 L51.06,127.13 L51.56,127.13 L52.06,127.13 L52.56,127.13 L53.06,127.13 L53.56,127.13 L54.06,127.13 L54.56,127.13 L55.06,127.13 L55.56,127.13 L56.07,127.13 L56.57,127.13 L57.07,127.13 L57.57,127.13 L58.07,127.13 L58.57,127.13 L59.07,127.13 L59.57,127.13 L60.07,127.13 L60.57,127.13 L61.07,127.13 L61.57,127.13 L62.07,127.13 L62.57,127.13 L63.07,127.13 L63.57,127.13 L64.07,127.13 L64.58,127.13 L65.08,127.13 L65.58,127.13 L66.08,127.13 L66.58,127.13 L67.08,127.13 L67.58,127.13 L68.08,127.13 L68.58,127.13 L69.08,127.13 L69.58,127.13 L70.08,127.13 L70.58,127.13 L71.08,127.13 L71.58,127.13 L72.08,127.13 L72.58,127.13 L73.08,127.13 L73.59,127.13 L74.09,127.13 L74.59,127.12 L75.09,127.12 L75.59,127.12 L76.09,127.12 L76.59,127.12 L77.09,127.12 L77.59,127.12 L78.09,127.12 L78.59,127.12 L79.09,127.12 L79.59,127.12 L80.09,127.12 L80.59,127.12 L81.09,127.12 L81.59,127.12 L82.10,127.12 L82.60,127.11 L83.10,127.11 L83.60,127.11 L84.10,127.11 L84.60,127.11 L85.10,127.11 L85.60,127.11 L86.10,127.11 L86.60,127.10 L87.10,127.10 L87.60,127.10 L88.10,127.10 L88.60,127.10 L89.10,127.09 L89.60,127.09 L90.10,127.09 L90.61,127.09 L91.11,127.08 L91.61,127.08 L92.11,127.08 L92.61,127.08 L93.11,127.07 L93.61,127.07 L94.11,127.07 L94.61,127.06 L95.11,127.06 L95.61,127.05 L96.11,127.05 L96.61,127.04 L97.11,127.04 L97.61,127.03 L98.11,127.03 L98.61,127.02 L99.12,127.02 L99.62,127.01 L100.12,127.00 L100.62,127.00 L101.12,126.99 L101.62,126.98 L102.12,126.97 L102.62,126.97 L103.12,126.96 L103.62,126.95 L104.12,126.94 L104.62,126.93 L105.12,126.92 L105.62,126.90 L106.12,126.89 L106.62,126.88 L107.12,126.87 L107.63,126.85 L108.13,126.84 L108.63,126.82 L109.13,126.81 L109.63,126.79 L110.13,126.78 L110.63,126.76 L111.13,126.74 L111.63,126.72 L112.13,126.70 L112.63,126.68 L113.13,126.66 L113.63,126.63 L114.13,126.61 L114.63,126.59 L115.13,126.56 L115.63,126.53 L116.14,126.50 L116.64,126.47 L117.14,126.44 L117.64,126.41 L118.14,126.38 L118.64,126.34 L119.14,126.31 L119.64,126.27 L120.14,126.23 L120.64,126.19 L121.14,126.15 L121.64,126.11 L122.14,126.06 L122.64,126.01 L123.14,125.96 L123.64,125.91 L124.14,125.86 L124.64,125.81 L125.15,125.75 L125.65,125.69 L126.15,125.63 L126.65,125.57 L127.15,125.50 L127.65,125.43 L128.15,125.36 L128.65,125.29 L129.15,125.22 L129.65,125.14 L130.15,125.06 L130.65,124.98 L131.15,124.89 L131.65,124.80 L132.15,124.71 L132.65,124.62 L133.15,124.52 L133.66,124.42 L134.16,124.31 L134.66,124.21 L135.16,124.10 L135.66,123.98 L136.16,123.87 L136.66,123.74 L137.16,123.62 L137.66,123.49 L138.16,123.36 L138.66,123.22 L139.16,123.08 L139.66,122.94 L140.16,122.79 L140.66,122.64 L141.16,122.48 L141.66,122.32 L142.17,122.16 L142.67,121.99 L143.17,121.82 L143.67,121.64 L144.17,121.45 L144.67,121.27 L145.17,121.07 L145.67,120.88 L146.17,120.67 L146.67,120.47 L147.17,120.26 L147.67,120.04 L148.17,119.82 L148.67,119.59 L149.17,119.36 L149.67,119.12 L150.17,118.87 L150.68,118.63 L151.18,118.37 L151.68,118.11 L152.18,117.85 L152.68,117.58 L153.18,117.30 L153.68,117.02 L154.18,116.73 L154.68,116.44 L155.18,116.14 L155.68,115.84 L156.18,115.53 L156.68,115.22 L157.18,114.89 L157.68,114.57 L158.18,114.24 L158.68,113.90 L159.19,113.56 L159.69,113.21 L160.19,112.85 L160.69,112.49 L161.19,112.13 L161.69,111.76 L162.19,111.38 L162.69,111.00 L163.19,110.62 L163.69,110.22 L164.19,109.83 L164.69,109.42 L165.19,109.02 L165.69,108.61 L166.19,108.19 L166.69,107.77 L167.19,107.34 L167.69,106.91 L168.20,106.48 L168.70,106.04 L169.20,105.59 L169.70,105.15 L170.20,104.69 L170.70,104.24 L171.20,103.78 L171.70,103.32 L172.20,102.85 L172.70,102.38 L173.20,101.91 L173.70,101.44 L174.20,100.96 L174.70,100.48 L175.20,100.00 L175.70,99.51 L176.20,99.03 L176.71,98.54 L177.21,98.05 L177.71,97.56 L178.21,97.06 L178.71,96.57 L179.21,96.08 L179.71,95.58 L180.21,95.09 L180.71,94.60 L181.21,94.10 L181.71,93.61 L182.21,93.12 L182.71,92.62 L183.21,92.13 L183.71,91.64 L184.21,91.16 L184.71,90.67 L185.22,90.19 L185.72,89.71 L186.22,89.23 L186.72,88.76 L187.22,88.29 L187.72,87.82 L188.22,87.36 L188.72,86.90 L189.22,86.44 L189.72,85.99 L190.22,85.55 L190.72,85.11 L191.22,84.67 L191.72,84.25 L192.22,83.82 L192.72,83.41 L193.22,83.00 L193.73,82.59 L194.23,82.20 L194.73,81.81 L195.23,81.43 L195.73,81.06 L196.23,80.69 L196.73,80.34 L197.23,79.99 L197.73,79.65 L198.23,79.32 L198.73,79.00 L199.23,78.68 L199.73,78.38 L200.23,78.09 L200.73,77.81 L201.23,77.54 L201.73,77.27 L202.24,77.02 L202.74,76.78 L203.24,76.55 L203.74,76.34 L204.24,76.13 L204.74,75.93 L205.24,75.75 L205.74,75.58 L206.24,75.42 L206.74,75.27 L207.24,75.13 L207.74,75.01 L208.24,74.90 L208.74,74.80 L209.24,74.71 L209.74,74.63 L210.24,74.57 L210.75,74.52 L211.25,74.48 L211.75,74.46 L212.25,74.45 L212.75,74.45 L213.25,74.46 L213.75,74.49 L214.25,74.52 L214.75,74.57 L215.25,74.64 L215.75,74.71 L216.25,74.80 L216.75,74.90 L217.25,75.01 L217.75,75.14 L218.25,75.27 L218.75,75.42 L219.25,75.58 L219.76,75.76 L220.26,75.94 L220.76,76.14 L221.26,76.34 L221.76,76.56 L222.26,76.79 L222.76,77.03 L223.26,77.28 L223.76,77.55 L224.26,77.82 L224.76,78.10 L225.26,78.39 L225.76,78.70 L226.26,79.01 L226.76,79.33 L227.26,79.66 L227.76,80.00 L228.27,80.35 L228.77,80.70 L229.27,81.07 L229.77,81.44 L230.27,81.82 L230.77,82.21 L231.27,82.61 L231.77,83.01 L232.27,83.42 L232.77,83.84 L233.27,84.26 L233.77,84.69 L234.27,85.12 L234.77,85.56 L235.27,86.01 L235.77,86.46 L236.27,86.91 L236.78,87.37 L237.28,87.84 L237.78,88.30 L238.28,88.78 L238.78,89.25 L239.28,89.73 L239.78,90.21 L240.28,90.69 L240.78,91.18 L241.28,91.66 L241.78,92.15 L242.28,92.64 L242.78,93.13 L243.28,93.63 L243.78,94.12 L244.28,94.61 L244.78,95.11 L245.29,95.60 L245.79,96.10 L246.29,96.59 L246.79,97.08 L247.29,97.57 L247.79,98.07 L248.29,98.55 L248.79,99.04 L249.29,99.53 L249.79,100.01 L250.29,100.50 L250.79,100.98 L251.29,101.45 L251.79,101.93 L252.29,102.40 L252.79,102.87 L253.29,103.33 L253.80,103.80 L254.30,104.26 L254.80,104.71 L255.30,105.16 L255.80,105.61 L256.30,106.05 L256.80,106.49 L257.30,106.93 L257.80,107.36 L258.30,107.78 L258.80,108.20 L259.30,108.62 L259.80,109.03 L260.30,109.44 L260.80,109.84 L261.30,110.24 L261.80,110.63 L262.31,111.02 L262.81,111.40 L263.31,111.77 L263.81,112.14 L264.31,112.51 L264.81,112.87 L265.31,113.22 L265.81,113.57 L266.31,113.91 L266.81,114.25 L267.31,114.58 L267.81,114.91 L268.31,115.23 L268.81,115.54 L269.31,115.85 L269.81,116.15 L270.31,116.45 L270.81,116.74 L271.32,117.03 L271.82,117.31 L272.32,117.59 L272.82,117.86 L273.32,118.12 L273.82,118.38 L274.32,118.64 L274.82,118.88 L275.32,119.13 L275.82,119.36 L276.32,119.60 L276.82,119.82 L277.32,120.05 L277.82,120.26 L278.32,120.47 L278.82,120.68 L279.32,120.88 L279.83,121.08 L280.33,121.27 L280.83,121.46 L281.33,121.64 L281.83,121.82 L282.33,122.00 L282.83,122.16 L283.33,122.33 L283.83,122.49 L284.33,122.65 L284.83,122.80 L285.33,122.95 L285.83,123.09 L286.33,123.23 L286.83,123.36 L287.33,123.50 L287.83,123.62 L288.34,123.75 L288.84,123.87 L289.34,123.99 L289.84,124.10 L290.34,124.21 L290.84,124.32 L291.34,124.42 L291.84,124.52 L292.34,124.62 L292.84,124.71 L293.34,124.81 L293.84,124.89 L294.34,124.98 L294.84,125.06 L295.34,125.14 L295.84,125.22 L296.34,125.29 L296.85,125.37 L297.35,125.44 L297.85,125.50 L298.35,125.57 L298.85,125.63 L299.35,125.69 L299.85,125.75 L300.35,125.81 L300.85,125.86 L301.35,125.92 L301.85,125.97 L302.35,126.01 L302.85,126.06 L303.35,126.11 L303.85,126.15 L304.35,126.19 L304.85,126.23 L305.36,126.27 L305.86,126.31 L306.36,126.35 L306.86,126.38 L307.36,126.41 L307.86,126.44 L308.36,126.48 L308.86,126.50 L309.36,126.53 L309.86,126.56 L310.36,126.59 L310.86,126.61 L311.36,126.64 L311.86,126.66 L312.36,126.68 L312.86,126.70 L313.36,126.72 L313.86,126.74 L314.37,126.76 L314.87,126.78 L315.37,126.79 L315.87,126.81 L316.37,126.83 L316.87,126.84 L317.37,126.85 L317.87,126.87 L318.37,126.88 L318.87,126.89 L319.37,126.91 L319.87,126.92 L320.37,126.93 L320.87,126.94 L321.37,126.95 L321.87,126.96 L322.37,126.97 L322.88,126.97 L323.38,126.98 L323.88,126.99 L324.38,127.00 L324.88,127.00 L325.38,127.01 L325.88,127.02 L326.38,127.02 L326.88,127.03 L327.38,127.03 L327.88,127.04 L328.38,127.04 L328.88,127.05 L329.38,127.05 L329.88,127.06 L330.38,127.06 L330.88,127.07 L331.39,127.07 L331.89,127.07 L332.39,127.08 L332.89,127.08 L333.39,127.08 L333.89,127.08 L334.39,127.09 L334.89,127.09 L335.39,127.09 L335.89,127.09 L336.39,127.10 L336.89,127.10 L337.39,127.10 L337.89,127.10 L338.39,127.10 L338.89,127.11 L339.39,127.11 L339.90,127.11 L340.40,127.11 L340.90,127.11 L341.40,127.11 L341.90,127.11 L342.40,127.11 L342.90,127.12 L343.40,127.12 L343.90,127.12 L344.40,127.12 L344.90,127.12 L345.40,127.12 L345.90,127.12 L346.40,127.12 L346.90,127.12 L347.40,127.12 L347.90,127.12 L348.41,127.12 L348.91,127.12 L349.41,127.12 L349.91,127.12 L350.41,127.12 L350.91,127.13 L351.41,127.13 L351.91,127.13 L352.41,127.13 L352.91,127.13 L353.41,127.13 L353.91,127.13 L354.41,127.13 L354.91,127.13 L355.41,127.13 L355.91,127.13 L356.41,127.13 L356.92,127.13 L357.42,127.13 L357.92,127.13 L358.42,127.13 L358.92,127.13 L359.42,127.13 L359.92,127.13 L360.42,127.13 L360.92,127.13 L361.42,127.13 L361.92,127.13 L362.42,127.13 L362.92,127.13 L363.42,127.13 L363.92,127.13 L364.42,127.13 L364.92,127.13 L365.42,127.13 L365.93,127.13 L366.43,127.13 L366.93,127.13 L367.43,127.13 L367.93,127.13 L368.43,127.13 L368.93,127.13 L369.43,127.13 L369.93,127.13 L370.43,127.13 L370.93,127.13 L371.43,127.13 L371.93,127.13 L372.43,127.13 L372.93,127.13 L373.43,127.13 L373.93,127.13 L374.44,127.13 L374.94,127.13 L375.44,127.13 L375.94,127.13 L376.44,127.13 L376.94,127.13 L377.44,127.13 L377.94,127.13 L378.44,127.13 L378.94,127.13 L379.44,127.13 L379.94,127.13 L380.44,127.13 L380.94,127.13 L381.44,127.13 L381.94,127.13 L382.44,127.13 L382.95,127.13 L383.45,127.13 L383.95,127.13 L384.45,127.13 L384.95,127.13 L385.45,127.13 L385.95,127.13 L386.45,127.13 L386.95,127.13 L387.45,127.13 L387.95,127.13 L388.45,127.13 L388.95,127.13 L389.45,127.13 L389.95,127.13 L390.45,127.13 L390.95,127.13 L391.46,127.13 L391.96,127.13 L392.46,127.13 L392.96,127.13 L393.46,127.13 L393.96,127.13 L394.46,127.13 L394.96,127.13 L395.46,127.13 L395.96,127.13 L396.46,127.13 L396.96,127.13 L397.46,127.13 L397.96,127.13 L398.46,127.13 L398.96,127.13 L399.46,127.13 L399.97,127.13 L400.47,127.13 L400.97,127.13 L401.47,127.13 L401.97,127.13 L402.47,127.13 L402.97,127.13 L403.47,127.13 L403.97,127.13 L404.47,127.13 L404.97,127.13 L405.47,127.13 L405.97,127.13 L406.47,127.13 L406.97,127.13 L407.47,127.13 L407.97,127.13 L408.47,127.13 L408.98,127.13 L409.48,127.13 L409.98,127.13 L410.48,127.13 L410.98,127.13 L411.48,127.13 L411.98,127.13 L412.48,127.13 L412.98,127.13 L413.48,127.13 L413.98,127.13 L414.48,127.13 L414.98,127.13 L415.48,127.13 L415.98,127.13 L416.48,127.13 L416.98,127.13 L417.49,127.13 L417.99,127.13 L418.49,127.13 L418.99,127.13 L419.49,127.13 L419.99,127.13 L420.49,127.13 L420.99,127.13 L421.49,127.13 L421.99,127.13 L422.49,127.13 L422.99,127.13 L423.49,127.13 L423.99,127.13 L424.49,127.13 L424.99,127.13 L425.49,127.13 L426.00,127.13 L426.50,127.13 L427.00,127.13 L427.50,127.13 L428.00,127.13 L428.50,127.13 L429.00,127.13 L429.50,127.13 L430.00,127.13" style="stroke-width: 3; stroke: rgb(0, 0, 0); stroke-opacity: 1;"/><path d=" M212.49, 127.13 L212.49, 127.00 L212.49, 126.87 L212.49, 126.75 L212.49, 126.62 L212.49, 126.49 L212.49, 126.36 L212.49, 126.24 L212.49, 126.11 L212.49, 125.98 L212.49, 125.85 L212.49, 125.72 L212.49, 125.60 L212.49, 125.47 L212.49, 125.34 L212.49, 125.21 L212.49, 125.08 L212.49, 124.96 L212.49, 124.83 L212.49, 124.70 L212.49, 124.57 L212.49, 124.44 L212.49, 124.32 L212.49, 124.19 L212.49, 124.06 L212.49, 123.93 L212.49, 123.80 L212.49, 123.68 L212.49, 123.55 L212.49, 123.42 L212.49, 123.29 L212.49, 123.17 L212.49, 123.04 L212.49, 122.91 L212.49, 122.78 L212.49, 122.65 L212.49, 122.53 L212.49, 122.40 L212.49, 122.27 L212.49, 122.14 L212.49, 122.01 L212.49, 121.89 L212.49, 121.76 L212.49, 121.63 L212.49, 121.50 L212.49, 121.37 L212.49, 121.25 L212.49, 121.12 L212.49, 120.99 L212.49, 120.86 L212.49, 120.73 L212.49, 120.61 L212.49, 120.48 L212.49, 120.35 L212.49, 120.22 L212.49, 120.09 L212.49, 119.97 L212.49, 119.84 L212.49, 119.71 L212.49, 119.58 L212.49, 119.46 L212.49, 119.33 L212.49, 119.20 L212.49, 119.07 L212.49, 118.94 L212.49, 118.82 L212.49, 118.69 L212.49, 118.56 L212.49, 118.43 L212.49, 118.30 L212.49, 118.18 L212.49, 118.05 L212.49, 117.92 L212.49, 117.79 L212.49, 117.66 L212.49, 117.54 L212.49, 117.41 L212.49, 117.28 L212.49, 117.15 L212.49, 117.02 L212.49, 116.90 L212.49, 116.77 L212.49, 116.64 L212.49, 116.51 L212.49, 116.39 L212.49, 116.26 L212.49, 116.13 L212.49, 116.00 L212.49, 115.87 L212.49, 115.75 L212.49, 115.62 L212.49, 115.49 L212.49, 115.36 L212.49, 115.23 L212.49, 115.11 L212.49, 114.98 L212.49, 114.85 L212.49, 114.72 L212.49, 114.59 L212.49, 114.47 L212.49, 114.34 L212.49, 114.21 L212.49, 114.08 L212.49, 113.95 L212.49, 113.83 L212.49, 113.70 L212.49, 113.57 L212.49, 113.44 L212.49, 113.31 L212.49, 113.19 L212.49, 113.06 L212.49, 112.93 L212.49, 112.80 L212.49, 112.68 L212.49, 112.55 L212.49, 112.42 L212.49, 112.29 L212.49, 112.16 L212.49, 112.04 L212.49, 111.91 L212.49, 111.78 L212.49, 111.65 L212.49, 111.52 L212.49, 111.40 L212.49, 111.27 L212.49, 111.14 L212.49, 111.01 L212.49, 110.88 L212.49, 110.76 L212.49, 110.63 L212.49, 110.50 L212.49, 110.37 L212.49, 110.24 L212.49, 110.12 L212.49, 109.99 L212.49, 109.86 L212.49, 109.73 L212.49, 109.60 L212.49, 109.48 L212.49, 109.35 L212.49, 109.22 L212.49, 109.09 L212.49, 108.97 L212.49, 108.84 L212.49, 108.71 L212.49, 108.58 L212.49, 108.45 L212.49, 108.33 L212.49, 108.20 L212.49, 108.07 L212.49, 107.94 L212.49, 107.81 L212.49, 107.69 L212.49, 107.56 L212.49, 107.43 L212.49, 107.30 L212.49, 107.17 L212.49, 107.05 L212.49, 106.92 L212.49, 106.79 L212.49, 106.66 L212.49, 106.53 L212.49, 106.41 L212.49, 106.28 L212.49, 106.15 L212.49, 106.02 L212.49, 105.90 L212.49, 105.77 L212.49, 105.64 L212.49, 105.51 L212.49, 105.38 L212.49, 105.26 L212.49, 105.13 L212.49, 105.00 L212.49, 104.87 L212.49, 104.74 L212.49, 104.62 L212.49, 104.49 L212.49, 104.36 L212.49, 104.23 L212.49, 104.10 L212.49, 103.98 L212.49, 103.85 L212.49, 103.72 L212.49, 103.59 L212.49, 103.46 L212.49, 103.34 L212.49, 103.21 L212.49, 103.08 L212.49, 102.95 L212.49, 102.82 L212.49, 102.70 L212.49, 102.57 L212.49, 102.44 L212.49, 102.31 L212.49, 102.19 L212.49, 102.06 L212.49, 101.93 L212.49, 101.80 L212.49, 101.67 L212.49, 101.55 L212.49, 101.42 L212.49, 101.29 L212.49, 101.16 L212.49, 101.03 L212.49, 100.91 L212.49, 100.78 L212.49, 100.65 L212.49, 100.52 L212.49, 100.39 L212.49, 100.27 L212.49, 100.14 L212.49, 100.01 L212.49, 99.88 L212.49, 99.75 L212.49, 99.63 L212.49, 99.50 L212.49, 99.37 L212.49, 99.24 L212.49, 99.12 L212.49, 98.99 L212.49, 98.86 L212.49, 98.73 L212.49, 98.60 L212.49, 98.48 L212.49, 98.35 L212.49, 98.22 L212.49, 98.09 L212.49, 97.96 L212.49, 97.84 L212.49, 97.71 L212.49, 97.58 L212.49, 97.45 L212.49, 97.32 L212.49, 97.20 L212.49, 97.07 L212.49, 96.94 L212.49, 96.81 L212.49, 96.68 L212.49, 96.56 L212.49, 96.43 L212.49, 96.30 L212.49, 96.17 L212.49, 96.04 L212.49, 95.92 L212.49, 95.79 L212.49, 95.66 L212.49, 95.53 L212.49, 95.41 L212.49, 95.28 L212.49, 95.15 L212.49, 95.02 L212.49, 94.89 L212.49, 94.77 L212.49, 94.64 L212.49, 94.51 L212.49, 94.38 L212.49, 94.25 L212.49, 94.13 L212.49, 94.00 L212.49, 93.87 L212.49, 93.74 L212.49, 93.61 L212.49, 93.49 L212.49, 93.36 L212.49, 93.23 L212.49, 93.10 L212.49, 92.97 L212.49, 92.85 L212.49, 92.72 L212.49, 92.59 L212.49, 92.46 L212.49, 92.34 L212.49, 92.21 L212.49, 92.08 L212.49, 91.95 L212.49, 91.82 L212.49, 91.70 L212.49, 91.57 L212.49, 91.44 L212.49, 91.31 L212.49, 91.18 L212.49, 91.06 L212.49, 90.93 L212.49, 90.80 L212.49, 90.67 L212.49, 90.54 L212.49, 90.42 L212.49, 90.29 L212.49, 90.16 L212.49, 90.03 L212.49, 89.90 L212.49, 89.78 L212.49, 89.65 L212.49, 89.52 L212.49, 89.39 L212.49, 89.26 L212.49, 89.14 L212.49, 89.01 L212.49, 88.88 L212.49, 88.75 L212.49, 88.63 L212.49, 88.50 L212.49, 88.37 L212.49, 88.24 L212.49, 88.11 L212.49, 87.99 L212.49, 87.86 L212.49, 87.73 L212.49, 87.60 L212.49, 87.47 L212.49, 87.35 L212.49, 87.22 L212.49, 87.09 L212.49, 86.96 L212.49, 86.83 L212.49, 86.71 L212.49, 86.58 L212.49, 86.45 L212.49, 86.32 L212.49, 86.19 L212.49, 86.07 L212.49, 85.94 L212.49, 85.81 L212.49, 85.68 L212.49, 85.55 L212.49, 85.43 L212.49, 85.30 L212.49, 85.17 L212.49, 85.04 L212.49, 84.92 L212.49, 84.79 L212.49, 84.66 L212.49, 84.53 L212.49, 84.40 L212.49, 84.28 L212.49, 84.15 L212.49, 84.02 L212.49, 83.89 L212.49, 83.76 L212.49, 83.64 L212.49, 83.51 L212.49, 83.38 L212.49, 83.25 L212.49, 83.12 L212.49, 83.00 L212.49, 82.87 L212.49, 82.74 L212.49, 82.61 L212.49, 82.48 L212.49, 82.36 L212.49, 82.23 L212.49, 82.10 L212.49, 81.97 L212.49, 81.85 L212.49, 81.72 L212.49, 81.59 L212.49, 81.46 L212.49, 81.33 L212.49, 81.21 L212.49, 81.08 L212.49, 80.95 L212.49, 80.82 L212.49, 80.69 L212.49, 80.57 L212.49, 80.44 L212.49, 80.31 L212.49, 80.18 L212.49, 80.05 L212.49, 79.93 L212.49, 79.80 L212.49, 79.67 L212.49, 79.54 L212.49, 79.41 L212.49, 79.29 L212.49, 79.16 L212.49, 79.03 L212.49, 78.90 L212.49, 78.77 L212.49, 78.65 L212.49, 78.52 L212.49, 78.39 L212.49, 78.26 L212.49, 78.14 L212.49, 78.01 L212.49, 77.88 L212.49, 77.75 L212.49, 77.62 L212.49, 77.50 L212.49, 77.37 L212.49, 77.24 L212.49, 77.11 L212.49, 76.98 L212.49, 76.86 L212.49, 76.73 L212.49, 76.60 L212.49, 76.47 L212.49, 76.34 L212.49, 76.22 L212.49, 76.09 L212.49, 75.96 L212.49, 75.83 L212.49, 75.70 L212.49, 75.58 L212.49, 75.45 L212.49, 75.32 L212.49, 75.19 L212.49, 75.07 L212.49, 74.94 L212.49, 74.81 L212.49, 74.68 L212.49, 74.55 L212.49, 74.43 L212.49, 74.30 L212.49, 74.17 L212.49, 74.04" style="stroke-width: 2; stroke: rgb(0, 0, 0); stroke-opacity: 1; stroke-dasharray: 2.25, 3.685;"/><path d=" M272.90, 127.13 L272.90, 127.00 L272.90, 126.88 L272.90, 126.75 L272.90, 126.63 L272.90, 126.50 L272.90, 126.37 L272.90, 126.25 L272.90, 126.12 L272.90, 126.00 L272.90, 125.87 L272.90, 125.74 L272.90, 125.62 L272.90, 125.49 L272.90, 125.37 L272.90, 125.24 L272.90, 125.11 L272.90, 124.99 L272.90, 124.86 L272.90, 124.74 L272.90, 124.61 L272.90, 124.48 L272.90, 124.36 L272.90, 124.23 L272.90, 124.11 L272.90, 123.98 L272.90, 123.85 L272.90, 123.73 L272.90, 123.60 L272.90, 123.48 L272.90, 123.35 L272.90, 123.22 L272.90, 123.10 L272.90, 122.97 L272.90, 122.85 L272.90, 122.72 L272.90, 122.59 L272.90, 122.47 L272.90, 122.34 L272.90, 122.22 L272.90, 122.09 L272.90, 121.96 L272.90, 121.84 L272.90, 121.71 L272.90, 121.59 L272.90, 121.46 L272.90, 121.33 L272.90, 121.21 L272.90, 121.08 L272.90, 120.96 L272.90, 120.83 L272.90, 120.70 L272.90, 120.58 L272.90, 120.45 L272.90, 120.33 L272.90, 120.20 L272.90, 120.07 L272.90, 119.95 L272.90, 119.82 L272.90, 119.70 L272.90, 119.57 L272.90, 119.44 L272.90, 119.32 L272.90, 119.19 L272.90, 119.07 L272.90, 118.94 L272.90, 118.81 L272.90, 118.69 L272.90, 118.56 L272.90, 118.44 L272.90, 118.31 L272.90, 118.18 L272.90, 118.06 L272.90, 117.93 L272.90, 117.81 L272.90, 117.68 L272.90, 117.55 L272.90, 117.43 L272.90, 117.30 L272.90, 117.18 L272.90, 117.05 L272.90, 116.92 L272.90, 116.80 L272.90, 116.67 L272.90, 116.55 L272.90, 116.42 L272.90, 116.29 L272.90, 116.17 L272.90, 116.04 L272.90, 115.92 L272.90, 115.79 L272.90, 115.66 L272.90, 115.54 L272.90, 115.41 L272.90, 115.29 L272.90, 115.16 L272.90, 115.03 L272.90, 114.91 L272.90, 114.78 L272.90, 114.66 L272.90, 114.53 L272.90, 114.40 L272.90, 114.28 L272.90, 114.15 L272.90, 114.03 L272.90, 113.90 L272.90, 113.77 L272.90, 113.65 L272.90, 113.52 L272.90, 113.40 L272.90, 113.27 L272.90, 113.14 L272.90, 113.02 L272.90, 112.89 L272.90, 112.76 L272.90, 112.64 L272.90, 112.51 L272.90, 112.39 L272.90, 112.26 L272.90, 112.13 L272.90, 112.01 L272.90, 111.88 L272.90, 111.76 L272.90, 111.63 L272.90, 111.50 L272.90, 111.38 L272.90, 111.25 L272.90, 111.13 L272.90, 111.00 L272.90, 110.87 L272.90, 110.75 L272.90, 110.62 L272.90, 110.50 L272.90, 110.37 L272.90, 110.24 L272.90, 110.12 L272.90, 109.99 L272.90, 109.87 L272.90, 109.74 L272.90, 109.61 L272.90, 109.49 L272.90, 109.36 L272.90, 109.24 L272.90, 109.11 L272.90, 108.98 L272.90, 108.86 L272.90, 108.73 L272.90, 108.61 L272.90, 108.48 L272.90, 108.35 L272.90, 108.23 L272.90, 108.10 L272.90, 107.98 L272.90, 107.85 L272.90, 107.72 L272.90, 107.60 L272.90, 107.47 L272.90, 107.35 L272.90, 107.22 L272.90, 107.09 L272.90, 106.97 L272.90, 106.84 L272.90, 106.72 L272.90, 106.59 L272.90, 106.46 L272.90, 106.34 L272.90, 106.21 L272.90, 106.09 L272.90, 105.96 L272.90, 105.83 L272.90, 105.71 L272.90, 105.58 L272.90, 105.46 L272.90, 105.33 L272.90, 105.20 L272.90, 105.08 L272.90, 104.95 L272.90, 104.83 L272.90, 104.70 L272.90, 104.57 L272.90, 104.45 L272.90, 104.32 L272.90, 104.20 L272.90, 104.07 L272.90, 103.94 L272.90, 103.82 L272.90, 103.69 L272.90, 103.57 L272.90, 103.44 L272.90, 103.31 L272.90, 103.19 L272.90, 103.06 L272.90, 102.94 L272.90, 102.81 L272.90, 102.68 L272.90, 102.56 L272.90, 102.43 L272.90, 102.31 L272.90, 102.18 L272.90, 102.05 L272.90, 101.93 L272.90, 101.80 L272.90, 101.68 L272.90, 101.55 L272.90, 101.42 L272.90, 101.30 L272.90, 101.17 L272.90, 101.05 L272.90, 100.92 L272.90, 100.79 L272.90, 100.67 L272.90, 100.54 L272.90, 100.42 L272.90, 100.29 L272.90, 100.16 L272.90, 100.04 L272.90, 99.91 L272.90, 99.79 L272.90, 99.66 L272.90, 99.53 L272.90, 99.41 L272.90, 99.28 L272.90, 99.16 L272.90, 99.03 L272.90, 98.90 L272.90, 98.78 L272.90, 98.65 L272.90, 98.53 L272.90, 98.40 L272.90, 98.27 L272.90, 98.15 L272.90, 98.02 L272.90, 97.90 L272.90, 97.77 L272.90, 97.64 L272.90, 97.52 L272.90, 97.39 L272.90, 97.26 L272.90, 97.14 L272.90, 97.01 L272.90, 96.89 L272.90, 96.76 L272.90, 96.63 L272.90, 96.51 L272.90, 96.38 L272.90, 96.26 L272.90, 96.13 L272.90, 96.00 L272.90, 95.88 L272.90, 95.75 L272.90, 95.63 L272.90, 95.50 L272.90, 95.37 L272.90, 95.25 L272.90, 95.12 L272.90, 95.00 L272.90, 94.87 L272.90, 94.74 L272.90, 94.62 L272.90, 94.49 L272.90, 94.37 L272.90, 94.24 L272.90, 94.11 L272.90, 93.99 L272.90, 93.86 L272.90, 93.74 L272.90, 93.61 L272.90, 93.48 L272.90, 93.36 L272.90, 93.23 L272.90, 93.11 L272.90, 92.98 L272.90, 92.85 L272.90, 92.73 L272.90, 92.60 L272.90, 92.48 L272.90, 92.35 L272.90, 92.22 L272.90, 92.10 L272.90, 91.97 L272.90, 91.85 L272.90, 91.72 L272.90, 91.59 L272.90, 91.47 L272.90, 91.34 L272.90, 91.22 L272.90, 91.09 L272.90, 90.96 L272.90, 90.84 L272.90, 90.71 L272.90, 90.59 L272.90, 90.46 L272.90, 90.33 L272.90, 90.21 L272.90, 90.08 L272.90, 89.96 L272.90, 89.83 L272.90, 89.70 L272.90, 89.58 L272.90, 89.45 L272.90, 89.33 L272.90, 89.20 L272.90, 89.07 L272.90, 88.95 L272.90, 88.82 L272.90, 88.70 L272.90, 88.57 L272.90, 88.44 L272.90, 88.32 L272.90, 88.19 L272.90, 88.07 L272.90, 87.94 L272.90, 87.81 L272.90, 87.69 L272.90, 87.56 L272.90, 87.44 L272.90, 87.31 L272.90, 87.18 L272.90, 87.06 L272.90, 86.93 L272.90, 86.81 L272.90, 86.68 L272.90, 86.55 L272.90, 86.43 L272.90, 86.30 L272.90, 86.18 L272.90, 86.05 L272.90, 85.92 L272.90, 85.80 L272.90, 85.67 L272.90, 85.55 L272.90, 85.42 L272.90, 85.29 L272.90, 85.17 L272.90, 85.04 L272.90, 84.92 L272.90, 84.79 L272.90, 84.66 L272.90, 84.54 L272.90, 84.41 L272.90, 84.29 L272.90, 84.16 L272.90, 84.03 L272.90, 83.91 L272.90, 83.78 L272.90, 83.66 L272.90, 83.53 L272.90, 83.40 L272.90, 83.28 L272.90, 83.15 L272.90, 83.03 L272.90, 82.90 L272.90, 82.77 L272.90, 82.65 L272.90, 82.52 L272.90, 82.40 L272.90, 82.27 L272.90, 82.14 L272.90, 82.02 L272.90, 81.89 L272.90, 81.76 L272.90, 81.64 L272.90, 81.51 L272.90, 81.39 L272.90, 81.26 L272.90, 81.13 L272.90, 81.01 L272.90, 80.88 L272.90, 80.76 L272.90, 80.63 L272.90, 80.50 L272.90, 80.38 L272.90, 80.25 L272.90, 80.13 L272.90, 80.00 L272.90, 79.87 L272.90, 79.75 L272.90, 79.62 L272.90, 79.50 L272.90, 79.37 L272.90, 79.24 L272.90, 79.12 L272.90, 78.99 L272.90, 78.87 L272.90, 78.74 L272.90, 78.61 L272.90, 78.49 L272.90, 78.36 L272.90, 78.24 L272.90, 78.11 L272.90, 77.98 L272.90, 77.86 L272.90, 77.73 L272.90, 77.61 L272.90, 77.48 L272.90, 77.35 L272.90, 77.23 L272.90, 77.10 L272.90, 76.98 L272.90, 76.85 L272.90, 76.72 L272.90, 76.60 L272.90, 76.47 L272.90, 76.35 L272.90, 76.22 L272.90, 76.09 L272.90, 75.97 L272.90, 75.84 L272.90, 75.72 L272.90, 75.59 L272.90, 75.46 L272.90, 75.34 L272.90, 75.21 L272.90, 75.09 L272.90, 74.96 L272.90, 74.83" style="stroke-width: 2; stroke: rgb(0, 0, 0); stroke-opacity: 1; stroke-dasharray: 2.25, 3.685;"/><path d=" M0.00,127.13 L0.50,127.13 L1.00,127.13 L1.50,127.13 L2.00,127.13 L2.50,127.13 L3.00,127.13 L3.50,127.13 L4.00,127.13 L4.51,127.13 L5.01,127.13 L5.51,127.13 L6.01,127.13 L6.51,127.13 L7.01,127.13 L7.51,127.13 L8.01,127.13 L8.51,127.13 L9.01,127.13 L9.51,127.13 L10.01,127.13 L10.51,127.13 L11.01,127.13 L11.51,127.13 L12.01,127.13 L12.51,127.13 L13.02,127.13 L13.52,127.13 L14.02,127.13 L14.52,127.13 L15.02,127.13 L15.52,127.13 L16.02,127.13 L16.52,127.13 L17.02,127.13 L17.52,127.13 L18.02,127.13 L18.52,127.13 L19.02,127.13 L19.52,127.13 L20.02,127.13 L20.52,127.13 L21.02,127.13 L21.53,127.13 L22.03,127.13 L22.53,127.13 L23.03,127.13 L23.53,127.13 L24.03,127.13 L24.53,127.13 L25.03,127.13 L25.53,127.13 L26.03,127.13 L26.53,127.13 L27.03,127.13 L27.53,127.13 L28.03,127.13 L28.53,127.13 L29.03,127.13 L29.53,127.13 L30.03,127.13 L30.54,127.13 L31.04,127.13 L31.54,127.13 L32.04,127.13 L32.54,127.13 L33.04,127.13 L33.54,127.13 L34.04,127.13 L34.54,127.13 L35.04,127.13 L35.54,127.13 L36.04,127.13 L36.54,127.13 L37.04,127.13 L37.54,127.13 L38.04,127.13 L38.54,127.13 L39.05,127.13 L39.55,127.13 L40.05,127.13 L40.55,127.13 L41.05,127.13 L41.55,127.13 L42.05,127.13 L42.55,127.13 L43.05,127.13 L43.55,127.13 L44.05,127.13 L44.55,127.13 L45.05,127.13 L45.55,127.13 L46.05,127.13 L46.55,127.13 L47.05,127.13 L47.56,127.13 L48.06,127.13 L48.56,127.13 L49.06,127.13 L49.56,127.13 L50.06,127.13 L50.56,127.13 L51.06,127.13 L51.56,127.13 L52.06,127.13 L52.56,127.13 L53.06,127.13 L53.56,127.13 L54.06,127.13 L54.56,127.13 L55.06,127.13 L55.56,127.13 L56.07,127.13 L56.57,127.13 L57.07,127.13 L57.57,127.13 L58.07,127.13 L58.57,127.13 L59.07,127.13 L59.57,127.13 L60.07,127.13 L60.57,127.13 L61.07,127.13 L61.57,127.13 L62.07,127.13 L62.57,127.13 L63.07,127.13 L63.57,127.13 L64.07,127.13 L64.58,127.13 L65.08,127.13 L65.58,127.13 L66.08,127.13 L66.58,127.13 L67.08,127.13 L67.58,127.13 L68.08,127.13 L68.58,127.13 L69.08,127.13 L69.58,127.13 L70.08,127.13 L70.58,127.13 L71.08,127.13 L71.58,127.13 L72.08,127.13 L72.58,127.13 L73.08,127.13 L73.59,127.13 L74.09,127.13 L74.59,127.13 L75.09,127.13 L75.59,127.13 L76.09,127.13 L76.59,127.13 L77.09,127.13 L77.59,127.13 L78.09,127.13 L78.59,127.13 L79.09,127.13 L79.59,127.13 L80.09,127.13 L80.59,127.13 L81.09,127.13 L81.59,127.13 L82.10,127.13 L82.60,127.13 L83.10,127.13 L83.60,127.13 L84.10,127.13 L84.60,127.13 L85.10,127.13 L85.60,127.13 L86.10,127.13 L86.60,127.13 L87.10,127.13 L87.60,127.13 L88.10,127.13 L88.60,127.13 L89.10,127.13 L89.60,127.13 L90.10,127.13 L90.61,127.13 L91.11,127.13 L91.61,127.13 L92.11,127.13 L92.61,127.13 L93.11,127.13 L93.61,127.13 L94.11,127.13 L94.61,127.13 L95.11,127.13 L95.61,127.13 L96.11,127.13 L96.61,127.13 L97.11,127.13 L97.61,127.13 L98.11,127.13 L98.61,127.13 L99.12,127.13 L99.62,127.13 L100.12,127.13 L100.62,127.13 L101.12,127.13 L101.62,127.13 L102.12,127.13 L102.62,127.13 L103.12,127.13 L103.62,127.13 L104.12,127.13 L104.62,127.13 L105.12,127.13 L105.62,127.13 L106.12,127.13 L106.62,127.13 L107.12,127.13 L107.63,127.13 L108.13,127.13 L108.63,127.13 L109.13,127.13 L109.63,127.13 L110.13,127.13 L110.63,127.13 L111.13,127.13 L111.63,127.13 L112.13,127.13 L112.63,127.13 L113.13,127.13 L113.63,127.13 L114.13,127.13 L114.63,127.13 L115.13,127.13 L115.63,127.13 L116.14,127.13 L116.64,127.13 L117.14,127.13 L117.64,127.13 L118.14,127.13 L118.64,127.13 L119.14,127.13 L119.64,127.13 L120.14,127.13 L120.64,127.13 L121.14,127.13 L121.64,127.13 L122.14,127.13 L122.64,127.13 L123.14,127.13 L123.64,127.13 L124.14,127.13 L124.64,127.13 L125.15,127.13 L125.65,127.13 L126.15,127.13 L126.65,127.13 L127.15,127.13 L127.65,127.13 L128.15,127.13 L128.65,127.13 L129.15,127.13 L129.65,127.13 L130.15,127.13 L130.65,127.13 L131.15,127.13 L131.65,127.13 L132.15,127.13 L132.65,127.13 L133.15,127.13 L133.66,127.13 L134.16,127.13 L134.66,127.13 L135.16,127.12 L135.66,127.12 L136.16,127.12 L136.66,127.12 L137.16,127.12 L137.66,127.12 L138.16,127.12 L138.66,127.12 L139.16,127.12 L139.66,127.12 L140.16,127.12 L140.66,127.12 L141.16,127.12 L141.66,127.12 L142.17,127.12 L142.67,127.11 L143.17,127.11 L143.67,127.11 L144.17,127.11 L144.67,127.11 L145.17,127.11 L145.67,127.11 L146.17,127.11 L146.67,127.10 L147.17,127.10 L147.67,127.10 L148.17,127.10 L148.67,127.10 L149.17,127.10 L149.67,127.09 L150.17,127.09 L150.68,127.09 L151.18,127.09 L151.68,127.08 L152.18,127.08 L152.68,127.08 L153.18,127.07 L153.68,127.07 L154.18,127.07 L154.68,127.06 L155.18,127.06 L155.68,127.06 L156.18,127.05 L156.68,127.05 L157.18,127.04 L157.68,127.04 L158.18,127.03 L158.68,127.03 L159.19,127.02 L159.69,127.01 L160.19,127.01 L160.69,127.00 L161.19,126.99 L161.69,126.99 L162.19,126.98 L162.69,126.97 L163.19,126.96 L163.69,126.95 L164.19,126.94 L164.69,126.93 L165.19,126.92 L165.69,126.91 L166.19,126.90 L166.69,126.89 L167.19,126.88 L167.69,126.86 L168.20,126.85 L168.70,126.84 L169.20,126.82 L169.70,126.80 L170.20,126.79 L170.70,126.77 L171.20,126.75 L171.70,126.73 L172.20,126.71 L172.70,126.69 L173.20,126.67 L173.70,126.65 L174.20,126.63 L174.70,126.60 L175.20,126.58 L175.70,126.55 L176.20,126.52 L176.71,126.49 L177.21,126.47 L177.71,126.43 L178.21,126.40 L178.71,126.37 L179.21,126.33 L179.71,126.30 L180.21,126.26 L180.71,126.22 L181.21,126.18 L181.71,126.14 L182.21,126.09 L182.71,126.05 L183.21,126.00 L183.71,125.95 L184.21,125.90 L184.71,125.84 L185.22,125.79 L185.72,125.73 L186.22,125.67 L186.72,125.61 L187.22,125.55 L187.72,125.48 L188.22,125.41 L188.72,125.34 L189.22,125.27 L189.72,125.19 L190.22,125.11 L190.72,125.03 L191.22,124.95 L191.72,124.86 L192.22,124.77 L192.72,124.68 L193.22,124.59 L193.73,124.49 L194.23,124.39 L194.73,124.28 L195.23,124.17 L195.73,124.06 L196.23,123.95 L196.73,123.83 L197.23,123.71 L197.73,123.58 L198.23,123.45 L198.73,123.32 L199.23,123.18 L199.73,123.04 L200.23,122.89 L200.73,122.75 L201.23,122.59 L201.73,122.43 L202.24,122.27 L202.74,122.11 L203.24,121.94 L203.74,121.76 L204.24,121.58 L204.74,121.40 L205.24,121.21 L205.74,121.01 L206.24,120.81 L206.74,120.61 L207.24,120.40 L207.74,120.19 L208.24,119.97 L208.74,119.75 L209.24,119.52 L209.74,119.28 L210.24,119.04 L210.75,118.80 L211.25,118.55 L211.75,118.29 L212.25,118.03 L212.75,117.77 L213.25,117.49 L213.75,117.22 L214.25,116.93 L214.75,116.64 L215.25,116.35 L215.75,116.05 L216.25,115.74 L216.75,115.43 L217.25,115.12 L217.75,114.79 L218.25,114.47 L218.75,114.13 L219.25,113.79 L219.76,113.45 L220.26,113.10 L220.76,112.74 L221.26,112.38 L221.76,112.02 L222.26,111.64 L222.76,111.27 L223.26,110.88 L223.76,110.49 L224.26,110.10 L224.76,109.70 L225.26,109.30 L225.76,108.89 L226.26,108.48 L226.76,108.06 L227.26,107.64 L227.76,107.21 L228.27,106.78 L228.77,106.34 L229.27,105.90 L229.77,105.46 L230.27,105.01 L230.77,104.55 L231.27,104.10 L231.77,103.64 L232.27,103.17 L232.77,102.71 L233.27,102.24 L233.77,101.76 L234.27,101.29 L234.77,100.81 L235.27,100.33 L235.77,99.85 L236.27,99.36 L236.78,98.87 L237.28,98.39 L237.78,97.90 L238.28,97.40 L238.78,96.91 L239.28,96.42 L239.78,95.93 L240.28,95.43 L240.78,94.94 L241.28,94.44 L241.78,93.95 L242.28,93.46 L242.78,92.96 L243.28,92.47 L243.78,91.98 L244.28,91.49 L244.78,91.01 L245.29,90.52 L245.79,90.04 L246.29,89.56 L246.79,89.09 L247.29,88.61 L247.79,88.14 L248.29,87.68 L248.79,87.21 L249.29,86.76 L249.79,86.30 L250.29,85.86 L250.79,85.41 L251.29,84.97 L251.79,84.54 L252.29,84.11 L252.79,83.69 L253.29,83.28 L253.80,82.87 L254.30,82.47 L254.80,82.08 L255.30,81.69 L255.80,81.31 L256.30,80.94 L256.80,80.58 L257.30,80.23 L257.80,79.88 L258.30,79.54 L258.80,79.22 L259.30,78.90 L259.80,78.59 L260.30,78.29 L260.80,78.00 L261.30,77.72 L261.80,77.45 L262.31,77.20 L262.81,76.95 L263.31,76.71 L263.81,76.49 L264.31,76.27 L264.81,76.07 L265.31,75.88 L265.81,75.70 L266.31,75.53 L266.81,75.37 L267.31,75.23 L267.81,75.09 L268.31,74.97 L268.81,74.86 L269.31,74.77 L269.81,74.69 L270.31,74.61 L270.81,74.56 L271.32,74.51 L271.82,74.48 L272.32,74.45 L272.82,74.45 L273.32,74.45 L273.82,74.47 L274.32,74.50 L274.82,74.54 L275.32,74.59 L275.82,74.66 L276.32,74.74 L276.82,74.83 L277.32,74.93 L277.82,75.05 L278.32,75.18 L278.82,75.32 L279.32,75.47 L279.83,75.64 L280.33,75.81 L280.83,76.00 L281.33,76.20 L281.83,76.41 L282.33,76.63 L282.83,76.87 L283.33,77.11 L283.83,77.36 L284.33,77.63 L284.83,77.90 L285.33,78.19 L285.83,78.49 L286.33,78.79 L286.83,79.11 L287.33,79.43 L287.83,79.76 L288.34,80.11 L288.84,80.46 L289.34,80.82 L289.84,81.18 L290.34,81.56 L290.84,81.94 L291.34,82.33 L291.84,82.73 L292.34,83.14 L292.84,83.55 L293.34,83.97 L293.84,84.39 L294.34,84.82 L294.84,85.26 L295.34,85.70 L295.84,86.15 L296.34,86.60 L296.85,87.06 L297.35,87.52 L297.85,87.98 L298.35,88.45 L298.85,88.92 L299.35,89.40 L299.85,89.88 L300.35,90.36 L300.85,90.84 L301.35,91.33 L301.85,91.81 L302.35,92.30 L302.85,92.79 L303.35,93.29 L303.85,93.78 L304.35,94.27 L304.85,94.77 L305.36,95.26 L305.86,95.75 L306.36,96.25 L306.86,96.74 L307.36,97.23 L307.86,97.73 L308.36,98.22 L308.86,98.71 L309.36,99.19 L309.86,99.68 L310.36,100.16 L310.86,100.64 L311.36,101.12 L311.86,101.60 L312.36,102.07 L312.86,102.55 L313.36,103.01 L313.86,103.48 L314.37,103.94 L314.87,104.40 L315.37,104.85 L315.87,105.30 L316.37,105.75 L316.87,106.19 L317.37,106.63 L317.87,107.06 L318.37,107.49 L318.87,107.91 L319.37,108.33 L319.87,108.75 L320.37,109.16 L320.87,109.56 L321.37,109.96 L321.87,110.36 L322.37,110.75 L322.88,111.13 L323.38,111.51 L323.88,111.89 L324.38,112.26 L324.88,112.62 L325.38,112.98 L325.88,113.33 L326.38,113.68 L326.88,114.02 L327.38,114.35 L327.88,114.68 L328.38,115.01 L328.88,115.32 L329.38,115.64 L329.88,115.95 L330.38,116.25 L330.88,116.54 L331.39,116.83 L331.89,117.12 L332.39,117.40 L332.89,117.67 L333.39,117.94 L333.89,118.20 L334.39,118.46 L334.89,118.71 L335.39,118.96 L335.89,119.20 L336.39,119.44 L336.89,119.67 L337.39,119.89 L337.89,120.11 L338.39,120.33 L338.89,120.54 L339.39,120.74 L339.90,120.95 L340.40,121.14 L340.90,121.33 L341.40,121.52 L341.90,121.70 L342.40,121.88 L342.90,122.05 L343.40,122.22 L343.90,122.38 L344.40,122.54 L344.90,122.69 L345.40,122.84 L345.90,122.99 L346.40,123.13 L346.90,123.27 L347.40,123.41 L347.90,123.54 L348.41,123.66 L348.91,123.79 L349.41,123.91 L349.91,124.02 L350.41,124.14 L350.91,124.24 L351.41,124.35 L351.91,124.45 L352.41,124.55 L352.91,124.65 L353.41,124.74 L353.91,124.83 L354.41,124.92 L354.91,125.00 L355.41,125.09 L355.91,125.17 L356.41,125.24 L356.92,125.32 L357.42,125.39 L357.92,125.46 L358.42,125.52 L358.92,125.59 L359.42,125.65 L359.92,125.71 L360.42,125.77 L360.92,125.83 L361.42,125.88 L361.92,125.93 L362.42,125.98 L362.92,126.03 L363.42,126.08 L363.92,126.12 L364.42,126.16 L364.92,126.21 L365.42,126.25 L365.93,126.28 L366.43,126.32 L366.93,126.36 L367.43,126.39 L367.93,126.42 L368.43,126.45 L368.93,126.48 L369.43,126.51 L369.93,126.54 L370.43,126.57 L370.93,126.59 L371.43,126.62 L371.93,126.64 L372.43,126.67 L372.93,126.69 L373.43,126.71 L373.93,126.73 L374.44,126.75 L374.94,126.76 L375.44,126.78 L375.94,126.80 L376.44,126.81 L376.94,126.83 L377.44,126.84 L377.94,126.86 L378.44,126.87 L378.94,126.88 L379.44,126.90 L379.94,126.91 L380.44,126.92 L380.94,126.93 L381.44,126.94 L381.94,126.95 L382.44,126.96 L382.95,126.97 L383.45,126.98 L383.95,126.98 L384.45,126.99 L384.95,127.00 L385.45,127.01 L385.95,127.01 L386.45,127.02 L386.95,127.02 L387.45,127.03 L387.95,127.04 L388.45,127.04 L388.95,127.05 L389.45,127.05 L389.95,127.05 L390.45,127.06 L390.95,127.06 L391.46,127.07 L391.96,127.07 L392.46,127.07 L392.96,127.08 L393.46,127.08 L393.96,127.08 L394.46,127.09 L394.96,127.09 L395.46,127.09 L395.96,127.09 L396.46,127.09 L396.96,127.10 L397.46,127.10 L397.96,127.10 L398.46,127.10 L398.96,127.10 L399.46,127.11 L399.97,127.11 L400.47,127.11 L400.97,127.11 L401.47,127.11 L401.97,127.11 L402.47,127.11 L402.97,127.11 L403.47,127.12 L403.97,127.12 L404.47,127.12 L404.97,127.12 L405.47,127.12 L405.97,127.12 L406.47,127.12 L406.97,127.12 L407.47,127.12 L407.97,127.12 L408.47,127.12 L408.98,127.12 L409.48,127.12 L409.98,127.12 L410.48,127.12 L410.98,127.12 L411.48,127.13 L411.98,127.13 L412.48,127.13 L412.98,127.13 L413.48,127.13 L413.98,127.13 L414.48,127.13 L414.98,127.13 L415.48,127.13 L415.98,127.13 L416.48,127.13 L416.98,127.13 L417.49,127.13 L417.99,127.13 L418.49,127.13 L418.99,127.13 L419.49,127.13 L419.99,127.13 L420.49,127.13 L420.99,127.13 L421.49,127.13 L421.99,127.13 L422.49,127.13 L422.99,127.13 L423.49,127.13 L423.99,127.13 L424.49,127.13 L424.99,127.13 L425.49,127.13 L426.00,127.13 L426.50,127.13 L427.00,127.13 L427.50,127.13 L428.00,127.13 L428.50,127.13 L429.00,127.13 L429.50,127.13 L430.00,127.13" style="stroke-width: 3; stroke: rgb(0, 0, 0); stroke-opacity: 1;"/><g><circle cx="126.18012407932086" cy="127.13080557173903" r="4" style="stroke-width: 2; stroke: rgb(0, 0, 0); stroke-opacity: 0.1; fill: rgb(255, 142, 0); fill-opacity: 1;"/><circle cx="131.57437174846635" cy="127.13080557173903" r="4" style="stroke-width: 2; stroke: rgb(0, 0, 0); stroke-opacity: 0.1; fill: rgb(255, 142, 0); fill-opacity: 1;"/><circle cx="136.96861941761185" cy="127.13080557173903" r="4" style="stroke-width: 2; stroke: rgb(0, 0, 0); stroke-opacity: 0.1; fill: rgb(255, 142, 0); fill-opacity: 1;"/><circle cx="128.33782314697908" cy="127.13080557173903" r="4" style="stroke-width: 2; stroke: rgb(0, 0, 0); stroke-opacity: 0.1; fill: rgb(255, 142, 0); fill-opacity: 1;"/><circle cx="140.20516801909915" cy="127.13080557173903" r="4" style="stroke-width: 2; stroke: rgb(0, 0, 0); stroke-opacity: 0.1; fill: rgb(255, 142, 0); fill-opacity: 1;"/><circle cx="147.75711475590285" cy="127.13080557173903" r="4" style="stroke-width: 2; stroke: rgb(0, 0, 0); stroke-opacity: 0.1; fill: rgb(255, 142, 0); fill-opacity: 1;"/></g><g><circle cx="212.48808678564882" cy="127.13080557173903" r="4" style="stroke-width: 3; stroke: rgb(0, 0, 0); stroke-opacity: 0.11; fill: rgb(60, 180, 75); fill-opacity: 1;"/><circle cx="217.88233445479432" cy="127.13080557173903" r="4" style="stroke-width: 3; stroke: rgb(0, 0, 0); stroke-opacity: 0.11; fill: rgb(60, 180, 75); fill-opacity: 1;"/><circle cx="206.01498958267425" cy="127.13080557173903" r="4" style="stroke-width: 3; stroke: rgb(0, 0, 0); stroke-opacity: 0.11; fill: rgb(60, 180, 75); fill-opacity: 1;"/><circle cx="201.69959144735782" cy="127.13080557173903" r="4" style="stroke-width: 3; stroke: rgb(0, 0, 0); stroke-opacity: 0.11; fill: rgb(60, 180, 75); fill-opacity: 1;"/><circle cx="197.38419331204145" cy="127.13080557173903" r="4" style="stroke-width: 3; stroke: rgb(0, 0, 0); stroke-opacity: 0.11; fill: rgb(60, 180, 75); fill-opacity: 1;"/></g><g><circle cx="266.4305634771038" cy="127.13080557173903" r="4" style="stroke-width: 3; stroke: rgb(0, 0, 0); stroke-opacity: 0.1; fill: rgb(255, 142, 0); fill-opacity: 1;"/><circle cx="264.2728644094456" cy="127.13080557173903" r="4" style="stroke-width: 3; stroke: rgb(0, 0, 0); stroke-opacity: 0.1; fill: rgb(255, 142, 0); fill-opacity: 1;"/><circle cx="271.8248111462493" cy="127.13080557173903" r="4" style="stroke-width: 3; stroke: rgb(0, 0, 0); stroke-opacity: 0.1; fill: rgb(255, 142, 0); fill-opacity: 1;"/><circle cx="277.2190588153948" cy="127.13080557173903" r="4" style="stroke-width: 3; stroke: rgb(0, 0, 0); stroke-opacity: 0.1; fill: rgb(255, 142, 0); fill-opacity: 1;"/><circle cx="255.6420681388128" cy="127.13080557173903" r="4" style="stroke-width: 3; stroke: rgb(0, 0, 0); stroke-opacity: 0.1; fill: rgb(255, 142, 0); fill-opacity: 1;"/><circle cx="259.41804150721464" cy="127.13080557173903" r="4" style="stroke-width: 3; stroke: rgb(0, 0, 0); stroke-opacity: 0.1; fill: rgb(255, 142, 0); fill-opacity: 1;"/><circle cx="285.8498550860276" cy="127.13080557173903" r="4" style="stroke-width: 3; stroke: rgb(0, 0, 0); stroke-opacity: 0.1; fill: rgb(255, 142, 0); fill-opacity: 1;"/></g></g></g><g class="test-xtl" style="font-family: &quot;Open Sans&quot;, verdana, arial, sans-serif;"><text text-anchor="middle" font-size="11" dominant-baseline="hanging" stroke="none" fill="rgb(50,50,50)" fill-opacity="1" x="47.52565671128389" y="135.13080557173902">-5</text><text text-anchor="middle" font-size="11" dominant-baseline="hanging" stroke="none" fill="rgb(50,50,50)" fill-opacity="1" x="158.54561009419385" y="135.13080557173902">5</text><text text-anchor="middle" font-size="11" dominant-baseline="hanging" stroke="none" fill="rgb(50,50,50)" fill-opacity="1" x="212.4880867856488" y="135.13080557173902">10</text><text text-anchor="middle" font-size="11" dominant-baseline="hanging" stroke="none" fill="rgb(50,50,50)" fill-opacity="1" x="266.43056347710376" y="135.13080557173902">15</text><text text-anchor="middle" font-size="11" dominant-baseline="hanging" stroke="none" fill="rgb(50,50,50)" fill-opacity="1" x="320.37304016855876" y="135.13080557173902">20</text><text text-anchor="middle" font-size="11" dominant-baseline="hanging" stroke="none" fill="rgb(50,50,50)" fill-opacity="1" x="374.3155168600137" y="135.13080557173902">25</text><text text-anchor="middle" font-size="11" dominant-baseline="hanging" stroke="none" fill="rgb(50,50,50)" fill-opacity="1" x="428.2579935514687" y="135.13080557173902">30</text><text text-anchor="middle" font-size="11" dominant-baseline="hanging" stroke="none" fill="rgb(50,50,50)" fill-opacity="1" x="95.60313340273886" y="133.13080557173902">0</text></g><rect class="real" x="1" y="1" width="428" height="206" style="fill: transparent; stroke: none;"/></g></g></g><g/></g><g/><g/><g/></svg>
        <svg xmlns="http://www.w3.org/2000/svg" xmlns:xlink="http://www.w3.org/1999/xlink" width="660" height="300" style="width:660px;height:300px;font-family:Asana-Math, Asana;background:#FFF;"><g><g><g><g transform="matrix(1,0,0,1,189.66668701171875,35)"><path transform="matrix(0.018,0,0,-0.018,0,0)" d="M91 55C91 30 89 0 136 0L169 0C211 0 214 27 214 46L214 569C222 536 235 504 271 410L375 153C418 49 418 22 477 22L497 22C526 22 546 25 567 75C614 189 752 524 762 569C762 560 763 550 763 541L763 52C763 32 761 0 808 0L840 0C881 0 886 23 886 48L886 648C886 666 883 694 841 694L752 694C703 694 694 668 683 642C511 222 491 167 486 148C467 208 287 650 277 666C260 693 236 694 218 694L136 694C110 694 91 685 91 650ZM1034 626C1034 586 1057 580 1080 580L1132 580C1141 581 1176 579 1176 624L1176 676C1176 716 1153 722 1130 722L1079 722C1060 721 1034 722 1034 676ZM1038 50C1038 33 1037 0 1082 0L1128 0C1173 0 1172 33 1172 45L1172 408C1172 434 1170 458 1123 458L1082 458C1037 458 1038 425 1038 413ZM1258 22C1258 1 1278 0 1289 0L1338 0C1376 0 1369 0 1479 164C1593 1 1586 0 1625 0L1676 0C1703 0 1706 16 1706 22C1706 30 1702 36 1697 42C1665 81 1551 217 1534 236C1547 254 1562 272 1677 413C1685 423 1688 431 1688 438C1688 451 1675 458 1659 458L1610 458C1571 458 1576 457 1479 327C1379 454 1384 458 1343 458L1294 458C1278 458 1265 451 1265 438C1265 431 1268 423 1276 413C1395 272 1410 255 1424 236C1407 217 1392 197 1376 177C1257 30 1258 34 1258 22ZM1754 422C1754 411 1758 385 1798 385L1819 385L1819 152C1819 121 1819 91 1828 61C1845 6 1883 -11 1923 -11C1997 -11 2105 21 2105 47C2105 47 2097 102 2082 102C2069 102 2039 67 1992 67C1964 67 1950 85 1950 159C1950 168 1951 176 1951 185L1951 385L2044 385C2082 386 2087 411 2087 421C2087 430 2082 458 2042 458L1951 458L1951 544C1951 568 1941 589 1906 589L1870 589C1853 589 1822 588 1822 544L1822 458L1798 458C1758 458 1754 433 1754 422ZM2196 139C2196 68 2202 -11 2356 -11C2411 -11 2455 -3 2504 44C2504 37 2502 0 2545 0L2592 0C2618 0 2637 8 2637 43L2637 416C2636 451 2617 458 2592 458L2548 458C2536 458 2524 457 2514 449C2503 437 2501 436 2501 406L2501 181C2501 72 2435 50 2396 50C2338 50 2332 67 2332 123C2332 131 2333 139 2333 147L2333 413C2332 430 2333 458 2286 458L2240 458C2195 458 2196 424 2196 414ZM2758 43C2758 24 2762 0 2803 0L2846 0C2863 0 2864 1 2874 6C2890 19 2892 22 2892 50L2892 225C2892 238 2892 250 2895 263C2905 308 2943 343 2986 358C3019 369 3037 364 3049 373C3053 379 3054 380 3054 391L3054 447C3054 461 3052 469 3034 469L3033 469C3015 469 2940 462 2887 388C2886 438 2886 439 2877 450C2866 461 2862 463 2837 463L2804 463C2783 463 2758 461 2758 418ZM3100 233C3100 74 3187 -11 3354 -11C3423 -11 3485 9 3527 33C3539 40 3543 44 3543 55C3543 55 3543 114 3532 125L3527 127L3523 127C3503 121 3456 62 3356 62C3254 62 3231 136 3229 214L3505 214C3523 214 3549 216 3549 257C3549 364 3507 475 3340 475C3196 475 3100 401 3100 233ZM3230 279C3236 341 3260 402 3340 402C3418 402 3434 346 3437 279ZM3978 224C3978 36 4094 -11 4223 -11C4346 -11 4466 35 4466 220C4466 465 4304 475 4207 475C4094 475 3978 424 3978 224ZM4115 214L4115 241C4115 310 4113 402 4221 402C4328 402 4328 313 4329 255L4329 228C4328 161 4331 67 4222 67C4118 67 4117 155 4115 214ZM4529 422C4529 412 4532 385 4572 385L4584 385L4584 46C4584 31 4583 0 4628 0L4670 0C4717 0 4717 27 4717 52L4717 385L4767 385C4807 385 4812 411 4812 422C4812 437 4802 458 4769 458L4714 458L4714 580C4714 613 4714 660 4781 660C4837 660 4852 623 4867 623C4879 623 4879 639 4879 648L4879 709L4877 714L4874 718C4860 728 4815 733 4779 733L4777 733C4622 732 4584 644 4584 546L4584 458L4574 458C4533 458 4529 433 4529 422ZM5261 348C5261 52 5441 -22 5625 -22C5713 -22 5785 -3 5845 24C5858 31 5860 37 5860 49L5860 302C5860 319 5853 322 5840 323L5652 323C5637 323 5627 323 5627 300L5627 250C5628 230 5637 228 5649 228L5723 228L5723 89C5695 84 5667 78 5629 78C5448 78 5403 203 5403 344C5403 469 5432 616 5627 616C5759 616 5792 544 5818 537L5823 538C5828 542 5830 542 5835 567C5844 619 5849 645 5849 654C5849 663 5844 667 5826 675C5762 705 5701 717 5627 717C5370 717 5261 577 5261 348ZM5964 137C5964 69 6014 -11 6110 -11C6192 -11 6242 23 6264 40C6264 23 6273 0 6305 0L6353 0C6393 0 6398 23 6398 45L6398 308C6398 408 6352 475 6191 475C6128 475 6079 463 6034 443C6012 432 6006 433 6006 417C6006 417 6009 352 6016 340L6020 337L6024 336C6046 337 6076 405 6191 405C6254 405 6262 359 6262 312L6262 291C6173 290 5964 273 5964 137ZM6095 137C6095 215 6201 227 6262 232L6262 154C6262 80 6197 62 6164 62C6121 62 6095 101 6095 137ZM6518 139C6518 68 6524 -11 6678 -11C6733 -11 6777 -3 6826 44C6826 37 6824 0 6867 0L6914 0C6940 0 6959 8 6959 43L6959 416C6958 451 6939 458 6914 458L6870 458C6858 458 6846 457 6836 449C6825 437 6823 436 6823 406L6823 181C6823 72 6757 50 6718 50C6660 50 6654 67 6654 123C6654 131 6655 139 6655 147L6655 413C6654 430 6655 458 6608 458L6562 458C6517 458 6518 424 6518 414ZM7051 50C7051 47 7052 45 7053 42L7057 37C7082 21 7147 -11 7236 -11C7335 -11 7416 19 7416 140C7416 221 7356 261 7328 275C7266 307 7155 295 7155 354C7155 392 7188 402 7229 402C7326 402 7353 348 7374 348C7379 348 7383 352 7386 363C7392 397 7396 415 7396 426C7396 440 7390 443 7372 450C7335 465 7297 474 7250 475L7224 475C7140 473 7056 446 7056 331C7056 250 7123 210 7160 196C7217 175 7316 183 7316 121C7316 79 7283 68 7238 68C7131 68 7095 143 7077 143C7065 143 7064 127 7063 120C7055 76 7051 59 7051 50ZM7473 50C7473 47 7474 45 7475 42L7479 37C7504 21 7569 -11 7658 -11C7757 -11 7838 19 7838 140C7838 221 7778 261 7750 275C7688 307 7577 295 7577 354C7577 392 7610 402 7651 402C7748 402 7775 348 7796 348C7801 348 7805 352 7808 363C7814 397 7818 415 7818 426C7818 440 7812 443 7794 450C7757 465 7719 474 7672 475L7646 475C7562 473 7478 446 7478 331C7478 250 7545 210 7582 196C7639 175 7738 183 7738 121C7738 79 7705 68 7660 68C7553 68 7517 143 7499 143C7487 143 7486 127 7485 120C7477 76 7473 59 7473 50ZM7920 626C7920 586 7943 580 7966 580L8018 580C8027 581 8062 579 8062 624L8062 676C8062 716 8039 722 8016 722L7965 722C7946 721 7920 722 7920 676ZM7924 50C7924 33 7923 0 7968 0L8014 0C8059 0 8058 33 8058 45L8058 408C8058 434 8056 458 8009 458L7968 458C7923 458 7924 425 7924 413ZM8149 137C8149 69 8199 -11 8295 -11C8377 -11 8427 23 8449 40C8449 23 8458 0 8490 0L8538 0C8578 0 8583 23 8583 45L8583 308C8583 408 8537 475 8376 475C8313 475 8264 463 8219 443C8197 432 8191 433 8191 417C8191 417 8194 352 8201 340L8205 337L8209 336C8231 337 8261 405 8376 405C8439 405 8447 359 8447 312L8447 291C8358 290 8149 273 8149 137ZM8280 137C8280 215 8386 227 8447 232L8447 154C8447 80 8382 62 8349 62C8306 62 8280 101 8280 137ZM8703 45C8703 6 8727 0 8750 0L8794 0C8840 0 8840 53 8840 53L8840 261C8840 279 8841 297 8846 315C8855 346 8887 396 8949 396C9008 396 9008 355 9008 318L9008 44C9008 19 9015 0 9054 0L9101 0C9142 0 9144 28 9144 44L9144 308C9144 380 9144 469 8996 469C8915 469 8869 435 8834 400L8834 420C8834 463 8806 463 8788 463L8748 463C8729 463 8703 460 8703 418ZM9663 45C9663 6 9684 0 9709 0L9956 0C10073 0 10304 15 10304 341C10304 648 10121 694 9945 694L9705 694C9661 694 9663 658 9663 646ZM9802 86L9802 579L9803 608L9948 608C10157 600 10165 459 10165 332L10165 321C10164 268 10159 212 10129 166C10078 90 9990 86 9913 86ZM10422 626C10422 586 10445 580 10468 580L10520 580C10529 581 10564 579 10564 624L10564 676C10564 716 10541 722 10518 722L10467 722C10448 721 10422 722 10422 676ZM10426 50C10426 33 10425 0 10470 0L10516 0C10561 0 10560 33 10560 45L10560 408C10560 434 10558 458 10511 458L10470 458C10425 458 10426 425 10426 413ZM10652 50C10652 47 10653 45 10654 42L10658 37C10683 21 10748 -11 10837 -11C10936 -11 11017 19 11017 140C11017 221 10957 261 10929 275C10867 307 10756 295 10756 354C10756 392 10789 402 10830 402C10927 402 10954 348 10975 348C10980 348 10984 352 10987 363C10993 397 10997 415 10997 426C10997 440 10991 443 10973 450C10936 465 10898 474 10851 475L10825 475C10741 473 10657 446 10657 331C10657 250 10724 210 10761 196C10818 175 10917 183 10917 121C10917 79 10884 68 10839 68C10732 68 10696 143 10678 143C10666 143 10665 127 10664 120C10656 76 10652 59 10652 50ZM11064 422C11064 411 11068 385 11108 385L11129 385L11129 152C11129 121 11129 91 11138 61C11155 6 11193 -11 11233 -11C11307 -11 11415 21 11415 47C11415 47 11407 102 11392 102C11379 102 11349 67 11302 67C11274 67 11260 85 11260 159C11260 168 11261 176 11261 185L11261 385L11354 385C11392 386 11397 411 11397 421C11397 430 11392 458 11352 458L11261 458L11261 544C11261 568 11251 589 11216 589L11180 589C11163 589 11132 588 11132 544L11132 458L11108 458C11068 458 11064 433 11064 422ZM11507 43C11507 24 11511 0 11552 0L11595 0C11612 0 11613 1 11623 6C11639 19 11641 22 11641 50L11641 225C11641 238 11641 250 11644 263C11654 308 11692 343 11735 358C11768 369 11786 364 11798 373C11802 379 11803 380 11803 391L11803 447C11803 461 11801 469 11783 469L11782 469C11764 469 11689 462 11636 388C11635 438 11635 439 11626 450C11615 461 11611 463 11586 463L11553 463C11532 463 11507 461 11507 418ZM11875 626C11875 586 11898 580 11921 580L11973 580C11982 581 12017 579 12017 624L12017 676C12017 716 11994 722 11971 722L11920 722C11901 721 11875 722 11875 676ZM11879 50C11879 33 11878 0 11923 0L11969 0C12014 0 12013 33 12013 45L12013 408C12013 434 12011 458 11964 458L11923 458C11878 458 11879 425 11879 413ZM12134 46C12134 21 12141 0 12180 0L12226 0C12251 0 12260 6 12270 27C12299 5 12335 -11 12383 -11C12485 -11 12596 35 12597 224C12597 246 12597 292 12586 334C12561 427 12495 469 12407 469C12350 469 12306 453 12268 429L12268 678C12268 702 12259 722 12224 722L12180 722C12141 722 12134 702 12134 676ZM12271 101L12271 362C12296 383 12322 397 12360 397C12458 397 12460 311 12460 234C12460 165 12465 62 12349 62C12302 62 12282 89 12271 101ZM12694 139C12694 68 12700 -11 12854 -11C12909 -11 12953 -3 13002 44C13002 37 13000 0 13043 0L13090 0C13116 0 13135 8 13135 43L13135 416C13134 451 13115 458 13090 458L13046 458C13034 458 13022 457 13012 449C13001 437 12999 436 12999 406L12999 181C12999 72 12933 50 12894 50C12836 50 12830 67 12830 123C12830 131 12831 139 12831 147L12831 413C12830 430 12831 458 12784 458L12738 458C12693 458 12694 424 12694 414ZM13217 422C13217 411 13221 385 13261 385L13282 385L13282 152C13282 121 13282 91 13291 61C13308 6 13346 -11 13386 -11C13460 -11 13568 21 13568 47C13568 47 13560 102 13545 102C13532 102 13502 67 13455 67C13427 67 13413 85 13413 159C13413 168 13414 176 13414 185L13414 385L13507 385C13545 386 13550 411 13550 421C13550 430 13545 458 13505 458L13414 458L13414 544C13414 568 13404 589 13369 589L13333 589C13316 589 13285 588 13285 544L13285 458L13261 458C13221 458 13217 433 13217 422ZM13656 626C13656 586 13679 580 13702 580L13754 580C13763 581 13798 579 13798 624L13798 676C13798 716 13775 722 13752 722L13701 722C13682 721 13656 722 13656 676ZM13660 50C13660 33 13659 0 13704 0L13750 0C13795 0 13794 33 13794 45L13794 408C13794 434 13792 458 13745 458L13704 458C13659 458 13660 425 13660 413ZM13885 224C13885 36 14001 -11 14130 -11C14253 -11 14373 35 14373 220C14373 465 14211 475 14114 475C14001 475 13885 424 13885 224ZM14022 214L14022 241C14022 310 14020 402 14128 402C14235 402 14235 313 14236 255L14236 228C14235 161 14238 67 14129 67C14025 67 14024 155 14022 214ZM14464 45C14464 6 14488 0 14511 0L14555 0C14601 0 14601 53 14601 53L14601 261C14601 279 14602 297 14607 315C14616 346 14648 396 14710 396C14769 396 14769 355 14769 318L14769 44C14769 19 14776 0 14815 0L14862 0C14903 0 14905 28 14905 44L14905 308C14905 380 14905 469 14757 469C14676 469 14630 435 14595 400L14595 420C14595 463 14567 463 14549 463L14509 463C14490 463 14464 460 14464 418ZM14997 50C14997 47 14998 45 14999 42L15003 37C15028 21 15093 -11 15182 -11C15281 -11 15362 19 15362 140C15362 221 15302 261 15274 275C15212 307 15101 295 15101 354C15101 392 15134 402 15175 402C15272 402 15299 348 15320 348C15325 348 15329 352 15332 363C15338 397 15342 415 15342 426C15342 440 15336 443 15318 450C15281 465 15243 474 15196 475L15170 475C15086 473 15002 446 15002 331C15002 250 15069 210 15106 196C15163 175 15262 183 15262 121C15262 79 15229 68 15184 68C15077 68 15041 143 15023 143C15011 143 15010 127 15009 120C15001 76 14997 59 14997 50Z" stroke="rgb(0,0,0)" stroke-opacity="1" stroke-width="8" fill="rgb(0,0,0)" fill-opacity="1"></path></g></g><g><text x="466.65625" y="19" style="white-space:pre;stroke:none;fill:rgb(0,0,0);fill-opacity:1;font-size:18px;font-family:Arial, Helvetica, sans-serif;font-weight:400;font-style:normal;dominant-baseline:text-before-edge;text-decoration:none solid rgb(0, 0, 0);"> </text></g></g></g></svg>
</svg>
