<svg xmlns="http://www.w3.org/2000/svg" xmlns:xlink="http://www.w3.org/1999/xlink" x="0" y="0" width="661.3333740234375" height="301.3333435058594" style="
        width:661.3333740234375px;
        height:301.3333435058594px;
        background: #FFF;
        fill: none;
">
        
        
        <svg xmlns="http://www.w3.org/2000/svg" class="role-diagram-draw-area"><g class="shapes-region" style="stroke: black; fill: none;"><g class="composite-shape" data-amt="diagram/shapes/plot" transform="matrix(1,0,0,1,112,35)"><g><g/><g><g class="test-xti" style="font-family: Asana-Math, Asana;"><line x1="0" y1="212.77372291535636" x2="423" y2="212.77372291535636" fill="none" stroke="rgb(50,50,50)" stroke-opacity="1" stroke-width="1"/><line x1="90.85181013624758" y1="208.77372291535636" x2="90.85181013624758" y2="216.77372291535636" fill="none" stroke="rgb(50,50,50)" stroke-opacity="1" stroke-width="1"/><line x1="139.7918101362476" y1="208.77372291535636" x2="139.7918101362476" y2="216.77372291535636" fill="none" stroke="rgb(50,50,50)" stroke-opacity="1" stroke-width="1"/><line x1="188.7318101362476" y1="208.77372291535636" x2="188.7318101362476" y2="216.77372291535636" fill="none" stroke="rgb(50,50,50)" stroke-opacity="1" stroke-width="1"/><line x1="237.6718101362476" y1="208.77372291535636" x2="237.6718101362476" y2="216.77372291535636" fill="none" stroke="rgb(50,50,50)" stroke-opacity="1" stroke-width="1"/><line x1="286.6118101362476" y1="208.77372291535636" x2="286.6118101362476" y2="216.77372291535636" fill="none" stroke="rgb(50,50,50)" stroke-opacity="1" stroke-width="1"/><line x1="335.5518101362475" y1="208.77372291535636" x2="335.5518101362475" y2="216.77372291535636" fill="none" stroke="rgb(50,50,50)" stroke-opacity="1" stroke-width="1"/><line x1="384.4918101362475" y1="208.77372291535636" x2="384.4918101362475" y2="216.77372291535636" fill="none" stroke="rgb(50,50,50)" stroke-opacity="1" stroke-width="1"/><path d="M418,209.17372291535636 L426,212.77372291535636 L418,216.37372291535635 Z" stroke="none" stroke-width="1" fill="rgb(50,50,50)" fill-opacity="1"/></g><g class="test-yti" style="font-family: Asana-Math, Asana;"><line x1="41.91181013624758" y1="4" x2="41.91181013624758" y2="252" fill="none" stroke="rgb(50,50,50)" stroke-opacity="1" stroke-width="1"/><line x1="37.91181013624758" y1="122.47372291535638" x2="45.91181013624758" y2="122.47372291535638" fill="none" stroke="rgb(50,50,50)" stroke-opacity="1" stroke-width="1"/><line x1="37.91181013624758" y1="32.173722915356365" x2="45.91181013624758" y2="32.173722915356365" fill="none" stroke="rgb(50,50,50)" stroke-opacity="1" stroke-width="1"/><path d="M38.31181013624758,9 L41.91181013624758,1 L45.51181013624758,9 Z" stroke="none" stroke-width="1" fill="rgb(50,50,50)" fill-opacity="1"/></g><g class="test-plot-expression"><defs><clipPath id="cpb9jc7t2ax"><rect x="1" y="1" width="425" height="250"/></clipPath></defs><g clip-path="url(#cpb9jc7t2ax)"><path d=" M41.91,212.77 L42.20,212.77 L42.49,212.77 L42.77,212.77 L43.06,212.77 L43.35,212.77 L43.63,212.77 L43.92,212.77 L44.21,212.77 L44.49,212.77 L44.78,212.77 L45.07,212.77 L45.35,212.77 L45.64,212.77 L45.93,212.77 L46.21,212.77 L46.50,212.77 L46.79,212.77 L47.08,212.77 L47.36,212.77 L47.65,212.77 L47.94,212.77 L48.22,212.77 L48.51,212.77 L48.80,212.77 L49.08,212.77 L49.37,212.77 L49.66,212.77 L49.94,212.77 L50.23,212.77 L50.52,212.77 L50.80,212.77 L51.09,212.77 L51.38,212.77 L51.67,212.77 L51.95,212.77 L52.24,212.77 L52.53,212.77 L52.81,212.77 L53.10,212.77 L53.39,212.77 L53.67,212.77 L53.96,212.77 L54.25,212.77 L54.53,212.77 L54.82,212.77 L55.11,212.77 L55.39,212.77 L55.68,212.77 L55.97,212.77 L56.26,212.77 L56.54,212.77 L56.83,212.77 L57.12,212.77 L57.40,212.77 L57.69,212.77 L57.98,212.77 L58.26,212.77 L58.55,212.77 L58.84,212.77 L59.12,212.77 L59.41,212.77 L59.70,212.77 L59.98,212.77 L60.27,212.77 L60.56,212.77 L60.85,212.77 L61.13,212.77 L61.42,212.77 L61.71,212.77 L61.99,212.77 L62.28,212.77 L62.57,212.77 L62.85,212.77 L63.14,212.77 L63.43,212.77 L63.71,212.77 L64.00,212.77 L64.29,212.77 L64.57,212.77 L64.86,212.77 L65.15,212.77 L65.44,212.77 L65.72,212.77 L66.01,212.77 L66.30,212.77 L66.58,212.77 L66.87,212.77 L67.16,212.77 L67.44,212.77 L67.73,212.77 L68.02,212.77 L68.30,212.77 L68.59,212.77 L68.88,212.77 L69.16,212.77 L69.45,212.77 L69.74,212.77 L70.03,212.77 L70.31,212.77 L70.60,212.77 L70.89,212.77 L71.17,212.77 L71.46,212.77 L71.75,212.77 L72.03,212.77 L72.32,212.77 L72.61,212.77 L72.89,212.77 L73.18,212.77 L73.47,212.77 L73.75,212.77 L74.04,212.77 L74.33,212.77 L74.61,212.77 L74.90,212.77 L75.19,212.77 L75.48,212.77 L75.76,212.77 L76.05,212.77 L76.34,212.77 L76.62,212.77 L76.91,212.77 L77.20,212.77 L77.48,212.77 L77.77,212.77 L78.06,212.77 L78.34,212.77 L78.63,212.77 L78.92,212.77 L79.20,212.77 L79.49,212.77 L79.78,212.77 L80.07,212.77 L80.35,212.77 L80.64,212.77 L80.93,212.77 L81.21,212.77 L81.50,212.77 L81.79,212.77 L82.07,212.77 L82.36,212.77 L82.65,212.77 L82.93,212.77 L83.22,212.77 L83.51,212.77 L83.79,212.77 L84.08,212.77 L84.37,212.77 L84.66,212.77 L84.94,212.77 L85.23,212.77 L85.52,212.77 L85.80,212.77 L86.09,212.77 L86.38,212.77 L86.66,212.77 L86.95,212.77 L87.24,212.77 L87.52,212.77 L87.81,212.77 L88.10,212.77 L88.38,212.77 L88.67,212.77 L88.96,212.77 L89.25,212.77 L89.53,212.77 L89.82,212.77 L90.11,212.77 L90.39,212.77 L90.68,212.77 L90.97,212.77 L91.25,212.77 L91.54,212.77 L91.83,212.77 L92.11,212.77 L92.40,212.77 L92.69,212.77 L92.97,212.77 L93.26,212.77 L93.55,212.77 L93.84,212.77 L94.12,212.77 L94.41,212.77 L94.70,212.77 L94.98,212.77 L95.27,212.77 L95.56,212.77 L95.84,212.77 L96.13,212.77 L96.42,212.77 L96.70,212.77 L96.99,212.77 L97.28,212.77 L97.56,212.77 L97.85,212.77 L98.14,212.77 L98.43,212.77 L98.71,212.77 L99.00,212.77 L99.29,212.77 L99.57,212.77 L99.86,212.77 L100.15,212.77 L100.43,212.77 L100.72,212.77 L101.01,212.77 L101.29,212.77 L101.58,212.77 L101.87,212.77 L102.15,212.77 L102.44,212.77 L102.73,212.77 L103.02,212.77 L103.30,212.77 L103.59,212.77 L103.88,212.77 L104.16,212.77 L104.45,212.77 L104.74,212.77 L105.02,212.77 L105.31,212.77 L105.60,212.77 L105.88,212.77 L106.17,212.77 L106.46,212.77 L106.74,212.77 L107.03,212.77 L107.32,212.77 L107.61,212.77 L107.89,212.77 L108.18,212.77 L108.47,212.77 L108.75,212.77 L109.04,212.77 L109.33,212.77 L109.61,212.77 L109.90,212.77 L110.19,212.77 L110.47,212.77 L110.76,212.77 L111.05,212.77 L111.33,212.77 L111.62,212.77 L111.91,212.77 L112.19,212.77 L112.48,212.77 L112.77,212.77 L113.06,212.77 L113.34,212.77 L113.63,212.77 L113.92,212.77 L114.20,212.77 L114.49,212.77 L114.78,212.77 L115.06,212.77 L115.35,212.77 L115.64,212.77 L115.92,212.77 L116.21,212.77 L116.50,212.77 L116.78,212.77 L117.07,212.77 L117.36,212.77 L117.65,212.77 L117.93,212.77 L118.22,212.77 L118.51,212.77 L118.79,212.77 L119.08,212.77 L119.37,212.77 L119.65,212.77 L119.94,212.77 L120.23,212.77 L120.51,212.77 L120.80,212.77 L121.09,212.77 L121.37,212.77 L121.66,212.77 L121.95,212.77 L122.24,212.77 L122.52,212.77 L122.81,212.77 L123.10,212.77 L123.38,212.77 L123.67,212.77 L123.96,212.77 L124.24,212.77 L124.53,212.77 L124.82,212.77 L125.10,212.77 L125.39,212.77 L125.68,212.77 L125.96,212.77 L126.25,212.77 L126.54,212.77 L126.83,212.77 L127.11,212.77 L127.40,212.77 L127.69,212.77 L127.97,212.76 L128.26,212.76 L128.55,212.76 L128.83,212.76 L129.12,212.76 L129.41,212.76 L129.69,212.76 L129.98,212.76 L130.27,212.76 L130.55,212.76 L130.84,212.76 L131.13,212.76 L131.42,212.76 L131.70,212.75 L131.99,212.75 L132.28,212.75 L132.56,212.75 L132.85,212.75 L133.14,212.75 L133.42,212.75 L133.71,212.75 L134.00,212.74 L134.28,212.74 L134.57,212.74 L134.86,212.74 L135.14,212.74 L135.43,212.74 L135.72,212.73 L136.01,212.73 L136.29,212.73 L136.58,212.73 L136.87,212.72 L137.15,212.72 L137.44,212.72 L137.73,212.72 L138.01,212.71 L138.30,212.71 L138.59,212.71 L138.87,212.70 L139.16,212.70 L139.45,212.69 L139.73,212.69 L140.02,212.68 L140.31,212.68 L140.60,212.68 L140.88,212.67 L141.17,212.66 L141.46,212.66 L141.74,212.65 L142.03,212.65 L142.32,212.64 L142.60,212.63 L142.89,212.63 L143.18,212.62 L143.46,212.61 L143.75,212.60 L144.04,212.60 L144.32,212.59 L144.61,212.58 L144.90,212.57 L145.18,212.56 L145.47,212.55 L145.76,212.54 L146.05,212.52 L146.33,212.51 L146.62,212.50 L146.91,212.49 L147.19,212.47 L147.48,212.46 L147.77,212.44 L148.05,212.43 L148.34,212.41 L148.63,212.39 L148.91,212.37 L149.20,212.36 L149.49,212.34 L149.77,212.32 L150.06,212.29 L150.35,212.27 L150.64,212.25 L150.92,212.23 L151.21,212.20 L151.50,212.18 L151.78,212.15 L152.07,212.12 L152.36,212.09 L152.64,212.06 L152.93,212.03 L153.22,212.00 L153.50,211.96 L153.79,211.93 L154.08,211.89 L154.36,211.85 L154.65,211.81 L154.94,211.77 L155.23,211.72 L155.51,211.68 L155.80,211.63 L156.09,211.58 L156.37,211.53 L156.66,211.48 L156.95,211.43 L157.23,211.37 L157.52,211.31 L157.81,211.25 L158.09,211.19 L158.38,211.12 L158.67,211.06 L158.95,210.99 L159.24,210.91 L159.53,210.84 L159.82,210.76 L160.10,210.68 L160.39,210.60 L160.68,210.51 L160.96,210.42 L161.25,210.33 L161.54,210.24 L161.82,210.14 L162.11,210.03 L162.40,209.93 L162.68,209.82 L162.97,209.71 L163.26,209.59 L163.54,209.47 L163.83,209.34 L164.12,209.22 L164.41,209.08 L164.69,208.95 L164.98,208.81 L165.27,208.66 L165.55,208.51 L165.84,208.35 L166.13,208.19 L166.41,208.03 L166.70,207.86 L166.99,207.68 L167.27,207.50 L167.56,207.31 L167.85,207.12 L168.13,206.92 L168.42,206.72 L168.71,206.51 L169.00,206.30 L169.28,206.07 L169.57,205.84 L169.86,205.61 L170.14,205.37 L170.43,205.12 L170.72,204.86 L171.00,204.60 L171.29,204.33 L171.58,204.05 L171.86,203.77 L172.15,203.47 L172.44,203.17 L172.72,202.87 L173.01,202.55 L173.30,202.22 L173.59,201.89 L173.87,201.55 L174.16,201.20 L174.45,200.84 L174.73,200.47 L175.02,200.09 L175.31,199.70 L175.59,199.30 L175.88,198.90 L176.17,198.48 L176.45,198.05 L176.74,197.62 L177.03,197.17 L177.31,196.71 L177.60,196.24 L177.89,195.76 L178.17,195.27 L178.46,194.77 L178.75,194.26 L179.04,193.74 L179.32,193.20 L179.61,192.66 L179.90,192.10 L180.18,191.53 L180.47,190.95 L180.76,190.35 L181.04,189.75 L181.33,189.13 L181.62,188.50 L181.90,187.86 L182.19,187.20 L182.48,186.53 L182.76,185.85 L183.05,185.16 L183.34,184.45 L183.63,183.73 L183.91,182.99 L184.20,182.25 L184.49,181.49 L184.77,180.71 L185.06,179.92 L185.35,179.12 L185.63,178.31 L185.92,177.48 L186.21,176.64 L186.49,175.78 L186.78,174.91 L187.07,174.03 L187.35,173.13 L187.64,172.22 L187.93,171.30 L188.22,170.36 L188.50,169.40 L188.79,168.44 L189.08,167.46 L189.36,166.47 L189.65,165.46 L189.94,164.44 L190.22,163.40 L190.51,162.35 L190.80,161.29 L191.08,160.22 L191.37,159.13 L191.66,158.03 L191.94,156.92 L192.23,155.79 L192.52,154.65 L192.81,153.50 L193.09,152.33 L193.38,151.16 L193.67,149.97 L193.95,148.77 L194.24,147.55 L194.53,146.33 L194.81,145.09 L195.10,143.85 L195.39,142.59 L195.67,141.32 L195.96,140.04 L196.25,138.75 L196.53,137.46 L196.82,136.15 L197.11,134.83 L197.40,133.50 L197.68,132.17 L197.97,130.82 L198.26,129.47 L198.54,128.11 L198.83,126.74 L199.12,125.37 L199.40,123.99 L199.69,122.60 L199.98,121.21 L200.26,119.81 L200.55,118.41 L200.84,117.00 L201.12,115.58 L201.41,114.17 L201.70,112.75 L201.99,111.32 L202.27,109.90 L202.56,108.47 L202.85,107.04 L203.13,105.61 L203.42,104.18 L203.71,102.74 L203.99,101.31 L204.28,99.88 L204.57,98.45 L204.85,97.02 L205.14,95.60 L205.43,94.18 L205.71,92.76 L206.00,91.34 L206.29,89.93 L206.58,88.52 L206.86,87.12 L207.15,85.73 L207.44,84.34 L207.72,82.96 L208.01,81.59 L208.30,80.22 L208.58,78.87 L208.87,77.52 L209.16,76.18 L209.44,74.86 L209.73,73.54 L210.02,72.24 L210.30,70.94 L210.59,69.67 L210.88,68.40 L211.17,67.15 L211.45,65.91 L211.74,64.69 L212.03,63.48 L212.31,62.29 L212.60,61.12 L212.89,59.96 L213.17,58.82 L213.46,57.70 L213.75,56.60 L214.03,55.51 L214.32,54.45 L214.61,53.40 L214.89,52.38 L215.18,51.38 L215.47,50.40 L215.75,49.44 L216.04,48.50 L216.33,47.59 L216.62,46.70 L216.90,45.84 L217.19,45.00 L217.48,44.18 L217.76,43.39 L218.05,42.62 L218.34,41.88 L218.62,41.17 L218.91,40.48 L219.20,39.82 L219.48,39.19 L219.77,38.59 L220.06,38.01 L220.34,37.46 L220.63,36.94 L220.92,36.45 L221.21,35.99 L221.49,35.55 L221.78,35.15 L222.07,34.77 L222.35,34.43 L222.64,34.12 L222.93,33.83 L223.21,33.58 L223.50,33.35 L223.79,33.16 L224.07,33.00 L224.36,32.87 L224.65,32.77 L224.93,32.70 L225.22,32.66 L225.51,32.65 L225.80,32.68 L226.08,32.73 L226.37,32.81 L226.66,32.93 L226.94,33.08 L227.23,33.25 L227.52,33.46 L227.80,33.70 L228.09,33.97 L228.38,34.27 L228.66,34.60 L228.95,34.96 L229.24,35.35 L229.52,35.77 L229.81,36.21 L230.10,36.69 L230.39,37.20 L230.67,37.73 L230.96,38.29 L231.25,38.89 L231.53,39.50 L231.82,40.15 L232.11,40.82 L232.39,41.52 L232.68,42.25 L232.97,43.00 L233.25,43.78 L233.54,44.59 L233.83,45.41 L234.11,46.27 L234.40,47.14 L234.69,48.05 L234.98,48.97 L235.26,49.92 L235.55,50.89 L235.84,51.88 L236.12,52.89 L236.41,53.92 L236.70,54.98 L236.98,56.05 L237.27,57.14 L237.56,58.26 L237.84,59.39 L238.13,60.54 L238.42,61.70 L238.70,62.88 L238.99,64.08 L239.28,65.30 L239.57,66.53 L239.85,67.77 L240.14,69.03 L240.43,70.30 L240.71,71.59 L241.00,72.89 L241.29,74.20 L241.57,75.52 L241.86,76.85 L242.15,78.19 L242.43,79.54 L242.72,80.90 L243.01,82.27 L243.29,83.65 L243.58,85.03 L243.87,86.43 L244.16,87.82 L244.44,89.23 L244.73,90.63 L245.02,92.05 L245.30,93.47 L245.59,94.89 L245.88,96.31 L246.16,97.74 L246.45,99.17 L246.74,100.60 L247.02,102.03 L247.31,103.46 L247.60,104.89 L247.88,106.32 L248.17,107.75 L248.46,109.18 L248.74,110.61 L249.03,112.03 L249.32,113.46 L249.61,114.88 L249.89,116.29 L250.18,117.70 L250.47,119.11 L250.75,120.51 L251.04,121.91 L251.33,123.30 L251.61,124.68 L251.90,126.06 L252.19,127.43 L252.47,128.79 L252.76,130.15 L253.05,131.50 L253.33,132.84 L253.62,134.17 L253.91,135.49 L254.20,136.80 L254.48,138.11 L254.77,139.40 L255.06,140.68 L255.34,141.96 L255.63,143.22 L255.92,144.47 L256.20,145.71 L256.49,146.94 L256.78,148.16 L257.06,149.37 L257.35,150.56 L257.64,151.75 L257.92,152.92 L258.21,154.08 L258.50,155.22 L258.79,156.35 L259.07,157.47 L259.36,158.58 L259.65,159.68 L259.93,160.76 L260.22,161.83 L260.51,162.88 L260.79,163.92 L261.08,164.95 L261.37,165.96 L261.65,166.96 L261.94,167.95 L262.23,168.92 L262.51,169.88 L262.80,170.83 L263.09,171.76 L263.38,172.68 L263.66,173.58 L263.95,174.47 L264.24,175.35 L264.52,176.21 L264.81,177.06 L265.10,177.90 L265.38,178.72 L265.67,179.52 L265.96,180.32 L266.24,181.10 L266.53,181.87 L266.82,182.62 L267.10,183.36 L267.39,184.09 L267.68,184.80 L267.97,185.50 L268.25,186.19 L268.54,186.87 L268.83,187.53 L269.11,188.18 L269.40,188.82 L269.69,189.44 L269.97,190.05 L270.26,190.65 L270.55,191.24 L270.83,191.82 L271.12,192.38 L271.41,192.93 L271.69,193.47 L271.98,194.00 L272.27,194.52 L272.56,195.03 L272.84,195.52 L273.13,196.01 L273.42,196.48 L273.70,196.94 L273.99,197.39 L274.28,197.84 L274.56,198.27 L274.85,198.69 L275.14,199.10 L275.42,199.50 L275.71,199.90 L276.00,200.28 L276.28,200.65 L276.57,201.02 L276.86,201.37 L277.15,201.72 L277.43,202.06 L277.72,202.39 L278.01,202.71 L278.29,203.02 L278.58,203.33 L278.87,203.62 L279.15,203.91 L279.44,204.19 L279.73,204.47 L280.01,204.73 L280.30,204.99 L280.59,205.24 L280.87,205.49 L281.16,205.73 L281.45,205.96 L281.74,206.18 L282.02,206.40 L282.31,206.62 L282.60,206.82 L282.88,207.02 L283.17,207.22 L283.46,207.41 L283.74,207.59 L284.03,207.77 L284.32,207.94 L284.60,208.11 L284.89,208.27 L285.18,208.43 L285.46,208.58 L285.75,208.73 L286.04,208.88 L286.32,209.02 L286.61,209.15" style="stroke-width: 3; stroke: rgb(60, 180, 75); stroke-opacity: 0.8;"/><path d=" M225.44, 212.77 L225.44, 212.41 L225.44, 212.06 L225.44, 211.70 L225.44, 211.34 L225.44, 210.98 L225.44, 210.62 L225.44, 210.26 L225.44, 209.90 L225.44, 209.54 L225.44, 209.18 L225.44, 208.82 L225.44, 208.47 L225.44, 208.11 L225.44, 207.75 L225.44, 207.39 L225.44, 207.03 L225.44, 206.67 L225.44, 206.31 L225.44, 205.95 L225.44, 205.59 L225.44, 205.23 L225.44, 204.87 L225.44, 204.52 L225.44, 204.16 L225.44, 203.80 L225.44, 203.44 L225.44, 203.08 L225.44, 202.72 L225.44, 202.36 L225.44, 202.00 L225.44, 201.64 L225.44, 201.28 L225.44, 200.93 L225.44, 200.57 L225.44, 200.21 L225.44, 199.85 L225.44, 199.49 L225.44, 199.13 L225.44, 198.77 L225.44, 198.41 L225.44, 198.05 L225.44, 197.69 L225.44, 197.33 L225.44, 196.98 L225.44, 196.62 L225.44, 196.26 L225.44, 195.90 L225.44, 195.54 L225.44, 195.18 L225.44, 194.82 L225.44, 194.46 L225.44, 194.10 L225.44, 193.74 L225.44, 193.39 L225.44, 193.03 L225.44, 192.67 L225.44, 192.31 L225.44, 191.95 L225.44, 191.59 L225.44, 191.23 L225.44, 190.87 L225.44, 190.51 L225.44, 190.15 L225.44, 189.79 L225.44, 189.44 L225.44, 189.08 L225.44, 188.72 L225.44, 188.36 L225.44, 188.00 L225.44, 187.64 L225.44, 187.28 L225.44, 186.92 L225.44, 186.56 L225.44, 186.20 L225.44, 185.85 L225.44, 185.49 L225.44, 185.13 L225.44, 184.77 L225.44, 184.41 L225.44, 184.05 L225.44, 183.69 L225.44, 183.33 L225.44, 182.97 L225.44, 182.61 L225.44, 182.25 L225.44, 181.90 L225.44, 181.54 L225.44, 181.18 L225.44, 180.82 L225.44, 180.46 L225.44, 180.10 L225.44, 179.74 L225.44, 179.38 L225.44, 179.02 L225.44, 178.66 L225.44, 178.31 L225.44, 177.95 L225.44, 177.59 L225.44, 177.23 L225.44, 176.87 L225.44, 176.51 L225.44, 176.15 L225.44, 175.79 L225.44, 175.43 L225.44, 175.07 L225.44, 174.71 L225.44, 174.36 L225.44, 174.00 L225.44, 173.64 L225.44, 173.28 L225.44, 172.92 L225.44, 172.56 L225.44, 172.20 L225.44, 171.84 L225.44, 171.48 L225.44, 171.12 L225.44, 170.77 L225.44, 170.41 L225.44, 170.05 L225.44, 169.69 L225.44, 169.33 L225.44, 168.97 L225.44, 168.61 L225.44, 168.25 L225.44, 167.89 L225.44, 167.53 L225.44, 167.17 L225.44, 166.82 L225.44, 166.46 L225.44, 166.10 L225.44, 165.74 L225.44, 165.38 L225.44, 165.02 L225.44, 164.66 L225.44, 164.30 L225.44, 163.94 L225.44, 163.58 L225.44, 163.23 L225.44, 162.87 L225.44, 162.51 L225.44, 162.15 L225.44, 161.79 L225.44, 161.43 L225.44, 161.07 L225.44, 160.71 L225.44, 160.35 L225.44, 159.99 L225.44, 159.63 L225.44, 159.28 L225.44, 158.92 L225.44, 158.56 L225.44, 158.20 L225.44, 157.84 L225.44, 157.48 L225.44, 157.12 L225.44, 156.76 L225.44, 156.40 L225.44, 156.04 L225.44, 155.69 L225.44, 155.33 L225.44, 154.97 L225.44, 154.61 L225.44, 154.25 L225.44, 153.89 L225.44, 153.53 L225.44, 153.17 L225.44, 152.81 L225.44, 152.45 L225.44, 152.09 L225.44, 151.74 L225.44, 151.38 L225.44, 151.02 L225.44, 150.66 L225.44, 150.30 L225.44, 149.94 L225.44, 149.58 L225.44, 149.22 L225.44, 148.86 L225.44, 148.50 L225.44, 148.15 L225.44, 147.79 L225.44, 147.43 L225.44, 147.07 L225.44, 146.71 L225.44, 146.35 L225.44, 145.99 L225.44, 145.63 L225.44, 145.27 L225.44, 144.91 L225.44, 144.56 L225.44, 144.20 L225.44, 143.84 L225.44, 143.48 L225.44, 143.12 L225.44, 142.76 L225.44, 142.40 L225.44, 142.04 L225.44, 141.68 L225.44, 141.32 L225.44, 140.96 L225.44, 140.61 L225.44, 140.25 L225.44, 139.89 L225.44, 139.53 L225.44, 139.17 L225.44, 138.81 L225.44, 138.45 L225.44, 138.09 L225.44, 137.73 L225.44, 137.37 L225.44, 137.02 L225.44, 136.66 L225.44, 136.30 L225.44, 135.94 L225.44, 135.58 L225.44, 135.22 L225.44, 134.86 L225.44, 134.50 L225.44, 134.14 L225.44, 133.78 L225.44, 133.42 L225.44, 133.07 L225.44, 132.71 L225.44, 132.35 L225.44, 131.99 L225.44, 131.63 L225.44, 131.27 L225.44, 130.91 L225.44, 130.55 L225.44, 130.19 L225.44, 129.83 L225.44, 129.48 L225.44, 129.12 L225.44, 128.76 L225.44, 128.40 L225.44, 128.04 L225.44, 127.68 L225.44, 127.32 L225.44, 126.96 L225.44, 126.60 L225.44, 126.24 L225.44, 125.88 L225.44, 125.53 L225.44, 125.17 L225.44, 124.81 L225.44, 124.45 L225.44, 124.09 L225.44, 123.73 L225.44, 123.37 L225.44, 123.01 L225.44, 122.65 L225.44, 122.29 L225.44, 121.94 L225.44, 121.58 L225.44, 121.22 L225.44, 120.86 L225.44, 120.50 L225.44, 120.14 L225.44, 119.78 L225.44, 119.42 L225.44, 119.06 L225.44, 118.70 L225.44, 118.34 L225.44, 117.99 L225.44, 117.63 L225.44, 117.27 L225.44, 116.91 L225.44, 116.55 L225.44, 116.19 L225.44, 115.83 L225.44, 115.47 L225.44, 115.11 L225.44, 114.75 L225.44, 114.40 L225.44, 114.04 L225.44, 113.68 L225.44, 113.32 L225.44, 112.96 L225.44, 112.60 L225.44, 112.24 L225.44, 111.88 L225.44, 111.52 L225.44, 111.16 L225.44, 110.80 L225.44, 110.45 L225.44, 110.09 L225.44, 109.73 L225.44, 109.37 L225.44, 109.01 L225.44, 108.65 L225.44, 108.29 L225.44, 107.93 L225.44, 107.57 L225.44, 107.21 L225.44, 106.86 L225.44, 106.50 L225.44, 106.14 L225.44, 105.78 L225.44, 105.42 L225.44, 105.06 L225.44, 104.70 L225.44, 104.34 L225.44, 103.98 L225.44, 103.62 L225.44, 103.26 L225.44, 102.91 L225.44, 102.55 L225.44, 102.19 L225.44, 101.83 L225.44, 101.47 L225.44, 101.11 L225.44, 100.75 L225.44, 100.39 L225.44, 100.03 L225.44, 99.67 L225.44, 99.32 L225.44, 98.96 L225.44, 98.60 L225.44, 98.24 L225.44, 97.88 L225.44, 97.52 L225.44, 97.16 L225.44, 96.80 L225.44, 96.44 L225.44, 96.08 L225.44, 95.72 L225.44, 95.37 L225.44, 95.01 L225.44, 94.65 L225.44, 94.29 L225.44, 93.93 L225.44, 93.57 L225.44, 93.21 L225.44, 92.85 L225.44, 92.49 L225.44, 92.13 L225.44, 91.78 L225.44, 91.42 L225.44, 91.06 L225.44, 90.70 L225.44, 90.34 L225.44, 89.98 L225.44, 89.62 L225.44, 89.26 L225.44, 88.90 L225.44, 88.54 L225.44, 88.18 L225.44, 87.83 L225.44, 87.47 L225.44, 87.11 L225.44, 86.75 L225.44, 86.39 L225.44, 86.03 L225.44, 85.67 L225.44, 85.31 L225.44, 84.95 L225.44, 84.59 L225.44, 84.24 L225.44, 83.88 L225.44, 83.52 L225.44, 83.16 L225.44, 82.80 L225.44, 82.44 L225.44, 82.08 L225.44, 81.72 L225.44, 81.36 L225.44, 81.00 L225.44, 80.64 L225.44, 80.29 L225.44, 79.93 L225.44, 79.57 L225.44, 79.21 L225.44, 78.85 L225.44, 78.49 L225.44, 78.13 L225.44, 77.77 L225.44, 77.41 L225.44, 77.05 L225.44, 76.70 L225.44, 76.34 L225.44, 75.98 L225.44, 75.62 L225.44, 75.26 L225.44, 74.90 L225.44, 74.54 L225.44, 74.18 L225.44, 73.82 L225.44, 73.46 L225.44, 73.10 L225.44, 72.75 L225.44, 72.39 L225.44, 72.03 L225.44, 71.67 L225.44, 71.31 L225.44, 70.95 L225.44, 70.59 L225.44, 70.23 L225.44, 69.87 L225.44, 69.51 L225.44, 69.16 L225.44, 68.80 L225.44, 68.44 L225.44, 68.08 L225.44, 67.72 L225.44, 67.36 L225.44, 67.00 L225.44, 66.64 L225.44, 66.28 L225.44, 65.92 L225.44, 65.56 L225.44, 65.21 L225.44, 64.85 L225.44, 64.49 L225.44, 64.13 L225.44, 63.77 L225.44, 63.41 L225.44, 63.05 L225.44, 62.69 L225.44, 62.33 L225.44, 61.97 L225.44, 61.62 L225.44, 61.26 L225.44, 60.90 L225.44, 60.54 L225.44, 60.18 L225.44, 59.82 L225.44, 59.46 L225.44, 59.10 L225.44, 58.74 L225.44, 58.38 L225.44, 58.03 L225.44, 57.67 L225.44, 57.31 L225.44, 56.95 L225.44, 56.59 L225.44, 56.23 L225.44, 55.87 L225.44, 55.51 L225.44, 55.15 L225.44, 54.79 L225.44, 54.43 L225.44, 54.08 L225.44, 53.72 L225.44, 53.36 L225.44, 53.00 L225.44, 52.64 L225.44, 52.28 L225.44, 51.92 L225.44, 51.56 L225.44, 51.20 L225.44, 50.84 L225.44, 50.49 L225.44, 50.13 L225.44, 49.77 L225.44, 49.41 L225.44, 49.05 L225.44, 48.69 L225.44, 48.33 L225.44, 47.97 L225.44, 47.61 L225.44, 47.25 L225.44, 46.89 L225.44, 46.54 L225.44, 46.18 L225.44, 45.82 L225.44, 45.46 L225.44, 45.10 L225.44, 44.74 L225.44, 44.38 L225.44, 44.02 L225.44, 43.66 L225.44, 43.30 L225.44, 42.95 L225.44, 42.59 L225.44, 42.23 L225.44, 41.87 L225.44, 41.51 L225.44, 41.15 L225.44, 40.79 L225.44, 40.43 L225.44, 40.07 L225.44, 39.71 L225.44, 39.35 L225.44, 39.00 L225.44, 38.64 L225.44, 38.28 L225.44, 37.92 L225.44, 37.56 L225.44, 37.20 L225.44, 36.84 L225.44, 36.48 L225.44, 36.12 L225.44, 35.76 L225.44, 35.41 L225.44, 35.05 L225.44, 34.69 L225.44, 34.33 L225.44, 33.97 L225.44, 33.61 L225.44, 33.25 L225.44, 32.89 L225.44, 32.53 L225.44, 32.17" style="stroke-width: 3; stroke: rgb(0, 0, 0); stroke-opacity: 1; stroke-dasharray: 3.375, 4.02;"/></g></g><g class="test-xtl" style="font-family: &quot;Open Sans&quot;, verdana, arial, sans-serif;"><text text-anchor="middle" font-size="12" dominant-baseline="hanging" stroke="none" fill="rgb(50,50,50)" fill-opacity="1" x="90.85181013624758" y="219.77372291535636">0.2</text><text text-anchor="middle" font-size="12" dominant-baseline="hanging" stroke="none" fill="rgb(50,50,50)" fill-opacity="1" x="139.7918101362476" y="219.77372291535636">0.4</text><text text-anchor="middle" font-size="12" dominant-baseline="hanging" stroke="none" fill="rgb(50,50,50)" fill-opacity="1" x="188.7318101362476" y="219.77372291535636">0.6</text><text text-anchor="middle" font-size="12" dominant-baseline="hanging" stroke="none" fill="rgb(50,50,50)" fill-opacity="1" x="237.6718101362476" y="219.77372291535636">0.8</text><text text-anchor="middle" font-size="12" dominant-baseline="hanging" stroke="none" fill="rgb(50,50,50)" fill-opacity="1" x="286.6118101362476" y="219.77372291535636">1</text><text text-anchor="middle" font-size="12" dominant-baseline="hanging" stroke="none" fill="rgb(50,50,50)" fill-opacity="1" x="335.5518101362475" y="219.77372291535636">1.2</text><text text-anchor="middle" font-size="12" dominant-baseline="hanging" stroke="none" fill="rgb(50,50,50)" fill-opacity="1" x="384.4918101362475" y="219.77372291535636">1.4</text><text text-anchor="middle" font-size="12" dominant-baseline="hanging" stroke="none" fill="rgb(50,50,50)" fill-opacity="1" x="33.91181013624758" y="217.77372291535636">0</text></g><g class="test-ytl" style="font-family: &quot;Open Sans&quot;, verdana, arial, sans-serif;"><text text-anchor="end" dominant-baseline="middle" font-size="12" stroke="none" fill="rgb(50,50,50)" fill-opacity="1" x="33.91181013624758" y="122.47372291535638">1</text><text text-anchor="end" dominant-baseline="middle" font-size="12" stroke="none" fill="rgb(50,50,50)" fill-opacity="1" x="33.91181013624758" y="32.173722915356365">2</text></g><rect class="real" x="1" y="1" width="425" height="250" style="fill: transparent; stroke: none;"/></g></g></g><g/></g><g/><g/><g/></svg>
        <svg xmlns="http://www.w3.org/2000/svg" xmlns:xlink="http://www.w3.org/1999/xlink" width="660" height="300" style="width:660px;height:300px;font-family:Asana-Math, Asana;background:#FFF;"><g><g><g><g transform="matrix(1,0,0,1,295.66668701171875,28)"><path transform="matrix(0.018,0,0,-0.018,0,0)" d="M91 46C91 3 116 0 137 0L188 0C230 0 233 26 233 46L233 268L360 268C452 268 641 269 641 479C641 535 626 592 585 632C521 695 425 694 345 694L137 694C92 694 91 664 91 643ZM230 347L230 571L231 608L351 608C436 608 505 597 507 483C507 427 505 347 364 347ZM763 43C763 24 767 0 808 0L851 0C868 0 869 1 879 6C895 19 897 22 897 50L897 225C897 238 897 250 900 263C910 308 948 343 991 358C1024 369 1042 364 1054 373C1058 379 1059 380 1059 391L1059 447C1059 461 1057 469 1039 469L1038 469C1020 469 945 462 892 388C891 438 891 439 882 450C871 461 867 463 842 463L809 463C788 463 763 461 763 418ZM1105 224C1105 36 1221 -11 1350 -11C1473 -11 1593 35 1593 220C1593 465 1431 475 1334 475C1221 475 1105 424 1105 224ZM1242 214L1242 241C1242 310 1240 402 1348 402C1455 402 1455 313 1456 255L1456 228C1455 161 1458 67 1349 67C1245 67 1244 155 1242 214ZM1685 46C1685 21 1692 0 1731 0L1777 0C1802 0 1811 6 1821 27C1850 5 1886 -11 1934 -11C2036 -11 2147 35 2148 224C2148 246 2148 292 2137 334C2112 427 2046 469 1958 469C1901 469 1857 453 1819 429L1819 678C1819 702 1810 722 1775 722L1731 722C1692 722 1685 702 1685 676ZM1822 101L1822 362C1847 383 1873 397 1911 397C2009 397 2011 311 2011 234C2011 165 2016 62 1900 62C1853 62 1833 89 1822 101ZM2216 137C2216 69 2266 -11 2362 -11C2444 -11 2494 23 2516 40C2516 23 2525 0 2557 0L2605 0C2645 0 2650 23 2650 45L2650 308C2650 408 2604 475 2443 475C2380 475 2331 463 2286 443C2264 432 2258 433 2258 417C2258 417 2261 352 2268 340L2272 337L2276 336C2298 337 2328 405 2443 405C2506 405 2514 359 2514 312L2514 291C2425 290 2216 273 2216 137ZM2347 137C2347 215 2453 227 2514 232L2514 154C2514 80 2449 62 2416 62C2373 62 2347 101 2347 137ZM2771 46C2771 21 2778 0 2817 0L2863 0C2888 0 2897 6 2907 27C2936 5 2972 -11 3020 -11C3122 -11 3233 35 3234 224C3234 246 3234 292 3223 334C3198 427 3132 469 3044 469C2987 469 2943 453 2905 429L2905 678C2905 702 2896 722 2861 722L2817 722C2778 722 2771 702 2771 676ZM2908 101L2908 362C2933 383 2959 397 2997 397C3095 397 3097 311 3097 234C3097 165 3102 62 2986 62C2939 62 2919 89 2908 101ZM3328 626C3328 586 3351 580 3374 580L3426 580C3435 581 3470 579 3470 624L3470 676C3470 716 3447 722 3424 722L3373 722C3354 721 3328 722 3328 676ZM3332 50C3332 33 3331 0 3376 0L3422 0C3467 0 3466 33 3466 45L3466 408C3466 434 3464 458 3417 458L3376 458C3331 458 3332 425 3332 413ZM3587 45C3587 5 3609 0 3635 0L3676 0C3719 2 3721 22 3721 49L3721 677C3721 714 3700 722 3675 722L3629 722C3601 722 3587 704 3587 675ZM3838 626C3838 586 3861 580 3884 580L3936 580C3945 581 3980 579 3980 624L3980 676C3980 716 3957 722 3934 722L3883 722C3864 721 3838 722 3838 676ZM3842 50C3842 33 3841 0 3886 0L3932 0C3977 0 3976 33 3976 45L3976 408C3976 434 3974 458 3927 458L3886 458C3841 458 3842 425 3842 413ZM4058 422C4058 411 4062 385 4102 385L4123 385L4123 152C4123 121 4123 91 4132 61C4149 6 4187 -11 4227 -11C4301 -11 4409 21 4409 47C4409 47 4401 102 4386 102C4373 102 4343 67 4296 67C4268 67 4254 85 4254 159C4254 168 4255 176 4255 185L4255 385L4348 385C4386 386 4391 411 4391 421C4391 430 4386 458 4346 458L4255 458L4255 544C4255 568 4245 589 4210 589L4174 589C4157 589 4126 588 4126 544L4126 458L4102 458C4062 458 4058 433 4058 422ZM4440 433C4440 423 4445 414 4449 405L4626 14C4629 8 4631 2 4630 -5C4614 -56 4599 -120 4536 -120C4495 -120 4476 -101 4461 -97L4457 -97L4452 -99C4446 -105 4446 -107 4447 -124C4452 -188 4452 -188 4457 -193C4466 -202 4515 -206 4533 -206C4635 -206 4685 -126 4703 -90C4711 -74 4717 -56 4723 -39L4878 412C4880 418 4882 425 4882 431C4882 440 4877 458 4847 458L4819 458C4772 458 4766 433 4754 400C4719 296 4683 190 4679 137C4664 234 4568 427 4562 434C4545 457 4519 458 4508 458L4474 458C4465 458 4440 457 4440 433Z" stroke="rgb(0,0,0)" stroke-opacity="1" stroke-width="8" fill="rgb(0,0,0)" fill-opacity="1"></path></g></g><g><text x="384.05206298828125" y="12" style="white-space:pre;stroke:none;fill:rgb(0,0,0);fill-opacity:1;font-size:18px;font-family:Arial, Helvetica, sans-serif;font-weight:400;font-style:normal;dominant-baseline:text-before-edge;text-decoration:none solid rgb(0, 0, 0);"> </text></g></g></g></svg>
</svg>
