<svg xmlns="http://www.w3.org/2000/svg" xmlns:xlink="http://www.w3.org/1999/xlink" x="0" y="0" width="661.6000366210938" height="301.6000061035156" style="
        width:661.6000366210938px;
        height:301.6000061035156px;
        background: #FFF;
        fill: none;
">
        
        
        <svg xmlns="http://www.w3.org/2000/svg" class="role-diagram-draw-area"><g class="shapes-region" style="stroke: black; fill: none;"><g class="arrow-line"><path class="connection real" stroke-dasharray="" d="  M210,166.36 L460,166.36" style="stroke: rgb(0, 0, 0); stroke-width: 1; fill: none; fill-opacity: 1;"/></g><g class="arrow-line"><path class="connection real" stroke-dasharray="" d="  M335,280 L335,52.73" style="stroke: rgb(0, 0, 0); stroke-width: 1; fill: none; fill-opacity: 1;"/></g><g class="arrow-line"><path class="connection real" stroke-dasharray="" d="  M335,166.36 L389.7,111.67" style="stroke: rgb(0, 0, 0); stroke-opacity: 1; stroke-width: 2; fill: none; fill-opacity: 1;"/><g stroke="rgb(0,0,0)" stroke-opacity="1" transform="matrix(-0.7071067811865479,0.7071067811865471,-0.7071067811865471,-0.7071067811865479,391.8181818181818,109.54545454545456)" style="stroke: rgb(0, 0, 0); stroke-width: 2;"><path d=" M14.21,-4.28 Q6.45,-0.59 0,0 Q6.45,0.59 14.21,4.28"/></g></g><g class="arrow-line"><path class="connection real" stroke-dasharray="2.25 3.685" d="  M300.91,53.6 L385.19,137.88 L460,212.69" style="stroke: rgb(0, 0, 0); stroke-opacity: 1; stroke-width: 2; fill: none; fill-opacity: 1;"/></g><g class="arrow-line"><path class="connection real" stroke-dasharray="2.25 3.685" d="  M221.87,118.79 L306.15,203.08 L380.96,277.89" style="stroke: rgb(0, 0, 0); stroke-opacity: 1; stroke-width: 2; fill: none; fill-opacity: 1;"/></g><g class="composite-shape"><path class="real" d=" M401.73,154.14 C401.73,151.85 403.58,150 405.86,150 C408.15,150 410,151.85 410,154.14 C410,156.42 408.15,158.27 405.86,158.27 C403.58,158.27 401.73,156.42 401.73,154.14 Z" style="stroke-width: 1; stroke: none; stroke-opacity: 1; fill: rgb(255, 0, 0); fill-opacity: 1;"/></g><g class="composite-shape"><path class="real" d=" M361.73,264.14 C361.73,261.85 363.58,260 365.86,260 C368.15,260 370,261.85 370,264.14 C370,266.42 368.15,268.27 365.86,268.27 C363.58,268.27 361.73,266.42 361.73,264.14 Z" style="stroke-width: 1; stroke: none; stroke-opacity: 1; fill: rgb(74, 144, 226); fill-opacity: 1;"/></g><g class="composite-shape"><path class="real" d=" M433.6,194.14 C433.6,191.85 435.45,190 437.74,190 C440.02,190 441.87,191.85 441.87,194.14 C441.87,196.42 440.02,198.27 437.74,198.27 C435.45,198.27 433.6,196.42 433.6,194.14 Z" style="stroke-width: 1; stroke: none; stroke-opacity: 1; fill: rgb(255, 0, 0); fill-opacity: 1;"/></g><g class="composite-shape"><path class="real" d=" M431.2,186.14 C431.2,183.85 433.05,182 435.34,182 C437.62,182 439.47,183.85 439.47,186.14 C439.47,188.42 437.62,190.27 435.34,190.27 C433.05,190.27 431.2,188.42 431.2,186.14 Z" style="stroke-width: 1; stroke: none; stroke-opacity: 1; fill: rgb(255, 0, 0); fill-opacity: 1;"/></g><g class="composite-shape"><path class="real" d=" M453.6,214.14 C453.6,211.85 455.45,210 457.74,210 C460.02,210 461.87,211.85 461.87,214.14 C461.87,216.42 460.02,218.27 457.74,218.27 C455.45,218.27 453.6,216.42 453.6,214.14 Z" style="stroke-width: 1; stroke: none; stroke-opacity: 1; fill: rgb(255, 0, 0); fill-opacity: 1;"/></g><g class="composite-shape"><path class="real" d=" M361.73,115.86 C361.73,113.58 363.58,111.73 365.86,111.73 C368.15,111.73 370,113.58 370,115.86 C370,118.15 368.15,120 365.86,120 C363.58,120 361.73,118.15 361.73,115.86 Z" style="stroke-width: 1; stroke: none; stroke-opacity: 1; fill: rgb(255, 0, 0); fill-opacity: 1;"/></g><g class="composite-shape"><path class="real" d=" M450,205.86 C450,203.58 451.85,201.73 454.14,201.73 C456.42,201.73 458.27,203.58 458.27,205.86 C458.27,208.15 456.42,210 454.14,210 C451.85,210 450,208.15 450,205.86 Z" style="stroke-width: 1; stroke: none; stroke-opacity: 1; fill: rgb(255, 0, 0); fill-opacity: 1;"/></g><g class="composite-shape"><path class="real" d=" M311.73,69.06 C311.73,66.78 313.58,64.93 315.86,64.93 C318.15,64.93 320,66.78 320,69.06 C320,71.35 318.15,73.2 315.86,73.2 C313.58,73.2 311.73,71.35 311.73,69.06 Z" style="stroke-width: 1; stroke: none; stroke-opacity: 1; fill: rgb(255, 0, 0); fill-opacity: 1;"/></g><g class="composite-shape"><path class="real" d=" M316.8,75.74 C316.8,73.45 318.65,71.6 320.94,71.6 C323.22,71.6 325.07,73.45 325.07,75.74 C325.07,78.02 323.22,79.87 320.94,79.87 C318.65,79.87 316.8,78.02 316.8,75.74 Z" style="stroke-width: 1; stroke: none; stroke-opacity: 1; fill: rgb(255, 0, 0); fill-opacity: 1;"/></g><g class="composite-shape"><path class="real" d=" M334.8,90.14 C334.8,87.85 336.65,86 338.94,86 C341.22,86 343.07,87.85 343.07,90.14 C343.07,92.42 341.22,94.27 338.94,94.27 C336.65,94.27 334.8,92.42 334.8,90.14 Z" style="stroke-width: 1; stroke: none; stroke-opacity: 1; fill: rgb(255, 0, 0); fill-opacity: 1;"/></g><g class="composite-shape"><path class="real" d=" M302.02,207.21 C302.02,204.93 303.87,203.08 306.15,203.08 C308.44,203.08 310.29,204.93 310.29,207.21 C310.29,209.5 308.44,211.35 306.15,211.35 C303.87,211.35 302.02,209.5 302.02,207.21 Z" style="stroke-width: 1; stroke: none; stroke-opacity: 1; fill: rgb(74, 144, 226); fill-opacity: 1;"/></g><g class="composite-shape"><path class="real" d=" M296.93,195.74 C296.93,193.45 298.78,191.6 301.06,191.6 C303.35,191.6 305.2,193.45 305.2,195.74 C305.2,198.02 303.35,199.87 301.06,199.87 C298.78,199.87 296.93,198.02 296.93,195.74 Z" style="stroke-width: 1; stroke: none; stroke-opacity: 1; fill: rgb(74, 144, 226); fill-opacity: 1;"/></g><g class="composite-shape"><path class="real" d=" M257.73,154.94 C257.73,152.65 259.58,150.8 261.86,150.8 C264.15,150.8 266,152.65 266,154.94 C266,157.22 264.15,159.07 261.86,159.07 C259.58,159.07 257.73,157.22 257.73,154.94 Z" style="stroke-width: 1; stroke: none; stroke-opacity: 1; fill: rgb(74, 144, 226); fill-opacity: 1;"/></g><g class="composite-shape"><path class="real" d=" M238.13,142.94 C238.13,140.65 239.98,138.8 242.26,138.8 C244.55,138.8 246.4,140.65 246.4,142.94 C246.4,145.22 244.55,147.07 242.26,147.07 C239.98,147.07 238.13,145.22 238.13,142.94 Z" style="stroke-width: 1; stroke: none; stroke-opacity: 1; fill: rgb(74, 144, 226); fill-opacity: 1;"/></g><g class="composite-shape"><path class="real" d=" M276.93,177.74 C276.93,175.45 278.78,173.6 281.06,173.6 C283.35,173.6 285.2,175.45 285.2,177.74 C285.2,180.02 283.35,181.87 281.06,181.87 C278.78,181.87 276.93,180.02 276.93,177.74 Z" style="stroke-width: 1; stroke: none; stroke-opacity: 1; fill: rgb(74, 144, 226); fill-opacity: 1;"/></g><g class="composite-shape"><path class="real" d=" M339.33,241.34 C339.33,239.05 341.18,237.2 343.46,237.2 C345.75,237.2 347.6,239.05 347.6,241.34 C347.6,243.62 345.75,245.47 343.46,245.47 C341.18,245.47 339.33,243.62 339.33,241.34 Z" style="stroke-width: 1; stroke: none; stroke-opacity: 1; fill: rgb(74, 144, 226); fill-opacity: 1;"/></g><g class="composite-shape"><path class="real" d=" M316.93,215.74 C316.93,213.45 318.78,211.6 321.06,211.6 C323.35,211.6 325.2,213.45 325.2,215.74 C325.2,218.02 323.35,219.87 321.06,219.87 C318.78,219.87 316.93,218.02 316.93,215.74 Z" style="stroke-width: 1; stroke: none; stroke-opacity: 1; fill: rgb(74, 144, 226); fill-opacity: 1;"/></g><g/></g><g/><g><g><rect rx="0" ry="0" x="278" y="13" width="146" height="29" style="stroke: rgb(0, 0, 0); stroke-width: 1; fill: rgb(255, 255, 255); fill-opacity: 1;"/></g></g><g/></svg>
        <svg xmlns="http://www.w3.org/2000/svg" xmlns:xlink="http://www.w3.org/1999/xlink" width="660" height="300" style="width:660px;height:300px;font-family:Asana-Math, Asana;background:#FFF;"><g><g><g><g><g></g></g></g><g><g transform="matrix(1,0,0,1,286.9000244140625,33.137481689453125)"><path transform="matrix(0.015,0,0,-0.015,0,0)" d="M24 665C24 659 25 653 27 647L184 64C192 37 194 0 246 0L318 0C368 0 372 33 378 54L515 569C529 511 545 454 560 396L652 54C658 31 665 0 713 0L790 0C839 0 844 32 852 62L1009 646C1011 655 1012 660 1012 664C1012 688 994 694 974 694L949 694C914 694 900 680 891 649L752 125C740 178 726 230 712 282L617 637C609 667 604 694 553 694L484 694C437 694 430 666 425 646C414 603 298 178 290 125C280 170 269 215 257 260L152 655C142 693 113 694 95 694L62 694C29 694 24 677 24 665ZM1098 44C1098 21 1105 0 1144 0L1188 0C1234 0 1235 26 1235 50L1235 260C1235 272 1234 284 1236 295C1243 342 1280 396 1345 396C1398 396 1403 364 1403 324L1403 44C1403 19 1410 0 1449 0L1496 0C1537 0 1539 28 1539 44L1539 308C1539 380 1539 469 1391 469C1312 469 1266 437 1232 403L1232 677C1232 720 1205 722 1182 722L1142 722C1101 722 1098 695 1098 674ZM1630 233C1630 74 1717 -11 1884 -11C1953 -11 2015 9 2057 33C2069 40 2073 44 2073 55C2073 55 2073 114 2062 125L2057 127L2053 127C2033 121 1986 62 1886 62C1784 62 1761 136 1759 214L2035 214C2053 214 2079 216 2079 257C2079 364 2037 475 1870 475C1726 475 1630 401 1630 233ZM1760 279C1766 341 1790 402 1870 402C1948 402 1964 346 1967 279ZM2170 45C2170 6 2194 0 2217 0L2261 0C2307 0 2307 53 2307 53L2307 261C2307 279 2308 297 2313 315C2322 346 2354 396 2416 396C2475 396 2475 355 2475 318L2475 44C2475 19 2482 0 2521 0L2568 0C2609 0 2611 28 2611 44L2611 308C2611 380 2611 469 2463 469C2382 469 2336 435 2301 400L2301 420C2301 463 2273 463 2255 463L2215 463C2196 463 2170 460 2170 418Z" stroke="rgb(0,0,0)" stroke-opacity="1" stroke-width="8" fill="rgb(0,0,0)" fill-opacity="1"></path></g></g><g><text x="326.98748779296875" y="19.73748779296875" style="white-space:pre;stroke:none;fill:rgb(0,0,0);fill-opacity:1;font-size:15px;font-family:Arial, Helvetica, sans-serif;font-weight:700;font-style:normal;dominant-baseline:text-before-edge;text-decoration:none solid rgb(0, 0, 0);"> </text></g><g><g><g><g><g transform="matrix(1,0,0,1,331.16253662109375,33.5374755859375)"><path transform="matrix(0.017,0,0,-0.017,0,0)" d="M400 -16C446 -16 513 54 545 84L545 97L532 97C513 79 489 55 462 55C417 55 424 184 424 216C474 278 520 343 558 413C551 428 544 444 536 459L525 459C511 391 456 315 420 257C422 336 445 472 332 473C164 473 27 243 24 93C23 33 43 -16 111 -16C203 -16 297 64 357 131C357 96 348 -15 400 -16ZM284 437C371 437 358 224 357 164C314 113 233 28 162 28C109 28 98 70 99 115C100 202 175 437 284 437Z" stroke="rgb(0,0,0)" stroke-opacity="1" stroke-width="24" fill="rgb(0,0,0)" fill-opacity="1"></path></g></g><g><g><g><g><g transform="matrix(1,0,0,1,342.23748779296875,26.69998779296875)"><path transform="matrix(0.0119,0,0,-0.0119,0,0)" d="M168 267L37 213L32 204L68 153L78 153L184 241L202 99L212 95L280 121L280 131L212 253L350 233L359 241L359 303L353 307L214 283L283 408L280 423L218 442L209 438L183 295L88 393L78 393L34 341L37 331Z" stroke="rgb(0,0,0)" stroke-opacity="1" stroke-width="24" fill="rgb(0,0,0)" fill-opacity="1"></path></g></g></g></g><g><g><g><g transform="matrix(1,0,0,1,341.76251220703125,38.19998779296875)"><path transform="matrix(0.0119,0,0,-0.0119,0,0)" d="M188 465L179 469C128 448 76 434 23 428L23 400L60 400C100 400 104 393 104 327L104 102C104 39 101 32 67 30L21 27L21 -3C121 0 121 0 146 0C171 0 171 0 271 -3L271 27L225 30C191 32 188 39 188 102ZM142 687C112 687 86 661 86 631C86 602 112 576 141 576C170 576 197 602 197 631C197 659 170 687 142 687Z" stroke="rgb(0,0,0)" stroke-opacity="1" stroke-width="24" fill="rgb(0,0,0)" fill-opacity="1"></path></g></g></g></g></g><g><g transform="matrix(1,0,0,1,347.86248779296875,33.5374755859375)"><path transform="matrix(0.017,0,0,-0.017,0,0)" d="" stroke="rgb(0,0,0)" stroke-opacity="1" stroke-width="24" fill="rgb(0,0,0)" fill-opacity="1"></path></g></g><g><g transform="matrix(1,0,0,1,357.20001220703125,33.5374755859375)"><path transform="matrix(0.017,0,0,-0.017,0,0)" d="M509 8L509 61L309 61C215 61 122 139 109 244L492 244L492 297L109 297C121 397 204 480 309 480L509 480L509 533L314 533C167 533 55 411 55 271C55 131 167 8 314 8Z" stroke="rgb(0,0,0)" stroke-opacity="1" stroke-width="24" fill="rgb(0,0,0)" fill-opacity="1"></path></g></g><g><g transform="matrix(1,0,0,1,371.875,33.5374755859375)"><path transform="matrix(0.017,0,0,-0.017,0,0)" d="" stroke="rgb(0,0,0)" stroke-opacity="1" stroke-width="24" fill="rgb(0,0,0)" fill-opacity="1"></path></g></g><g><g transform="matrix(1,0,0,1,376.11248779296875,33.5374755859375)"><path transform="matrix(0.017,0,0,-0.017,0,0)" d="M146 266C146 526 243 632 301 700L282 726C225 675 60 542 60 266C60 159 85 58 133 -32C168 -99 200 -138 282 -215L301 -194C255 -137 146 -15 146 266Z" stroke="rgb(0,0,0)" stroke-opacity="1" stroke-width="24" fill="rgb(0,0,0)" fill-opacity="1"></path></g></g><g><g transform="matrix(1,0,0,1,381.76251220703125,33.5374755859375)"><path transform="matrix(0.017,0,0,-0.017,0,0)" d="M263 689C108 689 29 566 29 324C29 207 50 106 85 57C120 8 176 -20 238 -20C389 -20 465 110 465 366C465 585 400 689 263 689ZM245 654C342 654 381 556 381 316C381 103 343 15 251 15C154 15 113 116 113 360C113 571 150 654 245 654Z" stroke="rgb(0,0,0)" stroke-opacity="1" stroke-width="24" fill="rgb(0,0,0)" fill-opacity="1"></path></g></g><g><g transform="matrix(1,0,0,1,390.25,33.5374755859375)"><path transform="matrix(0.017,0,0,-0.017,0,0)" d="M204 123C177 114 159 108 106 93C99 17 74 -48 16 -144L30 -155L71 -136C152 -31 190 32 218 109Z" stroke="rgb(0,0,0)" stroke-opacity="1" stroke-width="24" fill="rgb(0,0,0)" fill-opacity="1"></path></g></g><g><g transform="matrix(1,0,0,1,397.88751220703125,33.5374755859375)"><path transform="matrix(0.017,0,0,-0.017,0,0)" d="M22 342C22 126 180 -20 415 -20C498 -20 573 -2 642 34L670 84L661 94C599 54 530 34 454 34C259 34 129 164 129 361C129 545 243 667 415 667C513 667 614 627 614 588L614 516L645 516C646 566 650 602 664 668C579 696 506 709 433 709C218 709 22 582 22 342Z" stroke="rgb(0,0,0)" stroke-opacity="1" stroke-width="24" fill="rgb(0,0,0)" fill-opacity="1"></path></g></g><g><g transform="matrix(1,0,0,1,409.92498779296875,33.5374755859375)"><path transform="matrix(0.017,0,0,-0.017,0,0)" d="M51 726L32 700C87 636 187 526 187 266C187 -10 83 -131 32 -194L51 -215C104 -165 273 -23 273 265C273 542 108 675 51 726Z" stroke="rgb(0,0,0)" stroke-opacity="1" stroke-width="24" fill="rgb(0,0,0)" fill-opacity="1"></path></g></g></g></g></g><g><text x="415.57501220703125" y="19.73748779296875" style="white-space:pre;stroke:none;fill:rgb(0,0,0);fill-opacity:1;font-size:15px;font-family:Arial, Helvetica, sans-serif;font-weight:700;font-style:normal;dominant-baseline:text-before-edge;text-decoration:none solid rgb(0, 0, 0);"> </text></g></g></g><g><g><g><g transform="matrix(1,0,0,1,395.79998779296875,114.3)"><path transform="matrix(0.015300000000000001,0,0,-0.015300000000000001,0,0)" d="M413 469L254 104C251 113 166 397 166 405C166 420 179 428 204 429L244 431L244 459C145 456 145 456 125 456C105 456 105 456 6 459L6 431L34 429C62 427 75 407 100 329L202 -7L249 -7L399 335L535 -7L581 -7L718 342C748 409 760 426 782 429L808 431L808 459C726 456 726 456 710 456C694 456 694 456 612 459L612 431L646 429C671 428 685 416 685 398L580 98L465 388C451 422 444 442 436 469Z" stroke="rgb(0,0,0)" stroke-opacity="1" stroke-width="24" fill="rgb(0,0,0)" fill-opacity="1"></path></g></g></g></g><g><g><g><svg x="388.38751220703125" overflow="visible" y="266.9875183105469" height="22" width="5.950000286102295"><path d=" M 5.84 1.19 c 0.00 -0.02 -0.04 -0.04 -0.08 -0.04 c -0.11 0.00 -0.31 0.06 -0.36 0.08 c -2.12 0.75 -2.51 2.33 -2.51 5.19 v 0.42 h 1.13 v -0.90 c 0.00 -1.54 0.08 -3.61 1.49 -4.54 c 0.10 -0.07 0.33 -0.15 0.33 -0.21 z  M 2.89 6.42 v 1.88 h 1.13 v -1.88 z  M 4.02 8.30 h -1.13 v 0.41 c 0.00 2.08 -1.92 2.56 -1.93 2.56 v 0.02 c 0.01 0.00 1.93 0.52 1.93 2.59 h 1.13 c 0.00 -0.74 -0.06 -2.01 -2.07 -2.59 c 2.01 -0.56 2.07 -1.84 2.07 -2.59 v -0.41 z  M 2.89 13.70 v 1.88 h 1.13 v -1.88 z" style="fill:rgb(0,0,0);fill-opacity:1;stroke-width:1px;stroke:none;stroke-opacity:1;"></path><path d=" M 5.84 20.81 c 0.00 0.02 -0.04 0.04 -0.08 0.04 c -0.11 0.00 -0.31 -0.06 -0.36 -0.08 c -2.12 -0.75 -2.51 -2.33 -2.51 -5.19 v -0.42 h 1.13 v 0.90 c 0.00 1.54 0.08 3.61 1.49 4.54 c 0.10 0.07 0.33 0.15 0.33 0.21 z" style="fill:rgb(0,0,0);fill-opacity:1;stroke-width:1px;stroke:none;stroke-opacity:1;"></path></svg></g><g><g transform="matrix(1,0,0,1,394.92498779296875,280.76251831054685)"><path transform="matrix(0.0119,0,0,-0.0119,0,0)" d="M9 1C24 -7 40 -11 52 -11C85 -11 124 18 155 65L231 182L242 113C255 28 278 -11 314 -11C336 -11 368 6 400 35L449 79L440 98C404 68 379 53 363 53C348 53 335 63 325 83C316 102 305 139 300 168L282 269L317 318C364 383 391 406 422 406C438 406 450 398 455 383L469 387L484 472C472 479 463 482 454 482C414 482 374 446 312 354L275 299L269 347C257 446 230 482 171 482C145 482 123 474 114 461L56 378L73 368C103 402 123 416 142 416C175 416 197 375 214 277L225 215L185 153C142 86 108 54 80 54C65 54 54 58 52 63L41 91L21 88C21 53 13 27 9 1Z" stroke="rgb(0,0,0)" stroke-opacity="1" stroke-width="8" fill="rgb(0,0,0)" fill-opacity="1"></path></g></g><g><g transform="matrix(1,0,0,1,403.23748779296875,280.76251831054685)"><path transform="matrix(0.0119,0,0,-0.0119,0,0)" d="M123 111C93 111 66 83 66 53C66 23 93 -5 122 -5C154 -5 182 22 182 53C182 83 154 111 123 111ZM123 456C93 456 66 428 66 398C66 368 93 340 122 340C154 340 182 367 182 397C182 428 154 456 123 456Z" stroke="rgb(0,0,0)" stroke-opacity="1" stroke-width="8" fill="rgb(0,0,0)" fill-opacity="1"></path></g></g><g><g transform="matrix(1,0,0,1,408.57501220703125,280.76251831054685)"><path transform="matrix(0.0119,0,0,-0.0119,0,0)" d="M167 420C188 420 201 421 226 424C171 350 72 266 72 126C72 44 107 -11 160 -11C224 -11 276 44 350 187C341 143 338 118 338 95C338 32 367 -11 412 -11C546 -11 699 238 699 384C699 441 673 482 637 482C624 482 612 478 604 470L554 423L565 404C574 410 583 413 592 413C619 413 635 390 635 350C635 205 538 39 453 39C424 39 403 79 403 134C403 181 412 247 424 290L476 474L469 482L395 460L366 311C354 249 340 209 311 155C271 80 233 39 203 39C168 39 145 78 145 136C145 255 186 352 285 464L275 482C255 473 242 470 214 470C186 470 144 472 115 475L103 476C97 477 92 477 91 477C79 477 70 475 59 470C45 443 34 407 21 352L43 352L60 394C67 411 87 422 111 422C145 422 128 420 167 420Z" stroke="rgb(0,0,0)" stroke-opacity="1" stroke-width="8" fill="rgb(0,0,0)" fill-opacity="1"></path></g></g><g><g><g><g><g transform="matrix(1,0,0,1,417.82501220703125,276.88001831054686)"><path transform="matrix(0.00833,0,0,-0.00833,0,0)" d="M390 646L463 646C541 646 577 641 580 629C583 621 585 602 584 592L580 528L608 528L635 692L544 691C456 690 388 689 353 689C316 689 252 690 166 691L71 692L53 528L82 528L97 588C102 610 109 626 115 633C121 640 159 646 196 646L308 646L222 125C206 34 204 31 164 28L113 25L109 -3L166 -2C206 -1 235 0 251 0C270 0 301 -1 340 -2L384 -3L387 25L328 28C302 29 292 37 292 58C292 67 293 74 296 93Z" stroke="rgb(0,0,0)" stroke-opacity="1" stroke-width="8" fill="rgb(0,0,0)" fill-opacity="1"></path></g></g></g></g></g><g><g transform="matrix(1,0,0,1,423.625,280.76251831054685)"><path transform="matrix(0.0119,0,0,-0.0119,0,0)" d="M9 1C24 -7 40 -11 52 -11C85 -11 124 18 155 65L231 182L242 113C255 28 278 -11 314 -11C336 -11 368 6 400 35L449 79L440 98C404 68 379 53 363 53C348 53 335 63 325 83C316 102 305 139 300 168L282 269L317 318C364 383 391 406 422 406C438 406 450 398 455 383L469 387L484 472C472 479 463 482 454 482C414 482 374 446 312 354L275 299L269 347C257 446 230 482 171 482C145 482 123 474 114 461L56 378L73 368C103 402 123 416 142 416C175 416 197 375 214 277L225 215L185 153C142 86 108 54 80 54C65 54 54 58 52 63L41 91L21 88C21 53 13 27 9 1Z" stroke="rgb(0,0,0)" stroke-opacity="1" stroke-width="8" fill="rgb(0,0,0)" fill-opacity="1"></path></g></g><g><g transform="matrix(1,0,0,1,433.125,280.76251831054685)"><path transform="matrix(0.0119,0,0,-0.0119,0,0)" d="M604 347L604 406L65 406L65 347ZM604 134L604 193L65 193L65 134Z" stroke="rgb(0,0,0)" stroke-opacity="1" stroke-width="8" fill="rgb(0,0,0)" fill-opacity="1"></path></g></g><g><g transform="matrix(1,0,0,1,447.01251220703125,280.76251831054685)"><path transform="matrix(0.0119,0,0,-0.0119,0,0)" d="M555 243L555 299L51 299L51 243Z" stroke="rgb(0,0,0)" stroke-opacity="1" stroke-width="8" fill="rgb(0,0,0)" fill-opacity="1"></path></g></g><g><g transform="matrix(1,0,0,1,456.5875244140625,280.76251831054685)"><path transform="matrix(0.0119,0,0,-0.0119,0,0)" d="M418 -3L418 27L366 30C311 33 301 44 301 96L301 700L60 598L67 548L217 614L217 96C217 44 206 33 152 30L96 27L96 -3C250 0 250 0 261 0C292 0 402 -3 418 -3Z" stroke="rgb(0,0,0)" stroke-opacity="1" stroke-width="8" fill="rgb(0,0,0)" fill-opacity="1"></path></g></g><g><svg x="463.11248779296875" overflow="visible" y="266.9875183105469" height="22" width="5.950000286102295"><path d=" M 0.11 1.19 c 0.00 -0.02 0.04 -0.04 0.08 -0.04 c 0.11 0.00 0.31 0.06 0.36 0.08 c 2.12 0.75 2.51 2.33 2.51 5.19 v 0.42 h -1.13 v -0.90 c 0.00 -1.54 -0.08 -3.61 -1.49 -4.54 c -0.10 -0.07 -0.33 -0.15 -0.33 -0.21 z   M 3.06 6.42 v 1.88 h -1.13 v -1.88 z  M 1.93 8.30 h 1.13 v 0.41 c 0.00 2.08 1.92 2.56 1.93 2.56 v 0.02 c -0.01 0.00 -1.93 0.52 -1.93 2.59 h -1.13 c 0.00 -0.74 0.06 -2.01 2.07 -2.59 c -2.01 -0.56 -2.07 -1.84 -2.07 -2.59 v -0.41 z  M 3.06 13.70 v 1.88 h -1.13 v -1.88 z" style="fill:rgb(0,0,0);fill-opacity:1;stroke-width:1px;stroke:none;stroke-opacity:1;"></path><path d=" M 0.11 20.81 c 0.00 0.02 0.04 0.04 0.08 0.04 c 0.11 0.00 0.31 -0.06 0.36 -0.08 c 2.12 -0.75 2.51 -2.33 2.51 -5.19 v -0.42 h -1.13 v 0.90 c 0.00 1.54 -0.08 3.61 -1.49 4.54 c -0.10 0.07 -0.33 0.15 -0.33 0.21 z" style="fill:rgb(0,0,0);fill-opacity:1;stroke-width:1px;stroke:none;stroke-opacity:1;"></path></svg></g></g></g><g><g><g><svg x="438.38751220703125" overflow="visible" y="216.98751831054688" height="22" width="5.950000286102295"><path d=" M 5.84 1.19 c 0.00 -0.02 -0.04 -0.04 -0.08 -0.04 c -0.11 0.00 -0.31 0.06 -0.36 0.08 c -2.12 0.75 -2.51 2.33 -2.51 5.19 v 0.42 h 1.13 v -0.90 c 0.00 -1.54 0.08 -3.61 1.49 -4.54 c 0.10 -0.07 0.33 -0.15 0.33 -0.21 z  M 2.89 6.42 v 1.88 h 1.13 v -1.88 z  M 4.02 8.30 h -1.13 v 0.41 c 0.00 2.08 -1.92 2.56 -1.93 2.56 v 0.02 c 0.01 0.00 1.93 0.52 1.93 2.59 h 1.13 c 0.00 -0.74 -0.06 -2.01 -2.07 -2.59 c 2.01 -0.56 2.07 -1.84 2.07 -2.59 v -0.41 z  M 2.89 13.70 v 1.88 h 1.13 v -1.88 z" style="fill:rgb(0,0,0);fill-opacity:1;stroke-width:1px;stroke:none;stroke-opacity:1;"></path><path d=" M 5.84 20.81 c 0.00 0.02 -0.04 0.04 -0.08 0.04 c -0.11 0.00 -0.31 -0.06 -0.36 -0.08 c -2.12 -0.75 -2.51 -2.33 -2.51 -5.19 v -0.42 h 1.13 v 0.90 c 0.00 1.54 0.08 3.61 1.49 4.54 c 0.10 0.07 0.33 0.15 0.33 0.21 z" style="fill:rgb(0,0,0);fill-opacity:1;stroke-width:1px;stroke:none;stroke-opacity:1;"></path></svg></g><g><g transform="matrix(1,0,0,1,444.92498779296875,230.76251831054688)"><path transform="matrix(0.0119,0,0,-0.0119,0,0)" d="M9 1C24 -7 40 -11 52 -11C85 -11 124 18 155 65L231 182L242 113C255 28 278 -11 314 -11C336 -11 368 6 400 35L449 79L440 98C404 68 379 53 363 53C348 53 335 63 325 83C316 102 305 139 300 168L282 269L317 318C364 383 391 406 422 406C438 406 450 398 455 383L469 387L484 472C472 479 463 482 454 482C414 482 374 446 312 354L275 299L269 347C257 446 230 482 171 482C145 482 123 474 114 461L56 378L73 368C103 402 123 416 142 416C175 416 197 375 214 277L225 215L185 153C142 86 108 54 80 54C65 54 54 58 52 63L41 91L21 88C21 53 13 27 9 1Z" stroke="rgb(0,0,0)" stroke-opacity="1" stroke-width="8" fill="rgb(0,0,0)" fill-opacity="1"></path></g></g><g><g transform="matrix(1,0,0,1,453.23748779296875,230.76251831054688)"><path transform="matrix(0.0119,0,0,-0.0119,0,0)" d="M123 111C93 111 66 83 66 53C66 23 93 -5 122 -5C154 -5 182 22 182 53C182 83 154 111 123 111ZM123 456C93 456 66 428 66 398C66 368 93 340 122 340C154 340 182 367 182 397C182 428 154 456 123 456Z" stroke="rgb(0,0,0)" stroke-opacity="1" stroke-width="8" fill="rgb(0,0,0)" fill-opacity="1"></path></g></g><g><g transform="matrix(1,0,0,1,458.57501220703125,230.76251831054688)"><path transform="matrix(0.0119,0,0,-0.0119,0,0)" d="M167 420C188 420 201 421 226 424C171 350 72 266 72 126C72 44 107 -11 160 -11C224 -11 276 44 350 187C341 143 338 118 338 95C338 32 367 -11 412 -11C546 -11 699 238 699 384C699 441 673 482 637 482C624 482 612 478 604 470L554 423L565 404C574 410 583 413 592 413C619 413 635 390 635 350C635 205 538 39 453 39C424 39 403 79 403 134C403 181 412 247 424 290L476 474L469 482L395 460L366 311C354 249 340 209 311 155C271 80 233 39 203 39C168 39 145 78 145 136C145 255 186 352 285 464L275 482C255 473 242 470 214 470C186 470 144 472 115 475L103 476C97 477 92 477 91 477C79 477 70 475 59 470C45 443 34 407 21 352L43 352L60 394C67 411 87 422 111 422C145 422 128 420 167 420Z" stroke="rgb(0,0,0)" stroke-opacity="1" stroke-width="8" fill="rgb(0,0,0)" fill-opacity="1"></path></g></g><g><g><g><g><g transform="matrix(1,0,0,1,467.82501220703125,226.8800183105469)"><path transform="matrix(0.00833,0,0,-0.00833,0,0)" d="M390 646L463 646C541 646 577 641 580 629C583 621 585 602 584 592L580 528L608 528L635 692L544 691C456 690 388 689 353 689C316 689 252 690 166 691L71 692L53 528L82 528L97 588C102 610 109 626 115 633C121 640 159 646 196 646L308 646L222 125C206 34 204 31 164 28L113 25L109 -3L166 -2C206 -1 235 0 251 0C270 0 301 -1 340 -2L384 -3L387 25L328 28C302 29 292 37 292 58C292 67 293 74 296 93Z" stroke="rgb(0,0,0)" stroke-opacity="1" stroke-width="8" fill="rgb(0,0,0)" fill-opacity="1"></path></g></g></g></g></g><g><g transform="matrix(1,0,0,1,473.625,230.76251831054688)"><path transform="matrix(0.0119,0,0,-0.0119,0,0)" d="M9 1C24 -7 40 -11 52 -11C85 -11 124 18 155 65L231 182L242 113C255 28 278 -11 314 -11C336 -11 368 6 400 35L449 79L440 98C404 68 379 53 363 53C348 53 335 63 325 83C316 102 305 139 300 168L282 269L317 318C364 383 391 406 422 406C438 406 450 398 455 383L469 387L484 472C472 479 463 482 454 482C414 482 374 446 312 354L275 299L269 347C257 446 230 482 171 482C145 482 123 474 114 461L56 378L73 368C103 402 123 416 142 416C175 416 197 375 214 277L225 215L185 153C142 86 108 54 80 54C65 54 54 58 52 63L41 91L21 88C21 53 13 27 9 1Z" stroke="rgb(0,0,0)" stroke-opacity="1" stroke-width="8" fill="rgb(0,0,0)" fill-opacity="1"></path></g></g><g><g transform="matrix(1,0,0,1,483.125,230.76251831054688)"><path transform="matrix(0.0119,0,0,-0.0119,0,0)" d="M604 347L604 406L65 406L65 347ZM604 134L604 193L65 193L65 134Z" stroke="rgb(0,0,0)" stroke-opacity="1" stroke-width="8" fill="rgb(0,0,0)" fill-opacity="1"></path></g></g><g><g transform="matrix(1,0,0,1,494.6375732421875,230.76251831054688)"><path transform="matrix(0.0119,0,0,-0.0119,0,0)" d="M418 -3L418 27L366 30C311 33 301 44 301 96L301 700L60 598L67 548L217 614L217 96C217 44 206 33 152 30L96 27L96 -3C250 0 250 0 261 0C292 0 402 -3 418 -3Z" stroke="rgb(0,0,0)" stroke-opacity="1" stroke-width="8" fill="rgb(0,0,0)" fill-opacity="1"></path></g></g><g><svg x="501.1624755859375" overflow="visible" y="216.98751831054688" height="22" width="5.950000286102295"><path d=" M 0.11 1.19 c 0.00 -0.02 0.04 -0.04 0.08 -0.04 c 0.11 0.00 0.31 0.06 0.36 0.08 c 2.12 0.75 2.51 2.33 2.51 5.19 v 0.42 h -1.13 v -0.90 c 0.00 -1.54 -0.08 -3.61 -1.49 -4.54 c -0.10 -0.07 -0.33 -0.15 -0.33 -0.21 z   M 3.06 6.42 v 1.88 h -1.13 v -1.88 z  M 1.93 8.30 h 1.13 v 0.41 c 0.00 2.08 1.92 2.56 1.93 2.56 v 0.02 c -0.01 0.00 -1.93 0.52 -1.93 2.59 h -1.13 c 0.00 -0.74 0.06 -2.01 2.07 -2.59 c -2.01 -0.56 -2.07 -1.84 -2.07 -2.59 v -0.41 z  M 3.06 13.70 v 1.88 h -1.13 v -1.88 z" style="fill:rgb(0,0,0);fill-opacity:1;stroke-width:1px;stroke:none;stroke-opacity:1;"></path><path d=" M 0.11 20.81 c 0.00 0.02 0.04 0.04 0.08 0.04 c 0.11 0.00 0.31 -0.06 0.36 -0.08 c 2.12 -0.75 2.51 -2.33 2.51 -5.19 v -0.42 h -1.13 v 0.90 c 0.00 1.54 -0.08 3.61 -1.49 4.54 c -0.10 0.07 -0.33 0.15 -0.33 0.21 z" style="fill:rgb(0,0,0);fill-opacity:1;stroke-width:1px;stroke:none;stroke-opacity:1;"></path></svg></g></g></g></svg>
</svg>
