<svg xmlns="http://www.w3.org/2000/svg" xmlns:xlink="http://www.w3.org/1999/xlink" x="0" y="0" width="661.3333740234375" height="301.3333435058594" style="
        width:661.3333740234375px;
        height:301.3333435058594px;
        background: #FFF;
        fill: none;
">
        
        
        <svg xmlns="http://www.w3.org/2000/svg" class="role-diagram-draw-area"><g class="shapes-region" style="stroke: black; fill: none;"><g class="composite-shape"><path class="real" d=" M201.73,124.14 C201.73,121.85 203.58,120 205.86,120 C208.15,120 210,121.85 210,124.14 C210,126.42 208.15,128.27 205.86,128.27 C203.58,128.27 201.73,126.42 201.73,124.14 Z" style="stroke-width: 1; stroke: none; stroke-opacity: 1; fill: rgb(0, 0, 0); fill-opacity: 1;"/></g><g class="composite-shape"><path class="real" d=" M131.73,174.14 C131.73,171.85 133.58,170 135.86,170 C138.15,170 140,171.85 140,174.14 C140,176.42 138.15,178.27 135.86,178.27 C133.58,178.27 131.73,176.42 131.73,174.14 Z" style="stroke-width: 1; stroke: none; stroke-opacity: 1; fill: rgb(0, 0, 0); fill-opacity: 1;"/></g><g class="composite-shape"><path class="real" d=" M350,175.86 C350,173.58 351.85,171.73 354.14,171.73 C356.42,171.73 358.27,173.58 358.27,175.86 C358.27,178.15 356.42,180 354.14,180 C351.85,180 350,178.15 350,175.86 Z" style="stroke-width: 1; stroke: none; stroke-opacity: 1; fill: rgb(0, 0, 0); fill-opacity: 1;"/></g><g class="composite-shape"><path class="real" d=" M410,165.86 C410,163.58 411.85,161.73 414.14,161.73 C416.42,161.73 418.27,163.58 418.27,165.86 C418.27,168.15 416.42,170 414.14,170 C411.85,170 410,168.15 410,165.86 Z" style="stroke-width: 1; stroke: none; stroke-opacity: 1; fill: rgb(0, 0, 0); fill-opacity: 1;"/></g><g class="composite-shape"><path class="real" d=" M461.73,194.14 C461.73,191.85 463.58,190 465.86,190 C468.15,190 470,191.85 470,194.14 C470,196.42 468.15,198.27 465.86,198.27 C463.58,198.27 461.73,196.42 461.73,194.14 Z" style="stroke-width: 1; stroke: none; stroke-opacity: 1; fill: rgb(0, 0, 0); fill-opacity: 1;"/></g><g class="composite-shape"><path class="real" d=" M531.73,144.14 C531.73,141.85 533.58,140 535.86,140 C538.15,140 540,141.85 540,144.14 C540,146.42 538.15,148.27 535.86,148.27 C533.58,148.27 531.73,146.42 531.73,144.14 Z" style="stroke-width: 1; stroke: none; stroke-opacity: 1; fill: rgb(0, 0, 0); fill-opacity: 1;"/></g><g class="composite-shape"><path class="real" d=" M231.73,194.14 C231.73,191.85 233.58,190 235.86,190 C238.15,190 240,191.85 240,194.14 C240,196.42 238.15,198.27 235.86,198.27 C233.58,198.27 231.73,196.42 231.73,194.14 Z" style="stroke-width: 1; stroke: none; stroke-opacity: 1; fill: rgb(0, 0, 0); fill-opacity: 1;"/></g><g class="composite-shape"><path class="real" d=" M260,175.86 C260,173.58 261.85,171.73 264.14,171.73 C266.42,171.73 268.27,173.58 268.27,175.86 C268.27,178.15 266.42,180 264.14,180 C261.85,180 260,178.15 260,175.86 Z" style="stroke-width: 1; stroke: none; stroke-opacity: 1; fill: rgb(0, 0, 0); fill-opacity: 1;"/></g><g class="arrow-line"><path class="connection real" stroke-dasharray="" d="  M330,60 L330,260" style="stroke: rgb(0, 0, 0); stroke-width: 1; fill: none; fill-opacity: 1;"/></g><g class="arrow-line"><path class="connection real" stroke-dasharray="" d="  M560,160 L120,160" style="stroke: rgb(0, 0, 0); stroke-width: 1; fill: none; fill-opacity: 1;"/></g><g class="arrow-line"><path class="connection real" stroke-dasharray="" d="  M120,160 C142.3,172.61 160.81,158.55 175.33,141.64 C189.85,124.73 193.8,116.41 200,110 C206.2,103.59 226.67,185.15 240,194.14 C253.33,203.13 265,165 290,140 C315,115 337.67,216.88 350,190 C362.33,163.13 350.67,122.88 370,120 C389.33,117.13 430.33,197.13 450,200 C469.67,202.88 485,155 510,130 C535,105 545,195 570,170" style="stroke: rgb(0, 0, 0); stroke-width: 3; fill: none; fill-opacity: 1;"/></g><g/></g><g/><g/><g/></svg>
        <svg xmlns="http://www.w3.org/2000/svg" xmlns:xlink="http://www.w3.org/1999/xlink" width="660" height="300" style="width:660px;height:300px;font-family:Asana-Math, Asana;background:#FFF;"><g><g><g><text x="275.66668701171875" y="16.666656494140625" style="white-space:pre;stroke:none;fill:rgb(0,0,0);fill-opacity:1;font-size:15px;font-family:Arial, Helvetica, sans-serif;font-weight:700;font-style:normal;dominant-baseline:text-before-edge;text-decoration:none solid rgb(0, 0, 0);">Overfit Dataset</text></g><g><text x="382.375" y="16.666656494140625" style="white-space:pre;stroke:none;fill:rgb(0,0,0);fill-opacity:1;font-size:15px;font-family:Arial, Helvetica, sans-serif;font-weight:700;font-style:normal;dominant-baseline:text-before-edge;text-decoration:none solid rgb(0, 0, 0);"> </text></g></g></g></svg>
</svg>
