<svg xmlns="http://www.w3.org/2000/svg" xmlns:xlink="http://www.w3.org/1999/xlink" x="0" y="0" width="661.3333740234375" height="301.3333435058594" style="
        width:661.3333740234375px;
        height:301.3333435058594px;
        background: #FFF;
        fill: none;
">
        
        
        <svg xmlns="http://www.w3.org/2000/svg" class="role-diagram-draw-area"><g class="shapes-region" style="stroke: black; fill: none;"><g class="shape"><polygon class="real" points=" 320,48 332.33,141.53 208,211.86 184,88" style="stroke: none; stroke-width: 1; fill: rgb(74, 144, 226); fill-opacity: 0.3; stroke-opacity: 1;"/></g><g class="shape"><polygon class="real" points=" 456,64 464,184 332.33,141.53 320,48" style="stroke: none; stroke-opacity: 1; stroke-width: 1; fill: rgb(126, 211, 33); fill-opacity: 0.3;"/></g><g class="shape"><polygon class="real" points=" 464,184 340.33,263.17 254.78,230 208,211.86 332.33,141.53" style="stroke: none; stroke-opacity: 1; stroke-width: 1; fill: rgb(255, 142, 0); fill-opacity: 0.3;"/></g><g class="arrow-line"><path class="connection real" stroke-dasharray="" d="  M219,158.36 L469,158.36" style="stroke: rgb(0, 0, 0); stroke-width: 1; fill: none; fill-opacity: 1;"/></g><g class="arrow-line"><path class="connection real" stroke-dasharray="" d="  M344,272 L344,44.73" style="stroke: rgb(0, 0, 0); stroke-width: 1; fill: none; fill-opacity: 1;"/></g><g class="composite-shape"><path class="real" d=" M407.73,76.12 C407.73,73.85 409.58,72 411.86,72 C414.15,72 416,73.85 416,76.12 C416,78.4 414.15,80.25 411.86,80.25 C409.58,80.25 407.73,78.4 407.73,76.12 Z" style="stroke-width: 1; stroke: none; stroke-opacity: 1; fill: rgb(0, 0, 0); fill-opacity: 1;"/></g><g class="arrow-line"><path class="connection real" stroke-dasharray="2.25 3.685" d="  M344,158.36 L409.32,79.21" style="stroke: rgb(0, 0, 0); stroke-width: 2; fill: none; fill-opacity: 1;"/><g stroke="none" fill="#000" transform="matrix(-0.6364821547541595,0.7712914278529888,-0.7712914278529888,-0.6364821547541595,411.8636363636363,76.12334255461224)" style="stroke: none; fill: rgb(0, 0, 0); stroke-width: 2;"><path d=" M11.61,-5.58 L0,0 L11.61,5.58 Z"/></g></g><g class="composite-shape"><path class="real" d=" M216,99.86 C216,97.58 217.85,95.73 220.14,95.73 C222.42,95.73 224.27,97.58 224.27,99.86 C224.27,102.15 222.42,104 220.14,104 C217.85,104 216,102.15 216,99.86 Z" style="stroke-width: 1; stroke: none; stroke-opacity: 1; fill: rgb(0, 0, 0); fill-opacity: 1;"/></g><g class="arrow-line"><path class="connection real" stroke-dasharray="2.25 3.685" d="  M344,158.36 L223.75,101.57" style="stroke: rgb(0, 0, 0); stroke-width: 2; fill: none; fill-opacity: 1;"/><g stroke="none" fill="#000" transform="matrix(0.9042316706138988,0.4270422530134433,-0.4270422530134433,0.9042316706138988,220.13636363636363,99.86363636363636)" style="stroke: none; fill: rgb(0, 0, 0); stroke-width: 2;"><path d=" M11.61,-5.58 L0,0 L11.61,5.58 Z"/></g></g><g class="arrow-line"><path class="connection real" stroke-dasharray="2.25 3.685" d="  M220.14,99.86 L339.86,243.86" style="stroke: rgb(0, 0, 0); stroke-width: 2; fill: none; fill-opacity: 1;"/></g><g class="composite-shape"><path class="real" d=" M335.73,243.86 C335.73,241.58 337.58,239.73 339.86,239.73 C342.15,239.73 344,241.58 344,243.86 C344,246.15 342.15,248 339.86,248 C337.58,248 335.73,246.15 335.73,243.86 Z" style="stroke-width: 1; stroke: none; stroke-opacity: 1; fill: rgb(0, 0, 0); fill-opacity: 1;"/></g><g class="arrow-line"><path class="connection real" stroke-dasharray="2.25 3.685" d="  M344,158.36 L340.06,239.87" style="stroke: rgb(0, 0, 0); stroke-width: 2; fill: none; fill-opacity: 1;"/><g stroke="none" fill="#000" transform="matrix(0.048326789452716006,-0.998831578105735,0.998831578105735,0.048326789452716006,339.8636363636364,243.86363636363637)" style="stroke: none; fill: rgb(0, 0, 0); stroke-width: 2;"><path d=" M11.61,-5.58 L0,0 L11.61,5.58 Z"/></g></g><g class="arrow-line"><path class="connection real" stroke-dasharray="2.25 3.685" d="  M339.86,243.86 L411.86,76.12" style="stroke: rgb(0, 0, 0); stroke-width: 2; fill: none; fill-opacity: 1;"/></g><g class="arrow-line"><path class="connection real" stroke-dasharray="2.25 3.685" d="  M220.14,99.86 L411.86,76.12" style="stroke: rgb(0, 0, 0); stroke-width: 2; fill: none; fill-opacity: 1;"/></g><g class="arrow-line"><path class="connection real" stroke-dasharray="" d="  M332.33,141.53 L208,211.86" style="stroke: rgb(0, 0, 0); stroke-width: 2; fill: none; fill-opacity: 1; stroke-opacity: 1;"/></g><g class="arrow-line"><path class="connection real" stroke-dasharray="" d="  M464,184 L332.33,141.53" style="stroke: rgb(0, 0, 0); stroke-opacity: 1; stroke-width: 2; fill: none; fill-opacity: 1;"/></g><g class="arrow-line"><path class="connection real" stroke-dasharray="" d="  M332.33,141.53 L320,48" style="stroke: rgb(0, 0, 0); stroke-opacity: 1; stroke-width: 2; fill: none; fill-opacity: 1;"/></g><g class="arrow-line"><path class="connection real" stroke-dasharray="" d="  M208,144 C188.96,166.52 152.77,174.62 121.43,160.65" style="stroke: rgb(0, 0, 0); stroke-width: 1; fill: none; fill-opacity: 1;"/><g stroke="#000" transform="matrix(0.9051982704125097,0.4249895189792345,-0.4249895189792345,0.9051982704125097,120,160)" style="stroke: rgb(0, 0, 0); stroke-width: 1;"><path d=" M10.93,-3.29 Q4.96,-0.45 0,0 Q4.96,0.45 10.93,3.29"/></g></g><g class="arrow-line"><path class="connection real" stroke-dasharray="" d="  M432,120 C442.07,133.84 475.6,138.94 494.57,121.39" style="stroke: rgb(0, 0, 0); stroke-width: 1; fill: none; fill-opacity: 1;"/><g stroke="#000" transform="matrix(-0.6971651028545642,0.716910607650483,-0.716910607650483,-0.6971651028545642,496,120)" style="stroke: rgb(0, 0, 0); stroke-width: 1;"><path d=" M10.93,-3.29 Q4.96,-0.45 0,0 Q4.96,0.45 10.93,3.29"/></g></g><g class="arrow-line"><path class="connection real" stroke-dasharray="" d="  M402.17,223.58 C393.67,243.38 437.68,259.14 464.54,248.28" style="stroke: rgb(0, 0, 0); stroke-width: 1; fill: none; fill-opacity: 1;"/><g stroke="#000" transform="matrix(-0.9093813630590416,0.41596338362995305,-0.41596338362995305,-0.9093813630590416,466.1666564941406,247.58380681818184)" style="stroke: rgb(0, 0, 0); stroke-width: 1;"><path d=" M10.93,-3.29 Q4.96,-0.45 0,0 Q4.96,0.45 10.93,3.29"/></g></g><g/></g><g/><g/><g/></svg>
        <svg xmlns="http://www.w3.org/2000/svg" xmlns:xlink="http://www.w3.org/1999/xlink" width="660" height="300" style="width:660px;height:300px;font-family:Asana-Math, Asana;background:#FFF;"><g><g><g><g transform="matrix(1,0,0,1,209.66668701171875,27)"><path transform="matrix(0.018,0,0,-0.018,0,0)" d="M91 47C91 26 94 0 135 0L183 0C230 0 230 31 230 44L230 311L350 311C365 282 382 254 513 28C525 6 533 0 561 0L618 0C634 0 649 1 652 24C651 31 648 37 645 43L481 320C511 328 641 353 641 497C641 551 621 605 578 640C520 687 438 693 380 694L137 694C94 694 91 667 91 648ZM230 383L230 574L231 608L357 608C446 608 507 593 507 495C507 397 444 383 356 383ZM733 233C733 74 820 -11 987 -11C1056 -11 1118 9 1160 33C1172 40 1176 44 1176 55C1176 55 1176 114 1165 125L1160 127L1156 127C1136 121 1089 62 989 62C887 62 864 136 862 214L1138 214C1156 214 1182 216 1182 257C1182 364 1140 475 973 475C829 475 733 401 733 233ZM863 279C869 341 893 402 973 402C1051 402 1067 346 1070 279ZM1274 -149C1274 -160 1272 -195 1318 -195L1364 -195C1394 -195 1411 -186 1411 -147L1411 26C1443 3 1475 -11 1523 -11C1625 -11 1736 35 1737 224C1737 265 1735 299 1726 335C1706 412 1654 469 1554 469C1510 469 1457 458 1407 427C1399 457 1378 458 1361 458L1319 458C1279 458 1274 435 1274 412ZM1411 100L1411 358C1428 370 1452 391 1498 391C1579 391 1600 318 1600 242L1600 230C1600 192 1599 145 1574 106C1554 75 1520 62 1487 62C1441 62 1420 91 1411 100ZM1804 43C1804 24 1808 0 1849 0L1892 0C1909 0 1910 1 1920 6C1936 19 1938 22 1938 50L1938 225C1938 238 1938 250 1941 263C1951 308 1989 343 2032 358C2065 369 2083 364 2095 373C2099 379 2100 380 2100 391L2100 447C2100 461 2098 469 2080 469L2079 469C2061 469 1986 462 1933 388C1932 438 1932 439 1923 450C1912 461 1908 463 1883 463L1850 463C1829 463 1804 461 1804 418ZM2146 233C2146 74 2233 -11 2400 -11C2469 -11 2531 9 2573 33C2585 40 2589 44 2589 55C2589 55 2589 114 2578 125L2573 127L2569 127C2549 121 2502 62 2402 62C2300 62 2277 136 2275 214L2551 214C2569 214 2595 216 2595 257C2595 364 2553 475 2386 475C2242 475 2146 401 2146 233ZM2276 279C2282 341 2306 402 2386 402C2464 402 2480 346 2483 279ZM2658 50C2658 47 2659 45 2660 42L2664 37C2689 21 2754 -11 2843 -11C2942 -11 3023 19 3023 140C3023 221 2963 261 2935 275C2873 307 2762 295 2762 354C2762 392 2795 402 2836 402C2933 402 2960 348 2981 348C2986 348 2990 352 2993 363C2999 397 3003 415 3003 426C3003 440 2997 443 2979 450C2942 465 2904 474 2857 475L2831 475C2747 473 2663 446 2663 331C2663 250 2730 210 2767 196C2824 175 2923 183 2923 121C2923 79 2890 68 2845 68C2738 68 2702 143 2684 143C2672 143 2671 127 2670 120C2662 76 2658 59 2658 50ZM3079 233C3079 74 3166 -11 3333 -11C3402 -11 3464 9 3506 33C3518 40 3522 44 3522 55C3522 55 3522 114 3511 125L3506 127L3502 127C3482 121 3435 62 3335 62C3233 62 3210 136 3208 214L3484 214C3502 214 3528 216 3528 257C3528 364 3486 475 3319 475C3175 475 3079 401 3079 233ZM3209 279C3215 341 3239 402 3319 402C3397 402 3413 346 3416 279ZM3619 45C3619 6 3643 0 3666 0L3710 0C3756 0 3756 53 3756 53L3756 261C3756 279 3757 297 3762 315C3771 346 3803 396 3865 396C3924 396 3924 355 3924 318L3924 44C3924 19 3931 0 3970 0L4017 0C4058 0 4060 28 4060 44L4060 308C4060 380 4060 469 3912 469C3831 469 3785 435 3750 400L3750 420C3750 463 3722 463 3704 463L3664 463C3645 463 3619 460 3619 418ZM4142 422C4142 411 4146 385 4186 385L4207 385L4207 152C4207 121 4207 91 4216 61C4233 6 4271 -11 4311 -11C4385 -11 4493 21 4493 47C4493 47 4485 102 4470 102C4457 102 4427 67 4380 67C4352 67 4338 85 4338 159C4338 168 4339 176 4339 185L4339 385L4432 385C4470 386 4475 411 4475 421C4475 430 4470 458 4430 458L4339 458L4339 544C4339 568 4329 589 4294 589L4258 589C4241 589 4210 588 4210 544L4210 458L4186 458C4146 458 4142 433 4142 422ZM4555 137C4555 69 4605 -11 4701 -11C4783 -11 4833 23 4855 40C4855 23 4864 0 4896 0L4944 0C4984 0 4989 23 4989 45L4989 308C4989 408 4943 475 4782 475C4719 475 4670 463 4625 443C4603 432 4597 433 4597 417C4597 417 4600 352 4607 340L4611 337L4615 336C4637 337 4667 405 4782 405C4845 405 4853 359 4853 312L4853 291C4764 290 4555 273 4555 137ZM4686 137C4686 215 4792 227 4853 232L4853 154C4853 80 4788 62 4755 62C4712 62 4686 101 4686 137ZM5071 422C5071 411 5075 385 5115 385L5136 385L5136 152C5136 121 5136 91 5145 61C5162 6 5200 -11 5240 -11C5314 -11 5422 21 5422 47C5422 47 5414 102 5399 102C5386 102 5356 67 5309 67C5281 67 5267 85 5267 159C5267 168 5268 176 5268 185L5268 385L5361 385C5399 386 5404 411 5404 421C5404 430 5399 458 5359 458L5268 458L5268 544C5268 568 5258 589 5223 589L5187 589C5170 589 5139 588 5139 544L5139 458L5115 458C5075 458 5071 433 5071 422ZM5510 626C5510 586 5533 580 5556 580L5608 580C5617 581 5652 579 5652 624L5652 676C5652 716 5629 722 5606 722L5555 722C5536 721 5510 722 5510 676ZM5514 50C5514 33 5513 0 5558 0L5604 0C5649 0 5648 33 5648 45L5648 408C5648 434 5646 458 5599 458L5558 458C5513 458 5514 425 5514 413ZM5739 224C5739 36 5855 -11 5984 -11C6107 -11 6227 35 6227 220C6227 465 6065 475 5968 475C5855 475 5739 424 5739 224ZM5876 214L5876 241C5876 310 5874 402 5982 402C6089 402 6089 313 6090 255L6090 228C6089 161 6092 67 5983 67C5879 67 5878 155 5876 214ZM6318 45C6318 6 6342 0 6365 0L6409 0C6455 0 6455 53 6455 53L6455 261C6455 279 6456 297 6461 315C6470 346 6502 396 6564 396C6623 396 6623 355 6623 318L6623 44C6623 19 6630 0 6669 0L6716 0C6757 0 6759 28 6759 44L6759 308C6759 380 6759 469 6611 469C6530 469 6484 435 6449 400L6449 420C6449 463 6421 463 6403 463L6363 463C6344 463 6318 460 6318 418ZM7217 224C7217 36 7333 -11 7462 -11C7585 -11 7705 35 7705 220C7705 465 7543 475 7446 475C7333 475 7217 424 7217 224ZM7354 214L7354 241C7354 310 7352 402 7460 402C7567 402 7567 313 7568 255L7568 228C7567 161 7570 67 7461 67C7357 67 7356 155 7354 214ZM7768 422C7768 412 7771 385 7811 385L7823 385L7823 46C7823 31 7822 0 7867 0L7909 0C7956 0 7956 27 7956 52L7956 385L8006 385C8046 385 8051 411 8051 422C8051 437 8041 458 8008 458L7953 458L7953 580C7953 613 7953 660 8020 660C8076 660 8091 623 8106 623C8118 623 8118 639 8118 648L8118 709L8116 714L8113 718C8099 728 8054 733 8018 733L8016 733C7861 732 7823 644 7823 546L7823 458L7813 458C7772 458 7768 433 7768 422ZM8500 347C8500 124 8603 -23 8867 -23C8951 -23 8995 -13 9061 24C9073 31 9085 35 9085 51C9085 56 9084 60 9081 96C9078 123 9078 142 9066 142C9036 142 9016 78 8872 78C8688 78 8642 201 8642 348C8642 490 8687 616 8868 616C8983 616 9024 551 9043 551C9050 551 9054 559 9058 580C9069 640 9073 658 9073 666C9073 670 9072 672 9070 676C9063 683 9064 682 9047 688C8987 706 8948 717 8869 717C8679 717 8500 643 8500 347ZM9203 45C9203 5 9225 0 9251 0L9292 0C9335 2 9337 22 9337 49L9337 677C9337 714 9316 722 9291 722L9245 722C9217 722 9203 704 9203 675ZM9457 139C9457 68 9463 -11 9617 -11C9672 -11 9716 -3 9765 44C9765 37 9763 0 9806 0L9853 0C9879 0 9898 8 9898 43L9898 416C9897 451 9878 458 9853 458L9809 458C9797 458 9785 457 9775 449C9764 437 9762 436 9762 406L9762 181C9762 72 9696 50 9657 50C9599 50 9593 67 9593 123C9593 131 9594 139 9594 147L9594 413C9593 430 9594 458 9547 458L9501 458C9456 458 9457 424 9457 414ZM9990 50C9990 47 9991 45 9992 42L9996 37C10021 21 10086 -11 10175 -11C10274 -11 10355 19 10355 140C10355 221 10295 261 10267 275C10205 307 10094 295 10094 354C10094 392 10127 402 10168 402C10265 402 10292 348 10313 348C10318 348 10322 352 10325 363C10331 397 10335 415 10335 426C10335 440 10329 443 10311 450C10274 465 10236 474 10189 475L10163 475C10079 473 9995 446 9995 331C9995 250 10062 210 10099 196C10156 175 10255 183 10255 121C10255 79 10222 68 10177 68C10070 68 10034 143 10016 143C10004 143 10003 127 10002 120C9994 76 9990 59 9990 50ZM10402 422C10402 411 10406 385 10446 385L10467 385L10467 152C10467 121 10467 91 10476 61C10493 6 10531 -11 10571 -11C10645 -11 10753 21 10753 47C10753 47 10745 102 10730 102C10717 102 10687 67 10640 67C10612 67 10598 85 10598 159C10598 168 10599 176 10599 185L10599 385L10692 385C10730 386 10735 411 10735 421C10735 430 10730 458 10690 458L10599 458L10599 544C10599 568 10589 589 10554 589L10518 589C10501 589 10470 588 10470 544L10470 458L10446 458C10406 458 10402 433 10402 422ZM10815 233C10815 74 10902 -11 11069 -11C11138 -11 11200 9 11242 33C11254 40 11258 44 11258 55C11258 55 11258 114 11247 125L11242 127L11238 127C11218 121 11171 62 11071 62C10969 62 10946 136 10944 214L11220 214C11238 214 11264 216 11264 257C11264 364 11222 475 11055 475C10911 475 10815 401 10815 233ZM10945 279C10951 341 10975 402 11055 402C11133 402 11149 346 11152 279ZM11356 43C11356 24 11360 0 11401 0L11444 0C11461 0 11462 1 11472 6C11488 19 11490 22 11490 50L11490 225C11490 238 11490 250 11493 263C11503 308 11541 343 11584 358C11617 369 11635 364 11647 373C11651 379 11652 380 11652 391L11652 447C11652 461 11650 469 11632 469L11631 469C11613 469 11538 462 11485 388C11484 438 11484 439 11475 450C11464 461 11460 463 11435 463L11402 463C11381 463 11356 461 11356 418ZM12126 55C12126 30 12124 0 12171 0L12204 0C12246 0 12249 27 12249 46L12249 569C12257 536 12270 504 12306 410L12410 153C12453 49 12453 22 12512 22L12532 22C12561 22 12581 25 12602 75C12649 189 12787 524 12797 569C12797 560 12798 550 12798 541L12798 52C12798 32 12796 0 12843 0L12875 0C12916 0 12921 23 12921 48L12921 648C12921 666 12918 694 12876 694L12787 694C12738 694 12729 668 12718 642C12546 222 12526 167 12521 148C12502 208 12322 650 12312 666C12295 693 12271 694 12253 694L12171 694C12145 694 12126 685 12126 650ZM13043 233C13043 74 13130 -11 13297 -11C13366 -11 13428 9 13470 33C13482 40 13486 44 13486 55C13486 55 13486 114 13475 125L13470 127L13466 127C13446 121 13399 62 13299 62C13197 62 13174 136 13172 214L13448 214C13466 214 13492 216 13492 257C13492 364 13450 475 13283 475C13139 475 13043 401 13043 233ZM13173 279C13179 341 13203 402 13283 402C13361 402 13377 346 13380 279ZM13554 137C13554 69 13604 -11 13700 -11C13782 -11 13832 23 13854 40C13854 23 13863 0 13895 0L13943 0C13983 0 13988 23 13988 45L13988 308C13988 408 13942 475 13781 475C13718 475 13669 463 13624 443C13602 432 13596 433 13596 417C13596 417 13599 352 13606 340L13610 337L13614 336C13636 337 13666 405 13781 405C13844 405 13852 359 13852 312L13852 291C13763 290 13554 273 13554 137ZM13685 137C13685 215 13791 227 13852 232L13852 154C13852 80 13787 62 13754 62C13711 62 13685 101 13685 137ZM14108 45C14108 6 14132 0 14155 0L14199 0C14245 0 14245 53 14245 53L14245 261C14245 279 14246 297 14251 315C14260 346 14292 396 14354 396C14413 396 14413 355 14413 318L14413 44C14413 19 14420 0 14459 0L14506 0C14547 0 14549 28 14549 44L14549 308C14549 380 14549 469 14401 469C14320 469 14274 435 14239 400L14239 420C14239 463 14211 463 14193 463L14153 463C14134 463 14108 460 14108 418ZM14641 50C14641 47 14642 45 14643 42L14647 37C14672 21 14737 -11 14826 -11C14925 -11 15006 19 15006 140C15006 221 14946 261 14918 275C14856 307 14745 295 14745 354C14745 392 14778 402 14819 402C14916 402 14943 348 14964 348C14969 348 14973 352 14976 363C14982 397 14986 415 14986 426C14986 440 14980 443 14962 450C14925 465 14887 474 14840 475L14814 475C14730 473 14646 446 14646 331C14646 250 14713 210 14750 196C14807 175 14906 183 14906 121C14906 79 14873 68 14828 68C14721 68 14685 143 14667 143C14655 143 14654 127 14653 120C14645 76 14641 59 14641 50Z" stroke="rgb(0,0,0)" stroke-opacity="1" stroke-width="8" fill="rgb(0,0,0)" fill-opacity="1"></path></g></g><g><text x="480.25" y="11" style="white-space:pre;stroke:none;fill:rgb(0,0,0);fill-opacity:1;font-size:18px;font-family:Arial, Helvetica, sans-serif;font-weight:400;font-style:normal;dominant-baseline:text-before-edge;text-decoration:none solid rgb(0, 0, 0);"> </text></g></g></g><g><g><g><g transform="matrix(1,0,0,1,190.66668701171875,102.3)"><path transform="matrix(0.015300000000000001,0,0,-0.015300000000000001,0,0)" d="M409 -15C458 -15 530 43 565 74L565 81C562 86 558 90 553 92C531 76 472 25 461 77C461 151 506 393 533 463L533 473C511 465 488 459 465 456L455 445C453 381 421 203 395 146C372 97 311 42 254 42C199 42 184 90 185 137C188 248 238 356 241 467C213 462 187 457 161 453C179 227 9 -91 53 -286C76 -285 109 -281 131 -273L131 -261C81 -173 121 -38 138 36L138 35C204 -77 344 37 395 104L395 101C387 65 354 -15 409 -15Z" stroke="rgb(0,0,0)" stroke-opacity="1" stroke-width="8" fill="rgb(0,0,0)" fill-opacity="1"></path></g></g><g><g><g><g><g transform="matrix(1,0,0,1,200.45831298828125,105.66834350585938)"><path transform="matrix(0.01071,0,0,-0.01071,0,0)" d="M16 23L16 -3C203 -3 203 0 239 0C275 0 275 -3 468 -3L468 82C353 77 307 81 122 77L304 270C401 373 431 428 431 503C431 618 353 689 226 689C154 689 105 669 56 619L39 483L68 483L81 529C97 587 133 612 200 612C286 612 341 558 341 473C341 398 299 324 186 204Z" stroke="rgb(0,0,0)" stroke-opacity="1" stroke-width="8" fill="rgb(0,0,0)" fill-opacity="1"></path></g></g></g></g></g></g></g><g><g><g><g transform="matrix(1,0,0,1,422.66668701171875,78.3)"><path transform="matrix(0.015300000000000001,0,0,-0.015300000000000001,0,0)" d="M409 -15C458 -15 530 43 565 74L565 81C562 86 558 90 553 92C531 76 472 25 461 77C461 151 506 393 533 463L533 473C511 465 488 459 465 456L455 445C453 381 421 203 395 146C372 97 311 42 254 42C199 42 184 90 185 137C188 248 238 356 241 467C213 462 187 457 161 453C179 227 9 -91 53 -286C76 -285 109 -281 131 -273L131 -261C81 -173 121 -38 138 36L138 35C204 -77 344 37 395 104L395 101C387 65 354 -15 409 -15Z" stroke="rgb(0,0,0)" stroke-opacity="1" stroke-width="8" fill="rgb(0,0,0)" fill-opacity="1"></path></g></g><g><g><g><g><g transform="matrix(1,0,0,1,432.45831298828125,81.66834350585938)"><path transform="matrix(0.01071,0,0,-0.01071,0,0)" d="M418 -3L418 27L366 30C311 33 301 44 301 96L301 700L60 598L67 548L217 614L217 96C217 44 206 33 152 30L96 27L96 -3C250 0 250 0 261 0C292 0 402 -3 418 -3Z" stroke="rgb(0,0,0)" stroke-opacity="1" stroke-width="8" fill="rgb(0,0,0)" fill-opacity="1"></path></g></g></g></g></g></g></g><g><g><g><g transform="matrix(1,0,0,1,313.66668701171875,246.3)"><path transform="matrix(0.015300000000000001,0,0,-0.015300000000000001,0,0)" d="M409 -15C458 -15 530 43 565 74L565 81C562 86 558 90 553 92C531 76 472 25 461 77C461 151 506 393 533 463L533 473C511 465 488 459 465 456L455 445C453 381 421 203 395 146C372 97 311 42 254 42C199 42 184 90 185 137C188 248 238 356 241 467C213 462 187 457 161 453C179 227 9 -91 53 -286C76 -285 109 -281 131 -273L131 -261C81 -173 121 -38 138 36L138 35C204 -77 344 37 395 104L395 101C387 65 354 -15 409 -15Z" stroke="rgb(0,0,0)" stroke-opacity="1" stroke-width="8" fill="rgb(0,0,0)" fill-opacity="1"></path></g></g><g><g><g><g><g transform="matrix(1,0,0,1,323.45831298828125,249.66834350585938)"><path transform="matrix(0.01071,0,0,-0.01071,0,0)" d="M462 224C462 345 355 366 308 374C388 436 418 482 418 541C418 630 344 689 233 689C165 689 120 670 72 622L43 498L74 498L92 554C103 588 166 622 218 622C283 622 336 569 336 506C336 431 277 368 206 368C198 368 187 369 174 370L159 371L147 318L154 312C192 329 211 334 238 334C321 334 369 281 369 190C369 88 308 21 215 21C169 21 128 36 98 64C74 86 61 109 42 163L15 153C36 92 44 56 50 6C103 -12 147 -20 184 -20C307 -20 462 87 462 224Z" stroke="rgb(0,0,0)" stroke-opacity="1" stroke-width="8" fill="rgb(0,0,0)" fill-opacity="1"></path></g></g></g></g></g></g></g><g><g><g><g transform="matrix(1,0,0,1,97.66668701171875,147.16668701171875)"><path transform="matrix(0.0135,0,0,-0.0135,0,0)" d="M66 347C66 155 197 -22 394 -22C478 -22 518 -9 588 33L582 103C532 71 498 42 395 42C258 42 156 178 156 347C156 515 258 652 392 652C471 652 513 629 562 599L577 682C488 715 443 716 379 716C236 716 66 574 66 347ZM720 0L795 0L795 722L720 722ZM958 122C958 70 958 -11 1063 -11C1118 -11 1186 3 1238 48L1238 0L1314 0L1314 445L1236 445L1236 165C1236 155 1236 146 1235 136C1230 93 1191 45 1116 45C1048 45 1037 67 1036 110L1036 445L958 445ZM1422 34C1497 -7 1558 -11 1592 -11C1726 -11 1755 72 1755 127C1755 192 1709 234 1668 252C1606 280 1499 267 1499 340C1499 365 1514 401 1583 401C1655 401 1687 383 1727 364L1738 430C1683 453 1648 461 1592 461C1456 461 1428 382 1428 329C1428 259 1488 220 1532 206C1563 196 1606 191 1628 184C1648 178 1684 158 1684 120C1684 93 1666 52 1591 52C1510 52 1462 86 1434 102ZM1796 386L1880 386L1880 117C1880 7 1929 -11 1962 -11C2007 -11 2058 -1 2110 27L2094 86C2080 76 2049 53 2006 53C1954 53 1952 112 1952 140L1952 386L2093 386L2093 445L1952 445L1952 571L1882 571L1882 445L1796 445ZM2173 226C2173 102 2260 -11 2391 -11C2454 -11 2506 11 2549 40L2543 106C2499 74 2454 51 2391 51C2315 51 2247 117 2243 220L2553 220L2553 249C2544 420 2446 461 2375 461C2269 461 2173 360 2173 226ZM2248 275C2259 324 2299 399 2375 399C2404 399 2479 386 2496 275ZM2664 0L2739 0L2739 206C2739 352 2850 386 2909 388L2909 455C2803 453 2750 385 2734 360L2734 450L2664 450ZM3348 554C3408 554 3442 563 3478 577L3478 59L3353 59L3353 0L3683 0L3683 59L3558 59L3558 678L3539 678C3512 653 3463 612 3348 612Z" stroke="rgb(0,0,0)" stroke-opacity="1" stroke-width="8" fill="rgb(0,0,0)" fill-opacity="1"></path></g></g></g></g><g><g><g><g transform="matrix(1,0,0,1,483.66668701171875,111.16667175292969)"><path transform="matrix(0.0135,0,0,-0.0135,0,0)" d="M66 347C66 155 197 -22 394 -22C478 -22 518 -9 588 33L582 103C532 71 498 42 395 42C258 42 156 178 156 347C156 515 258 652 392 652C471 652 513 629 562 599L577 682C488 715 443 716 379 716C236 716 66 574 66 347ZM720 0L795 0L795 722L720 722ZM958 122C958 70 958 -11 1063 -11C1118 -11 1186 3 1238 48L1238 0L1314 0L1314 445L1236 445L1236 165C1236 155 1236 146 1235 136C1230 93 1191 45 1116 45C1048 45 1037 67 1036 110L1036 445L958 445ZM1422 34C1497 -7 1558 -11 1592 -11C1726 -11 1755 72 1755 127C1755 192 1709 234 1668 252C1606 280 1499 267 1499 340C1499 365 1514 401 1583 401C1655 401 1687 383 1727 364L1738 430C1683 453 1648 461 1592 461C1456 461 1428 382 1428 329C1428 259 1488 220 1532 206C1563 196 1606 191 1628 184C1648 178 1684 158 1684 120C1684 93 1666 52 1591 52C1510 52 1462 86 1434 102ZM1796 386L1880 386L1880 117C1880 7 1929 -11 1962 -11C2007 -11 2058 -1 2110 27L2094 86C2080 76 2049 53 2006 53C1954 53 1952 112 1952 140L1952 386L2093 386L2093 445L1952 445L1952 571L1882 571L1882 445L1796 445ZM2173 226C2173 102 2260 -11 2391 -11C2454 -11 2506 11 2549 40L2543 106C2499 74 2454 51 2391 51C2315 51 2247 117 2243 220L2553 220L2553 249C2544 420 2446 461 2375 461C2269 461 2173 360 2173 226ZM2248 275C2259 324 2299 399 2375 399C2404 399 2479 386 2496 275ZM2664 0L2739 0L2739 206C2739 352 2850 386 2909 388L2909 455C2803 453 2750 385 2734 360L2734 450L2664 450ZM3299 514L3342 459C3346 461 3358 613 3480 613C3566 613 3624 545 3624 461C3624 354 3533 283 3437 194L3307 65L3307 0L3707 0L3707 71L3379 70C3459 146 3507 192 3540 221C3644 313 3707 367 3707 464C3707 577 3626 678 3493 678C3377 678 3324 598 3299 514Z" stroke="rgb(0,0,0)" stroke-opacity="1" stroke-width="8" fill="rgb(0,0,0)" fill-opacity="1"></path></g></g></g></g><g><g><g><g transform="matrix(1,0,0,1,435.66668701171875,239.16668701171875)"><path transform="matrix(0.0135,0,0,-0.0135,0,0)" d="M66 347C66 155 197 -22 394 -22C478 -22 518 -9 588 33L582 103C532 71 498 42 395 42C258 42 156 178 156 347C156 515 258 652 392 652C471 652 513 629 562 599L577 682C488 715 443 716 379 716C236 716 66 574 66 347ZM720 0L795 0L795 722L720 722ZM958 122C958 70 958 -11 1063 -11C1118 -11 1186 3 1238 48L1238 0L1314 0L1314 445L1236 445L1236 165C1236 155 1236 146 1235 136C1230 93 1191 45 1116 45C1048 45 1037 67 1036 110L1036 445L958 445ZM1422 34C1497 -7 1558 -11 1592 -11C1726 -11 1755 72 1755 127C1755 192 1709 234 1668 252C1606 280 1499 267 1499 340C1499 365 1514 401 1583 401C1655 401 1687 383 1727 364L1738 430C1683 453 1648 461 1592 461C1456 461 1428 382 1428 329C1428 259 1488 220 1532 206C1563 196 1606 191 1628 184C1648 178 1684 158 1684 120C1684 93 1666 52 1591 52C1510 52 1462 86 1434 102ZM1796 386L1880 386L1880 117C1880 7 1929 -11 1962 -11C2007 -11 2058 -1 2110 27L2094 86C2080 76 2049 53 2006 53C1954 53 1952 112 1952 140L1952 386L2093 386L2093 445L1952 445L1952 571L1882 571L1882 445L1796 445ZM2173 226C2173 102 2260 -11 2391 -11C2454 -11 2506 11 2549 40L2543 106C2499 74 2454 51 2391 51C2315 51 2247 117 2243 220L2553 220L2553 249C2544 420 2446 461 2375 461C2269 461 2173 360 2173 226ZM2248 275C2259 324 2299 399 2375 399C2404 399 2479 386 2496 275ZM2664 0L2739 0L2739 206C2739 352 2850 386 2909 388L2909 455C2803 453 2750 385 2734 360L2734 450L2664 450ZM3299 81C3376 -17 3472 -22 3503 -22C3628 -22 3715 76 3715 180C3715 250 3672 321 3576 354C3671 408 3687 482 3687 525C3687 608 3609 678 3506 678C3467 678 3376 668 3313 569L3349 514C3354 524 3359 534 3365 543C3396 589 3448 618 3504 618C3564 618 3605 581 3605 525C3605 464 3561 403 3496 391C3489 390 3482 390 3424 385L3424 323L3497 323C3586 323 3625 253 3625 182C3625 101 3576 40 3502 40C3473 40 3380 47 3310 142Z" stroke="rgb(0,0,0)" stroke-opacity="1" stroke-width="8" fill="rgb(0,0,0)" fill-opacity="1"></path></g></g></g></g></svg>
</svg>
