<svg xmlns="http://www.w3.org/2000/svg" xmlns:xlink="http://www.w3.org/1999/xlink" x="0" y="0" width="661.3333740234375" height="301.3333435058594" style="
        width:661.3333740234375px;
        height:301.3333435058594px;
        background: #FFF;
        fill: none;
">
        
        
        <svg xmlns="http://www.w3.org/2000/svg" class="role-diagram-draw-area"><g class="shapes-region" style="stroke: black; fill: none;"><g class="arrow-line"><path class="connection real" stroke-dasharray="" d="  M167,208 L167,130" style="stroke: rgb(0, 0, 0); stroke-width: 1; fill: none; fill-opacity: 1;"/><g stroke="#000" transform="matrix(3.061616997868383e-16,1,-1,3.061616997868383e-16,167,128)" style="stroke: rgb(0, 0, 0); stroke-width: 1;"><path d=" M10.93,-3.29 Q4.96,-0.45 0,0 Q4.96,0.45 10.93,3.29"/></g></g><g class="arrow-line"><path class="connection real" stroke-dasharray="" d="  M263,208 L263,130" style="stroke: rgb(0, 0, 0); stroke-width: 1; fill: none; fill-opacity: 1;"/><g stroke="#000" transform="matrix(3.061616997868383e-16,1,-1,3.061616997868383e-16,263,128)" style="stroke: rgb(0, 0, 0); stroke-width: 1;"><path d=" M10.93,-3.29 Q4.96,-0.45 0,0 Q4.96,0.45 10.93,3.29"/></g></g><g class="arrow-line"><path class="connection real" stroke-dasharray="" d="  M311,112 L389,112" style="stroke: rgb(0, 0, 0); stroke-width: 1; fill: none; fill-opacity: 1;"/><g stroke="#000" transform="matrix(-1,1.2246467991473532e-16,-1.2246467991473532e-16,-1,391,111.99999999999999)" style="stroke: rgb(0, 0, 0); stroke-width: 1;"><path d=" M10.93,-3.29 Q4.96,-0.45 0,0 Q4.96,0.45 10.93,3.29"/></g></g><g class="arrow-line"><path class="connection real" stroke-dasharray="" d="  M463,128 L463,206" style="stroke: rgb(0, 0, 0); stroke-width: 1; fill: none; fill-opacity: 1;"/><g stroke="#000" transform="matrix(-1.8369701987210297e-16,-1,1,-1.8369701987210297e-16,463,207.99999999999994)" style="stroke: rgb(0, 0, 0); stroke-width: 1;"><path d=" M10.93,-3.29 Q4.96,-0.45 0,0 Q4.96,0.45 10.93,3.29"/></g></g><g/></g><g/><g/><g/></svg>
        <svg xmlns="http://www.w3.org/2000/svg" xmlns:xlink="http://www.w3.org/1999/xlink" width="660" height="300" style="width:660px;height:300px;font-family:Asana-Math, Asana;background:#FFF;"><g><g><g><g transform="matrix(1,0,0,1,269.66668701171875,35)"><path transform="matrix(0.018,0,0,-0.018,0,0)" d="M458 49C458 34 456 0 502 0L538 0C584 0 583 31 583 47L583 214L700 323L923 28C938 9 946 0 976 0L1035 0C1050 0 1066 1 1068 25C1067 33 1062 39 1057 46L786 403L786 404L1036 639C1049 651 1062 660 1062 674C1062 684 1054 694 1033 694L966 694C945 694 931 691 915 678L583 367L583 652C582 687 563 694 538 694L503 694C459 694 458 664 458 646ZM1161 233C1161 74 1248 -11 1415 -11C1484 -11 1546 9 1588 33C1600 40 1604 44 1604 55C1604 55 1604 114 1593 125L1588 127L1584 127C1564 121 1517 62 1417 62C1315 62 1292 136 1290 214L1566 214C1584 214 1610 216 1610 257C1610 364 1568 475 1401 475C1257 475 1161 401 1161 233ZM1291 279C1297 341 1321 402 1401 402C1479 402 1495 346 1498 279ZM1702 43C1702 24 1706 0 1747 0L1790 0C1807 0 1808 1 1818 6C1834 19 1836 22 1836 50L1836 225C1836 238 1836 250 1839 263C1849 308 1887 343 1930 358C1963 369 1981 364 1993 373C1997 379 1998 380 1998 391L1998 447C1998 461 1996 469 1978 469L1977 469C1959 469 1884 462 1831 388C1830 438 1830 439 1821 450C1810 461 1806 463 1781 463L1748 463C1727 463 1702 461 1702 418ZM2073 45C2073 6 2097 0 2120 0L2164 0C2210 0 2210 53 2210 53L2210 261C2210 279 2211 297 2216 315C2225 346 2257 396 2319 396C2378 396 2378 355 2378 318L2378 44C2378 19 2385 0 2424 0L2471 0C2512 0 2514 28 2514 44L2514 308C2514 380 2514 469 2366 469C2285 469 2239 435 2204 400L2204 420C2204 463 2176 463 2158 463L2118 463C2099 463 2073 460 2073 418ZM2605 233C2605 74 2692 -11 2859 -11C2928 -11 2990 9 3032 33C3044 40 3048 44 3048 55C3048 55 3048 114 3037 125L3032 127L3028 127C3008 121 2961 62 2861 62C2759 62 2736 136 2734 214L3010 214C3028 214 3054 216 3054 257C3054 364 3012 475 2845 475C2701 475 2605 401 2605 233ZM2735 279C2741 341 2765 402 2845 402C2923 402 2939 346 2942 279ZM3146 45C3146 5 3168 0 3194 0L3235 0C3278 2 3280 22 3280 49L3280 677C3280 714 3259 722 3234 722L3188 722C3160 722 3146 704 3146 675ZM3799 46C3799 23 3804 0 3845 0L3897 0C3931 0 3941 19 3941 44L3941 298L4180 298C4201 298 4226 300 4226 347C4226 369 4221 393 4182 393L3941 393L3941 590C4036 589 4218 586 4227 586C4271 586 4272 617 4272 631L4272 646C4272 671 4266 691 4227 691L3844 691C3802 691 3799 663 3799 649ZM4347 139C4347 68 4353 -11 4507 -11C4562 -11 4606 -3 4655 44C4655 37 4653 0 4696 0L4743 0C4769 0 4788 8 4788 43L4788 416C4787 451 4768 458 4743 458L4699 458C4687 458 4675 457 4665 449C4654 437 4652 436 4652 406L4652 181C4652 72 4586 50 4547 50C4489 50 4483 67 4483 123C4483 131 4484 139 4484 147L4484 413C4483 430 4484 458 4437 458L4391 458C4346 458 4347 424 4347 414ZM4908 45C4908 6 4932 0 4955 0L4999 0C5045 0 5045 53 5045 53L5045 261C5045 279 5046 297 5051 315C5060 346 5092 396 5154 396C5213 396 5213 355 5213 318L5213 44C5213 19 5220 0 5259 0L5306 0C5347 0 5349 28 5349 44L5349 308C5349 380 5349 469 5201 469C5120 469 5074 435 5039 400L5039 420C5039 463 5011 463 4993 463L4953 463C4934 463 4908 460 4908 418ZM5446 228C5446 52 5545 -11 5684 -11C5750 -11 5802 4 5846 27C5857 33 5866 37 5866 52L5866 60C5860 126 5861 125 5853 130L5848 131C5827 128 5791 67 5687 67C5586 67 5583 160 5583 223L5583 242C5583 296 5584 393 5680 397C5695 397 5728 398 5757 388C5800 373 5820 340 5836 340C5855 340 5860 418 5860 418C5860 426 5858 430 5852 434C5795 465 5755 475 5690 475C5560 475 5446 425 5446 228ZM5920 422C5920 411 5924 385 5964 385L5985 385L5985 152C5985 121 5985 91 5994 61C6011 6 6049 -11 6089 -11C6163 -11 6271 21 6271 47C6271 47 6263 102 6248 102C6235 102 6205 67 6158 67C6130 67 6116 85 6116 159C6116 168 6117 176 6117 185L6117 385L6210 385C6248 386 6253 411 6253 421C6253 430 6248 458 6208 458L6117 458L6117 544C6117 568 6107 589 6072 589L6036 589C6019 589 5988 588 5988 544L5988 458L5964 458C5924 458 5920 433 5920 422ZM6359 626C6359 586 6382 580 6405 580L6457 580C6466 581 6501 579 6501 624L6501 676C6501 716 6478 722 6455 722L6404 722C6385 721 6359 722 6359 676ZM6363 50C6363 33 6362 0 6407 0L6453 0C6498 0 6497 33 6497 45L6497 408C6497 434 6495 458 6448 458L6407 458C6362 458 6363 425 6363 413ZM6588 224C6588 36 6704 -11 6833 -11C6956 -11 7076 35 7076 220C7076 465 6914 475 6817 475C6704 475 6588 424 6588 224ZM6725 214L6725 241C6725 310 6723 402 6831 402C6938 402 6938 313 6939 255L6939 228C6938 161 6941 67 6832 67C6728 67 6727 155 6725 214ZM7167 45C7167 6 7191 0 7214 0L7258 0C7304 0 7304 53 7304 53L7304 261C7304 279 7305 297 7310 315C7319 346 7351 396 7413 396C7472 396 7472 355 7472 318L7472 44C7472 19 7479 0 7518 0L7565 0C7606 0 7608 28 7608 44L7608 308C7608 380 7608 469 7460 469C7379 469 7333 435 7298 400L7298 420C7298 463 7270 463 7252 463L7212 463C7193 463 7167 460 7167 418ZM7700 50C7700 47 7701 45 7702 42L7706 37C7731 21 7796 -11 7885 -11C7984 -11 8065 19 8065 140C8065 221 8005 261 7977 275C7915 307 7804 295 7804 354C7804 392 7837 402 7878 402C7975 402 8002 348 8023 348C8028 348 8032 352 8035 363C8041 397 8045 415 8045 426C8045 440 8039 443 8021 450C7984 465 7946 474 7899 475L7873 475C7789 473 7705 446 7705 331C7705 250 7772 210 7809 196C7866 175 7965 183 7965 121C7965 79 7932 68 7887 68C7780 68 7744 143 7726 143C7714 143 7713 127 7712 120C7704 76 7700 59 7700 50Z" stroke="rgb(0,0,0)" stroke-opacity="1" stroke-width="8" fill="rgb(0,0,0)" fill-opacity="1"></path></g></g></g></g><g><g><g><g transform="matrix(1,0,0,1,161.66668701171875,232.14665649414061)"><path transform="matrix(0.024480000000000002,0,0,-0.024480000000000002,0,0)" d="M9 1C24 -7 40 -11 52 -11C85 -11 124 18 155 65L231 182L242 113C255 28 278 -11 314 -11C336 -11 368 6 400 35L449 79L440 98C404 68 379 53 363 53C348 53 335 63 325 83C316 102 305 139 300 168L282 269L317 318C364 383 391 406 422 406C438 406 450 398 455 383L469 387L484 472C472 479 463 482 454 482C414 482 374 446 312 354L275 299L269 347C257 446 230 482 171 482C145 482 123 474 114 461L56 378L73 368C103 402 123 416 142 416C175 416 197 375 214 277L225 215L185 153C142 86 108 54 80 54C65 54 54 58 52 63L41 91L21 88C21 53 13 27 9 1Z" stroke="rgb(0,0,0)" stroke-opacity="1" stroke-width="8" fill="rgb(0,0,0)" fill-opacity="1"></path></g></g><g><g><g><g><g transform="matrix(1,0,0,1,174.61456298828125,236.46931298828125)"><path transform="matrix(0.017136,0,0,-0.017136,0,0)" d="M34 388L41 368L73 389C110 412 113 414 120 414C130 414 138 404 138 391C138 384 134 361 130 347L64 107C56 76 51 49 51 30C51 6 62 -9 81 -9C107 -9 143 12 241 85L231 103L205 86C176 67 153 56 144 56C137 56 131 66 131 76C131 86 133 95 138 116L215 420C219 437 221 448 221 456C221 473 212 482 196 482C174 482 137 461 62 408ZM228 712C199 712 170 679 170 645C170 620 185 604 209 604C240 604 264 633 264 671C264 695 249 712 228 712Z" stroke="rgb(0,0,0)" stroke-opacity="1" stroke-width="8" fill="rgb(0,0,0)" fill-opacity="1"></path></g></g></g></g></g></g></g><g><g><g><g transform="matrix(1,0,0,1,257.66668701171875,232.14665649414061)"><path transform="matrix(0.024480000000000002,0,0,-0.024480000000000002,0,0)" d="M9 1C24 -7 40 -11 52 -11C85 -11 124 18 155 65L231 182L242 113C255 28 278 -11 314 -11C336 -11 368 6 400 35L449 79L440 98C404 68 379 53 363 53C348 53 335 63 325 83C316 102 305 139 300 168L282 269L317 318C364 383 391 406 422 406C438 406 450 398 455 383L469 387L484 472C472 479 463 482 454 482C414 482 374 446 312 354L275 299L269 347C257 446 230 482 171 482C145 482 123 474 114 461L56 378L73 368C103 402 123 416 142 416C175 416 197 375 214 277L225 215L185 153C142 86 108 54 80 54C65 54 54 58 52 63L41 91L21 88C21 53 13 27 9 1Z" stroke="rgb(0,0,0)" stroke-opacity="1" stroke-width="8" fill="rgb(0,0,0)" fill-opacity="1"></path></g></g><g><g><g><g><g transform="matrix(1,0,0,1,270.61456298828125,236.46931298828125)"><path transform="matrix(0.017136,0,0,-0.017136,0,0)" d="M194 351L94 -144C83 -196 65 -231 47 -231C33 -231 15 -225 -6 -212L-14 -269C-4 -274 9 -276 24 -276C64 -276 104 -233 140 -152C160 -107 174 -57 202 70L278 420C282 438 284 451 284 457C284 473 275 482 259 482C237 482 200 461 125 408L97 388L104 368L136 389C173 412 176 414 183 414C193 414 201 404 201 391C201 382 194 356 194 351ZM285 712C256 712 227 679 227 645C227 620 242 604 266 604C297 604 321 633 321 671C321 695 306 712 285 712Z" stroke="rgb(0,0,0)" stroke-opacity="1" stroke-width="8" fill="rgb(0,0,0)" fill-opacity="1"></path></g></g></g></g></g></g></g><g><g><g><g transform="matrix(1,0,0,1,144.66668701171875,112.14665649414063)"><path transform="matrix(0.024480000000000002,0,0,-0.024480000000000002,0,0)" d="M622 285C624 428 505 474 382 473C398 548 407 624 432 699L432 705C418 700 404 693 389 684L354 473C184 474 30 367 27 185C24 37 142 -8 268 -16L229 -289C249 -282 267 -274 282 -261C283 -179 288 -98 299 -16C481 -3 618 87 622 285ZM539 273C537 130 451 11 301 6L377 449C487 447 541 380 539 273ZM349 449L270 5C155 14 106 73 108 187C111 336 196 444 349 449Z" stroke="rgb(0,0,0)" stroke-opacity="1" stroke-width="8" fill="rgb(0,0,0)" fill-opacity="1"></path></g></g><g><g transform="matrix(1,0,0,1,160.94793701171875,112.14665649414063)"><path transform="matrix(0.024480000000000002,0,0,-0.024480000000000002,0,0)" d="M146 266C146 526 243 632 301 700L282 726C225 675 60 542 60 266C60 159 85 58 133 -32C168 -99 200 -138 282 -215L301 -194C255 -137 146 -15 146 266Z" stroke="rgb(0,0,0)" stroke-opacity="1" stroke-width="8" fill="rgb(0,0,0)" fill-opacity="1"></path></g></g><g><g transform="matrix(1,0,0,1,169.08331298828125,112.14665649414063)"><path transform="matrix(0.024480000000000002,0,0,-0.024480000000000002,0,0)" d="M9 1C24 -7 40 -11 52 -11C85 -11 124 18 155 65L231 182L242 113C255 28 278 -11 314 -11C336 -11 368 6 400 35L449 79L440 98C404 68 379 53 363 53C348 53 335 63 325 83C316 102 305 139 300 168L282 269L317 318C364 383 391 406 422 406C438 406 450 398 455 383L469 387L484 472C472 479 463 482 454 482C414 482 374 446 312 354L275 299L269 347C257 446 230 482 171 482C145 482 123 474 114 461L56 378L73 368C103 402 123 416 142 416C175 416 197 375 214 277L225 215L185 153C142 86 108 54 80 54C65 54 54 58 52 63L41 91L21 88C21 53 13 27 9 1Z" stroke="rgb(0,0,0)" stroke-opacity="1" stroke-width="8" fill="rgb(0,0,0)" fill-opacity="1"></path></g></g><g><g><g><g><g transform="matrix(1,0,0,1,182.03125,116.46931298828125)"><path transform="matrix(0.017136,0,0,-0.017136,0,0)" d="M34 388L41 368L73 389C110 412 113 414 120 414C130 414 138 404 138 391C138 384 134 361 130 347L64 107C56 76 51 49 51 30C51 6 62 -9 81 -9C107 -9 143 12 241 85L231 103L205 86C176 67 153 56 144 56C137 56 131 66 131 76C131 86 133 95 138 116L215 420C219 437 221 448 221 456C221 473 212 482 196 482C174 482 137 461 62 408ZM228 712C199 712 170 679 170 645C170 620 185 604 209 604C240 604 264 633 264 671C264 695 249 712 228 712Z" stroke="rgb(0,0,0)" stroke-opacity="1" stroke-width="8" fill="rgb(0,0,0)" fill-opacity="1"></path></g></g></g></g></g><g><g transform="matrix(1,0,0,1,188.25,112.14665649414063)"><path transform="matrix(0.024480000000000002,0,0,-0.024480000000000002,0,0)" d="M51 726L32 700C87 636 187 526 187 266C187 -10 83 -131 32 -194L51 -215C104 -165 273 -23 273 265C273 542 108 675 51 726Z" stroke="rgb(0,0,0)" stroke-opacity="1" stroke-width="8" fill="rgb(0,0,0)" fill-opacity="1"></path></g></g></g></g><g><g><g><g transform="matrix(1,0,0,1,240.66668701171875,112.14665649414063)"><path transform="matrix(0.024480000000000002,0,0,-0.024480000000000002,0,0)" d="M622 285C624 428 505 474 382 473C398 548 407 624 432 699L432 705C418 700 404 693 389 684L354 473C184 474 30 367 27 185C24 37 142 -8 268 -16L229 -289C249 -282 267 -274 282 -261C283 -179 288 -98 299 -16C481 -3 618 87 622 285ZM539 273C537 130 451 11 301 6L377 449C487 447 541 380 539 273ZM349 449L270 5C155 14 106 73 108 187C111 336 196 444 349 449Z" stroke="rgb(0,0,0)" stroke-opacity="1" stroke-width="8" fill="rgb(0,0,0)" fill-opacity="1"></path></g></g><g><g transform="matrix(1,0,0,1,256.94793701171875,112.14665649414063)"><path transform="matrix(0.024480000000000002,0,0,-0.024480000000000002,0,0)" d="M146 266C146 526 243 632 301 700L282 726C225 675 60 542 60 266C60 159 85 58 133 -32C168 -99 200 -138 282 -215L301 -194C255 -137 146 -15 146 266Z" stroke="rgb(0,0,0)" stroke-opacity="1" stroke-width="8" fill="rgb(0,0,0)" fill-opacity="1"></path></g></g><g><g transform="matrix(1,0,0,1,265.08331298828125,112.14665649414063)"><path transform="matrix(0.024480000000000002,0,0,-0.024480000000000002,0,0)" d="M9 1C24 -7 40 -11 52 -11C85 -11 124 18 155 65L231 182L242 113C255 28 278 -11 314 -11C336 -11 368 6 400 35L449 79L440 98C404 68 379 53 363 53C348 53 335 63 325 83C316 102 305 139 300 168L282 269L317 318C364 383 391 406 422 406C438 406 450 398 455 383L469 387L484 472C472 479 463 482 454 482C414 482 374 446 312 354L275 299L269 347C257 446 230 482 171 482C145 482 123 474 114 461L56 378L73 368C103 402 123 416 142 416C175 416 197 375 214 277L225 215L185 153C142 86 108 54 80 54C65 54 54 58 52 63L41 91L21 88C21 53 13 27 9 1Z" stroke="rgb(0,0,0)" stroke-opacity="1" stroke-width="8" fill="rgb(0,0,0)" fill-opacity="1"></path></g></g><g><g><g><g><g transform="matrix(1,0,0,1,278.03125,116.46931298828125)"><path transform="matrix(0.017136,0,0,-0.017136,0,0)" d="M194 351L94 -144C83 -196 65 -231 47 -231C33 -231 15 -225 -6 -212L-14 -269C-4 -274 9 -276 24 -276C64 -276 104 -233 140 -152C160 -107 174 -57 202 70L278 420C282 438 284 451 284 457C284 473 275 482 259 482C237 482 200 461 125 408L97 388L104 368L136 389C173 412 176 414 183 414C193 414 201 404 201 391C201 382 194 356 194 351ZM285 712C256 712 227 679 227 645C227 620 242 604 266 604C297 604 321 633 321 671C321 695 306 712 285 712Z" stroke="rgb(0,0,0)" stroke-opacity="1" stroke-width="8" fill="rgb(0,0,0)" fill-opacity="1"></path></g></g></g></g></g><g><g transform="matrix(1,0,0,1,285.10418701171875,112.14665649414063)"><path transform="matrix(0.024480000000000002,0,0,-0.024480000000000002,0,0)" d="M51 726L32 700C87 636 187 526 187 266C187 -10 83 -131 32 -194L51 -215C104 -165 273 -23 273 265C273 542 108 675 51 726Z" stroke="rgb(0,0,0)" stroke-opacity="1" stroke-width="8" fill="rgb(0,0,0)" fill-opacity="1"></path></g></g></g></g><g><g><g><g transform="matrix(1,0,0,1,408.66668701171875,114.44875)"><path transform="matrix(0.024480000000000002,0,0,-0.024480000000000002,0,0)" d="M622 285C624 428 505 474 382 473C398 548 407 624 432 699L432 705C418 700 404 693 389 684L354 473C184 474 30 367 27 185C24 37 142 -8 268 -16L229 -289C249 -282 267 -274 282 -261C283 -179 288 -98 299 -16C481 -3 618 87 622 285ZM539 273C537 130 451 11 301 6L377 449C487 447 541 380 539 273ZM349 449L270 5C155 14 106 73 108 187C111 336 196 444 349 449Z" stroke="rgb(0,0,0)" stroke-opacity="1" stroke-width="8" fill="rgb(0,0,0)" fill-opacity="1"></path></g></g><g><g transform="matrix(1,0,0,1,424.94793701171875,114.44875)"><path transform="matrix(0.024480000000000002,0,0,-0.024480000000000002,0,0)" d="M146 266C146 526 243 632 301 700L282 726C225 675 60 542 60 266C60 159 85 58 133 -32C168 -99 200 -138 282 -215L301 -194C255 -137 146 -15 146 266Z" stroke="rgb(0,0,0)" stroke-opacity="1" stroke-width="8" fill="rgb(0,0,0)" fill-opacity="1"></path></g></g><g><g transform="matrix(1,0,0,1,433.08331298828125,114.44875)"><path transform="matrix(0.024480000000000002,0,0,-0.024480000000000002,0,0)" d="M9 1C24 -7 40 -11 52 -11C85 -11 124 18 155 65L231 182L242 113C255 28 278 -11 314 -11C336 -11 368 6 400 35L449 79L440 98C404 68 379 53 363 53C348 53 335 63 325 83C316 102 305 139 300 168L282 269L317 318C364 383 391 406 422 406C438 406 450 398 455 383L469 387L484 472C472 479 463 482 454 482C414 482 374 446 312 354L275 299L269 347C257 446 230 482 171 482C145 482 123 474 114 461L56 378L73 368C103 402 123 416 142 416C175 416 197 375 214 277L225 215L185 153C142 86 108 54 80 54C65 54 54 58 52 63L41 91L21 88C21 53 13 27 9 1Z" stroke="rgb(0,0,0)" stroke-opacity="1" stroke-width="8" fill="rgb(0,0,0)" fill-opacity="1"></path></g></g><g><g><g><g><g transform="matrix(1,0,0,1,446.03125,118.77140649414062)"><path transform="matrix(0.017136,0,0,-0.017136,0,0)" d="M34 388L41 368L73 389C110 412 113 414 120 414C130 414 138 404 138 391C138 384 134 361 130 347L64 107C56 76 51 49 51 30C51 6 62 -9 81 -9C107 -9 143 12 241 85L231 103L205 86C176 67 153 56 144 56C137 56 131 66 131 76C131 86 133 95 138 116L215 420C219 437 221 448 221 456C221 473 212 482 196 482C174 482 137 461 62 408ZM228 712C199 712 170 679 170 645C170 620 185 604 209 604C240 604 264 633 264 671C264 695 249 712 228 712Z" stroke="rgb(0,0,0)" stroke-opacity="1" stroke-width="8" fill="rgb(0,0,0)" fill-opacity="1"></path></g></g></g></g></g><g><g transform="matrix(1,0,0,1,452.25,114.44875)"><path transform="matrix(0.024480000000000002,0,0,-0.024480000000000002,0,0)" d="M51 726L32 700C87 636 187 526 187 266C187 -10 83 -131 32 -194L51 -215C104 -165 273 -23 273 265C273 542 108 675 51 726Z" stroke="rgb(0,0,0)" stroke-opacity="1" stroke-width="8" fill="rgb(0,0,0)" fill-opacity="1"></path></g></g><g><g><g><g><g transform="matrix(1,0,0,1,461.79168701171875,104.80265649414062)"><path transform="matrix(0.017136,0,0,-0.017136,0,0)" d="M390 646L463 646C541 646 577 641 580 629C583 621 585 602 584 592L580 528L608 528L635 692L544 691C456 690 388 689 353 689C316 689 252 690 166 691L71 692L53 528L82 528L97 588C102 610 109 626 115 633C121 640 159 646 196 646L308 646L222 125C206 34 204 31 164 28L113 25L109 -3L166 -2C206 -1 235 0 251 0C270 0 301 -1 340 -2L384 -3L387 25L328 28C302 29 292 37 292 58C292 67 293 74 296 93Z" stroke="rgb(0,0,0)" stroke-opacity="1" stroke-width="8" fill="rgb(0,0,0)" fill-opacity="1"></path></g></g></g></g></g><g><g transform="matrix(1,0,0,1,473.70831298828125,114.44875)"><path transform="matrix(0.024480000000000002,0,0,-0.024480000000000002,0,0)" d="M622 285C624 428 505 474 382 473C398 548 407 624 432 699L432 705C418 700 404 693 389 684L354 473C184 474 30 367 27 185C24 37 142 -8 268 -16L229 -289C249 -282 267 -274 282 -261C283 -179 288 -98 299 -16C481 -3 618 87 622 285ZM539 273C537 130 451 11 301 6L377 449C487 447 541 380 539 273ZM349 449L270 5C155 14 106 73 108 187C111 336 196 444 349 449Z" stroke="rgb(0,0,0)" stroke-opacity="1" stroke-width="8" fill="rgb(0,0,0)" fill-opacity="1"></path></g></g><g><g transform="matrix(1,0,0,1,489.98956298828125,114.44875)"><path transform="matrix(0.024480000000000002,0,0,-0.024480000000000002,0,0)" d="M146 266C146 526 243 632 301 700L282 726C225 675 60 542 60 266C60 159 85 58 133 -32C168 -99 200 -138 282 -215L301 -194C255 -137 146 -15 146 266Z" stroke="rgb(0,0,0)" stroke-opacity="1" stroke-width="8" fill="rgb(0,0,0)" fill-opacity="1"></path></g></g><g><g transform="matrix(1,0,0,1,498.125,114.44875)"><path transform="matrix(0.024480000000000002,0,0,-0.024480000000000002,0,0)" d="M9 1C24 -7 40 -11 52 -11C85 -11 124 18 155 65L231 182L242 113C255 28 278 -11 314 -11C336 -11 368 6 400 35L449 79L440 98C404 68 379 53 363 53C348 53 335 63 325 83C316 102 305 139 300 168L282 269L317 318C364 383 391 406 422 406C438 406 450 398 455 383L469 387L484 472C472 479 463 482 454 482C414 482 374 446 312 354L275 299L269 347C257 446 230 482 171 482C145 482 123 474 114 461L56 378L73 368C103 402 123 416 142 416C175 416 197 375 214 277L225 215L185 153C142 86 108 54 80 54C65 54 54 58 52 63L41 91L21 88C21 53 13 27 9 1Z" stroke="rgb(0,0,0)" stroke-opacity="1" stroke-width="8" fill="rgb(0,0,0)" fill-opacity="1"></path></g></g><g><g><g><g><g transform="matrix(1,0,0,1,511.07293701171875,118.77140649414062)"><path transform="matrix(0.017136,0,0,-0.017136,0,0)" d="M194 351L94 -144C83 -196 65 -231 47 -231C33 -231 15 -225 -6 -212L-14 -269C-4 -274 9 -276 24 -276C64 -276 104 -233 140 -152C160 -107 174 -57 202 70L278 420C282 438 284 451 284 457C284 473 275 482 259 482C237 482 200 461 125 408L97 388L104 368L136 389C173 412 176 414 183 414C193 414 201 404 201 391C201 382 194 356 194 351ZM285 712C256 712 227 679 227 645C227 620 242 604 266 604C297 604 321 633 321 671C321 695 306 712 285 712Z" stroke="rgb(0,0,0)" stroke-opacity="1" stroke-width="8" fill="rgb(0,0,0)" fill-opacity="1"></path></g></g></g></g></g><g><g transform="matrix(1,0,0,1,518.1458129882812,114.44875)"><path transform="matrix(0.024480000000000002,0,0,-0.024480000000000002,0,0)" d="M51 726L32 700C87 636 187 526 187 266C187 -10 83 -131 32 -194L51 -215C104 -165 273 -23 273 265C273 542 108 675 51 726Z" stroke="rgb(0,0,0)" stroke-opacity="1" stroke-width="8" fill="rgb(0,0,0)" fill-opacity="1"></path></g></g></g></g><g><g><g><g transform="matrix(1,0,0,1,448.66668701171875,232.14665649414061)"><path transform="matrix(0.024480000000000002,0,0,-0.024480000000000002,0,0)" d="M371 664L374 692L350 692L260 689C244 689 226 689 183 690L119 692L116 664L163 662C187 661 198 653 198 635C198 621 195 592 189 559L116 125C99 33 98 32 58 28L17 25L13 -3L55 -2C103 -1 126 0 145 0L242 -3L268 -3L271 25L222 28C195 30 186 37 186 57C186 63 187 74 188 78L231 340C381 169 404 140 509 -3L578 0C614 -1 620 -2 646 -3L646 27L626 27C603 27 583 39 562 65L316 367L608 640C624 655 645 665 662 665L683 665L683 692L660 691C639 690 623 689 615 689C605 689 589 690 568 691L548 692L548 663C548 655 538 642 510 614C466 569 297 403 233 353L278 613C285 651 292 658 329 661Z" stroke="rgb(0,0,0)" stroke-opacity="1" stroke-width="8" fill="rgb(0,0,0)" fill-opacity="1"></path></g></g><g><g><g><g><g transform="matrix(1,0,0,1,465.70831298828125,235.80268701171875)"><path transform="matrix(0.017136,0,0,-0.017136,0,0)" d="M34 388L41 368L73 389C110 412 113 414 120 414C130 414 138 404 138 391C138 384 134 361 130 347L64 107C56 76 51 49 51 30C51 6 62 -9 81 -9C107 -9 143 12 241 85L231 103L205 86C176 67 153 56 144 56C137 56 131 66 131 76C131 86 133 95 138 116L215 420C219 437 221 448 221 456C221 473 212 482 196 482C174 482 137 461 62 408ZM228 712C199 712 170 679 170 645C170 620 185 604 209 604C240 604 264 633 264 671C264 695 249 712 228 712ZM471 351L371 -144C360 -196 342 -231 324 -231C310 -231 292 -225 271 -212L263 -269C273 -274 286 -276 301 -276C341 -276 381 -233 417 -152C437 -107 451 -57 479 70L555 420C559 438 561 451 561 457C561 473 552 482 536 482C514 482 477 461 402 408L374 388L381 368L413 389C450 412 453 414 460 414C470 414 478 404 478 391C478 382 471 356 471 351ZM562 712C533 712 504 679 504 645C504 620 519 604 543 604C574 604 598 633 598 671C598 695 583 712 562 712Z" stroke="rgb(0,0,0)" stroke-opacity="1" stroke-width="8" fill="rgb(0,0,0)" fill-opacity="1"></path></g></g></g></g></g></g></g><g><g><g><g transform="matrix(1,0,0,1,89.66665649414062,157.83331298828125)"><path transform="matrix(0.0135,0,0,-0.0135,0,0)" d="M80 0L158 0L158 240C158 314 183 394 260 394C358 394 358 319 358 281L358 0L436 0L436 240C436 314 461 394 538 394C636 394 635 281 635 281L635 0L714 0L714 288C714 346 711 455 577 455C486 455 441 394 426 374C412 412 382 455 299 455C211 455 167 398 153 380L153 450L80 450ZM838 113C838 67 868 -11 952 -11C1062 -11 1117 34 1118 35L1118 0L1194 0L1194 305C1189 389 1123 461 1028 461C965 461 919 445 871 417L877 350C910 373 952 401 1027 401C1040 401 1066 400 1090 371C1115 341 1115 307 1116 279L1116 245C1013 244 838 219 838 113ZM911 114C911 177 1044 192 1116 193L1116 130C1116 65 1047 51 1004 51C950 51 911 78 911 114ZM1355 -195L1433 -195L1433 46C1466 15 1509 -11 1568 -11C1665 -11 1754 83 1754 224C1754 343 1691 455 1596 455C1562 455 1494 448 1430 396L1430 445L1355 445ZM1433 126L1433 334C1439 341 1473 391 1539 391C1621 391 1675 310 1675 222C1675 116 1600 50 1530 50C1471 50 1433 102 1433 126ZM1872 -195L1950 -195L1950 46C1983 15 2026 -11 2085 -11C2182 -11 2271 83 2271 224C2271 343 2208 455 2113 455C2079 455 2011 448 1947 396L1947 445L1872 445ZM1950 126L1950 334C1956 341 1990 391 2056 391C2138 391 2192 310 2192 222C2192 116 2117 50 2047 50C1988 50 1950 102 1950 126ZM2389 0L2464 0L2464 445L2389 445ZM2382 590L2472 590L2472 679L2382 679ZM2627 0L2705 0L2705 240C2705 314 2730 394 2807 394C2905 394 2905 319 2905 281L2905 0L2983 0L2983 288C2983 358 2974 455 2846 455C2758 455 2714 398 2700 380L2700 450L2627 450ZM3091 -71C3091 -148 3190 -206 3313 -206C3435 -206 3535 -148 3535 -70C3535 -58 3533 -45 3530 -33C3502 67 3380 69 3314 69L3239 69C3191 69 3183 103 3183 122C3183 129 3184 139 3194 159C3216 145 3241 129 3285 129C3378 129 3445 207 3445 292C3445 335 3432 364 3406 399L3415 391C3433 392 3464 395 3490 395C3510 395 3529 394 3549 392L3538 455C3484 455 3431 445 3381 424L3383 422C3350 445 3322 455 3285 455C3203 455 3126 389 3126 292C3126 272 3129 232 3159 193L3159 192C3141 168 3130 141 3130 108C3130 76 3139 55 3155 32C3116 9 3091 -30 3091 -71ZM3161 -71C3161 -42 3183 -8 3224 -4L3253 -3L3316 -3C3424 -3 3465 -31 3465 -72C3465 -118 3393 -149 3312 -149C3257 -149 3161 -127 3161 -71ZM3196 292C3196 377 3249 398 3285 398C3339 398 3375 358 3375 293C3375 208 3322 187 3286 187C3232 187 3196 227 3196 292ZM3915 386L3999 386L3999 117C3999 7 4048 -11 4081 -11C4126 -11 4177 -1 4229 27L4213 86C4199 76 4168 53 4125 53C4073 53 4071 112 4071 140L4071 386L4212 386L4212 445L4071 445L4071 571L4001 571L4001 445L3915 445ZM4288 221C4288 85 4393 -11 4507 -11C4621 -11 4727 84 4727 220C4727 345 4635 461 4507 461C4389 461 4288 357 4288 221ZM4366 231C4366 352 4443 399 4507 399C4571 399 4648 353 4648 231C4648 106 4574 53 4507 53C4441 53 4366 105 4366 231Z" stroke="rgb(0,0,0)" stroke-opacity="1" stroke-width="8" fill="rgb(0,0,0)" fill-opacity="1"></path></g></g></g><g><g><g transform="matrix(1,0,0,1,104.5,175.83331298828125)"><path transform="matrix(0.0135,0,0,-0.0135,0,0)" d="M80 0L158 0L158 240C158 314 183 394 260 394C358 394 358 319 358 281L358 0L436 0L436 288C436 349 432 455 299 455C230 455 187 422 155 384L155 722L80 722ZM598 0L673 0L673 445L598 445ZM591 590L681 590L681 679L591 679ZM783 -71C783 -148 882 -206 1005 -206C1127 -206 1227 -148 1227 -70C1227 -58 1225 -45 1222 -33C1194 67 1072 69 1006 69L931 69C883 69 875 103 875 122C875 129 876 139 886 159C908 145 933 129 977 129C1070 129 1137 207 1137 292C1137 335 1124 364 1098 399L1107 391C1125 392 1156 395 1182 395C1202 395 1221 394 1241 392L1230 455C1176 455 1123 445 1073 424L1075 422C1042 445 1014 455 977 455C895 455 818 389 818 292C818 272 821 232 851 193L851 192C833 168 822 141 822 108C822 76 831 55 847 32C808 9 783 -30 783 -71ZM853 -71C853 -42 875 -8 916 -4L945 -3L1008 -3C1116 -3 1157 -31 1157 -72C1157 -118 1085 -149 1004 -149C949 -149 853 -127 853 -71ZM888 292C888 377 941 398 977 398C1031 398 1067 358 1067 293C1067 208 1014 187 978 187C924 187 888 227 888 292ZM1336 0L1414 0L1414 240C1414 314 1439 394 1516 394C1614 394 1614 319 1614 281L1614 0L1692 0L1692 288C1692 349 1688 455 1555 455C1486 455 1443 422 1411 384L1411 722L1336 722ZM1807 226C1807 102 1894 -11 2025 -11C2088 -11 2140 11 2183 40L2177 106C2133 74 2088 51 2025 51C1949 51 1881 117 1877 220L2187 220L2187 249C2178 420 2080 461 2009 461C1903 461 1807 360 1807 226ZM1882 275C1893 324 1933 399 2009 399C2038 399 2113 386 2130 275ZM2298 0L2373 0L2373 206C2373 352 2484 386 2543 388L2543 455C2437 453 2384 385 2368 360L2368 450L2298 450Z" stroke="rgb(0,0,0)" stroke-opacity="1" stroke-width="8" fill="rgb(0,0,0)" fill-opacity="1"></path></g></g></g><g><g><g transform="matrix(1,0,0,1,93.76040649414062,193.83331298828125)"><path transform="matrix(0.0135,0,0,-0.0135,0,0)" d="M35 221C35 102 105 -11 207 -11C273 -11 321 19 355 52L355 0L434 0L434 722L358 722L358 401C323 429 276 456 213 456C114 456 35 353 35 221ZM113 222C113 353 200 394 258 394L260 394C271 394 303 393 334 364C352 347 355 341 355 325L355 134C355 103 308 51 248 51C194 51 113 90 113 222ZM598 0L673 0L673 445L598 445ZM591 590L681 590L681 679L591 679ZM836 0L914 0L914 240C914 314 939 394 1016 394C1114 394 1114 319 1114 281L1114 0L1192 0L1192 240C1192 314 1217 394 1294 394C1392 394 1391 281 1391 281L1391 0L1470 0L1470 288C1470 346 1467 455 1333 455C1242 455 1197 394 1182 374C1168 412 1138 455 1055 455C967 455 923 398 909 380L909 450L836 450ZM1584 226C1584 102 1671 -11 1802 -11C1865 -11 1917 11 1960 40L1954 106C1910 74 1865 51 1802 51C1726 51 1658 117 1654 220L1964 220L1964 249C1955 420 1857 461 1786 461C1680 461 1584 360 1584 226ZM1659 275C1670 324 1710 399 1786 399C1815 399 1890 386 1907 275ZM2074 0L2152 0L2152 240C2152 314 2177 394 2254 394C2352 394 2352 319 2352 281L2352 0L2430 0L2430 288C2430 358 2421 455 2293 455C2205 455 2161 398 2147 380L2147 450L2074 450ZM2538 34C2613 -7 2674 -11 2708 -11C2842 -11 2871 72 2871 127C2871 192 2825 234 2784 252C2722 280 2615 267 2615 340C2615 365 2630 401 2699 401C2771 401 2803 383 2843 364L2854 430C2799 453 2764 461 2708 461C2572 461 2544 382 2544 329C2544 259 2604 220 2648 206C2679 196 2722 191 2744 184C2764 178 2800 158 2800 120C2800 93 2782 52 2707 52C2626 52 2578 86 2550 102ZM2975 0L3050 0L3050 445L2975 445ZM2968 590L3058 590L3058 679L2968 679ZM3163 221C3163 85 3268 -11 3382 -11C3496 -11 3602 84 3602 220C3602 345 3510 461 3382 461C3264 461 3163 357 3163 221ZM3241 231C3241 352 3318 399 3382 399C3446 399 3523 353 3523 231C3523 106 3449 53 3382 53C3316 53 3241 105 3241 231ZM3713 0L3791 0L3791 240C3791 314 3816 394 3893 394C3991 394 3991 319 3991 281L3991 0L4069 0L4069 288C4069 358 4060 455 3932 455C3844 455 3800 398 3786 380L3786 450L3713 450Z" stroke="rgb(0,0,0)" stroke-opacity="1" stroke-width="8" fill="rgb(0,0,0)" fill-opacity="1"></path></g></g></g></g></svg>
</svg>
