<svg xmlns="http://www.w3.org/2000/svg" xmlns:xlink="http://www.w3.org/1999/xlink" x="0" y="0" width="661.3333740234375" height="301.3333435058594" style="
        width:661.3333740234375px;
        height:301.3333435058594px;
        background: #FFF;
        fill: none;
">
        
        
        <svg xmlns="http://www.w3.org/2000/svg" class="role-diagram-draw-area"><g class="shapes-region" style="stroke: black; fill: none;"><g class="composite-shape"><path class="real" d=" M300,152 C300,114.44 330.44,84 368,84 C405.56,84 436,114.44 436,152 C436,189.56 405.56,220 368,220 C330.44,220 300,189.56 300,152 Z" style="stroke-width: 1; stroke: rgb(0, 0, 0); fill: none; fill-opacity: 1; stroke-dasharray: 2;"/></g><g class="arrow-line"><path class="connection real" stroke-dasharray="" d="  M330,60 L330,280" style="stroke: rgb(0, 0, 0); stroke-width: 1; fill: none; fill-opacity: 1;"/></g><g class="arrow-line"><path class="connection real" stroke-dasharray="" d="  M442,170 L218,170" style="stroke: rgb(0, 0, 0); stroke-width: 1; fill: none; fill-opacity: 1;"/></g><g class="composite-shape"><path class="real" d=" M363.86,147.86 C363.86,145.58 365.72,143.73 368,143.73 C370.28,143.73 372.14,145.58 372.14,147.86 C372.14,150.15 370.28,152 368,152 C365.72,152 363.86,150.15 363.86,147.86 Z" style="stroke-width: 1; stroke: none; stroke-opacity: 1; fill: rgb(0, 0, 0); fill-opacity: 1;"/></g><g class="arrow-line"><path class="connection real" stroke-dasharray="" d="  M400,92 L332,209.78" style="stroke: rgb(0, 0, 0); stroke-width: 1; fill: none; fill-opacity: 1;"/></g><g class="arrow-line"><path class="connection real" stroke-dasharray="" d="  M368,84 L368,220" style="stroke: rgb(0, 0, 0); stroke-width: 1; fill: none; fill-opacity: 1;"/></g><g class="arrow-line"><path class="connection real" stroke-dasharray="" d="  M316.91,105.15 L421.09,192.57" style="stroke: rgb(0, 0, 0); stroke-width: 1; fill: none; fill-opacity: 1;"/></g><g/></g><g/><g/><g/></svg>
        <svg xmlns="http://www.w3.org/2000/svg" xmlns:xlink="http://www.w3.org/1999/xlink" width="660" height="300" style="width:660px;height:300px;font-family:Asana-Math, Asana;background:#FFF;"><g><g><g><g transform="matrix(1,0,0,1,243.66668701171875,33)"><path transform="matrix(0.018,0,0,-0.018,0,0)" d="M91 55C91 30 89 0 136 0L169 0C211 0 214 27 214 46L214 569C222 536 235 504 271 410L375 153C418 49 418 22 477 22L497 22C526 22 546 25 567 75C614 189 752 524 762 569C762 560 763 550 763 541L763 52C763 32 761 0 808 0L840 0C881 0 886 23 886 48L886 648C886 666 883 694 841 694L752 694C703 694 694 668 683 642C511 222 491 167 486 148C467 208 287 650 277 666C260 693 236 694 218 694L136 694C110 694 91 685 91 650ZM1037 139C1037 68 1043 -11 1197 -11C1252 -11 1296 -3 1345 44C1345 37 1343 0 1386 0L1433 0C1459 0 1478 8 1478 43L1478 416C1477 451 1458 458 1433 458L1389 458C1377 458 1365 457 1355 449C1344 437 1342 436 1342 406L1342 181C1342 72 1276 50 1237 50C1179 50 1173 67 1173 123C1173 131 1174 139 1174 147L1174 413C1173 430 1174 458 1127 458L1081 458C1036 458 1037 424 1037 414ZM1599 45C1599 5 1621 0 1647 0L1688 0C1731 2 1733 22 1733 49L1733 677C1733 714 1712 722 1687 722L1641 722C1613 722 1599 704 1599 675ZM1815 422C1815 411 1819 385 1859 385L1880 385L1880 152C1880 121 1880 91 1889 61C1906 6 1944 -11 1984 -11C2058 -11 2166 21 2166 47C2166 47 2158 102 2143 102C2130 102 2100 67 2053 67C2025 67 2011 85 2011 159C2011 168 2012 176 2012 185L2012 385L2105 385C2143 386 2148 411 2148 421C2148 430 2143 458 2103 458L2012 458L2012 544C2012 568 2002 589 1967 589L1931 589C1914 589 1883 588 1883 544L1883 458L1859 458C1819 458 1815 433 1815 422ZM2258 -149C2258 -160 2256 -195 2302 -195L2348 -195C2378 -195 2395 -186 2395 -147L2395 26C2427 3 2459 -11 2507 -11C2609 -11 2720 35 2721 224C2721 265 2719 299 2710 335C2690 412 2638 469 2538 469C2494 469 2441 458 2391 427C2383 457 2362 458 2345 458L2303 458C2263 458 2258 435 2258 412ZM2395 100L2395 358C2412 370 2436 391 2482 391C2563 391 2584 318 2584 242L2584 230C2584 192 2583 145 2558 106C2538 75 2504 62 2471 62C2425 62 2404 91 2395 100ZM2819 45C2819 5 2841 0 2867 0L2908 0C2951 2 2953 22 2953 49L2953 677C2953 714 2932 722 2907 722L2861 722C2833 722 2819 704 2819 675ZM3070 626C3070 586 3093 580 3116 580L3168 580C3177 581 3212 579 3212 624L3212 676C3212 716 3189 722 3166 722L3115 722C3096 721 3070 722 3070 676ZM3074 50C3074 33 3073 0 3118 0L3164 0C3209 0 3208 33 3208 45L3208 408C3208 434 3206 458 3159 458L3118 458C3073 458 3074 425 3074 413ZM3299 233C3299 74 3386 -11 3553 -11C3622 -11 3684 9 3726 33C3738 40 3742 44 3742 55C3742 55 3742 114 3731 125L3726 127L3722 127C3702 121 3655 62 3555 62C3453 62 3430 136 3428 214L3704 214C3722 214 3748 216 3748 257C3748 364 3706 475 3539 475C3395 475 3299 401 3299 233ZM3429 279C3435 341 3459 402 3539 402C3617 402 3633 346 3636 279ZM4238 46C4238 19 4246 0 4285 0L4530 0C4595 0 4663 1 4722 31C4807 74 4818 153 4818 192C4818 295 4743 350 4640 363C4664 370 4788 393 4788 514C4788 557 4771 604 4736 636C4673 694 4566 694 4498 694L4285 694C4243 694 4238 671 4238 648ZM4375 86L4375 324L4525 324C4659 319 4685 248 4685 197C4685 173 4678 150 4662 131C4631 95 4580 86 4510 86ZM4375 397L4375 608L4480 608C4519 608 4559 607 4596 593C4645 574 4657 540 4657 511C4657 482 4647 460 4628 437C4582 399 4540 397 4469 397ZM4910 233C4910 74 4997 -11 5164 -11C5233 -11 5295 9 5337 33C5349 40 5353 44 5353 55C5353 55 5353 114 5342 125L5337 127L5333 127C5313 121 5266 62 5166 62C5064 62 5041 136 5039 214L5315 214C5333 214 5359 216 5359 257C5359 364 5317 475 5150 475C5006 475 4910 401 4910 233ZM5040 279C5046 341 5070 402 5150 402C5228 402 5244 346 5247 279ZM5422 50C5422 47 5423 45 5424 42L5428 37C5453 21 5518 -11 5607 -11C5706 -11 5787 19 5787 140C5787 221 5727 261 5699 275C5637 307 5526 295 5526 354C5526 392 5559 402 5600 402C5697 402 5724 348 5745 348C5750 348 5754 352 5757 363C5763 397 5767 415 5767 426C5767 440 5761 443 5743 450C5706 465 5668 474 5621 475L5595 475C5511 473 5427 446 5427 331C5427 250 5494 210 5531 196C5588 175 5687 183 5687 121C5687 79 5654 68 5609 68C5502 68 5466 143 5448 143C5436 143 5435 127 5434 120C5426 76 5422 59 5422 50ZM5834 422C5834 411 5838 385 5878 385L5899 385L5899 152C5899 121 5899 91 5908 61C5925 6 5963 -11 6003 -11C6077 -11 6185 21 6185 47C6185 47 6177 102 6162 102C6149 102 6119 67 6072 67C6044 67 6030 85 6030 159C6030 168 6031 176 6031 185L6031 385L6124 385C6162 386 6167 411 6167 421C6167 430 6162 458 6122 458L6031 458L6031 544C6031 568 6021 589 5986 589L5950 589C5933 589 5902 588 5902 544L5902 458L5878 458C5838 458 5834 433 5834 422ZM6675 46C6675 23 6680 0 6721 0L6773 0C6807 0 6817 19 6817 44L6817 298L7056 298C7077 298 7102 300 7102 347C7102 369 7097 393 7058 393L6817 393L6817 590C6912 589 7094 586 7103 586C7147 586 7148 617 7148 631L7148 646C7148 671 7142 691 7103 691L6720 691C6678 691 6675 663 6675 649ZM7251 626C7251 586 7274 580 7297 580L7349 580C7358 581 7393 579 7393 624L7393 676C7393 716 7370 722 7347 722L7296 722C7277 721 7251 722 7251 676ZM7255 50C7255 33 7254 0 7299 0L7345 0C7390 0 7389 33 7389 45L7389 408C7389 434 7387 458 7340 458L7299 458C7254 458 7255 425 7255 413ZM7471 422C7471 411 7475 385 7515 385L7536 385L7536 152C7536 121 7536 91 7545 61C7562 6 7600 -11 7640 -11C7714 -11 7822 21 7822 47C7822 47 7814 102 7799 102C7786 102 7756 67 7709 67C7681 67 7667 85 7667 159C7667 168 7668 176 7668 185L7668 385L7761 385C7799 386 7804 411 7804 421C7804 430 7799 458 7759 458L7668 458L7668 544C7668 568 7658 589 7623 589L7587 589C7570 589 7539 588 7539 544L7539 458L7515 458C7475 458 7471 433 7471 422ZM8312 47C8312 5 8335 0 8358 0L8708 0C8752 0 8755 26 8755 49L8755 60C8755 85 8746 106 8711 106C8703 106 8540 102 8454 101L8454 651C8454 690 8428 694 8410 694L8358 694C8321 694 8312 676 8312 647ZM8857 626C8857 586 8880 580 8903 580L8955 580C8964 581 8999 579 8999 624L8999 676C8999 716 8976 722 8953 722L8902 722C8883 721 8857 722 8857 676ZM8861 50C8861 33 8860 0 8905 0L8951 0C8996 0 8995 33 8995 45L8995 408C8995 434 8993 458 8946 458L8905 458C8860 458 8861 425 8861 413ZM9115 45C9115 6 9139 0 9162 0L9206 0C9252 0 9252 53 9252 53L9252 261C9252 279 9253 297 9258 315C9267 346 9299 396 9361 396C9420 396 9420 355 9420 318L9420 44C9420 19 9427 0 9466 0L9513 0C9554 0 9556 28 9556 44L9556 308C9556 380 9556 469 9408 469C9327 469 9281 435 9246 400L9246 420C9246 463 9218 463 9200 463L9160 463C9141 463 9115 460 9115 418ZM9647 233C9647 74 9734 -11 9901 -11C9970 -11 10032 9 10074 33C10086 40 10090 44 10090 55C10090 55 10090 114 10079 125L10074 127L10070 127C10050 121 10003 62 9903 62C9801 62 9778 136 9776 214L10052 214C10070 214 10096 216 10096 257C10096 364 10054 475 9887 475C9743 475 9647 401 9647 233ZM9777 279C9783 341 9807 402 9887 402C9965 402 9981 346 9984 279ZM10159 50C10159 47 10160 45 10161 42L10165 37C10190 21 10255 -11 10344 -11C10443 -11 10524 19 10524 140C10524 221 10464 261 10436 275C10374 307 10263 295 10263 354C10263 392 10296 402 10337 402C10434 402 10461 348 10482 348C10487 348 10491 352 10494 363C10500 397 10504 415 10504 426C10504 440 10498 443 10480 450C10443 465 10405 474 10358 475L10332 475C10248 473 10164 446 10164 331C10164 250 10231 210 10268 196C10325 175 10424 183 10424 121C10424 79 10391 68 10346 68C10239 68 10203 143 10185 143C10173 143 10172 127 10171 120C10163 76 10159 59 10159 50Z" stroke="rgb(0,0,0)" stroke-opacity="1" stroke-width="8" fill="rgb(0,0,0)" fill-opacity="1"></path></g></g></g></g><g><g><g><g><g><g><g transform="matrix(1,0,0,1,389.20831298828125,141.56665649414063)"><path transform="matrix(0.0119,0,0,-0.0119,0,0)" d="M271 204L242 77C238 60 236 42 236 26C236 4 245 -9 260 -9C283 -9 324 17 406 85L399 106C375 86 346 59 324 59C315 59 309 68 309 82C309 87 309 90 310 93L402 472L392 481L359 463C318 478 301 482 274 482C246 482 226 477 199 464C137 433 104 403 79 354C35 265 4 145 4 67C4 23 19 -11 38 -11C75 -11 155 41 271 204ZM319 414C297 305 278 253 244 201C187 117 126 59 94 59C82 59 76 72 76 99C76 163 104 280 139 360C163 415 186 433 234 433C257 433 275 429 319 414Z" stroke="rgb(0,0,0)" stroke-opacity="1" stroke-width="8" fill="rgb(0,0,0)" fill-opacity="1"></path></g></g></g></g><g><g><g><g transform="matrix(1,0,0,1,389.09375,156.50415649414063)"><path transform="matrix(0.0119,0,0,-0.0119,0,0)" d="M235 722L223 733C171 707 135 698 63 691L59 670L107 670C131 670 141 663 141 646C141 639 140 628 139 622L38 71C37 68 37 64 37 61C37 22 85 -11 140 -11C177 -11 228 8 271 39C367 107 433 244 433 376C433 414 424 453 412 468C405 477 392 482 377 482C353 482 323 474 295 460C244 433 211 403 149 324ZM322 424C348 424 361 401 361 352C361 288 340 202 310 137C277 68 237 36 183 36C137 36 112 59 112 101C112 135 127 276 208 361C241 395 293 424 322 424Z" stroke="rgb(0,0,0)" stroke-opacity="1" stroke-width="8" fill="rgb(0,0,0)" fill-opacity="1"></path></g></g></g></g><svg x="381.66668701171875" overflow="visible" y="129.66665649414062" height="30.541667938232422" width="5.3541669845581055"><path d=" M 4.19 1.19 l -0.07 -0.07 q -0.76 0.02 -1.51 0.02 q -0.71 0.00 -1.50 -0.02 l -0.11 0.15 q 0.11 0.40 0.11 2.20 v 0.60 h 1.00 v -0.60 q 0.00 -0.92 0.05 -1.50 q 0.04 -0.42 0.83 -0.42 h 1.15 l 0.05 -0.06 v -0.31 z  M 1.11 3.94 v 22.66 h 1.00 v -22.66 z " style="fill:rgb(0,0,0);fill-opacity:1;stroke-width:1px;stroke:none;stroke-opacity:1;"></path><path d=" M 4.19 29.35 l -0.07 0.07 q -0.76 -0.02 -1.51 -0.02 q -0.71 0.00 -1.50 0.02 l -0.11 -0.15 q 0.11 -0.40 0.11 -2.20 v -0.60 h 1.00 v 0.60 q 0.00 0.92 0.05 1.50 q 0.04 0.42 0.83 0.42 h 1.15 l 0.05 0.06 v 0.31 z" style="fill:rgb(0,0,0);fill-opacity:1;stroke-width:1px;stroke:none;stroke-opacity:1;"></path></svg><svg x="396.67706298828125" overflow="visible" y="129.66665649414062" height="30.541667938232422" width="5.3541669845581055"><path d=" M 1.10 1.19 l 0.07 -0.07 q 0.76 0.02 1.51 0.02 q 0.71 0.00 1.50 -0.02 l 0.11 0.15 q -0.11 0.40 -0.11 2.20 v 0.60 h -1.00 v -0.60 q 0.00 -0.92 -0.05 -1.50 q -0.04 -0.42 -0.83 -0.42 h -1.15 l -0.05 -0.06 v -0.31 z  M 4.18 3.94 v 22.66 h -1.00 v -22.66 z" style="fill:rgb(0,0,0);fill-opacity:1;stroke-width:1px;stroke:none;stroke-opacity:1;"></path><path d=" M 1.10 29.35 l 0.07 0.07 q 0.76 -0.02 1.51 -0.02 q 0.71 0.00 1.50 0.02 l 0.11 -0.15 q -0.11 -0.40 -0.11 -2.20 v -0.60 h -1.00 v 0.60 q 0.00 0.92 -0.05 1.50 q -0.04 0.42 -0.83 0.42 h -1.15 l -0.05 0.06 v 0.31 z" style="fill:rgb(0,0,0);fill-opacity:1;stroke-width:1px;stroke:none;stroke-opacity:1;"></path></svg><line stroke-dasharray="1" style="fill:none;stroke-width:[object Object];stroke:rgba(0, 0, 0, 0);" x1="384.97918701171875" y1="130" x2="398.71877098083496" y2="130"></line><line stroke-dasharray="1" style="fill:none;stroke-width:[object Object];stroke:rgba(0, 0, 0, 0);" x1="384.97918701171875" y1="130" x2="384.97918701171875" y2="144.9375"></line><line stroke-dasharray="1" style="fill:none;stroke-width:[object Object];stroke:rgba(0, 0, 0, 0);" x1="398.71877098083496" y1="130" x2="398.71877098083496" y2="144.9375"></line><line stroke-dasharray="1" style="fill:none;stroke-width:[object Object];stroke:rgba(0, 0, 0, 0);" x1="384.97918701171875" y1="144.9375" x2="398.71877098083496" y2="144.9375"></line><line stroke-dasharray="1" style="fill:none;stroke-width:[object Object];stroke:rgba(0, 0, 0, 0);" x1="384.97918701171875" y1="144.9375" x2="398.71877098083496" y2="144.9375"></line><line stroke-dasharray="1" style="fill:none;stroke-width:[object Object];stroke:rgba(0, 0, 0, 0);" x1="384.97918701171875" y1="144.9375" x2="384.97918701171875" y2="159.875"></line><line stroke-dasharray="1" style="fill:none;stroke-width:[object Object];stroke:rgba(0, 0, 0, 0);" x1="398.71877098083496" y1="144.9375" x2="398.71877098083496" y2="159.875"></line><line stroke-dasharray="1" style="fill:none;stroke-width:[object Object];stroke:rgba(0, 0, 0, 0);" x1="384.97918701171875" y1="159.875" x2="398.71877098083496" y2="159.875"></line></g></g></g></svg>
</svg>
